<svg xmlns="http://www.w3.org/2000/svg" viewBox="0 0 576 512"><!--! Font Awesome Pro 6.2.0 by @fontawesome - https://fontawesome.com License - https://fontawesome.com/license (Commercial License) Copyright 2022 Fonticons, Inc. --><path d="M48 48H336V80H48V48zM40 0C17.9 0 0 17.9 0 40V88c0 22.1 17.9 40 40 40H344c22.1 0 40-17.9 40-40V40c0-22.1-17.9-40-40-40H40zM32 160V448c0 35.3 28.7 64 64 64H288c11.6 0 22.4-3.1 31.8-8.4c-13.7-11.3-25.6-24.7-35.3-39.6H96c-8.8 0-16-7.2-16-16V416h56c13.3 0 24-10.7 24-24s-10.7-24-24-24H80V320h56c13.3 0 24-10.7 24-24s-10.7-24-24-24H80V224h56c13.3 0 24-10.7 24-24s-10.7-24-24-24H80V160H32zm320 0H304v87.2c13.8-14.6 30-26.8 48-36V160zm80 304c-53 0-96-43-96-96c0-17.8 4.8-34.5 13.3-48.8L480.8 450.7c-14.3 8.4-31 13.3-48.8 13.3zM383.2 285.3c14.3-8.4 31-13.3 48.8-13.3c53 0 96 43 96 96c0 17.8-4.8 34.5-13.3 48.8L383.2 285.3zM432 512a144 144 0 1 0 0-288 144 144 0 1 0 0 288z"/></svg>