<svg xmlns="http://www.w3.org/2000/svg" viewBox="0 0 512 512"><!--! Font Awesome Pro 6.2.0 by @fontawesome - https://fontawesome.com License - https://fontawesome.com/license (Commercial License) Copyright 2022 Fonticons, Inc. --><path d="M510.4 195.2l-120-160c-1.5-2-3.9-3.2-6.4-3.2H128c-2.5 0-4.9 1.2-6.4 3.2l-120 160c-2.3 3.1-2.1 7.3 .5 10.2l248 272c1.5 1.7 3.7 2.6 5.9 2.6s4.4-1 5.9-2.6l248-272c2.6-2.8 2.8-7.1 .5-10.2zM383.8 53.1L488 192H272.6L383.8 53.1zM256 187.2L144.7 48H367.3L256 187.2zM128.2 53.1L239.4 192H24L128.2 53.1zM256 460.1L26.1 208H485.9L256 460.1z"/></svg>