<svg xmlns="http://www.w3.org/2000/svg" viewBox="0 0 576 512"><!--! Font Awesome Pro 6.2.0 by @fontawesome - https://fontawesome.com License - https://fontawesome.com/license (Commercial License) Copyright 2022 Fonticons, Inc. --><path d="M128 336h32V312H128V336zM528 32h-480C21.49 32 0 53.49 0 80v352C0 458.5 21.49 480 48 480h480c26.51 0 48-21.49 48-48v-352C576 53.49 554.5 32 528 32zM512 416l-64 .0002V384h-32v32h-128V384H256v32H160L160 384H128l0 32L64 416V240h64v24h32V240h96v24h32V240h128v96h32v-96h64V416zM512 208h-64v-32h-32v32h-128v-32H256v32H160v-32H128v32H64V96l63.1 .0002L128 128h32l0-31.1H256V128h32V96h128V128h32V96L512 96V208zM256 336h32V312H256V336z" class="fa-secondary"/></svg>