<svg xmlns="http://www.w3.org/2000/svg" viewBox="0 0 576 512"><!--! Font Awesome Pro 6.2.0 by @fontawesome - https://fontawesome.com License - https://fontawesome.com/license (Commercial License) Copyright 2022 Fonticons, Inc. --><path d="M576 128v192c0 50.86-39.86 92.19-89.93 95.39c-3.221-5.695-6.955-11.15-11.69-15.89L428.4 352H480c17.66 0 32-14.34 32-32V128c0-17.66-14.34-32-32-32H96C78.34 96 64 110.3 64 128v192c0 17.66 14.34 32 32 32h51.64l-45.45 46.94c-4.947 4.945-8.865 10.57-12.19 16.45C39.9 412.2 0 370.9 0 320V128c0-52.94 43.06-96 96-96h384C532.9 32 576 75.06 576 128z" class="fa-secondary"/></svg>