<svg xmlns="http://www.w3.org/2000/svg" viewBox="0 0 512 512"><!--! Font Awesome Pro 6.2.0 by @fontawesome - https://fontawesome.com License - https://fontawesome.com/license (Commercial License) Copyright 2022 Fonticons, Inc. --><path d="M121.9 467.4L86.63 502.6C74.13 515.1 53.87 515.1 41.37 502.6C28.88 490.1 28.88 469.9 41.37 457.4L76.6 422.2C48.59 384.8 32 338.3 32 288C32 164.3 132.3 64 256 64C379.7 64 480 164.3 480 288C480 338.3 463.4 384.8 435.4 422.2L470.6 457.4C483.1 469.9 483.1 490.1 470.6 502.6C458.1 515.1 437.9 515.1 425.4 502.6L390.2 467.4C352.8 495.4 306.3 512 256 512C205.7 512 159.2 495.4 121.9 467.4zM280 184C280 170.7 269.3 160 256 160C242.7 160 232 170.7 232 184V288C232 294.4 234.5 300.5 239 304.1L287 352.1C296.4 362.3 311.6 362.3 320.1 352.1C330.3 343.6 330.3 328.4 320.1 319L280 278.1V184z" class="fa-secondary"/></svg>