<svg xmlns="http://www.w3.org/2000/svg" viewBox="0 0 512 512"><!--! Font Awesome Pro 6.2.0 by @fontawesome - https://fontawesome.com License - https://fontawesome.com/license (Commercial License) Copyright 2022 Fonticons, Inc. --><path d="M12 176.2C21.1 165.9 34.2 160 48 160H464c13.8 0 26.9 5.9 36 16.2s13.4 24.1 11.6 37.7l-32 256c-3 24-23.4 42-47.6 42H80c-24.2 0-44.6-18-47.6-42L.4 214c-1.7-13.7 2.5-27.4 11.6-37.7zM256 480c101.6 0 184-60.9 184-136s-82.4-136-184-136S72 268.9 72 344s82.4 136 184 136z" class="fa-secondary"/></svg>