<svg xmlns="http://www.w3.org/2000/svg" viewBox="0 0 640 512"><!--! Font Awesome Pro 6.2.0 by @fontawesome - https://fontawesome.com License - https://fontawesome.com/license (Commercial License) Copyright 2022 Fonticons, Inc. --><path d="M456 0C469.3 0 480 10.75 480 24C480 37.25 469.3 48 456 48H56C42.75 48 32 37.25 32 24C32 10.75 42.75 0 56 0H456zM12.02 176.2C21.13 165.9 34.23 160 48 160H464C477.8 160 490.9 165.9 499.1 176.2C504.2 181 507.4 186.6 509.4 192.5C504.1 192.2 500.5 192 496 192C449.1 192 406.5 210.3 374.1 240.2C342.9 220.1 301.4 208 256 208C154.4 208 72 268.9 72 344C72 419.1 154.4 480 256 480C289.2 480 320.4 473.5 347.3 462.1C359.7 481.7 375.9 498.7 394.8 512H80C55.79 512 35.37 493.1 32.37 469.1L.3709 213.1C-1.337 200.3 2.904 186.6 12.02 176.2L12.02 176.2zM288 352C288 365.3 273.7 376 256 376C238.3 376 224 365.3 224 352C224 338.7 238.3 328 256 328C273.7 328 288 338.7 288 352zM16 104C16 90.75 26.75 80 40 80H472C485.3 80 496 90.75 496 104C496 117.3 485.3 128 472 128H40C26.75 128 16 117.3 16 104V104z" class="fa-secondary"/></svg>