<svg xmlns="http://www.w3.org/2000/svg" viewBox="0 0 640 512"><!--! Font Awesome Pro 6.2.0 by @fontawesome - https://fontawesome.com License - https://fontawesome.com/license (Commercial License) Copyright 2022 Fonticons, Inc. --><path d="M64.36 215.7C54.07 223.3 47.1 235.3 48 248L48 304c0 8.837-7.164 16-16 16l-16 .0001C7.163 320 0 312.8 0 304V248C0 199.4 39.4 160 88 160H88.46C74.58 175.5 66.12 195 64.36 215.7zM632 32L531.9 32c-3.064 3.188-6.437 5.976-10.2 8.299c5.11 5.38 9.91 10.47 13.69 14.5c5.534 5.908 8.613 13.71 8.59 21.8l.0394 6.695l92.44-36.66c3.673-2.456 4.684-7.412 2.228-11.08C637.2 33.34 634.7 32.01 632 32z" class="fa-secondary"/></svg>