<svg xmlns="http://www.w3.org/2000/svg" viewBox="0 0 512 512"><!--! Font Awesome Pro 6.2.0 by @fontawesome - https://fontawesome.com License - https://fontawesome.com/license (Commercial License) Copyright 2022 Fonticons, Inc. --><path d="M256 48c30.41 0 64.14 24.03 89.71 48h65.94C389.5 69.16 325.8 0 256 0S122.5 69.16 100.3 96h65.85C191.7 72.03 225.5 48 256 48zM384 384c-8.836 0-16 7.164-16 16S375.2 416 384 416s16-7.164 16-16S392.8 384 384 384zM320 384c-8.836 0-16 7.164-16 16S311.2 416 320 416s16-7.164 16-16S328.8 384 320 384zM384 288c-8.836 0-16 7.164-16 16S375.2 320 384 320s16-7.164 16-16S392.8 288 384 288zM256 384c-8.836 0-16 7.164-16 16S247.2 416 256 416s16-7.164 16-16S264.8 384 256 384zM192 384c-8.836 0-16 7.164-16 16S183.2 416 192 416s16-7.164 16-16S200.8 384 192 384zM224 336c-8.836 0-16 7.164-16 16s7.164 16 16 16s16-7.164 16-16S232.8 336 224 336zM160 336c-8.836 0-16 7.164-16 16s7.164 16 16 16s16-7.164 16-16S168.8 336 160 336zM128 384c-8.836 0-16 7.164-16 16S119.2 416 128 416s16-7.164 16-16S136.8 384 128 384zM112 304C112 312.8 119.2 320 128 320s16-7.164 16-16S136.8 288 128 288S112 295.2 112 304zM304 304c0 8.836 7.164 16 16 16s16-7.164 16-16S328.8 288 320 288S304 295.2 304 304zM176 304C176 312.8 183.2 320 192 320s16-7.164 16-16S200.8 288 192 288S176 295.2 176 304zM352 336c-8.836 0-16 7.164-16 16s7.164 16 16 16s16-7.164 16-16S360.8 336 352 336zM288 336c-8.836 0-16 7.164-16 16s7.164 16 16 16s16-7.164 16-16S296.8 336 288 336zM240 304C240 312.8 247.2 320 256 320s16-7.164 16-16S264.8 288 256 288S240 295.2 240 304z" class="fa-secondary"/></svg>