<svg xmlns="http://www.w3.org/2000/svg" viewBox="0 0 512 512"><!--! Font Awesome Pro 6.2.0 by @fontawesome - https://fontawesome.com License - https://fontawesome.com/license (Commercial License) Copyright 2022 Fonticons, Inc. --><path d="M342.6 361.4C355.1 373.9 355.1 394.1 342.6 406.6L262.6 486.6C250.1 499.1 229.9 499.1 217.4 486.6C204.9 474.1 204.9 453.9 217.4 441.4L242.7 416H96C78.33 416 64 430.3 64 448V480C64 497.7 49.67 512 32 512C14.33 512 0 497.7 0 480V448C0 394.1 42.98 352 96 352H242.7L217.4 326.6C204.9 314.1 204.9 293.9 217.4 281.4C229.9 268.9 250.1 268.9 262.6 281.4L342.6 361.4zM384 384C384 348.7 412.7 319.1 448 319.1C483.3 319.1 512 348.7 512 384C512 419.3 483.3 448 448 448C412.7 448 384 419.3 384 384z" class="fa-secondary"/></svg>