<svg xmlns="http://www.w3.org/2000/svg" viewBox="0 0 512 512"><!--! Font Awesome Pro 6.2.0 by @fontawesome - https://fontawesome.com License - https://fontawesome.com/license (Commercial License) Copyright 2022 Fonticons, Inc. --><path d="M204.2 290.5C200.3 288.8 196.2 288 192 288H64c-17.69 0-32 14.31-32 32s14.31 32 32 32h50.75l-105.4 105.4c-12.5 12.5-12.5 32.75 0 45.25s32.75 12.5 45.25 0L160 397.3V448c0 17.69 14.31 32 32 32s32-14.31 32-32v-128c0-4.164-.8477-8.312-2.465-12.22C218.3 299.9 212.1 293.7 204.2 290.5zM502.6 9.375c-12.49-12.49-32.74-12.51-45.25 0L352 114.8V64c0-17.69-14.31-32-32-32s-32 14.31-32 32v128c0 4.164 .8477 8.312 2.463 12.22c3.242 7.84 9.479 14.08 17.32 17.32C311.7 223.2 315.8 224 320 224h128c17.69 0 32-14.31 32-32s-14.31-32-32-32h-50.75l105.4-105.4C515.1 42.13 515.1 21.88 502.6 9.375z" class="fa-secondary"/></svg>