<svg xmlns="http://www.w3.org/2000/svg" viewBox="0 0 576 512"><!--! Font Awesome Pro 6.2.0 by @fontawesome - https://fontawesome.com License - https://fontawesome.com/license (Commercial License) Copyright 2022 Fonticons, Inc. --><path d="M240 0C266.5 0 288 21.49 288 48V256H528C554.5 256 576 277.5 576 304V400C576 408 574 415.6 570.6 422.2C566.8 420.5 562.7 419.1 558.5 418.1C545.4 415.1 531.8 408.3 521.2 399.5C499 380.8 466.9 379.4 443.2 396.1C425.2 408.5 403 416.5 384 416.5C364.4 416.5 343.2 408.8 324.8 396.1C302.8 380.6 273.3 380.6 251.2 396.1C234 407.9 213.2 416.5 192 416.5C172.1 416.5 150.8 408.5 132.9 396.1C109.1 379.4 77.01 380.8 54.78 399.5C44.18 408.3 30.59 415.1 17.49 418.1C13.27 419.1 9.239 420.5 5.439 422.2C1.965 415.6 0 408 0 400V304C0 277.5 21.49 256 48 256H64V48C64 21.49 85.49 0 112 0H240z" class="fa-secondary"/></svg>