<svg xmlns="http://www.w3.org/2000/svg" viewBox="0 0 576 512"><!--! Font Awesome Pro 6.2.0 by @fontawesome - https://fontawesome.com License - https://fontawesome.com/license (Commercial License) Copyright 2022 Fonticons, Inc. --><path d="M416 288h-95.1c-17.67 0-32 14.33-32 32s14.33 32 32 32H416c17.67 0 32-14.33 32-32S433.7 288 416 288zM352 416h-32c-17.67 0-32 14.33-32 32s14.33 32 32 32h32c17.67 0 31.1-14.33 31.1-32S369.7 416 352 416zM480 160h-159.1c-17.67 0-32 14.33-32 32s14.33 32 32 32H480c17.67 0 32-14.33 32-32S497.7 160 480 160zM544 32h-223.1c-17.67 0-32 14.33-32 32s14.33 32 32 32H544c17.67 0 32-14.33 32-32S561.7 32 544 32z" class="fa-secondary"/></svg>