<svg xmlns="http://www.w3.org/2000/svg" viewBox="0 0 512 512"><!--! Font Awesome Pro 6.2.0 by @fontawesome - https://fontawesome.com License - https://fontawesome.com/license (Commercial License) Copyright 2022 Fonticons, Inc. --><path d="M480 256h-160c-17.67 0-32 14.33-32 32v160c0 17.67 14.33 32 32 32h160c17.67 0 32-14.33 32-32V288C512 270.3 497.7 256 480 256zM320 192h96c17.6 0 32-14.4 32-32V64c0-17.6-14.4-32-32-32h-96c-17.6 0-32 14.4-32 32v96C288 177.6 302.4 192 320 192z" class="fa-secondary"/></svg>