<svg xmlns="http://www.w3.org/2000/svg" viewBox="0 0 512 512"><!--! Font Awesome Pro 6.2.0 by @fontawesome - https://fontawesome.com License - https://fontawesome.com/license (Commercial License) Copyright 2022 Fonticons, Inc. --><path d="M184 136c8.188 0 16.38-3.125 22.62-9.375L224 109.3V224h64V109.3l17.38 17.38C311.6 132.9 319.8 136 328 136c18.28 0 32-14.95 32-32c0-8.188-3.125-16.38-9.375-22.62l-72-72C272.4 3.125 264.2 0 256 0S239.6 3.125 233.4 9.375l-72 72C155.1 87.63 152 95.81 152 104C152 121.1 165.7 136 184 136zM328 376c-8.188 0-16.38 3.125-22.62 9.375L288 402.8V288H224v114.8l-17.38-17.38C200.4 379.1 192.2 376 184 376c-18.28 0-32 14.95-32 32c0 8.188 3.125 16.38 9.375 22.62l72 72C239.6 508.9 247.8 512 256 512s16.38-3.125 22.62-9.375l72-72C356.9 424.4 360 416.2 360 408C360 390.9 346.3 376 328 376z" class="fa-secondary"/></svg>