<svg xmlns="http://www.w3.org/2000/svg" viewBox="0 0 512 512"><!--! Font Awesome Pro 6.2.0 by @fontawesome - https://fontawesome.com License - https://fontawesome.com/license (Commercial License) Copyright 2022 Fonticons, Inc. --><path d="M490.1 257.7C486.8 256.5 483.3 256 479.1 256c-13.41 0-25.89 8.469-30.36 21.88C434.9 322.2 393.5 352 346.8 352H173.2l41.38-41.38c12.5-12.5 12.5-32.75 0-45.25c-12.49-12.49-32.74-12.51-45.25 0l-95.1 96c-12.5 12.5-12.5 32.75 0 45.25l95.1 96c12.5 12.5 32.75 12.5 45.25 0s12.5-32.75 0-45.25L173.2 416h173.6c74.33 0 140-47.38 163.5-117.9C515.9 281.3 506.9 263.2 490.1 257.7z" class="fa-secondary"/></svg>