<svg xmlns="http://www.w3.org/2000/svg" viewBox="0 0 576 512"><!--! Font Awesome Pro 6.2.0 by @fontawesome - https://fontawesome.com License - https://fontawesome.com/license (Commercial License) Copyright 2022 Fonticons, Inc. --><path d="M48 192H192V416.5C172.1 416.4 150.8 408.5 132.9 396.1C109.1 379.4 77.01 380.8 54.78 399.5C44.18 408.3 30.59 415.1 17.49 418.1C11.19 419.6 5.326 421.9 0 425V240C0 213.5 21.49 192 48 192V192zM558.5 418.1C545.4 415.1 531.8 408.3 521.2 399.5C499 380.8 466.9 379.4 443.2 396.1C425.2 408.5 403 416.5 384 416.5C383.1 416.5 384 416.5 384 416.5V192H528C554.5 192 576 213.5 576 240V425C570.7 421.9 564.8 419.6 558.5 418.1V418.1z" class="fa-secondary"/></svg>