<svg xmlns="http://www.w3.org/2000/svg" viewBox="0 0 448 512"><!--! Font Awesome Pro 6.2.0 by @fontawesome - https://fontawesome.com License - https://fontawesome.com/license (Commercial License) Copyright 2022 Fonticons, Inc. --><path d="M416 224c-17.67 0-32 14.33-32 32s14.33 32 32 32s32-14.33 32-32S433.7 224 416 224zM160 256c0-17.67-14.33-32-32-32S96 238.3 96 256s14.33 32 32 32S160 273.7 160 256zM32 224C14.33 224 0 238.3 0 256s14.33 32 32 32s32-14.33 32-32S49.67 224 32 224zM224 288c17.67 0 32-14.33 32-32s-14.33-32-32-32S192 238.3 192 256S206.3 288 224 288zM320 224c-17.67 0-32 14.33-32 32s14.33 32 32 32s32-14.33 32-32S337.7 224 320 224z" class="fa-secondary"/></svg>