<svg xmlns="http://www.w3.org/2000/svg" viewBox="0 0 512 512"><!--! Font Awesome Pro 6.2.0 by @fontawesome - https://fontawesome.com License - https://fontawesome.com/license (Commercial License) Copyright 2022 Fonticons, Inc. --><path d="M288 512c-109.8 0-202.8-78.53-220.9-186.7C64.16 307.9 75.94 291.4 93.34 288.4c17.72-3.156 33.94 8.844 36.88 26.25C143.2 391.9 209.5 448 288 448c88.22 0 160-71.78 160-160c0-78.47-56.06-144.8-133.3-157.8c-17.44-2.938-29.19-19.41-26.28-36.84C291.4 75.91 307.8 64 325.3 67.09C433.5 85.22 512 178.1 512 288C512 411.5 411.5 512 288 512z" class="fa-secondary"/></svg>