<svg xmlns="http://www.w3.org/2000/svg" viewBox="0 0 448 512"><!--! Font Awesome Pro 6.2.0 by @fontawesome - https://fontawesome.com License - https://fontawesome.com/license (Commercial License) Copyright 2022 Fonticons, Inc. --><path d="M416 95.1c17.67 0 32-14.33 32-32s-14.33-32-32-32s-32 14.33-32 32S398.3 95.1 416 95.1zM320 95.1c17.67 0 32-14.33 32-32s-14.33-32-32-32s-32 14.33-32 32S302.3 95.1 320 95.1zM224 95.1c17.67 0 32-14.33 32-32s-14.33-32-32-32s-32 14.33-32 32S206.3 95.1 224 95.1zM128 95.1c17.67 0 32-14.33 32-32s-14.33-32-32-32s-32 14.33-32 32S110.3 95.1 128 95.1zM32 95.1c17.67 0 32-14.33 32-32s-14.33-32-32-32s-32 14.33-32 32S14.33 95.1 32 95.1z" class="fa-secondary"/></svg>