<svg xmlns="http://www.w3.org/2000/svg" viewBox="0 0 512 512"><!--! Font Awesome Pro 6.2.0 by @fontawesome - https://fontawesome.com License - https://fontawesome.com/license (Commercial License) Copyright 2022 Fonticons, Inc. --><path d="M416 320h-96c-17.6 0-32 14.4-32 32v96c0 17.6 14.4 32 32 32h96c17.6 0 32-14.4 32-32v-96C448 334.4 433.6 320 416 320zM480 32h-160c-17.67 0-32 14.33-32 32v160c0 17.67 14.33 32 32 32h160c17.67 0 32-14.33 32-32V64C512 46.33 497.7 32 480 32z" class="fa-secondary"/></svg>