<svg xmlns="http://www.w3.org/2000/svg" viewBox="0 0 448 512"><!--! Font Awesome Pro 6.2.0 by @fontawesome - https://fontawesome.com License - https://fontawesome.com/license (Commercial License) Copyright 2022 Fonticons, Inc. --><path d="M54.63 41.38c-12.5-12.5-32.75-12.5-45.25 0c-12.49 12.49-12.51 32.74 0 45.25L178.8 256L224 210.8L54.63 41.38zM416 288c-17.69 0-32 14.31-32 32v50.75L269.3 256L224 301.3L338.8 416H288c-17.69 0-32 14.31-32 32s14.31 32 32 32h128c4.164 0 8.312-.8477 12.22-2.461c7.84-3.242 14.08-9.48 17.32-17.32C447.2 456.3 448 452.2 448 448v-128C448 302.3 433.7 288 416 288z" class="fa-secondary"/></svg>