<svg xmlns="http://www.w3.org/2000/svg" viewBox="0 0 512 512"><!--! Font Awesome Pro 6.2.0 by @fontawesome - https://fontawesome.com License - https://fontawesome.com/license (Commercial License) Copyright 2022 Fonticons, Inc. --><path d="M462.4 329.8C433.4 419.7 350.4 480 255.1 480C184.6 480 119.9 445.5 80 389.9V464c0 17.69-14.33 32-32 32s-32-14.31-32-32V320c0-17.69 14.33-32 32-32h128c17.67 0 32 14.31 32 32s-14.33 32-32 32H131.6C159.7 391.5 205.5 416 256 416c66.58 0 125.1-42.53 145.5-105.8c5.422-16.78 23.38-26.03 40.3-20.59C458.6 294.1 467.9 313 462.4 329.8z" class="fa-secondary"/></svg>