<svg xmlns="http://www.w3.org/2000/svg" viewBox="0 0 512 512"><!--! Font Awesome Pro 6.2.0 by @fontawesome - https://fontawesome.com License - https://fontawesome.com/license (Commercial License) Copyright 2022 Fonticons, Inc. --><path d="M80 96c-8.8 0-16 7.2-16 16V432c0 8.8 7.2 16 16 16H432c8.8 0 16-7.2 16-16V112c0-8.8-7.2-16-16-16h-8c-17.7 0-32-14.3-32-32s14.3-32 32-32h8c44.2 0 80 35.8 80 80V432c0 44.2-35.8 80-80 80H80c-44.2 0-80-35.8-80-80V112C0 67.8 35.8 32 80 32h8c17.7 0 32 14.3 32 32s-14.3 32-32 32H80z" class="fa-secondary"/></svg>