<svg xmlns="http://www.w3.org/2000/svg" viewBox="0 0 448 512"><!--! Font Awesome Pro 6.2.0 by @fontawesome - https://fontawesome.com License - https://fontawesome.com/license (Commercial License) Copyright 2022 Fonticons, Inc. --><path d="M32 223.1c-17.67 0-32 14.33-32 32S14.33 287.1 32 287.1s32-14.33 32-32S49.67 223.1 32 223.1zM224 287.1c17.67 0 32-14.33 32-32s-14.33-32-32-32S192 238.3 192 255.1S206.3 287.1 224 287.1zM160 255.1c0-17.67-14.33-32-32-32S96 238.3 96 255.1S110.3 287.1 128 287.1S160 273.7 160 255.1zM416 223.1c-17.67 0-32 14.33-32 32S398.3 287.1 416 287.1s32-14.33 32-32S433.7 223.1 416 223.1zM320 223.1c-17.67 0-32 14.33-32 32S302.3 287.1 320 287.1s32-14.33 32-32S337.7 223.1 320 223.1z" class="fa-secondary"/></svg>