<svg xmlns="http://www.w3.org/2000/svg" viewBox="0 0 576 512"><!--! Font Awesome Pro 6.2.0 by @fontawesome - https://fontawesome.com License - https://fontawesome.com/license (Commercial License) Copyright 2022 Fonticons, Inc. --><path d="M480 80C480 53.49 501.5 32 528 32C554.5 32 576 53.49 576 80C576 106.5 554.5 128 528 128C501.5 128 480 106.5 480 80zM352 208C352 181.5 373.5 160 400 160C426.5 160 448 181.5 448 208C448 234.5 426.5 256 400 256C373.5 256 352 234.5 352 208zM448 336C448 362.5 426.5 384 400 384C373.5 384 352 362.5 352 336C352 309.5 373.5 288 400 288C426.5 288 448 309.5 448 336zM352 464C352 437.5 373.5 416 400 416C426.5 416 448 437.5 448 464C448 490.5 426.5 512 400 512C373.5 512 352 490.5 352 464zM480 464C480 437.5 501.5 416 528 416C554.5 416 576 437.5 576 464C576 490.5 554.5 512 528 512C501.5 512 480 490.5 480 464zM320 336C320 362.5 298.5 384 272 384C245.5 384 224 362.5 224 336C224 309.5 245.5 288 272 288C298.5 288 320 309.5 320 336zM224 464C224 437.5 245.5 416 272 416C298.5 416 320 437.5 320 464C320 490.5 298.5 512 272 512C245.5 512 224 490.5 224 464zM192 464C192 490.5 170.5 512 144 512C117.5 512 96 490.5 96 464C96 437.5 117.5 416 144 416C170.5 416 192 437.5 192 464zM480 336C480 309.5 501.5 288 528 288C554.5 288 576 309.5 576 336C576 362.5 554.5 384 528 384C501.5 384 480 362.5 480 336zM576 208C576 234.5 554.5 256 528 256C501.5 256 480 234.5 480 208C480 181.5 501.5 160 528 160C554.5 160 576 181.5 576 208z" class="fa-secondary"/></svg>