<svg xmlns="http://www.w3.org/2000/svg" viewBox="0 0 448 512"><!--! Font Awesome Pro 6.2.0 by @fontawesome - https://fontawesome.com License - https://fontawesome.com/license (Commercial License) Copyright 2022 Fonticons, Inc. --><path d="M342.6 361.4C355.1 373.9 355.1 394.1 342.6 406.6L246.6 502.6C234.1 515.1 213.9 515.1 201.4 502.6C188.9 490.1 188.9 469.9 201.4 457.4L242.7 416H96C78.33 416 64 430.3 64 448V480C64 497.7 49.67 512 32 512C14.33 512 0 497.7 0 480V448C0 394.1 42.98 352 96 352H242.7L201.4 310.6C188.9 298.1 188.9 277.9 201.4 265.4C213.9 252.9 234.1 252.9 246.6 265.4L342.6 361.4z" class="fa-secondary"/></svg>