<svg xmlns="http://www.w3.org/2000/svg" viewBox="0 0 512 512"><!--! Font Awesome Pro 6.2.0 by @fontawesome - https://fontawesome.com License - https://fontawesome.com/license (Commercial License) Copyright 2022 Fonticons, Inc. --><path d="M177.4 49.38C186.2 49.38 193.4 56.54 193.4 65.38V170.7C193.4 185 176.1 192.1 166.1 182.1L135.5 151.5C111.6 179.5 97.14 215.8 97.14 255.5C97.14 266.7 98.27 277.5 100.4 288H35.47C33.93 277.4 33.14 266.6 33.14 255.5C33.14 198.2 54.71 145.8 90.18 106.2L60.69 76.69C50.61 66.61 57.74 49.38 71.1 49.38H177.4zM348.2 332.2L377.2 361.2C402.1 333.1 417.1 296.1 417.1 255.5C417.1 244.7 416.1 234.2 414 224H478.9C480.4 234.3 481.1 244.8 481.1 255.5C481.1 313.7 458.9 366.7 422.6 406.6L453.6 437.6C463.7 447.7 456.5 464.9 442.3 464.9H336.9C328.1 464.9 320.9 457.7 320.9 448.9V343.5C320.9 329.3 338.1 322.1 348.2 332.2L348.2 332.2z" class="fa-secondary"/></svg>