<svg xmlns="http://www.w3.org/2000/svg" viewBox="0 0 640 512"><!--! Font Awesome Pro 6.2.0 by @fontawesome - https://fontawesome.com License - https://fontawesome.com/license (Commercial License) Copyright 2022 Fonticons, Inc. --><path d="M112 78.06V40C112 26.75 122.7 15.1 136 15.1C149.3 15.1 160 26.75 160 40V136C160 149.3 149.3 160 136 160H40C26.75 160 15.1 149.3 15.1 136C15.1 122.7 26.75 112 40 112H78.06L15.03 48.97C5.657 39.6 5.657 24.4 15.03 15.03C24.4 5.657 39.6 5.657 48.97 15.03L112 78.06zM591 15.03C600.4 5.657 615.6 5.657 624.1 15.03C634.3 24.4 634.3 39.6 624.1 48.97L561.9 112H600C613.3 112 624 122.7 624 136C624 149.3 613.3 160 600 160H504C490.7 160 480 149.3 480 136V40C480 26.75 490.7 15.1 504 15.1C517.3 15.1 528 26.75 528 40V78.06L591 15.03zM15.03 463L78.06 400H40C26.75 400 15.1 389.3 15.1 376C15.1 362.7 26.75 352 40 352H136C149.3 352 160 362.7 160 376V472C160 485.3 149.3 496 136 496C122.7 496 112 485.3 112 472V433.9L48.97 496.1C39.6 506.3 24.4 506.3 15.03 496.1C5.657 487.6 5.657 472.4 15.03 463V463zM528 433.9V472C528 485.3 517.3 496 504 496C490.7 496 480 485.3 480 472V376C480 362.7 490.7 352 504 352H600C613.3 352 624 362.7 624 376C624 389.3 613.3 400 600 400H561.9L624.1 463C634.3 472.4 634.3 487.6 624.1 496.1C615.6 506.3 600.4 506.3 591 496.1L528 433.9z" class="fa-secondary"/></svg>