<svg xmlns="http://www.w3.org/2000/svg" viewBox="0 0 576 512"><!--! Font Awesome Pro 6.2.0 by @fontawesome - https://fontawesome.com License - https://fontawesome.com/license (Commercial License) Copyright 2022 Fonticons, Inc. --><path d="M544 416h-223.1c-17.67 0-32 14.33-32 32s14.33 32 32 32H544c17.67 0 32-14.33 32-32S561.7 416 544 416zM320 96h32c17.67 0 31.1-14.33 31.1-32s-14.33-32-31.1-32h-32c-17.67 0-32 14.33-32 32S302.3 96 320 96zM320 224H416c17.67 0 32-14.33 32-32s-14.33-32-32-32h-95.1c-17.67 0-32 14.33-32 32S302.3 224 320 224zM320 352H480c17.67 0 32-14.33 32-32s-14.33-32-32-32h-159.1c-17.67 0-32 14.33-32 32S302.3 352 320 352z" class="fa-secondary"/></svg>