<svg xmlns="http://www.w3.org/2000/svg" viewBox="0 0 448 512"><!--! Font Awesome Pro 6.2.0 by @fontawesome - https://fontawesome.com License - https://fontawesome.com/license (Commercial License) Copyright 2022 Fonticons, Inc. --><path d="M32 416c-17.67 0-32 14.33-32 32s14.33 32 32 32s32-14.33 32-32S49.67 416 32 416zM128 416c-17.67 0-32 14.33-32 32s14.33 32 32 32s32-14.33 32-32S145.7 416 128 416zM224 416c-17.67 0-32 14.33-32 32s14.33 32 32 32s32-14.33 32-32S241.7 416 224 416zM320 416c-17.67 0-32 14.33-32 32s14.33 32 32 32s32-14.33 32-32S337.7 416 320 416zM416 416c-17.67 0-32 14.33-32 32s14.33 32 32 32s32-14.33 32-32S433.7 416 416 416z" class="fa-secondary"/></svg>