<svg xmlns="http://www.w3.org/2000/svg" viewBox="0 0 512 512"><!--! Font Awesome Pro 6.2.0 by @fontawesome - https://fontawesome.com License - https://fontawesome.com/license (Commercial License) Copyright 2022 Fonticons, Inc. --><path d="M495.1 256.3v20.96c.0001 46.74-29.27 90.22-74.22 103C408.8 383.9 396.1 384.1 384 384v-65.31c2.672 .5651 5.164 1.621 7.1 1.621c22.06 0 40-17.96 40-40.05l0-16.16c.0001-91.97-67.02-174.3-158.6-183.2C168.6 70.76 79.1 153.4 79.1 256.3c0 87.88 64.61 160.9 148.8 174.1c15.62 2.441 27.24 15.5 27.24 31.31c-.0001 19.52-17.42 35.04-36.71 32.07c-130.2-20.08-226.1-145.2-198.5-285.9c18.34-93.45 93.57-168.8 187-187.1C361.2-9.332 495.1 107.1 495.1 256.3z" class="fa-secondary"/></svg>