<svg xmlns="http://www.w3.org/2000/svg" viewBox="0 0 448 512"><!--! Font Awesome Pro 6.2.0 by @fontawesome - https://fontawesome.com License - https://fontawesome.com/license (Commercial License) Copyright 2022 Fonticons, Inc. --><path d="M96 288H32C14.33 288 0 273.7 0 256C0 238.3 14.33 224 32 224H122.7L96 288zM56 384H32C14.33 384 0 369.7 0 352C0 334.3 14.33 320 32 320H82.67L56 384zM125.3 384L152 320H296L322.7 384H125.3zM365.3 320H416C433.7 320 448 334.3 448 352C448 369.7 433.7 384 416 384H392L365.3 320zM325.3 224H416C433.7 224 448 238.3 448 256C448 273.7 433.7 288 416 288H352L325.3 224zM192 224H256L282.7 288H165.3L192 224z" class="fa-secondary"/></svg>