<svg xmlns="http://www.w3.org/2000/svg" viewBox="0 0 384 512"><!--! Font Awesome Pro 6.2.0 by @fontawesome - https://fontawesome.com License - https://fontawesome.com/license (Commercial License) Copyright 2022 Fonticons, Inc. --><path d="M95.96 358.3C81.98 350.2 78.43 328.2 67.08 316.9c-3.762-3.764-8.764-6.619-13.97-9.332l-51.4 125.7c-3.25 8.188-1.781 17.48 3.875 24.25c5.656 6.75 14.53 9.898 23.12 8.148l45.19-9.035l21.43 42.27C99.46 507 107.6 512 116.7 512c.3438 0 .6641-.0117 1.008-.0273c9.5-.375 17.65-6.082 21.24-14.88l47.06-114.5c-13.95-3.367-26.44-16.4-39.76-19.96C130.5 358.4 109.7 366.3 95.96 358.3zM382.3 433.2l-51.39-125.6c-5.215 2.717-10.23 5.574-14 9.344c-11.34 11.35-14.89 33.3-28.88 41.39c-13.79 7.977-34.53 .1504-50.28 4.359c-13.31 3.557-25.8 16.58-39.74 19.95l47.06 114.5c3.594 8.797 11.74 14.5 21.24 14.88C266.6 511.1 266.1 512 267.3 512c9.094 0 17.23-4.973 21.35-13.14l21.43-42.28l45.19 9.035c8.594 1.75 17.47-1.398 23.12-8.148C384.1 450.7 385.5 441.4 382.3 433.2z" class="fa-secondary"/></svg>