<svg xmlns="http://www.w3.org/2000/svg" viewBox="0 0 640 512"><!--! Font Awesome Pro 6.2.0 by @fontawesome - https://fontawesome.com License - https://fontawesome.com/license (Commercial License) Copyright 2022 Fonticons, Inc. --><path d="M9.373 434.7c-12.5 12.5-12.5 32.76 0 45.26l22.63 22.63c12.5 12.5 32.76 12.5 45.26-.0012l253.8-253.8L263.2 180.9L9.373 434.7zM502.6 77.25c12.5-12.5 12.5-32.76-.0001-45.26l-22.62-22.62c-12.5-12.5-32.76-12.5-45.26 0l-29.82 29.82l67.88 67.88L502.6 77.25zM576 160v32c0 88.22-71.78 160-160 160h-32v63.99l31.1-.0032C539.5 416 640 315.5 640 192V160L576 160z" class="fa-secondary"/></svg>