<svg xmlns="http://www.w3.org/2000/svg" viewBox="0 0 512 512"><!--! Font Awesome Pro 6.2.0 by @fontawesome - https://fontawesome.com License - https://fontawesome.com/license (Commercial License) Copyright 2022 Fonticons, Inc. --><path d="M256 192H.1405C2.742 117.9 41.34 52.95 98.99 14.1C112.2 5.175 129.8 9.784 138.9 22.92L256 192zM32 464C32 437.5 53.49 416 80 416C106.5 416 128 437.5 128 464C128 490.5 106.5 512 80 512C53.49 512 32 490.5 32 464zM416 464C416 490.5 394.5 512 368 512C341.5 512 320 490.5 320 464C320 437.5 341.5 416 368 416C394.5 416 416 437.5 416 464z" class="fa-secondary"/></svg>