<svg xmlns="http://www.w3.org/2000/svg" viewBox="0 0 640 512"><!--! Font Awesome Pro 6.2.0 by @fontawesome - https://fontawesome.com License - https://fontawesome.com/license (Commercial License) Copyright 2022 Fonticons, Inc. --><path d="M122.1 367.2c-3.16-3.962-7.818-6.037-12.52-6.037c-3.497 0-7.018 1.142-9.965 3.492l-87.57 69.85c-7.925 6.318-12.05 15.64-12.05 25.05c0 6.994 2.283 14.04 6.983 19.93l9.975 12.51c6.319 7.924 15.64 12.05 25.04 12.05c6.995 0 14.04-2.284 19.93-6.984l87.57-69.85c3.962-3.16 6.025-7.821 6.025-12.52c0-3.497-1.141-7.012-3.491-9.958L122.1 367.2zM607.1 399.1c0-26.51-21.49-48.01-48-48.01s-48 21.5-48 48.01L512 431.1h96L607.1 399.1zM496.8 490.9c-.5547 1.672-.8185 3.371-.8185 5.043c0 8.709 7.03 16.02 16 16.02c6.688 0 12.94-4.251 15.19-10.94l16-48.01c.543-1.637 .6954-3.367 .6954-5.003l-32.75-.0598L496.8 490.9zM544 495.1c0 8.844 7.153 16 15.1 16s16-7.159 16-16l.1181-47.97l-32.23 .0273L544 495.1zM623.2 490.9l-14.31-42.94l-32.75 .0325c0 1.637 .1524 3.394 .6954 5.031l15.1 48.01c2.25 6.688 8.5 10.94 15.19 10.94c8.969 0 16-7.309 16-16.02C624 494.3 623.7 492.6 623.2 490.9z" class="fa-secondary"/></svg>