<svg xmlns="http://www.w3.org/2000/svg" viewBox="0 0 448 512"><!--! Font Awesome Pro 6.2.0 by @fontawesome - https://fontawesome.com License - https://fontawesome.com/license (Commercial License) Copyright 2022 Fonticons, Inc. --><path d="M288 232C288 245.3 298.7 256 312 256C325.3 256 336 245.3 336 232V160H400C426.5 160 448 181.5 448 208V416C448 469 405 512 352 512H96C42.98 512 0 469 0 416V208C0 181.5 21.49 160 48 160H112V232C112 245.3 122.7 256 136 256C149.3 256 160 245.3 160 232V160H288V232z" class="fa-secondary"/></svg>