<svg xmlns="http://www.w3.org/2000/svg" viewBox="0 0 640 512"><!--! Font Awesome Pro 6.2.0 by @fontawesome - https://fontawesome.com License - https://fontawesome.com/license (Commercial License) Copyright 2022 Fonticons, Inc. --><path d="M584.9 208c0 16.51 10.8 34.51 5.76 49.44c-5.279 15.47-25.23 23.86-35.01 36.72c-9.871 13.01-12.11 33.78-25.66 43.25c-13.41 9.359-34.67 5.055-50.75 10.1c-13.25 4.135-25.75 15.5-39.76 18.98C444.9 346.5 448 325.6 448 304c0-11.38-1.068-22.5-2.609-33.46C474.3 264.4 495.1 238.7 495.1 208c0-35.3-28.69-64-64-64c-13.37 0-25.75 4.125-36.02 11.16c-20-25.21-44.83-46.43-73.25-61.96c2.9-5.742 6.178-11.05 11.27-14.62c13.42-9.377 34.64-5.072 50.77-10.1C400.3 63.63 414.8 48 431.1 48s31.68 15.63 47.25 20.5c16.11 5.039 37.34 .7187 50.75 10.1c13.55 9.473 15.79 30.24 25.66 43.23c9.777 12.89 29.73 21.28 35.01 36.72C595.7 173.5 584.9 191.5 584.9 208z" class="fa-secondary"/></svg>