<svg xmlns="http://www.w3.org/2000/svg" viewBox="0 0 576 512"><!--! Font Awesome Pro 6.2.0 by @fontawesome - https://fontawesome.com License - https://fontawesome.com/license (Commercial License) Copyright 2022 Fonticons, Inc. --><path d="M64 160H128V96C128 42.98 170.1 0 224 0C277 0 320 42.98 320 96V160H384C419.3 160 448 188.7 448 224H240C195.8 224 160 259.8 160 304V464C160 469.5 160.6 474.8 161.6 480H64C28.65 480 0 451.3 0 416V224C0 188.7 28.65 160 64 160V160zM224 48C197.5 48 176 69.49 176 96V160H272V96C272 69.49 250.5 48 224 48zM320 352C320 387.3 348.7 416 384 416C419.3 416 448 387.3 448 352V336C448 327.2 455.2 320 464 320C472.8 320 480 327.2 480 336V352C480 405 437 448 384 448C330.1 448 288 405 288 352V336C288 327.2 295.2 320 304 320C312.8 320 320 327.2 320 336V352z" class="fa-secondary"/></svg>