<svg xmlns="http://www.w3.org/2000/svg" viewBox="0 0 576 512"><!--! Font Awesome Pro 6.2.0 by @fontawesome - https://fontawesome.com License - https://fontawesome.com/license (Commercial License) Copyright 2022 Fonticons, Inc. --><path d="M80 352C35.84 352 0 387.8 0 432S35.84 512 80 512S160 476.2 160 432S124.2 352 80 352zM288 352c-44.16 0-80 35.84-80 80S243.8 512 288 512s80-35.84 80-80S332.2 352 288 352zM496 352c-44.16 0-80 35.84-80 80s35.84 80 80 80s80-35.84 80-80S540.2 352 496 352zM288 0C243.8 0 208 35.84 208 80S243.8 160 288 160s80-35.84 80-80S332.2 0 288 0z" class="fa-secondary"/></svg>