<svg xmlns="http://www.w3.org/2000/svg" viewBox="0 0 640 512"><!--! Font Awesome Pro 6.2.0 by @fontawesome - https://fontawesome.com License - https://fontawesome.com/license (Commercial License) Copyright 2022 Fonticons, Inc. --><path d="M515.3 434.8C564 393.1 640 302.1 640 232C640 139.2 568.4 64 480 64c-54.14 0-101.8 28.41-130.8 71.62C350.9 146.2 352 156.1 352 168c0 31.86-12.03 64.75-27.65 94.08c16.38 64.44 78.47 137.5 120.4 172.7l-27.05 54.11c-2.469 4.969-2.219 10.84 .6875 15.56C421.3 509.1 426.5 512 432 512h96c5.531 0 10.69-2.875 13.62-7.594c2.906-4.719 3.156-10.59 .6875-15.56L515.3 434.8zM464 160C437.5 160 416 181.5 416 208C416 216.8 408.8 224 400 224S384 216.8 384 208C384 163.9 419.9 128 464 128C472.8 128 480 135.2 480 144S472.8 160 464 160z" class="fa-secondary"/></svg>