<svg xmlns="http://www.w3.org/2000/svg" viewBox="0 0 512 512"><!--! Font Awesome Pro 6.2.0 by @fontawesome - https://fontawesome.com License - https://fontawesome.com/license (Commercial License) Copyright 2022 Fonticons, Inc. --><path d="M112 224C103.3 224 96 231.3 96 240v64C96 312.8 103.3 320 112 320h117.5l-96-96H112zM400 224h-130.8l32 32H384v32h-50.81l32 32H400c8.75 0 16-7.25 16-16v-64C416 231.3 408.8 224 400 224zM319.4 160c15.62 0 28.62 11.25 31.38 25.88C351.6 189.5 354.8 192 358.6 192h16.12c5 0 8.75-4.5 8-9.375C378.1 151.8 351.6 128 319.4 128c-15.62 0-28.62-11.25-31.38-25.88C287.3 98.5 284.1 96 280.3 96h-16.29c-5 0-8.59 4.5-7.965 9.375C260.7 136.3 287.3 160 319.4 160z" class="fa-secondary"/></svg>