<svg xmlns="http://www.w3.org/2000/svg" viewBox="0 0 576 512"><!--! Font Awesome Pro 6.2.0 by @fontawesome - https://fontawesome.com License - https://fontawesome.com/license (Commercial License) Copyright 2022 Fonticons, Inc. --><path d="M48 136C48 149.3 37.25 160 24 160C10.75 160 0 149.3 0 136V56C0 25.07 25.07 0 56 0H136C149.3 0 160 10.75 160 24C160 37.25 149.3 48 136 48H56C51.58 48 48 51.58 48 56V136zM528 56C528 51.58 524.4 48 520 48H440C426.7 48 416 37.25 416 24C416 10.75 426.7 0 440 0H520C550.9 0 576 25.07 576 56V136C576 149.3 565.3 160 552 160C538.7 160 528 149.3 528 136V56zM136 464C149.3 464 160 474.7 160 488C160 501.3 149.3 512 136 512H56C25.07 512 0 486.9 0 456V376C0 362.7 10.75 352 24 352C37.25 352 48 362.7 48 376V456C48 460.4 51.58 464 56 464H136zM528 376C528 362.7 538.7 352 552 352C565.3 352 576 362.7 576 376V456C576 486.9 550.9 512 520 512H440C426.7 512 416 501.3 416 488C416 474.7 426.7 464 440 464H520C524.4 464 528 460.4 528 456V376z" class="fa-secondary"/></svg>