<svg xmlns="http://www.w3.org/2000/svg" viewBox="0 0 640 512"><!--! Font Awesome Pro 6.2.0 by @fontawesome - https://fontawesome.com License - https://fontawesome.com/license (Commercial License) Copyright 2022 Fonticons, Inc. --><path d="M192 240h256V160H192V240zM320 0C102.1 0 0 169.8 0 208.1v118c0 25.43 15.05 48.44 38.35 58.63l93.09 40.72L115.4 288l.7285-.7832C104.8 285.3 96 275.9 96 264C96 250.7 106.7 240 120 240H160V160c0-17.64 14.34-32 32-32h256c17.66 0 32 14.36 32 32v80h40C533.3 240 544 250.7 544 264c0 11.88-8.789 21.3-20.12 23.22L524.6 288l-16.04 137.5l93.09-40.73C624.9 374.6 640 351.6 640 326.1V208.1C640 167.8 534.1 0 320 0z" class="fa-secondary"/></svg>