<svg xmlns="http://www.w3.org/2000/svg" viewBox="0 0 576 512"><!--! Font Awesome Pro 6.2.0 by @fontawesome - https://fontawesome.com License - https://fontawesome.com/license (Commercial License) Copyright 2022 Fonticons, Inc. --><path d="M393 192L426.1 265.8C431.5 277.9 445.7 283.3 457.8 277.9C469.9 272.5 475.3 258.3 469.9 246.2L445.6 192H544C561.7 192 576 206.3 576 224C576 241.7 561.7 256 544 256L492.1 463.5C484.1 492 459.4 512 430 512H145.1C116.6 512 91 492 83.88 463.5L32 256C14.33 256 0 241.7 0 224C0 206.3 14.33 192 32 192H130.4L106.1 246.2C100.7 258.3 106.1 272.5 118.2 277.9C130.3 283.3 144.5 277.9 149.9 265.8L182.1 192H393zM192 319.1C192 311.1 184.8 303.1 176 303.1C167.2 303.1 160 311.1 160 319.1V415.1C160 424.8 167.2 431.1 176 431.1C184.8 431.1 192 424.8 192 415.1V319.1zM272 319.1V415.1C272 424.8 279.2 431.1 288 431.1C296.8 431.1 304 424.8 304 415.1V319.1C304 311.1 296.8 303.1 288 303.1C279.2 303.1 272 311.1 272 319.1zM416 319.1C416 311.1 408.8 303.1 400 303.1C391.2 303.1 384 311.1 384 319.1V415.1C384 424.8 391.2 431.1 400 431.1C408.8 431.1 416 424.8 416 415.1V319.1z" class="fa-secondary"/></svg>