<svg xmlns="http://www.w3.org/2000/svg" viewBox="0 0 576 512"><!--! Font Awesome Pro 6.2.0 by @fontawesome - https://fontawesome.com License - https://fontawesome.com/license (Commercial License) Copyright 2022 Fonticons, Inc. --><path d="M393 192L426.1 265.8C431.5 277.9 445.7 283.3 457.8 277.9C469.9 272.5 475.3 258.3 469.9 246.2L445.6 192H544C561.7 192 576 206.3 576 224C576 241.7 561.7 256 544 256L492.1 463.5C484.1 492 459.4 512 430 512H145.1C116.6 512 91 492 83.88 463.5L32 256C14.33 256 0 241.7 0 224C0 206.3 14.33 192 32 192H130.4L106.1 246.2C100.7 258.3 106.1 272.5 118.2 277.9C130.3 283.3 144.5 277.9 149.9 265.8L182.1 192H393z" class="fa-secondary"/></svg>