<svg xmlns="http://www.w3.org/2000/svg" viewBox="0 0 576 512"><!--! Font Awesome Pro 6.2.0 by @fontawesome - https://fontawesome.com License - https://fontawesome.com/license (Commercial License) Copyright 2022 Fonticons, Inc. --><path d="M340.8 96H464C508.2 96 544 131.8 544 176V192C561.7 192 576 206.3 576 224V288C576 305.7 561.7 320 544 320V336C544 380.2 508.2 416 464 416H244.9C247.2 414.6 249.4 413 251.6 411.2L323.5 352H464C472.8 352 480 344.8 480 336V176C480 167.2 472.8 160 464 160H365.7C372.3 137.8 364.5 113.4 345.6 99.2C344.1 98.04 342.5 96.98 340.8 96H340.8zM187.2 416H80C35.82 416 0 380.2 0 336V176C0 131.8 35.82 96 80 96H283.1C280.8 97.41 278.6 98.1 276.4 100.8L204.5 160H80C71.16 160 64 167.2 64 176V336C64 344.8 71.16 352 80 352H162.3C155.7 374.2 163.5 398.6 182.4 412.8C183.9 413.1 185.5 415 187.2 416H187.2z" class="fa-secondary"/></svg>