<svg xmlns="http://www.w3.org/2000/svg" viewBox="0 0 640 512"><!--! Font Awesome Pro 6.2.0 by @fontawesome - https://fontawesome.com License - https://fontawesome.com/license (Commercial License) Copyright 2022 Fonticons, Inc. --><path d="M481.4 352H496C504.8 352 512 344.8 512 336V176C512 167.2 504.8 160 496 160H236.4L154.8 96H496C540.2 96 576 131.8 576 176V192C593.7 192 608 206.3 608 224V288C608 305.7 593.7 320 576 320V336C576 362.5 563.1 385.1 543.3 400.5L481.4 352zM324.9 352L406.2 416H112C67.82 416 32 380.2 32 336V176C32 159.6 36.92 144.4 45.35 131.7L96.5 172C96.17 173.3 95.1 174.6 95.1 176V336C95.1 344.8 103.2 352 111.1 352H324.9z" class="fa-secondary"/></svg>