<svg xmlns="http://www.w3.org/2000/svg" viewBox="0 0 640 512"><!--! Font Awesome Pro 6.2.0 by @fontawesome - https://fontawesome.com License - https://fontawesome.com/license (Commercial License) Copyright 2022 Fonticons, Inc. --><path d="M353.4 191.1C364.6 207.9 384 217.3 404.1 215.8C424.3 214.4 442.1 202.1 450.7 183.8L461.9 160H544C597 160 640 202.1 640 256V352H288V192C288 174.3 302.3 160 320 160H332.7L353.4 191.1zM256 240C256 284.2 220.2 320 176 320C131.8 320 96 284.2 96 240C96 195.8 131.8 160 176 160C220.2 160 256 195.8 256 240z" class="fa-secondary"/></svg>