<svg xmlns="http://www.w3.org/2000/svg" viewBox="0 0 576 512"><!--! Font Awesome Pro 6.2.0 by @fontawesome - https://fontawesome.com License - https://fontawesome.com/license (Commercial License) Copyright 2022 Fonticons, Inc. --><path d="M193.3 416h189.5c7.52-10.19 14.5-20.93 20.76-32H172.5C178.8 395.1 185.7 405.8 193.3 416zM152.3 336h271.4c2.834-10.59 4.555-21.28 4.84-32H147.5C147.7 314.7 149.5 325.4 152.3 336zM288 512c0 0 24.78-18.69 53.5-48H234.5C263.2 493.3 288 512 288 512zM448 95.1c-27.72 0-55.38 9.465-80.73 22.73c-1.732 20.65-11.2 38.83-25.63 52.03c11.44 4.789 22.22 11.14 31.91 18.62C401.6 170.5 427.5 160 448 160c34.67 0 64 21.92 64 48C512 233.1 482.7 256 448 256c-8.865 0-19.02-2.6-29.64-6.322C414.9 240.7 411 231.1 405.8 224H170.2C163.8 233.8 158.1 244.7 155.1 256h265.7c4.773 14.15 7.951 29.04 7.945 44.8c0 1.068-.2266 2.133-.2559 3.201c-.125 4.727-.5566 9.452-1.213 14.16C434.2 319.2 441.1 320 448 320c70.67 0 128-50.12 128-111.1C576 146.2 518.7 95.1 448 95.1zM155.1 256c.7305-2.166 1.695-4.205 2.5-6.332C147 253.4 136.8 256 127.1 256C93.29 256 64 234 64 207.1C64 192.9 73.79 182.1 79.62 176.1C91.93 166.2 109.5 159.1 127.1 160c20.47 0 46.42 10.53 74.42 29.38C212.1 181.9 222.8 175.6 234.3 170.8C219.8 157.6 210.4 139.4 208.7 118.7C183.3 105.5 155.7 95.1 128 95.1C57.33 95.99 0 146.1 0 207.1C0 269.8 57.29 320 127.1 320C134.9 320 141.8 319.2 148.7 318.2C148 313.5 147.6 308.7 147.5 304C147.4 302.9 147.2 301.9 147.2 300.8C147.2 285 150.4 270.1 155.1 256z" class="fa-secondary"/></svg>