<svg xmlns="http://www.w3.org/2000/svg" viewBox="0 0 512 512"><!--! Font Awesome Pro 6.2.0 by @fontawesome - https://fontawesome.com License - https://fontawesome.com/license (Commercial License) Copyright 2022 Fonticons, Inc. --><path d="M432 160h-43.9C372.7 170 354.9 176 336 176c-18.12 0-35.66-5.094-50.92-14.76c-.2246 .1504-.4687 .3379-.7187 .5723C263.6 181.3 236.5 192 207.1 192S152.4 181.3 131.6 161.8C131.4 161.6 131.1 161.4 130.9 161.2C115.7 170.9 98.12 176 80 176C62.76 176 46.46 170.1 32 162.5L31.1 448c0 35.35 28.65 64 64 64h223.1c35.35 0 64-28.65 64-64l80.66-36.02C493.5 399.1 512 370.5 512 339V240C512 195.8 476.2 160 432 160zM160 432C160 440.9 152.9 448 143.1 448S128 440.9 128 432l-.0099-192c0-8.875 7.127-16 16-16s15.1 7.125 15.1 16L160 432zM224 432C224 440.9 216.9 448 207.1 448S192 440.9 192 432l-.0083-192c0-8.875 7.127-16 16-16s15.1 7.125 15.1 16L224 432zM288 432c0 8.875-7.125 16-16 16S256 440.9 256 432l-.0066-192c0-8.875 7.126-16 16-16s15.1 7.125 15.1 16L288 432zM448 339c0 6.25-3.75 12-9.5 14.62L384 377.9V224h48C440.9 224 448 231.1 448 240V339z" class="fa-secondary"/></svg>