<svg xmlns="http://www.w3.org/2000/svg" viewBox="0 0 640 512"><!--! Font Awesome Pro 6.2.0 by @fontawesome - https://fontawesome.com License - https://fontawesome.com/license (Commercial License) Copyright 2022 Fonticons, Inc. --><path d="M352 32V51.2C425 66.03 480 130.6 480 208V226.8C480 273.9 497.3 319.2 528.5 354.4L535.9 362.7C544.3 372.2 546.4 385.6 541.2 397.1C536 408.6 524.6 416 512 416H128C115.4 416 103.1 408.6 98.81 397.1C93.65 385.6 95.71 372.2 104.1 362.7L111.5 354.4C142.7 319.2 160 273.9 160 226.8V208C160 130.6 214.1 66.03 288 51.2V32C288 14.33 302.3 0 320 0C337.7 0 352 14.33 352 32H352z" class="fa-secondary"/></svg>