<svg xmlns="http://www.w3.org/2000/svg" viewBox="0 0 640 512"><!--! Font Awesome Pro 6.2.0 by @fontawesome - https://fontawesome.com License - https://fontawesome.com/license (Commercial License) Copyright 2022 Fonticons, Inc. --><path d="M186 120.5C209 85.37 245.4 59.84 288 51.2V32C288 14.33 302.3 0 320 0C337.7 0 352 14.33 352 32V51.2C425 66.03 480 130.6 480 208V226.8C480 273.9 497.3 319.2 528.5 354.4L535.9 362.7C544.3 372.2 546.4 385.6 541.2 397.1C540.1 397.5 540.8 397.1 540.6 398.4L186 120.5zM160 226.8V222.1L406.2 416H128C115.4 416 103.1 408.6 98.81 397.1C93.65 385.6 95.71 372.2 104.1 362.7L111.5 354.4C142.7 319.2 160 273.9 160 226.8V226.8zM320 512C303 512 286.7 505.3 274.7 493.3C262.7 481.3 256 464.1 256 448H384C384 464.1 377.3 481.3 365.3 493.3C353.3 505.3 336.1 512 320 512z" class="fa-secondary"/></svg>