<svg xmlns="http://www.w3.org/2000/svg" viewBox="0 0 640 512"><!--! Font Awesome Pro 6.2.0 by @fontawesome - https://fontawesome.com License - https://fontawesome.com/license (Commercial License) Copyright 2022 Fonticons, Inc. --><path d="M249.5 296.7C261.2 328.5 262.4 363.2 253.1 395.8L251.9 399.7L21.4 315.8C10.03 311.7 1.976 301.5 .5931 289.5C-.7903 277.5 4.729 265.7 14.86 259L23.04 253.7C57.61 230.1 83.95 197.8 98.16 159L112.8 119C137.1 50.44 213.1 15.09 282.6 40.08C287.4 41.82 292.1 43.82 296.5 46.04C232.4 88.2 203.2 170.3 230.8 245.5L249.5 296.7zM260.8 234.6C234.7 163.3 271.4 84.41 342.8 58.43C414.1 32.46 493.2 69.21 519.3 140.5L538 191.7C552 229.9 577.8 262.7 611.6 285.3L625.4 294.5C635.4 301.2 640.8 312.1 639.4 324.9C637.9 336.9 629.9 346.1 618.6 351.1L321.1 459.4C309.8 463.5 297.1 460.9 288.3 452.7C279.5 444.5 276 432 279.3 420.5L283.9 404.6C295.1 365.6 293.6 323.1 279.6 285.8L260.8 234.6z" class="fa-secondary"/></svg>