<svg xmlns="http://www.w3.org/2000/svg" viewBox="0 0 640 512"><!--! Font Awesome Pro 6.2.0 by @fontawesome - https://fontawesome.com License - https://fontawesome.com/license (Commercial License) Copyright 2022 Fonticons, Inc. --><path d="M640 176C640 220.2 604.2 256 560 256H544v224c0 17.69-14.31 32-32 32s-32-14.31-32-32V256h-16C419.8 256 384 220.2 384 176c0-26.8 13.29-50.38 33.52-64.89C416.7 106.2 416 101.2 416 96c0-53.02 42.98-96 96-96s96 42.98 96 96c0 5.174-.7363 10.15-1.523 15.11C626.7 125.6 640 149.2 640 176z" class="fa-secondary"/></svg>