<svg xmlns="http://www.w3.org/2000/svg" viewBox="0 0 640 512"><!--! Font Awesome Pro 6.2.0 by @fontawesome - https://fontawesome.com License - https://fontawesome.com/license (Commercial License) Copyright 2022 Fonticons, Inc. --><path d="M240 144C240 153.1 243 163.2 248.2 170.9C189.2 196.6 146.6 253 140.7 320H84.53C89.56 244.1 129.6 179.6 188.5 140H121.6C111.2 161.3 89.3 176 64 176C28.65 176 0 147.3 0 112C0 76.65 28.65 48 64 48C89.3 48 111.2 62.69 121.6 84H240V144zM400 144V84H518.4C528.8 62.69 550.7 48 576 48C611.3 48 640 76.65 640 112C640 147.3 611.3 176 576 176C550.7 176 528.8 161.3 518.4 140H451.5C510.4 179.6 550.4 244.1 555.5 320H499.3C493.4 253 450.8 196.6 391.8 170.9C396.1 163.2 400 153.1 400 144H400z" class="fa-secondary"/></svg>