<svg xmlns="http://www.w3.org/2000/svg" viewBox="0 0 640 512"><!--! Font Awesome Pro 6.2.0 by @fontawesome - https://fontawesome.com License - https://fontawesome.com/license (Commercial License) Copyright 2022 Fonticons, Inc. --><path d="M458.6 303.7C447 316.5 440 333.4 440 352C440 391.8 472.2 424 512 424C551.8 424 584 391.8 584 352C584 312.2 551.8 280 512 280C508.2 280 504.5 280.3 500.8 280.9L473.3 229.1C485.5 226.1 498.5 224 512 224C582.7 224 640 281.3 640 352C640 422.7 582.7 480 512 480C441.3 480 384 422.7 384 352C384 311.1 402.4 276.3 431.1 252.8L458.6 303.7zM127.1 224C138.7 224 149.2 225.3 159.2 227.8L133.1 280.2C131.4 280.1 129.7 280 127.1 280C88.24 280 55.1 312.2 55.1 352C55.1 391.8 88.24 424 127.1 424C162.3 424 190.9 400.1 198.2 368H255C247.1 431.1 193.3 480 128 480C57.31 480 0 422.7 0 352C0 281.3 57.31 224 128 224H127.1z" class="fa-secondary"/></svg>