<svg xmlns="http://www.w3.org/2000/svg" viewBox="0 0 384 512"><!--! Font Awesome Pro 6.2.0 by @fontawesome - https://fontawesome.com License - https://fontawesome.com/license (Commercial License) Copyright 2022 Fonticons, Inc. --><path d="M128 0C163.3 0 192 28.65 192 64V160C192 195.3 163.3 224 128 224H64C28.65 224 0 195.3 0 160V64C0 28.65 28.65 0 64 0H128zM64 160H128V64H64V160zM320 288C355.3 288 384 316.7 384 352V448C384 483.3 355.3 512 320 512H256C220.7 512 192 483.3 192 448V352C192 316.7 220.7 288 256 288H320zM256 448H320V352H256V448z" class="fa-secondary"/></svg>