<svg xmlns="http://www.w3.org/2000/svg" viewBox="0 0 576 512"><!--! Font Awesome Pro 6.2.0 by @fontawesome - https://fontawesome.com License - https://fontawesome.com/license (Commercial License) Copyright 2022 Fonticons, Inc. --><path d="M429.8 293.9c-5.119 32.96-21.23 62.08-44.75 83.68c1.152 22.77 10.74 44.63 27.22 60.92c47.45-35.44 79.13-90.58 83.1-153.4C472.8 278.1 449.7 282.4 429.8 293.9zM205.9 80.78c8.4 23.2 25.46 42.01 47.39 51.8c26.22-6.551 45.37-6.025 69.52 .0254c21.93-9.777 39.07-28.55 47.48-51.75C345 69.98 317.3 63.94 288.1 63.94C258.9 63.94 231.1 69.93 205.9 80.78zM80.67 285.1c3.975 62.79 35.66 117.1 83.13 153.4c16.46-16.26 26.03-38.19 27.14-61.01c-23.49-21.59-39.59-50.67-44.71-83.6C126.9 282.7 103.8 278.8 80.67 285.1z" class="fa-secondary"/></svg>