<svg xmlns="http://www.w3.org/2000/svg" viewBox="0 0 640 512"><!--! Font Awesome Pro 6.2.0 by @fontawesome - https://fontawesome.com License - https://fontawesome.com/license (Commercial License) Copyright 2022 Fonticons, Inc. --><path d="M352 0H96C42.88 0 0 42.98 0 96v224c0 70.69 57.28 128 128 128h186.2c-11.2-19.52-19.2-41.15-23.36-64H128c-35.2 0-64-28.64-64-64s28.8-64 64-64h189.4C320 251.5 322.6 247.1 325.1 242.7c21.76-35.17 51.84-71.23 87.36-102.8C422.4 130.9 435.5 127 448 128.2V96C448 42.98 405.1 0 352 0zM96 320c0 17.66 14.4 32 32 32h160v-1.92C288 329.9 293.4 308.8 301.8 288H128C110.4 288 96 302.3 96 320z" class="fa-secondary"/></svg>