<svg xmlns="http://www.w3.org/2000/svg" viewBox="0 0 512 512"><!--! Font Awesome Pro 6.2.0 by @fontawesome - https://fontawesome.com License - https://fontawesome.com/license (Commercial License) Copyright 2022 Fonticons, Inc. --><path d="M336 64h158.5L512 0H48C21.49 0 0 21.49 0 48v160C0 234.5 21.49 256 48 256h103.3L160 352h256l17.49-64H336C327.2 288 320 280.8 320 272S327.2 256 336 256h106.1l17.49-64H336C327.2 192 320 184.8 320 176S327.2 160 336 160h132.4l17.49-64H336C327.2 96 320 88.8 320 80S327.2 64 336 64zM64 192V64h69.88L145.5 192H64z" class="fa-secondary"/></svg>