<svg xmlns="http://www.w3.org/2000/svg" viewBox="0 0 512 512"><!--! Font Awesome Pro 6.2.0 by @fontawesome - https://fontawesome.com License - https://fontawesome.com/license (Commercial License) Copyright 2022 Fonticons, Inc. --><path d="M96 226.1V160H16L0 256h67.02C71.77 242.4 82.38 231.7 96 226.1zM96 64H10.71L0 128h96V64zM501.3 64H128v64h384L501.3 64zM128 160v66.98C141.6 231.7 152.3 242.4 157 256H512l-16-96H128zM157 288C150.4 307.1 132.3 320 112 320S73.63 307.1 67 288H16L0 384h512l-16-96H157zM16 416L0 512h512l-16-96H16z" class="fa-secondary"/></svg>