<svg xmlns="http://www.w3.org/2000/svg" viewBox="0 0 448 512"><!--! Font Awesome Pro 6.2.0 by @fontawesome - https://fontawesome.com License - https://fontawesome.com/license (Commercial License) Copyright 2022 Fonticons, Inc. --><path d="M0 96C0 78.33 14.33 64 32 64H416C433.7 64 448 78.33 448 96C448 113.7 433.7 128 416 128H32C14.33 128 0 113.7 0 96zM128 256C128 238.3 142.3 224 160 224H416C433.7 224 448 238.3 448 256C448 273.7 433.7 288 416 288H160C142.3 288 128 273.7 128 256zM416 384C433.7 384 448 398.3 448 416C448 433.7 433.7 448 416 448H160C142.3 448 128 433.7 128 416C128 398.3 142.3 384 160 384H416z" class="fa-secondary"/></svg>