<svg xmlns="http://www.w3.org/2000/svg" viewBox="0 0 640 512"><!--! Font Awesome Pro 6.2.0 by @fontawesome - https://fontawesome.com License - https://fontawesome.com/license (Commercial License) Copyright 2022 Fonticons, Inc. --><path d="M384 112H128V32H384V112zM96 32V112H32V96C32 60.65 60.65 32 96 32zM32 240V144H240V240H32zM96 272V368H32V272H96zM32 416V400H240V480H96C60.65 480 32 451.3 32 416zM272 480V400H294.5C302.5 429.1 317.4 457.4 337.6 480H272zM479.4 144H480V144.6C479.8 144.4 479.6 144.2 479.4 144zM326.9 240H272V144H407.9C375.4 173.8 347.5 207.2 326.9 240zM288 350.1C288 356.1 288.3 362.1 288.8 368H128V272H308.1C296.5 297.7 288 324.7 288 350.1zM480 96V112H416V32C451.3 32 480 60.65 480 96z" class="fa-secondary"/></svg>