<svg xmlns="http://www.w3.org/2000/svg" viewBox="0 0 512 512"><!--! Font Awesome Pro 6.2.0 by @fontawesome - https://fontawesome.com License - https://fontawesome.com/license (Commercial License) Copyright 2022 Fonticons, Inc. --><path d="M224 0C206.3 0 192 14.31 192 32s14.33 32 32 32c123.5 0 224 100.5 224 224c0 17.69 14.33 32 32 32s32-14.31 32-32C512 129.2 382.8 0 224 0zM217.6 96.1c-12.95-.625-24.66 9.156-25.52 22.37C191.2 131.7 201.2 143.1 214.4 143.1c79.53 5.188 148.4 74.09 153.6 153.6c.8281 12.69 11.39 22.43 23.94 22.43c.5156 0 1.047-.0313 1.578-.0625c13.22-.8438 23.25-12.28 22.39-25.5C409.3 191.8 320.3 102.8 217.6 96.1z" class="fa-secondary"/></svg>