<svg xmlns="http://www.w3.org/2000/svg" viewBox="0 0 512 512"><!--! Font Awesome Pro 6.2.0 by @fontawesome - https://fontawesome.com License - https://fontawesome.com/license (Commercial License) Copyright 2022 Fonticons, Inc. --><path d="M512 79.67C512 84.15 508.1 88.38 504.8 89.83L459.1 106.7L442.6 152.5C441.1 156.9 436.7 160 432.1 160C427.5 160 423.2 156.9 421.7 152.5L404.9 106.7L359.2 89.83C355 88.38 352 84.15 352 79.67C351.1 75.12 354.1 70.78 359.2 69.22L405.2 52.39L421.7 6.548C423.6 2.623 427.8 0 432.1 0C436.5 0 440.7 2.623 442.6 6.548L459.1 52.39L504.8 69.22C509 70.78 512 75.12 512 79.67V79.67z" class="fa-secondary"/></svg>