<svg xmlns="http://www.w3.org/2000/svg" viewBox="0 0 640 512"><!--! Font Awesome Pro 6.2.0 by @fontawesome - https://fontawesome.com License - https://fontawesome.com/license (Commercial License) Copyright 2022 Fonticons, Inc. --><path d="M64 416c0 17.67 14.33 32 32 32h320L416 384H96C78.33 384 64 398.3 64 416zM632.1 191l-80-80c-9.375-9.375-24.56-9.375-33.94 0s-9.375 24.56 0 33.94L558.1 184H280C266.8 184 256 194.8 256 208s10.75 24 24 24h278.1l-39.03 39.03C514.3 275.7 512 281.8 512 288s2.344 12.28 7.031 16.97c9.375 9.375 24.56 9.375 33.94 0l80-80C642.3 215.6 642.3 200.4 632.1 191z" class="fa-secondary"/></svg>