<svg xmlns="http://www.w3.org/2000/svg" viewBox="0 0 576 512"><!--! Font Awesome Pro 6.2.0 by @fontawesome - https://fontawesome.com License - https://fontawesome.com/license (Commercial License) Copyright 2022 Fonticons, Inc. --><path d="M160 0H96C78.38 0 64 14.38 64 32v64h128L192 32C192 14.38 177.6 0 160 0zM64 480c0 17.62 14.38 32 32 32h64c17.62 0 32-14.38 32-32l-.0008-64H64V480zM224 480c0 17.62 14.38 32 32 32h64C337.6 512 351.1 497.6 352 480V416H224L224 480zM337.1 56.7c-3.574-13.41 2.162-26.9 12.96-34.34C345.9 9.5 334.2 0 320 0h-64C238.4 0 224 14.38 224 32L224 96h123.6L337.1 56.7zM550.2 362.8l-122.7 33.04l8.221 30.83l122.7-33.05L550.2 362.8zM476.3 85.32l-122.7 33.05l8.223 30.83l122.7-33.04L476.3 85.32zM224 384H352V128H224V384z" class="fa-secondary"/></svg>