<svg xmlns="http://www.w3.org/2000/svg" viewBox="0 0 640 512"><!--! Font Awesome Pro 6.2.0 by @fontawesome - https://fontawesome.com License - https://fontawesome.com/license (Commercial License) Copyright 2022 Fonticons, Inc. --><path d="M592 160h-544C21.49 160 0 181.5 0 208v256C0 490.5 21.49 512 48 512h544c26.51 0 48-21.49 48-48v-256C640 181.5 618.5 160 592 160zM176 448C114.1 448 64 397.9 64 336S114.1 224 176 224S288 274.1 288 336S237.9 448 176 448zM464 448c-61.88 0-112-50.13-112-112S402.1 224 464 224S576 274.1 576 336S525.9 448 464 448z" class="fa-secondary"/></svg>