<svg xmlns="http://www.w3.org/2000/svg" viewBox="0 0 448 512"><!--! Font Awesome Pro 6.2.0 by @fontawesome - https://fontawesome.com License - https://fontawesome.com/license (Commercial License) Copyright 2022 Fonticons, Inc. --><path d="M192 160C192 142.3 206.3 128 224 128C241.7 128 256 142.3 256 160C256 177.7 241.7 192 224 192C206.3 192 192 177.7 192 160zM96 256C96 238.3 110.3 224 128 224C145.7 224 160 238.3 160 256C160 273.7 145.7 288 128 288C110.3 288 96 273.7 96 256zM256 256C256 273.7 241.7 288 224 288C206.3 288 192 273.7 192 256C192 238.3 206.3 224 224 224C241.7 224 256 238.3 256 256zM288 256C288 238.3 302.3 224 320 224C337.7 224 352 238.3 352 256C352 273.7 337.7 288 320 288C302.3 288 288 273.7 288 256zM256 352C256 369.7 241.7 384 224 384C206.3 384 192 369.7 192 352C192 334.3 206.3 320 224 320C241.7 320 256 334.3 256 352z" class="fa-secondary"/></svg>