<svg xmlns="http://www.w3.org/2000/svg" viewBox="0 0 512 512"><!--! Font Awesome Pro 6.2.0 by @fontawesome - https://fontawesome.com License - https://fontawesome.com/license (Commercial License) Copyright 2022 Fonticons, Inc. --><path d="M282.3 150.5l46.63-46.62c-40.63-25.87-87.75-39.87-137-39.87c-49.76 0-97.25 14.25-138.1 40.62l-3.875-3.873C46.83 97.63 42.7 96.06 38.57 96.06c-4.108 0-8.209 1.558-11.33 4.675l-22.54 22.51c-3.122 3.121-4.685 7.225-4.685 11.33c0 4.112 1.565 8.226 4.692 11.35l141 140.9l45.25-45.14L100.5 151.3C128.2 136.1 159.5 128 191.1 128C223.1 128 254.8 135.8 282.3 150.5zM407.4 457.4c26.38-40.87 40.63-88.36 40.63-138.1c0-49.37-13.1-96.35-39.88-136.1l-46.63 46.62c14.75 27.5 22.5 58.24 22.5 90.36c0 32.5-8.125 63.74-23.25 91.48l-90.5-90.61l-45.25 45.24l141.8 141.8c3.125 3.125 7.217 4.687 11.31 4.687c4.094 0 8.187-1.562 11.31-4.687l22.62-22.62c3.125-3.125 4.688-7.25 4.688-11.37c0-4.125-1.562-8.248-4.688-11.37L407.4 457.4z" class="fa-secondary"/></svg>