<svg xmlns="http://www.w3.org/2000/svg" viewBox="0 0 512 512"><!--! Font Awesome Pro 6.2.0 by @fontawesome - https://fontawesome.com License - https://fontawesome.com/license (Commercial License) Copyright 2022 Fonticons, Inc. --><path d="M144 144c-17.7 0-32 14.25-32 32s14.3 32 32 32s32-14.25 32-32S161.7 144 144 144zM240 144c17.66 0 31.95-14.25 31.95-32s-14.29-32-31.95-32s-32.05 14.25-32.05 32S222.4 144 240 144zM240 176c-17.7 0-32 14.25-32 32s14.3 32 32 32s32-14.25 32-32S257.7 176 240 176z" class="fa-secondary"/></svg>