<svg xmlns="http://www.w3.org/2000/svg" viewBox="0 0 512 512"><!--! Font Awesome Pro 6.2.0 by @fontawesome - https://fontawesome.com License - https://fontawesome.com/license (Commercial License) Copyright 2022 Fonticons, Inc. --><path d="M176 32C176 49.63 184.3 66.22 198.4 76.8C224.6 96.44 240 127.3 240 160V168C240 181.3 229.3 192 216 192C202.7 192 192 181.3 192 168V160C192 142.4 183.7 125.8 169.6 115.2C143.4 95.56 128 64.73 128 32V24C128 10.75 138.7 0 152 0C165.3 0 176 10.75 176 24V32zM304 32C304 49.63 312.3 66.22 326.4 76.8C352.6 96.44 368 127.3 368 160V168C368 181.3 357.3 192 344 192C330.7 192 320 181.3 320 168V160C320 142.4 311.7 125.8 297.6 115.2C271.4 95.56 256 64.73 256 32V24C256 10.75 266.7 0 280 0C293.3 0 304 10.75 304 24V32z" class="fa-secondary"/></svg>