<svg xmlns="http://www.w3.org/2000/svg" viewBox="0 0 512 512"><!--! Font Awesome Pro 6.2.0 by @fontawesome - https://fontawesome.com License - https://fontawesome.com/license (Commercial License) Copyright 2022 Fonticons, Inc. --><path d="M512 24.08c0-14.41-11.93-24.01-23.98-24.01c-3.096 0 17.55-4.236-264 54.51V92.89l267.9-45.18C504.1 45.62 512 35.29 512 24.08zM0 113.2C0 122.1 7.361 127.1 14.71 127.1c.9121 0-5.396 1.115 49.29-8.09V87.95L11.75 98.84C4.854 100.3 0 106.4 0 113.2zM0 159.8C0 168.7 7.275 176 16.25 176H64V142L15.74 143.5C6.969 143.8 0 150.1 0 159.8zM487.6 128.8L224 137V176h264.4C501.4 176 512 165.4 512 152.4C512 139 500.1 128.3 487.6 128.8z" class="fa-secondary"/></svg>