<svg xmlns="http://www.w3.org/2000/svg" viewBox="0 0 448 512"><!--! Font Awesome Pro 6.2.0 by @fontawesome - https://fontawesome.com License - https://fontawesome.com/license (Commercial License) Copyright 2022 Fonticons, Inc. --><path d="M178.9 81.28C161.4 72.04 142.2 66.53 122.5 65.09C131.4 45.66 145.7 29.21 163.6 17.67C181.6 6.127 202.5-.0078 223.9-.0078C245.2-.0078 266.1 6.127 284.1 17.67C302.1 29.21 316.4 45.66 325.2 65.09C305.6 66.61 286.5 72.16 269 81.39C251.6 90.63 236.3 103.3 224 118.7C211.7 103.3 196.3 90.51 178.9 81.28zM415.2 128.8C436.2 149.8 448 178.3 448 207.1C447.8 213.4 447.3 218.7 446.4 223.1H225.6C224.7 218.7 224.2 213.4 224 207.1C224 178.3 235.8 149.8 256.8 128.8C277.8 107.8 306.3 95.1 336 95.1C365.7 95.1 394.2 107.8 415.2 128.8zM165.5 109.6C181.9 118.6 195.8 131.5 205.9 147.2C196.8 166.2 192.1 186.1 192 207.1C191.1 213.3 192.3 218.7 192.1 223.1H1.6C.6934 218.7 .1587 213.4 0 207.1C0 178.3 11.8 149.8 32.8 128.8C53.81 107.8 82.3 95.1 112 95.1C130.7 95.1 149.1 100.7 165.5 109.6z" class="fa-secondary"/></svg>