<svg xmlns="http://www.w3.org/2000/svg" viewBox="0 0 512 512"><!--! Font Awesome Pro 6.2.0 by @fontawesome - https://fontawesome.com License - https://fontawesome.com/license (Commercial License) Copyright 2022 Fonticons, Inc. --><path d="M256 0H288C358.7 0 416 57.31 416 128C416 139.7 412.9 150.6 407.4 160H416C451.3 160 480 188.7 480 224C480 259.3 451.3 288 416 288H96C60.65 288 32 259.3 32 224C32 188.7 60.65 160 96 160H104.6C99.12 150.6 96 139.7 96 128C96 92.65 124.7 64 160 64H241.3C258.3 64 272 50.25 272 33.3C272 27.23 270.2 21.31 266.8 16.26L256 0z" class="fa-secondary"/></svg>