<svg xmlns="http://www.w3.org/2000/svg" viewBox="0 0 576 512"><!--! Font Awesome Pro 6.2.0 by @fontawesome - https://fontawesome.com License - https://fontawesome.com/license (Commercial License) Copyright 2022 Fonticons, Inc. --><path d="M522.1 160C527.7 135.1 544 111.8 544 72.05c0-48.12-32.11-72.05-64.08-72.05C447.1-.0001 416 24.12 416 72.05c0 39.71 16.26 63.01 21.93 87.99H522.1zM521.6 192h-83.21c-1.199 8.969-3.494 17.93-6.197 26.9C442.3 245.4 448 274 448 304c0 53.82-17.93 103.3-47.85 143.4C421 500.5 431.2 512 450.8 512h58.51c11.1 0 22.9-6.609 28.4-17.27C553.7 463.6 576 421.4 576 368C576 309.4 529.4 250.7 521.6 192zM122.7 192C107.9 192 96 203.9 96 218.7C96 233.5 107.9 245.3 122.7 245.3c14.75 0 26.67-11.88 26.67-26.67C149.3 203.9 137.4 192 122.7 192zM197.3 146.7c-14.75 0-26.67 11.88-26.67 26.67S182.6 200 197.3 200C212.1 200 224 188.1 224 173.3S212.1 146.7 197.3 146.7zM197.3 234.7c-14.75 0-26.67 11.88-26.67 26.67S182.6 288 197.3 288C212.1 288 224 276.1 224 261.3S212.1 234.7 197.3 234.7z" class="fa-secondary"/></svg>