<svg xmlns="http://www.w3.org/2000/svg" viewBox="0 0 640 512"><!--! Font Awesome Pro 6.2.0 by @fontawesome - https://fontawesome.com License - https://fontawesome.com/license (Commercial License) Copyright 2022 Fonticons, Inc. --><path d="M592 0C618.5 0 640 21.49 640 48V464C640 490.5 618.5 512 592 512H381.3C383 506.1 384 501.6 384 496V253.3C402.6 246.7 416 228.9 416 208V176C416 149.5 394.5 128 368 128H256V48C256 21.49 277.5 0 304 0H592zM507.3 260.7C501.1 254.4 490.9 254.4 484.7 260.7L420.7 324.7C414.4 330.9 414.4 341.1 420.7 347.3C426.9 353.6 437.1 353.6 443.3 347.3L480 310.6V432C480 440.8 487.2 448 496 448C504.8 448 512 440.8 512 432V310.6L548.7 347.3C554.9 353.6 565.1 353.6 571.3 347.3C577.6 341.1 577.6 330.9 571.3 324.7L507.3 260.7z" class="fa-secondary"/></svg>