<svg xmlns="http://www.w3.org/2000/svg" viewBox="0 0 512 512"><!--! Font Awesome Pro 6.2.0 by @fontawesome - https://fontawesome.com License - https://fontawesome.com/license (Commercial License) Copyright 2022 Fonticons, Inc. --><path d="M383.1 400v64c0 26.51-21.49 48-47.1 48H111.1c-26.51 0-47.1-21.49-47.1-48v-64H195.2l-28.03 18.69c-4.621 3.087-7.126 8.16-7.126 13.33C159.1 440.7 167.1 448 175.1 448c3.062 0 6.156-.875 8.875-2.688l39.12-26.08l39.12 26.08C265.8 447.1 268.9 448 271.1 448c8.924 0 16-7.265 16-15.98c0-5.171-2.505-10.24-7.126-13.33L252.8 400H383.1z" class="fa-secondary"/></svg>