<svg xmlns="http://www.w3.org/2000/svg" viewBox="0 0 576 512"><!--! Font Awesome Pro 6.2.0 by @fontawesome - https://fontawesome.com License - https://fontawesome.com/license (Commercial License) Copyright 2022 Fonticons, Inc. --><path d="M566.6 233.4l-45.25-45.25C515.4 182.1 512 173.1 512 165.5V128c0-53.02-42.98-96-96-96h-32C366.3 32 352 46.33 352 63.1S366.3 96 383.1 96H416c17.6 0 32 14.4 32 32v37.5c0 25.45 10.11 49.86 28.11 67.86L498.8 256l-22.64 22.64C458.1 296.6 448 321 448 346.5V384c0 17.6-14.4 32-32 32h-32C366.3 416 352 430.3 352 447.1S366.3 480 383.1 480H416c53.02 0 96-42.98 96-96v-37.5c0-8.484 3.37-16.62 9.369-22.62l45.26-45.26C579.1 266.1 579.1 245.9 566.6 233.4z" class="fa-secondary"/></svg>