<svg xmlns="http://www.w3.org/2000/svg" viewBox="0 0 640 512"><!--! Font Awesome Pro 6.2.0 by @fontawesome - https://fontawesome.com License - https://fontawesome.com/license (Commercial License) Copyright 2022 Fonticons, Inc. --><path d="M96 256C96 132.3 196.3 32 320 32C443.7 32 544 132.3 544 256C544 379.7 443.7 480 320 480C196.3 480 96 379.7 96 256zM296 152V264C296 277.3 306.7 288 320 288C333.3 288 344 277.3 344 264V152C344 138.7 333.3 128 320 128C306.7 128 296 138.7 296 152zM320 320C302.3 320 288 334.3 288 352C288 369.7 302.3 384 320 384C337.7 384 352 369.7 352 352C352 334.3 337.7 320 320 320z" class="fa-secondary"/></svg>