<svg xmlns="http://www.w3.org/2000/svg" viewBox="0 0 640 512"><!--! Font Awesome Pro 6.2.0 by @fontawesome - https://fontawesome.com License - https://fontawesome.com/license (Commercial License) Copyright 2022 Fonticons, Inc. --><path d="M576 32C593.7 32 608 46.33 608 64C608 81.67 593.7 96 576 96H536V160H528C466.1 160 416 210.1 416 272V296.6C406.1 302.3 397.8 310.7 392.2 320.7C374.6 300.7 348.8 288 320 288C266.1 288 224 330.1 224 384V448C224 465.7 209.7 480 192 480H160C142.3 480 128 465.7 128 448V384C128 330.1 85.02 288 32 288V160H104V96H64C46.33 96 32 81.67 32 64C32 46.33 46.33 32 64 32L576 32zM488 96H408V160H488V96zM280 96V160H360V96H280zM232 96H152V160H232V96z" class="fa-secondary"/></svg>