<svg xmlns="http://www.w3.org/2000/svg" viewBox="0 0 576 512"><!--! Font Awesome Pro 6.2.0 by @fontawesome - https://fontawesome.com License - https://fontawesome.com/license (Commercial License) Copyright 2022 Fonticons, Inc. --><path d="M269.5 389.9C280.6 382 295.4 382 306.5 389.9C328.1 405.4 356.5 416 384 416C410.9 416 439.4 405.2 461.4 389.9L461.5 389.9C473.4 381.4 489.5 382.1 500.7 391.6C515 403.5 533.2 412.6 551.3 416.8C568.5 420.8 579.2 438.1 575.2 455.3C571.2 472.5 553.1 483.2 536.7 479.2C512.2 473.4 491.9 462.6 478.5 454.2C449.5 469.7 417 480 384 480C352.1 480 323.4 470.1 303.6 461.1C297.7 458.5 292.5 455.8 288 453.4C283.5 455.8 278.3 458.5 272.4 461.1C252.6 470.1 223.9 480 192 480C158.1 480 126.5 469.7 97.5 454.2C84.12 462.6 63.79 473.4 39.27 479.2C22.06 483.2 4.853 472.5 .8422 455.3C-3.169 438.1 7.532 420.8 24.74 416.8C42.84 412.6 60.96 403.5 75.31 391.6C86.46 382.1 102.6 381.4 114.5 389.9L114.6 389.9C136.7 405.2 165.1 416 192 416C219.5 416 247 405.4 269.5 389.9H269.5z" class="fa-secondary"/></svg>