<svg xmlns="http://www.w3.org/2000/svg" viewBox="0 0 512 512"><!--! Font Awesome Pro 6.2.0 by @fontawesome - https://fontawesome.com License - https://fontawesome.com/license (Commercial License) Copyright 2022 Fonticons, Inc. --><path d="M368 314c0 8.836-7.164 16-16 16h-54V384c0 8.836-7.164 16-15.1 16h-52c-8.835 0-16-7.164-16-16v-53.1H160c-8.836 0-16-7.164-16-16v-52c0-8.838 7.164-16 16-16h53.1V192c0-8.838 7.165-16 16-16h52c8.836 0 15.1 7.162 15.1 16v54H352c8.836 0 16 7.162 16 16V314z" class="fa-secondary"/></svg>