<svg xmlns="http://www.w3.org/2000/svg" viewBox="0 0 512 512"><!--! Font Awesome Pro 6.2.0 by @fontawesome - https://fontawesome.com License - https://fontawesome.com/license (Commercial License) Copyright 2022 Fonticons, Inc. --><path d="M256 64C149.1 64 64 149.1 64 256C64 259.9 64.12 263.8 64.35 267.7L1.754 286.1C.5958 276.2 0 266.2 0 256C0 114.6 114.6 0 256 0C397.4 0 512 114.6 512 256C512 397.4 397.4 512 256 512C245.8 512 235.8 511.4 225.9 510.2L244.3 447.6C248.2 447.9 252.1 448 256 448C362 448 448 362 448 256C448 149.1 362 64 256 64zM400 256C400 334.8 336.8 398.8 258.3 399.1L278 332.9C311.5 323.4 336 292.5 336 256C336 211.8 300.2 176 255.1 176C219.5 176 188.6 200.5 179.1 233.1L112 253.7C113.2 175.2 177.2 111.1 255.1 111.1C335.5 111.1 400 176.5 400 255.1L400 256z" class="fa-secondary"/></svg>