<svg xmlns="http://www.w3.org/2000/svg" viewBox="0 0 512 512"><!--! Font Awesome Pro 6.2.0 by @fontawesome - https://fontawesome.com License - https://fontawesome.com/license (Commercial License) Copyright 2022 Fonticons, Inc. --><path d="M366.4 213.5L395 218.3C398.3 230.3 400 242.9 400 256C400 335.5 335.5 400 256 400C176.5 400 112 335.5 112 256C112 176.5 176.5 112 256 112C269.1 112 281.7 113.7 293.7 116.1L298.5 145.6L267.3 176.8C263.6 176.3 259.8 175.1 256 175.1C211.8 175.1 176 211.8 176 255.1C176 300.2 211.8 336 256 336C300.2 336 336 300.2 336 255.1C336 252.2 335.7 248.4 335.2 244.7L366.4 213.5zM497.7 171.5C506.1 197.1 512 226.4 512 256C512 397.4 397.4 512 256 512C114.6 512 0 397.4 0 256C0 114.6 114.6 0 256 0C285.6 0 314 5.024 340.5 14.27L288.1 66.67C277.6 64.91 266.9 64 256 64C149.1 64 64 149.1 64 256C64 362 149.1 448 256 448C362 448 448 362 448 256C448 245.1 447.1 234.4 445.3 223.9L497.7 171.5z" class="fa-secondary"/></svg>