<svg xmlns="http://www.w3.org/2000/svg" viewBox="0 0 640 512"><!--! Font Awesome Pro 6.2.0 by @fontawesome - https://fontawesome.com License - https://fontawesome.com/license (Commercial License) Copyright 2022 Fonticons, Inc. --><path d="M267.3 251.2C258.3 264.2 254.4 279.1 256.4 295.6C258.3 311.2 265.8 325.6 277.6 336C271.2 341.6 266.1 348.5 262.4 356.2C258.7 363.9 256.5 372.2 256.1 380.7C255.7 389.2 256.9 397.7 259.8 405.7C262.7 413.7 267.2 421.1 272.1 427.4C267.7 431.9 263.4 437.5 260.5 443.8C257.5 450.1 255.1 457 255.1 464C255.1 479.9 260.7 495.4 269.6 508.6C265.4 510.7 260.7 511.9 255.1 512H95.1C87.89 512 80.07 508.1 74.13 503.4C68.19 497.9 64.57 490.3 63.1 482.2L38.4 223.1H291.4C282.4 232.2 274.3 241.3 267.3 251.2L267.3 251.2zM347.3 132.7C350.3 135.7 352 139.8 352 144V176C352 180.2 350.3 184.3 347.3 187.3C344.3 190.3 340.2 192 336 192H16C11.76 192 7.687 190.3 4.686 187.3C1.686 184.3 0 180.2 0 176V144C0 139.8 1.686 135.7 4.686 132.7C7.687 129.7 11.76 128 16 128H157.2L181.8 30.24C183.9 21.59 188.9 13.91 195.9 8.424C202.9 2.942 211.6-.0248 220.5 .0002H272C276.2 .0002 280.3 1.686 283.3 4.687C286.3 7.687 288 11.76 288 16V32C288 36.24 286.3 40.31 283.3 43.31C280.3 46.31 276.2 48 272 48H226.8L206.8 128H336C340.2 128 344.3 129.7 347.3 132.7z" class="fa-secondary"/></svg>