<svg xmlns="http://www.w3.org/2000/svg" viewBox="0 0 640 512"><!--! Font Awesome Pro 6.2.0 by @fontawesome - https://fontawesome.com License - https://fontawesome.com/license (Commercial License) Copyright 2022 Fonticons, Inc. --><path d="M332.1 2.769C337.1 4.591 340.7 7.251 343.7 10.58C346.7 13.9 349 17.82 350.4 22.08C351.8 26.34 352.3 30.84 351.8 35.3L337.5 191C309.6 205.2 285.5 225.8 267.3 251.2C260.7 260.1 256.8 272.4 256.1 284.2C255.5 295.1 258.1 307.8 263.6 318.2C267.2 324.9 271.9 330.1 277.6 336C271.2 341.6 265.1 348.5 262.3 356.2C258.6 363.9 256.5 372.2 256.1 380.7C255.6 389.2 256.9 397.8 259.8 405.8C262.7 413.8 267.2 421.1 272.1 427.4C267.7 431.9 263.4 437.5 260.5 443.8C257.5 450.1 256 457 255.1 464C256 481.4 261.8 498.2 272.4 512H73.24C65.32 512 57.66 509.1 51.75 503.9C45.83 498.6 42.09 491.3 41.24 483.4L-.0037 35.42C-.486 30.94-.0165 26.41 1.374 22.13C2.765 17.84 5.046 13.89 8.066 10.55C11.09 7.205 14.78 4.537 18.9 2.719C23.03 .901 27.49-.0254 31.1 .0005H319.1C324.5 .0037 328.9 .9468 332.1 2.769L332.1 2.769zM284.8 64H67.2L75.93 160H276.1L284.8 64z" class="fa-secondary"/></svg>