<svg xmlns="http://www.w3.org/2000/svg" viewBox="0 0 640 512"><!--! Font Awesome Pro 6.2.0 by @fontawesome - https://fontawesome.com License - https://fontawesome.com/license (Commercial License) Copyright 2022 Fonticons, Inc. --><path d="M160 268.8V15.1C160 13.28 160.7 10.6 162 8.228C163.4 5.853 165.3 3.857 167.6 2.429C169.9 .9997 172.6 .1853 175.3 .0624C177.1-.0604 180.7 .5117 183.1 1.725L215.1 17.73C217.8 19.02 220.1 21.05 221.6 23.58C223.2 26.11 224 29.02 224 31.1V268.8C202.9 273.2 181.1 273.2 160 268.8zM378.6 84.09C380.7 85.9 382.3 88.22 383.2 90.83C384.1 93.44 384.3 96.23 383.7 98.94L370.2 176.7C355 182.1 340.4 188.1 326.6 197.2L346.1 86.08L363.4 80.96C365.1 80.13 368.8 79.98 371.4 80.54C374.1 81.1 376.6 82.35 378.6 84.16V84.09zM277.6 335.1C271.2 341.6 265.1 348.5 262.3 356.2C258.6 363.9 256.5 372.2 256.1 380.7C255.6 389.2 256.9 397.8 259.8 405.8C262.7 413.8 267.2 421.1 272.1 427.4C267.7 431.9 263.4 437.5 260.5 443.8C257.5 450.1 256 457 256 463.1C256 468.9 256.5 473.7 257.5 478.5C257.9 480.8 258.6 482.1 259.2 485.1C259.8 487.3 260.4 489.4 261.2 491.5C262.3 494.4 263.5 497.2 264.9 499.9C265.4 500.9 265.1 501.9 266.5 502.8C268.3 506 270.2 509.1 272.4 511.1H85.73C78.44 512 71.36 509.6 65.67 505C59.97 500.5 55.1 494.1 54.4 487L.3847 243.5C-.1378 241.1-.1279 238.7 .4135 236.4C.9553 234 2.015 231.9 3.514 229.1C5.013 228.1 6.914 226.6 9.075 225.6C11.24 224.5 13.6 223.1 16 223.1H49.98C53.39 223.8 56.75 224.8 59.52 226.8C62.29 228.8 64.31 231.7 65.25 234.1C73.89 273.1 127.4 303.1 192 303.1C214.1 304.1 236 300.4 256.8 292.9C257.1 296.1 257.7 301 258.7 305C259.8 309.6 261.4 314.1 263.6 318.3C267.2 325 271.9 330.1 277.6 335.1zM101.1 237.7L64.29 40.61C63.73 37.67 64.01 34.63 65.09 31.84C66.17 29.06 68.01 26.63 70.4 24.83L98.88 3.197C101.1 1.553 103.6 .4938 106.3 .1197C109-.2544 111.8 .0695 114.3 1.061C116.9 2.052 119.1 3.677 120.9 5.781C122.6 7.886 123.8 10.4 124.3 13.09L128 33.09V258.5C117.4 253.9 108.2 246.8 101.1 237.7H101.1zM16.51 191.1L.2567 98.72C-.1961 96.03 .0433 93.28 .9518 90.71C1.86 88.15 3.408 85.86 5.448 84.06C7.489 82.26 9.955 81.01 12.61 80.43C15.27 79.84 18.03 79.95 20.64 80.73L40.38 86.59L60.38 193.8C57 192.8 53.53 192.2 50.02 191.1H16.51zM307.4 32.44C310.1 33.03 312.5 34.28 314.6 36.08C316.6 37.88 318.1 40.16 319 42.73C319.1 45.29 320.2 48.04 319.7 50.72L289.6 223.2C289.1 224.5 288.4 225.8 287.9 227.2C284.1 230.1 282.2 233.1 279.6 236.1C275.2 240.9 271.1 245.1 267.3 251.3C267.1 251.7 267 252.1 266.8 252.4C263.3 254.7 259.7 256.7 256 258.5V51.2C256.9 49.28 258.2 47.57 259.7 46.16C261.3 44.74 263.1 43.66 265.1 42.97L299.4 32.73C301.1 31.96 304.8 31.86 307.4 32.44H307.4z" class="fa-secondary"/></svg>