<svg xmlns="http://www.w3.org/2000/svg" viewBox="0 0 512 512"><!--! Font Awesome Pro 6.2.0 by @fontawesome - https://fontawesome.com License - https://fontawesome.com/license (Commercial License) Copyright 2022 Fonticons, Inc. --><path d="M351.9 224c-15.25 0-30.12 2.5-44.63 6.375c-28.88 80.13-105.6 137.6-195.6 137.6c-39.38 0-77.75-11.25-110.9-32.25c-3.75 33.75 6.876 68.88 32.75 94.76l47.5 47.51c45.38 45.25 119 45.26 164.4 .0016l215.9-215.8C430.1 237.5 391.6 224 351.9 224zM287.8 160c0-39.76-13.57-78.27-38.45-109.3L33.36 266.5C22.98 276.9 14.73 289.3 8.982 302.9c29.88 21.5 65.75 33.13 102.6 33.13C208.7 336 287.8 257 287.8 160z" class="fa-secondary"/></svg>