<svg xmlns="http://www.w3.org/2000/svg" viewBox="0 0 512 512"><!--! Font Awesome Pro 6.2.0 by @fontawesome - https://fontawesome.com License - https://fontawesome.com/license (Commercial License) Copyright 2022 Fonticons, Inc. --><path d="M112 160C112 142.3 126.3 128 144 128H240V256H144C126.3 256 112 241.7 112 224V160zM272 256V128H368C385.7 128 400 142.3 400 160V224C400 241.7 385.7 256 368 256H272zM64 480V448H160V480C160 497.7 145.7 512 128 512H96C78.33 512 64 497.7 64 480zM352 480V448H448V480C448 497.7 433.7 512 416 512H384C366.3 512 352 497.7 352 480z" class="fa-secondary"/></svg>