<svg xmlns="http://www.w3.org/2000/svg" viewBox="0 0 448 512"><!--! Font Awesome Pro 6.2.0 by @fontawesome - https://fontawesome.com License - https://fontawesome.com/license (Commercial License) Copyright 2022 Fonticons, Inc. --><path d="M64 128C64 110.3 78.33 96 96 96H352C369.7 96 384 110.3 384 128V256C384 273.7 369.7 288 352 288H96C78.33 288 64 273.7 64 256V128zM32 448H128V480C128 497.7 113.7 512 96 512H64C46.33 512 32 497.7 32 480V448zM416 480C416 497.7 401.7 512 384 512H352C334.3 512 320 497.7 320 480V448H416V480z" class="fa-secondary"/></svg>