<svg xmlns="http://www.w3.org/2000/svg" viewBox="0 0 576 512"><!--! Font Awesome Pro 6.2.0 by @fontawesome - https://fontawesome.com License - https://fontawesome.com/license (Commercial License) Copyright 2022 Fonticons, Inc. --><path d="M128 160C128 142.3 142.3 128 160 128H272V288H160C142.3 288 128 273.7 128 256V160zM304 288V128H416C433.7 128 448 142.3 448 160V256C448 273.7 433.7 288 416 288H304zM96 448H192V480C192 497.7 177.7 512 160 512H128C110.3 512 96 497.7 96 480V448zM384 448H480V480C480 497.7 465.7 512 448 512H416C398.3 512 384 497.7 384 480V448z" class="fa-secondary"/></svg>