<svg xmlns="http://www.w3.org/2000/svg" viewBox="0 0 512 512"><!--! Font Awesome Pro 6.2.0 by @fontawesome - https://fontawesome.com License - https://fontawesome.com/license (Commercial License) Copyright 2022 Fonticons, Inc. --><path d="M280 147.5V224H232V157.5L28.86 199.5C15.88 202.2 3.183 193.8 .4976 180.9C-2.188 167.9 6.157 155.2 19.14 152.5L483.1 56.5C496.1 53.81 508.8 62.16 511.5 75.14C514.2 88.12 505.8 100.8 492.9 103.5L280 147.5zM160 288C168.8 288 176 295.2 176 304V368C176 376.8 168.8 384 160 384H96C87.16 384 80 376.8 80 368V304C80 295.2 87.16 288 96 288H160zM208 304C208 295.2 215.2 288 224 288H288C296.8 288 304 295.2 304 304V368C304 376.8 296.8 384 288 384H224C215.2 384 208 376.8 208 368V304zM416 288C424.8 288 432 295.2 432 304V368C432 376.8 424.8 384 416 384H352C343.2 384 336 376.8 336 368V304C336 295.2 343.2 288 352 288H416z" class="fa-secondary"/></svg>