<svg xmlns="http://www.w3.org/2000/svg" viewBox="0 0 512 512"><!--! Font Awesome Pro 6.2.0 by @fontawesome - https://fontawesome.com License - https://fontawesome.com/license (Commercial License) Copyright 2022 Fonticons, Inc. --><path d="M96 208V144c0-26.5-21.5-47.1-48-47.1S0 117.5 0 144v63.1c0 61.87 50.13 111.1 112 111.1H160V224L112 224C103.1 224 96 216.9 96 208zM464 224c-26.5 0-48 21.5-48 47.1v63.1c0 8.875-7.125 15.1-16 15.1H352v95.1h48c61.88 0 112-50.12 112-111.1V272C512 245.5 490.5 224 464 224z" class="fa-secondary"/></svg>