<svg xmlns="http://www.w3.org/2000/svg" viewBox="0 0 512 512"><!--! Font Awesome Pro 6.2.0 by @fontawesome - https://fontawesome.com License - https://fontawesome.com/license (Commercial License) Copyright 2022 Fonticons, Inc. --><path d="M192 288H32c-17.62 0-32 14.38-32 32v160c0 17.62 14.38 32 32 32h160c17.62 0 32-14.38 32-32v-160C224 302.4 209.6 288 192 288zM157.3 422.6c6.223 6.221 6.223 16.4 0 22.62c-6.221 6.221-16.4 6.221-22.62 0L112 422.6l-22.62 22.62c-6.221 6.221-16.4 6.221-22.62 0c-6.221-6.223-6.221-16.4 0-22.62L89.37 400l-22.62-22.62c-6.221-6.223-6.221-16.4 0-22.62c6.223-6.223 16.4-6.223 22.62 0L112 377.4l22.62-22.62c6.223-6.223 16.4-6.223 22.62 0c6.223 6.221 6.223 16.4 0 22.62L134.6 400L157.3 422.6zM192 0H32C14.38 0 0 14.38 0 32v160c0 17.62 14.38 32 32 32h160c17.62 0 32-14.38 32-32V32C224 14.38 209.6 0 192 0zM176 111.1C176 120.8 168.8 128 160 128H63.96C55.18 128 48 120.8 48 112S55.18 96 63.96 96h96.09C168.8 96 176 103.2 176 111.1zM480 0h-160c-17.62 0-32 14.38-32 32v160c0 17.62 14.38 32 32 32h160c17.62 0 32-14.38 32-32V32C512 14.38 497.6 0 480 0zM464 111.1C464 120.8 456.8 128 448 128H416v32.04C416 168.8 408.8 176 400 176S384 168.8 384 160V128h-32.04C343.2 128 336 120.8 336 112S343.2 96 351.1 96H384V63.96C384 55.18 391.2 48 399.1 48S416 55.18 416 63.96V96h32.04C456.8 96 464 103.2 464 111.1z" class="fa-secondary"/></svg>