<svg xmlns="http://www.w3.org/2000/svg" viewBox="0 0 448 512"><!--! Font Awesome Pro 6.2.0 by @fontawesome - https://fontawesome.com License - https://fontawesome.com/license (Commercial License) Copyright 2022 Fonticons, Inc. --><path d="M448 464C448 490.5 426.5 512 400 512H48C21.49 512 0 490.5 0 464V192H448V464zM287 360.1C296.4 370.3 311.6 370.3 320.1 360.1C330.3 351.6 330.3 336.4 320.1 327L240.1 247C231.6 237.7 216.4 237.7 207 247L127 327C117.7 336.4 117.7 351.6 127 360.1C136.4 370.3 151.6 370.3 160.1 360.1L200 321.9V424C200 437.3 210.7 448 224 448C237.3 448 248 437.3 248 424V321.9L287 360.1z" class="fa-secondary"/></svg>