<svg xmlns="http://www.w3.org/2000/svg" viewBox="0 0 448 512"><!--! Font Awesome Pro 6.2.0 by @fontawesome - https://fontawesome.com License - https://fontawesome.com/license (Commercial License) Copyright 2022 Fonticons, Inc. --><path d="M0 192H448V464C448 490.5 426.5 512 400 512H48C21.49 512 0 490.5 0 464V192zM120 320H328C341.3 320 352 309.3 352 296C352 282.7 341.3 272 328 272H120C106.7 272 96 282.7 96 296C96 309.3 106.7 320 120 320zM120 368C106.7 368 96 378.7 96 392C96 405.3 106.7 416 120 416H232C245.3 416 256 405.3 256 392C256 378.7 245.3 368 232 368H120z" class="fa-secondary"/></svg>