<svg xmlns="http://www.w3.org/2000/svg" viewBox="0 0 448 512"><!--! Font Awesome Pro 6.2.0 by @fontawesome - https://fontawesome.com License - https://fontawesome.com/license (Commercial License) Copyright 2022 Fonticons, Inc. --><path d="M448 464C448 490.5 426.5 512 400 512H48C21.49 512 0 490.5 0 464V192H448V464zM304.1 304.1C314.3 295.6 314.3 280.4 304.1 271C295.6 261.7 280.4 261.7 271 271L224 318.1L176.1 271C167.6 261.7 152.4 261.7 143 271C133.7 280.4 133.7 295.6 143 304.1L190.1 352L143 399C133.7 408.4 133.7 423.6 143 432.1C152.4 442.3 167.6 442.3 176.1 432.1L224 385.9L271 432.1C280.4 442.3 295.6 442.3 304.1 432.1C314.3 423.6 314.3 408.4 304.1 399L257.9 352L304.1 304.1z" class="fa-secondary"/></svg>