<svg xmlns="http://www.w3.org/2000/svg" viewBox="0 0 576 512"><!--! Font Awesome Pro 6.2.0 by @fontawesome - https://fontawesome.com License - https://fontawesome.com/license (Commercial License) Copyright 2022 Fonticons, Inc. --><path d="M96 32C96 14.33 110.3 0 128 0C145.7 0 160 14.33 160 32V64H288V32C288 14.33 302.3 0 320 0C337.7 0 352 14.33 352 32V64H400C426.5 64 448 85.49 448 112V160H0V112C0 85.49 21.49 64 48 64H96V32zM448 235.6L289.3 394.3C281.1 402.5 275.3 412.8 272.5 424.1L257.4 484.2C255.1 493.6 255.7 503.2 258.8 512H48C21.49 512 0 490.5 0 464V192H448V235.6zM120 320H264C277.3 320 288 309.3 288 296C288 282.7 277.3 272 264 272H120C106.7 272 96 282.7 96 296C96 309.3 106.7 320 120 320zM120 368C106.7 368 96 378.7 96 392C96 405.3 106.7 416 120 416H200C213.3 416 224 405.3 224 392C224 378.7 213.3 368 200 368H120z" class="fa-secondary"/></svg>