<svg xmlns="http://www.w3.org/2000/svg" viewBox="0 0 448 512"><!--! Font Awesome Pro 6.2.0 by @fontawesome - https://fontawesome.com License - https://fontawesome.com/license (Commercial License) Copyright 2022 Fonticons, Inc. --><path d="M0 192H448V464C448 490.5 426.5 512 400 512H48C21.49 512 0 490.5 0 464V192zM200 272V328H144C130.7 328 120 338.7 120 352C120 365.3 130.7 376 144 376H200V432C200 445.3 210.7 456 224 456C237.3 456 248 445.3 248 432V376H304C317.3 376 328 365.3 328 352C328 338.7 317.3 328 304 328H248V272C248 258.7 237.3 248 224 248C210.7 248 200 258.7 200 272z" class="fa-secondary"/></svg>