<svg xmlns="http://www.w3.org/2000/svg" viewBox="0 0 448 512"><!--! Font Awesome Pro 6.2.0 by @fontawesome - https://fontawesome.com License - https://fontawesome.com/license (Commercial License) Copyright 2022 Fonticons, Inc. --><path d="M0 192H448V464C448 490.5 426.5 512 400 512H48C21.49 512 0 490.5 0 464V192zM224 400C206.3 400 192 414.3 192 432C192 449.7 206.3 464 224 464C241.7 464 256 449.7 256 432C256 414.3 241.7 400 224 400zM248 256C248 242.7 237.3 232 224 232C210.7 232 200 242.7 200 256V352C200 365.3 210.7 376 224 376C237.3 376 248 365.3 248 352V256z" class="fa-secondary"/></svg>