<svg xmlns="http://www.w3.org/2000/svg" viewBox="0 0 448 512"><!--! Font Awesome Pro 6.2.0 by @fontawesome - https://fontawesome.com License - https://fontawesome.com/license (Commercial License) Copyright 2022 Fonticons, Inc. --><path d="M448 464C448 490.5 426.5 512 400 512H48C21.49 512 0 490.5 0 464V192H448V464zM248 264C248 250.7 237.3 240 224 240C210.7 240 200 250.7 200 264V366.1L160.1 327C151.6 317.7 136.4 317.7 127 327C117.7 336.4 117.7 351.6 127 360.1L207 440.1C216.4 450.3 231.6 450.3 240.1 440.1L320.1 360.1C330.3 351.6 330.3 336.4 320.1 327C311.6 317.7 296.4 317.7 287 327L248 366.1V264z" class="fa-secondary"/></svg>