<svg xmlns="http://www.w3.org/2000/svg" viewBox="0 0 448 512"><!--! Font Awesome Pro 6.2.0 by @fontawesome - https://fontawesome.com License - https://fontawesome.com/license (Commercial License) Copyright 2022 Fonticons, Inc. --><path d="M0 192H448V464C448 490.5 426.5 512 400 512H48C21.49 512 0 490.5 0 464V192zM147.2 360.7L99.81 422.2C91.72 432.8 99.22 448 112.5 448H338.9C351.5 448 359.1 434.1 352.4 423.4L268.9 292.3C262.8 282.7 248.8 282.4 242.3 291.8L184 376L172.6 360.9C166.3 352.4 153.6 352.3 147.2 360.7V360.7zM128 320C145.7 320 160 305.7 160 288C160 270.3 145.7 256 128 256C110.3 256 96 270.3 96 288C96 305.7 110.3 320 128 320z" class="fa-secondary"/></svg>