<svg xmlns="http://www.w3.org/2000/svg" viewBox="0 0 448 512"><!--! Font Awesome Pro 6.2.0 by @fontawesome - https://fontawesome.com License - https://fontawesome.com/license (Commercial License) Copyright 2022 Fonticons, Inc. --><path d="M448 464C448 490.5 426.5 512 400 512H48C21.49 512 0 490.5 0 464V192H448V464zM308.8 267C294.1 252.3 270.2 252.3 255.5 267L240.6 281.1L293.9 335.3L308.8 320.4C323.5 305.6 323.5 281.8 308.8 267V267zM137.6 391.4L128.5 428C127.1 433.5 128.7 439.3 132.7 443.2C136.7 447.2 142.4 448.8 147.9 447.4L184.5 438.3C190.1 436.9 195.3 433.1 199.4 429.9L271.3 357.9L217.1 304.6L146.1 376.5C141.1 380.6 139 385.8 137.6 391.4H137.6z" class="fa-secondary"/></svg>