<svg xmlns="http://www.w3.org/2000/svg" viewBox="0 0 576 512"><!--! Font Awesome Pro 6.2.0 by @fontawesome - https://fontawesome.com License - https://fontawesome.com/license (Commercial License) Copyright 2022 Fonticons, Inc. --><path d="M320 159.1H96V128c0-17.6 14.4-32 32-32h160C305.7 96 320 81.67 320 64S305.7 32 288 32H128C74.98 32 32 74.98 32 128v34.88C12.88 169.5 0 187.5 0 207.8l.0001 208.2c0 35.35 28.65 63.1 64 63.1l256-.0016c35.35 0 64-28.65 64-63.1V223.1C384 188.7 355.3 159.1 320 159.1zM304 255.1h-224c-8.836 0-16-7.164-16-15.1c0-8.838 7.164-16 16-16h224c8.838 0 16 7.162 16 16C320 248.8 312.8 255.1 304 255.1z" class="fa-secondary"/></svg>