<svg xmlns="http://www.w3.org/2000/svg" viewBox="0 0 512 512"><!--! Font Awesome Pro 6.2.0 by @fontawesome - https://fontawesome.com License - https://fontawesome.com/license (Commercial License) Copyright 2022 Fonticons, Inc. --><path d="M136 0C149.3 0 160 10.75 160 24C160 37.25 149.3 48 136 48H48V136C48 149.3 37.25 160 24 160C10.75 160 0 149.3 0 136V24C0 10.75 10.75 0 24 0H136zM488 0C501.3 0 512 10.75 512 24V136C512 149.3 501.3 160 488 160C474.7 160 464 149.3 464 136V48H376C362.7 48 352 37.25 352 24C352 10.75 362.7 0 376 0H488zM0 376C0 362.7 10.75 352 24 352C37.25 352 48 362.7 48 376V464H136C149.3 464 160 474.7 160 488C160 501.3 149.3 512 136 512H24C10.75 512 0 501.3 0 488V376zM376 512C362.7 512 352 501.3 352 488C352 474.7 362.7 464 376 464H464V376C464 362.7 474.7 352 488 352C501.3 352 512 362.7 512 376V488C512 501.3 501.3 512 488 512H376z" class="fa-secondary"/></svg>