<svg xmlns="http://www.w3.org/2000/svg" viewBox="0 0 576 512"><!--! Font Awesome Pro 6.2.0 by @fontawesome - https://fontawesome.com License - https://fontawesome.com/license (Commercial License) Copyright 2022 Fonticons, Inc. --><path d="M288 256c35.38 0 64-28.62 64-64s-28.62-64-64-64s-64 28.62-64 64S252.6 256 288 256zM575.1 352L.0299 352L.0002 448c0 17.6 14.4 32 32 32h512c17.6 0 32-14.4 32-32L575.1 352zM464 432h-352C103.2 432 96 424.8 96 416c0-8.838 7.164-16 16-16h352c8.838 0 16 7.162 16 16C480 424.8 472.8 432 464 432z" class="fa-secondary"/></svg>