<svg xmlns="http://www.w3.org/2000/svg" viewBox="0 0 576 512"><!--! Font Awesome Pro 6.2.0 by @fontawesome - https://fontawesome.com License - https://fontawesome.com/license (Commercial License) Copyright 2022 Fonticons, Inc. --><path d="M368 288H31.1C14.33 288 0 302.3 0 319.1S14.33 352 31.1 352h32L64 464C64 490.5 85.49 512 112 512h256c26.51 0 48-21.49 48-48v-128C416 309.5 394.5 288 368 288zM128 160c17.67 0 32-14.33 32-32c0-17.67-14.33-32-32-32S96 110.3 96 128C96 145.7 110.3 160 128 160zM352 160c17.67 0 32-14.33 32-32c0-17.67-14.33-32-32-32s-32 14.33-32 32C320 145.7 334.3 160 352 160z" class="fa-secondary"/></svg>