<svg xmlns="http://www.w3.org/2000/svg" viewBox="0 0 448 512"><!--! Font Awesome Pro 6.2.0 by @fontawesome - https://fontawesome.com License - https://fontawesome.com/license (Commercial License) Copyright 2022 Fonticons, Inc. --><path d="M224 96C153.4 96 95.92 153.3 95.92 224s57.38 128 128 128c70.75 0 128-57.25 128-128C351.9 153.4 294.6 96 224 96zM223.9 176c-26.5 0-47.88 21.5-48 48c0 8.875-7.125 16-16 16c-8.75 0-16-7.125-16-16c.125-44.13 35.92-80 80.04-80c8.875 0 15.96 7.125 15.96 16S232.8 176 223.9 176z" class="fa-secondary"/></svg>