<svg xmlns="http://www.w3.org/2000/svg" viewBox="0 0 576 512"><!--! Font Awesome Pro 6.2.0 by @fontawesome - https://fontawesome.com License - https://fontawesome.com/license (Commercial License) Copyright 2022 Fonticons, Inc. --><path d="M574.9 283.1C573.2 278.9 569.1 275.6 565.9 273.8l-35.37-15.5l-138.4 86.5l119.5 52.51c8.5 3.75 18.46-.132 22.21-8.632l40.74-92.62C576.4 291.9 576.5 287.3 574.9 283.1zM137.7 400H63.1c0-26.51-21.49-47.98-47.1-47.98C7.164 352 0 359.2 0 368v127.1C0 504.8 7.164 512 15.1 512c26.51 0 47.1-21.49 47.1-47.1l96.05 0c13.33 0 25.26-8.269 29.94-20.75l46.87-124.1l-59.25-24.37L137.7 400z" class="fa-secondary"/></svg>