<svg xmlns="http://www.w3.org/2000/svg" viewBox="0 0 512 512"><!--! Font Awesome Pro 6.2.0 by @fontawesome - https://fontawesome.com License - https://fontawesome.com/license (Commercial License) Copyright 2022 Fonticons, Inc. --><path d="M320 32c-13.38 12-25.5 24.75-36.13 37.5C266.4 45.1 244.6 22.25 220 0c-63.13 57-108 131.2-108 176c0 79.5 64.5 144 144 144s144-64.5 144-144C400 142.8 366.6 74 320 32zM294.3 228.5c-10.84 7.873-24.23 12.58-38.65 12.58c-36.1 0-65.44-24.95-65.44-65.44c0-20.14 12.17-37.94 36.4-68.3c3.477 4.193 49.39 65.44 49.39 65.44l29.35-34.87c2.045 3.578 3.988 7.055 5.625 10.43C324.7 175.6 318.9 210.5 294.3 228.5z" class="fa-secondary"/></svg>