<svg xmlns="http://www.w3.org/2000/svg" viewBox="0 0 512 512"><!--! Font Awesome Pro 6.2.0 by @fontawesome - https://fontawesome.com License - https://fontawesome.com/license (Commercial License) Copyright 2022 Fonticons, Inc. --><path d="M15.6 397.6c-15.26 9.125-20.14 28.62-11 43.87l32.76 54.87c8.529 14.2 27.57 20.66 43.88 11.12l87.06-51.68L61.44 370.4L15.6 397.6zM194.3 291.5l118.1 78.68l71.06-42.21l-118.1-78.67L194.3 291.5zM369.5 187.5l-73.62 43.71l118.1 78.67l14.95-8.879c31.96-19.11 55.64-47.95 69.56-80.48l-124.4-37.27C372.6 184.7 371.4 186.4 369.5 187.5zM90.88 352.9l106.8 85.4l84.19-50L163.8 309.6L90.88 352.9zM497.9 91.1c-5.859-12.36-13.29-23.31-21.53-33.33l-93.02 92.94c.1056 .3808 .3049 .7441 .3949 1.127l124.5 37.32C515.2 157.7 512.9 123.6 497.9 91.1zM360.7 128.1l93.14-93.05C425.1 12.61 388.9 0 352.4 0c-11.82 0-23.46 1.603-35.19 4.273l41.52 124.5C359.4 128.9 360.1 128.8 360.7 128.1zM264.9 137.7c8.529 14.2 27.57 20.6 43.88 11.06l19.15-11.21l-41.08-123.1c-5.415 2.465-10.98 5.031-16.2 8.162L243.1 38.1C227.9 48.12 223 67.75 232.1 82.87L264.9 137.7z" class="fa-secondary"/></svg>