<svg xmlns="http://www.w3.org/2000/svg" viewBox="0 0 640 512"><!--! Font Awesome Pro 6.2.0 by @fontawesome - https://fontawesome.com License - https://fontawesome.com/license (Commercial License) Copyright 2022 Fonticons, Inc. --><path d="M379.7 278.6c29.61 78.36 64.86 137.4 100.2 137.4c35.32-.084 70.8-59.14 100.5-137.5c-27-3.709-59.75-6.592-99.73-6.592C440.1 271.9 406.9 274.8 379.7 278.6zM479.1 0c-165.8 1.625-164.5 39.5-157.9 72.5c3.5 17.38 7.374 35.25 11.75 53.25c32.88-7 81.63-13.88 146.8-13.88c64.26 0 112.8 6.75 145.6 13.75c4.25-18 8.127-35.88 11.63-53.13C644.5 39.5 645.8 1.625 479.1 0zM247.9 145.4c-18.65-28.02-44.53-55.69-162.9 60.38c-116.1 118.4-88.49 144.3-60.47 162.1c14.76 9.813 30.18 19.72 46.01 29.35c18.3-28.2 47.93-67.55 93.98-113.6c45.43-45.44 84.47-74.96 112.7-93.25C267.4 175.5 257.6 160.1 247.9 145.4zM277.6 397.6c-28.68 28.68-50.04 54.21-66.6 76.13c76.35 34.47 142.1 51.25 167.1 26.28c24.92-25.04 8.268-91.84-26.18-168.3C331.1 348.2 305.9 369.3 277.6 397.6z" class="fa-secondary"/></svg>