<svg xmlns="http://www.w3.org/2000/svg" viewBox="0 0 640 512"><!--! Font Awesome Pro 6.2.0 by @fontawesome - https://fontawesome.com License - https://fontawesome.com/license (Commercial License) Copyright 2022 Fonticons, Inc. --><path d="M128 256C128.2 274.5 131.1 292.8 136.6 310.4L42.72 357.5C39.4 359.2 35.73 360 32 360C27.26 359.1 22.62 358.6 18.68 355.9C14.74 353.3 11.66 349.6 9.85 345.2C8.035 340.8 7.56 335.1 8.484 331.3C9.409 326.7 11.69 322.4 15.04 319L45.57 288.3L16.42 278.7C11.65 277.1 7.494 273.1 4.554 269.9C1.613 265.8 .0312 260.9 .0312 255.9C.0312 250.8 1.613 245.9 4.554 241.8C7.494 237.8 11.65 234.7 16.42 233.1L45.57 223.5L15.04 192.1C11.03 188.9 8.576 183.6 8.123 177.9C7.671 172.3 9.247 166.6 12.57 161.1C15.9 157.4 20.75 154.1 26.28 152.7C31.8 151.4 37.63 151.1 42.72 154.5L136.4 201.3C130.9 219.1 128.1 237.5 128 256H128zM624.1 319C628.3 322.4 630.6 326.7 631.5 331.3C632.4 335.1 631.1 340.8 630.2 345.2C628.3 349.6 625.3 353.3 621.3 355.9C617.4 358.6 612.7 359.1 608 360C604.3 360 600.6 359.2 597.3 357.5L503.7 310.7C509.1 292.9 511.9 274.5 512 256C511.8 237.5 508.9 219.2 503.4 201.6L597.3 154.8C602.4 152.3 608.2 151.7 613.7 153.1C619.2 154.4 624 157.7 627.4 162.3C630.7 166.9 632.3 172.5 631.8 178.2C631.4 183.9 628.1 189.2 624.1 193.2L594.4 223.7L623.6 233.3C628.4 234.9 632.5 238 635.5 242.1C638.4 246.2 639.1 251.1 639.1 256.1C639.1 261.2 638.4 266.1 635.5 270.2C632.5 274.2 628.4 277.3 623.6 278.9L594.4 288.5L624.1 319z" class="fa-secondary"/></svg>