<svg xmlns="http://www.w3.org/2000/svg" viewBox="0 0 640 512"><!--! Font Awesome Pro 6.2.0 by @fontawesome - https://fontawesome.com License - https://fontawesome.com/license (Commercial License) Copyright 2022 Fonticons, Inc. --><path d="M48 416H32C14.33 416 0 401.7 0 384V74.46C0 58.25 9.164 43.42 23.67 36.16C71.24 12.38 123.7 0 176.9 0H207.1C260.3 0 312.8 12.38 360.3 36.16C374.8 43.42 384 58.25 384 74.46V128H362.6C347.7 128 333.2 130.1 319.1 136.4V120C319.1 106.7 309.3 96 295.1 96H207.1V224H249.9L233.6 272.9C208.5 290.2 191.1 319.2 191.1 352V416H127.1V448C127.1 465.7 113.7 480 95.1 480H79.1C62.33 480 47.1 465.7 47.1 448L48 416zM64 200C64 213.3 74.75 224 88 224H176V96H88C74.75 96 64 106.7 64 120V200zM96 296C82.75 296 72 306.7 72 320C72 333.3 82.75 344 96 344C109.3 344 120 333.3 120 320C120 306.7 109.3 296 96 296z" class="fa-secondary"/></svg>