<svg xmlns="http://www.w3.org/2000/svg" viewBox="0 0 640 512"><!--! Font Awesome Pro 6.2.0 by @fontawesome - https://fontawesome.com License - https://fontawesome.com/license (Commercial License) Copyright 2022 Fonticons, Inc. --><path d="M347.2 116.6C352.5 121.8 353.5 129.9 349.7 136.2L316.3 192H368C375.1 192 381.4 196.7 383.4 203.6C385.4 210.5 382.5 217.8 376.5 221.6L248.5 301.6C242.2 305.5 234.1 304.6 228.8 299.4C223.5 294.2 222.5 286.1 226.3 279.8L259.7 224H208C200.9 224 194.6 219.3 192.6 212.4C190.7 205.6 193.5 198.2 199.5 194.4L327.5 114.4C333.8 110.5 341.9 111.4 347.2 116.6H347.2zM224 432C224 476.2 188.2 512 144 512C99.82 512 64 476.2 64 432C64 387.8 99.82 352 144 352C188.2 352 224 387.8 224 432zM576 432C576 476.2 540.2 512 496 512C451.8 512 416 476.2 416 432C416 387.8 451.8 352 496 352C540.2 352 576 387.8 576 432z" class="fa-secondary"/></svg>