<svg xmlns="http://www.w3.org/2000/svg" viewBox="0 0 576 512"><!--! Font Awesome Pro 6.2.0 by @fontawesome - https://fontawesome.com License - https://fontawesome.com/license (Commercial License) Copyright 2022 Fonticons, Inc. --><path d="M35.7 132.6C28.11 123.9 35.57 112 47.11 112H80L104 80L80 48H47.11C35.57 48 28.11 36.12 35.7 27.43C50.36 10.62 71.94 0 96 0C128.8 0 156.1 19.75 169.3 48H406.7C419 19.75 447.2 0 480 0C504.1 0 525.6 10.62 540.3 27.43C547.9 36.12 540.4 48 528.9 48H496L472 80L496 112H528.9C540.4 112 547.9 123.9 540.3 132.6C525.6 149.4 504.1 160 480 160C447.2 160 419 140.3 406.7 112H169.3C156.1 140.3 128.8 160 96 160C71.94 160 50.36 149.4 35.7 132.6V132.6z" class="fa-secondary"/></svg>