<svg xmlns="http://www.w3.org/2000/svg" viewBox="0 0 640 512"><!--! Font Awesome Pro 6.2.0 by @fontawesome - https://fontawesome.com License - https://fontawesome.com/license (Commercial License) Copyright 2022 Fonticons, Inc. --><path d="M0 48C0 21.49 21.49 0 48 0H272C298.5 0 320 21.49 320 48V136.4C290.5 148.5 266.9 173 256.3 204.6L255.9 205.1C254.9 198.1 248.2 192 240 192H208C199.2 192 192 199.2 192 208V240C192 248.8 199.2 256 208 256H239.2L233.6 272.9C208.5 290.2 192 319.2 192 352V480H48C21.49 480 0 458.5 0 432V48zM64 240C64 248.8 71.16 256 80 256H112C120.8 256 128 248.8 128 240V208C128 199.2 120.8 192 112 192H80C71.16 192 64 199.2 64 208V240zM64 144C64 152.8 71.16 160 80 160H112C120.8 160 128 152.8 128 144V112C128 103.2 120.8 96 112 96H80C71.16 96 64 103.2 64 112V144zM208 96C199.2 96 192 103.2 192 112V144C192 152.8 199.2 160 208 160H240C248.8 160 256 152.8 256 144V112C256 103.2 248.8 96 240 96H208zM64 336C64 344.8 71.16 352 80 352H112C120.8 352 128 344.8 128 336V304C128 295.2 120.8 288 112 288H80C71.16 288 64 295.2 64 304V336z" class="fa-secondary"/></svg>