<svg xmlns="http://www.w3.org/2000/svg" viewBox="0 0 448 512"><!--! Font Awesome Pro 6.2.0 by @fontawesome - https://fontawesome.com License - https://fontawesome.com/license (Commercial License) Copyright 2022 Fonticons, Inc. --><path d="M112 80C112 112 90.51 128 64 128C37.49 128 16 106.5 16 80C16 48 64 0 64 0C64 0 112 48 112 80zM272 80C272 112 250.5 128 224 128C197.5 128 176 106.5 176 80C176 48 224 0 224 0C224 0 272 48 272 80zM336 80C336 48 384 0 384 0C384 0 432 48 432 80C432 112 410.5 128 384 128C357.5 128 336 106.5 336 80z" class="fa-secondary"/></svg>