<svg xmlns="http://www.w3.org/2000/svg" viewBox="0 0 640 512"><!--! Font Awesome Pro 6.2.0 by @fontawesome - https://fontawesome.com License - https://fontawesome.com/license (Commercial License) Copyright 2022 Fonticons, Inc. --><path d="M224 128V224H111.3L141.6 148.1C146.5 135.1 158.2 128 171.3 128H224zM272 128H353.2C362.1 128 372.2 132.4 378.2 140L445.4 224H272L272 128zM224 432C224 476.2 188.2 512 144 512C99.82 512 64 476.2 64 432C64 387.8 99.82 352 144 352C188.2 352 224 387.8 224 432zM416 432C416 387.8 451.8 352 496 352C540.2 352 576 387.8 576 432C576 476.2 540.2 512 496 512C451.8 512 416 476.2 416 432z" class="fa-secondary"/></svg>