<svg xmlns="http://www.w3.org/2000/svg" viewBox="0 0 512 512"><!--! Font Awesome Pro 6.2.0 by @fontawesome - https://fontawesome.com License - https://fontawesome.com/license (Commercial License) Copyright 2022 Fonticons, Inc. --><path d="M135.2 117.4C139.7 104.6 151.8 96 165.4 96H346.6C360.2 96 372.3 104.6 376.8 117.4L402.9 192H109.1L135.2 117.4zM32 448V391.4C41.41 396.9 52.34 400 64 400H128V448C128 465.7 113.7 480 96 480H64C46.33 480 32 465.7 32 448zM384 448V400H448C459.7 400 470.6 396.9 480 391.4V448C480 465.7 465.7 480 448 480H416C398.3 480 384 465.7 384 448z" class="fa-secondary"/></svg>