<svg xmlns="http://www.w3.org/2000/svg" viewBox="0 0 640 512"><!--! Font Awesome Pro 6.2.0 by @fontawesome - https://fontawesome.com License - https://fontawesome.com/license (Commercial License) Copyright 2022 Fonticons, Inc. --><path d="M165.4 32H346.6C387.4 32 423.7 57.78 437.2 96.29L471.3 193.7C385.8 205.7 320 279.2 320 368C320 378.9 320.1 389.6 322.9 400H96V448C96 465.7 81.67 480 64 480H32C14.33 480 0 465.7 0 448V256C0 229.3 16.36 206.4 39.61 196.8L74.8 96.29C88.27 57.78 124.6 32 165.4 32V32zM165.4 96C151.8 96 139.7 104.6 135.2 117.4L109.1 192H402.9L376.8 117.4C372.3 104.6 360.2 96 346.6 96H165.4zM96 320C113.7 320 128 305.7 128 288C128 270.3 113.7 256 96 256C78.33 256 64 270.3 64 288C64 305.7 78.33 320 96 320z" class="fa-secondary"/></svg>