<svg xmlns="http://www.w3.org/2000/svg" viewBox="0 0 640 512"><!--! Font Awesome Pro 6.2.0 by @fontawesome - https://fontawesome.com License - https://fontawesome.com/license (Commercial License) Copyright 2022 Fonticons, Inc. --><path d="M160.6 18.85C163.2 12.1 172.8 12.1 175.4 18.85L201.7 85.44C203.3 89.32 207.5 91.38 211.5 90.15L279.1 69.19C286.9 67.06 292.9 74.53 289.3 80.82L266.7 120L230.4 172.5C203.1 181.4 180.6 203.5 172.6 233.4L166.8 254.1C165.3 255.2 163.8 255.9 162.6 257L109.1 305.6C104.7 310.5 96.05 306.4 96.58 299.2L101.8 227.7C102.1 223.6 99.14 219.9 95.02 219.3L24.24 208.4C17.07 207.3 14.95 198 20.93 193.9L80.01 153.5C83.45 151.1 84.5 146.5 82.42 142.9L46.75 80.82C43.13 74.53 49.09 67.06 56.03 69.19L124.5 90.15C128.5 91.38 132.7 89.32 134.3 85.44L160.6 18.85zM203.5 241.7C204.1 236.1 207.3 230.1 210.2 226.3z" class="fa-secondary"/></svg>