<svg xmlns="http://www.w3.org/2000/svg" viewBox="0 0 448 512"><!--! Font Awesome Pro 6.2.0 by @fontawesome - https://fontawesome.com License - https://fontawesome.com/license (Commercial License) Copyright 2022 Fonticons, Inc. --><path d="M224 0C237.3 0 248 10.75 248 24V104C248 117.3 237.3 128 224 128C210.7 128 200 117.3 200 104V24C200 10.75 210.7 0 224 0zM7.029 39.03C16.4 29.66 31.6 29.66 40.97 39.03L88.97 87.03C98.34 96.4 98.34 111.6 88.97 120.1C79.6 130.3 64.4 130.3 55.03 120.1L7.029 72.97C-2.343 63.6-2.343 48.4 7.029 39.03V39.03zM407 39.03C416.4 29.66 431.6 29.66 440.1 39.03C450.3 48.4 450.3 63.6 440.1 72.97L392.1 120.1C383.6 130.3 368.4 130.3 359 120.1C349.7 111.6 349.7 96.4 359 87.03L407 39.03z" class="fa-secondary"/></svg>