<svg xmlns="http://www.w3.org/2000/svg" viewBox="0 0 512 512"><!--! Font Awesome Pro 6.2.0 by @fontawesome - https://fontawesome.com License - https://fontawesome.com/license (Commercial License) Copyright 2022 Fonticons, Inc. --><path d="M512 256V448C512 483.3 483.3 512 448 512H384H128H64C28.65 512 0 483.3 0 448V256C0 114.6 114.6 0 256 0C397.4 0 512 114.6 512 256zM384 512C401.7 512 416 497.7 416 480V376C416 355.2 404.7 337.1 387.8 327.4L366.9 262.7C359.4 239.6 337.9 224 313.6 224H198.4C174.1 224 152.6 239.6 145.1 262.7L124.1 327.4C107.3 337.1 96 355.2 96 376V480C96 497.7 110.3 512 128 512C145.7 512 160 497.7 160 480V448H352V480C352 497.7 366.3 512 384 512H384z" class="fa-secondary"/></svg>