<svg xmlns="http://www.w3.org/2000/svg" viewBox="0 0 640 512"><!--! Font Awesome Pro 6.2.0 by @fontawesome - https://fontawesome.com License - https://fontawesome.com/license (Commercial License) Copyright 2022 Fonticons, Inc. --><path d="M64 160C64 142.3 78.33 128 96 128H224C241.7 128 256 142.3 256 160V224C256 241.7 241.7 256 224 256H96C78.33 256 64 241.7 64 224V160zM320 160C320 142.3 334.3 128 352 128H416C433.7 128 448 142.3 448 160V224C448 241.7 433.7 256 416 256H352C334.3 256 320 241.7 320 224V160zM112 432C112 387.8 147.8 352 192 352C236.2 352 272 387.8 272 432C272 476.2 236.2 512 192 512C147.8 512 112 476.2 112 432z" class="fa-secondary"/></svg>