<svg xmlns="http://www.w3.org/2000/svg" viewBox="0 0 640 512"><!--! Font Awesome Pro 6.2.0 by @fontawesome - https://fontawesome.com License - https://fontawesome.com/license (Commercial License) Copyright 2022 Fonticons, Inc. --><path d="M324.1 499L459.4 420.9C501.3 396.7 515.7 343.1 491.5 301.1L354.7 64.25C356.5 64.08 358.2 64 360 64H584C614.9 64 640 89.07 640 120V456C640 486.9 614.9 512 584 512H360C346.4 512 333.8 507.1 324.1 499V499zM579.8 135.7C565.8 123.9 545.3 126.2 532.9 138.9L528.1 144.2L523.1 138.9C510.6 126.2 489.9 123.9 476.4 135.7C460.7 149.2 459.9 173.1 473.9 187.6L522.4 237.6C525.4 240.8 530.6 240.8 533.9 237.6L582 187.6C596 173.1 595.3 149.2 579.8 135.7H579.8z" class="fa-secondary"/></svg>