<svg xmlns="http://www.w3.org/2000/svg" viewBox="0 0 640 512"><!--! Font Awesome Pro 6.2.0 by @fontawesome - https://fontawesome.com License - https://fontawesome.com/license (Commercial License) Copyright 2022 Fonticons, Inc. --><path d="M138.6 .0003H277.4C311.8 .0003 342.4 22.03 353.3 54.7L377.7 128H362.6C314.4 128 271.6 158.8 256.3 204.6L233.6 272.9C227.3 277.3 221.5 282.3 216.5 288H80V320C80 337.7 65.67 352 48 352H32C14.33 352 .0003 337.7 .0003 320L0 192C0 166.6 14.75 144.7 36.15 134.4L62.7 54.7C73.59 22.03 104.2 0 138.6 0V.0003zM138.6 64C131.7 64 125.6 68.41 123.4 74.94L105.7 128H310.3L292.6 74.94C290.4 68.41 284.3 64 277.4 64H138.6zM80 232C93.25 232 104 221.3 104 208C104 194.7 93.25 184 80 184C66.75 184 56 194.7 56 208C56 221.3 66.75 232 80 232z" class="fa-secondary"/></svg>