<svg xmlns="http://www.w3.org/2000/svg" viewBox="0 0 640 512"><!--! Font Awesome Pro 6.2.0 by @fontawesome - https://fontawesome.com License - https://fontawesome.com/license (Commercial License) Copyright 2022 Fonticons, Inc. --><path d="M480 48C480 21.5 458.5 0 432 0h-96C309.5 0 288 21.5 288 48V320h192V48zM432 96h-96V48h96V96zM224 320h32V96H224C206.4 96 192 110.4 192 128v160C192 305.6 206.4 320 224 320zM576 288V128c0-17.62-14.38-32-32-32h-32v224h32C561.6 320 576 305.6 576 288zM253.1 447.1C254.7 452.1 256 458.4 256 464C256 490.5 234.5 512 208 512S160 490.5 160 464c0-5.625 1.153-11 2.903-16H253.1zM541.2 447.1c1.625 5 2.889 10.38 2.889 16c0 26.5-21.51 48-48.01 48s-47.99-21.5-47.99-48c0-5.625 1.168-11 2.918-16H541.2z" class="fa-secondary"/></svg>