<svg xmlns="http://www.w3.org/2000/svg" viewBox="0 0 576 512"><!--! Font Awesome Pro 6.2.0 by @fontawesome - https://fontawesome.com License - https://fontawesome.com/license (Commercial License) Copyright 2022 Fonticons, Inc. --><path d="M312 288H170.7L124.5 45.5c-.9-4.8-2.4-9.3-4.4-13.5h411c26.3 0 45.5 25 38.6 50.4l-41 152.3c-8.5 31.4-37 53.3-69.5 53.3H360l0-110.1 23 23c9.4 9.4 24.6 9.4 33.9 0s9.4-24.6 0-33.9l-64-64c-9.4-9.4-24.6-9.4-33.9 0l-64 64c-9.4 9.4-9.4 24.6 0 33.9s24.6 9.4 33.9 0l23-23L312 288z" class="fa-secondary"/></svg>