<svg xmlns="http://www.w3.org/2000/svg" viewBox="0 0 576 512"><!--! Font Awesome Pro 6.2.0 by @fontawesome - https://fontawesome.com License - https://fontawesome.com/license (Commercial License) Copyright 2022 Fonticons, Inc. --><path d="M459.2 288H170.7L124.5 45.5c-.9-4.8-2.4-9.3-4.4-13.5h411c26.3 0 45.5 25 38.6 50.4l-41 152.3c-8.5 31.4-37 53.3-69.5 53.3zM395.4 128.9c7.8-7.8 7.8-20.5 0-28.3s-20.5-7.8-28.3 0L336 131.7l-31.1-31.1c-7.8-7.8-20.5-7.8-28.3 0s-7.8 20.5 0 28.3L307.7 160l-31.1 31.1c-7.8 7.8-7.8 20.5 0 28.3s20.5 7.8 28.3 0L336 188.3l31.1 31.1c7.8 7.8 20.5 7.8 28.3 0s7.8-20.5 0-28.3L364.3 160l31.1-31.1z" class="fa-secondary"/></svg>