<svg xmlns="http://www.w3.org/2000/svg" viewBox="0 0 640 512"><!--! Font Awesome Pro 6.2.0 by @fontawesome - https://fontawesome.com License - https://fontawesome.com/license (Commercial License) Copyright 2022 Fonticons, Inc. --><path d="M576 32h-128v128l-48-32L352 160V32H224C206.4 32 192 46.4 192 64v224C192 305.6 206.4 320 224 320h352c17.6 0 32-14.4 32-31.1V64C608 46.4 593.6 32 576 32zM162.9 447.1C161.2 452.1 160 458.4 160 464C160 490.5 181.5 512 208 512S256 490.5 256 464c0-5.625-1.292-11-2.917-16H162.9zM450.1 447.1c-1.75 5-2.928 10.38-2.928 16C448 490.5 469.5 512 496 512c26.5 0 48.01-21.5 48.01-47.1c0-5.625-1.282-11-2.907-16H450.1z" class="fa-secondary"/></svg>