<svg xmlns="http://www.w3.org/2000/svg" viewBox="0 0 512 512"><!--! Font Awesome Pro 6.2.0 by @fontawesome - https://fontawesome.com License - https://fontawesome.com/license (Commercial License) Copyright 2022 Fonticons, Inc. --><path d="M288 0C305.7 0 320 14.33 320 32V96C320 113.7 305.7 128 288 128H208V160H144V128H64C46.33 128 32 113.7 32 96V32C32 14.33 46.33 0 64 0H288zM96 48C87.16 48 80 55.16 80 64C80 72.84 87.16 80 96 80H256C264.8 80 272 72.84 272 64C272 55.16 264.8 48 256 48H96zM136 240C136 253.3 125.3 264 112 264C98.75 264 88 253.3 88 240C88 226.7 98.75 216 112 216C125.3 216 136 226.7 136 240zM184 240C184 226.7 194.7 216 208 216C221.3 216 232 226.7 232 240C232 253.3 221.3 264 208 264C194.7 264 184 253.3 184 240zM184 320C184 333.3 173.3 344 160 344C146.7 344 136 333.3 136 320C136 306.7 146.7 296 160 296C173.3 296 184 306.7 184 320zM280 240C280 226.7 290.7 216 304 216C317.3 216 328 226.7 328 240C328 253.3 317.3 264 304 264C290.7 264 280 253.3 280 240zM280 320C280 333.3 269.3 344 256 344C242.7 344 232 333.3 232 320C232 306.7 242.7 296 256 296C269.3 296 280 306.7 280 320zM376 240C376 226.7 386.7 216 400 216C413.3 216 424 226.7 424 240C424 253.3 413.3 264 400 264C386.7 264 376 253.3 376 240zM376 320C376 333.3 365.3 344 352 344C338.7 344 328 333.3 328 320C328 306.7 338.7 296 352 296C365.3 296 376 306.7 376 320z" class="fa-secondary"/></svg>