<svg xmlns="http://www.w3.org/2000/svg" viewBox="0 0 576 512"><!--! Font Awesome Pro 6.2.0 by @fontawesome - https://fontawesome.com License - https://fontawesome.com/license (Commercial License) Copyright 2022 Fonticons, Inc. --><path d="M512 32H64C28.65 32 0 60.65 0 96v336C0 458.5 21.49 480 48 480h46.27l35.37-106.1C133.1 360.8 146.2 352 159.1 352H416c13.77 0 26 8.813 30.36 21.88L481.7 480H528c26.51 0 48-21.49 48-48V96C576 60.65 547.3 32 512 32zM416 288H160C115.8 288 80 252.2 80 208S115.8 128 160 128h256c44.18 0 80 35.82 80 80S460.2 288 416 288zM160 384l-32 96h320l-32-96H160z" class="fa-secondary"/></svg>