<svg xmlns="http://www.w3.org/2000/svg" viewBox="0 0 640 512"><!--! Font Awesome Pro 6.2.0 by @fontawesome - https://fontawesome.com License - https://fontawesome.com/license (Commercial License) Copyright 2022 Fonticons, Inc. --><path d="M128 16C128 7.164 135.2 0 144 0H176C184.8 0 192 7.164 192 16V64H240V16C240 7.164 247.2 0 256 0H288C296.8 0 304 7.164 304 16V64H336V16C336 7.164 343.2 0 352 0H384C392.8 0 400 7.164 400 16V64H448V16C448 7.164 455.2 0 464 0H496C504.8 0 512 7.164 512 16V224H128V16z" class="fa-secondary"/></svg>