<svg xmlns="http://www.w3.org/2000/svg" viewBox="0 0 640 512"><!--! Font Awesome Pro 6.2.0 by @fontawesome - https://fontawesome.com License - https://fontawesome.com/license (Commercial License) Copyright 2022 Fonticons, Inc. --><path d="M285 59.24L245.3 42.64L228.7 2.986C227.4 .3529 224.3-.752 221.6 .5566C220.6 1.072 219.7 1.945 219.2 2.986L202.6 42.64L162.1 59.24C160.3 60.56 159.2 63.76 160.6 66.39c.5156 1.029 1.377 1.85 2.407 2.366L202.6 85.36l16.6 39.65c1.307 2.635 4.489 3.738 7.123 2.434C227.4 126.9 228.2 126.1 228.7 125L245.3 85.36l39.65-16.6C287.6 67.44 288.7 64.24 287.4 61.61C286.9 60.58 286 59.76 285 59.24zM448 0c-88.37 0-160 71.63-160 160s71.63 160 160 160s159.1-71.63 159.1-160S536.4 .002 448 0zM544 176c0 53.02-42.98 96-96 96s-96-42.98-96-96v-128l64 64h64l64-64V176z" class="fa-secondary"/></svg>