<svg xmlns="http://www.w3.org/2000/svg" viewBox="0 0 448 512"><!--! Font Awesome Pro 6.2.0 by @fontawesome - https://fontawesome.com License - https://fontawesome.com/license (Commercial License) Copyright 2022 Fonticons, Inc. --><path d="M192 32C192 49.67 177.7 64 160 64C142.3 64 128 49.67 128 32C128 14.33 142.3 0 160 0C177.7 0 192 14.33 192 32zM160 160V288C160 305.7 145.7 320 128 320C110.3 320 96 305.7 96 288V160H160zM224 80C224 53.49 245.5 32 272 32C298.5 32 320 53.49 320 80C320 106.5 298.5 128 272 128C245.5 128 224 106.5 224 80z" class="fa-secondary"/></svg>