<svg xmlns="http://www.w3.org/2000/svg" viewBox="0 0 320 512"><!--! Font Awesome Pro 6.2.0 by @fontawesome - https://fontawesome.com License - https://fontawesome.com/license (Commercial License) Copyright 2022 Fonticons, Inc. --><path d="M224 66.66C213.6 64.91 202.9 64 192 64C181.1 64 170.4 64.91 160 66.65V32C160 14.33 174.3 0 192 0C209.7 0 224 14.33 224 32V66.66zM224 379.1C213.8 382.6 203.1 384 192 384C180.1 384 170.2 382.6 160 379.1V132C170.2 129.4 180.1 128 192 128C203.1 128 213.8 129.4 224 132V379.1zM224 480C224 497.7 209.7 512 192 512C174.3 512 160 497.7 160 480V445.3C170.4 447.1 181.1 448 192 448C202.9 448 213.6 447.1 224 445.3V480z" class="fa-secondary"/></svg>