<svg xmlns="http://www.w3.org/2000/svg" viewBox="0 0 448 512"><!--! Font Awesome Pro 6.2.0 by @fontawesome - https://fontawesome.com License - https://fontawesome.com/license (Commercial License) Copyright 2022 Fonticons, Inc. --><path d="M384 288l-.0123-160c0-70.69-57.31-128-128-128H191.1C121.3 0 63.98 57.31 63.98 128l.0158 160h48L111.1 128c0-29.48 16.2-54.1 40-68.87L151.1 288h48L199.1 48h48L248 288h47.1l-.016-228.9C319.8 73 335.1 98.52 335.1 128l.0189 160H384zM31.1 496c0 8.836 7.164 16 16 16h32c8.838 0 16-7.164 16-16V384h-64L31.1 496zM352 384v112c0 8.836 7.164 16 16 16h31.1c8.838 0 16-7.164 16-16L416 384H352z" class="fa-secondary"/></svg>