<svg xmlns="http://www.w3.org/2000/svg" viewBox="0 0 512 512"><!--! Font Awesome Pro 6.2.0 by @fontawesome - https://fontawesome.com License - https://fontawesome.com/license (Commercial License) Copyright 2022 Fonticons, Inc. --><path d="M160 64H240V128H160V64zM448 128H288V64H464C490.5 64 512 85.49 512 112V176C512 202.5 490.5 224 464 224H288V160H448V128zM160 160H240V224H160V160zM384 384H448V352H384V288H464C490.5 288 512 309.5 512 336V400C512 426.5 490.5 448 464 448H384V384zM256 352V288H336V352H256zM336 384V448H256V384H336z" class="fa-secondary"/></svg>