<svg xmlns="http://www.w3.org/2000/svg" viewBox="0 0 640 512"><!--! Font Awesome Pro 6.2.0 by @fontawesome - https://fontawesome.com License - https://fontawesome.com/license (Commercial License) Copyright 2022 Fonticons, Inc. --><path d="M305.6 163.2C315.4 161.1 325.6 159.1 336 159.1C372.1 159.1 405 173.3 430.3 195.2L512.4 134.1C514.9 158.1 529.7 177.6 550.2 186.6L468.2 246.8C475.8 264.3 480 283.7 480 303.1C480 319.6 477.5 334.7 472.9 348.8L544.9 392C525.6 402.8 512.4 423.3 512 446.9L439.9 403.7C413.7 430.1 376.8 448 336 448C267.5 448 210.1 400.1 195.6 336H119.4C124.9 326.6 128 315.7 128 304C128 292.3 124.9 281.4 119.4 271.1H195.6C203 239 221.8 210.4 247.6 190.3L218.4 127.8C220.3 127.9 222.1 128 224 128C245.7 128 264.9 117.2 276.4 100.7L305.6 163.2zM336 384C380.2 384 416 348.2 416 303.1C416 259.8 380.2 223.1 336 223.1C291.8 223.1 255.1 259.8 255.1 303.1C255.1 348.2 291.8 384 336 384z" class="fa-secondary"/></svg>