<svg xmlns="http://www.w3.org/2000/svg" viewBox="0 0 512 512"><!--! Font Awesome Pro 6.2.0 by @fontawesome - https://fontawesome.com License - https://fontawesome.com/license (Commercial License) Copyright 2022 Fonticons, Inc. --><path d="M224 256V448C224 465.7 209.7 480 192 480C174.3 480 160 465.7 160 448V256C160 238.3 174.3 224 192 224C209.7 224 224 238.3 224 256zM96 352V448C96 465.7 81.67 480 64 480C46.33 480 32 465.7 32 448V352C32 334.3 46.33 320 64 320C81.67 320 96 334.3 96 352zM288 320C288 302.3 302.3 288 320 288C337.7 288 352 302.3 352 320V448C352 465.7 337.7 480 320 480C302.3 480 288 465.7 288 448V320zM480 256V448C480 465.7 465.7 480 448 480C430.3 480 416 465.7 416 448V256C416 238.3 430.3 224 448 224C465.7 224 480 238.3 480 256z" class="fa-secondary"/></svg>