<svg xmlns="http://www.w3.org/2000/svg" viewBox="0 0 576 512"><!--! Font Awesome Pro 6.2.0 by @fontawesome - https://fontawesome.com License - https://fontawesome.com/license (Commercial License) Copyright 2022 Fonticons, Inc. --><path d="M32 64C32 28.65 60.65 0 96 0H256C291.3 0 320 28.65 320 64V448H32V64zM223.2 101.1C225.5 94.24 222.9 86.74 216.9 82.72C210.1 78.71 203 79.17 197.6 83.85L85.59 179.9C80.5 184.2 78.67 191.3 80.99 197.6C83.32 203.8 89.3 208 95.1 208H153.8L128.8 282.9C126.5 289.8 129.1 297.3 135.1 301.3C141 305.3 148.1 304.8 154.4 300.1L266.4 204.1C271.5 199.8 273.3 192.7 271 186.4C268.7 180.2 262.7 176 256 176H198.2L223.2 101.1z" class="fa-secondary"/></svg>