<svg xmlns="http://www.w3.org/2000/svg" viewBox="0 0 640 512"><!--! Font Awesome Pro 6.2.0 by @fontawesome - https://fontawesome.com License - https://fontawesome.com/license (Commercial License) Copyright 2022 Fonticons, Inc. --><path d="M592 0h-384C181.5 0 160 22.25 160 49.63V96c23.42 0 45.1 6.781 64 17.8V64h352v288H287.3c22.07 16.48 39.54 38.5 50.76 64h253.9C618.5 416 640 393.8 640 366.4V49.63C640 22.25 618.5 0 592 0zM312 218l55.01 54.99c9.375 9.375 24.6 9.375 33.98 0L473 201l24.25 24.25C508.6 236.6 528 228.6 528 212.5V124c0-6.625-5.375-12-12-12h-88.5c-16.12 0-24.12 19.38-12.75 30.75L439 167L384 222l-55.01-55.01c-9.375-9.375-24.6-9.375-33.98 0L280.3 181.8C285 195.1 288 209.1 288 224c0 6.875-.9999 13.38-2 20L312 218z" class="fa-secondary"/></svg>