<svg xmlns="http://www.w3.org/2000/svg" viewBox="0 0 512 512"><!--! Font Awesome Pro 6.2.0 by @fontawesome - https://fontawesome.com License - https://fontawesome.com/license (Commercial License) Copyright 2022 Fonticons, Inc. --><path d="M107.1 63.75C118.6 44.09 139.6 32 162.4 32H349.6C372.4 32 393.4 44.09 404.9 63.75L498.2 223.8C509.9 243.7 509.9 268.3 498.2 288.2L404.9 448.2C393.4 467.9 372.4 480 349.6 480H162.4C139.6 480 118.6 467.9 107.1 448.2L13.77 288.2C2.141 268.3 2.141 243.7 13.77 223.8L107.1 63.75zM349.6 96H162.4L69.05 256L162.4 416H349.6L442.1 256L349.6 96z" class="fa-secondary"/></svg>