<svg xmlns="http://www.w3.org/2000/svg" viewBox="0 0 512 512"><!--! Font Awesome Pro 6.2.0 by @fontawesome - https://fontawesome.com License - https://fontawesome.com/license (Commercial License) Copyright 2022 Fonticons, Inc. --><path d="M464 192C490.5 192 512 213.5 512 240V272C512 298.5 490.5 320 464 320H304C277.5 320 256 298.5 256 272V240C256 213.5 277.5 192 304 192H464zM176 272C202.5 272 224 293.5 224 320V432C224 458.5 202.5 480 176 480H48C21.49 480 0 458.5 0 432V320C0 293.5 21.49 272 48 272H176z" class="fa-secondary"/></svg>