<svg xmlns="http://www.w3.org/2000/svg" viewBox="0 0 640 512"><!--! Font Awesome Pro 6.2.0 by @fontawesome - https://fontawesome.com License - https://fontawesome.com/license (Commercial License) Copyright 2022 Fonticons, Inc. --><path d="M283.3 224.1c-25.43 0-55.7 6.713-91.21 22.33C156.5 230.8 126 224.1 100.6 224.1c-92.32 0-100.6 82.46-100.6 105.7c0 82.16 67.03 182.2 191.1 182.2s191.9-100.1 191.9-182.2C383.9 306.5 375.6 224.1 283.3 224.1zM539.3 224.1c-25.45 0-55.82 6.726-91.36 22.34c-28.02-12.31-52.72-18.85-74.44-21.18c19.77 18.08 42.37 51.21 42.37 104.6c0 4.159 2.75 87.86-69.58 155.5c27.79 16.53 61.76 26.74 101.6 26.74c125 0 192.1-100.1 192.1-182.2C640 306.5 631.7 224.1 539.3 224.1z" class="fa-secondary"/></svg>