<svg xmlns="http://www.w3.org/2000/svg" viewBox="0 0 512 512"><!--! Font Awesome Pro 6.2.0 by @fontawesome - https://fontawesome.com License - https://fontawesome.com/license (Commercial License) Copyright 2022 Fonticons, Inc. --><path d="M247.1 459.6L224 448v-48C224 391.1 216.9 384 208 384h-160C39.13 384 32 391.1 32 400V448l-23.12 11.62C3.375 462.3 0 467.9 0 473.9V496C0 504.9 7.125 512 16 512h224c8.875 0 16-7.125 16-16v-22.12C256 467.9 252.6 462.3 247.1 459.6zM503.1 459.6L480 448v-48c0-8.875-7.125-16-16-16h-128c-8.875 0-16 7.125-16 16V448l-23.12 11.62C291.4 462.3 288 467.9 288 473.9V496c0 8.875 7.125 16 16 16h192c8.875 0 16-7.125 16-16v-22.12C512 467.9 508.6 462.3 503.1 459.6z" class="fa-secondary"/></svg>