<svg xmlns="http://www.w3.org/2000/svg" viewBox="0 0 640 512"><!--! Font Awesome Pro 6.2.0 by @fontawesome - https://fontawesome.com License - https://fontawesome.com/license (Commercial License) Copyright 2022 Fonticons, Inc. --><path d="M176 224C167.2 224 160 231.2 160 240v64C160 312.8 167.2 320 176 320S192 312.8 192 304v-64C192 231.2 184.8 224 176 224zM509.3 242.8c-4.094 0-8.188 1.562-11.31 4.688l-45.25 45.25C449.6 295.8 448 299.9 448 304c0 9.139 7.473 16 16 16c4.094 0 8.188-1.562 11.31-4.688l45.25-45.25c3.125-3.125 4.688-7.219 4.688-11.31C525.3 249.6 517.8 242.8 509.3 242.8zM232 32h-112C106.8 32 96 42.75 96 56S106.8 80 120 80h32.17L152.3 128h48L200.2 80H232C245.3 80 256 69.25 256 56S245.3 32 232 32zM528 96h-128C391.3 96 384 103.1 384 112V128h160l.0001-16C544 103.1 536.9 96 528 96z" class="fa-secondary"/></svg>