<svg xmlns="http://www.w3.org/2000/svg" viewBox="0 0 512 512"><!--! Font Awesome Pro 6.2.0 by @fontawesome - https://fontawesome.com License - https://fontawesome.com/license (Commercial License) Copyright 2022 Fonticons, Inc. --><path d="M208 64C208 99.35 179.3 128 144 128C108.7 128 80 99.35 80 64C80 28.65 108.7 0 144 0C179.3 0 208 28.65 208 64zM136 352V480C136 497.7 121.7 512 104 512C86.33 512 72 497.7 72 480V300.5L59.09 321C49.67 336 29.91 340.5 14.96 331.1C.0006 321.7-4.492 301.9 4.923 286.1L56.6 204.9C74.17 176.9 104.9 159.1 137.8 159.1H150.2C183.2 159.1 213.8 176.9 231.4 204.9L283.1 286.1C292.5 301.9 288 321.7 273 331.1C258.1 340.5 238.3 336 228.9 321L216 300.5V480C216 497.7 201.7 512 184 512C166.3 512 152 497.7 152 480V352L136 352z" class="fa-secondary"/></svg>