<svg xmlns="http://www.w3.org/2000/svg" viewBox="0 0 640 512"><!--! Font Awesome Pro 6.2.0 by @fontawesome - https://fontawesome.com License - https://fontawesome.com/license (Commercial License) Copyright 2022 Fonticons, Inc. --><path d="M293.6 202.9L29.28 505.3C26.42 508.5 22.4 510.6 18.06 510.1C13.73 511.3 9.411 510 6.03 507.3C2.649 504.5 .4641 500.6-.0636 496.3C-.5913 491.9 .5796 487.6 3.202 484.1L235.7 156.5L293.6 202.9zM472.1 261.7L154.9 508.6C151.5 511.2 147.2 512.3 142.9 511.8C138.7 511.3 134.8 509.1 132 505.8C129.3 502.6 127.9 498.3 128.2 494.1C128.4 489.8 130.3 485.8 133.4 482.8L425.1 206.9L472.1 261.7z" class="fa-secondary"/></svg>