<svg xmlns="http://www.w3.org/2000/svg" viewBox="0 0 512 512"><!--! Font Awesome Pro 6.2.0 by @fontawesome - https://fontawesome.com License - https://fontawesome.com/license (Commercial License) Copyright 2022 Fonticons, Inc. --><path d="M256 224C238.3 224 224 238.3 224 256s14.33 32 32 32c17.67 0 32-14.33 32-32S273.7 224 256 224zM256 16C123.4 16 16 123.4 16 256s107.4 240 240 240c132.6 0 240-107.4 240-240S388.6 16 256 16zM256 432c-97.05 0-176-78.99-176-176S158.1 80 256 80s176 78.95 176 176S353 432 256 432z" class="fa-secondary"/></svg>