<svg xmlns="http://www.w3.org/2000/svg" viewBox="0 0 512 512"><!--! Font Awesome Pro 6.2.0 by @fontawesome - https://fontawesome.com License - https://fontawesome.com/license (Commercial License) Copyright 2022 Fonticons, Inc. --><path d="M138.3 104.3L92.74 58.8C131.3 26.87 179.3 6.009 232 1.111V65.49C196.9 69.86 164.8 83.68 138.3 104.3V104.3zM280 446.5C315.1 442.1 347.2 428.3 373.7 407.7L419.3 453.2C380.7 485.1 332.7 505.1 280 510.9V446.5zM1.111 280H65.49C69.86 315.1 83.68 347.2 104.3 373.7L58.8 419.3C26.87 380.7 6.009 332.7 1.112 280H1.111zM407.7 138.3L453.2 92.74C485.1 131.3 505.1 179.3 510.9 232H446.5C442.1 196.9 428.3 164.8 407.7 138.3V138.3z" class="fa-secondary"/></svg>