<svg xmlns="http://www.w3.org/2000/svg" viewBox="0 0 640 512"><!--! Font Awesome Pro 6.2.0 by @fontawesome - https://fontawesome.com License - https://fontawesome.com/license (Commercial License) Copyright 2022 Fonticons, Inc. --><path d="M461.3 210.7C436.3 185.8 395.7 185.8 370.7 210.7C345.8 235.7 345.8 276.3 370.7 301.3L434.7 365.3C446.7 377.2 462.1 383.4 477.8 383.1C433.5 460.5 350.8 512 256 512C114.6 512 0 397.4 0 256C0 114.6 114.6 0 256 0C379.2 0 482.1 87.04 506.5 202.1L480 229.5L461.3 210.7zM232 151.1V263.1C232 277.3 242.7 287.1 256 287.1C269.3 287.1 280 277.3 280 263.1V151.1C280 138.7 269.3 127.1 256 127.1C242.7 127.1 232 138.7 232 151.1zM256 319.1C238.3 319.1 224 334.3 224 352C224 369.7 238.3 384 256 384C273.7 384 288 369.7 288 352C288 334.3 273.7 319.1 256 319.1z" class="fa-secondary"/></svg>