<svg xmlns="http://www.w3.org/2000/svg" viewBox="0 0 512 512"><!--! Font Awesome Pro 6.2.0 by @fontawesome - https://fontawesome.com License - https://fontawesome.com/license (Commercial License) Copyright 2022 Fonticons, Inc. --><path d="M418.4 157.9L380.6 365.6C367.9 357 352.5 352 336 352C329.7 352 323.5 352.7 317.6 354.1L355.4 146.4C368.1 155 383.5 160 400 160C406.3 160 412.5 159.3 418.4 157.9V157.9zM156.3 232.2L301.9 359.6C281.9 369 266.5 386.5 259.7 407.8L114.1 280.4C134.1 270.1 149.5 253.5 156.3 232.2V232.2zM160 208C160 185.7 150.9 165.6 136.2 151.1L320 77.52C320 78.35 320 79.17 320 80C320 102.3 329.1 122.4 343.8 136.9L159.1 210.5C159.1 209.7 160 208.8 160 208V208z" class="fa-secondary"/></svg>