<svg xmlns="http://www.w3.org/2000/svg" viewBox="0 0 512 512"><!--! Font Awesome Pro 6.2.0 by @fontawesome - https://fontawesome.com License - https://fontawesome.com/license (Commercial License) Copyright 2022 Fonticons, Inc. --><path d="M0 256C0 114.6 114.6 0 256 0C397.4 0 512 114.6 512 256C512 397.4 397.4 512 256 512C114.6 512 0 397.4 0 256zM280 120C280 106.7 269.3 96 255.1 96C242.7 96 231.1 106.7 231.1 120V137.9C225.2 139.5 218.6 141.6 212.5 144.2C192.6 152.8 173.7 168.9 169.3 193.2C164.6 218.7 175.6 241.9 197.3 255.8C213.1 265.9 234 271.8 250.8 276.6C253.2 277.3 255.8 277.9 258.3 278.6C271.5 282.2 285.4 285.1 296.7 293.6C309.7 302.6 303.4 318.4 290.1 323.7C280.2 327.7 265.1 329.4 246.2 326.6C233.3 324.6 220.5 320.3 207.9 316C205.1 315.1 202.3 314.1 199.5 313.2C186.1 309.1 173.4 315.9 169.2 328.5C165.1 341 171.9 354.6 184.5 358.8C200.1 363.9 215.9 369.1 232 372.7L232 392C232 405.3 242.7 416 256 416C269.3 416 280 405.3 280 392L280 375.1C289.9 373.1 299.4 371.8 308 368.3C328.8 359.9 346.2 343.5 350.7 318.6C355.5 292.8 345.4 268.8 323.8 254C307.2 242.7 285.1 236.4 267.7 231.5C265.2 230.7 262.6 230 259.1 229.3C247.3 225.9 234.1 222.3 223.1 215.3C209.2 206.4 219.3 193.6 231.6 188.3C245.3 182.3 262.3 181 276.9 183.8C284.9 185.3 292.7 187.5 300.4 189.7C302.2 190.2 303.9 190.7 305.6 191.1C318.4 194.7 331.6 187.2 335.1 174.4C338.7 161.6 331.2 148.4 318.4 144.9C316.3 144.3 314.3 143.7 312.2 143.1C301.6 140.1 290.8 137.1 280 135.8L280 120z" class="fa-secondary"/></svg>