<svg xmlns="http://www.w3.org/2000/svg" viewBox="0 0 512 512"><!--! Font Awesome Pro 6.2.0 by @fontawesome - https://fontawesome.com License - https://fontawesome.com/license (Commercial License) Copyright 2022 Fonticons, Inc. --><path d="M444.1 176C435.8 130.3 414.1 88.18 380.5 54.63L357.9 32L239.9 149.1C246.4 157.4 251.2 166.2 253.7 176H444.1zM32 357.9l22.62 22.62C88.18 414.1 130.3 435.8 176 444.1v-190.4c-9.816-2.541-18.64-7.334-26.03-13.82L32 357.9zM447.5 208H253.7C252.2 213.8 249.9 219.3 246.9 224.3l144.3 144.3C427.8 326.7 448 273.7 448 217.6C448 214.4 447.7 211.2 447.5 208zM208 253.7v193.8C211.2 447.7 214.3 448 217.6 448c56.19 0 109.1-20.16 151.1-56.73L224.3 246.9C219.3 249.9 213.8 252.2 208 253.7z" class="fa-secondary"/></svg>