<svg xmlns="http://www.w3.org/2000/svg" viewBox="0 0 512 512"><!--! Font Awesome Pro 6.2.0 by @fontawesome - https://fontawesome.com License - https://fontawesome.com/license (Commercial License) Copyright 2022 Fonticons, Inc. --><path d="M0 160v256c0 35.35 28.65 64 64 64h384c35.35 0 64-28.65 64-64V160H0zM330.1 329.3l-106.7 68.97C222.6 399.4 220.6 400 218.7 400c-1.77 0-3.562-.4648-5.166-1.379C210.1 396.7 208 392.1 208 388.1V251c0-4.01 2.104-7.705 5.5-9.656c3.375-1.918 7.562-1.832 10.81 .3027l106.7 68.97C334.1 312.7 336 316.2 336 319.1S334.1 327.3 330.1 329.3z" class="fa-secondary"/></svg>