<svg xmlns="http://www.w3.org/2000/svg" viewBox="0 0 640 512"><!--! Font Awesome Pro 6.2.0 by @fontawesome - https://fontawesome.com License - https://fontawesome.com/license (Commercial License) Copyright 2022 Fonticons, Inc. --><path d="M631.6 129.9c-5.219-2.781-11.53-2.5-16.44 .7969L571.2 160L101.3 159.1c-3.5 0-6.875 .4995-10.12 1.625L11 188.4C4.375 190.5 0 196.6 0 203.5v73c0 6.875 4.375 13 11 15.12l80.13 26.75c3.25 1.125 6.625 1.623 10.12 1.623L571.2 320l43.97 29.31C617.8 351.1 620.9 352 624 352c2.594 0 5.188-.625 7.562-1.891C636.8 347.3 640 341.9 640 336v-192C640 138.1 636.8 132.7 631.6 129.9zM272 264c-13.25 0-24-10.75-24-24S258.8 216 272 216S296 226.8 296 240S285.3 264 272 264zM368 264c-13.25 0-24-10.75-24-24s10.75-24 24-24s24 10.75 24 24S381.3 264 368 264zM464 264c-13.25 0-24-10.75-24-24s10.75-24 24-24s24 10.75 24 24S477.3 264 464 264z" class="fa-secondary"/></svg>