<svg xmlns="http://www.w3.org/2000/svg" viewBox="0 0 448 512"><!--! Font Awesome Pro 6.2.0 by @fontawesome - https://fontawesome.com License - https://fontawesome.com/license (Commercial License) Copyright 2022 Fonticons, Inc. --><path d="M0 224C0 100.3 100.3 0 224 0C347.7 0 448 100.3 448 224C448 347.7 347.7 448 224 448C100.3 448 0 347.7 0 224zM248 120C248 106.7 237.3 96 224 96C210.7 96 200 106.7 200 120V224C200 230.4 202.5 236.5 207 240.1L255 288.1C264.4 298.3 279.6 298.3 288.1 288.1C298.3 279.6 298.3 264.4 288.1 255L248 214.1V120z" class="fa-secondary"/></svg>