<svg xmlns="http://www.w3.org/2000/svg" viewBox="0 0 512 512"><!--! Font Awesome Pro 6.2.0 by @fontawesome - https://fontawesome.com License - https://fontawesome.com/license (Commercial License) Copyright 2022 Fonticons, Inc. --><path d="M32 448c-17.75 0-32 14.25-32 32s14.25 32 32 32s32-14.25 32-32S49.75 448 32 448zM256 448c-17.75 0-32 14.25-32 32s14.25 32 32 32s32-14.25 32-32S273.8 448 256 448zM198.8 353.9c-12.17-5.219-26.3 .4062-31.52 12.59l-48 112c-5.219 12.19 .4219 26.31 12.61 31.53C134.1 511.4 138.2 512 141.3 512c9.312 0 18.17-5.438 22.08-14.53l48-112C216.6 373.3 210.1 359.2 198.8 353.9zM81.45 353.9c-12.19-5.219-26.3 .4062-31.52 12.59l-8 18.66c-5.219 12.19 .4219 26.31 12.61 31.53c3.078 1.312 6.281 1.938 9.438 1.938c9.312 0 18.17-5.438 22.08-14.53l8-18.66C99.28 373.3 93.64 359.2 81.45 353.9zM305.5 353.9c-12.19-5.219-26.3 .4062-31.52 12.59l-8 18.66c-5.219 12.19 .4219 26.31 12.61 31.53c3.078 1.312 6.281 1.938 9.438 1.938c9.312 0 18.17-5.438 22.08-14.53l8-18.66C323.3 373.3 317.6 359.2 305.5 353.9zM433.5 353.9c-12.16-5.219-26.28 .4062-31.52 12.59l-48 112c-5.219 12.19 .4219 26.31 12.61 31.53C369.6 511.4 372.8 512 375.1 512c9.312 0 18.17-5.438 22.08-14.53l48-112C451.3 373.3 445.6 359.2 433.5 353.9z" class="fa-secondary"/></svg>