<svg xmlns="http://www.w3.org/2000/svg" viewBox="0 0 512 512"><!--! Font Awesome Pro 6.2.0 by @fontawesome - https://fontawesome.com License - https://fontawesome.com/license (Commercial License) Copyright 2022 Fonticons, Inc. --><path d="M368 464c0 26.51 21.49 48 48 48s48-21.49 48-48s-48.01-95.1-48.01-95.1S368 437.5 368 464zM48 464C48 490.5 69.49 512 96 512s48-21.49 48-48s-48.01-95.1-48.01-95.1S48 437.5 48 464zM208 464c0 26.51 21.49 48 48 48s48-21.49 48-48s-48.01-95.1-48.01-95.1S208 437.5 208 464z" class="fa-secondary"/></svg>