<svg xmlns="http://www.w3.org/2000/svg" viewBox="0 0 512 512"><!--! Font Awesome Pro 6.2.0 by @fontawesome - https://fontawesome.com License - https://fontawesome.com/license (Commercial License) Copyright 2022 Fonticons, Inc. --><path d="M198.8 353.9c-12.17-5.219-26.3 .4062-31.52 12.59l-47.1 112c-5.219 12.19 .4219 26.31 12.61 31.53C134.1 511.4 138.2 512 141.3 512c9.312 0 18.17-5.438 22.08-14.53l47.1-112C216.6 373.3 210.1 359.2 198.8 353.9zM81.46 353.9c-12.19-5.219-26.3 .4062-31.52 12.59l-47.1 112C-3.276 490.7 2.365 504.8 14.55 510.1C17.63 511.4 20.83 512 23.99 512c9.312 0 18.17-5.438 22.08-14.53l47.1-112C99.29 373.3 93.64 359.2 81.46 353.9zM316.1 353.9c-12.19-5.219-26.3 .4062-31.52 12.59l-47.1 112c-5.219 12.19 .4219 26.31 12.61 31.53C252.3 511.4 255.5 512 258.7 512c9.312 0 18.17-5.438 22.08-14.53l47.1-112C333.1 373.3 328.3 359.2 316.1 353.9zM433.5 353.9c-12.17-5.219-26.28 .4062-31.52 12.59l-47.1 112c-5.219 12.19 .4219 26.31 12.61 31.53C369.6 511.4 372.8 512 375.1 512c9.312 0 18.17-5.438 22.08-14.53l47.1-112C451.3 373.3 445.6 359.2 433.5 353.9z" class="fa-secondary"/></svg>