<svg xmlns="http://www.w3.org/2000/svg" viewBox="0 0 640 512"><!--! Font Awesome Pro 6.2.0 by @fontawesome - https://fontawesome.com License - https://fontawesome.com/license (Commercial License) Copyright 2022 Fonticons, Inc. --><path d="M304 160c40.75 0 78.63 17.25 105.4 46.5c9.875-5.625 20.5-9.375 31.62-11.75C445.2 183.9 448 172.4 448 160c0-53-43-96-96-96c-14.12 0-27.38 3.25-39.5 8.75C296.6 30.25 256 0 208 0C151.6 0 105.2 41.88 97.62 96.25C97.12 96.25 96.62 96 96 96C43 96 0 139 0 192s43 96 96 96h65.62C169.8 216.2 230.1 160 304 160z" class="fa-secondary"/></svg>