<svg xmlns="http://www.w3.org/2000/svg" viewBox="0 0 576 512"><!--! Font Awesome Pro 6.2.0 by @fontawesome - https://fontawesome.com License - https://fontawesome.com/license (Commercial License) Copyright 2022 Fonticons, Inc. --><path d="M113.5 353.9c-12.19-5.219-26.3 .4062-31.52 12.59l-47.1 112C28.72 490.7 34.36 504.8 46.55 510.1C49.63 511.4 52.83 512 55.99 512c9.312 0 18.17-5.438 22.08-14.53l47.1-112C131.3 373.3 125.6 359.2 113.5 353.9zM385.5 353.9c-12.22-5.219-26.28 .4062-31.52 12.59l-47.1 112c-5.219 12.19 .4219 26.31 12.61 31.53C321.6 511.4 324.8 512 327.1 512c9.312 0 18.17-5.438 22.08-14.53l47.1-112C403.3 373.3 397.6 359.2 385.5 353.9zM520 392h-15.1v-16c0-13.25-10.75-24-23.1-24c-13.25 0-23.1 10.75-23.1 24v16h-15.1c-13.25 0-23.1 10.75-23.1 24s10.75 24 23.1 24h15.1v16c0 13.25 10.75 24 23.1 24c13.25 0 23.1-10.75 23.1-24v-16h15.1C533.3 440 544 429.3 544 416S533.3 392 520 392zM264 392H248v-16c0-13.25-10.75-24-23.1-24S200 362.8 200 376v16H184c-13.25 0-23.1 10.75-23.1 24s10.75 24 23.1 24H200v16c0 13.25 10.75 24 23.1 24s23.1-10.75 23.1-24v-16h15.1c13.25 0 23.1-10.75 23.1-24S277.3 392 264 392z" class="fa-secondary"/></svg>