<svg xmlns="http://www.w3.org/2000/svg" viewBox="0 0 640 512"><!--! Font Awesome Pro 6.2.0 by @fontawesome - https://fontawesome.com License - https://fontawesome.com/license (Commercial License) Copyright 2022 Fonticons, Inc. --><path d="M207.1 128c-44.18 0-79.1 35.81-79.1 79.1c0 20.81 8.139 39.59 21.16 53.83C173.1 221.5 215.8 194.5 265.1 192.1l10.28-15.07c1.148-1.684 2.715-2.938 3.943-4.545C266.2 146.2 239.4 128 207.1 128zM317.2 98.78L301.2 10.21C299.6 1.325 289.3-2.919 281.9 2.226l-73.94 51.31l-73.94-51.32c-7.413-5.145-17.67-.8988-19.27 7.983l-16.01 88.58L10.21 114.8C1.327 116.4-2.921 126.6 2.223 134.1l51.3 73.94l-51.3 73.94c-5.144 7.415-.8969 17.67 7.983 19.27l99.58 17.56c6.977-5.862 14.43-11.22 22.66-15.55C133.3 299.7 134.6 296.4 135.7 292.9C111.6 272.4 95.1 242.2 95.1 208c0-61.86 50.14-111.1 111.1-111.1c40.38 0 75.47 21.57 95.17 53.63c17.41-12.51 37.81-20.52 59.66-21.54c3.218-6.789 7.303-13.02 11.75-18.95L317.2 98.78z" class="fa-secondary"/></svg>