<svg xmlns="http://www.w3.org/2000/svg" viewBox="0 0 640 512"><!--! Font Awesome Pro 6.2.0 by @fontawesome - https://fontawesome.com License - https://fontawesome.com/license (Commercial License) Copyright 2022 Fonticons, Inc. --><path d="M630.1 248.7C552.7 263.5 481 204 481 125.6c0-45.12 24.25-86.62 63.88-109c6.125-3.375 4.625-12.62-2.375-13.87C532.9 .875 523 0 513.1 0c-88.88 0-161.1 71.62-161.1 160c0 .75 .25 1.25 .25 2c16.25 16.75 27 38.75 30.25 63.12c38.5 5.125 71.75 29.88 87.63 64.75c23.13 4 44 14.37 61.13 29.12c42.5-4.75 80.63-25.1 107-58.25C642.8 255.3 637.9 247.3 630.1 248.7z" class="fa-secondary"/></svg>