<svg xmlns="http://www.w3.org/2000/svg" viewBox="0 0 512 512"><!--! Font Awesome Pro 6.2.0 by @fontawesome - https://fontawesome.com License - https://fontawesome.com/license (Commercial License) Copyright 2022 Fonticons, Inc. --><path d="M200 384c-13.25 0-24 10.75-24 24v80C176 501.3 186.8 512 200 512S224 501.3 224 488v-80C224 394.8 213.3 384 200 384zM104 352c-13.25 0-24 10.75-24 24v80C80 469.3 90.75 480 104 480S128 469.3 128 456v-80C128 362.8 117.3 352 104 352zM296 352c-13.25 0-24 10.75-24 24v80c0 13.25 10.75 24 24 24S320 469.3 320 456v-80C320 362.8 309.3 352 296 352zM392 384c-13.25 0-24 10.75-24 24v80c0 13.25 10.75 24 24 24S416 501.3 416 488v-80C416 394.8 405.3 384 392 384z" class="fa-secondary"/></svg>