<svg xmlns="http://www.w3.org/2000/svg" viewBox="0 0 512 512"><!--! Font Awesome Pro 6.2.0 by @fontawesome - https://fontawesome.com License - https://fontawesome.com/license (Commercial License) Copyright 2022 Fonticons, Inc. --><path d="M104 392h-16v-16C88 362.8 77.25 352 64 352s-24 10.75-24 24v16h-16C10.75 392 0 402.8 0 416s10.75 24 24 24h16v16C40 469.3 50.75 480 64 480s24-10.75 24-24v-16h16C117.3 440 128 429.3 128 416S117.3 392 104 392zM488 392h-16v-16c0-13.25-10.75-24-24-24s-24 10.75-24 24v16h-16C394.8 392 384 402.8 384 416s10.75 24 24 24h16v16c0 13.25 10.75 24 24 24s24-10.75 24-24v-16h16c13.25 0 24-10.75 24-24S501.3 392 488 392zM296 424h-16v-16c0-13.25-10.75-24-24-24s-24 10.75-24 24v16h-16C202.8 424 192 434.8 192 448s10.75 24 24 24h16v16C232 501.3 242.8 512 256 512s24-10.75 24-24v-16h16c13.25 0 24-10.75 24-24S309.3 424 296 424z" class="fa-secondary"/></svg>