<svg xmlns="http://www.w3.org/2000/svg" viewBox="0 0 576 512"><!--! Font Awesome Pro 6.2.0 by @fontawesome - https://fontawesome.com License - https://fontawesome.com/license (Commercial License) Copyright 2022 Fonticons, Inc. --><path d="M430.8 304.9c10 5.625 19 12.37 27 20.37C487.1 292.8 529 272 576 272v-64c-61 0-116.2 24.62-156.8 64.25C424.9 282.2 429 293.2 430.8 304.9zM238.6 173.6c21 5.875 40.38 16.5 56.62 31C359.6 119.4 461.2 64 576 64V0C437.1 0 314.2 68.75 238.6 173.6zM325.8 225.1C333.2 224.2 362.5 219.8 394.2 244C440.6 197.2 504.9 168 576 168v-64C474.8 104 384.4 151.4 325.8 225.1z" class="fa-secondary"/></svg>