<svg xmlns="http://www.w3.org/2000/svg" viewBox="0 0 640 512"><!--! Font Awesome Pro 6.2.0 by @fontawesome - https://fontawesome.com License - https://fontawesome.com/license (Commercial License) Copyright 2022 Fonticons, Inc. --><path d="M144.7 303c-43.63-43.74-43.63-114.7 0-158.3c43.75-43.62 114.8-43.62 158.5 0c9.626 9.748 16.88 20.1 22.25 32.74c9.75-3.749 20.13-5.999 30.75-7.499l29.75-88.86c4-11.87-7.25-23.12-19.25-19.25L278.1 91.2L237.5 8.342c-5.5-11.12-21.5-11.12-27.13 0L168.1 91.2L81.1 61.83C69.22 57.96 57.97 69.21 61.85 81.08l29.38 87.73L8.344 210.3c-11.13 5.624-11.13 21.5 0 27.12l82.88 41.37l-29.38 87.86c-4 11.87 7.375 22.1 19.25 19.12l76.13-25.25c6-12.37 14-23.75 23.5-33.49C167.7 321.7 155.4 313.7 144.7 303zM139.1 223.8c0 40.87 29.25 74.86 67.88 82.36c8-4.749 16.38-8.873 25.25-11.75C238.5 250.2 264.1 211.9 300.5 189.4C287.2 160.3 257.1 139.9 223.1 139.9C177.7 139.9 139.1 177.6 139.1 223.8z" class="fa-secondary"/></svg>