<svg xmlns="http://www.w3.org/2000/svg" viewBox="0 0 512 512"><!--! Font Awesome Pro 6.2.0 by @fontawesome - https://fontawesome.com License - https://fontawesome.com/license (Commercial License) Copyright 2022 Fonticons, Inc. --><path d="M352 424c-13.25 0-24 10.75-24 24v40c0 13.25 10.75 24 24 24s24-10.75 24-24V448C376 434.8 365.3 424 352 424zM448 352c-13.25 0-24 10.75-24 24V416c0 13.25 10.75 24 24 24s24-10.75 24-24v-40C472 362.8 461.3 352 448 352zM160 424c-13.25 0-24 10.75-24 24v40C136 501.3 146.8 512 160 512s24-10.75 24-24V448C184 434.8 173.3 424 160 424zM64 352c-13.25 0-24 10.75-24 24V416c0 13.25 10.75 24 24 24S88 429.3 88 416v-40C88 362.8 77.25 352 64 352zM256 352c-13.25 0-24 10.75-24 24V416c0 13.25 10.75 24 24 24s24-10.75 24-24v-40C280 362.8 269.3 352 256 352z" class="fa-secondary"/></svg>