<svg xmlns="http://www.w3.org/2000/svg" viewBox="0 0 640 512"><!--! Font Awesome Pro 6.2.0 by @fontawesome - https://fontawesome.com License - https://fontawesome.com/license (Commercial License) Copyright 2022 Fonticons, Inc. --><path d="M576 400C576 386.8 565.2 376 552 376h-528C10.8 376 0 386.8 0 399.1C0 413.2 10.8 424 23.1 424h528C565.2 424 576 413.2 576 400zM200 464H87.1C74.8 464 64 474.8 64 487.1S74.8 512 87.1 512H200C213.2 512 224 501.2 224 488S213.2 464 200 464zM616 464H295.1C282.8 464 272 474.8 272 487.1S282.8 512 295.1 512H616c13.2 0 24-10.8 24-23.1S629.2 464 616 464z" class="fa-secondary"/></svg>