<svg xmlns="http://www.w3.org/2000/svg" viewBox="0 0 576 512"><!--! Font Awesome Pro 6.2.0 by @fontawesome - https://fontawesome.com License - https://fontawesome.com/license (Commercial License) Copyright 2022 Fonticons, Inc. --><path d="M565.2 298.4c-92.1 17.75-178.5-53.62-178.5-147.6c0-54.25 29-104 76.12-130.9c7.375-4.125 5.375-15.12-2.75-16.63C448.4 1.125 436.7 0 424.1 0c-105.9 0-191.9 85.88-191.9 192c0 8.5 .6251 16.75 1.75 25c5.875 4.25 11.62 8.875 16.75 14.25C262.1 226.5 275.2 224 287.1 224c52.87 0 95.1 43.13 95.1 96c0 3.625-.25 7.25-.625 10.75c23.62 10.75 42.37 29.5 53.5 52.5c54.37-3.375 103.7-29.25 137.1-70.37C579.2 306.4 573.5 296.8 565.2 298.4z" class="fa-secondary"/></svg>