<svg xmlns="http://www.w3.org/2000/svg" viewBox="0 0 512 512"><!--! Font Awesome Pro 6.2.0 by @fontawesome - https://fontawesome.com License - https://fontawesome.com/license (Commercial License) Copyright 2022 Fonticons, Inc. --><path d="M352 351.1h-71.25l47.44-105.4c3.062-6.781 1.031-14.81-4.906-19.31c-5.969-4.469-14.22-4.312-19.94 .4687l-153.6 128c-5.156 4.312-7.094 11.41-4.781 17.72c2.281 6.344 8.281 10.56 15.03 10.56h71.25l-47.44 105.4c-3.062 6.781-1.031 14.81 4.906 19.31C191.6 510.9 194.1 512 198.4 512c3.656 0 7.281-1.25 10.25-3.719l153.6-128c5.156-4.312 7.094-11.41 4.781-17.72C364.8 356.2 358.8 351.1 352 351.1z" class="fa-secondary"/></svg>