<svg xmlns="http://www.w3.org/2000/svg" viewBox="0 0 512 512"><!--! Font Awesome Pro 6.2.0 by @fontawesome - https://fontawesome.com License - https://fontawesome.com/license (Commercial License) Copyright 2022 Fonticons, Inc. --><path d="M384 352c-17.75 0-32 14.25-32 32s14.25 32 32 32s32-14.25 32-32S401.8 352 384 352zM192 448c-17.75 0-32 14.25-32 32s14.25 32 32 32s32-14.25 32-32S209.8 448 192 448zM320 448c-17.75 0-32 14.25-32 32s14.25 32 32 32s32-14.25 32-32S337.8 448 320 448zM256 352c-17.75 0-32 14.25-32 32s14.25 32 32 32s32-14.25 32-32S273.8 352 256 352zM64 448c-17.75 0-32 14.25-32 32s14.25 32 32 32s32-14.25 32-32S81.75 448 64 448zM128 352c-17.75 0-32 14.25-32 32s14.25 32 32 32s32-14.25 32-32S145.8 352 128 352z" class="fa-secondary"/></svg>