<svg xmlns="http://www.w3.org/2000/svg" viewBox="0 0 576 512"><!--! Font Awesome Pro 6.2.0 by @fontawesome - https://fontawesome.com License - https://fontawesome.com/license (Commercial License) Copyright 2022 Fonticons, Inc. --><path d="M80 352C53.5 352 32 373.5 32 400S53.5 448 80 448S128 426.5 128 400S106.5 352 80 352zM496 352c-26.5 0-48 21.5-48 48s21.5 48 48 48s48-21.5 48-48S522.5 352 496 352zM377 363.1c4.625-14.5 1.625-30.88-9.75-42.37c-11.5-11.5-27.87-14.38-42.37-9.875c-7-13.5-20.63-23-36.88-23s-29.88 9.5-36.88 23C236.6 306.2 220.2 309.2 208.8 320.8c-11.5 11.5-14.38 27.87-9.875 42.37c-13.5 7-23 20.63-23 36.88s9.5 29.88 23 36.88c-4.625 14.5-1.625 30.88 9.875 42.37c8.25 8.125 19 12.25 29.75 12.25c4.25 0 8.5-1.125 12.62-2.5C258.1 502.5 271.8 512 288 512s29.88-9.5 36.88-23c4.125 1.25 8.375 2.5 12.62 2.5c10.75 0 21.5-4.125 29.75-12.25c11.5-11.5 14.38-27.87 9.75-42.37C390.5 429.9 400 416.2 400 400S390.5 370.1 377 363.1z" class="fa-secondary"/></svg>