<svg xmlns="http://www.w3.org/2000/svg" viewBox="0 0 448 512"><!--! Font Awesome Pro 6.2.0 by @fontawesome - https://fontawesome.com License - https://fontawesome.com/license (Commercial License) Copyright 2022 Fonticons, Inc. --><path d="M416 80C416 106.5 394.5 128 368 128C341.5 128 320 106.5 320 80C320 53.49 341.5 32 368 32C394.5 32 416 53.49 416 80zM112 358.7C102.2 354.4 91.38 352 80 352C68.62 352 57.8 354.4 48 358.7V153.3C57.8 157.6 68.62 160 80 160C91.38 160 102.2 157.6 112 153.3V358.7zM320 240C320 213.5 341.5 192 368 192C394.5 192 416 213.5 416 240C416 266.5 394.5 288 368 288C341.5 288 320 266.5 320 240z" class="fa-secondary"/></svg>