<svg xmlns="http://www.w3.org/2000/svg" viewBox="0 0 448 512"><!--! Font Awesome Pro 6.2.0 by @fontawesome - https://fontawesome.com License - https://fontawesome.com/license (Commercial License) Copyright 2022 Fonticons, Inc. --><path d="M112 192C112 209.7 126.3 224 144 224H304C321.7 224 336 209.7 336 192V153.3C345.8 157.6 356.6 160 368 160C379.4 160 390.2 157.6 400 153.3V192C400 245 357 288 304 288H256V358.7C246.2 354.4 235.4 352 224 352C212.6 352 201.8 354.4 192 358.7V288H144C90.98 288 48 245 48 192V153.3C57.8 157.6 68.62 160 80 160C91.38 160 102.2 157.6 112 153.3V192z" class="fa-secondary"/></svg>