<svg xmlns="http://www.w3.org/2000/svg" viewBox="0 0 512 512"><!--! Font Awesome Pro 6.2.0 by @fontawesome - https://fontawesome.com License - https://fontawesome.com/license (Commercial License) Copyright 2022 Fonticons, Inc. --><path d="M320 64H336C406.7 64 464 121.3 464 192V358.7C454.2 354.4 443.4 352 432 352C420.6 352 409.8 354.4 400 358.7V192C400 156.7 371.3 128 336 128H320V168C320 177.5 314.4 186.1 305.8 189.9C297.1 193.8 286.1 192.2 279.9 185.8L199.9 113.8C194.9 109.3 192 102.8 192 96C192 89.2 194.9 82.71 199.9 78.16L279.9 6.161C286.1-.1791 297.1-1.779 305.8 2.077C314.4 5.933 320 14.52 320 24V64zM48 153.3C57.8 157.6 68.62 160 80 160C91.38 160 102.2 157.6 112 153.3V358.7C102.2 354.4 91.38 352 80 352C68.62 352 57.8 354.4 48 358.7V153.3z" class="fa-secondary"/></svg>