<svg xmlns="http://www.w3.org/2000/svg" viewBox="0 0 448 512"><!--! Font Awesome Pro 6.2.0 by @fontawesome - https://fontawesome.com License - https://fontawesome.com/license (Commercial License) Copyright 2022 Fonticons, Inc. --><path d="M112 241.1C130.8 230.2 152.7 224 176 224H272C307.3 224 336 195.3 336 160V153.3C345.8 157.6 356.6 160 368 160C379.4 160 390.2 157.6 400 153.3V160C400 230.7 342.7 288 272 288H176C140.7 288 112 316.7 112 352V358.7C102.2 354.4 91.38 352 80 352C68.62 352 57.8 354.4 48 358.7V153.3C57.8 157.6 68.62 160 80 160C91.38 160 102.2 157.6 112 153.3V241.1z" class="fa-secondary"/></svg>