<svg xmlns="http://www.w3.org/2000/svg" viewBox="0 0 512 512"><!--! Font Awesome Pro 6.2.0 by @fontawesome - https://fontawesome.com License - https://fontawesome.com/license (Commercial License) Copyright 2022 Fonticons, Inc. --><path d="M432 176h-288C94.67 215.8 64 277.8 64 344.6c0 51.5 18.62 84.74 49.62 117.7C124.5 473.6 139.5 480 155.1 480l265.8 0c15.62 0 30.57-6.192 41.32-17.57C493.2 429.6 512 396.1 512 344.6C512 278.4 481.9 216.3 432 176zM417.1 416H157.9C135.6 391.6 128 373.2 128 344.6C128 328.7 128.8 273.2 189.8 224h197.1C447.1 272.5 448 328.1 448 344.6C448 373.3 440.4 391.7 417.1 416z" class="fa-secondary"/></svg>