<svg xmlns="http://www.w3.org/2000/svg" viewBox="0 0 512 512"><!--! Font Awesome Pro 6.2.0 by @fontawesome - https://fontawesome.com License - https://fontawesome.com/license (Commercial License) Copyright 2022 Fonticons, Inc. --><path d="M357.8 154.6C316.2 137.2 281.7 109.5 256.3 73.74c-7.56-10.66-23.65-7.393-27.49 4.945c-16.03 51.49 9.574 111 51.75 153.3c49.71 49.79 122.2 75.37 179.3 38.76c6.658-4.271 8.305-13.34 4.436-20.37C451.1 226.5 421.1 181.1 357.8 154.6zM455.4 56.02c-50.24-50.33-123.7-75.87-181.1-37.51c-6.617 4.424-8.125 13.59-4.033 20.55c13.28 22.59 43.25 64.26 102.7 89.06c56.53 23.63 88.79 61.24 105.8 86.79c7.42 11.17 23.83 8.473 27.96-4.123C523.7 158.1 498 98.68 455.4 56.02z" class="fa-secondary"/></svg>