<svg xmlns="http://www.w3.org/2000/svg" viewBox="0 0 384 512"><!--! Font Awesome Pro 6.2.0 by @fontawesome - https://fontawesome.com License - https://fontawesome.com/license (Commercial License) Copyright 2022 Fonticons, Inc. --><path d="M288 208C288 216.9 280.9 224 271.1 224H224v112c0 8.875-7.127 16-16.01 16H176C167.1 352 160 344.9 160 336V224H111.9C103 224 95.92 216.9 95.92 208v-32c0-8.875 7.127-16 16.01-16H160V112C160 103.1 167.1 96 176 96h31.99C216.9 96 224 103.1 224 112V160h47.99C280.9 160 288 167.1 288 176V208z" class="fa-secondary"/></svg>