<svg xmlns="http://www.w3.org/2000/svg" viewBox="0 0 384 512"><!--! Font Awesome Pro 6.2.0 by @fontawesome - https://fontawesome.com License - https://fontawesome.com/license (Commercial License) Copyright 2022 Fonticons, Inc. --><path d="M200 256C200 344.4 171.3 416 136 416C100.7 416 72 344.4 72 256C72 167.6 100.7 96 136 96C171.3 96 200 167.6 200 256zM0 256C0 114.6 64.47 0 144 0C223.5 0 288 114.6 288 256C288 397.4 223.5 512 144 512C64.47 512 0 397.4 0 256zM136 448C156.5 448 172.7 437.5 184.2 425.4C195.5 413.4 204.3 397.7 210.1 381C224.4 347.4 232 303.2 232 256C232 208.8 224.4 164.6 210.1 130.1C204.3 114.3 195.5 98.6 184.2 86.59C172.7 74.5 156.5 64 136 64C115.5 64 99.27 74.5 87.84 86.59C76.48 98.6 67.72 114.3 61.03 130.1C47.6 164.6 40 208.8 40 256C40 303.2 47.6 347.4 61.03 381C67.72 397.7 76.48 413.4 87.84 425.4C99.26 437.5 115.5 448 136 448z" class="fa-secondary"/></svg>