<svg xmlns="http://www.w3.org/2000/svg" viewBox="0 0 512 512"><!--! Font Awesome Pro 6.2.0 by @fontawesome - https://fontawesome.com License - https://fontawesome.com/license (Commercial License) Copyright 2022 Fonticons, Inc. --><path d="M256 264C167.6 264 96 235.3 96 200C96 164.7 167.6 136 256 136C344.4 136 416 164.7 416 200C416 235.3 344.4 264 256 264zM256 64C397.4 64 512 128.5 512 208C512 287.5 397.4 352 256 352C114.6 352 0 287.5 0 208C0 128.5 114.6 64 256 64V64zM64 200C64 220.5 74.5 236.7 86.59 248.2C98.6 259.5 114.3 268.3 130.1 274.1C164.6 288.4 208.8 296 256 296C303.2 296 347.4 288.4 381 274.1C397.7 268.3 413.4 259.5 425.4 248.2C437.5 236.7 448 220.5 448 200C448 179.5 437.5 163.3 425.4 151.8C413.4 140.5 397.7 131.7 381 125C347.4 111.6 303.2 104 255.1 104C208.8 104 164.6 111.6 130.1 125C114.3 131.7 98.6 140.5 86.59 151.8C74.5 163.3 63.1 179.5 63.1 200H64z" class="fa-secondary"/></svg>