<svg xmlns="http://www.w3.org/2000/svg" viewBox="0 0 320 512"><!--! Font Awesome Pro 6.2.0 by @fontawesome - https://fontawesome.com License - https://fontawesome.com/license (Commercial License) Copyright 2022 Fonticons, Inc. --><path d="M216.6 65.56C208.5 64.53 200.3 64 192 64C177.5 64 163.4 65.6 149.9 68.64L160.1 24.24C165.2 7.093 182.6-3.331 199.8 .9552C216.9 5.242 227.3 22.62 223 39.76L216.6 65.56zM139.8 372.9C117.5 362.9 98.67 346.8 85.32 326.8L131.2 143.3C149.3 133.6 169.1 128 192 128C194.1 128 197.1 128.1 200.9 128.3L139.8 372.9zM167.6 381.7L229.6 133.6C243.9 137.1 257.1 144.8 268.8 153.6C274.8 158.1 281.1 160.2 288.1 159.1L234.8 376.7C221.4 381.4 207 384 192 384C183.7 384 175.5 383.2 167.6 381.7V381.7zM111 487.8C106.8 504.9 89.38 515.3 72.24 511C55.09 506.8 44.67 489.4 48.96 472.2L66.65 401.4C83.5 415.1 102.9 427.6 124.1 435.6L111 487.8zM152.1 443.8C164.9 446.6 178.3 448 192 448C200.6 448 209.1 447.4 217.4 446.3L207 487.8C202.8 504.9 185.4 515.3 168.2 511C151.1 506.8 140.7 489.4 144.1 472.2L152.1 443.8zM303.1 100C286.4 87.36 266.5 77.61 245.1 71.46L256.1 24.24C261.2 7.093 278.6-3.331 295.8 .9552C312.9 5.242 323.3 22.62 319 39.76L303.1 100z" class="fa-secondary"/></svg>