<svg xmlns="http://www.w3.org/2000/svg" viewBox="0 0 640 512"><!--! Font Awesome Pro 6.2.0 by @fontawesome - https://fontawesome.com License - https://fontawesome.com/license (Commercial License) Copyright 2022 Fonticons, Inc. --><path d="M208 0C93.13 0 0 78.8 0 176c0 39.57 15.62 75.96 41.67 105.4c-16.39 32.76-39.23 57.32-39.59 57.68c-2.1 2.205-2.67 5.475-1.441 8.354C1.9 350.3 4.602 352 7.66 352c38.35 0 70.76-11.12 95.74-24.04C134.2 343.1 169.8 352 208 352c114.9 0 208-78.8 208-176C416 78.8 322.9 0 208 0zM208.5 288C194.7 288 184 277.3 184 263.5c0-13.77 10.71-24.47 24.47-24.47c13.77 0 24.47 10.71 24.47 24.47C232.9 277.3 222.2 288 208.5 288zM261.1 171.4L226.8 192.8v1.529c0 9.941-8.412 18.35-18.35 18.35S190.1 204.3 190.1 194.4V182.1c0-6.117 3.059-12.23 9.176-16.06l43.59-26C248.2 137 251.3 131.6 251.3 125.5c0-9.178-7.648-16.82-16.82-16.82H194.7c-9.178 0-16.82 7.646-16.82 16.82c0 9.941-8.412 18.35-18.35 18.35c-9.941 0-18.35-8.412-18.35-18.35C141.2 95.71 164.9 72 194.7 72h39.76C264.3 72 288 95.71 288 125.5C288 143.9 278.1 161.5 261.1 171.4z" class="fa-secondary"/></svg>