<svg xmlns="http://www.w3.org/2000/svg" viewBox="0 0 640 512"><!--! Font Awesome Pro 6.2.0 by @fontawesome - https://fontawesome.com License - https://fontawesome.com/license (Commercial License) Copyright 2022 Fonticons, Inc. --><path d="M64.03 239.1c0 49.59 21.38 94.1 56.97 130.7c-12.5 50.39-54.31 95.3-54.81 95.8c-2.187 2.297-2.781 5.703-1.5 8.703c1.312 2.1 4.125 4.797 7.312 4.797c66.31 0 116-31.8 140.6-51.41c32.72 12.31 69.02 19.41 107.4 19.41c37.39 0 72.78-6.665 104.8-18.36L82.93 161.7C70.81 185.9 64.03 212.3 64.03 239.1zM320 32c-67.74 0-129.1 21.58-174.9 56.47l367.5 288.1C551.1 339.1 576 292.4 576 240C576 125.1 461.4 32 320 32z" class="fa-secondary"/></svg>