<svg xmlns="http://www.w3.org/2000/svg" viewBox="0 0 640 512"><!--! Font Awesome Pro 6.2.0 by @fontawesome - https://fontawesome.com License - https://fontawesome.com/license (Commercial License) Copyright 2022 Fonticons, Inc. --><path d="M208 0C93.13 0 0 78.8 0 176c0 39.57 15.62 75.96 41.67 105.4c-16.39 32.76-39.23 57.32-39.59 57.68c-2.1 2.205-2.67 5.475-1.441 8.354C1.9 350.3 4.602 352 7.66 352c38.35 0 70.76-11.12 95.74-24.04C134.2 343.1 169.8 352 208 352c114.9 0 208-78.8 208-176C416 78.8 322.9 0 208 0zM269.8 218.3C266.2 239.2 250.4 252.1 228 257.7V268c0 11.03-8.953 20-20 20s-20-8.969-20-20V257.2c-8.682-1.922-17.3-4.723-25.06-7.512l-4.266-1.5C148.3 244.5 142.8 233.1 146.5 222.7c3.688-10.41 15.11-15.81 25.52-12.22l4.469 1.625c7.844 2.812 16.72 6 23.66 7.031C213.8 221.3 229 219.3 230.4 211.5C231.3 206.4 231.8 203.6 202.5 195.2L196.7 193.5c-17.33-5.094-57.92-17-50.52-59.84C149.8 112.8 165.6 98.76 188 93.99V84c0-11.03 8.953-20 20-20s20 8.969 20 20v10.63c5.453 1.195 11.34 2.789 18.56 5.273C257 103.5 262.5 114.9 258.9 125.4C255.3 135.8 243.8 141.3 233.4 137.7c-5.859-2.031-12-4-17.59-4.844C202.2 130.8 186.1 132.7 185.6 140.5C184.8 144.1 184.3 148.2 207.1 155.2L213.5 156.8C235.8 163.1 277.3 175 269.8 218.3z" class="fa-secondary"/></svg>