<svg xmlns="http://www.w3.org/2000/svg" viewBox="0 0 512 512"><!--! Font Awesome Pro 6.2.0 by @fontawesome - https://fontawesome.com License - https://fontawesome.com/license (Commercial License) Copyright 2022 Fonticons, Inc. --><path d="M256 0C114.6 0 0 114.6 0 256c0 141.4 114.6 256 256 256s256-114.6 256-256C512 114.6 397.4 0 256 0zM96.15 241.4C95.4 249.6 88.77 256 80.72 256H79.63C70.55 256 63.23 247.1 64.06 238.7c8.299-92.64 82.43-166.6 175.2-174.6C248.3 63.28 256 70.74 256 80.09c0 8.348-6.215 15.27-14.27 15.99C164.7 102.9 103.1 164.3 96.15 241.4zM256 351.1c-53.02 0-96-43-96-95.1s42.98-96 96-96s96 43 96 96S309 351.1 256 351.1z" class="fa-secondary"/></svg>