<svg xmlns="http://www.w3.org/2000/svg" viewBox="0 0 640 512"><!--! Font Awesome Pro 6.2.0 by @fontawesome - https://fontawesome.com License - https://fontawesome.com/license (Commercial License) Copyright 2022 Fonticons, Inc. --><path d="M397.1 285.9L444.6 162.4C452.1 142.1 433 123.9 413.6 131.4L270.3 186.5L134.2 79.88C180.9 30.68 246.8 0 320 0C461.4 0 576 114.6 576 256C576 306.1 561.1 354.5 535.4 394.4L397.1 285.9zM64 256C64 222.4 70.49 190.2 82.28 160.8L224.8 273.1L195.4 349.6C187.9 369 206.1 388.1 226.4 380.6L317 345.8L468.1 464.8C426.3 494.5 375.2 512 320 512C178.6 512 64 397.4 64 255.1V256z" class="fa-secondary"/></svg>