<svg xmlns="http://www.w3.org/2000/svg" viewBox="0 0 640 512"><!--! Font Awesome Pro 6.2.0 by @fontawesome - https://fontawesome.com License - https://fontawesome.com/license (Commercial License) Copyright 2022 Fonticons, Inc. --><path d="M544 320h-448c-54.4 0-96 41.6-96 96s41.6 96 96 96h448c54.4 0 96-41.6 96-96S598.4 320 544 320zM128 448c-19.2 0-32-12.8-32-32s12.8-32 32-32s31.1 12.8 31.1 32S147.2 448 128 448zM319.1 448c-19.2 0-32-12.8-32-32s12.8-32 32-32s32 12.8 32 32S339.2 448 319.1 448zM512 448c-19.2 0-32-12.8-32-32S492.8 384 512 384s32 12.8 32 32S531.2 448 512 448zM384 128V0H256v128l64-32L384 128z" class="fa-secondary"/></svg>