<svg xmlns="http://www.w3.org/2000/svg" viewBox="0 0 640 512"><!--! Font Awesome Pro 6.2.0 by @fontawesome - https://fontawesome.com License - https://fontawesome.com/license (Commercial License) Copyright 2022 Fonticons, Inc. --><path d="M96 115.2C83.2 121.6 73.6 134.4 70.4 153.6V256c0 35.2-28.8 64-64 64H0V288c0-19.2 9.6-38.4 25.6-48V153.6C25.6 102.4 64 64 112 64H160C131.2 64 102.4 86.4 96 115.2zM332.8 300.8C320 281.6 294.4 272 272 272C224 272 195.2 313.6 192 348.8V352c9.6 9.6 19.2 16 32 22.4V400C224 409.6 230.4 416 240 416S256 409.6 256 400V384c9.6 0 12.8 3.2 32 0L288 400C288 409.6 294.4 416 304 416s16-6.4 16-16v-25.6C332.8 368 342.4 361.6 352 352C352 332.8 345.6 316.8 332.8 300.8z" class="fa-secondary"/></svg>