<svg xmlns="http://www.w3.org/2000/svg" viewBox="0 0 576 512"><!--! Font Awesome Pro 6.2.0 by @fontawesome - https://fontawesome.com License - https://fontawesome.com/license (Commercial License) Copyright 2022 Fonticons, Inc. --><path d="M127.1 40C127.1 17.91 145.9 0 167.1 0H279.1C302.1 0 320 17.91 320 40V96H336C357.4 96 376.3 110.2 382.2 130.8L400.4 194.8C318.3 209.7 255.1 281.6 255.1 368C255.1 384.6 258.3 400.7 262.6 416H47.1C32.94 416 18.75 408.9 9.679 396.9C.6086 384.9-2.291 369.3 1.847 354.8L65.85 130.8C71.73 110.2 90.57 96 112 96H128L127.1 40zM175.1 96H271.1V48H175.1V96zM275.2 448C278.3 454.1 281.8 459.1 285.5 465.6C277.9 492.4 253.2 512 223.1 512C188.7 512 159.1 483.3 159.1 448H275.2z" class="fa-secondary"/></svg>