<svg xmlns="http://www.w3.org/2000/svg" viewBox="0 0 512 512"><!--! Font Awesome Pro 6.2.0 by @fontawesome - https://fontawesome.com License - https://fontawesome.com/license (Commercial License) Copyright 2022 Fonticons, Inc. --><path d="M208 128C199.2 128 192 135.2 192 144l.001 49.17C196.1 192.8 200.2 192 204.4 192h19.7L224 144C224 135.2 216.8 128 208 128zM48 304h26.58c1.674-11.23 4.984-21.89 9.33-32H51.78L23.16 257.7c-7.906-3.891-17.5-.7656-21.47 7.156C-2.25 272.8 .9375 282.4 8.844 286.3l32 16C43.06 303.4 45.53 304 48 304zM172.1 437.3l-5.516-5.516l-30.85 18.51C130.9 453.2 128 458.4 128 464v32C128 504.8 135.2 512 144 512S160 504.8 160 496v-22.94L201.8 448H198.1C188.4 448 179 444.1 172.1 437.3zM93.79 358.9l-9.939-9.939c-4.799-4.799-7.477-10.96-9.041-17.46l-15.88 5.291c-2.344 .7813-4.5 2.109-6.25 3.859l-32 32c-6.25 6.25-6.25 16.38 0 22.62C23.81 398.4 27.91 400 32 400s8.188-1.562 11.31-4.688l29.34-29.33L93.79 358.9zM124.5 389.6l-33.56 11.19c-2.344 .7813-4.5 2.109-6.25 3.859l-32 32c-6.25 6.25-6.25 16.38 0 22.62C55.81 462.4 59.91 464 64 464s8.188-1.562 11.31-4.688l29.34-29.33l45.14-15.05L124.5 389.6zM345.4 431.8l-5.516 5.516C332.1 444.1 323.7 448 313.1 448h-3.752L352 473.1V496c0 8.844 7.156 16 16 16s16-7.156 16-16v-32c0-5.625-2.938-10.83-7.781-13.72L345.4 431.8zM320 144C320 135.2 312.8 128 304 128S288 135.2 288 144V192h19.72c4.18 0 8.202 .7808 12.28 1.167L320 144zM459.3 340.7c-1.75-1.75-3.906-3.078-6.25-3.859l-15.88-5.291c-1.564 6.494-4.242 12.66-9.041 17.46l-9.939 9.939l21.14 7.049l29.34 29.33C471.8 398.4 475.9 400 480 400s8.188-1.562 11.31-4.688c6.25-6.25 6.25-16.38 0-22.62L459.3 340.7zM510.3 264.8c-3.969-7.922-13.53-11.08-21.47-7.156L460.2 272h-32.13c4.346 10.11 7.656 20.77 9.33 32H464c2.469 0 4.938-.5781 7.156-1.688l32-16C511.1 282.4 514.3 272.8 510.3 264.8zM427.3 404.7c-1.75-1.75-3.906-3.078-6.25-3.859l-33.56-11.19l-25.29 25.29l45.13 15.05l29.34 29.33C439.8 462.4 443.9 464 448 464s8.188-1.562 11.31-4.688c6.25-6.25 6.25-16.38 0-22.62L427.3 404.7z" class="fa-secondary"/></svg>