<svg xmlns="http://www.w3.org/2000/svg" viewBox="0 0 512 512"><!--! Font Awesome Pro 6.2.0 by @fontawesome - https://fontawesome.com License - https://fontawesome.com/license (Commercial License) Copyright 2022 Fonticons, Inc. --><path d="M424.1 80.63c-18.13-3-51.88 6.125-72.5 17.62c-17-9.5-42.38-16.87-61.13-17.75c1.875 2.25 3.875 4.125 5.5 6.625c20.88 30.12 25.75 72.25 22.25 104.9h159.7C483.3 152.5 472.9 89.38 424.1 80.63zM210.5 50.5c11.38-12.25 14.5-32 13.25-50.25c-12.88-.875-35.63-.125-50 13.25C157.3 30.13 160 59.88 160.5 63.75C179 65 198.3 61.88 210.5 50.5zM402.3 50.5c11.25-12.25 14.38-32 13.25-50.25c-13-.875-35.75-.125-50.13 13.25c-16.5 16.62-13.75 46.38-13.12 50.25C370.6 65 389.1 61.88 402.3 50.5zM232.5 80.63C214.4 77.63 180.6 86.8 160 98.3c-20.62-11.5-54.38-20.67-72.5-17.67C38.88 89.38 28.46 152.9 33.71 192h252.6C291.5 152.5 281.1 89.38 232.5 80.63z" class="fa-secondary"/></svg>