<svg xmlns="http://www.w3.org/2000/svg" viewBox="0 0 576 512"><!--! Font Awesome Pro 6.2.0 by @fontawesome - https://fontawesome.com License - https://fontawesome.com/license (Commercial License) Copyright 2022 Fonticons, Inc. --><path d="M464 288C472.8 288 480 295.2 480 304C480 312.8 472.8 320 464 320H112C103.2 320 96 312.8 96 304C96 295.2 103.2 288 112 288H464zM96 368C96 359.2 103.2 352 112 352H176C184.8 352 192 359.2 192 368C192 376.8 184.8 384 176 384H112C103.2 384 96 376.8 96 368zM224 368C224 359.2 231.2 352 240 352H368C376.8 352 384 359.2 384 368C384 376.8 376.8 384 368 384H240C231.2 384 224 376.8 224 368z" class="fa-secondary"/></svg>