<svg xmlns="http://www.w3.org/2000/svg" viewBox="0 0 512 512"><!--! Font Awesome Pro 6.2.0 by @fontawesome - https://fontawesome.com License - https://fontawesome.com/license (Commercial License) Copyright 2022 Fonticons, Inc. --><path d="M13.95 266.5c-3.193 0-6.385-3.204-9.578-3.204c-12.77 60.87 3.193 124.9 38.31 172.1C49.07 442.7 58.64 449.1 65.03 449.1h3.193c6.385 0 12.77-3.204 19.16-6.407l121.3-96.11c6.385-3.204 9.578-9.611 9.578-16.02L13.95 266.5zM448.1 67.89c0-9.611-6.385-16.02-12.77-22.43c-47.89-38.44-111.7-51.26-172.4-38.44c0 3.204 3.193 6.407 3.193 9.611l63.85 208.2c6.385-3.204 12.77-6.407 15.96-9.611l95.78-121.7C448.1 83.91 448.1 74.3 448.1 67.89z" class="fa-secondary"/></svg>