<svg xmlns="http://www.w3.org/2000/svg" viewBox="0 0 512 512"><!--! Font Awesome Pro 6.2.0 by @fontawesome - https://fontawesome.com License - https://fontawesome.com/license (Commercial License) Copyright 2022 Fonticons, Inc. --><path d="M457.4 9.372C469.9-3.124 490.1-3.124 502.6 9.372C515.1 21.87 515.1 42.13 502.6 54.63L445.8 111.4C439.9 89.4 422.6 72.06 400.6 66.17L457.4 9.372zM384 128V173.3L173.3 384H352V448H128C92.65 448 64 419.3 64 384V32C64 14.33 78.33 0 96 0C113.7 0 128 14.33 128 32V338.7L338.7 128H384zM448 384H480C497.7 384 512 398.3 512 416C512 433.7 497.7 448 480 448H448V384z" class="fa-secondary"/></svg>