<svg xmlns="http://www.w3.org/2000/svg" viewBox="0 0 512 512"><!--! Font Awesome Pro 6.2.0 by @fontawesome - https://fontawesome.com License - https://fontawesome.com/license (Commercial License) Copyright 2022 Fonticons, Inc. --><path d="M42.35 224C56.27 130.3 130.3 56.27 224 42.36V107.4C165.7 119.9 119.9 165.7 107.4 224H42.35zM107.4 288C119.9 346.3 165.7 392.1 224 404.6V469.6C130.3 455.7 56.27 381.7 42.35 288H107.4zM288 469.6V404.6C346.3 392.1 392.1 346.3 404.6 288H469.6C455.7 381.7 381.7 455.7 288 469.6V469.6zM404.6 224C392.1 165.7 346.3 119.9 288 107.4V42.36C381.7 56.27 455.7 130.3 469.6 224H404.6z" class="fa-secondary"/></svg>