<svg xmlns="http://www.w3.org/2000/svg" viewBox="0 0 640 512"><!--! Font Awesome Pro 6.2.0 by @fontawesome - https://fontawesome.com License - https://fontawesome.com/license (Commercial License) Copyright 2022 Fonticons, Inc. --><path d="M544 120V88C544 66.73 536.5 47.22 523.9 32H574C603.4 32 628.1 51.99 636.1 80.48L640 96L544 120zM355.2 383.1C372.2 383.7 388.6 381.2 404.2 376.8L446.2 478.9C451.2 491.1 445.4 505.1 433.1 510.2C420.9 515.2 406.9 509.4 401.8 497.1L355.2 383.1zM259.2 384H311.1L350.2 478.9C355.2 491.1 349.4 505.1 337.1 510.2C324.9 515.2 310.9 509.4 305.8 497.1L259.2 384z" class="fa-secondary"/></svg>