<svg xmlns="http://www.w3.org/2000/svg" viewBox="0 0 576 512"><!--! Font Awesome Pro 6.2.0 by @fontawesome - https://fontawesome.com License - https://fontawesome.com/license (Commercial License) Copyright 2022 Fonticons, Inc. --><path d="M288 32C265.9 32 247.1 49.91 247.1 72s17.91 40 40 40s40-17.91 40-40S310.1 32 288 32zM39.1 96c-22.09 0-40 17.91-40 40s17.91 40 40 40s40-17.91 40-40S62.09 96 39.1 96zM536 96c-22.09 0-40 17.91-40 40s17.91 40 40 40S576 158.1 576 136S558.1 96 536 96z" class="fa-secondary"/></svg>