<svg xmlns="http://www.w3.org/2000/svg" viewBox="0 0 640 512"><!--! Font Awesome Pro 6.2.0 by @fontawesome - https://fontawesome.com License - https://fontawesome.com/license (Commercial License) Copyright 2022 Fonticons, Inc. --><path d="M214.6 55.02c6.28-6.278 9.418-14.54 9.418-22.79C223.1 6.952 200.9 0 191.8 0C183.5 0 175.3 3.149 168.1 9.442L9.429 168.1C3.144 175.3 .0001 183.5 .0001 191.7c0 8.209 3.121 16.42 9.366 22.7c6.292 6.327 14.62 9.553 22.89 9.553c8.238 0 16.48-3.142 22.76-9.428l.5742-.5734l131.2 131.3c2.963 2.934 6.648 4.918 9.951 7.437l15.45-15.45l10.71-46.64L100.9 168.7L168.7 100.9l85.84 85.83C259.6 178.7 265.3 171 272.1 164.2l25.29-25.25L213.1 55.61L214.6 55.02zM222.9 290.7L222.9 290.7L222.9 290.7zM639.1 191.7c0-8.239-3.144-16.48-9.428-22.76l-159.6-159.5C464.7 3.149 456.5 0 448.2 0c-9.229 0-32.21 7.171-32.21 32.23c0 8.255 3.138 16.51 9.418 22.79l159.6 159.5c6.287 6.286 14.53 9.428 22.76 9.428c8.267 0 16.53-3.163 22.83-9.49C636.8 208.2 639.1 199.1 639.1 191.7zM438.6 393.4c-7.879 3.621-16.01 6.738-24.58 8.758l-46.44 10.72l94.49 94.49C465.2 510.4 469.3 512 473.4 512c4.094 0 8.188-1.562 11.31-4.687l22.63-22.62c3.125-3.125 4.687-7.219 4.687-11.31c0-4.094-1.563-8.187-4.688-11.31L438.6 393.4z" class="fa-secondary"/></svg>