<svg xmlns="http://www.w3.org/2000/svg" viewBox="0 0 384 512"><!--! Font Awesome Pro 6.2.0 by @fontawesome - https://fontawesome.com License - https://fontawesome.com/license (Commercial License) Copyright 2022 Fonticons, Inc. --><path d="M160 402.7V256C160 238.3 174.3 224 192 224C199.7 224 206.8 226.7 212.3 231.3C223 226.6 234.8 224 247.3 224C264.5 224 281.3 229.1 295.7 238.7L305.8 245.4C320.5 255.2 324.4 275 314.6 289.8C304.8 304.5 284.1 308.4 270.2 298.6L260.2 291.9C256.4 289.4 251.9 288 247.3 288C234.4 288 224 298.4 224 311.3V416C201.2 416 179.6 411.2 160 402.7z" class="fa-secondary"/></svg>