<svg xmlns="http://www.w3.org/2000/svg" viewBox="0 0 576 512"><!--! Font Awesome Pro 6.2.0 by @fontawesome - https://fontawesome.com License - https://fontawesome.com/license (Commercial License) Copyright 2022 Fonticons, Inc. --><path d="M264 151.7V240.9L184 210.6V121L264 151.7zM392 210.6L312 240.9V151.7L392 121V210.6zM256 419.1L176 454.3V353.9L256 323.2V419.1zM48 323.2L128 353.9V454.3L52.78 421.2C49.88 419.9 48 417.1 48 413.9V323.2zM528 323.2V413.9C528 417.1 526.1 419.9 523.2 421.2L448 454.3V353.9L528 323.2zM320 419.1V323.2L400 353.9V454.3L320 419.1z" class="fa-secondary"/></svg>