<svg xmlns="http://www.w3.org/2000/svg" viewBox="0 0 512 512"><!--! Font Awesome Pro 6.2.0 by @fontawesome - https://fontawesome.com License - https://fontawesome.com/license (Commercial License) Copyright 2022 Fonticons, Inc. --><path d="M304.1 251.1c-11.04 0-20.01 8.969-20.01 20s8.972 20 20.01 20c11.04 0 20.01-8.969 20.01-20S315.2 251.1 304.1 251.1zM400.2 91.99c-11.04 0-20.01 8.969-20.01 20s8.972 20 20.01 20c11.04 0 20.01-8.969 20.01-20S411.2 91.99 400.2 91.99zM144.1 283.1c-11.04 0-20.01 8.969-20.01 20s8.972 20 20.01 20s20.01-8.969 20.01-20S155.1 283.1 144.1 283.1z" class="fa-secondary"/></svg>