<svg xmlns="http://www.w3.org/2000/svg" viewBox="0 0 576 512"><!--! Font Awesome Pro 6.2.0 by @fontawesome - https://fontawesome.com License - https://fontawesome.com/license (Commercial License) Copyright 2022 Fonticons, Inc. --><path d="M272 .0003C280.8 .0003 288 7.164 288 16V40C288 53.26 298.7 64 312 64H328C341.3 64 352 53.26 352 40V16C352 7.164 359.2 .0003 368 .0003C376.8 .0003 384 7.164 384 16V40C384 48.59 382.1 56.73 378.6 64H384C392.8 64 400 71.16 400 80C400 88.84 392.8 96 384 96H312C281.1 96 256 70.93 256 40V16C256 7.164 263.2 .0003 272 .0003zM488 .0003C496.8 .0003 504 7.164 504 16V40C504 61.66 491.7 80.44 473.7 89.76C460.3 76.1 443.5 68.58 425.4 65.41C427.4 64.5 429.7 64 432 64H448C461.3 64 472 53.25 472 40V16C472 7.164 479.2 0 488 0V.0003z" class="fa-secondary"/></svg>