<svg xmlns="http://www.w3.org/2000/svg" viewBox="0 0 576 512"><!--! Font Awesome Pro 6.2.0 by @fontawesome - https://fontawesome.com License - https://fontawesome.com/license (Commercial License) Copyright 2022 Fonticons, Inc. --><path d="M256 40C256 53.26 266.7 64 280 64H296C309.3 64 320 53.26 320 40V16C320 7.164 327.2 .0003 336 .0003C344.8 .0003 352 7.164 352 16V40C352 48.59 350.1 56.73 346.6 64H352C360.8 64 368 71.16 368 80C368 88.84 360.8 96 352 96H280C249.1 96 224 70.93 224 40V16C224 7.164 231.2 .0003 240 .0003C248.8 .0003 256 7.164 256 16V40zM472 40C472 61.66 459.7 80.44 441.7 89.76C428.3 76.1 411.5 68.58 393.4 65.41C395.4 64.5 397.7 64 400 64H416C429.3 64 440 53.25 440 40V16C440 7.164 447.2 0 456 0C464.8 0 472 7.164 472 16V40zM480 136C480 113.9 497.9 96 520 96C542.1 96 560 113.9 560 136C560 158.1 542.1 176 520 176C497.9 176 480 158.1 480 136z" class="fa-secondary"/></svg>