<svg xmlns="http://www.w3.org/2000/svg" viewBox="0 0 640 512"><!--! Font Awesome Pro 6.2.0 by @fontawesome - https://fontawesome.com License - https://fontawesome.com/license (Commercial License) Copyright 2022 Fonticons, Inc. --><path d="M192 256C192 194.1 216.4 139.6 256 99.21C279.7 104 301.4 114 320 127.1C281.1 157.2 256 203.7 256 256C256 308.3 281.1 354.8 320 384C301.4 397.1 279.7 407.1 256 412.8C216.4 372.4 192 317 192 256V256zM383.1 412.8C423.6 372.4 448 317 448 256C448 194.1 423.6 139.6 383.1 99.21C375.4 90.42 366 82.35 356.1 75.07C355.6 74.72 355.1 74.37 354.6 74.02C343.8 66.21 332.2 59.35 319.1 53.56C349.1 39.73 381.6 32 416 32C539.7 32 640 132.3 640 256C640 379.7 539.7 480 416 480C381.6 480 349.1 472.3 319.1 458.4C332.2 452.7 343.8 445.8 354.6 437.1C365.1 430.4 374.9 422 383.1 412.8H383.1z" class="fa-secondary"/></svg>