<svg xmlns="http://www.w3.org/2000/svg" viewBox="0 0 512 512"><!--! Font Awesome Pro 6.2.0 by @fontawesome - https://fontawesome.com License - https://fontawesome.com/license (Commercial License) Copyright 2022 Fonticons, Inc. --><path d="M196.6 18.66c0-4.301-3.683-8.022-8.003-8.022c-1.308 0-2.675 .3411-4.015 1.11L33.81 110.3C32.6 111.1 31.1 112.4 31.1 113.7c0 1.33 .6488 2.653 1.938 3.417L115.5 165.8l79.94-142.9C196.3 21.48 196.6 20.04 196.6 18.66zM255.1 0C250.7 0 245.5 2.532 242.4 7.624L146.8 175.1h218.4l-95.59-168.4C266.5 2.532 261.2 0 255.1 0zM479.1 113.7c0-1.277-.6019-2.555-1.813-3.353l-150.8-98.59c-1.34-.7693-2.707-1.11-4.015-1.11c-4.32 0-8.003 3.721-8.003 8.022c0 1.379 .3788 2.818 1.237 4.214l79.94 142.9l81.53-48.69C479.3 116.3 479.1 115 479.1 113.7z" class="fa-secondary"/></svg>