<svg xmlns="http://www.w3.org/2000/svg" viewBox="0 0 512 512"><!--! Font Awesome Pro 6.2.0 by @fontawesome - https://fontawesome.com License - https://fontawesome.com/license (Commercial License) Copyright 2022 Fonticons, Inc. --><path d="M231.3 0c4.217 0 8.263 3.331 8.263 8.365v324.3L5.461 247.6C1.968 246.3 0 243 0 239.7c0-2.075 .7542-4.175 2.367-5.836L225.5 2.521C227.2 .779 229.3 0 231.3 0zM512 239.7c0 3.355-1.968 6.651-5.461 7.944l-234.1 85.03V8.396c0-5.057 4.049-8.395 8.268-8.395c2.038 0 4.116 .7791 5.795 2.52l223.2 231.3C511.2 235.5 512 237.6 512 239.7z" class="fa-secondary"/></svg>