<svg xmlns="http://www.w3.org/2000/svg" viewBox="0 0 640 512"><!--! Font Awesome Pro 6.2.0 by @fontawesome - https://fontawesome.com License - https://fontawesome.com/license (Commercial License) Copyright 2022 Fonticons, Inc. --><path d="M447.1 224c0-12.56-4.782-25.13-14.35-34.76l-174.9-174.9C249.1 4.784 236.5 0 223.1 0C211.4 0 198.9 4.784 189.2 14.35L14.35 189.2C4.784 198.9-.0011 211.4-.0011 223.1c0 12.56 4.786 25.18 14.35 34.8l174.9 174.9c9.626 9.563 22.19 14.35 34.75 14.35c12.56 0 25.13-4.782 34.75-14.35l174.9-174.9C443.2 249.1 447.1 236.6 447.1 224zM96 248c-13.25 0-23.1-10.75-23.1-23.1s10.75-23.1 23.1-23.1s23.1 10.75 23.1 23.1S109.3 248 96 248zM224 376c-13.25 0-23.1-10.75-23.1-23.1s10.75-23.1 23.1-23.1c13.25 0 23.1 10.75 23.1 23.1S237.3 376 224 376zM224 248c-13.25 0-23.1-10.75-23.1-23.1s10.75-23.1 23.1-23.1s23.1 10.75 23.1 23.1S237.3 248 224 248zM224 120c-13.25 0-23.1-10.75-23.1-23.1s10.75-23.1 23.1-23.1c13.25 0 23.1 10.75 23.1 23.1S237.3 120 224 120zM352 248c-13.25 0-23.1-10.75-23.1-23.1s10.75-23.1 23.1-23.1s23.1 10.75 23.1 23.1S365.3 248 352 248z" class="fa-secondary"/></svg>