<svg xmlns="http://www.w3.org/2000/svg" viewBox="0 0 512 512"><!--! Font Awesome Pro 6.2.0 by @fontawesome - https://fontawesome.com License - https://fontawesome.com/license (Commercial License) Copyright 2022 Fonticons, Inc. --><path d="M209.7 12.55c0-5.014-4.216-8.716-8.618-8.716c-2.225 0-4.497 .9458-6.297 3.146L3 240.9C1.571 242.6 .9414 244.6 .9414 246.5c0 4.605 3.545 8.914 8.385 8.914c.5724 0 1.163-.0603 1.768-.1875l130.4-27.25l67.78-212.5C209.6 14.49 209.7 13.5 209.7 12.55zM256 0C252.6 0 249.3 2.016 247.1 6.047L174.6 236.1l81.44 56.72l81.44-56.72l-73.41-230.1C262.8 2.016 259.4 0 256 0zM502.6 255.5c4.854 0 8.414-4.323 8.414-8.938c0-1.942-.6301-3.935-2.059-5.681l-191.8-233.9c-1.799-2.2-4.072-3.146-6.297-3.146c-4.411 0-8.639 3.715-8.639 8.742c0 .9379 .1472 1.922 .4678 2.935l67.81 212.5l130.4 27.25C501.5 255.4 502.1 255.5 502.6 255.5z" class="fa-secondary"/></svg>