<svg xmlns="http://www.w3.org/2000/svg" viewBox="0 0 448 512"><!--! Font Awesome Pro 6.2.0 by @fontawesome - https://fontawesome.com License - https://fontawesome.com/license (Commercial License) Copyright 2022 Fonticons, Inc. --><path d="M.1349 17.99c-.084-.666-.1017-1.226-.0997-1.898c.0273-8.838 7.228-15.99 16.06-15.96L48.36 .001C56.37-.0537 63.21 5.884 64.33 13.81C65.06 18.55 66.03 24.32 67.58 31h312.7C376.3 48.1 368.8 70.86 354.8 96L92.94 96C104.1 117.5 119.8 137.4 136.9 155.1c23.82 24.7 53.26 46.19 86.97 64.56C219.2 222.3 214.6 224.9 209.6 227.4C192 236.1 175.7 245.8 160.1 256.1C133.4 238.6 109.4 219.1 88.8 197.5c-25.88-27.02-47.16-58.1-62.99-92C8.805 68.78 2.475 36.81 .1349 17.99zM422 406.6c-15.96-33.97-37.4-65.09-63.44-92.12C349.1 304.5 339.2 295.2 328.7 286.4c-18.68 13.15-38.23 24.93-58.48 35.49c5.686 4.232 11.13 8.681 16.45 13.16H161c-18.66 15.78-33.95 32.02-46.16 48h217.9c11.36 14.78 21.17 30.68 29.28 47.47c10.44 21.4 17.73 44.19 21.4 67.71c1.166 7.902 7.979 13.82 15.97 13.82l32.46-.0625C440.7 512 447.9 504.1 447.1 496.1c.0039-.707-.089-1.353-.1769-2.053C445.5 475.2 439.2 443.3 422 406.6z" class="fa-secondary"/></svg>