<svg xmlns="http://www.w3.org/2000/svg" viewBox="0 0 576 512"><!--! Font Awesome Pro 6.2.0 by @fontawesome - https://fontawesome.com License - https://fontawesome.com/license (Commercial License) Copyright 2022 Fonticons, Inc. --><path d="M515.2 228.4L454.8 47.25c-2.75-8.5-11.87-13-20.12-10.12L373.6 57.5l33.12 99.38l-60.75 20.12L312.8 77.63l-61.62 20.5c-8.375 2.75-12.87 11.88-9.998 20.12l52.1 159.5c18 5 34.62 13.38 49.5 24.62l161.5-53.75C513.6 245.8 518.1 236.8 515.2 228.4zM256 320C202.1 320 160 362.1 160 416s42.98 96 96 96s96-42.98 96-96S309 320 256 320zM256 448c-17.67 0-32-14.33-32-32c0-17.67 14.33-31.1 32-31.1S288 398.3 288 416C288 433.7 273.7 448 256 448z" class="fa-secondary"/></svg>