<svg xmlns="http://www.w3.org/2000/svg" viewBox="0 0 384 512"><!--! Font Awesome Pro 6.2.0 by @fontawesome - https://fontawesome.com License - https://fontawesome.com/license (Commercial License) Copyright 2022 Fonticons, Inc. --><path d="M256 128H224C206.3 128 192 113.7 192 96C192 78.33 206.3 64 224 64H256V128zM320 64C337.7 64 352 78.33 352 96C352 113.7 337.7 128 320 128V64zM0 480C0 462.3 14.33 448 32 448H352C369.7 448 384 462.3 384 480C384 497.7 369.7 512 352 512H32C14.33 512 0 497.7 0 480z" class="fa-secondary"/></svg>