<svg xmlns="http://www.w3.org/2000/svg" viewBox="0 0 448 512"><!--! Font Awesome Pro 6.2.0 by @fontawesome - https://fontawesome.com License - https://fontawesome.com/license (Commercial License) Copyright 2022 Fonticons, Inc. --><path d="M384 64C384 46.33 398.3 32 416 32C433.7 32 448 46.33 448 64C448 81.67 433.7 96 416 96C398.3 96 384 81.67 384 64zM288 64C288 46.33 302.3 32 320 32C337.7 32 352 46.33 352 64C352 81.67 337.7 96 320 96C302.3 96 288 81.67 288 64zM256 64C256 81.67 241.7 96 224 96C206.3 96 192 81.67 192 64C192 46.33 206.3 32 224 32C241.7 32 256 46.33 256 64zM96 64C96 46.33 110.3 32 128 32C145.7 32 160 46.33 160 64C160 81.67 145.7 96 128 96C110.3 96 96 81.67 96 64zM64 64C64 81.67 49.67 96 32 96C14.33 96 0 81.67 0 64C0 46.33 14.33 32 32 32C49.67 32 64 46.33 64 64z" class="fa-secondary"/></svg>