<svg xmlns="http://www.w3.org/2000/svg" viewBox="0 0 448 512"><!--! Font Awesome Pro 6.2.0 by @fontawesome - https://fontawesome.com License - https://fontawesome.com/license (Commercial License) Copyright 2022 Fonticons, Inc. --><path d="M64 448C64 465.7 49.67 480 32 480C14.33 480 0 465.7 0 448C0 430.3 14.33 416 32 416C49.67 416 64 430.3 64 448zM160 448C160 465.7 145.7 480 128 480C110.3 480 96 465.7 96 448C96 430.3 110.3 416 128 416C145.7 416 160 430.3 160 448zM192 448C192 430.3 206.3 416 224 416C241.7 416 256 430.3 256 448C256 465.7 241.7 480 224 480C206.3 480 192 465.7 192 448zM352 448C352 465.7 337.7 480 320 480C302.3 480 288 465.7 288 448C288 430.3 302.3 416 320 416C337.7 416 352 430.3 352 448zM384 448C384 430.3 398.3 416 416 416C433.7 416 448 430.3 448 448C448 465.7 433.7 480 416 480C398.3 480 384 465.7 384 448z" class="fa-secondary"/></svg>