<svg xmlns="http://www.w3.org/2000/svg" viewBox="0 0 448 512"><!--! Font Awesome Pro 6.2.0 by @fontawesome - https://fontawesome.com License - https://fontawesome.com/license (Commercial License) Copyright 2022 Fonticons, Inc. --><path d="M320 96C320 107.7 323.1 118.6 328.6 128H119.4C124.9 118.6 127.1 107.7 127.1 96C127.1 84.34 124.9 73.41 119.4 64H328.6C323.1 73.41 320 84.34 320 96zM384 160C395.7 160 406.6 156.9 416 151.4V360.6C406.6 355.1 395.7 352 384 352C372.3 352 361.4 355.1 352 360.6V151.4C361.4 156.9 372.3 160 384 160zM96 151.4V360.6C86.59 355.1 75.66 352 64 352C52.34 352 41.41 355.1 32 360.6V151.4C41.41 156.9 52.34 160 64 160C75.66 160 86.59 156.9 96 151.4zM328.6 448H119.4C124.9 438.6 127.1 427.7 127.1 416C127.1 404.3 124.9 393.4 119.4 384H328.6C323.1 393.4 320 404.3 320 416C320 427.7 323.1 438.6 328.6 448z" class="fa-secondary"/></svg>