<svg xmlns="http://www.w3.org/2000/svg" viewBox="0 0 448 512"><!--! Font Awesome Pro 6.2.0 by @fontawesome - https://fontawesome.com License - https://fontawesome.com/license (Commercial License) Copyright 2022 Fonticons, Inc. --><path d="M119.4 64H328.6C323.1 73.41 320 84.34 320 96C320 107.7 323.1 118.6 328.6 128H119.4C124.9 118.6 128 107.7 128 96C128 84.34 124.9 73.41 119.4 64zM64 352C52.34 352 41.41 355.1 32 360.6V151.4C41.41 156.9 52.34 159.1 64 159.1C75.66 159.1 86.59 156.9 96 151.4V360.6C86.59 355.1 75.66 352 64 352zM119.4 448C124.9 438.6 128 427.7 128 416C128 404.3 124.9 393.4 119.4 384H328.6C323.1 393.4 320 404.3 320 416C320 427.7 323.1 438.6 328.6 448H119.4zM384 352C360.4 352 339.8 364.8 328.7 383.7L292.2 319.9C315.7 318.4 335.7 304.2 345.5 284.1L384.3 352L384 352zM292.2 192.1L328.7 128.3C339.8 147.2 360.4 160 384 160L384.3 159.1L345.5 227.9C335.7 207.8 315.7 193.7 292.2 192.1L292.2 192.1z" class="fa-secondary"/></svg>