<svg xmlns="http://www.w3.org/2000/svg" viewBox="0 0 512 512"><!--! Font Awesome Pro 6.2.0 by @fontawesome - https://fontawesome.com License - https://fontawesome.com/license (Commercial License) Copyright 2022 Fonticons, Inc. --><path d="M173.4 130.1C175.1 124.3 176 118.3 176 112C176 76.65 147.3 48 112 48C76.65 48 48 76.65 48 112C48 147.3 76.65 176 112 176C118.3 176 124.3 175.1 130.1 173.4L159.9 213.3C145.4 220.1 129.2 224 112 224C50.14 224 0 173.9 0 112C0 50.14 50.14 0 112 0C173.9 0 224 50.14 224 112C224 129.2 220.1 145.4 213.3 159.9L173.4 130.1zM381.9 173.4C387.7 175.1 393.7 176 400 176C435.3 176 464 147.3 464 112C464 76.65 435.3 48 400 48C364.7 48 336 76.65 336 112C336 118.3 336.9 124.3 338.6 130.1L298.7 159.9C291.9 145.4 288 129.2 288 112C288 50.14 338.1 0 400 0C461.9 0 512 50.14 512 112C512 173.9 461.9 224 400 224C382.8 224 366.6 220.1 352.1 213.3L381.9 173.4zM338.6 381.9C336.9 387.7 336 393.7 336 400C336 435.3 364.7 464 400 464C435.3 464 464 435.3 464 400C464 364.7 435.3 336 400 336C393.7 336 387.7 336.9 381.9 338.6L352.1 298.7C366.6 291.9 382.8 288 400 288C461.9 288 512 338.1 512 400C512 461.9 461.9 512 400 512C338.1 512 288 461.9 288 400C288 382.8 291.9 366.6 298.7 352.1L338.6 381.9zM130.1 338.6C124.3 336.9 118.3 336 112 336C76.65 336 48 364.7 48 400C48 435.3 76.65 464 112 464C147.3 464 176 435.3 176 400C176 393.7 175.1 387.7 173.4 381.9L213.3 352.1C220.1 366.6 224 382.8 224 400C224 461.9 173.9 512 112 512C50.14 512 0 461.9 0 400C0 338.1 50.14 288 112 288C129.2 288 145.4 291.9 159.9 298.7L130.1 338.6z" class="fa-secondary"/></svg>