<svg xmlns="http://www.w3.org/2000/svg" viewBox="0 0 640 512"><!--! Font Awesome Pro 6.2.0 by @fontawesome - https://fontawesome.com License - https://fontawesome.com/license (Commercial License) Copyright 2022 Fonticons, Inc. --><path d="M180.7 177.3C151.2 228.8 128 281.5 128 320c0 106 86 192 192 192c70.8 0 132.7-38.3 166-95.4L180.7 177.3zM505.2 370.7c4.4-16.1 6.8-33.1 6.8-50.7c0-91.2-130.2-262.3-166.6-308.3C339.4 4.2 330.5 0 320.9 0h-1.8c-9.6 0-18.5 4.2-24.5 11.7C277.8 33 240.7 81.3 205.8 136L505.2 370.7zM208 320c8.8 0 16 7.2 16 16c0 44.2 35.8 80 80 80c8.8 0 16 7.2 16 16s-7.2 16-16 16c-61.9 0-112-50.1-112-112c0-8.8 7.2-16 16-16z" class="fa-secondary"/></svg>