<svg xmlns="http://www.w3.org/2000/svg" viewBox="0 0 512 512"><!--! Font Awesome Pro 6.2.0 by @fontawesome - https://fontawesome.com License - https://fontawesome.com/license (Commercial License) Copyright 2022 Fonticons, Inc. --><path d="M193.7 392.5c-6.08 6.145-8.917 13.97-8.917 22.14c0 13.71 7.243 18.34 7.243 37.02c0 33.47-27.29 60.3-60.36 60.3c-22.74 0-59.51-17.24-59.51-59.11c0-4.943 .5664-9.844 1.682-14.71c-4.86 1.116-9.774 1.683-14.72 1.683c-42.17 0-59.13-36.75-59.13-59.58c0-42.35 36.92-60.28 60.31-60.28c19.08 0 23.02 7.244 37.06 7.244c8.172 0 15.97-2.836 22.11-8.918l40.56-40.48L160 287.1c0 35.3 28.69 64 63.99 64l10.17 .0027L193.7 392.5z" class="fa-secondary"/></svg>