<svg xmlns="http://www.w3.org/2000/svg" viewBox="0 0 576 512"><!--! Font Awesome Pro 6.2.0 by @fontawesome - https://fontawesome.com License - https://fontawesome.com/license (Commercial License) Copyright 2022 Fonticons, Inc. --><path d="M172 90C98.13 103.6 48 129.9 48 160c0 30.75 52.25 57.5 128.8 70.88C190.5 220.9 200.5 207 205 190.4c5.125-19.12 2.5-39-7.375-56.13L172 90zM288 192C259.3 192 235.1 211.1 227.1 237.3C246.6 239 266.9 240 288 240s41.38-1 60.88-2.75C340.9 211.1 316.8 192 288 192zM224 83V96c0 35.25 28.75 64 64 64s64-28.75 64-64V83C331.6 81.13 310.3 80 288 80S244.4 81.13 224 83zM403.5 89.88l-25.62 44.5c-9.875 17-12.5 36.88-7.375 56C375 207 385.1 221 398.9 230.9C475.6 217.5 528 190.9 528 160C528 129.8 477.8 103.5 403.5 89.88z" class="fa-secondary"/></svg>