<svg xmlns="http://www.w3.org/2000/svg" viewBox="0 0 512 512"><!--! Font Awesome Pro 6.2.0 by @fontawesome - https://fontawesome.com License - https://fontawesome.com/license (Commercial License) Copyright 2022 Fonticons, Inc. --><path d="M193.7 392.5C187.6 398.6 184.8 406.5 184.8 414.6c0 13.71 7.244 18.41 7.244 37.03C192.1 484.1 164.1 512 131.7 512c-22.6 0-59.54-16.96-59.54-59.06c0-4.937 .5829-9.901 1.695-14.75c-4.853 1.112-9.78 1.681-14.72 1.681c-42.06 0-59.13-36.6-59.13-59.5c0-42.44 37.04-60.34 60.39-60.34c18.72 0 23.12 7.219 36.96 7.219c8.184 0 16.05-2.838 22.14-8.914l40.57-40.47l-.0644 10.13c0 35.35 28.65 64 64 64l10.33-.0215L193.7 392.5z" class="fa-secondary"/></svg>