<svg xmlns="http://www.w3.org/2000/svg" viewBox="0 0 512 512"><!--! Font Awesome Pro 6.2.0 by @fontawesome - https://fontawesome.com License - https://fontawesome.com/license (Commercial License) Copyright 2022 Fonticons, Inc. --><path d="M255.1 352c-13.25 0-24 10.74-24 23.1v103.5C239.9 479.8 247.9 480 255.1 480s16.09-.207 24-.5293V376C279.1 362.7 269.3 352 255.1 352zM95.1 320c-13.25 0-24 10.74-24 24v101.8c14.33 6.488 30.46 12.18 47.1 17.01v-118.8C119.1 330.7 109.3 320 95.1 320zM415.1 320c-13.25 0-23.1 10.74-23.1 24v118.8c17.54-4.83 33.67-10.52 47.1-17.01v-101.8C439.1 330.7 429.2 320 415.1 320zM508.1 42.86c-7.219-11.06-22.09-14.22-33.22-6.924l-231.1 152.1c-11.09 7.265-14.19 22.15-6.906 33.25C240.5 228.3 248.2 232.1 256 232.1c4.5 0 9.062-1.267 13.12-3.923l231.1-152.1C512.2 68.84 515.3 53.95 508.1 42.86z" class="fa-secondary"/></svg>