<svg xmlns="http://www.w3.org/2000/svg" viewBox="0 0 448 512"><!--! Font Awesome Pro 6.2.0 by @fontawesome - https://fontawesome.com License - https://fontawesome.com/license (Commercial License) Copyright 2022 Fonticons, Inc. --><path d="M224 192C167.6 192 121.5 233.8 113.6 288H184C188.4 288 192 291.6 192 296v16C192 316.4 188.4 320 184 320H113.6C121.5 374.2 167.6 416 224 416c61.83 0 111.1-50.17 111.1-112C335.1 242.2 285.8 192 224 192zM184 112c13.25 0 24-10.75 24-24S197.3 64 184 64S160 74.75 160 88S170.8 112 184 112z" class="fa-secondary"/></svg>