<svg xmlns="http://www.w3.org/2000/svg" viewBox="0 0 448 512"><!--! Font Awesome Pro 6.2.0 by @fontawesome - https://fontawesome.com License - https://fontawesome.com/license (Commercial License) Copyright 2022 Fonticons, Inc. --><path d="M216 272c0-22.62-12-34.63-20.75-43.38C189.5 222.9 186.1 219.3 184.8 214C183.9 210.5 180.6 208 177 208H160.8C158.4 208 156 209.1 154.5 210.9C153 212.8 152.3 215.1 152.8 217.5c2.75 16.62 12.5 26.38 19.87 33.88C180.5 259.1 184 263 184 272S180.5 284.9 172.8 292.8C164 301.5 152 313.4 152 336c0 22.75 12 34.63 20.75 43.38c5.75 5.75 9.125 9.375 10.5 14.5C184.1 397.5 187.4 400 191 400h16.38c2.375 0 4.625-1.125 6.125-2.875c1.625-1.875 2.25-4.25 1.875-6.625c-2.875-16.62-12.62-26.37-20-33.75C187.5 348.9 184 345 184 336c0-8.875 3.5-12.75 11.25-20.62C204 306.6 216 294.6 216 272zM264 336c0-8.875 3.5-12.75 11.25-20.62C284 306.6 296 294.6 296 272s-12-34.63-20.75-43.38C269.5 222.9 266.1 219.3 264.8 214C263.9 210.5 260.6 208 257 208h-16.25C238.4 208 236 209.1 234.5 210.9c-1.5 1.875-2.25 4.25-1.75 6.625c2.75 16.62 12.5 26.38 19.88 33.88C260.5 259.1 264 263 264 272s-3.5 12.88-11.25 20.75C244 301.5 232 313.4 232 336c0 22.75 12 34.63 20.75 43.38c5.75 5.75 9.125 9.375 10.5 14.5C264.1 397.5 267.4 400 271 400h16.38c2.375 0 4.625-1.125 6.125-2.875c1.5-1.875 2.125-4.25 1.75-6.625c-2.75-16.62-12.5-26.37-19.88-33.75C267.5 348.9 264 345 264 336zM184 112c13.25 0 24-10.75 24-24S197.3 64 184 64S160 74.75 160 88S170.8 112 184 112z" class="fa-secondary"/></svg>