<svg xmlns="http://www.w3.org/2000/svg" viewBox="0 0 512 512"><!--! Font Awesome Pro 6.2.0 by @fontawesome - https://fontawesome.com License - https://fontawesome.com/license (Commercial License) Copyright 2022 Fonticons, Inc. --><path d="M256 176C264.8 176 272 183.2 272 192V464C272 472.8 264.8 480 256 480C247.2 480 240 472.8 240 464V192C240 183.2 247.2 176 256 176zM192 208C200.8 208 208 215.2 208 224V464C208 472.8 200.8 480 192 480C183.2 480 176 472.8 176 464V224C176 215.2 183.2 208 192 208zM320 208C328.8 208 336 215.2 336 224V464C336 472.8 328.8 480 320 480C311.2 480 304 472.8 304 464V224C304 215.2 311.2 208 320 208z" class="fa-secondary"/></svg>