<svg xmlns="http://www.w3.org/2000/svg" viewBox="0 0 512 512"><!--! Font Awesome Pro 6.2.0 by @fontawesome - https://fontawesome.com License - https://fontawesome.com/license (Commercial License) Copyright 2022 Fonticons, Inc. --><path d="M192 319.1C185.8 313.7 177.6 310.6 169.4 310.6S153 313.7 146.8 319.1l-137.4 137.4C3.124 463.6 0 471.8 0 480c0 18.3 14.96 31.1 31.1 31.1c8.188 0 16.38-3.124 22.62-9.371l137.4-137.4c6.247-6.247 9.371-14.44 9.371-22.62S198.3 326.2 192 319.1zM511.1 31.1c0-8.188-3.124-16.38-9.371-22.62s-14.44-9.372-22.63-9.372s-16.38 3.124-22.62 9.372L416 50.75c-6.248 6.248-9.372 14.44-9.372 22.63c0 8.188 3.123 16.38 9.37 22.62c6.247 6.248 14.44 9.372 22.63 9.372s16.38-3.124 22.63-9.372l41.38-41.38C508.9 48.37 511.1 40.18 511.1 31.1z" class="fa-secondary"/></svg>