<svg xmlns="http://www.w3.org/2000/svg" viewBox="0 0 512 512"><!--! Font Awesome Pro 6.2.0 by @fontawesome - https://fontawesome.com License - https://fontawesome.com/license (Commercial License) Copyright 2022 Fonticons, Inc. --><path d="M160.1 320c-17.64 0-32.02 14.37-32.02 31.1s14.38 31.1 32.02 31.1s32.02-14.37 32.02-31.1S177.8 320 160.1 320zM86.66 361.4c-12.51-12.49-32.77-12.49-45.27 0c-12.51 12.5-12.51 32.78 0 45.27l63.96 63.99c12.51 12.49 32.77 12.49 45.27 .002c12.51-12.5 12.51-32.78 0-45.27L86.66 361.4zM32.02 448C14.38 448 0 462.4 0 480S14.38 512 32.02 512c17.64 0 32.02-14.37 32.02-31.1S49.66 448 32.02 448zM397.8 3.125c-15.91-7.594-35.05-.8438-42.66 15.09c-7.594 15.97-.8281 35.06 15.12 42.66C417.5 83.41 448 134.9 448 192c0 17.69 14.33 32 32 32S512 209.7 512 192C512 110.3 467.2 36.19 397.8 3.125z" class="fa-secondary"/></svg>