<svg xmlns="http://www.w3.org/2000/svg" viewBox="0 0 640 512"><!--! Font Awesome Pro 6.2.0 by @fontawesome - https://fontawesome.com License - https://fontawesome.com/license (Commercial License) Copyright 2022 Fonticons, Inc. --><path d="M480 224c0-88.22-71.78-160-160-160S160 135.8 160 224v1.621C157.3 225.1 154.8 224 151.1 224C140.1 224 129.7 229.4 122.3 237.8C114.5 232.6 105.3 230 96 230.9V224c0-123.5 100.5-224 224-224s223.1 100.5 223.1 224v7.248c-9.315-.7969-18.49 1.803-26.29 6.877C510.5 229.8 499.1 224 487.8 224c-2.781 0-5.217 1.041-7.838 1.578V224z" class="fa-secondary"/></svg>