<svg xmlns="http://www.w3.org/2000/svg" viewBox="0 0 512 512"><!--! Font Awesome Pro 6.2.0 by @fontawesome - https://fontawesome.com License - https://fontawesome.com/license (Commercial License) Copyright 2022 Fonticons, Inc. --><path d="M38.79 292.6L83.41 301.5C91.27 303.1 99.41 300.6 105.1 294.9L120.5 279.5C132 267.1 151.6 271.1 158.9 285.8L168.2 304.3C172.1 313.9 182.8 319.1 193.5 319.1C208.7 319.1 219.6 305.4 215.2 290.8L209.3 270.9C204.7 255.5 216.2 239.1 232.3 239.1H234.6C247.1 239.1 260.5 233.3 267.9 222.2L278.6 206.1C284.2 197.7 283.9 186.6 277.8 178.4L261.7 156.9C251.4 143.2 258.4 123.4 275.1 119.2L292.1 114.1C299.6 113.1 305.7 107.8 308.6 100.6L325.3 58.79C327.4 53.56 327.5 48.1 326.1 43.17C415.5 72.58 480 156.8 480 255.1C480 272.1 478.1 289.5 474.5 305.4L467.4 301.1C462.1 299.4 456.1 298.9 450.4 300.4L434.6 304.9C427.9 306.7 420.8 304 417.1 298.2L415.1 295.1C409.1 285.7 398.7 279.1 387.5 279.1C376.4 279.1 365.1 285.7 359.9 295.1L353.8 304.6C352.4 306.8 350.5 308.7 348.2 309.1L311.1 330.1C293.9 340.2 286.5 362.5 294.1 381.4L300.5 393.8C309.1 413 331.2 422.3 350.1 414.9L353.5 413.1C363.6 410.2 374.8 411.8 383.5 418.1L398.4 428.9C359.7 460.8 310.1 480 256 480C144.3 480 51.75 398.3 34.78 291.4C36.06 291.9 37.4 292.3 38.79 292.6L38.79 292.6zM163.9 336.5C155.3 334.3 146.6 339.5 144.5 348.1C142.3 356.7 147.5 365.4 156.1 367.5L188.1 375.5C196.7 377.7 205.4 372.5 207.5 363.9C209.7 355.3 204.5 346.6 195.9 344.5L163.9 336.5zM267.5 335.9L275.5 303.9C277.7 295.3 272.5 286.6 263.9 284.5C255.3 282.3 246.6 287.5 244.5 296.1L236.5 328.1C234.3 336.7 239.5 345.4 248.1 347.5C256.7 349.7 265.4 344.5 267.5 335.9zM350.3 135.2C354.3 127.2 351.1 117.6 343.2 113.7C335.3 109.7 325.6 112.9 321.7 120.8L305.7 152.8C301.7 160.7 304.9 170.4 312.8 174.3C320.7 178.3 330.4 175.1 334.3 167.2L350.3 135.2z" class="fa-secondary"/></svg>