<svg xmlns="http://www.w3.org/2000/svg" viewBox="0 0 512 512"><!--! Font Awesome Pro 6.2.0 by @fontawesome - https://fontawesome.com License - https://fontawesome.com/license (Commercial License) Copyright 2022 Fonticons, Inc. --><path d="M172.1 53.15L187.8 80.62C190.5 85.46 191.1 90.93 191.1 96.5V137.9C191.1 141.8 193.6 145.6 196.3 148.3C202.6 154.6 212.8 153.1 218.3 147.1L231.9 130.1C236.6 124.2 244.8 122.4 251.6 125.8L266.8 133.4C270.2 135.1 273.1 135.1 277.8 135.1C284.3 135.1 290.6 133.4 295.2 128.8L299.1 124.8C302 121.1 306.5 121.2 310.1 123.1L339.4 137.7C347.1 141.6 352 149.5 352 158.1C352 168.6 344.9 177.8 334.7 180.3L299.3 189.2C291.9 191 284.2 190.7 276.1 188.3L244.1 177.7C241.7 176.6 238.2 176 234.8 176C227.8 176 220.1 178.3 215.4 182.5L175.1 212C165.9 219.6 159.1 231.4 159.1 244V272C159.1 298.5 181.5 320 207.1 320H239.1C248.8 320 255.1 327.2 255.1 336V384C255.1 401.7 270.3 416 288 416C298.1 416 307.6 411.3 313.6 403.2L339.2 369.1C347.5 357.1 352 344.5 352 330.7V318.6C352 314.7 354.6 311.3 358.4 310.4L363.7 309.1C375.6 306.1 384 295.4 384 283.1C384 275.1 381.2 269.2 376.2 264.2L342.7 230.7C338.1 226.1 338.1 221 342.7 217.3C348.4 211.6 356.8 209.6 364.5 212.2L378.6 216.9C390.9 220.1 404.3 215.4 410.1 203.8C413.6 196.8 421.3 193.1 428.1 194.6L459.6 200.7C464.5 201.7 468.1 200.4 472.4 197.9C477.4 216.4 480 235.9 480 255.1C480 379.7 379.7 480 256 480C132.3 480 32 379.7 32 255.1C32 162.6 89.16 82.56 170.4 48.94C170.7 50.37 171.3 51.78 172.1 53.15H172.1z" class="fa-secondary"/></svg>