<svg xmlns="http://www.w3.org/2000/svg" viewBox="0 0 512 512"><!--! Font Awesome Pro 6.2.0 by @fontawesome - https://fontawesome.com License - https://fontawesome.com/license (Commercial License) Copyright 2022 Fonticons, Inc. --><path d="M45.26 179.9L66.95 212.4C75.37 225.1 88.02 234.3 102.6 238.5L162.1 255.7C180.2 260.6 191.1 276.3 191.1 294.2V334.1C191.1 345.1 198.2 355.1 207.1 359.1C217.8 364.9 223.1 374.9 223.1 385.9V424.9C223.1 440.5 238.9 451.7 253.9 447.4C270.1 442.8 282.5 429.1 286.6 413.7L289.4 402.5C293.6 385.6 304.6 371.1 319.7 362.4L327.8 357.8C342.8 349.3 352 333.4 352 316.1V307.9C352 295.1 346.9 282.9 337.9 273.9L334.1 270.1C325.1 261.1 312.8 255.1 300.1 255.1H256.1C245.9 255.1 234.9 253.1 225.2 247.6L190.7 227.8C186.4 225.4 183.1 221.4 181.6 216.7C178.4 207.1 182.7 196.6 191.7 192.1L197.7 189.2C204.3 185.9 211.9 185.3 218.1 187.7L242.2 195.4C250.3 198.1 259.3 195 264.1 187.9C268.8 180.8 268.3 171.5 262.9 165L249.3 148.8C239.3 136.8 239.4 119.3 249.6 107.5L265.3 89.12C274.1 78.85 275.5 64.16 268.8 52.42L257.1 32C341.4 32.42 414.7 79.41 452.6 148.6L412 164.8C396.3 171.1 388.2 188.5 393.5 204.6L410.9 256.8C414.1 266.4 421.6 273.9 431.2 277.1L477.1 292.4C459.7 398.8 367.3 479.1 256 479.1C132.3 479.1 32 379.7 32 255.1C32 229.3 36.68 203.6 45.26 179.9L45.26 179.9z" class="fa-secondary"/></svg>