<svg xmlns="http://www.w3.org/2000/svg" viewBox="0 0 512 512"><!--! Font Awesome Pro 6.2.0 by @fontawesome - https://fontawesome.com License - https://fontawesome.com/license (Commercial License) Copyright 2022 Fonticons, Inc. --><path d="M448 128H64c-35.35 0-64 28.65-64 63.1v255.1C0 483.3 28.65 512 64 512h384c35.35 0 64-28.65 64-63.1V192C512 156.7 483.3 128 448 128zM352 224C378.5 224.1 400 245.5 400 272c0 26.46-21.47 47.9-48 48C325.5 319.9 304 298.5 304 272C304 245.5 325.5 224.1 352 224zM160 224C186.5 224.1 208 245.5 208 272c0 26.46-21.47 47.9-48 48C133.5 319.9 112 298.5 112 272C112 245.5 133.5 224.1 160 224zM240 448h-160v-48C80 373.5 101.5 352 128 352h64c26.51 0 48 21.49 48 48V448zM432 448h-160v-48c0-26.51 21.49-48 48-48h64c26.51 0 48 21.49 48 48V448z" class="fa-secondary"/></svg>