<svg xmlns="http://www.w3.org/2000/svg" viewBox="0 0 512 512"><!--! Font Awesome Pro 6.2.0 by @fontawesome - https://fontawesome.com License - https://fontawesome.com/license (Commercial License) Copyright 2022 Fonticons, Inc. --><path d="M96 256c0-88.22 71.78-160 160-160c32.56 0 62.8 9.889 88.09 26.66l45.84-45.84C352.5 48.82 306.3 32 256 32C132.3 32 32 132.3 32 256c0 50.3 16.82 96.54 44.82 133.9l45.84-45.84C105.9 318.8 96 288.6 96 256zM435.2 122.1l-45.84 45.84C406.1 193.2 416 223.4 416 256c0 88.22-71.78 160-160 160c-32.56 0-62.8-9.889-88.09-26.66l-45.84 45.84C159.5 463.2 205.7 480 256 480c123.7 0 224-100.3 224-224C480 205.7 463.2 159.5 435.2 122.1z" class="fa-secondary"/></svg>