<svg xmlns="http://www.w3.org/2000/svg" viewBox="0 0 640 512"><!--! Font Awesome Pro 6.2.0 by @fontawesome - https://fontawesome.com License - https://fontawesome.com/license (Commercial License) Copyright 2022 Fonticons, Inc. --><path d="M424 88C424 101.3 413.3 112 400 112H328V144H280V112H208C194.7 112 184 101.3 184 88C184 74.75 194.7 64 208 64H400C413.3 64 424 74.75 424 88zM24 136C37.25 136 48 146.7 48 160V232H96V280H48V352C48 365.3 37.25 376 24 376C10.75 376 0 365.3 0 352V160C0 146.7 10.75 136 24 136zM608 192C625.7 192 640 206.3 640 224V416C640 433.7 625.7 448 608 448H576C558.3 448 544 433.7 544 416V224C544 206.3 558.3 192 576 192H608z" class="fa-secondary"/></svg>