<svg xmlns="http://www.w3.org/2000/svg" viewBox="0 0 512 512"><!--! Font Awesome Pro 6.2.0 by @fontawesome - https://fontawesome.com License - https://fontawesome.com/license (Commercial License) Copyright 2022 Fonticons, Inc. --><path d="M96 32C78.3 32 64 46.3 64 64V249.7L236.7 377.6c5.6 4.1 12.4 6.4 19.3 6.4s13.7-2.2 19.3-6.4L448 249.7V64c0-17.7-14.3-32-32-32H96zm80 96H336c8.8 0 16 7.2 16 16s-7.2 16-16 16H176c-8.8 0-16-7.2-16-16s7.2-16 16-16zm0 64H336c8.8 0 16 7.2 16 16s-7.2 16-16 16H176c-8.8 0-16-7.2-16-16s7.2-16 16-16z" class="fa-secondary"/></svg>