<svg xmlns="http://www.w3.org/2000/svg" viewBox="0 0 576 512"><!--! Font Awesome Pro 6.2.0 by @fontawesome - https://fontawesome.com License - https://fontawesome.com/license (Commercial License) Copyright 2022 Fonticons, Inc. --><path d="M417.6 64c-1 5.2-1.6 10.5-1.6 16c0 39.3 28.3 72 65.7 78.7L275.2 313.6c-11.4 8.5-27 8.5-38.4 0L19.2 150.4C7.1 141.3 0 127.1 0 112C0 85.5 21.5 64 48 64H417.6zM0 384V176L217.6 339.2c22.8 17.1 54 17.1 76.8 0L512 176V384c0 35.3-28.7 64-64 64H64c-35.3 0-64-28.7-64-64z" class="fa-secondary"/></svg>