<svg xmlns="http://www.w3.org/2000/svg" viewBox="0 0 640 512"><!--! Font Awesome Pro 6.2.0 by @fontawesome - https://fontawesome.com License - https://fontawesome.com/license (Commercial License) Copyright 2022 Fonticons, Inc. --><path d="M0 112C0 85.5 21.5 64 48 64H464c26.5 0 48 21.5 48 48c0 15.1-7.1 29.3-19.2 38.4l-13.9 10.4c-66.6 6.4-122.4 50-146.3 109.8l-57.4 43c-11.4 8.5-27 8.5-38.4 0L19.2 150.4C7.1 141.3 0 127.1 0 112zM320.8 319.4c-.5 5.5-.8 11-.8 16.6c0 42.5 15.1 81.6 40.2 112H64c-35.3 0-64-28.7-64-64V176L217.6 339.2c22.8 17.1 54 17.1 76.8 0l26.4-19.8z" class="fa-secondary"/></svg>