<svg xmlns="http://www.w3.org/2000/svg" viewBox="0 0 512 512"><!--! Font Awesome Pro 6.2.0 by @fontawesome - https://fontawesome.com License - https://fontawesome.com/license (Commercial License) Copyright 2022 Fonticons, Inc. --><path d="M96 32C78.3 32 64 46.3 64 64V249.7L236.7 377.6c5.6 4.1 12.4 6.4 19.3 6.4s13.7-2.2 19.3-6.4L448 249.7V64c0-17.7-14.3-32-32-32H96zm180 72v13.9c7.5 1.2 14.6 2.9 21.1 4.7c10.7 2.8 17 13.8 14.2 24.5s-13.8 17-24.5 14.2c-11-2.9-21.6-5-31.2-5.2c-7.9-.1-16 1.8-21.5 5c-4.8 2.8-6.2 5.6-6.2 9.3c0 1.8 .1 3.5 5.3 6.7c6.3 3.8 15.5 6.7 28.3 10.5l.7 .2c11.2 3.4 25.6 7.7 37.1 15c12.9 8.1 24.3 21.3 24.6 41.6c.3 20.9-10.5 36.1-24.8 45c-7.2 4.5-15.2 7.3-23.2 9V312c0 11-9 20-20 20s-20-9-20-20V297.4c-10.3-2.2-20-5.5-28.2-8.4l0 0 0 0c-2.1-.7-4.1-1.4-6.1-2.1c-10.5-3.5-16.1-14.8-12.6-25.3s14.8-16.1 25.3-12.6c2.5 .8 4.9 1.7 7.2 2.4c13.6 4.6 24 8.1 35.1 8.5c8.6 .3 16.5-1.6 21.4-4.7c4.1-2.5 6-5.5 5.9-10.5c0-2.9-.8-5-5.9-8.2c-6.3-4-15.4-6.9-28-10.7l-1.7-.5c-10.9-3.3-24.6-7.4-35.6-14c-12.7-7.7-24.6-20.5-24.7-40.7c-.1-21.1 11.8-35.7 25.8-43.9c6.9-4.1 14.5-6.8 22.2-8.5V104c0-11 9-20 20-20s20 9 20 20z" class="fa-secondary"/></svg>