<svg xmlns="http://www.w3.org/2000/svg" viewBox="0 0 576 512"><!--! Font Awesome Pro 6.2.0 by @fontawesome - https://fontawesome.com License - https://fontawesome.com/license (Commercial License) Copyright 2022 Fonticons, Inc. --><path d="M96.7 86.7l220 163c5.6 4.1 12.4 6.4 19.3 6.4s13.7-2.2 19.3-6.4l220-163C570.8 55.7 544.2 32 512 32H160c-32.2 0-58.8 23.7-63.3 54.7zM576 126L374.4 275.3C363.3 283.6 349.8 288 336 288s-27.3-4.4-38.4-12.7L96 126V320c0 35.3 28.7 64 64 64H512c35.3 0 64-28.7 64-64V126z" class="fa-secondary"/></svg>