<svg xmlns="http://www.w3.org/2000/svg" viewBox="0 0 640 512"><!--! Font Awesome Pro 6.2.0 by @fontawesome - https://fontawesome.com License - https://fontawesome.com/license (Commercial License) Copyright 2022 Fonticons, Inc. --><path d="M605.5 268.3C592.1 300.6 565.2 346.1 525.7 386.7L446.6 324.7C457.7 304.3 464 280.9 464 256C464 176.5 399.5 112 320 112C282.7 112 248.6 126.2 223.1 149.5L150.7 92.77C195 58.27 251.8 32 320 32C400.8 32 465.5 68.84 512.6 112.6C559.4 156 590.7 207.1 605.5 243.7C608.8 251.6 608.8 260.4 605.5 268.3zM416 256C416 269.7 413.1 282.7 407.1 294.5L313.4 220.3C317.6 211.8 320 202.2 320 192C320 180.5 316.1 169.7 311.6 160.4C314.4 160.1 317.2 160 320 160C373 160 416 202.1 416 256V256z" class="fa-secondary"/></svg>