<svg xmlns="http://www.w3.org/2000/svg" viewBox="0 0 640 512"><!--! Font Awesome Pro 6.2.0 by @fontawesome - https://fontawesome.com License - https://fontawesome.com/license (Commercial License) Copyright 2022 Fonticons, Inc. --><path d="M446.6 324.7C457.7 304.3 464 280.9 464 256C464 176.5 399.5 112 320 112C282.7 112 248.6 126.2 223.1 149.5L150.7 92.77C195 58.27 251.8 32 320 32C400.8 32 465.5 68.84 512.6 112.6C559.4 156 590.7 207.1 605.5 243.7C608.8 251.6 608.8 260.4 605.5 268.3C592.1 300.6 565.2 346.1 525.6 386.7L446.6 324.7zM313.4 220.3C317.6 211.8 320 202.2 320 192C320 180.5 316.1 169.7 311.6 160.4C314.4 160.1 317.2 160 320 160C373 160 416 202.1 416 256C416 269.7 413.1 282.7 407.1 294.5L313.4 220.3zM320 480C239.2 480 174.5 443.2 127.4 399.4C80.62 355.1 49.34 304 34.46 268.3C31.18 260.4 31.18 251.6 34.46 243.7C44 220.8 60.29 191.2 83.09 161.5L177.4 235.8C176.5 242.4 176 249.1 176 256C176 335.5 240.5 400 320 400C338.7 400 356.6 396.4 373 389.9L446.2 447.5C409.9 467.1 367.8 480 320 480H320z" class="fa-secondary"/></svg>