<svg xmlns="http://www.w3.org/2000/svg" viewBox="0 0 640 512"><!--! Font Awesome Pro 6.2.0 by @fontawesome - https://fontawesome.com License - https://fontawesome.com/license (Commercial License) Copyright 2022 Fonticons, Inc. --><path d="M96 224C84.1 224 74.8 227 65.76 231.9C64.88 239.8 64 247.8 64 256c0 35.43 8.863 68.25 23.12 95.11C90.05 351.5 92.96 352 96 352c35.35 0 64-28.65 64-64C160 252.7 131.3 224 96 224zM384 224c-11 0-21.2 3.031-30.24 7.922C352.9 239.8 352 247.8 352 256c0 35.43 8.863 68.25 23.12 95.11C378.1 351.5 380.1 352 384 352c35.35 0 64-28.65 64-64C448 252.7 419.3 224 384 224z" class="fa-secondary"/></svg>