<svg xmlns="http://www.w3.org/2000/svg" viewBox="0 0 640 512"><!--! Font Awesome Pro 6.2.0 by @fontawesome - https://fontawesome.com License - https://fontawesome.com/license (Commercial License) Copyright 2022 Fonticons, Inc. --><path d="M320 0C461.4 0 576 114.6 576 256H64C64 114.6 178.6 0 320 0zM272.1 187.6L282.9 191.2C291.3 193.1 300.4 189.4 303.2 181.1C305.1 172.7 301.4 163.6 293.1 160.8L197.1 128.8C188.7 126 179.6 130.6 176.8 138.9C174 147.3 178.6 156.4 186.9 159.2L217.7 169.4C211.9 175.2 208.4 183.2 208.4 192C208.4 209.7 222.7 224 240.4 224C258 224 272.4 209.7 272.4 192C272.4 190.5 272.3 189 272.1 187.6V187.6zM400.4 224C418 224 432.4 209.7 432.4 192C432.4 183.1 428.7 175 422.9 169.2L453.1 159.2C461.4 156.4 465.1 147.3 463.2 138.9C460.4 130.6 451.3 126 442.9 128.8L346.9 160.8C338.6 163.6 334 172.7 336.8 181.1C339.6 189.4 348.7 193.1 357.1 191.2L368.7 187.3C368.5 188.8 368.4 190.4 368.4 192C368.4 209.7 382.7 224 400.4 224H400.4z" class="fa-secondary"/></svg>