<svg xmlns="http://www.w3.org/2000/svg" viewBox="0 0 576 512"><!--! Font Awesome Pro 6.2.0 by @fontawesome - https://fontawesome.com License - https://fontawesome.com/license (Commercial License) Copyright 2022 Fonticons, Inc. --><path d="M544 256C544 397.4 429.4 512 288 512C146.6 512 32 397.4 32 256C32 239.6 33.54 223.5 36.49 208H104C104 258.1 142.4 299.2 191.3 303.6C181.7 311.5 176 323.3 176 336C176 351.9 184.1 366.4 199.1 373.5L179.5 398C173.1 404.9 175.1 414.1 182 420.5C188.9 426 198.1 424.9 204.5 417.1L228.4 388.1L235.7 391.7L225.1 418.1C221.9 426.3 225.9 435.6 234.1 438.9C242.3 442.1 251.6 438.1 254.9 429.9L264.8 405C267.2 405.7 269.6 406.3 271.1 406.8V432C271.1 440.8 279.2 448 287.1 448C296.8 448 304 440.8 304 432V406.8C306.4 406.3 308.8 405.7 311.2 405L321.1 429.9C324.4 438.1 333.7 442.1 341.9 438.9C350.1 435.6 354.1 426.3 350.9 418.1L340.3 391.7L347.6 388.1L371.5 417.1C377 424.9 387.1 426 393.1 420.5C400.9 414.1 402 404.9 396.5 398L376.9 373.5C391 366.4 400 351.9 400 336C400 323.3 394.3 311.5 384.7 303.6C433.6 299.2 472 258.1 472 208H539.5C542.5 223.5 544 239.6 544 256H544zM531.3 176H466.5C461.3 161.1 452.5 147.1 441.1 137.5L446.3 127.2C450.3 119.3 447.1 109.6 439.2 105.7C431.3 101.7 421.6 104.9 417.7 112.8L414.2 119.9C409.6 117.9 404.9 116.3 400 115V96C400 87.16 392.8 80 384 80C375.2 80 368 87.16 368 96V112.3C363.6 112.7 359.3 113.4 355 114.3L350.3 104.8C346.4 96.94 336.7 93.74 328.8 97.69C320.9 101.6 317.7 111.3 321.7 119.2L325.3 126.4C308.9 136.7 295.8 151.7 287.1 169.6C280.2 151.7 267.1 136.7 250.7 126.4L254.3 119.2C258.3 111.3 255.1 101.6 247.2 97.69C239.3 93.74 229.6 96.94 225.7 104.8L220.1 114.3C216.7 113.4 212.4 112.7 207.1 112.3V96C207.1 87.16 200.8 80 191.1 80C183.2 80 175.1 87.16 175.1 96V115C171.1 116.3 166.4 117.9 161.8 119.9L158.3 112.8C154.4 104.9 144.7 101.7 136.8 105.7C128.9 109.6 125.7 119.3 129.7 127.2L134.9 137.5C123.5 147.1 114.7 161.1 109.5 176H44.75C78.34 73.79 174.6 0 287.1 0C401.4 0 497.7 73.79 531.3 176H531.3z" class="fa-secondary"/></svg>