<svg xmlns="http://www.w3.org/2000/svg" viewBox="0 0 512 512"><!--! Font Awesome Pro 6.2.0 by @fontawesome - https://fontawesome.com License - https://fontawesome.com/license (Commercial License) Copyright 2022 Fonticons, Inc. --><path d="M224.6 510.1C228.6 504.4 231.9 498.1 234.4 491.3L255.4 433.6L291.1 420.6C315 411.9 329.4 388.6 327.9 364.5C326.6 340.1 311.4 318.4 288.7 308.8L166.2 257.3C158.1 253.8 148.7 257.6 145.3 265.8C141.8 273.9 145.6 283.3 153.8 286.7L236.2 321.4L144 354.1V352C144 321.1 118.9 296 88 296C57.07 296 32 321.1 32 352V380C11.61 343.3 0 301 0 256C0 114.6 114.6 0 256 0C397.4 0 512 114.6 512 256C512 397.4 397.4 512 256 512C245.4 512 234.9 511.4 224.6 510.1L224.6 510.1zM176.4 207.1C194 207.1 208.4 193.7 208.4 175.1C208.4 158.3 194 143.1 176.4 143.1C158.7 143.1 144.4 158.3 144.4 175.1C144.4 193.7 158.7 207.1 176.4 207.1zM336.4 159.1C318.7 159.1 304.4 174.3 304.4 191.1C304.4 209.7 318.7 223.1 336.4 223.1C354 223.1 368.4 209.7 368.4 191.1C368.4 174.3 354 159.1 336.4 159.1zM229.6 140.1C236.3 145.9 246.4 145.1 252.1 138.4C257.9 131.7 257.1 121.6 250.4 115.9L237.2 104.5C206.4 78.14 162.3 73.95 127.1 94.08L120.1 98.11C112.4 102.5 109.7 112.3 114.1 119.9C118.5 127.6 128.3 130.3 135.9 125.9L142.1 121.9C166.5 108.4 195.9 111.2 216.4 128.8L229.6 140.1z" class="fa-secondary"/></svg>