<svg xmlns="http://www.w3.org/2000/svg" viewBox="0 0 576 512"><!--! Font Awesome Pro 6.2.0 by @fontawesome - https://fontawesome.com License - https://fontawesome.com/license (Commercial License) Copyright 2022 Fonticons, Inc. --><path d="M509.8 127.1C580.5 250.4 538.5 407 416.1 477.7C407.5 482.6 398.8 487 389.1 490.9C396.4 477.1 400.1 463.4 400.1 448V391.7C449.1 350.8 470.2 286.1 455 226.7C451.5 212.9 435.6 207.8 423.2 214.9L184.9 352.5C172.6 359.6 169 375.1 179.2 385.9C187.1 394.5 197.7 401.9 208.1 408.2V448C208.1 469.1 214.9 488.6 226.4 504.5C161.3 488.3 102.6 446.7 66.36 384C-4.331 261.6 37.62 104.1 160.1 34.3C282.5-36.4 439.1 5.557 509.8 127.1H509.8zM160 159.1C124.7 159.1 96 188.7 96 223.1C96 259.3 124.7 287.1 160 287.1C195.3 287.1 224 259.3 224 223.1C224 188.7 195.3 159.1 160 159.1zM344 223.1C383.8 223.1 416 191.8 416 151.1C416 112.2 383.8 79.1 344 79.1C304.2 79.1 271.1 112.2 271.1 151.1C271.1 191.8 304.2 223.1 344 223.1z" class="fa-secondary"/></svg>