<svg xmlns="http://www.w3.org/2000/svg" viewBox="0 0 512 512"><!--! Font Awesome Pro 6.2.0 by @fontawesome - https://fontawesome.com License - https://fontawesome.com/license (Commercial License) Copyright 2022 Fonticons, Inc. --><path d="M481.4 265.2L511.1 253.5C511.1 254.3 512 255.2 512 256C512 397.4 397.4 512 256 512C114.6 512 0 397.4 0 256C0 255.2 .0042 254.3 .0125 253.5L30.55 265.2C44.63 270.6 60.43 269.1 73.22 261.1L93.92 248.2C99.11 244.9 105.7 244.9 110.9 248.2L128.2 258.1C143.7 268.7 163.5 268.7 179 258.1L196.3 248.2C201.5 244.9 208.1 244.9 213.3 248.2L230.6 258.1C246.1 268.7 265.9 268.7 281.4 258.1L298.7 248.2C303.9 244.9 310.5 244.9 315.7 248.2L332.1 258.1C348.5 268.7 368.3 268.7 383.8 258.1L401.1 248.2C406.3 244.9 412.9 244.9 418.1 248.2L438.8 261.1C451.6 269.1 467.4 270.6 481.4 265.2L481.4 265.2zM176.4 368C194 368 208.4 353.7 208.4 336C208.4 318.3 194 303.1 176.4 303.1C158.7 303.1 144.4 318.3 144.4 336C144.4 353.7 158.7 368 176.4 368zM336.4 303.1C318.7 303.1 304.4 318.3 304.4 336C304.4 353.7 318.7 368 336.4 368C354 368 368.4 353.7 368.4 336C368.4 318.3 354 303.1 336.4 303.1zM245.3 384C215.9 384 192 407.9 192 437.3C192 443.2 196.8 448 202.7 448H309.3C315.2 448 320 443.2 320 437.3C320 407.9 296.1 384 266.7 384H245.3z" class="fa-secondary"/></svg>