<svg xmlns="http://www.w3.org/2000/svg" viewBox="0 0 512 512"><!--! Font Awesome Pro 6.2.0 by @fontawesome - https://fontawesome.com License - https://fontawesome.com/license (Commercial License) Copyright 2022 Fonticons, Inc. --><path d="M512 256C512 397.4 397.4 512 256 512C114.6 512 0 397.4 0 256C0 233.2 2.971 211.2 8.546 190.2C10.77 191.3 13.31 192 16 192H48V248C48 278.9 73.07 304 104 304H184C214.9 304 240 278.9 240 248V192H272V248C272 278.9 297.1 304 328 304H408C438.9 304 464 278.9 464 248V192H496C498.7 192 501.2 191.3 503.5 190.2C509 211.2 512 233.2 512 256zM139.9 362.5C162.2 388.1 200.9 416 256 416C311.1 416 349.8 388.1 372.1 362.5C377.9 355.8 377.2 345.7 370.5 339.9C363.8 334.1 353.7 334.8 347.9 341.5C329.1 362.2 299.4 384 255.1 384C212.6 384 182 362.2 164.1 341.5C158.3 334.8 148.2 334.1 141.5 339.9C134.8 345.7 134.1 355.8 139.9 362.5H139.9zM18.61 160C56.59 66.18 148.6 0 256 0C363.4 0 455.4 66.18 493.4 160H458.6C449.6 141.1 430.3 128 408 128H328C305.7 128 286.4 141.1 277.4 160H234.6C225.6 141.1 206.3 128 184 128H104C81.66 128 62.38 141.1 53.39 160H18.61z" class="fa-secondary"/></svg>