<svg xmlns="http://www.w3.org/2000/svg" viewBox="0 0 512 512"><!--! Font Awesome Pro 6.2.0 by @fontawesome - https://fontawesome.com License - https://fontawesome.com/license (Commercial License) Copyright 2022 Fonticons, Inc. --><path d="M0 256C0 114.6 114.6 0 256 0C397.4 0 512 114.6 512 256C512 397.4 397.4 512 256 512C114.6 512 0 397.4 0 256zM192 368C183.2 368 176 375.2 176 384C176 392.8 183.2 400 192 400H320C328.8 400 336 392.8 336 384C336 375.2 328.8 368 320 368H192zM160 160C124.7 160 96 188.7 96 224C96 259.3 124.7 288 160 288C195.3 288 224 259.3 224 224C224 188.7 195.3 160 160 160zM352 288C387.3 288 416 259.3 416 224C416 188.7 387.3 160 352 160C316.7 160 288 188.7 288 224C288 259.3 316.7 288 352 288z" class="fa-secondary"/></svg>