<svg xmlns="http://www.w3.org/2000/svg" viewBox="0 0 640 512"><!--! Font Awesome Pro 6.2.0 by @fontawesome - https://fontawesome.com License - https://fontawesome.com/license (Commercial License) Copyright 2022 Fonticons, Inc. --><path d="M228.9 495.3C245.9 473.7 256 446.4 256 416.8V386C274.1 394.4 295.4 400 319.1 400C344.6 400 365.9 394.4 384 386V416.8C384 446.4 394.1 473.7 411.1 495.3C382.8 506.1 352.1 512 319.1 512C287.9 512 257.2 506.1 228.9 495.3V495.3zM64.34 242.6C71.31 107.5 183.1 0 319.1 0C456.9 0 568.7 107.5 575.7 242.6C558.9 236.8 539.5 240.6 526.1 254.1L478.1 301.1C469.6 287.4 453.9 278.4 436 278.4C407.3 278.4 384 301.7 384 330.4V349.6C367.2 360.3 345.9 368 319.1 368C294.1 368 272.8 360.3 256 349.6V330.4C256 301.7 232.7 278.4 204 278.4C186.1 278.4 170.4 287.4 161 301.1L113.9 254.1C100.5 240.6 81.15 236.8 64.34 242.6L64.34 242.6zM290.5 231.6C293.8 230.5 295.1 227.4 295.1 224C295.1 206.1 289.3 188.4 279.4 175.2C269.6 162.2 255.5 152 239.1 152C224.5 152 210.4 162.2 200.6 175.2C190.7 188.4 183.1 206.1 183.1 224C183.1 227.4 186.2 230.5 189.5 231.6C192.7 232.7 196.3 231.6 198.4 228.8L198.4 228.8L198.6 228.5C198.8 228.3 198.1 228 199.3 227.6C199.1 226.8 200.9 225.7 202.1 224.3C204.6 221.4 208.1 217.7 212.3 213.1C221.1 206.2 231.2 200 239.1 200C248.8 200 258.9 206.2 267.7 213.1C271.9 217.7 275.4 221.4 277.9 224.3C279.1 225.7 280 226.8 280.7 227.6C281 228 281.2 228.3 281.4 228.5L281.6 228.8L281.6 228.8C283.7 231.6 287.3 232.7 290.5 231.6V231.6zM441.6 228.8C443.7 231.6 447.3 232.7 450.5 231.6C453.8 230.5 456 227.4 456 224C456 206.1 449.3 188.4 439.4 175.2C429.6 162.2 415.5 152 400 152C384.5 152 370.4 162.2 360.6 175.2C350.7 188.4 344 206.1 344 224C344 227.4 346.2 230.5 349.5 231.6C352.7 232.7 356.3 231.6 358.4 228.8L358.4 228.8L358.6 228.5C358.8 228.3 358.1 228 359.3 227.6C359.1 226.8 360.9 225.7 362.1 224.3C364.6 221.4 368.1 217.7 372.3 213.1C381.1 206.2 391.2 200 400 200C408.8 200 418.9 206.2 427.7 213.1C431.9 217.7 435.4 221.4 437.9 224.3C439.1 225.7 440 226.8 440.7 227.6C441 228 441.2 228.3 441.4 228.5L441.6 228.8L441.6 228.8z" class="fa-secondary"/></svg>