<svg xmlns="http://www.w3.org/2000/svg" viewBox="0 0 640 512"><!--! Font Awesome Pro 6.2.0 by @fontawesome - https://fontawesome.com License - https://fontawesome.com/license (Commercial License) Copyright 2022 Fonticons, Inc. --><path d="M212.7 192C209.9 196.7 208.4 202.2 208.4 208C208.4 225.7 222.7 240 240.4 240C258 240 272.4 225.7 272.4 208C272.4 198.6 268.3 190.1 261.8 184.3C296 169.6 320 135.6 320 96C320 55.77 295.2 21.31 260.1 7.036C279.3 2.436 299.4 0 320 0C461.4 0 576 114.6 576 256C576 270.8 574.7 285.3 572.3 299.5C558.3 287.3 540 280 520 280C509.1 280 500.3 281.9 491.5 285.2C471.6 267.1 445.1 256 416 256C364.6 256 321.2 290.7 308.1 337.9C260.2 347.2 224 389.4 224 440C224 462.5 231.1 483.3 243.3 500.3C139.4 467.7 64 370.6 64 256C64 233.9 66.8 212.5 72.06 192H212.7zM400.4 240C418 240 432.4 225.7 432.4 208C432.4 190.3 418 176 400.4 176C382.7 176 368.4 190.3 368.4 208C368.4 225.7 382.7 240 400.4 240z" class="fa-secondary"/></svg>