<svg xmlns="http://www.w3.org/2000/svg" viewBox="0 0 576 512"><!--! Font Awesome Pro 6.2.0 by @fontawesome - https://fontawesome.com License - https://fontawesome.com/license (Commercial License) Copyright 2022 Fonticons, Inc. --><path d="M32 256C32 114.6 146.6 0 288 0C429.4 0 544 114.6 544 256C544 258.8 543.1 261.6 543.9 264.5C541.2 264.2 538.5 264 535.8 264C514.4 264 495.2 273.3 482.1 288C481.4 288 480.7 288 480 288C448.5 288 422.3 310.7 416.1 340.7L374.8 353.4C361.3 357.4 352 369.9 352 384C352 398.1 361.3 410.6 374.8 414.6L416.1 427.3C419.6 441.7 426.1 454.5 437.5 463.8C395.4 494.1 343.8 512 288 512C146.6 512 32 397.4 32 256zM227.2 238.4C209.6 261.9 174.4 261.9 156.8 238.4C151.5 231.3 141.5 229.9 134.4 235.2C127.3 240.5 125.9 250.5 131.2 257.6C161.6 298.1 222.4 298.1 252.8 257.6C258.1 250.5 256.7 240.5 249.6 235.2C242.5 229.9 232.5 231.3 227.2 238.4zM326.4 235.2C319.3 240.5 317.9 250.5 323.2 257.6C353.6 298.1 414.4 298.1 444.8 257.6C450.1 250.5 448.7 240.5 441.6 235.2C434.5 229.9 424.5 231.3 419.2 238.4C401.6 261.9 366.4 261.9 348.8 238.4C343.5 231.3 333.5 229.9 326.4 235.2zM288 424C310.1 424 328 406.1 328 384C328 361.9 310.1 344 288 344C265.9 344 248 361.9 248 384C248 406.1 265.9 424 288 424z" class="fa-secondary"/></svg>