<svg xmlns="http://www.w3.org/2000/svg" viewBox="0 0 640 512"><!--! Font Awesome Pro 6.2.0 by @fontawesome - https://fontawesome.com License - https://fontawesome.com/license (Commercial License) Copyright 2022 Fonticons, Inc. --><path d="M576 256C576 397.4 461.4 512 320 512C178.6 512 64 397.4 64 256C64 114.6 178.6 0 320 0C461.4 0 576 114.6 576 256zM403.9 389.3C387.8 371.4 359.7 352 320 352C280.3 352 252.2 371.4 236.1 389.3C230.2 395.9 230.7 405.1 237.3 411.9C243.9 417.8 253.1 417.3 259.9 410.7C271.6 397.7 291.5 384 319.1 384C348.5 384 368.4 397.7 380.1 410.7C386 417.3 396.1 417.8 402.7 411.9C409.3 405.1 409.8 395.9 403.9 389.3H403.9zM240.4 304C258 304 272.4 289.7 272.4 272C272.4 270.5 272.3 269 272.1 267.6L282.9 271.2C291.3 273.1 300.4 269.4 303.2 261.1C305.1 252.7 301.4 243.6 293.1 240.8L197.1 208.8C188.7 206 179.6 210.6 176.8 218.9C174 227.3 178.6 236.4 186.9 239.2L217.7 249.4C211.9 255.2 208.4 263.2 208.4 272C208.4 289.7 222.7 304 240.4 304V304zM422.9 249.2L453.1 239.2C461.4 236.4 465.1 227.3 463.2 218.9C460.4 210.6 451.3 206 442.9 208.8L346.9 240.8C338.6 243.6 334 252.7 336.8 261.1C339.6 269.4 348.7 273.1 357.1 271.2L368.7 267.3C368.5 268.8 368.4 270.4 368.4 271.1C368.4 289.7 382.7 303.1 400.4 303.1C418 303.1 432.4 289.7 432.4 271.1C432.4 263.1 428.7 255 422.9 249.2L422.9 249.2z" class="fa-secondary"/></svg>