<svg xmlns="http://www.w3.org/2000/svg" viewBox="0 0 512 512"><!--! Font Awesome Pro 6.2.0 by @fontawesome - https://fontawesome.com License - https://fontawesome.com/license (Commercial License) Copyright 2022 Fonticons, Inc. --><path d="M0 256C0 114.6 114.6 0 256 0C397.4 0 512 114.6 512 256C512 397.4 397.4 512 256 512C114.6 512 0 397.4 0 256zM192 368C183.2 368 176 375.2 176 384C176 392.8 183.2 400 192 400H320C328.8 400 336 392.8 336 384C336 375.2 328.8 368 320 368H192zM160 152C120.2 152 88 184.2 88 224C88 263.8 120.2 296 160 296C199.8 296 232 263.8 232 224C232 184.2 199.8 152 160 152zM352 296C391.8 296 424 263.8 424 224C424 184.2 391.8 152 352 152C312.2 152 280 184.2 280 224C280 263.8 312.2 296 352 296z" class="fa-secondary"/></svg>