<svg xmlns="http://www.w3.org/2000/svg" viewBox="0 0 576 512"><!--! Font Awesome Pro 6.2.0 by @fontawesome - https://fontawesome.com License - https://fontawesome.com/license (Commercial License) Copyright 2022 Fonticons, Inc. --><path d="M542 224.1C540.5 224.3 538.1 224.7 537.5 225.4L423.1 276.2C414.4 263.1 400.2 255.1 384 255.1H191.1C175.8 255.1 161.6 263.1 152.9 276.2L38.5 225.4C37.02 224.7 35.49 224.3 33.97 224.1C49.66 97.78 157.4 0 287.1 0C418.6 0 526.3 97.78 542 224.1H542zM255.1 160C255.1 151.2 248.8 144 239.1 144C184.6 144 146.4 166.1 132.7 180.7C126.4 186.9 126.4 197.1 132.7 203.3C138.9 209.6 149.1 209.6 155.3 203.3C162.9 195.7 192.1 176 239.1 176C248.8 176 255.1 168.8 255.1 160L255.1 160zM443.3 203.3C449.6 197.1 449.6 186.9 443.3 180.7C429.6 166.1 391.4 143.1 336 143.1C327.2 143.1 320 151.2 320 159.1C320 168.8 327.2 175.1 336 175.1C383 175.1 413.1 195.7 420.7 203.3C426.9 209.6 437.1 209.6 443.3 203.3L443.3 203.3zM507.1 388.5C504.2 385.7 500.3 384 496 384H432V307.3L543.1 257.5C543.7 305.4 530.3 350.2 507.1 388.5H507.1zM287.1 512C207.2 512 135.1 474.5 88.15 416H146.7C153.3 434.6 171.1 448 191.1 448H384C404.9 448 422.7 434.6 429.3 416H487.9C440.9 474.5 368.8 512 287.1 512zM32 257.5L143.1 307.3V384H79.1C75.69 384 71.78 385.7 68.9 388.5C45.72 350.2 32.28 305.4 32 257.5z" class="fa-secondary"/></svg>