<svg xmlns="http://www.w3.org/2000/svg" viewBox="0 0 576 512"><!--! Font Awesome Pro 6.2.0 by @fontawesome - https://fontawesome.com License - https://fontawesome.com/license (Commercial License) Copyright 2022 Fonticons, Inc. --><path d="M544 256C544 397.4 429.4 512 288 512C188.5 512 102.2 455.2 59.83 372.2C62.31 368.4 64.59 364.7 66.56 361.5C68.48 358.4 70.09 355.7 71.29 353.1C100.4 310.8 135.9 272.4 176.4 240C176.4 257.7 190.7 271.1 208.4 271.1C226 271.1 240.4 257.7 240.4 239.1C240.4 225.9 231.2 213.9 218.5 209.6C227.5 203.8 236.7 198.3 246.1 193C259.1 192.3 273.9 191.1 288 191.1C371.4 191.1 451.9 204.3 527.8 227.1L542.9 231.6C543.6 239.6 544 247.8 544 255.1L544 256zM373.2 397.5C379.8 403.5 389.9 402.1 395.8 396.5C401.8 389.9 401.3 379.8 394.8 373.8C373.2 354.3 340.2 336 296 336C279.6 336 264.6 338.5 251.2 342.8C242.8 345.4 238.1 354.4 240.7 362.8C243.4 371.2 252.4 375.9 260.8 373.3C271.2 370 282.9 368 296 368C330.8 368 356.4 382.2 373.2 397.5zM368.4 272C386 272 400.4 257.7 400.4 240C400.4 222.3 386 208 368.4 208C350.7 208 336.4 222.3 336.4 240C336.4 257.7 350.7 272 368.4 272zM210.5 67.09C172.9 70.09 136 75.25 99.81 82.44C146.6 31.75 213.6 0 288 0C315.1 0 342.9 4.491 368.1 12.79C312.6 24.05 259.7 42.49 210.5 67.09V67.09z" class="fa-secondary"/></svg>