<svg xmlns="http://www.w3.org/2000/svg" viewBox="0 0 640 512"><!--! Font Awesome Pro 6.2.0 by @fontawesome - https://fontawesome.com License - https://fontawesome.com/license (Commercial License) Copyright 2022 Fonticons, Inc. --><path d="M576 256C576 397.4 461.4 512 320 512C178.6 512 64 397.4 64 256C64 114.6 178.6 0 320 0C461.4 0 576 114.6 576 256zM203.9 370.5C226.2 396.1 264.9 424 320 424C375.1 424 413.8 396.1 436.1 370.5C441.9 363.8 441.2 353.7 434.5 347.9C427.8 342.1 417.7 342.8 411.9 349.5C393.1 370.2 363.4 392 319.1 392C276.6 392 246 370.2 228.1 349.5C222.3 342.8 212.2 342.1 205.5 347.9C198.8 353.7 198.1 363.8 203.9 370.5H203.9zM240.4 304C258 304 272.4 289.7 272.4 272C272.4 270.5 272.3 269 272.1 267.6L282.9 271.2C291.3 273.1 300.4 269.4 303.2 261.1C305.1 252.7 301.4 243.6 293.1 240.8L197.1 208.8C188.7 206 179.6 210.6 176.8 218.9C174 227.3 178.6 236.4 186.9 239.2L217.7 249.4C211.9 255.2 208.4 263.2 208.4 272C208.4 289.7 222.7 304 240.4 304V304zM422.9 249.2L453.1 239.2C461.4 236.4 465.1 227.3 463.2 218.9C460.4 210.6 451.3 206 442.9 208.8L346.9 240.8C338.6 243.6 334 252.7 336.8 261.1C339.6 269.4 348.7 273.1 357.1 271.2L368.7 267.3C368.5 268.8 368.4 270.4 368.4 271.1C368.4 289.7 382.7 303.1 400.4 303.1C418 303.1 432.4 289.7 432.4 271.1C432.4 263.1 428.7 255 422.9 249.2L422.9 249.2z" class="fa-secondary"/></svg>