<svg xmlns="http://www.w3.org/2000/svg" viewBox="0 0 512 512"><!--! Font Awesome Pro 6.2.0 by @fontawesome - https://fontawesome.com License - https://fontawesome.com/license (Commercial License) Copyright 2022 Fonticons, Inc. --><path d="M385.9 449.9C404.1 431.8 404.7 402.8 387.8 384C404.7 365.2 404.1 336.2 385.9 318.1C384.9 317 383.8 316 382.7 315.1C386.4 299.4 382.2 282.3 369.9 270.1C358.6 258.7 342.9 254.2 328.1 256.6C310.5 236.6 284.7 223.1 256 223.1C217.8 223.1 184.8 246.3 169.3 278.7C167.6 278.5 165.8 278.4 164 278.4C135.3 278.4 112 301.7 112 330.4V416.8C112 438.7 117.5 459.3 127.3 477.4C51.17 432.1 0 350.5 0 256C0 114.6 114.6 0 256 0C397.4 0 512 114.6 512 256C512 369.1 438.7 465.1 336.9 498.9L385.9 449.9zM201.1 124.5C208.9 118.1 210 108.9 204.5 102C198.1 95.1 188.9 93.99 182 99.51L102 163.5C95.1 169 93.99 179.1 99.51 185.1C105 192.9 115.1 194 121.1 188.5L201.1 124.5zM307.5 102C301.1 108.9 303.1 118.1 310 124.5L390 188.5C396.9 194 406.1 192.9 412.5 185.1C418 179.1 416.9 169 409.1 163.5L329.1 99.51C323.1 93.99 313 95.1 307.5 102z" class="fa-secondary"/></svg>