<svg xmlns="http://www.w3.org/2000/svg" viewBox="0 0 512 512"><!--! Font Awesome Pro 6.2.0 by @fontawesome - https://fontawesome.com License - https://fontawesome.com/license (Commercial License) Copyright 2022 Fonticons, Inc. --><path d="M256 0C397.4 0 512 114.6 512 256C512 338.2 473.2 411.4 412.1 458.3C420.3 436.9 414.2 412.3 395.8 396.1C382.3 385.7 365 381.9 348.1 385.1C343.3 363.9 329.9 345.9 312 334.2V275.9C326.8 269 338.6 260.1 347.3 251.3C353.6 245.1 353.6 234.9 347.3 228.7C341.1 222.4 330.9 222.4 324.7 228.7C321 232.4 316.6 236.1 311.4 239.6C307.3 212.7 284.1 192 256 192C227.9 192 204.7 212.7 200.6 239.6C195.4 236.1 190.1 232.4 187.3 228.7C181.1 222.4 170.9 222.4 164.7 228.7C158.4 234.9 158.4 245.1 164.7 251.3C173.4 260.1 185.2 269 200 275.9V326C167.2 338.8 144 370.7 144 408V456C144 467.8 146.3 479.1 150.5 489.3C61.76 449.1 0 359.8 0 256C0 114.6 114.6 .0003 256 .0003L256 0zM176.4 160C194 160 208.4 145.7 208.4 128C208.4 110.3 194 96 176.4 96C158.7 96 144.4 110.3 144.4 128C144.4 145.7 158.7 160 176.4 160zM336.4 96C318.7 96 304.4 110.3 304.4 128C304.4 145.7 318.7 160 336.4 160C354 160 368.4 145.7 368.4 128C368.4 110.3 354 96 336.4 96z" class="fa-secondary"/></svg>