<svg xmlns="http://www.w3.org/2000/svg" viewBox="0 0 640 512"><!--! Font Awesome Pro 6.2.0 by @fontawesome - https://fontawesome.com License - https://fontawesome.com/license (Commercial License) Copyright 2022 Fonticons, Inc. --><path d="M516.2 305.5C458.6 353.5 428.4 423.5 418.2 492.5C387.1 505.1 354.8 512 319.1 512C285.2 512 252.1 505.1 221.9 492.5C211.7 423.5 181.4 353.5 123.9 305.5C107.8 292.1 86.67 286 66.05 288.6C64.7 277.9 64 267 64 256C64 114.6 178.6 0 320 0C461.4 0 576 114.6 576 256C576 267 575.3 277.9 573.1 288.5C553.3 286.1 532.3 292.1 516.2 305.5H516.2zM319.1 320C293.5 320 271.1 341.5 271.1 368V400C271.1 426.5 293.5 448 319.1 448C346.5 448 368 426.5 368 400V368C368 341.5 346.5 320 319.1 320zM264.7 149.3C237.5 134.4 197.1 152.2 174.6 189C152.1 225.9 156 267.8 183.3 282.7C210.5 297.6 250.9 279.8 273.4 242.1C295.9 206.1 291.1 164.2 264.7 149.3zM465.4 189C442.9 152.2 402.5 134.4 375.3 149.3C348 164.2 344.1 206.1 366.6 242.1C389.1 279.8 429.5 297.6 456.7 282.7C483.1 267.8 487.9 225.9 465.4 189z" class="fa-secondary"/></svg>