<svg xmlns="http://www.w3.org/2000/svg" viewBox="0 0 640 512"><!--! Font Awesome Pro 6.2.0 by @fontawesome - https://fontawesome.com License - https://fontawesome.com/license (Commercial License) Copyright 2022 Fonticons, Inc. --><path d="M524.2 145.1C533.4 154.3 545.3 159.3 557.4 159.9C569.4 189.6 576 222 576 255.1C576 293.4 567.1 329 553.5 361.1C526.5 345.8 491.6 349.8 468.7 372.9C442.8 398.9 441.2 439.9 463.8 467.8C422.8 495.7 373.3 512 320 512C258.7 512 202.4 490.4 158.3 454.4L171.3 441.3C198.9 413.6 198.9 368.7 171.3 340.9C146.5 315.1 107.7 313.4 80.04 333.3C78.34 332 76.59 330.9 74.81 329.8C67.78 306.5 64 281.7 64 256C64 114.6 178.6 0 320 0C366.7 0 410.5 12.5 448.2 34.34C446.9 54.04 453.7 74.18 468.7 89.25L524.2 145.1zM228.1 325.5C222.3 318.8 212.2 318.1 205.5 323.9C198.8 329.7 198.1 339.8 203.9 346.5C226.1 372.1 264.9 400 319.1 400C375.1 400 413.8 372.1 436.1 346.5C441.9 339.8 441.2 329.7 434.5 323.9C427.8 318.1 417.7 318.8 411.9 325.5C393.9 346.2 363.4 368 319.1 368C276.6 368 246 346.2 228.1 325.5H228.1zM297.6 236.8C304.7 231.5 306.1 221.5 300.8 214.4C270.4 173.9 209.6 173.9 179.2 214.4C173.9 221.5 175.3 231.5 182.4 236.8C189.5 242.1 199.5 240.7 204.8 233.6C222.4 210.1 257.6 210.1 275.2 233.6C280.5 240.7 290.5 242.1 297.6 236.8zM364.8 233.6C382.4 210.1 417.6 210.1 435.2 233.6C440.5 240.7 450.5 242.1 457.6 236.8C464.7 231.5 466.1 221.5 460.8 214.4C430.4 173.9 369.6 173.9 339.2 214.4C333.9 221.5 335.3 231.5 342.4 236.8C349.5 242.1 359.5 240.7 364.8 233.6z" class="fa-secondary"/></svg>