<svg xmlns="http://www.w3.org/2000/svg" viewBox="0 0 512 512"><!--! Font Awesome Pro 6.2.0 by @fontawesome - https://fontawesome.com License - https://fontawesome.com/license (Commercial License) Copyright 2022 Fonticons, Inc. --><path d="M163.1 494.6C67.66 457.5 0 364.6 0 256C0 114.6 114.6 0 256 0C397.4 0 512 114.6 512 256C512 364.6 444.3 457.5 348.9 494.6C360.9 476.8 368 455.2 368 432V421.5C390.4 401.4 407 375.4 415.2 346.1C419.1 332.4 407.8 320 393.6 320H118.4C104.2 320 92.92 332.4 96.76 346.1C104.1 375.4 121.6 401.4 144 421.5V432C144 455.2 151.1 476.8 163.1 494.6H163.1zM160 104V113.3C154.3 114.5 148.4 116.6 143 120.5C135.5 125.9 130.4 133.1 128.6 144.1C127.4 151.4 127.9 158.6 130.9 165.3C133.8 171.9 138.5 176.5 143.3 179.9C151.6 185.7 162.6 188.8 170.5 191.1L171.6 191.4C181.2 194.1 186.1 195.1 190.4 198.4C193 200.2 192.6 204.8 189.9 206.4L189.8 206.4C188.7 207.1 186 207.1 181.1 207.9C170.9 207.8 158.5 203.1 149.1 200.8C140.7 198 131.6 202.6 128.8 210.9C126 219.3 130.6 228.4 138.1 231.2C144 232.9 151.6 235.3 160 237.2V248C160 256.8 167.2 264 176 264C184.8 264 192 256.8 192 248V239.1C196.8 238.2 201.8 236.6 206.4 233.8C215.5 228.3 221.4 219.4 223.4 207.9C224.6 200.6 224.1 193.4 221.1 186.7C218.2 180.1 213.5 175.5 208.7 172.1C201.6 167.2 193.2 164.9 184.8 162.7C176.6 160.6 168.4 158.4 161.6 153.6C159.2 151.1 159.2 148.3 161.8 146.4C162.8 145.7 164.9 144.7 168.9 144.3C177.1 143.4 187.6 145.3 195.9 147.5C204.4 149.7 213.2 144.7 215.5 136.1C217.7 127.6 212.7 118.8 204.1 116.5C200.7 115.6 196.6 114.7 192 113.8V104C192 95.16 184.8 88 176 88C167.2 88 160 95.16 160 104L160 104zM352 104C352 95.16 344.8 88 336 88C327.2 88 320 95.16 320 104V113.3C314.3 114.5 308.4 116.6 303 120.5C295.5 125.9 290.4 133.1 288.6 144.1C287.4 151.4 287.9 158.6 290.9 165.3C293.8 171.9 298.5 176.5 303.3 179.9C311.6 185.7 322.6 188.8 330.5 191.1L331.6 191.4C341.2 194.1 346.1 195.1 350.4 198.4C353 200.2 352.6 204.8 349.9 206.4L349.8 206.4C348.7 207.1 346 207.1 341.1 207.9C330.9 207.8 318.5 203.1 309.1 200.8C300.7 198 291.6 202.6 288.8 210.9C286 219.3 290.6 228.4 298.1 231.2C304 232.9 311.6 235.3 320 237.2V248C320 256.8 327.2 264 336 264C344.8 264 352 256.8 352 248V239.1C356.8 238.2 361.8 236.6 366.4 233.8C375.5 228.3 381.4 219.4 383.4 207.9C384.6 200.6 384.1 193.4 381.1 186.7C378.2 180.1 373.5 175.5 368.7 172.1C361.6 167.2 353.2 164.9 344.9 162.7C336.6 160.6 328.4 158.4 321.6 153.6C319.2 151.1 319.2 148.3 321.8 146.4C322.8 145.7 324.9 144.7 328.9 144.3C337.1 143.4 347.6 145.3 355.9 147.5C364.4 149.7 373.2 144.7 375.5 136.1C377.7 127.6 372.7 118.8 364.1 116.5C360.7 115.6 356.6 114.7 352 113.8L352 104z" class="fa-secondary"/></svg>