<svg xmlns="http://www.w3.org/2000/svg" viewBox="0 0 512 512"><!--! Font Awesome Pro 6.2.0 by @fontawesome - https://fontawesome.com License - https://fontawesome.com/license (Commercial License) Copyright 2022 Fonticons, Inc. --><path d="M512 256C512 369.1 438.7 465.1 336.9 498.9L385.9 449.9C404.1 431.8 404.7 402.8 387.8 384C404.7 365.2 404.1 336.2 385.9 318.1C384.9 317 383.8 316 382.7 315.1C386.4 299.4 382.2 282.3 369.9 270.1C357.7 257.8 340.6 253.6 324.9 257.3C323.1 256.2 322.1 255.1 321.9 254.1C303.2 235.3 272.8 235.3 254.1 254.1L206.1 301.1C197.6 287.4 181.9 278.4 164 278.4C135.3 278.4 112 301.7 112 330.4V416.8C112 438.7 117.5 459.3 127.3 477.3C51.17 432.1 0 350.5 0 256C0 114.6 114.6 0 256 0C397.4 0 512 114.6 512 256zM176.4 160C158.7 160 144.4 174.3 144.4 192C144.4 209.7 158.7 224 176.4 224C194 224 208.4 209.7 208.4 192C208.4 174.3 194 160 176.4 160zM336.4 224C354 224 368.4 209.7 368.4 192C368.4 174.3 354 160 336.4 160C318.7 160 304.4 174.3 304.4 192C304.4 209.7 318.7 224 336.4 224z" class="fa-secondary"/></svg>