<svg xmlns="http://www.w3.org/2000/svg" viewBox="0 0 576 512"><!--! Font Awesome Pro 6.2.0 by @fontawesome - https://fontawesome.com License - https://fontawesome.com/license (Commercial License) Copyright 2022 Fonticons, Inc. --><path d="M448.8 434.9C436.9 430.1 427.3 422.6 421.6 412C438.3 399.4 448 384.3 448 368C448 323.8 376.4 288 288 288C199.6 288 128 323.8 128 368C128 384.3 137.7 399.4 154.4 412C148.7 422.6 139.1 430.1 127.2 434.9L110.5 440.5C62.12 393.9 32 328.5 32 256C32 114.6 146.6 0 288 0C429.4 0 544 114.6 544 256C544 328.5 513.9 393.9 465.5 440.5L448.8 434.9zM165.5 130.7C157.6 126.4 148 132.2 148 141.1C148 143.9 148.1 146.6 150.8 148.8L186.8 192L150.8 235.2C148.1 237.4 148 240.1 148 242.9C148 251.8 157.6 257.6 165.5 253.3L255.4 205.4C266.1 199.7 266.1 184.3 255.4 178.6L165.5 130.7zM428 141.1C428 132.2 418.4 126.4 410.5 130.7L320.6 178.6C309.9 184.3 309.9 199.7 320.6 205.4L410.5 253.3C418.4 257.6 428 251.8 428 242.9C428 240.1 427 237.4 425.2 235.2L389.2 192L425.2 148.8C427 146.6 428 143.9 428 141.1V141.1z" class="fa-secondary"/></svg>