<svg xmlns="http://www.w3.org/2000/svg" viewBox="0 0 640 512"><!--! Font Awesome Pro 6.2.0 by @fontawesome - https://fontawesome.com License - https://fontawesome.com/license (Commercial License) Copyright 2022 Fonticons, Inc. --><path d="M545.5 134.7C529.6 128.2 510.7 131.4 497.8 144.3C490.4 151.7 486.2 160.1 485.2 170.5L447.2 143.5C436.4 135.7 422.1 134.1 411.2 138.1C405 136.7 398.6 136 392 136C343.4 136 304 175.4 304 224C304 264.3 331.1 298.3 368.1 308.7C368 309.8 368 310.9 368 311.1C368 334.1 385.9 352 408 352H416C416 352.3 416 352.6 416 352.9C416 374.1 433.9 392.9 456 392.9H520.8C526.3 392.9 531.7 392.5 537.1 391.8C491.8 463.1 411.5 512 320 512C210.4 512 116.1 443.2 80.43 346.4C92.79 350.7 105.9 352.9 119.2 352.9H183.1C206.1 352.9 223.1 334.1 223.1 312.9C223.1 312.6 223.1 312.3 223.1 312H232C254.1 312 272 294.1 272 272C272 269.4 271.8 266.9 271.3 264.5C281.4 257.3 288 245.4 288 231.1C288 218.6 281.4 206.7 271.3 199.5C271.8 197.1 272 194.6 272 192C272 169.9 254.1 152 232 152H156.8L158.2 150.5C175.4 133.4 175.4 105.5 158.2 88.32C152.3 82.35 144.1 78.45 137.3 76.63C183.8 29.34 248.5 0 320 0C417.5 0 502.2 54.49 545.5 134.7V134.7zM320 352C284.7 352 256 373.5 256 400C256 426.5 284.7 448 320 448C355.3 448 384 426.5 384 400C384 373.5 355.3 352 320 352zM416.4 224C416.4 230.1 414.1 235.8 410.3 240H374.5C370.7 235.8 368.4 230.1 368.4 224C368.4 210.7 379.1 200 392.4 200C405.6 200 416.4 210.7 416.4 224H416.4z" class="fa-secondary"/></svg>