<svg xmlns="http://www.w3.org/2000/svg" viewBox="0 0 512 512"><!--! Font Awesome Pro 6.2.0 by @fontawesome - https://fontawesome.com License - https://fontawesome.com/license (Commercial License) Copyright 2022 Fonticons, Inc. --><path d="M512 256C512 290.9 505 324.1 492.4 354.4L440.6 328.5C422.1 319.3 399.8 322.9 385.2 337.5L369.5 353.2C354.9 367.8 351.3 390.1 360.5 408.6L389.6 466.7C390.6 468.7 391.6 470.6 392.7 472.5C353.2 497.5 306.3 512 256 512C114.6 512 0 397.4 0 256C0 114.6 114.6 0 256 0C397.4 0 512 114.6 512 256zM176.4 176C158.7 176 144.4 190.3 144.4 208C144.4 225.7 158.7 240 176.4 240C194 240 208.4 225.7 208.4 208C208.4 190.3 194 176 176.4 176zM336.4 240C354 240 368.4 225.7 368.4 208C368.4 190.3 354 176 336.4 176C318.7 176 304.4 190.3 304.4 208C304.4 225.7 318.7 240 336.4 240zM112 336V368C112 376.8 119.2 384 128 384C136.8 384 144 376.8 144 368V336C144 327.2 136.8 320 128 320C119.2 320 112 327.2 112 336zM208 336C208 327.2 200.8 320 192 320C183.2 320 176 327.2 176 336V368C176 376.8 183.2 384 192 384C200.8 384 208 376.8 208 368V336zM240 336V368C240 376.8 247.2 384 256 384C264.8 384 272 376.8 272 368V336C272 327.2 264.8 320 256 320C247.2 320 240 327.2 240 336zM336 336C336 327.2 328.8 320 320 320C311.2 320 304 327.2 304 336V368C304 376.8 311.2 384 320 384C328.8 384 336 376.8 336 368V336z" class="fa-secondary"/></svg>