<svg xmlns="http://www.w3.org/2000/svg" viewBox="0 0 512 512"><!--! Font Awesome Pro 6.2.0 by @fontawesome - https://fontawesome.com License - https://fontawesome.com/license (Commercial License) Copyright 2022 Fonticons, Inc. --><path d="M256 192C339 192 413.9 178.3 466.4 156.5C485.3 190.7 496 230.1 496 272C496 404.5 388.5 512 256 512C123.5 512 16 404.5 16 272C16 230.1 26.73 190.7 45.58 156.5C98.14 178.3 172.1 192 256 192zM139.9 378.5C162.2 404.1 200.9 432 256 432C311.1 432 349.8 404.1 372.1 378.5C377.9 371.8 377.2 361.7 370.5 355.9C363.8 350.1 353.7 350.8 347.9 357.5C329.1 378.2 299.4 400 255.1 400C212.6 400 182 378.2 164.1 357.5C158.3 350.8 148.2 350.1 141.5 355.9C134.8 361.7 134.1 371.8 139.9 378.5H139.9zM217.6 300.8C219.7 303.6 223.3 304.7 226.5 303.6C229.8 302.5 231.1 299.4 231.1 296C231.1 278.1 225.3 260.4 215.4 247.2C205.6 234.2 191.5 224 175.1 224C160.5 224 146.4 234.2 136.6 247.2C126.7 260.4 119.1 278.1 119.1 296C119.1 299.4 122.2 302.5 125.5 303.6C128.7 304.7 132.3 303.6 134.4 300.8L134.4 300.8L134.6 300.5C134.8 300.3 134.1 300 135.3 299.6C135.1 298.8 136.9 297.7 138.1 296.3C140.6 293.4 144.1 289.7 148.3 285.1C157.1 278.2 167.2 272 176 272C184.8 272 194.9 278.2 203.7 285.1C207.9 289.7 211.4 293.4 213.9 296.3C215.1 297.7 216 298.8 216.7 299.6C217 300 217.2 300.3 217.4 300.5L217.6 300.8L217.6 300.8zM386.5 303.6C389.8 302.5 392 299.4 392 296C392 278.1 385.3 260.4 375.4 247.2C365.6 234.2 351.5 224 336 224C320.5 224 306.4 234.2 296.6 247.2C286.7 260.4 280 278.1 280 296C280 299.4 282.2 302.5 285.5 303.6C288.7 304.7 292.3 303.6 294.4 300.8L294.4 300.8L294.6 300.5C294.8 300.3 294.1 300 295.3 299.6C295.1 298.8 296.9 297.7 298.1 296.3C300.6 293.4 304.1 289.7 308.3 285.1C317.1 278.2 327.2 272 336 272C344.8 272 354.9 278.2 363.7 285.1C367.9 289.7 371.4 293.4 373.9 296.3C375.1 297.7 376 298.8 376.7 299.6C377 300 377.2 300.3 377.4 300.5L377.6 300.8L377.6 300.8C379.7 303.6 383.3 304.7 386.5 303.6V303.6z" class="fa-secondary"/></svg>