<svg xmlns="http://www.w3.org/2000/svg" viewBox="0 0 448 512"><!--! Font Awesome Pro 6.2.0 by @fontawesome - https://fontawesome.com License - https://fontawesome.com/license (Commercial License) Copyright 2022 Fonticons, Inc. --><path d="M224 0C109.1 0 16 93.13 16 208c0 103.1 76.42 189.8 176 205.2V448h64v-34.8C355.6 397.8 432 311.1 432 208C432 93.13 338.9 0 224 0zM379.4 249.4C375.1 253 369.5 254.5 364.1 253.6l-104.8-17.5c4.25 22 .5 44.75-10.62 64.13c-26.12 45.13-83.88 60.63-129.1 34.5c-7-4-14.5-16.75-5.125-28.25l67.5-82c-57.12-20.25-69.12-77.25-59.62-113c6.375-24.25 22.25-44.88 44-57.38c13-7.375 24.25 2.375 27 9.75l37.13 99c28-23.88 67.38-29.25 100.9-13.75c33.38 15.5 54.75 49 54.62 85.88C385.1 240.5 383.6 245.8 379.4 249.4z" class="fa-secondary"/></svg>