<svg xmlns="http://www.w3.org/2000/svg" viewBox="0 0 576 512"><!--! Font Awesome Pro 6.2.0 by @fontawesome - https://fontawesome.com License - https://fontawesome.com/license (Commercial License) Copyright 2022 Fonticons, Inc. --><path d="M162.4 258.1L211.3 139.4C214.3 132.1 219.1 126.1 227.2 122.7L354.3 62.49C362.1 58.38 373 58.38 381.7 62.49L508.8 122.7C516 126.1 521.7 132.1 524.7 139.4L573.6 258.1C575.2 262 576 266.2 576 270.3V480C576 497.7 561.7 512 544 512H432V448C432 421.5 410.5 400 384 400H352C325.5 400 304 421.5 304 448V512H192C174.3 512 160 497.7 160 480V270.3C160 266.2 160.8 262 162.4 258.1H162.4zM344 224C330.7 224 320 234.7 320 248V296C320 309.3 330.7 320 344 320H392C405.3 320 416 309.3 416 296V248C416 234.7 405.3 224 392 224H344z" class="fa-secondary"/></svg>