<svg xmlns="http://www.w3.org/2000/svg" viewBox="0 0 512 512"><!--! Font Awesome Pro 6.2.0 by @fontawesome - https://fontawesome.com License - https://fontawesome.com/license (Commercial License) Copyright 2022 Fonticons, Inc. --><path d="M352 192h-38.54c-16-12.8-35.06-22.4-57.46-28.8v-48L224 112L192 115.2v48C169.6 169.6 150.5 179.2 134.5 192H16C6.4 192 0 198.4 0 208v96C0 313.6 6.4 320 16 320h92.78C127.1 358.4 172.8 384 224 384s96.02-25.6 115.2-64H352c19.2 0 32 12.71 32 31.91C384 371.1 396.8 384 416 384h64c19.2 0 32-12.8 32-32C512 262.4 441.6 192 352 192zM256 44.8V16C256 6.4 249.6 0 240 0h-32C198.4 0 192 6.4 192 16v28.8L224 48L256 44.8z" class="fa-secondary"/></svg>