<svg xmlns="http://www.w3.org/2000/svg" viewBox="0 0 512 512"><!--! Font Awesome Pro 6.2.0 by @fontawesome - https://fontawesome.com License - https://fontawesome.com/license (Commercial License) Copyright 2022 Fonticons, Inc. --><path d="M272 256h-32C231.1 256 224 263.1 224 272v32C224 312.9 231.1 320 240 320h32c8.875 0 16-7.125 16-16v-32C288 263.1 280.9 256 272 256zM272 384h-32C231.1 384 224 391.1 224 400v32C224 440.9 231.1 448 240 448h32c8.875 0 16-7.125 16-16v-32C288 391.1 280.9 384 272 384zM400 384h-32c-8.875 0-16 7.125-16 16v32c0 8.875 7.125 16 16 16h32c8.875 0 16-7.125 16-16v-32C416 391.1 408.9 384 400 384zM400 256h-32C359.1 256 352 263.1 352 272v32c0 8.875 7.125 16 16 16h32c8.875 0 16-7.125 16-16v-32C416 263.1 408.9 256 400 256zM470.6 54.63l-45.25-45.25C419.4 3.375 411.2 0 402.8 0H160C142.3 0 128 14.33 128 32v160h64V64h197.5L416 90.51V192h64V77.25C480 68.77 476.6 60.63 470.6 54.63z" class="fa-secondary"/></svg>