<svg xmlns="http://www.w3.org/2000/svg" viewBox="0 0 384 512"><!--! Font Awesome Pro 6.2.0 by @fontawesome - https://fontawesome.com License - https://fontawesome.com/license (Commercial License) Copyright 2022 Fonticons, Inc. --><path d="M256 128V0H48C21.49 0 0 21.49 0 48v416C0 490.5 21.49 512 48 512h288c26.51 0 48-21.49 48-48V128H256zM272.1 367c9.375 9.375 9.375 24.56 0 33.94c-9.383 9.379-24.56 9.371-33.94 0L192 353.9l-47.03 47.03c-9.383 9.379-24.56 9.371-33.94 0c-9.375-9.375-9.375-24.56 0-33.94L158.1 320L111 272.1c-9.375-9.375-9.375-24.56 0-33.94s24.56-9.375 33.94 0L192 286.1l47.03-47.03c9.375-9.375 24.56-9.375 33.94 0s9.375 24.56 0 33.94L225.9 320L272.1 367z" class="fa-secondary"/></svg>