<svg xmlns="http://www.w3.org/2000/svg" viewBox="0 0 512 512"><!--! Font Awesome Pro 6.2.0 by @fontawesome - https://fontawesome.com License - https://fontawesome.com/license (Commercial License) Copyright 2022 Fonticons, Inc. --><path d="M512 128v336c0 26.51-21.49 48-48 48h-288C149.5 512 128 490.5 128 464v-128h174.1l-39.03 39.03C258.3 379.7 256 385.8 256 392s2.344 12.28 7.031 16.97c9.375 9.375 24.56 9.375 33.94 0l80-80c9.375-9.375 9.375-24.56 0-33.94l-80-80c-9.375-9.375-24.56-9.375-33.94 0s-9.375 24.56 0 33.94L302.1 288H128V48C128 21.49 149.5 0 176 0H384v128H512z" class="fa-secondary"/></svg>