<svg xmlns="http://www.w3.org/2000/svg" viewBox="0 0 384 512"><!--! Font Awesome Pro 6.2.0 by @fontawesome - https://fontawesome.com License - https://fontawesome.com/license (Commercial License) Copyright 2022 Fonticons, Inc. --><path d="M256 128V0H48C21.49 0 0 21.49 0 48v416C0 490.5 21.49 512 48 512h288c26.51 0 48-21.49 48-48V128H256zM256 432H128c-8.844 0-16-7.156-16-16s7.156-16 16-16h128c8.844 0 16 7.156 16 16S264.8 432 256 432zM256 288h-48v48c0 8.844-7.156 16-16 16s-16-7.156-16-16V288H128C119.2 288 112 280.8 112 272S119.2 256 128 256h48V208C176 199.2 183.2 192 192 192s16 7.156 16 16V256H256c8.844 0 16 7.156 16 16S264.8 288 256 288z" class="fa-secondary"/></svg>