<svg xmlns="http://www.w3.org/2000/svg" viewBox="0 0 384 512"><!--! Font Awesome Pro 6.2.0 by @fontawesome - https://fontawesome.com License - https://fontawesome.com/license (Commercial License) Copyright 2022 Fonticons, Inc. --><path d="M256 128V0H48C21.49 0 0 21.49 0 48v416C0 490.5 21.49 512 48 512h288c26.51 0 48-21.49 48-48V128H256zM272 416h-160C103.2 416 96 408.8 96 400S103.2 384 112 384h160c8.836 0 16 7.164 16 16S280.8 416 272 416zM272 352h-160C103.2 352 96 344.8 96 336S103.2 320 112 320h160c8.836 0 16 7.164 16 16S280.8 352 272 352zM272 288h-160C103.2 288 96 280.8 96 272S103.2 256 112 256h160C280.8 256 288 263.2 288 272S280.8 288 272 288z" class="fa-secondary"/></svg>