<svg xmlns="http://www.w3.org/2000/svg" viewBox="0 0 384 512"><!--! Font Awesome Pro 6.2.0 by @fontawesome - https://fontawesome.com License - https://fontawesome.com/license (Commercial License) Copyright 2022 Fonticons, Inc. --><path d="M204 288H160v56h44c15.44 0 28-12.56 28-28S219.4 288 204 288zM256 128V0H48C21.49 0 0 21.49 0 48v416C0 490.5 21.49 512 48 512h288c26.51 0 48-21.49 48-48V128H256zM204 392H160v40C160 440.8 152.8 448 144 448H128c-8.836 0-16-7.164-16-16V256c0-8.836 7.164-16 16-16h71.51c39.75 0 76.05 28.52 80.08 68.05C284.2 353.5 248.5 392 204 392z" class="fa-secondary"/></svg>