<svg xmlns="http://www.w3.org/2000/svg" viewBox="0 0 448 512"><!--! Font Awesome Pro 6.2.0 by @fontawesome - https://fontawesome.com License - https://fontawesome.com/license (Commercial License) Copyright 2022 Fonticons, Inc. --><path d="M352 96V0H144C117.5 0 96 21.49 96 48v320C96 394.5 117.5 416 144 416h256c26.51 0 48-21.49 48-48V96H352zM368 274.3C368 281.9 361.9 288 354.3 288H304v50.29C304 345.9 297.9 352 290.3 352h-36.57C246.1 352 240 345.9 240 338.3V288H189.7C182.1 288 176 281.9 176 274.3V237.7C176 230.1 182.1 224 189.7 224H240V173.7C240 166.1 246.1 160 253.7 160h36.57C297.9 160 304 166.1 304 173.7V224h50.29C361.9 224 368 230.1 368 237.7V274.3z" class="fa-secondary"/></svg>