<svg xmlns="http://www.w3.org/2000/svg" viewBox="0 0 384 512"><!--! Font Awesome Pro 6.2.0 by @fontawesome - https://fontawesome.com License - https://fontawesome.com/license (Commercial License) Copyright 2022 Fonticons, Inc. --><path d="M256 128V0H48C21.49 0 0 21.49 0 48v416C0 490.5 21.49 512 48 512h288c26.51 0 48-21.49 48-48V128H256zM288 384c0 17.62-21.5 32-48 32S192 401.6 192 384s21.5-32 48-32c5.375 0 10.75 .7498 16 2V277.6l-96 37.5V416c0 17.62-21.5 32-48 32S64 433.6 64 416s21.5-32 48-32c5.375 0 10.75 .7498 16 2V271.3C128 264.3 132.5 258.1 139.3 256l128-47.25C272 207.3 277.4 208.1 281.5 211.1S288 218.9 288 224V384z" class="fa-secondary"/></svg>