<svg xmlns="http://www.w3.org/2000/svg" viewBox="0 0 384 512"><!--! Font Awesome Pro 6.2.0 by @fontawesome - https://fontawesome.com License - https://fontawesome.com/license (Commercial License) Copyright 2022 Fonticons, Inc. --><path d="M256 128V0H48C21.49 0 0 21.49 0 48v416C0 490.5 21.49 512 48 512h288c26.51 0 48-21.49 48-48V128H256zM168 216C168 202.8 178.8 192 192 192s24 10.75 24 24v112c0 13.25-10.75 24-24 24s-24-10.75-24-24V216zM192 448c-17.67 0-32-14.33-32-32c0-17.67 14.33-32 32-32s32 14.33 32 32C224 433.7 209.7 448 192 448z" class="fa-secondary"/></svg>