<svg xmlns="http://www.w3.org/2000/svg" viewBox="0 0 384 512"><!--! Font Awesome Pro 6.2.0 by @fontawesome - https://fontawesome.com License - https://fontawesome.com/license (Commercial License) Copyright 2022 Fonticons, Inc. --><path d="M256 128V0H48C21.49 0 0 21.49 0 48v416C0 490.5 21.49 512 48 512h288c26.51 0 48-21.49 48-48V128H256zM96 32h64v32H96V32zM96 96h64v32H96V96zM96 160h64v32H96V160zM128.3 415.1c-40.56 0-70.76-36.45-62.83-75.45L96 224h64l30.94 116.9C198.7 379.7 168.5 415.1 128.3 415.1z" class="fa-secondary"/></svg>