<svg xmlns="http://www.w3.org/2000/svg" viewBox="0 0 512 512"><!--! Font Awesome Pro 6.2.0 by @fontawesome - https://fontawesome.com License - https://fontawesome.com/license (Commercial License) Copyright 2022 Fonticons, Inc. --><path d="M384 128V0H176C149.5 0 128 21.49 128 48l.0007 84.94c1.732-.3867 3.804-1.012 6.679-1.793l3.795-1.031c5.186-1.406 10.54-2.121 15.9-2.121c16.23 0 32.1 6.676 43.55 18.32l2.742 2.793c2.17 2.219 3.688 3.867 5.027 5.102c1.691 .5547 3.809 1.066 6.703 1.855l3.85 1.055c21.1 5.781 37.55 22.42 43.14 43.57l1.124 4.252c.791 3.008 1.293 5.18 1.854 6.91c1.24 1.41 2.92 3.004 5.209 5.324l2.412 2.445c15.56 15.77 21.62 38.48 15.88 59.88l-.852 3.175c-.8926 3.328-1.596 5.645-1.984 7.559C283.4 292 284 294.1 284.8 297.1l1.084 4.125c5.711 21.29-.3828 44.15-15.72 59.48l-2.875 2.914c-2.154 2.18-3.754 3.703-4.949 5.047c-.5605 1.746-1.066 3.941-1.861 6.977l-.9824 3.727c-4.748 18.77-18.02 34.06-35.52 41.47L223.1 512H464c26.51 0 48-21.49 48-48V128H384z" class="fa-secondary"/></svg>