<svg xmlns="http://www.w3.org/2000/svg" viewBox="0 0 384 512"><!--! Font Awesome Pro 6.2.0 by @fontawesome - https://fontawesome.com License - https://fontawesome.com/license (Commercial License) Copyright 2022 Fonticons, Inc. --><path d="M256 128V0H48C21.49 0 0 21.49 0 48v416C0 490.5 21.49 512 48 512h288c26.51 0 48-21.49 48-48V128H256zM288.1 360.1l-80 80c-9.375 9.375-24.56 9.375-33.94 0l-80-80c-9.375-9.375-9.375-24.56 0-33.94C99.72 322.3 105.8 320 112 320s12.28 2.344 16.97 7.031L168 366.1V248C168 234.8 178.8 224 192 224s24 10.75 24 24v118.1l39.03-39.03c9.375-9.375 24.56-9.375 33.94 0S298.3 351.6 288.1 360.1z" class="fa-secondary"/></svg>