<svg xmlns="http://www.w3.org/2000/svg" viewBox="0 0 384 512"><!--! Font Awesome Pro 6.2.0 by @fontawesome - https://fontawesome.com License - https://fontawesome.com/license (Commercial License) Copyright 2022 Fonticons, Inc. --><path d="M256 128V0H48C21.49 0 0 21.49 0 48v416C0 490.5 21.49 512 48 512h288c26.51 0 48-21.49 48-48V128H256zM272 359.1h-56v56C215.1 429.3 205.3 440 192 440c-13.27 0-24-10.74-24-23.1V359.1H111.1C98.73 359.1 88 349.3 88 336c0-13.26 10.74-23.1 23.1-23.1H168V255.1C168 242.7 178.7 232 192 232s23.1 10.74 23.1 23.1V312H272c13.26 0 24 10.74 24 23.1S285.3 359.1 272 359.1z" class="fa-secondary"/></svg>