<svg xmlns="http://www.w3.org/2000/svg" viewBox="0 0 384 512"><!--! Font Awesome Pro 6.2.0 by @fontawesome - https://fontawesome.com License - https://fontawesome.com/license (Commercial License) Copyright 2022 Fonticons, Inc. --><path d="M144 272h-32C103.2 272 96 279.2 96 288v80C96 376.8 103.2 384 112 384h32C152.8 384 160 376.8 160 368V288C160 279.2 152.8 272 144 272zM256 128V0H48C21.49 0 0 21.49 0 48v416C0 490.5 21.49 512 48 512h288c26.51 0 48-21.49 48-48V128H256zM192 368c0 26.47-21.53 48-48 48h-32C85.53 416 64 394.5 64 368V288c0-26.47 21.53-48 48-48h32C170.5 240 192 261.5 192 288V368zM304 416h-64c-8.844 0-16-7.156-16-16s7.156-16 16-16H256V272h-16C231.2 272 224 264.8 224 256s7.156-16 16-16h32C280.8 240 288 247.2 288 256v128h16c8.844 0 16 7.156 16 16S312.8 416 304 416z" class="fa-secondary"/></svg>