<svg xmlns="http://www.w3.org/2000/svg" viewBox="0 0 640 512"><!--! Font Awesome Pro 6.2.0 by @fontawesome - https://fontawesome.com License - https://fontawesome.com/license (Commercial License) Copyright 2022 Fonticons, Inc. --><path d="M400 416h-160C231.2 416 224 408.8 224 400v-96C224 295.2 231.2 288 240 288h4.082L176 234.6V280C176 284.4 172.4 288 168 288h-48C115.6 288 112 284.4 112 280v-48C112 227.6 115.6 224 120 224h42.43L64 146.9V432C64 458.5 85.49 480 112 480h377l-83.17-65.19C404.1 415.5 402.1 416 400 416zM176 408C176 412.4 172.4 416 168 416h-48c-4.418 0-8-3.582-8-8v-48C112 355.6 115.6 352 120 352h48c4.418 0 8 3.582 8 8V408zM528 32h-416C101.7 32 92.21 35.31 84.39 40.84L224 150.3V112C224 103.2 231.2 96 240 96h160C408.8 96 416 103.2 416 112v96C416 216.8 408.8 224 400 224H318.1l163.3 128H520c4.418 0 8 3.582 8 8v28.53l48 37.62V80C576 53.49 554.5 32 528 32zM528 280C528 284.4 524.4 288 520 288h-48c-4.418 0-8-3.582-8-8v-48C464 227.6 467.6 224 472 224h48c4.418 0 8 3.582 8 8V280zM528 152C528 156.4 524.4 160 520 160h-48c-4.418 0-8-3.582-8-8v-48C464 99.58 467.6 96 472 96h48c4.418 0 8 3.582 8 8V152z" class="fa-secondary"/></svg>