<svg xmlns="http://www.w3.org/2000/svg" viewBox="0 0 512 512"><!--! Font Awesome Pro 6.2.0 by @fontawesome - https://fontawesome.com License - https://fontawesome.com/license (Commercial License) Copyright 2022 Fonticons, Inc. --><path d="M335.1 288H175.1c-8.836 0-16 7.164-16 16v96c0 8.836 7.164 16 16 16h160c8.836 0 16-7.164 16-16v-96C351.1 295.2 344.8 288 335.1 288zM335.1 96H175.1c-8.836 0-16 7.164-16 16v96c0 8.836 7.164 16 16 16h160c8.836 0 16-7.164 16-16v-96C351.1 103.2 344.8 96 335.1 96z" class="fa-secondary"/></svg>