<svg xmlns="http://www.w3.org/2000/svg" viewBox="0 0 512 512"><!--! Font Awesome Pro 6.2.0 by @fontawesome - https://fontawesome.com License - https://fontawesome.com/license (Commercial License) Copyright 2022 Fonticons, Inc. --><path d="M64 480c0 17.67 14.33 32 31.1 32H256c17.67 0 31.1-14.33 31.1-32l-.0001-64H64L64 480zM128 108V58.81C69.59 69.32 20.5 110.6 1.235 168.4C-2.952 181 3.845 194.6 16.41 198.8C18.94 199.6 21.48 200 24 200c10.05 0 19.42-6.344 22.77-16.41C59.45 145.5 90.47 117.8 128 108zM224 56v48l63.1-.002v-48L224 56z" class="fa-secondary"/></svg>