<svg xmlns="http://www.w3.org/2000/svg" viewBox="0 0 640 512"><!--! Font Awesome Pro 6.2.0 by @fontawesome - https://fontawesome.com License - https://fontawesome.com/license (Commercial License) Copyright 2022 Fonticons, Inc. --><path d="M148.4 261.1C145.6 248.2 144 234.1 144 221.3C144 165 198.8 71.6 276 0c30.05 27.89 56.67 57.85 78.08 87.31c13.06-16.01 27.79-31.92 44.1-47.04C455.1 93.11 496 179.4 496 221.3c0 13.68-1.6 26.96-4.396 39.78c-17.06 4.465-33.14 11.62-47.4 21.99c-9.787-12.05-21.39-22.31-34.06-30.97c5.664-22.7 2.906-47.49-7.281-69.31c-2.631-5.635-5.582-11.59-8.951-17.72l-43.5 53.32c0 0-69.29-95.08-73.72-100.6C241.6 163.7 224 205.1 224 221.3c0 10.98 2.094 21.36 5.186 31.26c-12.4 8.572-23.77 18.79-33.39 30.63C181.5 272.8 165.5 265.5 148.4 261.1z" class="fa-secondary"/></svg>