<svg xmlns="http://www.w3.org/2000/svg" viewBox="0 0 384 512"><!--! Font Awesome Pro 6.2.0 by @fontawesome - https://fontawesome.com License - https://fontawesome.com/license (Commercial License) Copyright 2022 Fonticons, Inc. --><path d="M56 176h272C341.3 176 352 165.3 352 152C352 138.7 341.3 128 328 128h-12.53C303.9 83.17 268.8 48.13 224 36.53V32c0-17.69-14.31-32-32-32S160 14.31 160 32v4.525C115.2 48.13 80.13 83.17 68.53 128H56C42.75 128 32 138.7 32 152C32 165.3 42.75 176 56 176zM32 272v96C32 376.8 39.16 384 48 384H64V256H48C39.16 256 32 263.2 32 272zM336 256H320v128h16c8.836 0 16-7.164 16-16v-96C352 263.2 344.8 256 336 256z" class="fa-secondary"/></svg>