<svg xmlns="http://www.w3.org/2000/svg" viewBox="0 0 640 512"><!--! Font Awesome Pro 6.2.0 by @fontawesome - https://fontawesome.com License - https://fontawesome.com/license (Commercial License) Copyright 2022 Fonticons, Inc. --><path d="M240 210C240 186 255 165 285 128C289 133 347 207 347 207L383 165C386 169 388 173 390 177C408 210 400 252 370 273C355 283 339 288 320.1 288C276 288 240 259 240 210zM32 280C32 266.7 42.75 256 56 256H104C117.3 256 128 266.7 128 280C128 293.3 117.3 304 104 304H80V384H560V304H536C522.7 304 512 293.3 512 280C512 266.7 522.7 256 536 256H584C597.3 256 608 266.7 608 280V384C625.7 384 640 398.3 640 416V480C640 497.7 625.7 512 608 512H32C14.33 512 0 497.7 0 480V416C0 398.3 14.33 384 32 384V280zM320 480C337.7 480 352 465.7 352 448C352 430.3 337.7 416 320 416C302.3 416 288 430.3 288 448C288 465.7 302.3 480 320 480zM448 416C430.3 416 416 430.3 416 448C416 465.7 430.3 480 448 480C465.7 480 480 465.7 480 448C480 430.3 465.7 416 448 416zM192 480C209.7 480 224 465.7 224 448C224 430.3 209.7 416 192 416C174.3 416 160 430.3 160 448C160 465.7 174.3 480 192 480z" class="fa-secondary"/></svg>