<svg xmlns="http://www.w3.org/2000/svg" viewBox="0 0 512 512"><!--! Font Awesome Pro 6.2.0 by @fontawesome - https://fontawesome.com License - https://fontawesome.com/license (Commercial License) Copyright 2022 Fonticons, Inc. --><path d="M408 88.04v71.97h-48V88.04c0-29.3-26.13-40.02-39.92-40.02c-3.252 0-6.539 .3963-9.799 1.207l-63 15.78C172.3 83.73 120 150.7 120 227.1v60.03H128c17.67 0 32 14.32 32 31.1v159.1c0 17.67-14.33 31.1-32 31.1H64c-17.67 0-32-14.33-32-31.1v-159.1c0-17.67 14.33-31.1 32-31.1h8V227.1c0-99.31 67.28-185.5 163.6-209.5l63-15.78C305.8 .8792 313 0 320.2 0C351.1 0 408 23.46 408 88.04z" class="fa-secondary"/></svg>