<svg xmlns="http://www.w3.org/2000/svg" viewBox="0 0 576 512"><!--! Font Awesome Pro 6.2.0 by @fontawesome - https://fontawesome.com License - https://fontawesome.com/license (Commercial License) Copyright 2022 Fonticons, Inc. --><path d="M181.1 150.4C221.3 120.9 273.7 96 336 96C398.3 96 450.7 120.9 490 150.4C529.2 179.8 557.3 215.1 571.7 239.9C577.4 249.9 577.4 262.1 571.7 272.1C557.3 296.9 529.2 332.2 490 361.6C450.7 391.1 398.3 416 336 416C273.7 416 221.3 391.1 181.1 361.6C166.6 350.1 153 337.7 141.2 325.3L48.12 379.6C35.61 386.9 19.76 384.9 9.475 374.7C-.8124 364.5-2.969 348.7 4.217 336.1L50 256L4.217 175.9C-2.969 163.3-.8124 147.5 9.475 137.3C19.76 127.1 35.61 125.1 48.12 132.4L141.2 186.7C152.1 174.3 166.6 161.9 181.1 150.4V150.4zM416 224C398.3 224 384 238.3 384 256C384 273.7 398.3 288 416 288C433.7 288 448 273.7 448 256C448 238.3 433.7 224 416 224z" class="fa-secondary"/></svg>