<svg xmlns="http://www.w3.org/2000/svg" viewBox="0 0 448 512"><!--! Font Awesome Pro 6.2.0 by @fontawesome - https://fontawesome.com License - https://fontawesome.com/license (Commercial License) Copyright 2022 Fonticons, Inc. --><path d="M64 246.2l69-17.2c19.4-4.9 39.4-6.1 59-3.8V331.8c20.3 2.4 40.2 8.3 58.7 17.5c21.8 10.9 45.4 17.1 69.3 18.5V258.7c25.2 0 50.4-5.8 73.6-17.4L448 214.2v-96l-54.4 27.2c-23.2 11.6-48.4 17.4-73.6 17.4V60.6c-25.2 0-50.4-5.8-73.6-17.4c-17.2-8.6-35.6-14-54.4-16.3V129.1c18.8 2.2 37.2 7.7 54.4 16.3c23.2 11.6 48.4 17.4 73.6 17.4v96c-25.2 0-50.4-5.8-73.6-17.4c-17.2-8.6-35.6-14-54.4-16.3v-96c-19.6-2.3-39.6-1.1-59 3.8L64 150.2v96z" class="fa-secondary"/></svg>