<svg xmlns="http://www.w3.org/2000/svg" viewBox="0 0 576 512"><!--! Font Awesome Pro 6.2.0 by @fontawesome - https://fontawesome.com License - https://fontawesome.com/license (Commercial License) Copyright 2022 Fonticons, Inc. --><path d="M433.1 129.1l-83.9-83.9C342.3 38.32 327.1 32 316.1 32H64C28.65 32 0 60.65 0 96v320c0 35.35 28.65 64 64 64h232.2c-17.65-21.37-30.28-46.99-36.28-75.07C249.7 411.9 237.3 416 224 416c-35.34 0-64-28.66-64-64s28.66-64 64-64c16.93 0 32.21 6.697 43.66 17.43C292.9 239.2 356.9 192 432 192c5.402 0 10.72 .3301 16 .8066V163.9C448 152.9 441.7 137.7 433.1 129.1zM320 208C320 216.8 312.8 224 304 224h-224C71.16 224 64 216.8 64 208v-96C64 103.2 71.16 96 80 96h224C312.8 96 320 103.2 320 112V208z" class="fa-secondary"/></svg>