<svg xmlns="http://www.w3.org/2000/svg" viewBox="0 0 640 512"><!--! Font Awesome Pro 6.2.0 by @fontawesome - https://fontawesome.com License - https://fontawesome.com/license (Commercial License) Copyright 2022 Fonticons, Inc. --><path d="M608 160H96v192h512c17.62 0 32-14.38 32-32V192C640 174.4 625.6 160 608 160zM320 280C306.8 280 296 269.3 296 256S306.8 232 320 232S344 242.8 344 256S333.3 280 320 280zM416 280c-13.25 0-24-10.75-24-24S402.8 232 416 232S440 242.8 440 256S429.3 280 416 280zM512 280c-13.25 0-24-10.75-24-24S498.8 232 512 232S536 242.8 536 256S525.3 280 512 280z" class="fa-secondary"/></svg>