<svg xmlns="http://www.w3.org/2000/svg" viewBox="0 0 512 512"><!--! Font Awesome Pro 6.2.0 by @fontawesome - https://fontawesome.com License - https://fontawesome.com/license (Commercial License) Copyright 2022 Fonticons, Inc. --><path d="M296.4 1.125c-16.84-4.594-34.63 5.375-39.28 22.45l-26.19 96c-3.088 11.3 .7109 22.5 8.314 30.35L219.1 224h33.17l17.82-65.34c10.62-2.859 19.55-10.86 22.65-22.24l26.19-96C323.5 23.38 313.5 5.781 296.4 1.125zM465.2 5C450.3-4.469 430.5-.0781 421 14.81l-61.09 96c-6.299 9.893-5.984 21.72-1.051 31.46L306.8 224h37.94l40.84-64.18C386 159.8 386.5 160 386.9 160c10.56 0 20.94-5.234 27.03-14.81l61.09-96C484.5 34.27 480.1 14.48 465.2 5zM64 304C64 312.8 71.16 320 80 320S96 312.8 96 304V271.1C96 263.2 103.2 256 111.1 256h0C120.8 256 128 263.2 128 271.1V272C128 280.8 135.2 288 144 288S160 280.8 160 272V224H64V304z" class="fa-secondary"/></svg>