<svg xmlns="http://www.w3.org/2000/svg" viewBox="0 0 640 512"><!--! Font Awesome Pro 6.2.0 by @fontawesome - https://fontawesome.com License - https://fontawesome.com/license (Commercial License) Copyright 2022 Fonticons, Inc. --><path d="M608 160c-13.14 0-24.37 7.943-29.3 19.27C559.2 167.3 536.5 160 512 160c-70.58 0-128 57.41-128 128l.0007 63.93c0 70.59 57.42 128.1 127.1 128.1c24.51 0 47.21-7.266 66.7-19.26C583.6 472.1 594.9 480 608 480c17.67 0 32-14.31 32-32V192C640 174.3 625.7 160 608 160zM576 352c0 35.28-28.7 64-64 64s-64-28.72-64-64v-64c0-35.28 28.7-63.1 64-63.1s64 28.72 64 63.1V352z" class="fa-secondary"/></svg>