<svg xmlns="http://www.w3.org/2000/svg" viewBox="0 0 576 512"><!--! Font Awesome Pro 6.2.0 by @fontawesome - https://fontawesome.com License - https://fontawesome.com/license (Commercial License) Copyright 2022 Fonticons, Inc. --><path d="M24.28 7.083C28.36 3.804 33.17 1.573 38.3 .5847C43.44-.4035 48.73-.119 53.73 1.414C58.73 2.947 63.28 5.68 66.98 9.377L265.9 208.3L152.8 321.4L54.11 222.8C28.01 196.7 10.32 163.3 3.341 127.1C-3.641 90.84 .4008 53.33 14.94 19.39C17 14.59 20.21 10.36 24.28 7.083L24.28 7.083zM512 472C512 482.6 507.8 492.8 500.3 500.3C492.8 507.8 482.6 512 472 512C461.4 512 451.2 507.8 443.7 500.3L310.6 367.2L367.2 310.6L500.3 443.7C507.8 451.2 512 461.4 512 472z" class="fa-secondary"/></svg>