<svg xmlns="http://www.w3.org/2000/svg" viewBox="0 0 640 512"><!--! Font Awesome Pro 6.2.0 by @fontawesome - https://fontawesome.com License - https://fontawesome.com/license (Commercial License) Copyright 2022 Fonticons, Inc. --><path d="M544 384H608C625.7 384 640 398.3 640 416C640 433.7 625.7 448 608 448H512C494.3 448 480 433.7 480 416V32C480 14.33 494.3 0 512 0C529.7 0 544 14.33 544 32V384zM160 432C160 476.2 124.2 512 80 512C35.82 512 0 476.2 0 432C0 387.8 35.82 352 80 352C124.2 352 160 387.8 160 432zM416 432C416 476.2 380.2 512 336 512C291.8 512 256 476.2 256 432C256 387.8 291.8 352 336 352C380.2 352 416 387.8 416 432z" class="fa-secondary"/></svg>