<svg xmlns="http://www.w3.org/2000/svg" viewBox="0 0 640 512"><!--! Font Awesome Pro 6.2.0 by @fontawesome - https://fontawesome.com License - https://fontawesome.com/license (Commercial License) Copyright 2022 Fonticons, Inc. --><path d="M48 0C56.84 0 64 7.164 64 16V64H96V16C96 7.164 103.2 0 112 0H144C152.8 0 160 7.164 160 16V64H192V16C192 7.164 199.2 0 208 0H240C248.8 0 256 7.164 256 16V176C256 202.5 234.5 224 208 224H48C21.49 224 0 202.5 0 176V16C0 7.164 7.164 0 16 0H48zM480 64V16C480 7.164 487.2 0 496 0H528C536.8 0 544 7.164 544 16V64H576V16C576 7.164 583.2 0 592 0H624C632.8 0 640 7.164 640 16V176C640 202.5 618.5 224 592 224H432C405.5 224 384 202.5 384 176V16C384 7.164 391.2 0 400 0H432C440.8 0 448 7.164 448 16V64H480z" class="fa-secondary"/></svg>