<svg xmlns="http://www.w3.org/2000/svg" viewBox="0 0 448 512"><!--! Font Awesome Pro 6.2.0 by @fontawesome - https://fontawesome.com License - https://fontawesome.com/license (Commercial License) Copyright 2022 Fonticons, Inc. --><path d="M64 64C64 46.33 78.33 32 96 32C113.7 32 128 46.33 128 64V352H64V64zM64 416H128V448C128 465.7 113.7 480 96 480C78.33 480 64 465.7 64 448V416zM384 448C384 465.7 369.7 480 352 480C334.3 480 320 465.7 320 448V160H384V448zM384 96H320V64C320 46.33 334.3 32 352 32C369.7 32 384 46.33 384 64V96z" class="fa-secondary"/></svg>