<svg xmlns="http://www.w3.org/2000/svg" viewBox="0 0 640 512"><!--! Font Awesome Pro 6.2.0 by @fontawesome - https://fontawesome.com License - https://fontawesome.com/license (Commercial License) Copyright 2022 Fonticons, Inc. --><path d="M321.2 133C306.3 123.5 286.5 127.1 276.1 142.9c-70.48 110.9-70.48 243.4 0 354.3c6.109 9.594 16.47 14.84 27.05 14.84c5.875 0 11.81-1.625 17.12-5c14.92-9.469 19.33-29.25 9.859-44.16c-57.69-90.78-57.69-194.9 0-285.7C340.5 162.3 336.1 142.5 321.2 133zM587 142.9c-9.516-14.91-29.28-19.31-44.17-9.844c-14.92 9.469-19.33 29.25-9.859 44.16c57.69 90.78 57.69 194.9 0 285.7c-9.469 14.91-5.062 34.69 9.859 44.16c5.312 3.406 11.25 5 17.12 5c10.58 0 20.94-5.25 27.05-14.84C657.5 386.2 657.5 253.8 587 142.9z" class="fa-secondary"/></svg>