<svg xmlns="http://www.w3.org/2000/svg" viewBox="0 0 512 512"><!--! Font Awesome Pro 6.2.0 by @fontawesome - https://fontawesome.com License - https://fontawesome.com/license (Commercial License) Copyright 2022 Fonticons, Inc. --><path d="M458.3 99.08L458.3 99.08L458.3 99.08zM511.8 264c-1.442 48.66-16.82 95.87-44.28 136.1l-7.38-32.46l-113 13.86l-48.19 103.3l28.22 16.84c-23.48 6.78-47.67 10.2-71.85 10.2c-23.76 0-47.51-3.302-70.58-9.962l28.23-17.06l-48.19-103.3l-113-13.88l-7.39 32.46c-27.45-40.19-42.8-87.41-44.25-136.1l24.95 21.76l83.2-77.67L86.78 96.15L53.67 99.09c29.72-38.29 69.67-67.37 115.2-83.88l.3613 .2684L156.5 45.53l99.5 55.13l99.5-55.13L342.4 14.98c45.82 16.48 86 45.64 115.9 84.11L425.6 96.16L403.7 208.2l83.21 77.67L511.8 264zM357.3 217.4L255.1 144L154.7 217.4l38.82 118.6L318.8 336L357.3 217.4z" class="fa-secondary"/></svg>