<svg xmlns="http://www.w3.org/2000/svg" viewBox="0 0 640 512"><!--! Font Awesome Pro 6.2.0 by @fontawesome - https://fontawesome.com License - https://fontawesome.com/license (Commercial License) Copyright 2022 Fonticons, Inc. --><path d="M244.1 320L242.2 328H397.8L395 320H445.9L451.1 334.1C468.3 344.5 480 362.9 480 384V480C480 497.7 465.7 512 448 512C430.3 512 416 497.7 416 480V464H224V480C224 497.7 209.7 512 192 512C174.3 512 160 497.7 160 480V384C160 362.9 171.7 344.5 188.9 334.1L194.1 320H244.1zM240 424C253.3 424 264 413.3 264 400C264 386.7 253.3 376 240 376C226.7 376 216 386.7 216 400C216 413.3 226.7 424 240 424zM400 376C386.7 376 376 386.7 376 400C376 413.3 386.7 424 400 424C413.3 424 424 413.3 424 400C424 386.7 413.3 376 400 376z" class="fa-secondary"/></svg>