<svg xmlns="http://www.w3.org/2000/svg" viewBox="0 0 640 512"><!--! Font Awesome Pro 6.2.0 by @fontawesome - https://fontawesome.com License - https://fontawesome.com/license (Commercial License) Copyright 2022 Fonticons, Inc. --><path d="M520.8 382.9C525.3 376.4 528 368.5 528 360V221.1C500.4 214.9 480 189.8 480 160V96L448 64C439.2 55.16 439.2 40.84 448 32C456.8 23.16 471.2 23.16 480 32L557.3 109.3C569.3 121.3 576 137.5 576 154.5V360C576 379.7 569.5 397.9 558.6 412.5L520.8 382.9zM97.33 50.98C103.3 21.88 129.1 0 160 0H320C355.3 0 384 28.65 384 64V275.7L97.33 50.98zM384 398.5V416H96V171.6L384 398.5zM64 480C64 462.3 78.33 448 96 448H384C401.7 448 416 462.3 416 480C416 497.7 401.7 512 384 512H96C78.33 512 64 497.7 64 480z" class="fa-secondary"/></svg>