<svg xmlns="http://www.w3.org/2000/svg" viewBox="0 0 576 512"><!--! Font Awesome Pro 6.2.0 by @fontawesome - https://fontawesome.com License - https://fontawesome.com/license (Commercial License) Copyright 2022 Fonticons, Inc. --><path d="M470.4 128H512C547.3 128 576 156.7 576 192V320H0V192C0 156.7 28.65 128 64 128H105.6C120.2 156.5 149.8 176 184 176H243.4L189.6 240.6C181.1 250.8 182.5 265.1 192.6 274.4C202.8 282.9 217.1 281.5 226.4 271.4L287.1 197.5L349.6 271.4C358 281.5 373.2 282.9 383.4 274.4C393.5 265.1 394.9 250.8 386.4 240.6L332.6 176H392C426.2 176 455.8 156.5 470.4 128H470.4zM576 416V448C576 483.3 547.3 512 512 512H64C28.65 512 0 483.3 0 448V416H576z" class="fa-secondary"/></svg>