<svg xmlns="http://www.w3.org/2000/svg" viewBox="0 0 512 512"><!--! Font Awesome Pro 6.2.0 by @fontawesome - https://fontawesome.com License - https://fontawesome.com/license (Commercial License) Copyright 2022 Fonticons, Inc. --><path d="M152 176H224V256H32C14.33 256 0 241.7 0 224V160C0 142.3 14.33 128 32 128H73.6C88.16 156.5 117.8 176 152 176zM480 256H288V176H360C394.2 176 423.8 156.5 438.4 128H480C497.7 128 512 142.3 512 160V224C512 241.7 497.7 256 480 256zM32 288H224V512H80C53.49 512 32 490.5 32 464V288zM288 512V288H480V464C480 490.5 458.5 512 432 512H288z" class="fa-secondary"/></svg>