<svg xmlns="http://www.w3.org/2000/svg" viewBox="0 0 640 512"><!--! Font Awesome Pro 6.2.0 by @fontawesome - https://fontawesome.com License - https://fontawesome.com/license (Commercial License) Copyright 2022 Fonticons, Inc. --><path d="M191.3 58.27L216.8 37.42C227.1 29.03 242.2 30.54 250.6 40.8C258.1 51.06 257.5 66.18 247.2 74.57L221 96H66.99L40.8 74.57C30.54 66.18 29.03 51.06 37.43 40.8C45.82 30.54 60.94 29.03 71.2 37.42L98.67 59.9L89.23 31.59C85.04 19.01 91.84 5.422 104.4 1.231C116.1-2.961 130.6 3.835 134.8 16.41L144.7 46.17L155.4 15.99C159.8 3.492 173.5-3.049 186 1.376C198.5 5.801 205 19.52 200.6 32.01L191.3 58.27zM640 272V352H448V272H520C551.4 272 578 251.1 587.9 224H592C618.5 224 640 245.5 640 272zM448 384H640V464C640 490.5 618.5 512 592 512H448V384zM416 384V512H272C245.5 512 224 490.5 224 464V384H416zM416 352H224V272C224 245.5 245.5 224 272 224H276.1C285.1 251.1 312.7 272 344 272H416V352z" class="fa-secondary"/></svg>