<svg xmlns="http://www.w3.org/2000/svg" viewBox="0 0 576 512"><!--! Font Awesome Pro 6.2.0 by @fontawesome - https://fontawesome.com License - https://fontawesome.com/license (Commercial License) Copyright 2022 Fonticons, Inc. --><path d="M222.1 370.8c-2.551 33.15-31.09 58.98-65.04 58.98H109.7c-36.03 0-65.36-28.53-65.36-63.6V318.4c23.11-8.289 55.31-16.58 92.61-16.58c30.45 0 60.25 5.578 89.11 16.58L222.1 370.8zM531.6 366.2c0 35.07-29.33 63.6-65.36 63.6h-47.34c-33.95 0-62.49-25.82-65.04-58.98l-3.984-52.45c28.85-11 58.82-16.58 89.27-16.58c36.98 0 69.34 8.289 92.45 16.58V366.2z" class="fa-secondary"/></svg>