<svg xmlns="http://www.w3.org/2000/svg" viewBox="0 0 640 512"><!--! Font Awesome Pro 6.2.0 by @fontawesome - https://fontawesome.com License - https://fontawesome.com/license (Commercial License) Copyright 2022 Fonticons, Inc. --><path d="M323.9 143.5L161 184.2C121.6 194.1 92.4 225 83.28 263.1C90.83 268.1 96 277.7 96 288c0 9.953-4.814 18.49-11.94 24.36l24.83 149C110.5 471.1 103 480 93.11 480H34.89c-9.887 0-17.41-8.879-15.78-18.63l24.83-149C36.81 306.5 32 297.1 32 288c0-13.24 8.047-24.61 19.52-29.47c11.02-50.84 49.58-92.28 101.7-105.3l162.9-40.72c8.438-2.25 17.28 3.047 19.41 11.64C337.7 132.7 332.5 141.4 323.9 143.5z" class="fa-secondary"/></svg>