<svg xmlns="http://www.w3.org/2000/svg" viewBox="0 0 384 512"><!--! Font Awesome Pro 6.2.0 by @fontawesome - https://fontawesome.com License - https://fontawesome.com/license (Commercial License) Copyright 2022 Fonticons, Inc. --><path d="M376 269.1c0 45.75-37.13 82.75-82.75 82.75l-69.25-.0009v32.14h-64l-.0002-56.14c0-13.25 10.75-24 24-24h109.2c19.12 0 34.75-15.5 34.75-34.75c0-12.13-8.125-22.75-19.88-25.88c-76.75-20.63-175.7 30.75-238.6 73.88c-18.12 12.38-42.5-4.5-36.63-26.13l73.13-273.3C111.8-3.656 141.3-6.527 150.9 13.6c32.13 67.25 92.25 162.5 169.7 183.3C353.3 205.6 376 235.2 376 269.1z" class="fa-secondary"/></svg>