<svg xmlns="http://www.w3.org/2000/svg" viewBox="0 0 448 512"><!--! Font Awesome Pro 6.2.0 by @fontawesome - https://fontawesome.com License - https://fontawesome.com/license (Commercial License) Copyright 2022 Fonticons, Inc. --><path d="M96 48C96 39.16 103.2 32 112 32H144C152.8 32 160 39.16 160 48V80C160 88.84 152.8 96 144 96H112C103.2 96 96 88.84 96 80V48zM48 128C56.84 128 64 135.2 64 144V176C64 184.8 56.84 192 48 192H16C7.164 192 0 184.8 0 176V144C0 135.2 7.164 128 16 128H48zM48 320C56.84 320 64 327.2 64 336V368C64 376.8 56.84 384 48 384H16C7.164 384 0 376.8 0 368V336C0 327.2 7.164 320 16 320H48zM144 224C152.8 224 160 231.2 160 240V272C160 280.8 152.8 288 144 288H112C103.2 288 96 280.8 96 272V240C96 231.2 103.2 224 112 224H144zM96 432C96 423.2 103.2 416 112 416H144C152.8 416 160 423.2 160 432V464C160 472.8 152.8 480 144 480H112C103.2 480 96 472.8 96 464V432zM240 128C248.8 128 256 135.2 256 144V176C256 184.8 248.8 192 240 192H208C199.2 192 192 184.8 192 176V144C192 135.2 199.2 128 208 128H240zM192 336C192 327.2 199.2 320 208 320H240C248.8 320 256 327.2 256 336V368C256 376.8 248.8 384 240 384H208C199.2 384 192 376.8 192 368V336zM336 32C344.8 32 352 39.16 352 48V80C352 88.84 344.8 96 336 96H304C295.2 96 288 88.84 288 80V48C288 39.16 295.2 32 304 32H336zM288 240C288 231.2 295.2 224 304 224H336C344.8 224 352 231.2 352 240V272C352 280.8 344.8 288 336 288H304C295.2 288 288 280.8 288 272V240zM336 416C344.8 416 352 423.2 352 432V464C352 472.8 344.8 480 336 480H304C295.2 480 288 472.8 288 464V432C288 423.2 295.2 416 304 416H336zM384 144C384 135.2 391.2 128 400 128H432C440.8 128 448 135.2 448 144V176C448 184.8 440.8 192 432 192H400C391.2 192 384 184.8 384 176V144zM432 320C440.8 320 448 327.2 448 336V368C448 376.8 440.8 384 432 384H400C391.2 384 384 376.8 384 368V336C384 327.2 391.2 320 400 320H432z" class="fa-secondary"/></svg>