<svg xmlns="http://www.w3.org/2000/svg" viewBox="0 0 448 512"><!--! Font Awesome Pro 6.2.0 by @fontawesome - https://fontawesome.com License - https://fontawesome.com/license (Commercial License) Copyright 2022 Fonticons, Inc. --><path d="M448 184C448 206.1 430.1 224 408 224H296C273.9 224 256 206.1 256 184V72C256 49.91 273.9 32 296 32H408C430.1 32 448 49.91 448 72V184zM192 440C192 462.1 174.1 480 152 480H40C17.91 480 0 462.1 0 440V328C0 305.9 17.91 288 40 288H152C174.1 288 192 305.9 192 328V440z" class="fa-secondary"/></svg>