<svg xmlns="http://www.w3.org/2000/svg" viewBox="0 0 448 512"><!--! Font Awesome Pro 6.2.0 by @fontawesome - https://fontawesome.com License - https://fontawesome.com/license (Commercial License) Copyright 2022 Fonticons, Inc. --><path d="M248 32C270.1 32 288 49.91 288 72V120C288 142.1 270.1 160 248 160H200C177.9 160 160 142.1 160 120V72C160 49.91 177.9 32 200 32H248zM88 192C110.1 192 128 209.9 128 232V280C128 302.1 110.1 320 88 320H40C17.91 320 0 302.1 0 280V232C0 209.9 17.91 192 40 192H88zM160 392C160 369.9 177.9 352 200 352H248C270.1 352 288 369.9 288 392V440C288 462.1 270.1 480 248 480H200C177.9 480 160 462.1 160 440V392zM408 192C430.1 192 448 209.9 448 232V280C448 302.1 430.1 320 408 320H360C337.9 320 320 302.1 320 280V232C320 209.9 337.9 192 360 192H408z" class="fa-secondary"/></svg>