<svg xmlns="http://www.w3.org/2000/svg" viewBox="0 0 448 512"><!--! Font Awesome Pro 6.2.0 by @fontawesome - https://fontawesome.com License - https://fontawesome.com/license (Commercial License) Copyright 2022 Fonticons, Inc. --><path d="M160 168C160 145.9 177.9 128 200 128H248C270.1 128 288 145.9 288 168V216C288 238.1 270.1 256 248 256H200C177.9 256 160 238.1 160 216V168zM0 328C0 305.9 17.91 288 40 288H88C110.1 288 128 305.9 128 328V376C128 398.1 110.1 416 88 416H40C17.91 416 0 398.1 0 376V328zM408 288C430.1 288 448 305.9 448 328V376C448 398.1 430.1 416 408 416H360C337.9 416 320 398.1 320 376V328C320 305.9 337.9 288 360 288H408z" class="fa-secondary"/></svg>