<svg xmlns="http://www.w3.org/2000/svg" viewBox="0 0 448 512"><!--! Font Awesome Pro 6.2.0 by @fontawesome - https://fontawesome.com License - https://fontawesome.com/license (Commercial License) Copyright 2022 Fonticons, Inc. --><path d="M119.5 48C119.5 39.16 126.6 32 135.5 32H193.1C201.9 32 209.1 39.16 209.1 48V105.6C209.1 114.4 201.9 121.6 193.1 121.6H135.5C126.6 121.6 119.5 114.4 119.5 105.6V48zM73.6 151.5C82.44 151.5 89.6 158.6 89.6 167.5V225.1C89.6 233.9 82.44 241.1 73.6 241.1H16C7.164 241.1 0 233.9 0 225.1V167.5C0 158.6 7.164 151.5 16 151.5H73.6zM73.6 390.4C82.44 390.4 89.6 397.6 89.6 406.4V464C89.6 472.8 82.44 480 73.6 480H16C7.164 480 0 472.8 0 464V406.4C0 397.6 7.164 390.4 16 390.4H73.6zM193.1 270.9C201.9 270.9 209.1 278.1 209.1 286.9V344.5C209.1 353.4 201.9 360.5 193.1 360.5H135.5C126.6 360.5 119.5 353.4 119.5 344.5V286.9C119.5 278.1 126.6 270.9 135.5 270.9H193.1zM238.9 167.5C238.9 158.6 246.1 151.5 254.9 151.5H312.5C321.4 151.5 328.5 158.6 328.5 167.5V225.1C328.5 233.9 321.4 241.1 312.5 241.1H254.9C246.1 241.1 238.9 233.9 238.9 225.1V167.5zM312.5 390.4C321.4 390.4 328.5 397.6 328.5 406.4V464C328.5 472.8 321.4 480 312.5 480H254.9C246.1 480 238.9 472.8 238.9 464V406.4C238.9 397.6 246.1 390.4 254.9 390.4H312.5zM358.4 48C358.4 39.16 365.6 32 374.4 32H432C440.8 32 448 39.16 448 48V105.6C448 114.4 440.8 121.6 432 121.6H374.4C365.6 121.6 358.4 114.4 358.4 105.6V48zM432 270.9C440.8 270.9 448 278.1 448 286.9V344.5C448 353.4 440.8 360.5 432 360.5H374.4C365.6 360.5 358.4 353.4 358.4 344.5V286.9C358.4 278.1 365.6 270.9 374.4 270.9H432z" class="fa-secondary"/></svg>