<svg xmlns="http://www.w3.org/2000/svg" viewBox="0 0 512 512"><!--! Font Awesome Pro 6.2.0 by @fontawesome - https://fontawesome.com License - https://fontawesome.com/license (Commercial License) Copyright 2022 Fonticons, Inc. --><path d="M128 96C145.7 96 160 110.3 160 128V192C160 209.7 145.7 224 128 224H64C46.33 224 32 209.7 32 192V128C32 110.3 46.33 96 64 96H128zM128 384C145.7 384 160 398.3 160 416V480C160 497.7 145.7 512 128 512H64C46.33 512 32 497.7 32 480V416C32 398.3 46.33 384 64 384H128zM192 128C192 110.3 206.3 96 224 96H288C305.7 96 320 110.3 320 128V192C320 209.7 305.7 224 288 224H224C206.3 224 192 209.7 192 192V128zM288 384C305.7 384 320 398.3 320 416V480C320 497.7 305.7 512 288 512H224C206.3 512 192 497.7 192 480V416C192 398.3 206.3 384 224 384H288zM352 128C352 110.3 366.3 96 384 96H448C465.7 96 480 110.3 480 128V192C480 209.7 465.7 224 448 224H384C366.3 224 352 209.7 352 192V128zM448 384C465.7 384 480 398.3 480 416V480C480 497.7 465.7 512 448 512H384C366.3 512 352 497.7 352 480V416C352 398.3 366.3 384 384 384H448z" class="fa-secondary"/></svg>