<svg xmlns="http://www.w3.org/2000/svg" viewBox="0 0 576 512"><!--! Font Awesome Pro 6.2.0 by @fontawesome - https://fontawesome.com License - https://fontawesome.com/license (Commercial License) Copyright 2022 Fonticons, Inc. --><path d="M408 32C430.1 32 448 49.91 448 72V96C448 120.1 444.2 143.3 437.1 165.1C428.7 156.4 419.9 148.1 410.1 139.1C393.3 124 366.2 123.1 348.5 139.9C313.1 171.5 282.9 207.6 261.2 242.7C246.2 267 233.5 293.8 227.6 319.1C226.4 319.1 225.2 320 224 320C207.1 320 190.6 318.1 174.7 314.6L151.8 368H224.8C226.4 384.6 229.1 400.7 235.5 416H160C160 451.3 131.3 480 96 480C60.65 480 32 451.3 32 416C32 380.7 60.65 352 96 352C99.44 352 102.8 352.3 106.1 352.8L129.2 298.1C52.86 263.3 0 185.8 0 96V72C0 49.91 17.91 32 40 32H408zM96 392C82.75 392 72 402.7 72 416C72 429.3 82.75 440 96 440C109.3 440 120 429.3 120 416C120 402.7 109.3 392 96 392z" class="fa-secondary"/></svg>