<svg xmlns="http://www.w3.org/2000/svg" viewBox="0 0 448 512"><!--! Font Awesome Pro 6.2.0 by @fontawesome - https://fontawesome.com License - https://fontawesome.com/license (Commercial License) Copyright 2022 Fonticons, Inc. --><path d="M144 26.59C144 31.94 146.7 36.94 151.1 39.91L163.5 48.16C181.3 60.03 192 80.01 192 101.4V103.1C192 117.3 181.3 127.1 168 127.1C154.7 127.1 144 117.3 144 103.1V101.4C144 96.06 141.3 91.06 136.9 88.09L124.5 79.84C106.7 67.97 96 47.99 96 26.59V24C96 10.75 106.7 0 120 0C133.3 0 144 10.75 144 24V26.59zM256 26.59C256 31.94 258.7 36.94 263.1 39.91L275.5 48.16C293.3 60.03 304 80.01 304 101.4V103.1C304 117.3 293.3 127.1 280 127.1C266.7 127.1 256 117.3 256 103.1V101.4C256 96.06 253.3 91.06 248.9 88.09L236.5 79.84C218.7 67.97 208 47.99 208 26.59V24C208 10.75 218.7 0 232 0C245.3 0 256 10.75 256 24V26.59z" class="fa-secondary"/></svg>