<svg xmlns="http://www.w3.org/2000/svg" viewBox="0 0 320 512"><!--! Font Awesome Pro 6.2.0 by @fontawesome - https://fontawesome.com License - https://fontawesome.com/license (Commercial License) Copyright 2022 Fonticons, Inc. --><path d="M232 480C209.9 480 192 462.1 192 440V392C192 369.9 209.9 352 232 352H280C302.1 352 320 369.9 320 392V440C320 462.1 302.1 480 280 480H232zM232 320C209.9 320 192 302.1 192 280V232C192 209.9 209.9 192 232 192H280C302.1 192 320 209.9 320 232V280C320 302.1 302.1 320 280 320H232zM280 32C302.1 32 320 49.91 320 72V120C320 142.1 302.1 160 280 160H232C209.9 160 192 142.1 192 120V72C192 49.91 209.9 32 232 32H280z" class="fa-secondary"/></svg>