<svg xmlns="http://www.w3.org/2000/svg" viewBox="0 0 448 512"><!--! Font Awesome Pro 6.2.0 by @fontawesome - https://fontawesome.com License - https://fontawesome.com/license (Commercial License) Copyright 2022 Fonticons, Inc. --><path d="M384 384C357.5 384 336 362.5 336 336C336 309.5 357.5 288 384 288C410.5 288 432 309.5 432 336C432 362.5 410.5 384 384 384zM224 384C197.5 384 176 362.5 176 336C176 309.5 197.5 288 224 288C250.5 288 272 309.5 272 336C272 362.5 250.5 384 224 384zM64 288C90.51 288 112 309.5 112 336C112 362.5 90.51 384 64 384C37.49 384 16 362.5 16 336C16 309.5 37.49 288 64 288z" class="fa-secondary"/></svg>