<svg xmlns="http://www.w3.org/2000/svg" viewBox="0 0 256 512"><!--! Font Awesome Pro 6.2.0 by @fontawesome - https://fontawesome.com License - https://fontawesome.com/license (Commercial License) Copyright 2022 Fonticons, Inc. --><path d="M256 96C256 122.5 234.5 144 208 144C181.5 144 160 122.5 160 96C160 69.49 181.5 48 208 48C234.5 48 256 69.49 256 96zM256 256C256 282.5 234.5 304 208 304C181.5 304 160 282.5 160 256C160 229.5 181.5 208 208 208C234.5 208 256 229.5 256 256zM160 416C160 389.5 181.5 368 208 368C234.5 368 256 389.5 256 416C256 442.5 234.5 464 208 464C181.5 464 160 442.5 160 416z" class="fa-secondary"/></svg>