<svg xmlns="http://www.w3.org/2000/svg" viewBox="0 0 512 512"><!--! Font Awesome Pro 6.2.0 by @fontawesome - https://fontawesome.com License - https://fontawesome.com/license (Commercial License) Copyright 2022 Fonticons, Inc. --><path d="M243.7 223.3C236.1 211.9 234.8 197.3 240.6 184.8l17.25-37.12c3.875-8.25 1.25-18.12-6.249-23.37C244.1 119.1 233.1 120 227.5 126.4L189.1 164.8c-8.124 8.125-14.37 17.1-18.12 28.75c-7.124 19.62-21.62 35.62-40.62 44.37L53.99 273.3c-57.24 22.87-72.37 96.74-28.87 140.2l73.37 73.37c43.62 43.5 117.5 28.37 140.4-28.75l35.37-76.37c8.874-18.1 24.87-33.62 44.49-40.5c10.75-3.875 20.62-10.12 28.87-18.25l21.5-21.5c6.499-6.5 7.749-16.62 2.1-24.5c-4.874-7.875-14.37-11.37-23.12-8.499L325.2 276c-12.62 3.875-26.37 1.249-36.74-7.125L243.7 223.3zM181.6 394.4l-11.25 11.25c-3.125 3.125-8.249 3.125-11.37 0l-52.62-52.62c-4.123-4.124-2.07-9.304 0-11.37l11.25-11.25c4.123-4.124 9.303-2.07 11.37 0l52.62 52.62C185.7 387.1 183.7 392.3 181.6 394.4zM245.6 330.4l-11.25 11.25c-3.125 3.125-8.249 3.125-11.37 0L170.4 289c-4.123-4.124-2.07-9.304 0-11.37l11.25-11.25c4.123-4.124 9.304-2.07 11.37 0l52.62 52.62C249.7 323.1 247.7 328.3 245.6 330.4z" class="fa-secondary"/></svg>