<svg xmlns="http://www.w3.org/2000/svg" viewBox="0 0 576 512"><!--! Font Awesome Pro 6.2.0 by @fontawesome - https://fontawesome.com License - https://fontawesome.com/license (Commercial License) Copyright 2022 Fonticons, Inc. --><path d="M296 288C282.7 288 272 298.7 272 312v16H233.6l-13.05 48H272v16c0 13.25 10.75 24 24 24S320 405.3 320 392v-80C320 298.7 309.3 288 296 288zM96 192h352c17.67 0 32-14.33 32-32H64C64 177.7 78.33 192 96 192zM560 128H544v64h16C568.8 192 576 184.8 576 176v-32C576 135.2 568.8 128 560 128z" class="fa-secondary"/></svg>