<svg xmlns="http://www.w3.org/2000/svg" viewBox="0 0 640 512"><!--! Font Awesome Pro 6.2.0 by @fontawesome - https://fontawesome.com License - https://fontawesome.com/license (Commercial License) Copyright 2022 Fonticons, Inc. --><path d="M640 223.1c0 6.881-4.416 13.03-10.94 15.17l-97.86 32.54l46.18 92.19c3.104 6.176 1.887 13.6-2.977 18.5c-4.896 4.863-12.32 6.08-18.5 2.977l-92.19-46.18l-32.54 97.86c-2.176 6.527-8.287 10.94-15.17 10.94c-6.879 0-13.02-4.416-15.17-10.94l-32.54-97.86l-92.19 46.18c-6.176 3.104-13.6 1.887-18.5-2.977c-4.863-4.896-6.08-12.32-2.975-18.5l33.25-66.37c29.44 12.86 64.51 1.824 80.96-26.69l48-83.13c17.7-30.62 7.201-69.76-23.42-87.42l-18.72-10.82l26.14-78.53c2.145-6.529 8.289-10.95 15.17-10.95c6.881 0 12.99 4.416 15.17 10.95l32.54 97.86l92.19-46.18c6.176-3.105 13.6-1.889 18.5 2.975c4.863 4.896 6.08 12.32 2.977 18.5L531.2 176.3l97.86 32.54C635.6 210.1 640 217.1 640 223.1z" class="fa-secondary"/></svg>