<svg xmlns="http://www.w3.org/2000/svg" viewBox="0 0 640 512"><!--! Font Awesome Pro 6.2.0 by @fontawesome - https://fontawesome.com License - https://fontawesome.com/license (Commercial License) Copyright 2022 Fonticons, Inc. --><path d="M480 128.2c-40.98-40.93-64.6-64.12-122.6-64.12c-10.49 0-19.93-.6141-30.2 8.566L217 163.6C196.8 180.7 194.2 210.1 211.4 231.2c9.5 11.21 23.03 16.99 36.67 16.99c10.94 0 21.95-3.716 30.97-11.33l39.57-33.46l165.3 135.3c4.361 3.536 7.123 8.173 9.078 13.04L544 351.1V128.4L480 128.2zM0 383.9l64 .0404c17.75 0 32-14.3 32-32.03V128.3L0 128.3V383.9zM48 320.1c8.75 0 16 7.124 16 15.99c0 8.735-7.25 15.99-16 15.99S32 344.8 32 336.1C32 327.2 39.25 320.1 48 320.1z" class="fa-secondary"/></svg>