<svg xmlns="http://www.w3.org/2000/svg" viewBox="0 0 512 512"><!--! Font Awesome Pro 6.2.0 by @fontawesome - https://fontawesome.com License - https://fontawesome.com/license (Commercial License) Copyright 2022 Fonticons, Inc. --><path d="M384 357.5l0-163.9c0-6.016-4.672-33.69-32-33.69c-17.69 0-32.07 14.33-32.07 31.1L320 268.1L169.2 117.3C164.5 112.6 158.3 110.3 152.2 110.3c-13.71 0-24 11.21-24 24c0 6.141 2.344 12.28 7.031 16.97l89.3 89.3C227.4 243.4 228.9 247.2 228.9 251c0 3.8-1.45 7.6-4.349 10.5c-2.899 2.899-6.7 4.349-10.5 4.349c-3.8 0-7.6-1.45-10.5-4.349l-107.6-107.6C91.22 149.2 85.08 146.9 78.94 146.9c-13.71 0-24 11.21-24 24c0 6.141 2.344 12.28 7.031 16.97l107.6 107.6C172.5 298.4 173.9 302.2 173.9 305.1c0 3.8-1.45 7.6-4.349 10.5c-2.899 2.9-6.7 4.349-10.5 4.349c-3.8 0-7.6-1.45-10.5-4.349L59.28 227.2C54.59 222.5 48.45 220.1 42.31 220.1c-13.71 0-24 11.21-24 24c0 6.141 2.344 12.28 7.031 16.97l89.3 89.3c2.9 2.899 4.349 6.7 4.349 10.5c0 3.8-1.45 7.6-4.349 10.5c-2.899 2.899-6.7 4.349-10.5 4.349c-3.8 0-7.6-1.45-10.5-4.349L40.97 318.7C36.28 314 30.14 311.7 24 311.7c-13.71 0-23.99 11.26-23.99 24.05c0 6.141 2.332 12.23 7.02 16.92C112.6 458.2 151.3 512 232.3 512C318.1 512 384 440.9 384 357.5z" class="fa-secondary"/></svg>