<svg xmlns="http://www.w3.org/2000/svg" viewBox="0 0 640 512"><!--! Font Awesome Pro 6.2.0 by @fontawesome - https://fontawesome.com License - https://fontawesome.com/license (Commercial License) Copyright 2022 Fonticons, Inc. --><path d="M240 32C240 14.33 254.3 0 272 0C289.7 0 304 14.33 304 32C304 49.67 289.7 64 272 64C254.3 64 240 49.67 240 32zM224 80C224 97.67 209.7 112 192 112C174.3 112 160 97.67 160 80C160 62.33 174.3 48 192 48C209.7 48 224 62.33 224 80zM128 160C128 142.3 142.3 128 160 128C177.7 128 192 142.3 192 160H128zM448 160C448 142.3 462.3 128 480 128C497.7 128 512 142.3 512 160H448zM400 32C400 49.67 385.7 64 368 64C350.3 64 336 49.67 336 32C336 14.33 350.3 0 368 0C385.7 0 400 14.33 400 32zM416 80C416 62.33 430.3 48 448 48C465.7 48 480 62.33 480 80C480 97.67 465.7 112 448 112C430.3 112 416 97.67 416 80z" class="fa-secondary"/></svg>