<svg xmlns="http://www.w3.org/2000/svg" viewBox="0 0 640 512"><!--! Font Awesome Pro 6.2.0 by @fontawesome - https://fontawesome.com License - https://fontawesome.com/license (Commercial License) Copyright 2022 Fonticons, Inc. --><path d="M618.1 353.6L528 323.6V243.4c0-19-5.5-37.37-16.12-53.25l-117.3-175.9c-.125-.25-.6251-.2487-.75-.4987c-9.625-13.5-27.88-17.85-42.38-9.229c-15.12 9.125-20 28.76-11 44.01l77.75 129.5C427.3 193 432 210 432 227.5v76.49c0 8.875-7.125 16-16 16s-16-7.125-16-16V223.1c0-17.62-14.38-31.97-32-31.97s-32 14.38-32 31.1v127.1c0 51.87 34.88 98.12 84.75 112.4L600 511C602.6 511.6 605.4 512 608 512c23.5 0 32-21.25 32-31.1v-95.99C640 370.3 631.3 358 618.1 353.6z" class="fa-secondary"/></svg>