<svg xmlns="http://www.w3.org/2000/svg" viewBox="0 0 576 512"><!--! Font Awesome Pro 6.2.0 by @fontawesome - https://fontawesome.com License - https://fontawesome.com/license (Commercial License) Copyright 2022 Fonticons, Inc. --><path d="M559.7 392.2l-135.1 99.52C406.9 504.8 385 512 362.1 512H15.1C7.251 512 0 504.8 0 496v-95.98C0 391.3 7.251 383.1 15.1 383.1l55.37 .0241l46.5-37.74c20.1-17 47.12-26.25 74.12-26.25h159.1c19.5 0 34.87 17.38 31.62 37.38c-2.623 15.74-17.37 26.62-33.37 26.62H271.1c-8.748 0-15.1 7.25-15.1 16c0 8.742 7.25 15.99 15.1 15.99h120.6l119.7-88.17c17.79-13.19 42.81-9.344 55.93 8.469C581.3 354.1 577.5 379.1 559.7 392.2z" class="fa-secondary"/></svg>