<svg xmlns="http://www.w3.org/2000/svg" viewBox="0 0 512 512"><!--! Font Awesome Pro 6.2.0 by @fontawesome - https://fontawesome.com License - https://fontawesome.com/license (Commercial License) Copyright 2022 Fonticons, Inc. --><path d="M202 99.74c-15.51 1.807-24.79 16.99-20.33 31.11l15.36 48.61c5.986-2.148 12.32-3.482 18.98-3.482c5.508 0 10.99 .8105 16.5 2.471l16.11 4.975L227.7 117.2C224.2 106.2 213.6 98.39 202 99.74zM487.1 144.5c-13.27 .0977-23.95 10.91-23.86 24.16l-2.082 50.04l-59.98-189.8c-3.496-11.07-14.18-18.86-25.71-17.51c-15.51 1.807-24.79 16.99-20.33 31.11l38.56 122.1c1.332 4.213-1.004 8.707-5.219 10.04c-4.213 1.332-8.707-1.004-10.04-5.217l-47.93-151.7c-3.496-11.07-14.18-18.86-25.71-17.51c-15.51 1.807-24.79 16.99-20.33 31.11l43.37 137.8c1.33 4.213-1.006 8.707-5.219 10.04c-4.213 1.332-8.707-1.004-10.04-5.217l-33.46-106.4C275.6 56.39 264.9 48.6 253.4 49.94c-15.51 1.807-24.79 16.99-20.33 31.11l34.15 108.1l73.7 22.76C404.1 233.3 448 292.8 448 359.9v27.91c38.27-21.17 63.28-61.24 64-106.7V168.4C511.8 155.1 500.3 144.5 487.1 144.5z" class="fa-secondary"/></svg>