<svg xmlns="http://www.w3.org/2000/svg" viewBox="0 0 640 512"><!--! Font Awesome Pro 6.2.0 by @fontawesome - https://fontawesome.com License - https://fontawesome.com/license (Commercial License) Copyright 2022 Fonticons, Inc. --><path d="M608 128.1l-128 .1257c-40.98-40.93-64.56-64.13-122.5-64.13c-10.49 0-19.98-.7132-30.24 8.467L217 163.6c-20.25 17.11-22.77 47.4-5.641 67.6C220.9 242.4 234.4 248.2 248 248.2c10.94 0 21.95-3.716 30.97-11.33L318.6 203.4l165.3 135.4c4.361 3.54 7.092 8.151 9.047 13.01L608 351.7c17.6 0 32-14.4 32-31.98V160.1C640 142.4 625.7 128.1 608 128.1z" class="fa-secondary"/></svg>