<svg xmlns="http://www.w3.org/2000/svg" viewBox="0 0 640 512"><!--! Font Awesome Pro 6.2.0 by @fontawesome - https://fontawesome.com License - https://fontawesome.com/license (Commercial License) Copyright 2022 Fonticons, Inc. --><path d="M532.6 128l-99.9 .004c-31.87 2.289-61.15 19.35-79.13 46.18c-9.828 14.69-5.891 34.56 8.781 44.41c14.66 9.812 34.55 5.906 44.41-8.781C414.2 198.7 426.6 191.1 440 191.1c22.06 0 40 17.94 40 40c0 22.06-17.94 39.1-40 39.1c-16.94 0-32.09-10.72-37.73-26.67c-5.891-16.66-24.17-25.39-40.84-19.5c-16.66 5.891-25.39 24.17-19.5 40.84c10.84 30.64 35.23 53.77 64.96 63.8l-79.68 22.76c-16.98 4.859-26.83 22.56-21.97 39.56c4.844 16.98 22.56 26.86 39.56 21.97l99.2-28.34l-80.82 69.28c-13.42 11.5-14.97 31.7-3.469 45.12c11.52 13.42 31.73 14.98 45.13 3.469l100.4-86.09l-22.33 48.39c-7.391 16.05-.3906 35.06 15.66 42.47c16.02 7.359 35.05 .4219 42.47-15.65l84.02-188C634.9 283.4 640 259.5 640 235.4C640 176.1 591.9 128 532.6 128z" class="fa-secondary"/></svg>