<svg xmlns="http://www.w3.org/2000/svg" viewBox="0 0 640 512"><!--! Font Awesome Pro 6.2.0 by @fontawesome - https://fontawesome.com License - https://fontawesome.com/license (Commercial License) Copyright 2022 Fonticons, Inc. --><path d="M608 48c0 0-24 38.63-24 53.38c0 14.62 10.75 26.56 23.1 26.56S632 116 632 101.4C632 86.63 608 48 608 48zM8 101.4C8 116 18.75 127.9 31.1 127.9S56 116 56 101.4C56 86.63 32 48 32 48S8 86.63 8 101.4zM296 53.38C296 68 306.7 79.94 319.1 79.94S344 68 344 53.38C344 38.63 320 0 320 0S296 38.63 296 53.38zM88 101.4C88 116 98.75 128 112 128s24-12 24-26.62C136 86.63 112 48 112 48S88 86.63 88 101.4zM152 101.4C152 116 162.8 128 176 128s24-12 24-26.62C200 86.63 176 48 176 48S152 86.63 152 101.4zM216 101.4C216 116 226.8 128 240 128s24-12 24-26.62C264 86.63 240 48 240 48S216 86.63 216 101.4zM376 101.4C376 116 386.8 128 400 128s24-12 24-26.62C424 86.63 400 48 400 48S376 86.63 376 101.4zM440 101.4C440 116 450.8 128 464 128s24-12 24-26.62C488 86.63 464 48 464 48S440 86.63 440 101.4zM504 101.4C504 116 514.8 128 528 128s24-12 24-26.62C552 86.63 528 48 528 48S504 86.63 504 101.4z" class="fa-secondary"/></svg>