<svg xmlns="http://www.w3.org/2000/svg" viewBox="0 0 448 512"><!--! Font Awesome Pro 6.2.0 by @fontawesome - https://fontawesome.com License - https://fontawesome.com/license (Commercial License) Copyright 2022 Fonticons, Inc. --><path d="M341.3 32.43c-17.53-2.875-33.92 8.891-36.83 26.3l-43.54 261.3h64.88l41.79-250.7C370.5 51.83 358.7 35.34 341.3 32.43zM240.4 442.7c-2.906 17.44 8.875 33.92 26.3 36.83C268.5 479.9 270.3 480 272 480c15.36 0 28.92-11.09 31.53-26.73l11.54-69.27h-64.88L240.4 442.7zM80.44 442.7c-2.906 17.44 8.875 33.92 26.3 36.83C108.5 479.9 110.3 480 112 480c15.36 0 28.92-11.09 31.53-26.73L187.1 191.1H122.2L80.44 442.7zM181.3 32.43c-17.53-2.875-33.92 8.891-36.83 26.3L132.9 127.1H197.8l9.789-58.74C210.5 51.83 198.7 35.34 181.3 32.43z" class="fa-secondary"/></svg>