<svg xmlns="http://www.w3.org/2000/svg" viewBox="0 0 512 512"><!--! Font Awesome Pro 6.2.0 by @fontawesome - https://fontawesome.com License - https://fontawesome.com/license (Commercial License) Copyright 2022 Fonticons, Inc. --><path d="M496 448h-480C7.164 448 0 455.2 0 464C0 490.5 21.49 512 48 512h416c26.51 0 48-21.49 48-48C512 455.2 504.8 448 496 448zM256 192l12.42 24.84c1.477 2.949 5.68 2.949 7.156 0L288 192l24.84-12.42c2.949-1.477 2.949-5.68 0-7.156L288 160l-12.42-24.84c-1.477-2.949-5.68-2.949-7.156 0L256 160L231.2 172.4c-2.949 1.477-2.949 5.68 0 7.156L256 192z" class="fa-secondary"/></svg>