<svg xmlns="http://www.w3.org/2000/svg" viewBox="0 0 512 512"><!--! Font Awesome Pro 6.2.0 by @fontawesome - https://fontawesome.com License - https://fontawesome.com/license (Commercial License) Copyright 2022 Fonticons, Inc. --><path d="M512 128c0 41.75-64 192-64 192h-74.45l26.22-157.3c1.469-8.719-4.367-17.02-13.09-18.46c-8.469-1.594-16.98 4.336-18.45 13.09L341.1 320H272V160c0-8.844-7.156-16-16-16S240 151.2 240 160v160H170.9L143.8 157.3c-1.469-8.75-9.891-14.68-18.45-13.09C116.6 145.7 110.8 153.1 112.2 162.7L138.4 320H64c0 0-64-150.3-64-192C-.125 91.5 20.38 58.12 53.13 42c32.63-16.25 71.63-12.5 100.6 9.75C177.1 20.5 213.1 0 256 0c41.1 0 78.88 20.5 102.3 51.75C374.9 39 395.1 32.13 416 32C469 32 512 75 512 128z" class="fa-secondary"/></svg>