<svg xmlns="http://www.w3.org/2000/svg" viewBox="0 0 512 512"><!--! Font Awesome Pro 6.2.0 by @fontawesome - https://fontawesome.com License - https://fontawesome.com/license (Commercial License) Copyright 2022 Fonticons, Inc. --><path d="M128 270.1l64 32l64-32l64 32l64-32l64 32l8.102-4.055c-31.67-76.73-90.37-135.1-147.8-158.6c-4.508 2.945-9.422 4.922-14.52 4.922c-4.375 0-8.5-1.5-12.5-3.625C277.9 151.8 268.1 160 256 160S234.1 151.8 230.8 140.8c-3.875 2.125-8 3.625-12.5 3.625c-5.191 0-10.09-1.973-14.55-4.914c-57.45 23.49-116.1 81.9-147.8 158.6L64 302.1L128 270.1zM467 328.4L448 337.9l-64-32l-64 32l-64-32l-64 32l-64-32l-64 32l-19-9.496C36.75 355.1 32 385.4 32 416v32h448v-32C480 385.4 475.3 355.1 467 328.4z" class="fa-secondary"/></svg>