<svg xmlns="http://www.w3.org/2000/svg" viewBox="0 0 512 512"><!--! Font Awesome Pro 6.2.0 by @fontawesome - https://fontawesome.com License - https://fontawesome.com/license (Commercial License) Copyright 2022 Fonticons, Inc. --><path d="M511.1 399.9C511.1 399.9 511.1 400 511.1 399.9C511.1 399.1 511.1 399.9 511.1 399.9zM.0042 399.9C.0042 399.1 .0042 399.9 .0042 399.9C.0042 399.9 .0042 400 .0042 399.9zM256 32C112.9 32 4.563 151.1 0 288v48.13c0-33.47 20.64-62.13 49.8-74.1C62.66 159.6 150.2 80.14 256 80.13c105.8 .0137 193.3 79.49 206.2 181.9C491.4 273.1 512 302.7 512 336.1V287.9C507.4 151 399.1 32 256 32z" class="fa-secondary"/></svg>