<svg xmlns="http://www.w3.org/2000/svg" viewBox="0 0 640 512"><!--! Font Awesome Pro 6.2.0 by @fontawesome - https://fontawesome.com License - https://fontawesome.com/license (Commercial License) Copyright 2022 Fonticons, Inc. --><path d="M477.2 275c-21-47.13-48.49-151.8-73.11-186.8C365.6 33.63 302.5 0 234.1 0L192 0C86 0 0 86 0 192c0 56.75 24.75 107.6 64 142.9L64 512h223.1v-32h64.01c35.38 0 64-28.62 64-63.1L320 416c-17.67 0-32-14.33-32-32s14.33-32 32-32h95.98l-.003-32h31.99C471.1 320 486.6 296.1 477.2 275zM336 224c-17.62 0-32-14.38-32-32s14.38-32 32-32s32 14.38 32 32S353.6 224 336 224z" class="fa-secondary"/></svg>