<svg xmlns="http://www.w3.org/2000/svg" viewBox="0 0 512 512"><!--! Font Awesome Pro 6.2.0 by @fontawesome - https://fontawesome.com License - https://fontawesome.com/license (Commercial License) Copyright 2022 Fonticons, Inc. --><path d="M303.1 64h111.9c-38.9-40.45-92.85-64-149.8-64H223.1C146.6 0 80.01 45.97 49.64 112h181.5C243.5 83.86 271.3 64 303.1 64zM509.2 275C503.3 261.7 496.8 243.6 490.1 224h-181.6c-33.22 0-63.84-19.23-77.23-48H32.81C32.37 181.3 32 186.6 32 192c0 54.5 23.25 106.5 63.1 142.9V512h223.1l.002-64h63.99c35.38 0 63.1-28.62 63.1-63.1V320h31.1c10.88 0 20.9-5.5 26.77-14.62C512.8 296.4 513.6 284.9 509.2 275z" class="fa-secondary"/></svg>