<svg xmlns="http://www.w3.org/2000/svg" viewBox="0 0 512 512"><!--! Font Awesome Pro 6.2.0 by @fontawesome - https://fontawesome.com License - https://fontawesome.com/license (Commercial License) Copyright 2022 Fonticons, Inc. --><path d="M506.8 305.4C500.9 314.5 490.9 320 479.1 320h-31.1v64C447.1 419.4 419.4 448 384 448h-63.99l-.003 64H64l.0068-177.2C23.26 298.4 0 246.5 0 192c0-95.07 69.25-173.8 160-189.1v104.4C122.3 125.2 95.1 163.4 95.1 208c0 61.88 50.13 112 112 112S320 269.9 320 208c0-44.63-26.25-82.75-63.1-100.8V0h10.13c67.63 0 130.1 32.87 169.1 88.25c24.63 35 52.12 139.6 73.12 186.8C513.6 284.9 512.8 296.4 506.8 305.4z" class="fa-secondary"/></svg>