<svg xmlns="http://www.w3.org/2000/svg" viewBox="0 0 576 512"><!--! Font Awesome Pro 6.2.0 by @fontawesome - https://fontawesome.com License - https://fontawesome.com/license (Commercial License) Copyright 2022 Fonticons, Inc. --><path d="M60.18 256C16.89 197.6 23.39 112.5 80.81 62.86C135.2 15.88 218.3 24.36 268.3 75.92l19.71 20.33l19.71-20.33C357.7 24.36 440.8 15.88 495.2 62.86c57.42 49.62 63.92 134.7 20.55 193.2h-121.5l-27.67-55.25c-5.884-11.75-22.78-11.75-28.67 0l-49.07 98L230.7 169.4c-5.884-12.75-24.04-12.5-29.54 .375l-35.93 86.25H60.18zM374.4 288l-22.03-44.25l-49.83 99.5c-6.009 12-23.41 11.62-28.92-.625L216.7 216.3l-30.05 71.75L88.55 288l176.4 182.2c12.66 13.07 33.36 13.07 46.03 0l176.4-182.2L374.4 288z" class="fa-secondary"/></svg>