<svg xmlns="http://www.w3.org/2000/svg" viewBox="0 0 640 512"><!--! Font Awesome Pro 6.2.0 by @fontawesome - https://fontawesome.com License - https://fontawesome.com/license (Commercial License) Copyright 2022 Fonticons, Inc. --><path d="M128 32C128 14.33 142.3 0 160 0H544C561.7 0 576 14.33 576 32C576 49.67 561.7 64 544 64H384V128H320V64H160C142.3 64 128 49.67 128 32zM630.6 470.6L626.7 474.5C602.7 498.5 570.2 512 536.2 512H256C238.3 512 224 497.7 224 480C224 462.3 238.3 448 256 448H536.2C553.2 448 569.5 441.3 581.5 429.3L585.4 425.4C597.9 412.9 618.1 412.9 630.6 425.4C643.1 437.9 643.1 458.1 630.6 470.6L630.6 470.6z" class="fa-secondary"/></svg>