<svg xmlns="http://www.w3.org/2000/svg" viewBox="0 0 576 512"><!--! Font Awesome Pro 6.2.0 by @fontawesome - https://fontawesome.com License - https://fontawesome.com/license (Commercial License) Copyright 2022 Fonticons, Inc. --><path d="M542 224H477.3C463.9 143.6 400.4 80.15 320 66.66V1.984C435.8 16.42 527.6 108.2 542 224V224zM477.3 288H542C527.6 403.8 435.8 495.6 320 510V445.4C400.4 431.9 463.9 368.4 477.3 288V288zM256 445.4V510C140.2 495.6 48.42 403.8 33.98 288H98.65C112.1 368.4 175.6 431.9 256 445.4zM98.66 224H33.98C48.42 108.2 140.2 16.42 256 1.984V66.66C175.6 80.15 112.1 143.6 98.66 224V224z" class="fa-secondary"/></svg>