<svg xmlns="http://www.w3.org/2000/svg" viewBox="0 0 576 512"><!--! Font Awesome Pro 6.2.0 by @fontawesome - https://fontawesome.com License - https://fontawesome.com/license (Commercial License) Copyright 2022 Fonticons, Inc. --><path d="M183.3 183.3L360.7 360.7L334.4 396.5C325.3 408.8 310.1 416 295.7 416H223.1L198.6 441.4C186.1 453.9 165.9 453.9 153.4 441.4L102.6 390.6C90.13 378.1 90.13 357.9 102.6 345.4L127.1 320L127.1 248.3C127.1 233 135.2 218.7 147.5 209.6L183.3 183.3zM552 464C565.3 464 576 474.7 576 488C576 501.3 565.3 512 552 512H223.1C210.7 512 199.1 501.3 199.1 488C199.1 474.7 210.7 464 223.1 464H552z" class="fa-secondary"/></svg>