<svg xmlns="http://www.w3.org/2000/svg" viewBox="0 0 448 512"><!--! Font Awesome Pro 6.2.0 by @fontawesome - https://fontawesome.com License - https://fontawesome.com/license (Commercial License) Copyright 2022 Fonticons, Inc. --><path d="M144 320H416c17.66 0 32-14.34 32-32s-14.34-32-32-32H144C99.81 256 64 220.2 64 176S99.81 96 144 96H256V32H144C64.48 32 0 96.48 0 176S64.48 320 144 320zM416 448H32c-17.66 0-32 14.34-32 32s14.34 32 32 32h384c17.66 0 32-14.34 32-32S433.7 448 416 448zM416 352H32c-17.66 0-32 14.34-32 32s14.34 32 32 32h384c17.66 0 32-14.34 32-32S433.7 352 416 352z" class="fa-secondary"/></svg>