<svg xmlns="http://www.w3.org/2000/svg" viewBox="0 0 576 512"><!--! Font Awesome Pro 6.2.0 by @fontawesome - https://fontawesome.com License - https://fontawesome.com/license (Commercial License) Copyright 2022 Fonticons, Inc. --><path d="M320 96C320 61.56 292.8 33.48 258.7 32.06C265.3 13.38 283.1 0 304 0H528C554.5 0 576 21.49 576 48V464C576 490.5 554.5 512 528 512H311.4C316.9 502.6 320 491.7 320 480L320 96zM424 64C415.2 64 408 71.16 408 80V104H384C375.2 104 368 111.2 368 120V136C368 144.8 375.2 152 384 152H408V176C408 184.8 415.2 192 424 192H440C448.8 192 456 184.8 456 176V152H480C488.8 152 496 144.8 496 136V120C496 111.2 488.8 104 480 104H456V80C456 71.16 448.8 64 440 64H424zM576 256H432C423.2 256 416 263.2 416 272C416 280.8 423.2 288 432 288H576V256zM576 352H432C423.2 352 416 359.2 416 368C416 376.8 423.2 384 432 384H576V352z" class="fa-secondary"/></svg>