<svg xmlns="http://www.w3.org/2000/svg" viewBox="0 0 512 512"><!--! Font Awesome Pro 6.2.0 by @fontawesome - https://fontawesome.com License - https://fontawesome.com/license (Commercial License) Copyright 2022 Fonticons, Inc. --><path d="M488.6 23.44c-31.07-31.19-81.75-31.16-112.8 .0313L24.46 374.8c-20.83 19.96-29.19 49.65-21.83 77.6c7.36 27.95 29.07 49.65 57.02 57.01c27.95 7.364 57.64-.9949 77.6-21.83l351.3-351.3C519.7 105.2 519.8 54.5 488.6 23.44zM438.8 118.4c-19.59 19.59-37.39 22.51-51.74 25.01c-12.97 2.242-22.33 3.868-34.68 16.22c-12.35 12.35-13.97 21.71-16.22 34.69c-2.495 14.35-5.488 32.19-25.08 51.78s-37.43 22.58-51.78 25.08c-12.97 2.246-22.33 3.867-34.68 16.22C212.2 299.8 210.6 309.1 208.4 322.1c-2.494 14.35-5.488 32.19-25.08 51.78c-19.59 19.59-37.43 22.58-51.78 25.08c-12.97 2.242-22.33 3.868-34.68 16.22c-6.239 6.239-16.35 6.239-22.58 0c-6.239-6.239-6.239-16.34 0-22.58c19.59-19.59 37.43-22.58 51.78-25.07c12.98-2.25 22.33-3.871 34.68-16.22c12.35-12.35 13.97-21.71 16.22-34.69c2.496-14.35 5.49-32.19 25.08-51.78c19.59-19.59 37.43-22.58 51.78-25.08c12.98-2.242 22.33-3.867 34.68-16.22c12.35-12.35 13.97-21.7 16.22-34.68c2.496-14.35 5.49-32.19 25.08-51.78s37.43-22.58 51.78-25.07c12.98-2.25 22.28-3.812 34.63-16.17c6.237-6.239 16.35-6.239 22.59 0C444.1 102.1 444.1 112.2 438.8 118.4z" class="fa-secondary"/></svg>