<svg xmlns="http://www.w3.org/2000/svg" viewBox="0 0 640 512"><!--! Font Awesome Pro 6.2.0 by @fontawesome - https://fontawesome.com License - https://fontawesome.com/license (Commercial License) Copyright 2022 Fonticons, Inc. --><path d="M72 0C85.25 0 96 10.75 96 24V96H128V24C128 10.75 138.7 0 152 0H200C213.3 0 224 10.75 224 24V96H256V24C256 10.75 266.7 0 280 0H328C341.3 0 352 10.75 352 24V124.6L249.9 218.1C233.4 233.3 224 254.7 224 277.1V464C224 482 229.1 498.6 239.1 512H112C85.49 512 64 490.5 64 464V288L18.75 242.7C6.743 230.7 0 214.5 0 197.5V24C0 10.75 10.75 .0006 24 .0006L72 0zM176 160C153.9 160 136 177.9 136 200V224C136 232.8 143.2 240 152 240H200C208.8 240 216 232.8 216 224V200C216 177.9 198.1 160 176 160z" class="fa-secondary"/></svg>