<svg xmlns="http://www.w3.org/2000/svg" viewBox="0 0 640 512"><!--! Font Awesome Pro 6.2.0 by @fontawesome - https://fontawesome.com License - https://fontawesome.com/license (Commercial License) Copyright 2022 Fonticons, Inc. --><path d="M566.6 137.4C575.8 146.5 578.5 160.3 573.6 172.2C568.6 184.2 556.9 192 544 192H514.6L600.1 300C608.7 309.6 610.2 322.8 604.8 333.9C599.5 344.1 588.3 352 576 352H546.6L632.1 460C640.7 469.6 642.2 482.8 636.8 493.9C631.5 504.1 620.3 512 608 512H400C410 498.6 416 482 416 464V277.1C416 254.7 406.6 233.3 390.1 218.1L282.9 119.9L393.4 9.372C405.9-3.124 426.1-3.124 438.6 9.372L566.6 137.4z" class="fa-secondary"/></svg>