<svg xmlns="http://www.w3.org/2000/svg" viewBox="0 0 640 512"><!--! Font Awesome Pro 6.2.0 by @fontawesome - https://fontawesome.com License - https://fontawesome.com/license (Commercial License) Copyright 2022 Fonticons, Inc. --><path d="M160.2 0C166.1 0 171.5 3.231 174.3 8.412L201.8 59.61L257.5 42.92C263.2 41.23 269.3 42.77 273.4 46.93C277.6 51.09 279.1 57.2 277.5 62.84L260.8 118.6L296.1 137.6L231.4 197.3C236.1 186.4 240.1 174.1 240.1 160.1C240.1 116.8 204.3 80.95 160.1 80.95C115.9 80.95 80.07 116.8 80.07 160.1C80.07 205.2 115.9 241 160.1 241C170.9 241 181.2 238.9 190.6 235L133.2 288L118.5 260.9L62.82 277.5C57.19 279.2 51.08 277.7 46.92 273.5C42.75 269.4 41.21 263.3 42.9 257.6L59.59 201.9L8.407 174.3C3.229 171.5 0 165.9 0 160.1C0 154.2 3.229 148.9 8.407 146.2L59.59 118.6L42.9 62.84C41.21 57.2 42.76 51.09 46.92 46.93C51.08 42.77 57.19 41.23 62.82 42.92L118.5 59.61L146.1 8.412C148.9 3.231 154.3 0 160.2 0zM112.1 160.1C112.1 133.6 133.6 112.1 160.1 112.1C186.6 112.1 208.1 133.6 208.1 160.1C208.1 186.6 186.6 208.1 160.1 208.1C133.6 208.1 112.1 186.6 112.1 160.1z" class="fa-secondary"/></svg>