<svg xmlns="http://www.w3.org/2000/svg" viewBox="0 0 576 512"><!--! Font Awesome Pro 6.2.0 by @fontawesome - https://fontawesome.com License - https://fontawesome.com/license (Commercial License) Copyright 2022 Fonticons, Inc. --><path d="M64.07 448L64.02 270.5L288 74.52L512.1 270.6L512.5 447.9C512.6 483.3 483.9 512 448.5 512H128.1C92.74 512 64.09 483.4 64.07 448L64.07 448zM299.3 428.7L392 336C414.1 313.9 414.1 278.1 392 256C369.9 233.9 334.1 233.9 312 256L288 280L264 256C241.9 233.9 206.1 233.9 184 256C161.9 278.1 161.9 313.9 184 336L276.7 428.7C282.9 434.9 293.1 434.9 299.3 428.7H299.3z" class="fa-secondary"/></svg>