<svg xmlns="http://www.w3.org/2000/svg" viewBox="0 0 576 512"><!--! Font Awesome Pro 6.2.0 by @fontawesome - https://fontawesome.com License - https://fontawesome.com/license (Commercial License) Copyright 2022 Fonticons, Inc. --><path d="M565.1 231.9l-255.1-223.1c-6.029-5.283-13.55-7.92-21.08-7.92c-6.199 0-14.15 1.85-21.08 7.92l-255.1 223.1C-11.25 251.3 2.604 287.1 32 287.1h32.02v100.9c8.527-7.877 19.54-12.51 31.35-12.51c40.88 0 34.45 39.62 97.04 39.62c64.52 0 53.23-39.66 95.32-40.02c42.2 .3652 31.4 40.02 95.9 40.02c62.63 0 55.89-39.62 97.04-39.62c11.79 0 22.8 4.617 31.32 12.47V287.1H544c17.73 0 31.1-14.4 31.1-32C575.1 246.9 572.2 238.1 565.1 231.9zM352 298.6c0 11.88-9.625 21.38-21.38 21.38H245.4c-11.75 0-21.38-9.625-21.38-21.38V213.4c0-11.88 9.625-21.38 21.38-21.38h85.25c11.75 0 21.38 9.5 21.38 21.38V298.6z" class="fa-secondary"/></svg>