<svg xmlns="http://www.w3.org/2000/svg" viewBox="0 0 576 512"><!--! Font Awesome Pro 6.2.0 by @fontawesome - https://fontawesome.com License - https://fontawesome.com/license (Commercial License) Copyright 2022 Fonticons, Inc. --><path d="M565.7 200.5C575.4 209.4 578.6 223.4 573.8 235.7C569 247.9 557.2 256 544 256H512V368C512 394.5 490.5 416 464 416H296.4C272.7 317.5 195.4 239.1 97.06 215.8C98.58 210.1 101.7 204.7 106.3 200.5L314.3 8.486C326.6-2.829 345.4-2.829 357.7 8.486L565.7 200.5zM288 272C288 280.8 295.2 288 304 288H368C376.8 288 384 280.8 384 272V208C384 199.2 376.8 192 368 192H304C295.2 192 288 199.2 288 208V272z" class="fa-secondary"/></svg>