<svg xmlns="http://www.w3.org/2000/svg" viewBox="0 0 576 512"><!--! Font Awesome Pro 6.2.0 by @fontawesome - https://fontawesome.com License - https://fontawesome.com/license (Commercial License) Copyright 2022 Fonticons, Inc. --><path d="M288 74.52L512.1 270.6L512.5 447.9C512.6 483.3 483.9 512 448.5 512H128.1C92.74 512 64.09 483.4 64.07 448L64.02 270.5L288 74.52zM400 280C400 271.2 392.8 264 384 264H328V208C328 199.2 320.8 192 312 192H264C255.2 192 248 199.2 248 208V264H192C183.2 264 176 271.2 176 280V328C176 336.8 183.2 344 192 344H248V400C248 408.8 255.2 416 264 416H312C320.8 416 328 408.8 328 400V344H384C392.8 344 400 336.8 400 328V280z" class="fa-secondary"/></svg>