<svg xmlns="http://www.w3.org/2000/svg" viewBox="0 0 576 512"><!--! Font Awesome Pro 6.2.0 by @fontawesome - https://fontawesome.com License - https://fontawesome.com/license (Commercial License) Copyright 2022 Fonticons, Inc. --><path d="M384 336C410.9 336 439.4 325.2 461.4 309.9L461.5 309.9C473.4 301.4 489.5 302.1 500.7 311.6C515 323.5 533.2 332.6 551.3 336.8C568.5 340.8 579.2 358.1 575.2 375.3C571.2 392.5 553.1 403.2 536.7 399.2C512.2 393.4 491.9 382.6 478.5 374.2C449.5 389.7 417 400 384 400C352.1 400 323.4 390.1 303.6 381.1C297.7 378.5 292.5 375.8 288 373.4C283.5 375.8 278.3 378.5 272.4 381.1C252.6 390.1 223.9 400 192 400C158.1 400 126.5 389.7 97.5 374.2C84.12 382.6 63.79 393.4 39.27 399.2C22.06 403.2 4.853 392.5 .8422 375.3C-3.169 358.1 7.532 340.8 24.74 336.8C42.84 332.6 60.96 323.5 75.31 311.6C86.46 302.1 102.6 301.4 114.5 309.9L114.6 309.9C136.7 325.2 165.1 336 192 336C219.5 336 247 325.4 269.5 309.9C280.6 302 295.4 302 306.5 309.9C328.1 325.4 356.5 336 384 336H384zM461.4 421.9L461.5 421.9C473.4 413.4 489.5 414.1 500.7 423.6C515 435.5 533.2 444.6 551.3 448.8C568.5 452.8 579.2 470.1 575.2 487.3C571.2 504.5 553.1 515.2 536.7 511.2C512.2 505.4 491.9 494.6 478.5 486.2C449.5 501.7 417 512 384 512C352.1 512 323.4 502.1 303.6 493.1C297.7 490.5 292.5 487.8 288 485.4C283.5 487.8 278.3 490.5 272.4 493.1C252.6 502.1 223.9 512 192 512C158.1 512 126.5 501.7 97.5 486.2C84.12 494.6 63.79 505.4 39.27 511.2C22.06 515.2 4.853 504.5 .8422 487.3C-3.169 470.1 7.532 452.8 24.74 448.8C42.84 444.6 60.96 435.5 75.31 423.6C86.46 414.1 102.6 413.4 114.5 421.9L114.6 421.9C136.7 437.2 165.1 448 192 448C219.5 448 247 437.4 269.5 421.9C280.6 414 295.4 414 306.5 421.9C328.1 437.4 356.5 448 384 448C410.9 448 439.4 437.2 461.4 421.9H461.4z" class="fa-secondary"/></svg>