<svg xmlns="http://www.w3.org/2000/svg" viewBox="0 0 640 512"><!--! Font Awesome Pro 6.2.0 by @fontawesome - https://fontawesome.com License - https://fontawesome.com/license (Commercial License) Copyright 2022 Fonticons, Inc. --><path d="M337.2 284.5C305.9 268.8 293.3 230.4 308.8 198.9l6.743-13.61c13.88-28 37.57-50.02 66.45-61.77l7.397-2.967L263.5 8.906c-13.38-11.88-33.5-11.88-46.88 0L4.715 196.4c-5.752 5.25-6.377 14.12-1.127 20l18.75 21.38c5.125 5.75 14.13 6.375 20 1.25l21.63-19.13v164.2c0 17.63 14.38 32.01 32 32.01l229.5-.0566l31.28-31.39c3-3 5.411-6.729 7.036-10.73l32.46-80.76c-.5-3-.748-6.033-.998-9.033C377.2 293.6 355.4 293.8 337.2 284.5zM223.1 272c0 8.875-7.127 16-16 16h-64c-8.877 0-16-7.125-16-16V208c0-8.875 7.124-16 16-16h64c8.875 0 16 7.125 16 16V272zM528 96.02c26.5 0 48-21.5 48-48.01c0-26.5-21.5-48.01-48-48.01c-26.5 0-48 21.5-48 48.01C479.1 74.52 501.5 96.02 528 96.02z" class="fa-secondary"/></svg>