<svg xmlns="http://www.w3.org/2000/svg" viewBox="0 0 576 512"><!--! Font Awesome Pro 6.2.0 by @fontawesome - https://fontawesome.com License - https://fontawesome.com/license (Commercial License) Copyright 2022 Fonticons, Inc. --><path d="M288 74.52L512.1 270.6L512.5 447.9C512.6 483.3 483.9 512 448.5 512H128.1C92.74 512 64.09 483.4 64.07 448L64.02 270.5L288 74.52zM288 320C323.3 320 352 291.3 352 256C352 220.7 323.3 192 288 192C252.7 192 224 220.7 224 256C224 291.3 252.7 320 288 320zM192 448H384C392.8 448 400 440.8 400 432C400 387.8 364.2 352 320 352H256C211.8 352 176 387.8 176 432C176 440.8 183.2 448 192 448z" class="fa-secondary"/></svg>