<svg xmlns="http://www.w3.org/2000/svg" viewBox="0 0 640 512"><!--! Font Awesome Pro 6.2.0 by @fontawesome - https://fontawesome.com License - https://fontawesome.com/license (Commercial License) Copyright 2022 Fonticons, Inc. --><path d="M375.2 333.4c-30.78 12.13-65.94-1.47-80.45-31.1c-15.52-31.63-2.626-69.92 28.53-85.67l11.62-5.818l5.521-16.88c9.385-28.5 27.64-53.35 52.04-71.1l-128.8-113.9c-13.39-11.88-33.54-11.88-46.92 0L4.719 196.4c-5.756 5.25-6.382 14.13-1.126 20l18.77 21.38c5.13 5.75 14.14 6.375 20.02 1.25l21.65-19.13v164.1c0 17.63 14.39 32 32.03 32l246.2-.0256l10.12-40.52c3.879-15.5 11.49-29.81 22.37-41.56L375.2 333.4zM224.1 272c0 8.875-7.124 16-16.01 16H144.1c-8.884 0-16.01-7.125-16.01-16V208c0-8.875 7.124-16 16.01-16h64.03c8.884 0 16.01 7.125 16.01 16V272zM432.2 96.02c26.53 0 48.18-21.5 48.18-47.1s-21.65-48.01-48.18-48.01s-48.05 21.5-48.05 48S405.7 96.02 432.2 96.02z" class="fa-secondary"/></svg>