<svg xmlns="http://www.w3.org/2000/svg" viewBox="0 0 384 512"><!--! Font Awesome Pro 6.2.0 by @fontawesome - https://fontawesome.com License - https://fontawesome.com/license (Commercial License) Copyright 2022 Fonticons, Inc. --><path d="M247.3 187.5L155.5 240H32C14.33 240 0 225.7 0 208C0 190.3 14.33 176 32 176H260.9C257.2 180.6 252.6 184.5 247.3 187.5zM52.33 336H32C14.33 336 .0003 321.7 .0003 304C.0003 286.3 14.33 272 32 272H99.82C76.51 287 59.79 309.9 52.33 336V336zM123.1 336C126.8 331.4 131.4 327.5 136.7 324.5L228.5 272H352C369.7 272 384 286.3 384 304C384 321.7 369.7 336 352 336H123.1zM284.2 240C307.5 224.1 324.2 202.1 331.7 176H352C369.7 176 384 190.3 384 208C384 225.7 369.7 240 352 240H284.2z" class="fa-secondary"/></svg>