<svg xmlns="http://www.w3.org/2000/svg" viewBox="0 0 512 512"><!--! Font Awesome Pro 6.2.0 by @fontawesome - https://fontawesome.com License - https://fontawesome.com/license (Commercial License) Copyright 2022 Fonticons, Inc. --><path d="M36.52 415.7C19.03 418.2 2.817 406 .3178 388.5C-2.181 371 9.975 354.8 27.47 352.3L475.5 288.3C492.1 285.8 509.2 297.1 511.7 315.5C514.2 332.1 502 349.2 484.5 351.7L36.52 415.7zM260.5 479.7C243 482.2 226.8 470 224.3 452.5C221.8 435 233.1 418.8 251.5 416.3L475.5 384.3C492.1 381.8 509.2 393.1 511.7 411.5C514.2 428.1 502 445.2 484.5 447.7L260.5 479.7z" class="fa-secondary"/></svg>