<svg xmlns="http://www.w3.org/2000/svg" viewBox="0 0 448 512"><!--! Font Awesome Pro 6.2.0 by @fontawesome - https://fontawesome.com License - https://fontawesome.com/license (Commercial License) Copyright 2022 Fonticons, Inc. --><path d="M208 95.98l24.5-74.74c3.75-11.25-5.615-22.49-17.36-21.11C112 12.38 32 101.6 32 208c0 114.9 93.13 208 208 208l-24.5 74.73c-3.75 11.25 5.615 22.5 17.36 21.12C335.1 499.6 416 410.4 416 304C416 189.1 322.9 95.98 208 95.98zM224 351.1c-53 0-96-43-96-96s43-96 96-96s96 43 96 96S277 351.1 224 351.1z" class="fa-secondary"/></svg>