<svg xmlns="http://www.w3.org/2000/svg" viewBox="0 0 576 512"><!--! Font Awesome Pro 6.2.0 by @fontawesome - https://fontawesome.com License - https://fontawesome.com/license (Commercial License) Copyright 2022 Fonticons, Inc. --><path d="M272 128h48V96h-48c-8.836 0-16 7.164-16 16S263.2 128 272 128zM552 416c-13.2 0-24 10.8-24 23.1C528 453.3 517.3 464 504 464h-71.1L432 384H384l0 80h-240L144 384H96l0 80H32c-17.6 0-31.1 14.4-31.1 31.1C.0001 510 13.18 512 16 512h496c35.2 0 64-28.8 64-64L576 439.1C576 426.8 565.2 416 552 416zM272 192h48V160h-48c-8.836 0-16 7.164-16 16S263.2 192 272 192z" class="fa-secondary"/></svg>