<svg xmlns="http://www.w3.org/2000/svg" viewBox="0 0 512 512"><!--! Font Awesome Pro 6.2.0 by @fontawesome - https://fontawesome.com License - https://fontawesome.com/license (Commercial License) Copyright 2022 Fonticons, Inc. --><path d="M116.7 219.1L19.85 119.2C-8.113 90.26-6.615 42.31 24.85 15.34C51.81-8.138 93.26-3.643 118.2 21.83L128.2 32.32L137.7 21.83C162.7-3.643 203.6-8.138 231.6 15.34C262.6 42.31 264.1 90.26 236.1 119.2L139.7 219.1C133.2 225.6 122.7 225.6 116.7 219.1H116.7zM473.4 259.1C479.4 263.4 481.6 271.4 478.7 278.3L440.3 367.1H495.1C502.7 367.1 508.6 372.1 510.1 378.4C513.3 384.6 511.6 391.6 506.5 396L378.5 508C372.9 512.1 364.6 513.3 358.6 508.9C352.6 504.6 350.3 496.6 353.3 489.7L391.7 399.1H335.1C329.3 399.1 323.4 395.9 321 389.6C318.7 383.4 320.4 376.3 325.5 371.1L453.5 259.1C459.1 255 467.4 254.7 473.4 259.1V259.1z" class="fa-secondary"/></svg>