<svg xmlns="http://www.w3.org/2000/svg" viewBox="0 0 576 512"><!--! Font Awesome Pro 6.2.0 by @fontawesome - https://fontawesome.com License - https://fontawesome.com/license (Commercial License) Copyright 2022 Fonticons, Inc. --><path d="M528 64H352v64h16C377.6 128 384 134.4 384 144S377.6 160 368 160h-160C198.4 160 192 153.6 192 144S198.4 128 208 128H224V64H48C22.4 64 0 86.4 0 112v352C0 489.6 22.4 512 48 512h480c25.6 0 48-22.4 48-48v-352C576 86.4 553.6 64 528 64zM288 224c35.35 0 64 28.66 64 64s-28.65 64-64 64s-64-28.66-64-64S252.7 224 288 224zM384 448H192c-8.836 0-16-7.164-16-16C176 405.5 197.5 384 224 384h128c26.51 0 48 21.49 48 48C400 440.8 392.8 448 384 448z" class="fa-secondary"/></svg>