<svg xmlns="http://www.w3.org/2000/svg" viewBox="0 0 576 512"><!--! Font Awesome Pro 6.2.0 by @fontawesome - https://fontawesome.com License - https://fontawesome.com/license (Commercial License) Copyright 2022 Fonticons, Inc. --><path d="M288 32C298.8 32 309.5 32.6 320 33.76V160H48.5C100.2 82.82 188.1 32 288 32zM527.5 160H352V39.14C424.9 55.67 487.2 99.82 527.5 160zM0 320C0 274 10.77 230.6 29.94 192H96V320H0zM197.5 320H128V192H448V320H378.5C365.4 282.7 329.8 256 288 256C246.2 256 210.6 282.7 197.5 320zM576 352V432C576 458.5 554.5 480 528 480H384V352H576zM48 480C21.49 480 0 458.5 0 432V352H192V480H48zM576 320H480V192H546.1C565.2 230.6 576 274 576 320z" class="fa-secondary"/></svg>