<svg xmlns="http://www.w3.org/2000/svg" viewBox="0 0 576 512"><!--! Font Awesome Pro 6.2.0 by @fontawesome - https://fontawesome.com License - https://fontawesome.com/license (Commercial License) Copyright 2022 Fonticons, Inc. --><path d="M527.1 32H144C117.5 32 96 53.49 96 80v256c0 26.51 21.49 48 48 48h383.1C554.5 384 576 362.5 576 336v-256C576 53.49 554.5 32 527.1 32zM223.1 96c17.68 0 32 14.33 32 32S241.7 160 223.1 160C206.3 160 191.1 145.7 191.1 128S206.3 96 223.1 96zM494.1 311.6C491.3 316.8 485.9 320 480 320H192C185.1 320 180.5 316.6 177.7 311.3C175 305.9 175.5 299.4 179.1 294.6l70-96C252.1 194.4 256.9 192 262 192C267.1 192 271.9 194.4 274.9 198.6l22.35 30.66l62.74-94.11C362.1 130.7 367.1 128 373.3 128c5.348 0 10.34 2.672 13.31 7.125l106.7 160C496.6 300 496.9 306.3 494.1 311.6z" class="fa-secondary"/></svg>