<svg xmlns="http://www.w3.org/2000/svg" viewBox="0 0 640 512"><!--! Font Awesome Pro 6.2.0 by @fontawesome - https://fontawesome.com License - https://fontawesome.com/license (Commercial License) Copyright 2022 Fonticons, Inc. --><path d="M145.1 416c-6.021 0-11.53-3.379-14.26-8.75c-2.73-5.367-2.215-11.81 1.334-16.68l70-96C206.1 290.4 210.9 288 216 288s9.916 2.441 12.93 6.574l32.46 44.51l16.43-24.65L63.99 146.8L63.99 416c0 35.35 28.65 64 64 64h361.1l-81.66-64H145.1zM511.1 32H127.1C113.6 32 100.4 36.98 89.78 45.06l69.08 54.14C164.2 97.15 169.9 96 175.1 96c26.51 0 48 21.49 48 48c0 1.945-.6211 3.701-.8457 5.586l108.1 84.72l23.45-35.18C357.7 194.7 362.7 192 368 192s10.35 2.672 13.31 7.125l103.9 155.9l89.63 70.25C575.3 422.2 575.1 419.2 575.1 416l.0034-320C575.1 60.65 547.3 32 511.1 32z" class="fa-secondary"/></svg>