<svg xmlns="http://www.w3.org/2000/svg" viewBox="0 0 512 512"><!--! Font Awesome Pro 6.2.0 by @fontawesome - https://fontawesome.com License - https://fontawesome.com/license (Commercial License) Copyright 2022 Fonticons, Inc. --><path d="M391 96h-270L72.97 288H128l32 64h192l32-64h55.03L391 96zM176 144h160C344.8 144 352 151.2 352 160c0 8.836-7.164 16-16 16h-160C167.2 176 160 168.8 160 160C160 151.2 167.2 144 176 144zM368 256h-224C135.2 256 128 248.8 128 240C128 231.2 135.2 224 144 224h224C376.8 224 384 231.2 384 240C384 248.8 376.8 256 368 256z" class="fa-secondary"/></svg>