<svg xmlns="http://www.w3.org/2000/svg" viewBox="0 0 576 512"><!--! Font Awesome Pro 6.2.0 by @fontawesome - https://fontawesome.com License - https://fontawesome.com/license (Commercial License) Copyright 2022 Fonticons, Inc. --><path d="M32 64C32 46.33 46.33 32 64 32H128C145.7 32 160 46.33 160 64V265.4L352 155.6V265.4L544 155.6V432C544 458.5 522.5 480 496 480H80C53.49 480 32 458.5 32 432V64zM136 312C127.2 312 120 319.2 120 328V376C120 384.8 127.2 392 136 392H184C192.8 392 200 384.8 200 376V328C200 319.2 192.8 312 184 312H136zM264 312C255.2 312 248 319.2 248 328V376C248 384.8 255.2 392 264 392H312C320.8 392 328 384.8 328 376V328C328 319.2 320.8 312 312 312H264zM376 376C376 384.8 383.2 392 392 392H440C448.8 392 456 384.8 456 376V328C456 319.2 448.8 312 440 312H392C383.2 312 376 319.2 376 328V376z" class="fa-secondary"/></svg>