<svg xmlns="http://www.w3.org/2000/svg" viewBox="0 0 576 512"><!--! Font Awesome Pro 6.2.0 by @fontawesome - https://fontawesome.com License - https://fontawesome.com/license (Commercial License) Copyright 2022 Fonticons, Inc. --><path d="M31.99 320C14.37 320 0 334.4 0 352s14.37 31.1 31.99 31.1s31.99-14.37 31.99-31.1S49.62 320 31.99 320zM31.99 224C14.37 224 0 238.4 0 256s14.37 31.1 31.99 31.1s31.99-14.37 31.99-31.1S49.62 224 31.99 224zM31.99 416C14.37 416 0 430.4 0 448s14.37 31.1 31.99 31.1S63.99 465.6 63.99 448S49.62 416 31.99 416zM555.2 65.24l-120.5-32.26c-14.98-4.047-30.3 4.812-34.34 19.8l-22.27 81.09l147.4 147.4l49.55-181.7C579.1 84.6 570.2 69.29 555.2 65.24zM127.1 368c-17.62 0-31.99 14.37-31.99 31.1s14.37 31.1 31.99 31.1s31.99-14.37 31.99-31.1S145.6 368 127.1 368zM127.1 272c-17.62 0-31.99 14.37-31.99 31.1s14.37 31.1 31.99 31.1s31.99-14.37 31.99-31.1S145.6 272 127.1 272z" class="fa-secondary"/></svg>