<svg xmlns="http://www.w3.org/2000/svg" viewBox="0 0 576 512"><!--! Font Awesome Pro 6.2.0 by @fontawesome - https://fontawesome.com License - https://fontawesome.com/license (Commercial License) Copyright 2022 Fonticons, Inc. --><path d="M425.5 128.4c-10.01 0-20.05 1.27-29.77 3.788c18.82 16.9 18.62 19.65 25.38 31.88c-31.75-23.62-75.63-36.11-133.1-36.11s-101.4 12.49-133.1 36.11c6.82-12.34 6.585-15 25.38-31.88C170.5 129.7 160.5 128.4 150.5 128.4C51 128.4-.0021 254.4 0 319.9c.0021 64.45 51.26 192 151.5 192c24.97 0 49.96-7.939 69.4-23.8c17.75 15.38 39.89 23.86 67.14 23.86c27.25 0 49.38-8.487 67.25-23.86c19.38 15.86 44.34 23.8 69.3 23.8c100.1 0 151.4-126.1 151.4-192C576 255.7 525.1 128.4 425.5 128.4zM320.1 281.3c0-1.244 .2848-2.44 .7786-3.357l41.13-66.63c1.179-2.297 3.301-3.409 5.566-3.409c2.296 0 4.737 1.144 6.436 3.409l41.13 66.63c.4553 .9105 .7241 2.096 .7241 3.33c0 3.172-1.775 6.67-6.724 6.67h-82.26C321.9 287.1 320.1 284.5 320.1 281.3zM160.1 281.3c0-1.244 .2848-2.44 .7786-3.357l41.13-66.63c1.179-2.297 3.315-3.422 5.579-3.422c2.296 0 4.724 1.157 6.423 3.422L255.1 277.1c.4552 .9105 .7241 2.096 .7241 3.33c0 3.172-1.775 6.67-6.724 6.67H166.9C161.9 287.1 160.1 284.5 160.1 281.3zM470.7 340.3c0 6.788-9.237 27.74-19.55 42.23c-9.375 13-21.38 23.88-35.25 33c-.25-8.625-7.25-15.5-15.88-15.5h-16c-8.875 0-16 7.125-16 16v21.5C344.5 444.4 317.9 447.1 288 447.1s-56.51-3.627-80.01-10.5v-21.5c0-8.875-7.127-16-16-16H175.1c-8.752 0-15.75 7-15.88 15.63c-13.75-9.125-25.63-19.75-34.75-32.5c-11.69-16.45-20.05-37.03-20.05-42.76c0-8.691 7.585-15.65 16.05-15.65c12.33 0 41.48 29.38 118.6 41.16v18.13c0 8.875 7.127 16 16 16h16C280.9 399.1 288 392.9 288 383.1v-14.25c100.1 0 155.7-45.03 166.7-45.03C463.3 324.7 470.7 331.9 470.7 340.3z" class="fa-secondary"/></svg>