<svg xmlns="http://www.w3.org/2000/svg" viewBox="0 0 320 512"><!--! Font Awesome Pro 6.2.0 by @fontawesome - https://fontawesome.com License - https://fontawesome.com/license (Commercial License) Copyright 2022 Fonticons, Inc. --><path d="M256 80C291.3 80 320 108.7 320 144V448C320 483.3 291.3 512 256 512H64C28.65 512 0 483.3 0 448V144C0 108.7 28.65 80 64 80H256zM208 160C188.9 160 171.7 168.4 160 181.7C148.3 168.4 131.1 160 112 160H64C64 195.3 92.65 224 128 224H192C227.3 224 256 195.3 256 160H208zM192 320C227.3 320 256 291.3 256 256H208C188.9 256 171.7 264.4 160 277.7C148.3 264.4 131.1 256 112 256H64C64 291.3 92.65 320 128 320H192zM208 352C188.9 352 171.7 360.4 160 373.7C148.3 360.4 131.1 352 112 352H64C64 387.3 92.65 416 128 416H144V448C144 456.8 151.2 464 160 464C168.8 464 176 456.8 176 448V416H192C227.3 416 256 387.3 256 352H208z" class="fa-secondary"/></svg>