<svg xmlns="http://www.w3.org/2000/svg" viewBox="0 0 576 512"><!--! Font Awesome Pro 6.2.0 by @fontawesome - https://fontawesome.com License - https://fontawesome.com/license (Commercial License) Copyright 2022 Fonticons, Inc. --><path d="M371.2 343.9l-42.13 8.627l20.13 33.75c1.875 3.25 1.375 7.375-1.375 10c-2.75 2.5-6.876 2.75-10 .75l-27.13-18.5l2.16 66.99C304.8 447.1 296.5 448 288 448s-16.85-.8711-24.89-2.508l2.16-66.99l-27.13 18.5c-3.125 2-7.251 1.75-10-.75c-2.75-2.625-3.25-6.75-1.375-10l20.13-33.75l-42.13-8.627c-3.625-.875-6.375-4.125-6.375-7.875s2.75-7 6.375-7.875l42.13-8.75L226.8 285.6C224.9 282.5 225.4 278.4 228.1 275.7c2.75-2.5 6.876-2.875 10-.75l30.38 20.63l11.49-287.8C280.3 3.461 283.7 .0156 287.1 0c4.236 .0156 7.759 3.461 8.009 7.828l11.49 287.8l30.38-20.63c3.125-2.125 7.251-1.75 10 .75c2.75 2.625 3.25 6.75 1.375 9.875l-20.13 33.75l42.13 8.75c3.625 .875 6.375 4.125 6.375 7.875S374.9 342.1 371.2 343.9z" class="fa-secondary"/></svg>