<svg xmlns="http://www.w3.org/2000/svg" viewBox="0 0 576 512"><!--! Font Awesome Pro 6.2.0 by @fontawesome - https://fontawesome.com License - https://fontawesome.com/license (Commercial License) Copyright 2022 Fonticons, Inc. --><path d="M60.04 119.1L287.1 48.76L515.1 119.1L287.1 191.2L60.04 119.1zM52.78 245.7C61.21 248.4 65.91 257.3 63.28 265.8C60.64 274.2 51.67 278.9 43.23 276.3L0 262.8V229.2L52.78 245.7zM532.8 276.3C524.3 278.9 515.4 274.2 512.7 265.8C510.1 257.3 514.8 248.4 523.2 245.7L576 229.2V262.8L532.8 276.3zM96.73 276.2C99.37 267.8 108.3 263.1 116.8 265.7L180.8 285.7C189.2 288.4 193.9 297.3 191.3 305.8C188.6 314.2 179.7 318.9 171.2 316.3L107.2 296.3C98.8 293.6 94.1 284.7 96.73 276.2zM479.3 276.2C481.9 284.7 477.2 293.6 468.8 296.3L404.8 316.3C396.3 318.9 387.4 314.2 384.7 305.8C382.1 297.3 386.8 288.4 395.2 285.7L459.2 265.7C467.7 263.1 476.6 267.8 479.3 276.2zM224.7 316.2C227.4 307.8 236.3 303.1 244.8 305.7L283.2 317.7C286.3 318.7 289.7 318.7 292.8 317.7L331.2 305.7C339.7 303.1 348.6 307.8 351.3 316.2C353.9 324.7 349.2 333.6 340.8 336.3L302.3 348.3C292.1 351.2 283 351.2 273.7 348.3L235.2 336.3C226.8 333.6 222.1 324.7 224.7 316.2V316.2z" class="fa-secondary"/></svg>