<svg xmlns="http://www.w3.org/2000/svg" viewBox="0 0 640 512"><!--! Font Awesome Pro 6.2.0 by @fontawesome - https://fontawesome.com License - https://fontawesome.com/license (Commercial License) Copyright 2022 Fonticons, Inc. --><path d="M251.1 352H320V320C320 302.3 334.3 288 352 288C369.7 288 384 302.3 384 320V352H416L416 319.1C416 302.3 430.3 287.1 448 288C465.7 288 480 302.3 480 320L480 384C480 401.7 465.7 416 448 416H251.1C237.8 471.2 187.6 512 128 512C57.31 512 0 454.7 0 384C0 313.3 57.31 256 128 256C187.6 256 237.8 296.8 251.1 352V352zM128 320C92.65 320 64 348.7 64 384C64 419.3 92.65 448 128 448C163.3 448 192 419.3 192 384C192 348.7 163.3 320 128 320z" class="fa-secondary"/></svg>