<svg xmlns="http://www.w3.org/2000/svg" viewBox="0 0 576 512"><!--! Font Awesome Pro 6.2.0 by @fontawesome - https://fontawesome.com License - https://fontawesome.com/license (Commercial License) Copyright 2022 Fonticons, Inc. --><path d="M512 .0001H64c-35.35 0-64 28.65-64 64v160c0 35.35 28.65 64 64 64h448c35.35 0 64-28.65 64-64v-160C576 28.65 547.3 .0001 512 .0001zM256 76c0-6.625 5.375-12 12-12h40c6.625 0 12 5.375 12 12v40c0 6.625-5.375 12-12 12h-40C261.4 128 256 122.6 256 116V76zM160 76c0-6.625 5.375-12 12-12h40c6.625 0 12 5.375 12 12v40c0 6.625-5.375 12-12 12h-40C165.4 128 160 122.6 160 116V76zM128 212c0 6.625-5.375 12-12 12h-40c-6.625 0-12-5.375-12-12v-40c0-6.625 5.375-12 12-12h40c6.625 0 12 5.375 12 12V212zM128 116c0 6.625-5.375 12-12 12h-40C69.38 128 64 122.6 64 116v-40c0-6.625 5.375-12 12-12h40c6.625 0 12 5.375 12 12V116zM416 212c0 6.625-5.375 12-12 12h-232c-6.625 0-12-5.375-12-12v-40c0-6.625 5.375-12 12-12h232c6.625 0 12 5.375 12 12V212zM416 116c0 6.625-5.375 12-12 12h-40c-6.625 0-12-5.375-12-12v-40c0-6.625 5.375-12 12-12h40c6.625 0 12 5.375 12 12V116zM512 212c0 6.625-5.375 12-12 12h-40c-6.625 0-12-5.375-12-12v-40c0-6.625 5.375-12 12-12h40c6.625 0 12 5.375 12 12V212zM512 116c0 6.625-5.375 12-12 12h-40c-6.625 0-12-5.375-12-12v-40c0-6.625 5.375-12 12-12h40c6.625 0 12 5.375 12 12V116z" class="fa-secondary"/></svg>