<svg xmlns="http://www.w3.org/2000/svg" viewBox="0 0 640 512"><!--! Font Awesome Pro 6.2.0 by @fontawesome - https://fontawesome.com License - https://fontawesome.com/license (Commercial License) Copyright 2022 Fonticons, Inc. --><path d="M575.1 64h-352c-35.35 0-64 28.65-64 64v256c0 35.35 28.65 64 64 64h352c35.35 0 64-28.65 64-64V128C639.1 92.65 611.3 64 575.1 64zM319.1 140c0-6.625 5.375-12 12-12h40c6.625 0 12 5.375 12 12v40c0 6.625-5.375 12-12 12h-40c-6.625 0-12-5.375-12-12V140zM319.1 236c0-6.625 5.375-12 12-12h40c6.625 0 12 5.375 12 12v40c0 6.625-5.375 12-12 12h-40c-6.625 0-12-5.375-12-12V236zM287.1 372c0 6.625-5.375 12-12 12H235.1c-6.625 0-12-5.375-12-12v-40c0-6.625 5.375-12 12-12h39.1c6.625 0 12 5.375 12 12V372zM287.1 276c0 6.625-5.375 12-12 12H235.1c-6.625 0-12-5.375-12-12v-40c0-6.625 5.375-12 12-12h39.1c6.625 0 12 5.375 12 12V276zM287.1 180c0 6.625-5.375 12-12 12H235.1c-6.625 0-12-5.375-12-12v-40c0-6.625 5.375-12 12-12h39.1c6.625 0 12 5.375 12 12V180zM479.1 372c0 6.625-5.375 12-12 12h-136c-6.625 0-12-5.375-12-12v-40c0-6.625 5.375-12 12-12h136c6.625 0 12 5.375 12 12V372zM479.1 276c0 6.625-5.375 12-12 12h-40c-6.625 0-12-5.375-12-12v-40c0-6.625 5.375-12 12-12h40c6.625 0 12 5.375 12 12V276zM479.1 180c0 6.625-5.375 12-12 12h-40c-6.625 0-12-5.375-12-12v-40c0-6.625 5.375-12 12-12h40c6.625 0 12 5.375 12 12V180zM575.1 372c0 6.625-5.375 12-12 12h-40c-6.625 0-12-5.375-12-12v-40c0-6.625 5.375-12 12-12h40c6.625 0 12 5.375 12 12V372zM575.1 276c0 6.625-5.375 12-12 12h-40c-6.625 0-12-5.375-12-12v-40c0-6.625 5.375-12 12-12h40c6.625 0 12 5.375 12 12V276zM575.1 180c0 6.625-5.375 12-12 12h-40c-6.625 0-12-5.375-12-12v-40c0-6.625 5.375-12 12-12h40c6.625 0 12 5.375 12 12V180z" class="fa-secondary"/></svg>