<svg xmlns="http://www.w3.org/2000/svg" viewBox="0 0 512 512"><!--! Font Awesome Pro 6.2.0 by @fontawesome - https://fontawesome.com License - https://fontawesome.com/license (Commercial License) Copyright 2022 Fonticons, Inc. --><path d="M336 448H288v-96H224v96H175.1C149.5 448 128 469.5 128 495.1C128 504.8 135.2 512 144 512h224c8.837 0 16-7.163 16-16C384 469.5 362.5 448 336 448zM144 160c0-37.62 26.25-69 62.62-77.5C215.2 90.75 227 96 240 96h64C330.5 96 352 74.5 352 48S330.5 0 304 0h-64C217.6 0 199 15.38 193.8 36C137.8 49.75 96 99.88 96 160H144z" class="fa-secondary"/></svg>