<svg xmlns="http://www.w3.org/2000/svg" viewBox="0 0 576 512"><!--! Font Awesome Pro 6.2.0 by @fontawesome - https://fontawesome.com License - https://fontawesome.com/license (Commercial License) Copyright 2022 Fonticons, Inc. --><path d="M303.9 452.9v-30.12l-15.82-11.07l-16.17 11.31v29.91c-9.387 5.57-15.97 15.4-15.97 27.12c0 17.67 14.33 31.1 31.1 31.1c17.67 0 31.1-14.33 31.1-31.1C319.9 468.2 313.2 458.4 303.9 452.9zM350.7 290.2l-33.31-73.25c-8.75-24.42-8.811-51.19-.061-75.61l33.02-72.51c2.309-5.547 .9335-11.96-3.518-15.1L287.9 .0074l-59.05 52.77c-4.445 4.043-5.914 10.54-3.611 16.09l33.11 72.52C267.1 165.8 267.1 192.6 258.4 216.1L224.1 290.2C222.9 295.4 223.1 301.4 227.9 305.5l43.1 36.11v19.91l16.16 11.2l15.82-10.98v-20.12l44.01-36.12C351.8 301.4 352.9 295.4 350.7 290.2z" class="fa-secondary"/></svg>