<svg xmlns="http://www.w3.org/2000/svg" viewBox="0 0 640 512"><!--! Font Awesome Pro 6.2.0 by @fontawesome - https://fontawesome.com License - https://fontawesome.com/license (Commercial License) Copyright 2022 Fonticons, Inc. --><path d="M274 217.7L209.1 183.6c-12.35 16.28-16.45 32.14-16.97 45.33l59.56 31.35c2.637 1.387 4.289 4.125 4.287 7.106l-.0678 228.7c-.0039 8.84 7.16 16 16 16l15.96-.0002c8.834 0 15.1-7.164 16-15.1L303.1 267.4C303.1 246.5 292.5 227.4 274 217.7zM430.9 183.6l-64.93 34.17c-18.43 9.699-29.97 28.81-29.96 49.64l-.0137 228.6c.0039 8.832 7.166 15.1 16 15.1l16 .0002c8.84 0 16-7.163 16-16l.0113-228.7c-.002-2.98 1.65-5.719 4.287-7.106l59.53-31.33C447.4 215.7 443.3 199.9 430.9 183.6z" class="fa-secondary"/></svg>