<svg xmlns="http://www.w3.org/2000/svg" viewBox="0 0 576 512"><!--! Font Awesome Pro 6.2.0 by @fontawesome - https://fontawesome.com License - https://fontawesome.com/license (Commercial License) Copyright 2022 Fonticons, Inc. --><path d="M64 144C64 99.82 99.82 64 144 64C188.2 64 224 99.82 224 144C224 188.2 188.2 224 144 224C99.82 224 64 188.2 64 144zM208 480C216.8 480 224 487.2 224 496C224 504.8 216.8 512 208 512H16C7.164 512 0 504.8 0 496C0 487.2 7.164 480 16 480H208zM256 296C256 282.7 266.7 272 280 272H376V264C376 250.7 386.7 240 400 240C413.3 240 424 250.7 424 264V272H520C533.3 272 544 282.7 544 296C544 309.3 533.3 320 520 320H280C266.7 320 256 309.3 256 296z" class="fa-secondary"/></svg>