<svg xmlns="http://www.w3.org/2000/svg" viewBox="0 0 640 512"><!--! Font Awesome Pro 6.2.0 by @fontawesome - https://fontawesome.com License - https://fontawesome.com/license (Commercial License) Copyright 2022 Fonticons, Inc. --><path d="M71.1 251l24 15.86l24-15.86L120 224C120 175.4 80.6 136 32 136L16 136c-8.837 0-16 7.161-16 15.1v16c0 8.837 7.163 16 16 16L32 184c22.09 0 40 17.91 40 40L71.1 251zM640 31.99c0-8.473-3.371-16.63-9.37-22.62l-155.6 155.6l153.9 153.8C635.1 312.6 640 303.8 640 294.5V31.99zM321.3 11.11C317.9 15.04 315.5 19.72 314.3 24.79L234.2 371.1l-87.52 87.49c-3.046 3.045-6.957 4.586-10.95 4.586c-7.417 0-15.64-5.809-15.66-15.6l-.035-123.4l-24.01-15.84l-24 15.84L72 443.3C72 484.1 101.1 512 135.6 512c16.76 0 33.14-6.785 44.97-18.63l87.47-87.51l-6.66 1.516c-1.787 .4117-3.593 .6128-5.386 .6128c-6.294 0-12.42-2.479-16.97-7.033l235.1-235.1L321.3 11.11z" class="fa-secondary"/></svg>