<svg xmlns="http://www.w3.org/2000/svg" viewBox="0 0 448 512"><!--! Font Awesome Pro 6.2.0 by @fontawesome - https://fontawesome.com License - https://fontawesome.com/license (Commercial License) Copyright 2022 Fonticons, Inc. --><path d="M224 32C100.3 32 0 96.47 0 176S100.3 320 224 320s224-64.47 224-144S347.7 32 224 32zM292.7 108.7l16-16c6.25-6.25 16.38-6.25 22.62 0s6.25 16.38 0 22.62l-16 16C312.2 134.4 308.1 136 304 136s-8.188-1.562-11.31-4.688C286.4 125.1 286.4 114.9 292.7 108.7zM208 80C208 71.16 215.2 64 224 64s16 7.156 16 16v24c0 8.844-7.156 16-16 16s-16-7.156-16-16V80zM64 176C64 167.2 71.16 160 80 160h32C120.8 160 128 167.2 128 176S120.8 192 112 192h-32C71.16 192 64 184.8 64 176zM155.3 243.3l-16 16C136.2 262.4 132.1 264 128 264S119.8 262.4 116.7 259.3c-6.25-6.25-6.25-16.38 0-22.62l16-16c6.25-6.25 16.38-6.25 22.62 0S161.6 237.1 155.3 243.3zM155.3 131.3C152.2 134.4 148.1 136 144 136S135.8 134.4 132.7 131.3l-16-16c-6.25-6.25-6.25-16.38 0-22.62s16.38-6.25 22.62 0l16 16C161.6 114.9 161.6 125.1 155.3 131.3zM240 272C240 280.8 232.8 288 224 288S208 280.8 208 272V248c0-8.844 7.156-16 16-16s16 7.156 16 16V272zM224 203c-30.93 0-56-12.09-56-27S193.1 149 224 149S280 161.1 280 176S254.9 203 224 203zM331.3 259.3C328.2 262.4 324.1 264 320 264s-8.188-1.562-11.31-4.688l-16-16c-6.25-6.25-6.25-16.38 0-22.62s16.38-6.25 22.62 0l16 16C337.6 242.9 337.6 253.1 331.3 259.3zM368 192h-32C327.2 192 320 184.8 320 176S327.2 160 336 160h32C376.8 160 384 167.2 384 176S376.8 192 368 192z" class="fa-secondary"/></svg>