<svg xmlns="http://www.w3.org/2000/svg" viewBox="0 0 576 512"><!--! Font Awesome Pro 6.2.0 by @fontawesome - https://fontawesome.com License - https://fontawesome.com/license (Commercial License) Copyright 2022 Fonticons, Inc. --><path d="M576 224.3V464C576 471.3 571.1 477.7 564 479.5C556.1 481.3 549.6 478.1 546 471.8L477.6 348.6C533.9 335.2 575.9 284.7 576 224.3V224.3zM208 415.3C224.7 413.1 240.8 410.5 256 405.1V456C256 469.3 245.3 480 232 480C218.7 480 208 469.3 208 456V415.3zM96 390.3C110.9 398.9 126.1 405.6 144 409.1V456C144 469.3 133.3 480 120 480C106.7 480 96 469.3 96 456V390.3z" class="fa-secondary"/></svg>