<svg xmlns="http://www.w3.org/2000/svg" viewBox="0 0 640 512"><!--! Font Awesome Pro 6.2.0 by @fontawesome - https://fontawesome.com License - https://fontawesome.com/license (Commercial License) Copyright 2022 Fonticons, Inc. --><path d="M128 196.6L64 146.4V352h64V196.6zM16 383.1c-8.75 0-16 7.25-16 16v16c0 35.25 28.75 64 64 64L489.6 480l-122.5-96L16 383.1zM623.1 384h-101.8l98.76 77.4C632.7 449.8 639.1 433.7 639.1 416v-16C639.1 391.3 632.7 384 623.1 384zM575.1 352l.0007-272c0-26.38-21.62-48-48-48H112C101.8 32 92.27 35.33 84.45 40.88L154.8 96H512v256H575.1z" class="fa-secondary"/></svg>