<svg xmlns="http://www.w3.org/2000/svg" viewBox="0 0 384 512"><!--! Font Awesome Pro 6.2.0 by @fontawesome - https://fontawesome.com License - https://fontawesome.com/license (Commercial License) Copyright 2022 Fonticons, Inc. --><path d="M144 32C161.7 32 176 46.33 176 64V96.66C153.3 98.53 131.8 104.3 112 113.4V64C112 46.33 126.3 32 144 32V32zM176 160.1V256C176 273.7 161.7 288 144 288C126.3 288 112 273.7 112 256V188.1C129.1 173.7 151.1 163.1 176 160.1V160.1zM272 188.1V256C272 273.7 257.7 288 240 288C222.3 288 208 273.7 208 256V160.1C232 163.1 254 173.7 272 188.1zM208 96.66V64C208 46.33 222.3 32 240 32C257.7 32 272 46.33 272 64V113.4C252.2 104.3 230.7 98.53 208 96.66z" class="fa-secondary"/></svg>