<svg xmlns="http://www.w3.org/2000/svg" viewBox="0 0 576 512"><!--! Font Awesome Pro 6.2.0 by @fontawesome - https://fontawesome.com License - https://fontawesome.com/license (Commercial License) Copyright 2022 Fonticons, Inc. --><path d="M281.4 25.36L255.3 34.98C240.2 40.58 229.2 53.26 225.4 68.43C132.2 81.97 64 125 64 176C64 237.9 164.3 288 288 288C411.7 288 512 237.9 512 176C512 144.8 486.4 116.5 445.2 96.21C447 91.1 448 85.63 448 80C448 59.92 435.5 41.95 416.7 34.98L390.6 25.36L385 10.24C496.4 34.58 576 99.61 576 176C576 273.2 447.1 352 288 352C274.8 352 261.7 351.5 248.1 350.4C253.6 363.2 256 376.9 256 391C256 457.8 201.8 512 135 512H64C46.33 512 32 497.7 32 480C32 462.3 46.33 448 64 448H135C166.5 448 192 422.5 192 391C192 369.4 179.8 349.7 160.5 340L113.7 316.6L113.9 316.2C44.69 284.1 0 233.2 0 176C0 78.8 128.9 0 288 0C288.9 0 289.8 .0026 290.7 .0077L281.4 25.36z" class="fa-secondary"/></svg>