<svg xmlns="http://www.w3.org/2000/svg" viewBox="0 0 512 512"><!--! Font Awesome Pro 6.2.0 by @fontawesome - https://fontawesome.com License - https://fontawesome.com/license (Commercial License) Copyright 2022 Fonticons, Inc. --><path d="M232.5 133.2C247.4 126.3 264.6 126.3 279.5 133.2L498.1 234.2C506.6 238.1 512 246.6 512 255.1C512 265.3 506.6 273.8 498.1 277.8L279.5 378.8C264.6 385.7 247.4 385.7 232.5 378.8L13.93 277.8C5.438 273.8 0 265.3 0 255.1C0 246.6 5.437 238.1 13.93 234.2L232.5 133.2zM498.1 362.2C506.6 366.1 512 374.6 512 383.1C512 393.3 506.6 401.8 498.1 405.8L279.5 506.8C264.6 513.7 247.4 513.7 232.5 506.8L13.93 405.8C5.438 401.8 0 393.3 0 383.1C0 374.6 5.437 366.1 13.93 362.2L67.13 337.6L219.1 407.8C242.5 418.7 269.5 418.7 292.9 407.8L444.9 337.6L498.1 362.2z" class="fa-secondary"/></svg>