<svg xmlns="http://www.w3.org/2000/svg" viewBox="0 0 576 512"><!--! Font Awesome Pro 6.2.0 by @fontawesome - https://fontawesome.com License - https://fontawesome.com/license (Commercial License) Copyright 2022 Fonticons, Inc. --><path d="M448 208h-57.38l68.69-68.69c6.25-6.25 6.25-16.38 0-22.62s-16.38-6.25-22.62 0L304 249.4V192c0-8.844-7.156-16-16-16S272 183.2 272 192v89.38l-59.31 59.31c-6.25 6.25-6.25 16.38 0 22.62C215.8 366.4 219.9 368 224 368s8.188-1.562 11.31-4.688L358.6 240H448c8.844 0 16-7.156 16-16S456.8 208 448 208zM209.1 50.16c-6.756-14.12-16.79-26.72-30.68-36.05C163.9 4.337 147.4 .1842 131.2 1.436C114.1 1.833 98.9 7.641 85.16 18.85C72.03 29.57 63.01 43.13 57.37 57.88C51.24 73.91 41.92 87.31 30.14 96.75c-5.34 4.283-10.21 9.412-14.43 15.44c-18.43 26.33-20.01 60.79-8.064 89.38c15.27 36.55-.5 82.62 27.35 111.9c45.69 48.04 40.4 69.47 46.28 90.76l14.97-14.97c1.482-79.13 14.61-103.3 31.68-125.5C136 253.2 142.1 244.1 142.1 190.7c0-43.31 26.17-70.82 47.2-92.92c11.12-11.69 21.45-22.81 27.13-34.71C214.5 58.87 211.4 54.95 209.1 50.16z" class="fa-secondary"/></svg>