<svg xmlns="http://www.w3.org/2000/svg" viewBox="0 0 512 512"><!--! Font Awesome Pro 6.2.0 by @fontawesome - https://fontawesome.com License - https://fontawesome.com/license (Commercial License) Copyright 2022 Fonticons, Inc. --><path d="M512 165.4c0 127.9-70.06 235.3-175.3 270.1c-20.04 7.938-41.83 12.46-64.69 12.46c-68.27 0-127.3-38.92-156.5-95.75c42.63-42.12 109.4-80.24 212.5-80.24c13.25 0 23.1-10.75 23.1-24s-10.75-24-23.1-24c-105.8 0-178.9 36.21-229 79.54C97.13 293.3 96.01 282.8 96.01 272c0-97.21 78.81-176.1 176-176.1c13.84 0 27.29 1.411 40.18 4.481c55.1 13.33 118.2-7.409 149.3-61.24c5.664-9.829 20.02-9.516 24.66 .8282C502.7 76.76 512 121.9 512 165.4z" class="fa-secondary"/></svg>