<svg xmlns="http://www.w3.org/2000/svg" viewBox="0 0 640 512"><!--! Font Awesome Pro 6.2.0 by @fontawesome - https://fontawesome.com License - https://fontawesome.com/license (Commercial License) Copyright 2022 Fonticons, Inc. --><path d="M319.5 .0127C217.5 .2627 144 82.1 144 175.1c0 44.38 16.52 84.89 43.52 115.8c16.62 18.88 42.36 58.23 52.24 91.48c0 .25 .1146 .5104 .1146 .7604l160.3 .0006c0-.25 .0833-.5111 .0833-.7611c9.875-33.25 35.61-72.61 52.24-91.48C479.5 260.9 496 220.4 496 175.1C496 78.62 416.8-.2373 319.5 .0127zM296 88C296 74.75 306.8 64 320 64s24 10.75 24 24v112C344 213.3 333.3 224 320 224S296 213.3 296 200V88zM320 320c-17.67 0-32-14.33-32-32s14.33-32 32-32s32 14.33 32 32S337.7 320 320 320z" class="fa-secondary"/></svg>