<svg xmlns="http://www.w3.org/2000/svg" viewBox="0 0 640 512"><!--! Font Awesome Pro 6.2.0 by @fontawesome - https://fontawesome.com License - https://fontawesome.com/license (Commercial License) Copyright 2022 Fonticons, Inc. --><path d="M146.1 236c-14.66-5.499-69.17-19.1-93.77 45.55c-18.61 49.61 12.1 129.2 26.53 134.3c13.53 5.059 89.65-33.99 108.3-83.69C214.2 262.4 153.1 238.7 146.1 236zM319.1 256c-15.67 0-71.8 5.539-71.8 75.58C248.2 384.6 305.7 448 320.1 448s72.08-63.29 72.08-116.4C392.2 257 327.5 256 319.1 256zM586.8 281.6c-24.6-65.58-79.12-51.05-93.81-45.58c-6.1 2.64-67.24 26.31-41.06 96.11c18.65 49.72 94.81 88.75 108.3 83.69C573.7 410.8 605.4 331.2 586.8 281.6z" class="fa-secondary"/></svg>