<svg xmlns="http://www.w3.org/2000/svg" viewBox="0 0 640 512"><!--! Font Awesome Pro 6.2.0 by @fontawesome - https://fontawesome.com License - https://fontawesome.com/license (Commercial License) Copyright 2022 Fonticons, Inc. --><path d="M199.8 95.04C182.6 99.33 165.2 88.91 160.1 71.76C156.7 54.62 167.1 37.24 184.2 32.96L312.2 .9552C329.4-3.331 346.8 7.093 351 24.24C355.3 41.38 344.9 58.76 327.8 63.04L199.8 95.04zM479 88.24C483.3 105.4 472.9 122.8 455.8 127L199.8 191C182.6 195.3 165.2 184.9 160.1 167.8C156.7 150.6 167.1 133.2 184.2 128.1L440.2 64.96C457.4 60.67 474.8 71.09 479 88.24V88.24zM479 184.2C483.3 201.4 472.9 218.8 455.8 223L199.8 287C182.6 291.3 165.2 280.9 160.1 263.8C156.7 246.6 167.1 229.2 184.2 224.1L440.2 160.1C457.4 156.7 474.8 167.1 479 184.2V184.2zM304 293.1V384H256V305.1L304 293.1zM479 280.2C483.3 297.4 472.9 314.8 455.8 319L384 336.1V384H336V308.7C335.1 308.2 335.1 307.7 336 307.3V304L336.2 303.1C337.9 291.3 347.1 280.2 360.2 276.1L440.2 256.1C457.4 252.7 474.8 263.1 479 280.2V280.2z" class="fa-secondary"/></svg>