<svg xmlns="http://www.w3.org/2000/svg" viewBox="0 0 640 512"><!--! Font Awesome Pro 6.2.0 by @fontawesome - https://fontawesome.com License - https://fontawesome.com/license (Commercial License) Copyright 2022 Fonticons, Inc. --><path d="M319.5 .0154C217.5 .2654 144 82.1 144 175.1c0 42.63 15.4 83.76 43.52 115.8c16.62 18.88 42.36 58.23 52.24 91.48c0 .25 .1146 .5105 .1146 .7604l160.3 .0007c0-.25 .0833-.5111 .0833-.7611c9.875-33.25 35.61-72.61 52.24-91.48C480.6 259.8 496 218.6 496 175.1C496 78.62 416.8-.2346 319.5 .0154zM320 96.01c-44.13 0-80 35.87-80 79.1c0 8.875-7.125 16-16 16s-16-7.125-16-16C208.1 114.1 258.1 64.14 320 64.01c8.875 0 16 7.126 16 16S328.9 96.01 320 96.01z" class="fa-secondary"/></svg>