<svg xmlns="http://www.w3.org/2000/svg" viewBox="0 0 512 512"><!--! Font Awesome Pro 6.2.0 by @fontawesome - https://fontawesome.com License - https://fontawesome.com/license (Commercial License) Copyright 2022 Fonticons, Inc. --><path d="M480 96H320C302.3 96 288 81.67 288 64C288 46.33 302.3 32 320 32H480C497.7 32 512 46.33 512 64C512 81.67 497.7 96 480 96zM480 224H320C302.3 224 288 209.7 288 192C288 174.3 302.3 160 320 160H480C497.7 160 512 174.3 512 192C512 209.7 497.7 224 480 224zM288 320C288 302.3 302.3 288 320 288H480C497.7 288 512 302.3 512 320C512 337.7 497.7 352 480 352H320C302.3 352 288 337.7 288 320zM480 480H320C302.3 480 288 465.7 288 448C288 430.3 302.3 416 320 416H480C497.7 416 512 430.3 512 448C512 465.7 497.7 480 480 480z" class="fa-secondary"/></svg>