<svg xmlns="http://www.w3.org/2000/svg" viewBox="0 0 576 512"><!--! Font Awesome Pro 6.2.0 by @fontawesome - https://fontawesome.com License - https://fontawesome.com/license (Commercial License) Copyright 2022 Fonticons, Inc. --><path d="M256 96C256 78.33 270.3 64 288 64H544C561.7 64 576 78.33 576 96C576 113.7 561.7 128 544 128H288C270.3 128 256 113.7 256 96zM256 256C256 238.3 270.3 224 288 224H544C561.7 224 576 238.3 576 256C576 273.7 561.7 288 544 288H288C270.3 288 256 273.7 256 256zM544 384C561.7 384 576 398.3 576 416C576 433.7 561.7 448 544 448H288C270.3 448 256 433.7 256 416C256 398.3 270.3 384 288 384H544z" class="fa-secondary"/></svg>