<svg xmlns="http://www.w3.org/2000/svg" viewBox="0 0 640 512"><!--! Font Awesome Pro 6.2.0 by @fontawesome - https://fontawesome.com License - https://fontawesome.com/license (Commercial License) Copyright 2022 Fonticons, Inc. --><path d="M640 303.4C640 383.3 575.3 448 495.4 448H336.6C256.7 448 192 383.3 192 303.4C192 232.7 243.1 172.4 312.8 160.8L314.7 160.4C332.2 157.5 348.7 169.3 351.6 186.7C354.5 204.2 342.7 220.7 325.3 223.6L323.4 223.9C284.5 230.4 256 263.1 256 303.4C256 347.9 292.1 384 336.6 384H495.4C539.9 384 576 347.9 576 303.4C576 263.1 547.5 230.4 508.6 223.9L506.7 223.6C489.3 220.7 477.5 204.2 480.4 186.7C483.3 169.3 499.8 157.5 517.3 160.4L519.2 160.8C588.9 172.4 640 232.7 640 303.4V303.4z" class="fa-secondary"/></svg>