<svg xmlns="http://www.w3.org/2000/svg" viewBox="0 0 640 512"><!--! Font Awesome Pro 6.2.0 by @fontawesome - https://fontawesome.com License - https://fontawesome.com/license (Commercial License) Copyright 2022 Fonticons, Inc. --><path d="M107.6 120l56.3 44.1C124.6 176.2 96 212.7 96 256c0 53 43 96 96 96h64c17.7 0 32 14.3 32 32s-14.3 32-32 32H192c-88.4 0-160-71.6-160-160c0-57.4 30.2-107.7 75.6-136zM240.3 224l81.7 64H224c-17.7 0-32-14.3-32-32s14.3-32 32-32h16.3zm159.5 64l-81.7-64H416c17.7 0 32 14.3 32 32s-14.3 32-32 32H399.7zm3.8 64l77.3 60.6c-10.6 2.2-21.6 3.4-32.9 3.4H384c-17.7 0-32-14.3-32-32s14.3-32 32-32h19.6zm128.8 40l-56.3-44.1c39.3-12 67.9-48.6 67.9-91.8c0-53-43-96-96-96H384c-17.7 0-32-14.3-32-32s14.3-32 32-32h64c88.4 0 160 71.6 160 160c0 57.4-30.2 107.7-75.6 136zm-296-232L159.1 99.4C169.7 97.2 180.7 96 192 96h64c17.7 0 32 14.3 32 32s-14.3 32-32 32H236.4z" class="fa-secondary"/></svg>