<svg xmlns="http://www.w3.org/2000/svg" viewBox="0 0 320 512"><!--! Font Awesome Pro 6.2.0 by @fontawesome - https://fontawesome.com License - https://fontawesome.com/license (Commercial License) Copyright 2022 Fonticons, Inc. --><path d="M48 256H32C14.33 256 0 241.7 0 224C0 206.3 14.33 192 32 192H48V256zM48 332.5C48 339.1 47.33 345.6 46.01 352H32C14.33 352 0 337.7 0 320C0 302.3 14.33 288 32 288H48V332.5zM110.8 352C111.6 345.6 112 339.1 112 332.5V288H224C241.7 288 256 302.3 256 320C256 337.7 241.7 352 224 352H110.8zM112 256V192H224C241.7 192 256 206.3 256 224C256 241.7 241.7 256 224 256H112z" class="fa-secondary"/></svg>