<svg xmlns="http://www.w3.org/2000/svg" viewBox="0 0 512 512"><!--! Font Awesome Pro 6.2.0 by @fontawesome - https://fontawesome.com License - https://fontawesome.com/license (Commercial License) Copyright 2022 Fonticons, Inc. --><path d="M31.97 255.1h224.1C273.7 255.1 288 241.7 288 224c0-17.66-14.32-32.02-31.97-32.02H31.97C14.32 191.1 0 206.3 0 223.1C0 241.6 14.32 255.1 31.97 255.1zM31.97 127.1h224.1C273.7 127.1 288 113.6 288 95.99c0-17.66-14.31-32.01-31.97-32.01H31.97C14.32 63.98 0 78.31 0 95.97C0 113.6 14.32 127.1 31.97 127.1zM128 319.1H31.97C14.32 319.1 0 334.3 0 351.1c0 17.66 14.32 32.02 31.97 32.02H128C145.7 383.1 160 369.7 160 352C160 334.4 145.7 319.1 128 319.1z" class="fa-secondary"/></svg>