<svg xmlns="http://www.w3.org/2000/svg" viewBox="0 0 576 512"><!--! Font Awesome Pro 6.2.0 by @fontawesome - https://fontawesome.com License - https://fontawesome.com/license (Commercial License) Copyright 2022 Fonticons, Inc. --><path d="M224 96C224 78.33 238.3 64 256 64H512C529.7 64 544 78.33 544 96C544 113.7 529.7 128 512 128H256C238.3 128 224 113.7 224 96zM224 256C224 238.3 238.3 224 256 224H520C537.7 224 552 238.3 552 256C552 273.7 537.7 288 520 288H256C238.3 288 224 273.7 224 256zM512 384C529.7 384 544 398.3 544 416C544 433.7 529.7 448 512 448H256C238.3 448 224 433.7 224 416C224 398.3 238.3 384 256 384H512z" class="fa-secondary"/></svg>