<svg xmlns="http://www.w3.org/2000/svg" viewBox="0 0 512 512"><!--! Font Awesome Pro 6.2.0 by @fontawesome - https://fontawesome.com License - https://fontawesome.com/license (Commercial License) Copyright 2022 Fonticons, Inc. --><path d="M160 96C160 78.33 174.3 64 192 64H480C497.7 64 512 78.33 512 96C512 113.7 497.7 128 480 128H192C174.3 128 160 113.7 160 96zM288 256C288 238.3 302.3 224 320 224H480C497.7 224 512 238.3 512 256C512 273.7 497.7 288 480 288H320C302.3 288 288 273.7 288 256zM480 384C497.7 384 512 398.3 512 416C512 433.7 497.7 448 480 448H320C302.3 448 288 433.7 288 416C288 398.3 302.3 384 320 384H480z" class="fa-secondary"/></svg>