<svg xmlns="http://www.w3.org/2000/svg" viewBox="0 0 512 512"><!--! Font Awesome Pro 6.2.0 by @fontawesome - https://fontawesome.com License - https://fontawesome.com/license (Commercial License) Copyright 2022 Fonticons, Inc. --><path d="M153.1 83.2L191.5 54.4C197 50.25 203.7 48 210.7 48H424C437.3 48 448 58.75 448 72V120C448 133.3 437.3 144 424 144H210.7C203.7 144 197 141.8 191.5 137.6L153.1 108.8C144.5 102.4 144.5 89.6 153.1 83.2V83.2zM210.7 208H488C501.3 208 512 218.7 512 232V280C512 293.3 501.3 304 488 304H210.7C203.7 304 197 301.8 191.5 297.6L153.1 268.8C144.5 262.4 144.5 249.6 153.1 243.2L191.5 214.4C197 210.2 203.7 208 210.7 208zM210.7 368H424C437.3 368 448 378.7 448 392V440C448 453.3 437.3 464 424 464H210.7C203.7 464 197 461.8 191.5 457.6L153.1 428.8C144.5 422.4 144.5 409.6 153.1 403.2L191.5 374.4C197 370.2 203.7 368 210.7 368z" class="fa-secondary"/></svg>