<svg xmlns="http://www.w3.org/2000/svg" viewBox="0 0 576 512"><!--! Font Awesome Pro 6.2.0 by @fontawesome - https://fontawesome.com License - https://fontawesome.com/license (Commercial License) Copyright 2022 Fonticons, Inc. --><path d="M423.8 74.97C436.3 62.48 456.5 62.48 469 74.97C481.5 87.47 481.5 107.7 469 120.2L423.8 165.5C411.3 177.1 391 177.1 378.5 165.5C366 152.1 366 132.7 378.5 120.2L423.8 74.97zM416 255.1C416 238.3 430.3 223.1 448 223.1H512C529.7 223.1 544 238.3 544 255.1C544 273.7 529.7 287.1 512 287.1H448C430.3 287.1 416 273.7 416 255.1zM287.1 383.1C305.7 383.1 320 398.3 320 415.1V479.1C320 497.7 305.7 511.1 287.1 511.1C270.3 511.1 255.1 497.7 255.1 479.1V415.1C255.1 398.3 270.3 383.1 287.1 383.1zM469 391.8C481.5 404.3 481.5 424.5 469 437C456.5 449.5 436.3 449.5 423.8 437L378.5 391.8C366 379.3 366 359 378.5 346.5C391 334 411.3 334 423.8 346.5L469 391.8zM106.1 437C94.48 424.5 94.48 404.3 106.1 391.8L152.2 346.5C164.7 334 184.1 334 197.5 346.5C209.1 359 209.1 379.3 197.5 391.8L152.2 437C139.7 449.5 119.5 449.5 106.1 437z" class="fa-secondary"/></svg>