<svg xmlns="http://www.w3.org/2000/svg" viewBox="0 0 640 512"><!--! Font Awesome Pro 6.2.0 by @fontawesome - https://fontawesome.com License - https://fontawesome.com/license (Commercial License) Copyright 2022 Fonticons, Inc. --><path d="M363.2 259.4C385.3 245.1 400 220.3 400 192C400 147.8 364.2 112 319.1 112C284.9 112 255 134.7 244.3 166.1L154 95.42C187.3 38.35 249.2 0 319.1 0C426 0 512 85.96 512 192C512 230.7 489 282.8 459 334.5L363.2 259.4zM296.3 499.2C245.9 436.2 132.3 285.2 128.1 196.9L406.2 416.1C382.7 449.5 359.9 478.9 343.7 499.2C331.4 514.5 308.6 514.5 296.3 499.2V499.2z" class="fa-secondary"/></svg>