<svg xmlns="http://www.w3.org/2000/svg" viewBox="0 0 512 512"><!--! Font Awesome Pro 6.2.0 by @fontawesome - https://fontawesome.com License - https://fontawesome.com/license (Commercial License) Copyright 2022 Fonticons, Inc. --><path d="M256 446.8C240.7 467.4 226.7 485.4 215.7 499.2C203.4 514.5 180.6 514.5 168.3 499.2C116.1 435 0 279.4 0 192C0 85.96 85.96 0 192 0C287.7 0 366.1 69.96 381.6 161.5C328.5 170.3 288 216.4 288 272V296.6C268.9 307.6 256 328.3 256 352L256 446.8zM192 128C156.7 128 128 156.7 128 192C128 227.3 156.7 256 192 256C227.3 256 256 227.3 256 192C256 156.7 227.3 128 192 128z" class="fa-secondary"/></svg>