<svg xmlns="http://www.w3.org/2000/svg" viewBox="0 0 448 512"><!--! Font Awesome Pro 6.2.0 by @fontawesome - https://fontawesome.com License - https://fontawesome.com/license (Commercial License) Copyright 2022 Fonticons, Inc. --><path d="M372 160h-67.97c-37.1 0-67.85 27.17-76.85 64H220.7C211.8 187.2 181.2 160 143.1 160L76 160C69.38 160 64 165.4 64 172v30.75C64 249.8 99.75 288 144 288h22.38C159 300.3 153.9 311.5 150.6 320.9C119.8 325.5 96 351.9 96 384c0 35.5 29.38 64 64.88 64H287c35.5 0 64.88-28.5 64.88-64c0-32.13-23.62-58.5-54.63-63.13C293.1 311.4 288.9 300.3 281.5 288H304C348.3 288 384 249.8 384 202.8V172C384 165.4 378.6 160 372 160zM224 266.8C244.3 286.6 255.9 305.3 262.8 320h-77.5C192.1 305.3 203.8 286.6 224 266.8zM144 256C117.5 256 96 232.1 96 202.8V192h48C170.5 192 192 215.9 192 245.2V256H144zM288 352c17.62 0 32 14.38 32 32s-14.38 32-32 32H160c-17.62 0-32-14.38-32-32s14.38-32 32-32H288zM352 202.8C352 232.1 330.5 256 304 256h-47.98c.1406 .1875 .3125 .375 0 0L256 245.2C256 215.9 277.5 192 304 192H352V202.8z" class="fa-secondary"/></svg>