<svg xmlns="http://www.w3.org/2000/svg" viewBox="0 0 640 512"><!--! Font Awesome Pro 6.2.0 by @fontawesome - https://fontawesome.com License - https://fontawesome.com/license (Commercial License) Copyright 2022 Fonticons, Inc. --><path d="M328 0h-16c-8.875 0-16 7.125-16 16L295.1 150.7c7.088-4.137 15.22-6.675 23.1-6.675s16.91 2.538 24 6.675L344 16C344 7.125 336.9 0 328 0zM185.1 96c-44 0-57.97 28.5-80.09 63.13c-46 71.88-80.39 149.8-102 231C1.257 399.9 0 409.8 0 419.8c0 61.25 62.5 105.5 125.3 88.62l59.5-15.9c21.74-5.875 39.91-18.39 52.51-34.73c-2.553 .4141-5.137 .7591-7.774 .7591c-12.82 0-24.87-4.994-33.94-14.06c-18.71-18.72-18.71-49.16 .0033-67.87l8.576-8.576H192c-26.47 0-48-21.54-48-48c0-26.47 21.53-48 48-48l12.12-.0055L195.5 263.4c-18.71-18.72-18.71-49.16 0-67.88C204.6 186.5 216.7 181.5 229.5 181.5c9.576 0 18.72 2.799 26.52 7.986l.04-27.75C256 125.3 224.6 96 185.1 96zM636.1 390.1c-21.62-81.25-56.02-159.1-102-231c-22.12-34.63-36.09-63.13-80.09-63.13c-38.62 0-70.01 29.35-70.01 65.73v27.74c7.795-5.188 16.94-7.986 26.52-7.986c12.82 0 24.88 4.999 33.95 14.07c18.71 18.72 18.71 49.16 0 67.88l-8.576 8.571L448 272c26.47 0 48 21.53 48 48c0 26.47-21.53 48-48 48h-12.12l8.576 8.576c18.71 18.72 18.71 49.16-.0072 67.87c-9.066 9.066-21.12 14.06-33.94 14.06c-2.637 0-5.211-.3438-7.764-.7578c12.6 16.34 30.77 28.85 52.51 34.73l59.5 15.9C577.5 525.3 640 481 640 419.8C640 409.8 638.7 399.9 636.1 390.1z" class="fa-secondary"/></svg>