<svg xmlns="http://www.w3.org/2000/svg" viewBox="0 0 640 512"><!--! Font Awesome Pro 6.2.0 by @fontawesome - https://fontawesome.com License - https://fontawesome.com/license (Commercial License) Copyright 2022 Fonticons, Inc. --><path d="M186 96c-44 0-57.1 28.5-80.12 63.13C59.91 231 25.5 308.9 3.875 390.1C1.25 399.9 0 409.8 0 419.8c0 61.25 62.5 105.5 125.2 88.63l59.53-15.88c42.13-11.38 71.25-47.5 71.25-88.63L256 279.5l-101.4 67.58c-7.352 4.902-17.29 2.914-22.19-4.438l-8.875-13.31C118.7 321.1 120.6 312.1 128 307.2l128-85.31v-60.1C256 125.4 224.7 96 186 96zM636.1 390.1C614.5 308.9 580.1 231 534.1 159.1c-22.12-34.63-36.13-63.13-80.13-63.13C415.3 96 384 125.4 384 161.8v60.1l128 85.31c7.354 4.902 9.34 14.84 4.438 22.19l-8.875 13.31c-4.9 7.352-14.83 9.34-22.19 4.438L384 279.5l-.0313 124.4c0 41.13 29.12 77.25 71.25 88.63l59.53 15.88C577.5 525.3 640 481 640 419.8C640 409.8 638.8 399.9 636.1 390.1z" class="fa-secondary"/></svg>