<svg xmlns="http://www.w3.org/2000/svg" viewBox="0 0 512 512"><!--! Font Awesome Pro 6.2.0 by @fontawesome - https://fontawesome.com License - https://fontawesome.com/license (Commercial License) Copyright 2022 Fonticons, Inc. --><path d="M0 208C0 93.12 93.12 0 208 0C322.9 0 416 93.12 416 208C416 322.9 322.9 416 208 416C93.12 416 0 322.9 0 208zM104 280C104 293.3 114.7 304 128 304C141.3 304 152 293.3 152 280V216C152 202.7 141.3 192 128 192C114.7 192 104 202.7 104 216V280zM184 280C184 293.3 194.7 304 208 304C221.3 304 232 293.3 232 280V120C232 106.7 221.3 96 208 96C194.7 96 184 106.7 184 120V280zM264 280C264 293.3 274.7 304 288 304C301.3 304 312 293.3 312 280V184C312 170.7 301.3 160 288 160C274.7 160 264 170.7 264 184V280z" class="fa-secondary"/></svg>