<svg xmlns="http://www.w3.org/2000/svg" viewBox="0 0 640 512"><!--! Font Awesome Pro 6.2.0 by @fontawesome - https://fontawesome.com License - https://fontawesome.com/license (Commercial License) Copyright 2022 Fonticons, Inc. --><path d="M176 240c-35.35 0-64 28.66-64 64s28.65 64 64 64c35.35 0 64-28.66 64-64S211.3 240 176 240zM623.1 32h-112.6c-21.42 0-32.15 25.85-17 40.97l29.61 29.56L480 146.5v13.91C480 191.3 454.8 216.4 423.8 216.4C421.2 216.4 418.6 216 416 215.6v5.862c6.922 4.051 13.58 8.691 19.51 14.61c37.5 37.43 37.5 98.33 0 135.8c-18.75 18.71-43.38 28.07-68 28.07c-2.277 0-4.523-.4883-6.795-.6484c-9.641 18.69-22.1 36.24-37.64 51.77c-6.059 6.059-12.49 11.53-19.13 16.73C324.4 475.7 345.9 480 367.5 480c45.12 0 90.34-17.19 124.8-51.55c61.11-60.1 67.77-155.6 20.42-224.1l56.65-56.55l29.61 29.56c4.898 4.887 10.92 7.075 16.83 7.075C628.1 184.4 640 174.8 640 160.4V48C640 39.16 632.8 32 623.1 32z" class="fa-secondary"/></svg>