<svg xmlns="http://www.w3.org/2000/svg" viewBox="0 0 640 512"><!--! Font Awesome Pro 6.2.0 by @fontawesome - https://fontawesome.com License - https://fontawesome.com/license (Commercial License) Copyright 2022 Fonticons, Inc. --><path d="M584 128C614.9 128 640 153.1 640 184V269C640 324.1 602.5 372.1 549.1 385.5L477.5 403.4C490.1 386.5 499.8 367.4 505.6 346.9L537.5 338.9C569.5 330.9 592 302.1 592 269V184C592 179.6 588.4 176 584 176H480.7C473.1 159.5 464.3 143.2 454.5 128L584 128zM90.9 385.5C37.48 372.1 0 324.1 0 269V184C0 153.1 25.07 128 56 128H185.1C175.3 143.2 166.6 159.5 159.1 176H55.1C51.58 176 47.1 179.6 47.1 184V269C47.1 302.1 70.49 330.9 102.5 338.9L134.3 346.8C140.1 367.3 149.6 386.4 162.2 403.3L90.9 385.5zM352 320V512H288V320C288 302.3 302.3 288 320 288C337.7 288 352 302.3 352 320z" class="fa-secondary"/></svg>