<svg xmlns="http://www.w3.org/2000/svg" viewBox="0 0 640 512"><!--! Font Awesome Pro 6.2.0 by @fontawesome - https://fontawesome.com License - https://fontawesome.com/license (Commercial License) Copyright 2022 Fonticons, Inc. --><path d="M96 160V176H56C51.58 176 48 179.6 48 184V269C48 302.1 70.49 330.9 102.5 338.9L132.3 346.3C149.6 372.8 172.3 395.4 198.9 412.5L90.9 385.5C37.48 372.1 0 324.1 0 269V184C0 153.1 25.07 128 56 128H128C110.3 128 96 142.3 96 160L96 160zM507.7 346.3L537.5 338.9C569.5 330.9 592 302.1 592 269V184C592 179.6 588.4 176 584 176H544V160C544 142.3 529.7 128 512 128H584C614.9 128 640 153.1 640 184V269C640 324.1 602.5 372.1 549.1 385.5L441.1 412.5C467.7 395.4 490.4 372.8 507.7 346.3V346.3z" class="fa-secondary"/></svg>