<svg xmlns="http://www.w3.org/2000/svg" viewBox="0 0 448 512"><!--! Font Awesome Pro 6.2.0 by @fontawesome - https://fontawesome.com License - https://fontawesome.com/license (Commercial License) Copyright 2022 Fonticons, Inc. --><path d="M152.6 116.7l30.06-30.06C191.8 77.47 194.5 63.72 189.6 51.75c-4.938-11.95-16.62-19.75-29.56-19.75H24c-13.26 0-23.1 10.75-23.1 23.1v135.1c0 12.94 7.781 24.61 19.75 29.56c12 4.906 25.72 2.203 34.87-6.937l30.06-30.06l71.44 71.44l67.87-67.88L152.6 116.7zM428.2 290.4C424.3 288.8 420.1 288 415.1 288c-8.312 0-16.5 3.248-22.62 9.373L363.3 327.4l-71.44-71.44L224 323.9l71.44 71.44l-30.06 30.06c-9.156 9.156-11.91 22.91-6.937 34.87c4.938 11.95 16.62 19.75 29.56 19.75h135.1c13.25 0 23.1-10.75 23.1-23.1V319.1C447.1 307.1 440.2 295.4 428.2 290.4z" class="fa-secondary"/></svg>