<svg xmlns="http://www.w3.org/2000/svg" viewBox="0 0 576 512"><!--! Font Awesome Pro 6.2.0 by @fontawesome - https://fontawesome.com License - https://fontawesome.com/license (Commercial License) Copyright 2022 Fonticons, Inc. --><path d="M160 311.9L160 309.8l-8.556 8.544c-9.711 9.688-23.97 11.07-36.76 5.999c-30.95-12.36-66.05 2.706-78.41 33.64c-8.951 22.41-3.677 48.04 13.41 65.09c15.3 15.28 36.51 19.61 56.13 15.12c-4.49 19.59-.1676 40.78 15.12 56.05c23.51 23.63 61.72 23.71 85.35 .2079c17.16-17.07 22.43-42.73 13.43-65.2c-5.102-12.73-3.72-26.1 6-36.74l8.582-8.522l-2.31-.049C192.2 383.9 160 351.7 160 311.9zM408.2 136.1c-14.72-14.7-34.54-18.64-44.39-8.871c-9.852 9.77-5.853 29.67 8.878 44.37s34.67 18.68 44.48 8.871S422.1 150.8 408.2 136.1z" class="fa-secondary"/></svg>