<svg xmlns="http://www.w3.org/2000/svg" viewBox="0 0 448 512"><!--! Font Awesome Pro 6.2.0 by @fontawesome - https://fontawesome.com License - https://fontawesome.com/license (Commercial License) Copyright 2022 Fonticons, Inc. --><path d="M0 128v320c0 35.35 28.65 64 64 64h320c35.35 0 64-28.65 64-64V128H0zM208 432h-96C103.2 432 96 424.8 96 416c0-8.838 7.164-16 16-16h96c8.836 0 16 7.162 16 16C224 424.8 216.8 432 208 432zM336 336h-224C103.2 336 96 328.8 96 320c0-8.838 7.164-16 16-16h224c8.836 0 16 7.162 16 16C352 328.8 344.8 336 336 336zM336 240h-224C103.2 240 96 232.8 96 224c0-8.838 7.164-16 16-16h224C344.8 208 352 215.2 352 224C352 232.8 344.8 240 336 240z" class="fa-secondary"/></svg>