<svg xmlns="http://www.w3.org/2000/svg" viewBox="0 0 576 512"><!--! Font Awesome Pro 6.2.0 by @fontawesome - https://fontawesome.com License - https://fontawesome.com/license (Commercial License) Copyright 2022 Fonticons, Inc. --><path d="M320 0C355.3 0 384 28.65 384 64V198.6C310.1 219.5 256 287.4 256 368C256 427.1 285.1 479.3 329.7 511.3C326.6 511.7 323.3 512 320 512H64C28.65 512 0 483.3 0 448V64C0 28.65 28.65 0 64 0H320zM80 128C71.16 128 64 135.2 64 144C64 152.8 71.16 160 80 160H304C312.8 160 320 152.8 320 144C320 135.2 312.8 128 304 128H80zM80 256H240C248.8 256 256 248.8 256 240C256 231.2 248.8 224 240 224H80C71.16 224 64 231.2 64 240C64 248.8 71.16 256 80 256zM80 352H176C184.8 352 192 344.8 192 336C192 327.2 184.8 320 176 320H80C71.16 320 64 327.2 64 336C64 344.8 71.16 352 80 352z" class="fa-secondary"/></svg>