<svg xmlns="http://www.w3.org/2000/svg" viewBox="0 0 640 512"><!--! Font Awesome Pro 6.2.0 by @fontawesome - https://fontawesome.com License - https://fontawesome.com/license (Commercial License) Copyright 2022 Fonticons, Inc. --><path d="M416 95.1c17.62 0 32-14.38 32-32s-32-63.1-32-63.1s-32 46.37-32 63.1S398.4 95.1 416 95.1zM608 95.1c17.62 0 32-14.38 32-32s-32-63.1-32-63.1s-32 46.37-32 63.1S590.4 95.1 608 95.1zM320 95.1c17.62 0 32-14.38 32-32s-32-63.1-32-63.1S288 46.37 288 63.1S302.4 95.1 320 95.1zM512 95.1c17.62 0 32-14.38 32-32s-32-63.1-32-63.1s-32 46.37-32 63.1S494.4 95.1 512 95.1zM224 95.1c17.62 0 32-14.38 32-32S224 0 224 0S192 46.37 192 63.1S206.4 95.1 224 95.1zM32 95.1c17.62 0 32-14.38 32-32S32 0 32 0S0 46.37 0 63.1S14.38 95.1 32 95.1zM128 95.1c17.62 0 32-14.38 32-32S128 0 128 0S96 46.37 96 63.1S110.4 95.1 128 95.1z" class="fa-secondary"/></svg>