<svg xmlns="http://www.w3.org/2000/svg" viewBox="0 0 640 512"><!--! Font Awesome Pro 6.2.0 by @fontawesome - https://fontawesome.com License - https://fontawesome.com/license (Commercial License) Copyright 2022 Fonticons, Inc. --><path d="M352 0H64C28.75 0 0 28.75 0 63.1v192C0 291.2 28.75 320 64 320l32 .0106v54.25c0 7.998 9.125 12.62 15.5 7.875l82.75-62.12L352 319.9c35.25 .125 64-28.68 64-63.92V63.1C416 28.75 387.3 0 352 0zM269.8 202.3C266.2 223.2 250.4 236.1 228 241.7V252c0 11.03-8.953 20-20 20s-20-8.969-20-20V241.2c-8.682-1.922-17.3-4.723-25.06-7.512l-4.266-1.5C148.3 228.5 142.8 217.1 146.5 206.7c3.688-10.41 15.11-15.81 25.52-12.22l4.469 1.625c7.844 2.812 16.72 6 23.66 7.031C213.8 205.3 229 203.3 230.4 195.5C231.3 190.4 231.8 187.6 202.5 179.2L196.7 177.5c-17.33-5.094-57.92-17-50.52-59.84C149.8 96.75 165.6 82.76 188 77.99V68c0-11.03 8.953-20 20-20s20 8.969 20 20v10.63c5.453 1.195 11.34 2.789 18.56 5.273C257 87.53 262.5 98.94 258.9 109.4C255.3 119.8 243.8 125.3 233.4 121.7c-5.859-2.031-12-4-17.59-4.844C202.2 114.8 186.1 116.7 185.6 124.5C184.8 128.1 184.3 132.2 207.1 139.2L213.5 140.8C235.8 147.1 277.3 159 269.8 202.3z" class="fa-secondary"/></svg>