<svg xmlns="http://www.w3.org/2000/svg" viewBox="0 0 640 512"><!--! Font Awesome Pro 6.2.0 by @fontawesome - https://fontawesome.com License - https://fontawesome.com/license (Commercial License) Copyright 2022 Fonticons, Inc. --><path d="M464 0h-288C131.8 0 96 35.81 96 80v255.1c0 44.18 35.82 80 80 80L224 415.1v83.99C224 503.3 226.7 512 236 512c2.523 0 4.998-.8086 7.096-2.328L368 415.1l96 .0059c44.18 0 80-35.82 80-80V80C544 35.81 508.2 0 464 0zM480 256c0 17.67-14.33 32-32 32H192C174.3 288 160 273.7 160 256V128c0-17.67 14.33-32 32-32h256c17.67 0 32 14.33 32 32V256z" class="fa-secondary"/></svg>