<svg xmlns="http://www.w3.org/2000/svg" viewBox="0 0 640 512"><!--! Font Awesome Pro 6.2.0 by @fontawesome - https://fontawesome.com License - https://fontawesome.com/license (Commercial License) Copyright 2022 Fonticons, Inc. --><path d="M351.1 493.7C321.7 505.5 289.6 512 256 512C114.6 512 0 397.4 0 256C0 114.6 114.6 0 256 0C361.7 0 452.5 64.07 491.5 155.5C486.1 150.2 480.6 145.1 474.1 139.1C457.3 124 430.2 123.1 412.5 139.9C402.5 148.7 393 157.9 384 167.4V160C384 142.3 369.7 128 352 128C334.3 128 320 142.3 320 160V192C320 205.2 327.9 216.5 339.3 221.4C334.3 228.5 329.5 235.6 325.2 242.7C304.3 276.5 288 314.9 288 350.1C288 406.2 312.1 457.9 351.1 493.7V493.7zM128 160V192C128 209.7 142.3 224 160 224C177.7 224 192 209.7 192 192V160C192 142.3 177.7 128 160 128C142.3 128 128 142.3 128 160zM224 160V192C224 209.7 238.3 224 256 224C273.7 224 288 209.7 288 192V160C288 142.3 273.7 128 256 128C238.3 128 224 142.3 224 160z" class="fa-secondary"/></svg>