<svg xmlns="http://www.w3.org/2000/svg" viewBox="0 0 512 512"><!--! Font Awesome Pro 6.2.0 by @fontawesome - https://fontawesome.com License - https://fontawesome.com/license (Commercial License) Copyright 2022 Fonticons, Inc. --><path d="M0 256C0 114.6 114.6 0 256 0C397.4 0 512 114.6 512 256C512 397.4 397.4 512 256 512C114.6 512 0 397.4 0 256zM192 160C192 142.3 177.7 128 160 128C142.3 128 128 142.3 128 160V192C128 209.7 142.3 224 160 224C177.7 224 192 209.7 192 192V160zM288 160C288 142.3 273.7 128 256 128C238.3 128 224 142.3 224 160V192C224 209.7 238.3 224 256 224C273.7 224 288 209.7 288 192V160zM384 160C384 142.3 369.7 128 352 128C334.3 128 320 142.3 320 160V192C320 209.7 334.3 224 352 224C369.7 224 384 209.7 384 192V160z" class="fa-secondary"/></svg>