<svg xmlns="http://www.w3.org/2000/svg" viewBox="0 0 512 512"><!--! Font Awesome Pro 6.2.0 by @fontawesome - https://fontawesome.com License - https://fontawesome.com/license (Commercial License) Copyright 2022 Fonticons, Inc. --><path d="M507.2 4.718c-4.25-4.25-10.38-5.75-16.13-4c-38.75 11.5-111.8 34.25-187.6 61.25c-2.125-7-4-13.5-5.625-18.63c-1.375-4.5-4.75-8.252-9.25-10.13c-4.375-1.875-9.375-1.625-13.63 .625C232.5 55.97 122.1 116.5 60.6 176.4c-1.125 1-2.5 2-3.5 3c-76.13 76.13-76.13 199.5 0 275.7c76.13 76.01 199.5 76.01 275.5-.125c1.002-1 2.001-2.375 3.001-3.5c59.88-61.63 120.4-172.1 142.5-214.4c2.25-4.254 2.5-9.252 .625-13.75c-1.75-4.375-5.5-7.748-10.13-9.127c-5.25-1.625-11.63-3.5-18.63-5.625c27-76.01 49.75-149 61.38-187.8C512.1 15.09 511.5 8.843 507.2 4.718zM191.1 448c-70.75 0-128-57.26-128-128c0-70.63 57.25-128 128-128c70.63 0 128 57.38 128 128C319.1 390.8 262.6 448 191.1 448z" class="fa-secondary"/></svg>