<svg xmlns="http://www.w3.org/2000/svg" viewBox="0 0 640 512"><!--! Font Awesome Pro 6.2.0 by @fontawesome - https://fontawesome.com License - https://fontawesome.com/license (Commercial License) Copyright 2022 Fonticons, Inc. --><path d="M442.8 431C396.1 480.9 329.7 512 256 512C114.6 512 0 397.4 0 256C0 114.6 114.6 0 256 0C392.1 0 504.8 107.5 511.7 242.8L402 330.5C386.1 343.3 379.1 364.7 386.7 383.9C393.5 403.1 411.6 416 432 416H450.3L442.8 431zM128 160V192C128 209.7 142.3 224 160 224C177.7 224 192 209.7 192 192V160C192 142.3 177.7 128 160 128C142.3 128 128 142.3 128 160zM224 160V192C224 209.7 238.3 224 256 224C273.7 224 288 209.7 288 192V160C288 142.3 273.7 128 256 128C238.3 128 224 142.3 224 160zM320 160V192C320 209.7 334.3 224 352 224C369.7 224 384 209.7 384 192V160C384 142.3 369.7 128 352 128C334.3 128 320 142.3 320 160z" class="fa-secondary"/></svg>