<svg xmlns="http://www.w3.org/2000/svg" viewBox="0 0 512 512"><!--! Font Awesome Pro 6.2.0 by @fontawesome - https://fontawesome.com License - https://fontawesome.com/license (Commercial License) Copyright 2022 Fonticons, Inc. --><path d="M0 160c0 8.836 7.164 16 16 16H64v-32H16C7.164 144 0 151.2 0 160zM0 256c0 8.836 7.164 16 16 16H64v-32H16C7.164 240 0 247.2 0 256zM176 16C176 7.164 168.8 0 160 0C151.2 0 144 7.164 144 16V64h32V16zM0 352c0 8.836 7.164 16 16 16H64v-32H16C7.164 336 0 343.2 0 352zM272 16C272 7.164 264.8 0 256 0C247.2 0 240 7.164 240 16V64h32V16zM512 160c0-8.836-7.162-16-16-16H448v32h48C504.8 176 512 168.8 512 160zM496 336H448v32h48c8.838 0 16-7.164 16-16S504.8 336 496 336zM352 0c-8.836 0-16 7.164-16 16V64h32V16C368 7.164 360.8 0 352 0zM496 240H448v32h48C504.8 272 512 264.8 512 256S504.8 240 496 240zM144 496C144 504.8 151.2 512 160 512c8.838 0 16-7.164 16-16V448h-32V496zM336 496c0 8.836 7.164 16 16 16c8.838 0 16-7.164 16-16V448h-32V496zM240 496c0 8.836 7.164 16 16 16c8.838 0 16-7.164 16-16V448h-32V496zM160 352h192V160H160V352z" class="fa-secondary"/></svg>