<svg xmlns="http://www.w3.org/2000/svg" viewBox="0 0 384 512"><!--! Font Awesome Pro 6.2.0 by @fontawesome - https://fontawesome.com License - https://fontawesome.com/license (Commercial License) Copyright 2022 Fonticons, Inc. --><path d="M282.9 96.53C279.3 96.18 275.7 96 272 96C248.2 96 226.1 103.4 207.1 116.1L241.9 21.24C247.8 4.595 266.1-4.079 282.8 1.865C299.4 7.809 308.1 26.12 302.1 42.76L282.9 96.53zM224 261.5V208C224 185.7 239.1 167 259.7 161.6L224 261.5zM142.1 490.8C136.2 507.4 117.9 516.1 101.2 510.1C84.59 504.2 75.92 485.9 81.86 469.2L160 250.5V416C160 421.3 161.3 426.3 163.6 430.7L142.1 490.8z" class="fa-secondary"/></svg>