<svg xmlns="http://www.w3.org/2000/svg" viewBox="0 0 512 512"><!--! Font Awesome Pro 6.2.0 by @fontawesome - https://fontawesome.com License - https://fontawesome.com/license (Commercial License) Copyright 2022 Fonticons, Inc. --><path d="M200 287.1H64c-12.94 0-24.62 7.797-29.56 19.75c-4.969 11.97-2.219 25.72 6.937 34.87l30.06 30.06l-62.06 62.07c-12.49 12.5-12.5 32.75-.0012 45.25l22.62 22.62c12.5 12.5 32.76 12.5 45.26 .0012l62.06-62.07l30.06 30.06c6.125 6.125 14.31 9.375 22.62 9.375c4.125 0 8.281-.7969 12.25-2.437c11.97-4.953 19.75-16.62 19.75-29.56V311.1C224 298.7 213.3 287.1 200 287.1zM312 224h135.1c12.94 0 24.62-7.797 29.56-19.75c4.969-11.97 2.219-25.72-6.937-34.87l-30.06-30.06l62.06-62.07c12.5-12.5 12.5-32.76 .0003-45.26l-22.62-22.62c-12.5-12.5-32.76-12.5-45.26-.0003l-62.06 62.07l-30.06-30.06c-9.156-9.141-22.87-11.84-34.87-6.937C295.8 39.39 288 51.06 288 64v135.1C288 213.3 298.7 224 312 224z" class="fa-secondary"/></svg>