<svg xmlns="http://www.w3.org/2000/svg" viewBox="0 0 384 512"><!--! Font Awesome Pro 6.2.0 by @fontawesome - https://fontawesome.com License - https://fontawesome.com/license (Commercial License) Copyright 2022 Fonticons, Inc. --><path d="M288 0H96C51.82 0 16 35.82 16 80v352C16 476.2 51.82 512 96 512h192c44.18 0 80-35.82 80-80v-352C368 35.82 332.2 0 288 0zM304 432c0 8.822-7.178 16-16 16H96c-8.822 0-16-7.178-16-16v-352C80 71.18 87.18 64 96 64h32v16C128 88.84 135.2 96 144 96h96C248.8 96 256 88.84 256 80V64h32c8.822 0 16 7.178 16 16V432z" class="fa-secondary"/></svg>