<svg xmlns="http://www.w3.org/2000/svg" viewBox="0 0 512 512"><!--! Font Awesome Pro 6.2.0 by @fontawesome - https://fontawesome.com License - https://fontawesome.com/license (Commercial License) Copyright 2022 Fonticons, Inc. --><path d="M227.3 448H64V64h224v251.1c4.303-4.988 8.613-9.977 13.32-14.68C316.7 285.9 333.8 272.9 352 261.1V48C352 21.5 330.5 0 304 0h-256C21.5 0 0 21.5 0 48v416C0 490.5 21.5 512 48 512h181.6C226.1 504.7 224 496.6 224 487.1C223.1 474.5 225.3 461.1 227.3 448zM144 384C135.2 384 128 391.2 128 400S135.2 416 144 416h64C216.8 416 224 408.8 224 400S216.8 384 208 384H144z" class="fa-secondary"/></svg>