<svg xmlns="http://www.w3.org/2000/svg" viewBox="0 0 640 512"><!--! Font Awesome Pro 6.2.0 by @fontawesome - https://fontawesome.com License - https://fontawesome.com/license (Commercial License) Copyright 2022 Fonticons, Inc. --><path d="M48 360C48 399.8 80.24 432 120 432H520C533.3 432 544 442.7 544 456C544 469.3 533.3 480 520 480H120C53.73 480 0 426.3 0 360V120C0 106.7 10.75 96 24 96C37.25 96 48 106.7 48 120V360zM288 208C288 163.8 323.8 128 368 128C412.2 128 448 163.8 448 208C448 252.2 412.2 288 368 288C323.8 288 288 252.2 288 208z" class="fa-secondary"/></svg>