<svg xmlns="http://www.w3.org/2000/svg" viewBox="0 0 512 512"><!--! Font Awesome Pro 6.2.0 by @fontawesome - https://fontawesome.com License - https://fontawesome.com/license (Commercial License) Copyright 2022 Fonticons, Inc. --><path d="M464 256C490.5 256 512 277.5 512 304V464C512 490.5 490.5 512 464 512H48C21.49 512 0 490.5 0 464V304C0 277.5 21.49 256 48 256H464zM96 464C96 437.5 74.51 416 48 416V464H96zM48 352C74.51 352 96 330.5 96 304H48V352zM464 464V416C437.5 416 416 437.5 416 464H464zM464 304H416C416 330.5 437.5 352 464 352V304zM256 448C291.3 448 320 419.3 320 384C320 348.7 291.3 320 256 320C220.7 320 192 348.7 192 384C192 419.3 220.7 448 256 448z" class="fa-secondary"/></svg>