<svg xmlns="http://www.w3.org/2000/svg" viewBox="0 0 576 512"><!--! Font Awesome Pro 6.2.0 by @fontawesome - https://fontawesome.com License - https://fontawesome.com/license (Commercial License) Copyright 2022 Fonticons, Inc. --><path d="M512 304C480.6 304 454.5 326.6 449 356.4C386.6 357.2 327.2 372.1 276.2 384.1C271.4 386.2 266.7 387.4 262 388.5C211.3 401.1 167.9 410.7 127.9 411.7C125.6 378.3 97.89 352 64 352V208C95.38 208 121.5 185.4 126.1 155.6C189.4 154.8 248.8 139.9 299.8 127C304.6 125.8 309.3 124.6 313.1 123.5C364.7 110.9 408.1 101.3 448.1 100.3C450.4 133.7 478.1 160 512 160V304zM288 352C332.2 352 368 309 368 256C368 202.1 332.2 160 288 160C243.8 160 208 202.1 208 256C208 309 243.8 352 288 352z" class="fa-secondary"/></svg>