<svg xmlns="http://www.w3.org/2000/svg" viewBox="0 0 640 512"><!--! Font Awesome Pro 6.2.0 by @fontawesome - https://fontawesome.com License - https://fontawesome.com/license (Commercial License) Copyright 2022 Fonticons, Inc. --><path d="M448 512H192C156.7 512 128 483.3 128 448V96H512V448C512 483.3 483.3 512 448 512zM192 448H256C256 412.7 227.3 384 192 384V448zM448 448V384C412.7 384 384 412.7 384 448H448zM224 272C224 316.2 266.1 352 320 352C373 352 416 316.2 416 272C416 227.8 373 192 320 192C266.1 192 224 227.8 224 272z" class="fa-secondary"/></svg>