<svg xmlns="http://www.w3.org/2000/svg" viewBox="0 0 576 512"><!--! Font Awesome Pro 6.2.0 by @fontawesome - https://fontawesome.com License - https://fontawesome.com/license (Commercial License) Copyright 2022 Fonticons, Inc. --><path d="M448 64C474.5 64 496 85.49 496 112C496 135.8 478.7 155.5 456 159.3V168C456 190.1 438.1 208 416 208C393.9 208 376 190.1 376 168V159.3C353.3 155.5 336 135.8 336 112C336 85.49 357.5 64 384 64H448zM384 96C375.2 96 368 103.2 368 112C368 120.8 375.2 128 384 128C392.8 128 400 120.8 400 112C400 103.2 392.8 96 384 96zM448 128C456.8 128 464 120.8 464 112C464 103.2 456.8 96 448 96C439.2 96 432 103.2 432 112C432 120.8 439.2 128 448 128z" class="fa-secondary"/></svg>