<svg xmlns="http://www.w3.org/2000/svg" viewBox="0 0 512 512"><!--! Font Awesome Pro 6.2.0 by @fontawesome - https://fontawesome.com License - https://fontawesome.com/license (Commercial License) Copyright 2022 Fonticons, Inc. --><path d="M507.8 339L450.2 256l57.6-83.01c9.703-13.98 1.693-33.32-15.05-36.34l-99.43-17.97l-17.97-99.43c-3.027-16.75-22.36-24.76-36.34-15.05L256 61.79L172.1 4.194C159-5.51 139.7 2.498 136.6 19.25L118.7 118.7L19.25 136.6c-16.75 3.027-24.76 22.36-15.05 36.34L61.8 256l-57.6 83.01c-9.703 13.98-1.695 33.32 15.05 36.35l99.43 17.97l17.97 99.43c3.027 16.75 22.36 24.76 36.34 15.05L256 450.2l83.01 57.6c13.98 9.703 33.32 1.695 36.34-15.05l17.97-99.43l99.43-17.97C509.5 372.3 517.5 352.1 507.8 339zM357.8 357.1c-56.15 56.15-147.6 56.15-203.8 0s-56.15-147.6 0-203.8c56.15-56.15 147.6-56.15 203.8 0C413.9 210.4 413.9 301.8 357.8 357.1z" class="fa-secondary"/></svg>