<svg xmlns="http://www.w3.org/2000/svg" viewBox="0 0 640 512"><!--! Font Awesome Pro 6.2.0 by @fontawesome - https://fontawesome.com License - https://fontawesome.com/license (Commercial License) Copyright 2022 Fonticons, Inc. --><path d="M627.5 380.1c-108.7 20.7-208.4-62.62-208.4-172.3c0-63.19 33.8-121.3 88.79-152.6c8.477-4.812 6.344-17.66-3.281-19.44c-11.21-2.078-29.55-3.746-40.92-3.746c-111.4 0-203.7 81.47-220.9 188.2c.7793 1.51 1.727 2.901 2.439 4.452C248.8 224.2 252.4 224 256 224c52.94 0 96 43.06 96 96c0 37.94-22.23 70.47-54.25 86.04C338.7 451.3 397.7 480 463.7 480c69.1 0 132.1-31.45 173.9-82.93C643.8 389.4 637.1 378.3 627.5 380.1z" class="fa-secondary"/></svg>