<svg xmlns="http://www.w3.org/2000/svg" viewBox="0 0 640 512"><!--! Font Awesome Pro 6.2.0 by @fontawesome - https://fontawesome.com License - https://fontawesome.com/license (Commercial License) Copyright 2022 Fonticons, Inc. --><path d="M224 96C241.7 96 256 110.3 256 128C256 145.7 241.7 160 224 160H128C110.3 160 96 145.7 96 128C96 110.3 110.3 96 128 96H224zM416 384C416 330.1 458.1 288 512 288C565 288 608 330.1 608 384C608 437 565 480 512 480C458.1 480 416 437 416 384zM512 432C538.5 432 560 410.5 560 384C560 357.5 538.5 336 512 336C485.5 336 464 357.5 464 384C464 410.5 485.5 432 512 432zM112 384C112 410.5 133.5 432 160 432C186.5 432 208 410.5 208 384H256C256 437 213 480 160 480C106.1 480 64 437 64 384H112z" class="fa-secondary"/></svg>