<svg xmlns="http://www.w3.org/2000/svg" viewBox="0 0 640 512"><!--! Font Awesome Pro 6.2.0 by @fontawesome - https://fontawesome.com License - https://fontawesome.com/license (Commercial License) Copyright 2022 Fonticons, Inc. --><path d="M546.3 117.9C551.5 121.4 556.9 124.9 562.3 128.5C591.3 147.7 608 180.2 608 214.6C608 243.1 596.7 269 578.2 288H221.8C203.3 269 191.1 243.1 191.1 214.6C191.1 180.2 208.7 147.7 237.7 128.5C243.1 124.9 248.5 121.4 253.7 117.9C309.1 81.34 352.5 52.7 387.2 6.4C390.2 2.371 394.1 0 400 0C405 0 409.8 2.371 412.8 6.4C447.5 52.7 490.9 81.34 546.3 117.9H546.3zM105.6 17.2C139.8 42.88 160 83.19 160 126V160H0V126C0 83.19 20.15 42.88 54.4 17.2L70.4 5.2C76.09 .9334 83.91 .9334 89.6 5.2L105.6 17.2z" class="fa-secondary"/></svg>