<svg xmlns="http://www.w3.org/2000/svg" viewBox="0 0 640 512"><!--! Font Awesome Pro 6.2.0 by @fontawesome - https://fontawesome.com License - https://fontawesome.com/license (Commercial License) Copyright 2022 Fonticons, Inc. --><path d="M191.1 380.2V336C191.1 331.8 193.7 327.7 196.7 324.7L255.1 265.4V242.3L139.2 343.1C87.82 395.3 0 358.9 0 286.3C0 245.2 30.62 210.6 71.41 205.5L231.3 181.6L181.8 140.3C176.7 136.1 174.7 129.2 176.8 122.9L190.7 81.23L161.7 23.16C157.7 15.26 160.9 5.645 168.8 1.693C176.7-2.259 186.4 .9447 190.3 8.848L222.3 72.85C224.2 76.64 224.5 81.04 223.2 85.06L210.6 122.7L255.1 160.5V137.9C255.1 123.1 266.1 110.6 279.8 106.1V63.68C279.8 59.18 283.5 55.52 287.1 55.52C292.5 55.52 296.2 59.18 296.2 63.68V106.1C309.9 110.6 319.1 123.1 319.1 137.9V160.5L365.4 122.7L352.8 85.06C351.5 81.04 351.8 76.64 353.7 72.85L385.7 8.848C389.6 .9444 399.3-2.259 407.2 1.693C415.1 5.644 418.3 15.26 414.3 23.16L385.3 81.23L399.2 122.9C401.3 129.2 399.3 136.1 394.2 140.3L344.7 181.6L504.6 205.5C527 208.3 546.4 220 559.3 236.9C556.5 239.4 554.1 242.3 552 245.5C543.4 232.5 528.7 224 512 224C495.3 224 480.6 232.5 472 245.5C463.4 232.5 448.7 224 432 224C410.3 224 392 238.4 386.1 258.1C375.4 261.3 366.3 268.2 360.2 277.2L319.1 242.3V265.4L352.4 297.8C352.1 299.8 352 301.9 352 304C352 320.7 360.5 335.4 373.5 344C369.5 346.6 365.9 349.9 362.9 353.5L319.1 310.6V360.6C319.1 378.3 305.7 392.6 287.1 392.6C270.3 392.6 255.1 378.3 255.1 360.6V310.6L224 342.6V384C224 386.5 223.4 388.9 222.3 391.2L190.3 455.2C186.4 463.1 176.7 466.3 168.8 462.3C160.9 458.4 157.7 448.8 161.7 440.8L191.1 380.2z" class="fa-secondary"/></svg>