<svg xmlns="http://www.w3.org/2000/svg" viewBox="0 0 640 512"><!--! Font Awesome Pro 6.2.0 by @fontawesome - https://fontawesome.com License - https://fontawesome.com/license (Commercial License) Copyright 2022 Fonticons, Inc. --><path d="M128 416C154.9 416 177.9 399.5 187.3 376H253.8C242.5 435.2 190.5 480 128 480C57.31 480 0 422.7 0 352C0 281.3 57.31 224 128 224C190.5 224 242.5 268.8 253.8 328H187.3C177.9 304.5 154.9 288 128 288C92.65 288 64 316.7 64 352C64 387.3 92.65 416 128 416V416zM384 352C384 311.1 402.4 276.3 431.1 252.8L462.7 311.2C453.5 322.3 448 336.5 448 352C448 387.3 476.7 416 512 416C547.3 416 576 387.3 576 352C576 316.7 547.3 288 512 288C509.6 288 507.2 288.1 504.9 288.4L473.3 229.1C485.5 226.1 498.5 224 512 224C582.7 224 640 281.3 640 352C640 422.7 582.7 480 512 480C441.3 480 384 422.7 384 352V352z" class="fa-secondary"/></svg>