<svg xmlns="http://www.w3.org/2000/svg" viewBox="0 0 576 512"><!--! Font Awesome Pro 6.2.0 by @fontawesome - https://fontawesome.com License - https://fontawesome.com/license (Commercial License) Copyright 2022 Fonticons, Inc. --><path d="M447.1 64H416l-.002 64h32c35.38 0 64 28.62 64 64s-28.62 64-64 64H415.1L416 320h31.1C518.7 320 576 262.8 576 192S518.7 64 447.1 64zM175.1 128V64H143.1v64L105.4 166.6c-6 6-9.375 14.13-9.375 22.63L95.1 256c0 17.62 14.38 32 32 32h64c17.62 0 32-14.38 32-32l-.0003-66.75c0-8.5-3.374-16.63-9.374-22.63L175.1 128z" class="fa-secondary"/></svg>