<svg xmlns="http://www.w3.org/2000/svg" viewBox="0 0 512 512"><!--! Font Awesome Pro 6.2.0 by @fontawesome - https://fontawesome.com License - https://fontawesome.com/license (Commercial License) Copyright 2022 Fonticons, Inc. --><path d="M200.9 44.75C195 37.5 186.4 32.38 176.3 32.38H64c-17.75 0-32 14.38-32 32v63.81l130.1 .0625c-5.5-21-.25-44.5 16.38-61L200.9 44.75zM343.3 89.75l-48.5-48.38c-12.5-12.5-32.75-12.5-45.25 0L201 89.75c-10.38 10.5-11.5 26.38-4.25 38.63h151C354.9 116.1 353.8 100.3 343.3 89.75zM96 223.8c0 17.67 14.33 32 32 32c17.67 0 32-14.33 32-32v-63.67H96V223.8z" class="fa-secondary"/></svg>