<svg xmlns="http://www.w3.org/2000/svg" viewBox="0 0 512 512"><!--! Font Awesome Pro 6.2.0 by @fontawesome - https://fontawesome.com License - https://fontawesome.com/license (Commercial License) Copyright 2022 Fonticons, Inc. --><path d="M304.3 96c0-25.45-12.17-47.85-30.78-62.5C267.6 33.06 261.9 32 256 32C219.8 32 185.6 40.91 154.7 55.79C147.7 67.65 143.4 81.27 143.4 96c0 44.18 36.01 80 80.43 80S304.3 140.2 304.3 96zM127.3 192C109.5 192 95.14 206.3 95.14 224c0 17.67 14.4 32 32.17 32c17.77 0 32.17-14.33 32.17-32C159.5 206.3 145.1 192 127.3 192zM484.2 214.1c-7.045-31.54-20.93-59.89-38.1-84.86C441.2 128.5 437.2 128 432.9 128c-35.54 0-64.34 28.65-64.34 64c0 35.35 28.81 64 64.34 64c22.73 0 42.6-11.79 54.05-29.49L484.2 214.1zM191.7 320l-24.48 121.7C163.2 461.5 178.4 480 198.7 480h114.5c20.3 0 35.53-18.47 31.55-38.28L320.3 320H191.7z" class="fa-secondary"/></svg>