<svg xmlns="http://www.w3.org/2000/svg" viewBox="0 0 640 512"><!--! Font Awesome Pro 6.2.0 by @fontawesome - https://fontawesome.com License - https://fontawesome.com/license (Commercial License) Copyright 2022 Fonticons, Inc. --><path d="M191.1 356.9c-10.05-2.978-20.72-4.895-32.01-4.895c-53.02 0-95.1 35.82-95.1 79.1c0 44.18 42.98 79.1 95.1 79.1s95.1-35.77 95.1-79.95l.0268-134.8L191.1 247.2V356.9zM543.1 0c-2.719 0-7.031 .6615-9.625 1.49L214.4 95.97c-11.98 3.775-21.62 16.75-22.2 29.36l108.1 85.42l210.8-61.76V292.9c-10.05-2.978-20.72-4.895-32.01-4.895c-22.15 0-42.23 6.574-58.42 17.11l137.1 107.5c10.58-12.76 17.33-27.86 17.33-44.57l.0004-336C575.1 14.34 561.7 0 543.1 0z" class="fa-secondary"/></svg>