<svg xmlns="http://www.w3.org/2000/svg" viewBox="0 0 640 512"><!--! Font Awesome Pro 6.2.0 by @fontawesome - https://fontawesome.com License - https://fontawesome.com/license (Commercial License) Copyright 2022 Fonticons, Inc. --><path d="M191.9 0c-61.86 0-112 50.14-112 112V224h224V112C303.9 50.14 253.8 0 191.9 0zM191.9 160c-35.35 0-64-28.65-64-64c0-1.107 .2715-2.141 .3262-3.234c26.61-.1133 49.98-13.76 63.67-34.41c13.7 20.65 37.06 34.29 63.67 34.41C255.6 93.86 255.9 94.89 255.9 96C255.9 131.3 227.2 160 191.9 160zM463.9 308.9C446.8 334.9 417.4 352 383.9 352c0 44.18 35.83 80 80.02 80c44.2 0 80.02-35.82 80.02-80C510.5 352 481.1 334.9 463.9 308.9z" class="fa-secondary"/></svg>