<svg xmlns="http://www.w3.org/2000/svg" viewBox="0 0 576 512"><!--! Font Awesome Pro 6.2.0 by @fontawesome - https://fontawesome.com License - https://fontawesome.com/license (Commercial License) Copyright 2022 Fonticons, Inc. --><path d="M448 96v48c-23.82 0-45.83 7.602-64 20.33V128c0-17.64-14.36-32-32-32H224C215.2 96 208 103.2 208 112v98.94C189.4 217.6 176 235.1 176 256c0 26.51 21.49 48 48 48S272 282.5 272 256c0-20.87-13.4-38.45-32-45.06V128H352v71.22C342.1 215.9 336 235.2 336 256v38.68C307.8 307 288 335.3 288 368V384H96V128h48C152.8 128 160 120.8 160 112S152.8 96 144 96H96C78.36 96 64 110.4 64 128v256c0 17.64 14.36 32 32 32h192v48c0 5.479 .5645 10.83 1.619 16H64c-35.35 0-64-28.65-64-64V96c0-35.35 28.65-64 64-64h320C419.3 32 448 60.65 448 96z" class="fa-secondary"/></svg>