<svg xmlns="http://www.w3.org/2000/svg" viewBox="0 0 512 512"><!--! Font Awesome Pro 6.2.0 by @fontawesome - https://fontawesome.com License - https://fontawesome.com/license (Commercial License) Copyright 2022 Fonticons, Inc. --><path d="M386.3 475.7C374.3 482.6 359.2 481.1 348.9 471.8L170.6 311.8C157.5 300 156.4 279.8 168.2 266.6C179.1 253.5 200.2 252.4 213.4 264.2L373.2 407.7C418.5 373.2 447.1 317.4 447.1 256C447.1 186.4 410.1 124 354.3 91.7C338.1 82.86 333.7 63.28 342.6 47.98C351.4 32.68 371 27.46 386.3 36.31C461.6 79.89 511.1 163.2 511.1 256C511.1 348.8 461.6 432.1 386.3 475.7L386.3 475.7z" class="fa-secondary"/></svg>