<svg xmlns="http://www.w3.org/2000/svg" viewBox="0 0 512 512"><!--! Font Awesome Pro 6.2.0 by @fontawesome - https://fontawesome.com License - https://fontawesome.com/license (Commercial License) Copyright 2022 Fonticons, Inc. --><path d="M144 128H96v256h149.4C267.3 333.1 304.1 290.6 352 262.2V128H240v82.94c18.6 6.611 32 24.19 32 45.06c0 26.51-21.49 48-48 48S176 282.5 176 256c0-20.87 13.4-38.45 32-45.06V112C208 103.2 215.2 96 224 96h128c17.64 0 32 14.36 32 32v117.4c20.15-8.672 41.65-14.64 64-18.06V96c0-35.35-28.65-64-64-64H64C28.65 32 0 60.65 0 96v320c0 35.35 28.65 64 64 64h160.4c.668-22.12 4.02-43.55 9.83-64H96c-17.64 0-32-14.36-32-32V128c0-17.64 14.36-32 32-32h48C152.8 96 160 103.2 160 112S152.8 128 144 128z" class="fa-secondary"/></svg>