<svg xmlns="http://www.w3.org/2000/svg" viewBox="0 0 640 512"><!--! Font Awesome Pro 6.2.0 by @fontawesome - https://fontawesome.com License - https://fontawesome.com/license (Commercial License) Copyright 2022 Fonticons, Inc. --><path d="M352 416H96c-17.64 0-32-14.36-32-32V128c0-17.64 14.36-32 32-32h48C152.8 96 160 103.2 160 112S152.8 128 144 128H96v256h256V128H240v82.94C258.6 217.6 272 235.1 272 256c0 26.51-21.49 48-48 48S176 282.5 176 256c0-20.87 13.4-38.45 32-45.06V112C208 103.2 215.2 96 224 96h128c17.64 0 32 14.36 32 32v66.95C389 193.2 394.4 192 400 192h17.89l2.771-6.219C426.4 174.4 436.3 166.2 448 162.5V96c0-35.35-28.65-64-64-64H64C28.65 32 0 60.65 0 96v320c0 35.35 28.65 64 64 64h316.8l-4.719-75.5C370.2 411.4 361.7 416 352 416z" class="fa-secondary"/></svg>