<svg xmlns="http://www.w3.org/2000/svg" viewBox="0 0 640 512"><!--! Font Awesome Pro 6.2.0 by @fontawesome - https://fontawesome.com License - https://fontawesome.com/license (Commercial License) Copyright 2022 Fonticons, Inc. --><path d="M384 173.5V128c0-17.64-14.36-32-32-32H224C215.2 96 208 103.2 208 112v98.94C189.4 217.6 176 235.1 176 256c0 26.51 21.49 48 48 48S272 282.5 272 256c0-20.87-13.4-38.45-32-45.06V128H352v64.72C313.4 221.9 288 267.8 288 320c0 22.79 4.92 44.38 13.51 64H96V128h48C152.8 128 160 120.8 160 112S152.8 96 144 96H96C78.36 96 64 110.4 64 128v256c0 17.64 14.36 32 32 32h224.7c21.51 28.47 52.17 49.38 87.77 58.49C400.9 477.7 392.8 480 384 480H64c-35.35 0-64-28.65-64-64V96c0-35.35 28.65-64 64-64h320c35.35 0 64 28.65 64 64v64C425.2 160 403.6 164.9 384 173.5z" class="fa-secondary"/></svg>