<svg xmlns="http://www.w3.org/2000/svg" viewBox="0 0 512 512"><!--! Font Awesome Pro 6.2.0 by @fontawesome - https://fontawesome.com License - https://fontawesome.com/license (Commercial License) Copyright 2022 Fonticons, Inc. --><path d="M96 96V352c0 35.3 28.7 64 64 64H357.5c17 0 33.3-6.7 45.3-18.7l58.5-58.5c12-12 18.7-28.3 18.7-45.3V96c0-35.3-28.7-64-64-64H160c-35.3 0-64 28.7-64 64zm160 48c0-8.8 7.2-16 16-16h32c8.8 0 16 7.2 16 16v48h48c8.8 0 16 7.2 16 16v32c0 8.8-7.2 16-16 16H320v48c0 8.8-7.2 16-16 16H272c-8.8 0-16-7.2-16-16V256H208c-8.8 0-16-7.2-16-16V208c0-8.8 7.2-16 16-16h48V144z" class="fa-secondary"/></svg>