<svg xmlns="http://www.w3.org/2000/svg" viewBox="0 0 640 512"><!--! Font Awesome Pro 6.2.0 by @fontawesome - https://fontawesome.com License - https://fontawesome.com/license (Commercial License) Copyright 2022 Fonticons, Inc. --><path d="M608 392.6C627.1 403.6 640 424.3 640 448C640 483.3 611.3 512 576 512C552.3 512 531.6 499.1 520.6 480H311.4C300.4 499.1 279.7 512 256 512C220.7 512 192 483.3 192 448C192 424.3 204.9 403.6 224 392.6V352H288V392.6C297.7 398.2 305.8 406.3 311.4 416H520.6C526.2 406.3 534.3 398.2 544 392.6V279.4C534.3 273.8 526.2 265.7 520.6 256H474.5C469.1 240.6 459.9 227.1 448 216.4V192H520.6C531.6 172.9 552.3 160 576 160C611.3 160 640 188.7 640 224C640 247.7 627.1 268.4 608 279.4V392.6z" class="fa-secondary"/></svg>