<svg xmlns="http://www.w3.org/2000/svg" viewBox="0 0 448 512"><!--! Font Awesome Pro 6.2.0 by @fontawesome - https://fontawesome.com License - https://fontawesome.com/license (Commercial License) Copyright 2022 Fonticons, Inc. --><path d="M400 32C426.5 32 448 53.49 448 80V112C448 138.5 426.5 160 400 160H304C277.5 160 256 138.5 256 112V80C256 53.49 277.5 32 304 32H400zM400 224C426.5 224 448 245.5 448 272V432C448 458.5 426.5 480 400 480H304C277.5 480 256 458.5 256 432V272C256 245.5 277.5 224 304 224H400z" class="fa-secondary"/></svg>