<svg xmlns="http://www.w3.org/2000/svg" viewBox="0 0 512 512"><!--! Font Awesome Pro 6.2.0 by @fontawesome - https://fontawesome.com License - https://fontawesome.com/license (Commercial License) Copyright 2022 Fonticons, Inc. --><path d="M128 112C128 85.49 149.5 64 176 64H464C490.5 64 512 85.49 512 112V176C512 202.5 490.5 224 464 224H176C149.5 224 128 202.5 128 176V112zM128 336C128 309.5 149.5 288 176 288H336C362.5 288 384 309.5 384 336V400C384 426.5 362.5 448 336 448H176C149.5 448 128 426.5 128 400V336z" class="fa-secondary"/></svg>