<svg xmlns="http://www.w3.org/2000/svg" viewBox="0 0 448 512"><!--! Font Awesome Pro 6.2.0 by @fontawesome - https://fontawesome.com License - https://fontawesome.com/license (Commercial License) Copyright 2022 Fonticons, Inc. --><path d="M400 64C426.5 64 448 85.49 448 112V176C448 202.5 426.5 224 400 224H48C21.49 224 0 202.5 0 176V112C0 85.49 21.49 64 48 64H400zM336 288C362.5 288 384 309.5 384 336V400C384 426.5 362.5 448 336 448H112C85.49 448 64 426.5 64 400V336C64 309.5 85.49 288 112 288H336z" class="fa-secondary"/></svg>