<svg xmlns="http://www.w3.org/2000/svg" viewBox="0 0 512 512"><!--! Font Awesome Pro 6.2.0 by @fontawesome - https://fontawesome.com License - https://fontawesome.com/license (Commercial License) Copyright 2022 Fonticons, Inc. --><path d="M384 176C384 202.5 362.5 224 336 224H48C21.49 224 0 202.5 0 176V112C0 85.49 21.49 64 48 64H336C362.5 64 384 85.49 384 112V176zM384 400C384 426.5 362.5 448 336 448H176C149.5 448 128 426.5 128 400V336C128 309.5 149.5 288 176 288H336C362.5 288 384 309.5 384 336V400z" class="fa-secondary"/></svg>