<svg xmlns="http://www.w3.org/2000/svg" viewBox="0 0 640 512"><!--! Font Awesome Pro 6.2.0 by @fontawesome - https://fontawesome.com License - https://fontawesome.com/license (Commercial License) Copyright 2022 Fonticons, Inc. --><path d="M352 96C352 113.7 337.7 128 320 128H288V160H224V128H192C174.3 128 160 113.7 160 96C160 78.33 174.3 64 192 64H320C337.7 64 352 78.33 352 96zM544 400C544 379 564.6 337.4 578.9 311.2C584.6 300.6 599.4 300.6 605.1 311.2C619.4 337.4 640 379 640 400C640 432 618.5 448 592 448C565.5 448 544 426.5 544 400z" class="fa-secondary"/></svg>