<svg xmlns="http://www.w3.org/2000/svg" viewBox="0 0 512 512"><!--! Font Awesome Pro 6.2.0 by @fontawesome - https://fontawesome.com License - https://fontawesome.com/license (Commercial License) Copyright 2022 Fonticons, Inc. --><path d="M360.6 61C362.5 62.88 365.3 64 368 64s5.375-1.125 7.375-3l21.5-21.62C398.9 37.38 400 34.75 400 32s-1.125-5.375-3.125-7.375L375.4 3c-4.125-4-10.75-4-14.75 0L339 24.62C337 26.62 336 29.25 336 32s1 5.375 3 7.375L360.6 61zM454.3 67.25c-85.5 65.12-169 2.751-172.5 .125c-6-4.625-14.5-4.375-20.13 .5C255.9 72.75 254.3 81 257.9 87.63C259.5 90.63 298.3 160 376.8 160c79.88 0 98.75-31.38 101.8-37.63C479.5 120.3 480 117.9 480 115.5V80C480 66.75 464.9 59.25 454.3 67.25z" class="fa-secondary"/></svg>