<svg xmlns="http://www.w3.org/2000/svg" viewBox="0 0 384 512"><!--! Font Awesome Pro 6.2.0 by @fontawesome - https://fontawesome.com License - https://fontawesome.com/license (Commercial License) Copyright 2022 Fonticons, Inc. --><path d="M372.6 256H11.39C4.255 276.1 0 297.5 0 320c0 22.48 4.091 43.96 11.19 64h361.6C379.9 363.1 384 342.5 384 320C384 297.5 379.7 276.1 372.6 256zM191.9 96C174.4 96 159.9 81.5 159.9 64s14.51-32 32.01-32s31.97 14.5 31.97 32S209.4 96 191.9 96h55.13c5.498-9.375 8.887-20.25 8.887-32c0-35.25-28.75-64-63.98-64S127.1 28.75 127.1 64c0 11.75 3.368 22.62 8.866 32H191.9z" class="fa-secondary"/></svg>