<svg xmlns="http://www.w3.org/2000/svg" viewBox="0 0 640 512"><!--! Font Awesome Pro 6.2.0 by @fontawesome - https://fontawesome.com License - https://fontawesome.com/license (Commercial License) Copyright 2022 Fonticons, Inc. --><path d="M124.1 205.4l32.88-14.08C154.4 191.1 151.8 190.8 149.4 189.7l-8.314-3.777C133.1 182.3 128 174.9 128 166.7V160c0-6.723 5.996-12.17 13.39-12.17h37.21C186 147.8 192 153.3 192 160v6.701c0 8.15-5.068 15.6-13.09 19.25l-8.314 3.777c-2.391 1.088-5.012 1.324-7.598 1.631L195.9 205.4C199.8 207.1 204 208 208.3 208C234.6 208 256 186.6 256 160.3v-16C256 108.9 227.1 80 191.7 80H128.3C92.86 80 64 108.9 64 144.3v16C64 186.6 85.38 208 111.7 208C115.1 208 120.2 207.1 124.1 205.4zM224 128c8.836 0 16 7.162 16 16C240 152.8 232.8 160 224 160S208 152.8 208 144C208 135.2 215.2 128 224 128zM96 160C87.16 160 80 152.8 80 144C80 135.2 87.16 128 96 128s16 7.162 16 16C112 152.8 104.8 160 96 160zM356.6 319.1L320 320c-42.56 0-78.32-27.99-90.83-66.43C222.4 255.1 215.5 256 208.3 256C197.6 256 186.9 253.8 176.1 249.6L160 242.3L143 249.6C133.1 253.8 122.4 256 111.7 256C106.3 256 101.1 255.3 96 254.4V256c0 13.98 1.863 27.52 5.297 40.43C105 310.4 117.9 320 132.4 320H224c17.67 0 32 14.33 32 32c0 17.67-14.33 32-32 32h128v-32C352 340.1 353.6 330.3 356.6 319.1C356.5 320 356.6 319.9 356.6 319.1z" class="fa-secondary"/></svg>