<svg xmlns="http://www.w3.org/2000/svg" viewBox="0 0 576 512"><!--! Font Awesome Pro 6.2.0 by @fontawesome - https://fontawesome.com License - https://fontawesome.com/license (Commercial License) Copyright 2022 Fonticons, Inc. --><path d="M164.7 19.32L298.5 153.1L194.4 257.2C188.4 256.4 182.2 256 176 256C175.2 256 174.3 256 173.5 256L50.75 133.3C25.75 108.3 25.75 67.74 50.75 42.75L74.18 19.32C99.17-5.678 139.7-5.678 164.7 19.32V19.32zM384.6 467.1L319.1 402.5C319.1 401.7 320 400.8 320 400C320 393.8 319.6 387.6 318.8 381.6L422.9 277.5L498.5 353.2C505.3 359.9 510.2 368.2 512.8 377.4L542.5 481.4C544.9 489.8 542.6 498.8 536.4 504.1C530.2 511.1 521.2 513.5 512.8 511.1L408.8 481.4C399.7 478.7 391.3 473.8 384.6 467.1H384.6z" class="fa-secondary"/></svg>