<svg xmlns="http://www.w3.org/2000/svg" viewBox="0 0 512 512"><!--! Font Awesome Pro 6.2.0 by @fontawesome - https://fontawesome.com License - https://fontawesome.com/license (Commercial License) Copyright 2022 Fonticons, Inc. --><path d="M512 192C512 245 469 288 416 288H272C263.2 288 256 295.2 256 304V320C273.7 320 288 334.3 288 352V480C288 497.7 273.7 512 256 512H192C174.3 512 160 497.7 160 480V352C160 334.3 174.3 320 192 320V304C192 259.8 227.8 224 272 224H416C433.7 224 448 209.7 448 192V160C448 142.3 433.7 128 416 128V64C469 64 512 106.1 512 160V192z" class="fa-secondary"/></svg>