<svg xmlns="http://www.w3.org/2000/svg" viewBox="0 0 576 512"><!--! Font Awesome Pro 6.2.0 by @fontawesome - https://fontawesome.com License - https://fontawesome.com/license (Commercial License) Copyright 2022 Fonticons, Inc. --><path d="M205.2 291.9L284.1 370.8C284.2 370.8 284.2 370.9 284.2 371C286.7 380.3 288 389.1 288 400C288 461.9 237.9 512 176 512H32C14.33 512 0 497.7 0 480C0 462.3 14.33 448 32 448H36.81C54.44 448 66.4 429.1 64.59 411.6C64.2 407.8 64 403.9 64 400C64 338.1 114.1 288 176 288C186 288 195.8 289.3 205 291.8C205.1 291.8 205.2 291.8 205.2 291.9H205.2z" class="fa-secondary"/></svg>