<svg xmlns="http://www.w3.org/2000/svg" viewBox="0 0 576 512"><!--! Font Awesome Pro 6.2.0 by @fontawesome - https://fontawesome.com License - https://fontawesome.com/license (Commercial License) Copyright 2022 Fonticons, Inc. --><path d="M449.6 152.4C414.1 97.04 353.6 64 287.8 64C251.2 64 215.4 74.51 184.4 94.38C141.2 122.1 111.4 164.9 100.5 214.1C89.51 265.1 98.71 316.4 126.4 359.6C161.9 414.1 222.4 448 288.2 448c36.62 0 72.37-10.51 103.4-30.38c43.17-27.67 72.98-70.5 83.94-120.6C486.5 246.9 477.3 195.6 449.6 152.4zM288 88c35.28 0 64 28.7 64 64c0 4.422-3.594 8-8 8h-112c-4.406 0-8-3.578-8-8C224 116.7 252.7 88 288 88zM296 240c0 13.25-10.75 24-24 24s-24-10.75-24-24c0-13.26 10.75-24 24-24S296 226.7 296 240zM145.8 238.1c-7.781-7.812-7.781-20.47 0-28.28l32-32c7.812-7.812 20.5-7.812 28.31 0c7.781 7.812 7.781 20.47 0 28.28l-32 32C170.3 242 165.1 244 160 244S149.8 242 145.8 238.1zM272 416c-26.47 0-48-21.53-48-48v-25.38L197.5 316.1C194.6 318.3 191.3 319.6 187.9 319.6c-4.094 0-8.188-1.562-11.31-4.688c-6.25-6.234-6.25-16.38 0-22.62l19.69-19.7c6.25-6.25 16.38-6.25 22.62 0c5.732 5.717 5.949 14.59 1.166 20.87l26.55 26.55H272c26.47 0 48 21.53 48 48S298.5 416 272 416zM368 392c-13.25 0-24-10.75-24-24c0-13.26 10.75-24 24-24s24 10.74 24 24C392 381.3 381.3 392 368 392zM429.1 301.1c-12.59 12.58-29.12 18.88-45.66 18.88s-33.06-6.297-45.66-18.88c-1.5-1.5-2.344-3.531-2.344-5.656s.8438-4.156 2.344-5.656l80-80c3.094-3.094 8.156-3.156 11.31 0c12.19 12.19 18.91 28.41 18.91 45.66S441.3 288.9 429.1 301.1z" class="fa-secondary"/></svg>