<svg xmlns="http://www.w3.org/2000/svg" viewBox="0 0 512 512"><!--! Font Awesome Pro 6.2.0 by @fontawesome - https://fontawesome.com License - https://fontawesome.com/license (Commercial License) Copyright 2022 Fonticons, Inc. --><path d="M68.44 294.3C65.58 286.9 64 278.9 64 270.6V246.4C42.53 239.7 23.03 231.4 7.408 221.2C2.742 227.2 0 233.5 0 240C0 260.1 26.09 280 68.44 294.3zM64 212.8v-48.95C42.03 155.3 25.78 144.9 15.1 133.1C5.5 141.5 0 150.6 0 160C0 180.3 24.28 198.7 64 212.8zM512 160c0-9.426-5.488-18.43-15.07-26.83C455.2 179.2 337.8 189.2 288 191.3V224c0 5.34-.8516 10.45-2.09 15.41C413.2 234.8 512 201 512 160zM256 351.1c-76.1 0-189.4-12.06-248.6-50.78C2.742 307.2 0 313.5 0 320c0 44.18 114.6 79.1 256 79.1S512 364.2 512 320c0-6.488-2.742-12.76-7.408-18.8C445.4 339.9 332.1 351.1 256 351.1zM256 431.1c-76.1 0-189.4-12.05-248.6-50.77C2.742 387.2 0 393.5 0 400c0 44.18 114.6 80 256 80s256-35.82 256-80c0-6.488-2.742-12.76-7.408-18.8C445.4 419.9 332.1 431.1 256 431.1zM266.1 271.8C254.8 281.8 240.2 287.1 224 287.1c-2.037 0-4.1-.0957-6.176-.293C208.3 286.8 199.4 283.7 191.6 278.1C190.1 293.2 183.7 305.9 174.3 315.8C199.1 318.5 227.4 319.1 256 319.1c141.4 0 256-35.81 256-79.99c0-6.488-2.742-12.76-7.408-18.8C447.9 258.3 341.9 270.8 266.1 271.8z" class="fa-secondary"/></svg>