<svg xmlns="http://www.w3.org/2000/svg" viewBox="0 0 512 512"><!--! Font Awesome Pro 6.2.0 by @fontawesome - https://fontawesome.com License - https://fontawesome.com/license (Commercial License) Copyright 2022 Fonticons, Inc. --><path d="M498.1 5.6c10.1 7 15.4 19.1 13.5 31.2l-64 416c-1.5 9.7-7.4 18.2-16 23s-18.9 5.4-28 1.6L224 402.7V389.4L380.7 185.8c5.2-6.7 4.2-16.4-2.3-21.9s-16.1-5.1-22 1.1L178.8 350.6l-14.1 14.1c-3 3-4.7 7.1-4.7 11.3l-28.3-11.8-112-46.7C8.4 312.8 .8 302.2 .1 290s5.5-23.7 16.1-29.8l448-256c10.7-6.1 23.9-5.5 34 1.4z" class="fa-secondary"/></svg>