<svg xmlns="http://www.w3.org/2000/svg" viewBox="0 0 448 512"><!--! Font Awesome Pro 6.2.0 by @fontawesome - https://fontawesome.com License - https://fontawesome.com/license (Commercial License) Copyright 2022 Fonticons, Inc. --><path d="M224 64C153.3 64 96 121.3 96 192s57.25 128 128 128s128-57.25 128-128S294.8 64 224 64zM318.4 176h-39.13c-1.5-27-6.5-51.38-14.12-70.38C292.8 118.9 313.1 144.8 318.4 176zM129.6 208h39.13c1.5 27 6.5 51.38 14.12 70.38C155.3 265.1 134.9 239.3 129.6 208zM168.8 176H129.6c5.25-31.25 25.62-57.13 53.25-70.38C175.3 124.6 170.3 149 168.8 176zM224 286.8C216.3 279.3 203.3 252.3 200.5 208h46.84C244.8 252.3 231.8 279.3 224 286.8zM200.6 176C203.2 131.8 216.3 104.8 224 97.25C231.8 104.8 244.7 131.8 247.5 176H200.6zM265.1 278.4C272.8 259.4 277.8 235 279.3 208h39.13C313.1 239.3 292.8 265.1 265.1 278.4z" class="fa-secondary"/></svg>