<svg xmlns="http://www.w3.org/2000/svg" viewBox="0 0 512 512"><!--! Font Awesome Pro 6.2.0 by @fontawesome - https://fontawesome.com License - https://fontawesome.com/license (Commercial License) Copyright 2022 Fonticons, Inc. --><path d="M320 0L373.1 58.4C390.4 77.45 400 102.3 400 128C400.2 139.3 398.5 151.2 394.5 163.1C380.2 206 342.4 232.2 310.1 221.7C277.8 211.1 263.2 167.7 277.5 124.9C285.7 100.2 301.7 81.02 320 71.23L320 0zM226.5 124.9C240.8 167.7 226.2 211.1 193.9 221.7C161.6 232.2 123.8 206 109.5 163.1C105.5 151.2 103.8 139.3 104 128C104 102.3 113.6 77.45 130.9 58.4L183.1 0V71.23C202.3 81.02 218.3 100.2 226.5 124.9H226.5zM11.63 281.4C3.718 267.8-.0723 253.3 0 240V236.8C0 223.3 4.285 210.1 12.24 199.2L64 128V196.8C77.93 202.1 91.11 214.7 100.4 230.6C119.2 263 114.7 300.7 90.16 314.7C65.65 328.8 30.49 313.9 11.63 281.4V281.4zM421.8 314.7C397.3 300.7 392.8 263 411.6 230.6C420.9 214.7 434.1 202.1 448 196.8V127.1L499.8 199.2C507.7 210.1 512 223.3 512 236.8V239.1C512.1 253.3 508.3 267.8 500.4 281.4C481.5 313.9 446.3 328.8 421.8 314.7V314.7z" class="fa-secondary"/></svg>