<svg xmlns="http://www.w3.org/2000/svg" viewBox="0 0 448 512"><!--! Font Awesome Pro 6.2.0 by @fontawesome - https://fontawesome.com License - https://fontawesome.com/license (Commercial License) Copyright 2022 Fonticons, Inc. --><path d="M96 80C96 53.49 117.5 32 144 32C170.5 32 192 53.49 192 80C192 106.5 170.5 128 144 128C117.5 128 96 106.5 96 80zM256 80C256 53.49 277.5 32 304 32C330.5 32 352 53.49 352 80C352 106.5 330.5 128 304 128C277.5 128 256 106.5 256 80zM448 192C448 218.5 426.5 240 400 240C373.5 240 352 218.5 352 192C352 165.5 373.5 144 400 144C426.5 144 448 165.5 448 192zM0 192C0 165.5 21.49 144 48 144C74.51 144 96 165.5 96 192C96 218.5 74.51 240 48 240C21.49 240 0 218.5 0 192z" class="fa-secondary"/></svg>