<svg xmlns="http://www.w3.org/2000/svg" viewBox="0 0 640 512"><!--! Font Awesome Pro 6.2.0 by @fontawesome - https://fontawesome.com License - https://fontawesome.com/license (Commercial License) Copyright 2022 Fonticons, Inc. --><path d="M638.2 79.27c-1.264-41.37-36.15-76.26-77.52-77.52c0 0-58.3-1.752-60.09-1.752c-84.2 0-151.4 60.65-161.4 141.7c-7.943 64.34-68.28 69.4-69.56 69.56c-81.04 9.976-141.7 77.19-141.7 161.4c0 1.786 .0273 3.58 .0823 5.381l1.672 54.71c1.264 41.37 36.15 76.26 77.52 77.52c0 0 58.3 1.754 60.08 1.754c84.2 0 151.4-60.65 161.4-141.7c7.944-64.35 68.27-69.4 69.56-69.55C579.3 290.8 640 223.6 640 139.4c0-1.786-.0273-3.58-.0823-5.381L638.2 79.27zM255.9 436c-11.03 0-20-8.969-20-20s8.973-20 20-20s20 8.969 20 20S266.1 436 255.9 436zM319.9 436c-11.03 0-20-8.969-20-20s8.972-20 20-20s20 8.969 20 20S330.1 436 319.9 436zM319.9 372c-11.03 0-20-8.969-20-20s8.972-19.1 20-19.1s20 8.968 20 19.1S330.1 372 319.9 372zM479.1 212c-11.03 0-20-8.969-20-20s8.971-20 20-20s20 8.969 20 20S490.1 212 479.1 212zM543.1 212c-11.03 0-20-8.969-20-20s8.972-20 20-20s20 8.969 20 20S555 212 543.1 212zM543.1 148c-11.03 0-20-8.969-20-20s8.972-20 20-20s20 8.969 20 20S555 148 543.1 148z" class="fa-secondary"/></svg>