<svg xmlns="http://www.w3.org/2000/svg" viewBox="0 0 512 512"><!--! Font Awesome Pro 6.2.0 by @fontawesome - https://fontawesome.com License - https://fontawesome.com/license (Commercial License) Copyright 2022 Fonticons, Inc. --><path d="M128 327.1c-30.94 0-56 25.06-56 56c0 30.93 25.06 56 56 56c30.93 0 56-25.07 56-56C184 353.1 158.9 327.1 128 327.1zM384 71.1C353.1 71.1 328 97.06 328 128c0 30.93 25.07 56 56 56C414.9 184 440 158.9 440 128C440 97.06 414.9 71.1 384 71.1zM256 199.1C225.1 199.1 200 225.1 200 256S225.1 312 256 312S312 286.9 312 256S286.9 199.1 256 199.1z" class="fa-secondary"/></svg>