<svg xmlns="http://www.w3.org/2000/svg" viewBox="0 0 448 512"><!--! Font Awesome Pro 6.2.0 by @fontawesome - https://fontawesome.com License - https://fontawesome.com/license (Commercial License) Copyright 2022 Fonticons, Inc. --><path d="M352 0H96C60.65 0 32 28.65 32 64v384h384V64C416 28.65 387.3 0 352 0zM112 96C103.2 96 96 88.84 96 80C96 71.16 103.2 64 112 64S128 71.16 128 80C128 88.84 120.8 96 112 96zM336 96C327.2 96 320 88.84 320 80C320 71.16 327.2 64 336 64S352 71.16 352 80C352 88.84 344.8 96 336 96z" class="fa-secondary"/></svg>