<svg xmlns="http://www.w3.org/2000/svg" viewBox="0 0 640 512"><!--! Font Awesome Pro 6.2.0 by @fontawesome - https://fontawesome.com License - https://fontawesome.com/license (Commercial License) Copyright 2022 Fonticons, Inc. --><path d="M264.3 181.8L355.7 90.34L485.7 220.3L409.9 296L264.3 181.8zM122.6 323.5L195.8 250.3L341.2 364.8L252.5 453.4C242.1 463.8 229.2 471.5 215.1 475.6L94.77 511C86.35 513.5 77.24 511.2 71.03 504.1C64.82 498.8 62.5 489.7 64.98 481.2L100.4 360.9C104.5 346.8 112.2 333.9 122.6 323.5L122.6 323.5zM426.7 19.32C451.7-5.678 492.3-5.678 517.3 19.32L556.7 58.75C581.7 83.74 581.7 124.3 556.7 149.3L508.3 197.7L378.3 67.72L426.7 19.32z" class="fa-secondary"/></svg>