<svg xmlns="http://www.w3.org/2000/svg" viewBox="0 0 640 512"><!--! Font Awesome Pro 6.2.0 by @fontawesome - https://fontawesome.com License - https://fontawesome.com/license (Commercial License) Copyright 2022 Fonticons, Inc. --><path d="M287.1 199.7L437.5 27.11C452.5 9.885 474.2 0 497 0C540.6 0 576 35.36 576 78.98C576 101.8 566.1 123.5 548.9 138.5L387.9 278.7L287.1 199.7zM299.9 425.1C295.9 442.2 282.9 455.8 266 460.5L88.35 510.3L183.7 414.9C186.4 415.6 189.1 416 192 416C209.7 416 224 401.7 224 384C224 366.3 209.7 352 192 352C174.3 352 160 366.3 160 384C160 386.9 160.4 389.6 161.1 392.3L65.72 487.6L115.5 309.1C120.2 293.1 133.8 280.1 150.9 276.1L211 262.3L317.1 346.5L299.9 425.1z" class="fa-secondary"/></svg>