<svg xmlns="http://www.w3.org/2000/svg" viewBox="0 0 512 512"><!--! Font Awesome Pro 6.2.0 by @fontawesome - https://fontawesome.com License - https://fontawesome.com/license (Commercial License) Copyright 2022 Fonticons, Inc. --><path d="M0 160C0 106.1 42.98 64 96 64H192C209.7 64 224 78.33 224 96C224 113.7 209.7 128 192 128H96C78.33 128 64 142.3 64 160V416C64 433.7 78.33 448 96 448H352C369.7 448 384 433.7 384 416V320C384 302.3 398.3 288 416 288C433.7 288 448 302.3 448 320V416C448 469 405 512 352 512H96C42.98 512 0 469 0 416V160z" class="fa-secondary"/></svg>