<svg xmlns="http://www.w3.org/2000/svg" viewBox="0 0 640 512"><!--! Font Awesome Pro 6.2.0 by @fontawesome - https://fontawesome.com License - https://fontawesome.com/license (Commercial License) Copyright 2022 Fonticons, Inc. --><path d="M0 208C0 163.8 35.82 128 80 128H272C289.7 128 304 142.3 304 160C304 177.7 289.7 192 272 192H80C71.16 192 64 199.2 64 208V432C64 440.8 71.16 448 80 448H496C504.8 448 512 440.8 512 432V304C512 286.3 526.3 272 544 272C561.7 272 576 286.3 576 304V432C576 476.2 540.2 512 496 512H80C35.82 512 0 476.2 0 432V208z" class="fa-secondary"/></svg>