<svg xmlns="http://www.w3.org/2000/svg" viewBox="0 0 640 512"><!--! Font Awesome Pro 6.2.0 by @fontawesome - https://fontawesome.com License - https://fontawesome.com/license (Commercial License) Copyright 2022 Fonticons, Inc. --><path d="M128 0C101.5 0 80.01 21.5 80.01 47.1s21.5 47.1 47.1 47.1s47.1-21.5 47.1-47.1S154.5 0 128 0zM511.1 0c-26.5 0-48 21.5-48 47.1s21.5 47.1 47.1 47.1s47.1-21.5 47.1-47.1S538.5 0 511.1 0zM415.1 144c0-8.75-7.25-16-16-16H240c-8.75 0-16 7.25-16 16L224 315.4C228.6 317.9 235.3 319.5 240 319.9h159.1C404.7 319.5 411.4 317.9 416 315.4L415.1 144z" class="fa-secondary"/></svg>