<svg xmlns="http://www.w3.org/2000/svg" viewBox="0 0 640 512"><!--! Font Awesome Pro 6.2.0 by @fontawesome - https://fontawesome.com License - https://fontawesome.com/license (Commercial License) Copyright 2022 Fonticons, Inc. --><path d="M64 96C64 60.65 92.65 32 128 32C163.3 32 192 60.65 192 96C192 131.3 163.3 160 128 160C92.65 160 64 131.3 64 96zM192 394.5V448C192 465.7 177.7 480 160 480H96C78.33 480 64 465.7 64 448V405.2C26.16 387.2 0 348.7 0 304C0 242.1 50.14 192 112 192H144C163.7 192 182.3 197.1 198.4 206.1C174.6 231.8 160 266.2 160 304C160 338.3 171.1 369.8 192 394.5zM64 346.3V261.7C54.04 272.9 48 287.8 48 304C48 320.2 54.04 335.1 64 346.3zM448 394.5C468 369.8 480 338.3 480 304C480 266.2 465.4 231.8 441.6 206.1C457.7 197.1 476.3 192 496 192H528C589.9 192 640 242.1 640 304C640 348.7 613.8 387.2 576 405.2V448C576 465.7 561.7 480 544 480H480C462.3 480 448 465.7 448 448V394.5zM592 304C592 287.8 585.1 272.9 576 261.7V346.3C585.1 335 592 320.2 592 304zM448 96C448 60.65 476.7 32 512 32C547.3 32 576 60.65 576 96C576 131.3 547.3 160 512 160C476.7 160 448 131.3 448 96z" class="fa-secondary"/></svg>