<svg xmlns="http://www.w3.org/2000/svg" viewBox="0 0 576 512"><!--! Font Awesome Pro 6.2.0 by @fontawesome - https://fontawesome.com License - https://fontawesome.com/license (Commercial License) Copyright 2022 Fonticons, Inc. --><path d="M32 48C32 21.49 53.49 0 80 0C106.5 0 128 21.49 128 48C128 74.51 106.5 96 80 96C53.49 96 32 74.51 32 48V48zM118.3 128C130.1 128 143.5 130.5 155.2 135.4L289.3 191.2C283.9 198.1 279.4 207.4 275.8 216.3L274.3 220.1C267.8 236.4 275.5 254.8 291.6 261.5L173.3 212.2L231.2 473.1C235.1 490.3 224.2 507.4 206.9 511.2C189.7 515.1 172.6 504.2 168.8 486.9L138.8 352H123.1L143.6 474.7C146.5 492.2 134.7 508.7 117.3 511.6C99.83 514.5 83.34 502.7 80.44 485.3L56.35 340.8C50.48 347.6 41.75 352 32 352C14.33 352 0 337.7 0 320V192C0 156.7 28.65 128 64 128H118.3zM333.6 244.1C333.7 244 333.7 243.1 333.7 243.9L333.7 243.8C333.7 243.9 333.7 243.1 333.6 244.1z" class="fa-secondary"/></svg>