<svg xmlns="http://www.w3.org/2000/svg" viewBox="0 0 576 512"><!--! Font Awesome Pro 6.2.0 by @fontawesome - https://fontawesome.com License - https://fontawesome.com/license (Commercial License) Copyright 2022 Fonticons, Inc. --><path d="M400 127.1C441.7 127.1 478.1 99.59 488.2 59.1L496.1 24.24C501.2 7.093 518.6-3.331 535.8 .9552C552.9 5.242 563.3 22.62 559 39.76L550.3 74.63C539.3 118.6 510.1 154.2 472 174.3V480C472 497.7 457.7 512 440 512C422.3 512 408 497.7 408 480V352H392V480C392 497.7 377.7 512 360 512C342.3 512 328 497.7 328 480V174.3C289.9 154.2 260.7 118.6 249.7 74.63L240.1 39.76C236.7 22.62 247.1 5.242 264.2 .9552C281.4-3.331 298.8 7.093 303 24.24L311.8 59.1C321.9 99.59 358.3 127.1 400 127.1H400zM448 47.1C448 74.51 426.5 95.1 400 95.1C373.5 95.1 352 74.51 352 47.1C352 21.49 373.5-.0006 400-.0006C426.5-.0006 448 21.49 448 47.1V47.1z" class="fa-secondary"/></svg>