<svg xmlns="http://www.w3.org/2000/svg" viewBox="0 0 512 512"><!--! Font Awesome Pro 6.2.0 by @fontawesome - https://fontawesome.com License - https://fontawesome.com/license (Commercial License) Copyright 2022 Fonticons, Inc. --><path d="M511.1 469.1c0-12.73-10.17-23.95-23.89-23.95c-19 0-19.16 19.11-46.15 19.11c-5.476 0-10.89-1.101-15.87-3.389L35.95 258.8C32.18 256.6 28.05 255.5 23.98 255.5c-9.602 0-23.98 7.503-23.98 23.99c0 6.176 2.88 16.75 13.99 21.85l390.1 202.5c11.55 5.339 24.37 8.119 37.08 8.119l0 0C480.7 512 511.1 486.8 511.1 469.1zM94.63 68.6C94.63 68.6 94.63 68.6 94.63 68.6C94.63 68.6 94.63 68.6 94.63 68.6C94.63 68.6 94.63 68.6 94.63 68.6C94.63 68.6 94.63 68.6 94.63 68.6l26.16 23.01L109.3 114.1c5.604 2.858 11.68 4.258 17.71 4.258c8.954 0 17.83-3.081 25-9.059l215.9 109.8c-7.453-5.791-13.14-13.71-16.1-22.68l-10.75-28.99l-175.5-87c.0122-.398 .0182-.7953 .0182-1.192c0-14.44-8.025-27.73-20.88-34.42L133.7 66.51l-34.53-7.002c-.3626-.0796-.6031-.0793-.9653-.0793c-3.565 0-5.318 3.168-5.318 5.223C92.85 67.26 94.63 68.55 94.63 68.6z" class="fa-secondary"/></svg>