<svg xmlns="http://www.w3.org/2000/svg" viewBox="0 0 512 512"><!--! Font Awesome Pro 6.2.0 by @fontawesome - https://fontawesome.com License - https://fontawesome.com/license (Commercial License) Copyright 2022 Fonticons, Inc. --><path d="M150.6 191.1C141.1 178.6 142.6 161.7 152.9 150.5C140.3 61.81 112.4 0 80 0C35.82 0 0 114.6 0 255.1c0 141.4 35.82 255.1 80 255.1c25.25 0 47.72-37.53 62.39-96L128 415.1c-17.64-.0215-31.96-14.34-31.98-31.98c-.0215-17.67 14.31-32 31.98-32.02l26.13 .002C158.1 320.2 160 288.1 160 255.1c0-20.22-.8359-39.78-2.223-58.64C155.1 195.6 152.7 193.5 150.6 191.1zM368 0c-26.51 0-48.01 21.49-48.01 48c0 0 0-.002 0 0C320 74.51 341.5 96 368 96s48-21.49 48-47.1S394.6 0 368 0z" class="fa-secondary"/></svg>