<svg xmlns="http://www.w3.org/2000/svg" viewBox="0 0 640 512"><!--! Font Awesome Pro 6.2.0 by @fontawesome - https://fontawesome.com License - https://fontawesome.com/license (Commercial License) Copyright 2022 Fonticons, Inc. --><path d="M288 48C288 74.51 266.5 96 240 96C213.5 96 192 74.51 192 48C192 21.49 213.5 0 240 0C266.5 0 288 21.49 288 48zM106.7 220.6L141.1 154.1C153.1 133.1 174.8 120 198.5 120H199.4C215.3 120 230.5 125.9 242.3 136.4L304 192H360L312 256H298.5C281.5 256 265.3 249.3 253.3 237.3L224 208L192 256L264 288H112C97.35 268.5 95.29 242.2 106.7 220.6L106.7 220.6zM450 416H480L500 402.7L546 464H566.1L599 431C608.4 421.7 623.6 421.7 632.1 431C642.3 440.4 642.3 455.6 632.1 464.1L592.1 504.1C588.5 509.5 582.4 512 576 512H440C426.7 512 416 501.3 416 488C416 474.7 426.7 464 440 464H486L450 416zM0 464C0 437.5 21.49 416 48 416H272C298.5 416 320 437.5 320 464C320 490.5 298.5 512 272 512H48C21.49 512 0 490.5 0 464z" class="fa-secondary"/></svg>