<svg xmlns="http://www.w3.org/2000/svg" viewBox="0 0 576 512"><!--! Font Awesome Pro 6.2.0 by @fontawesome - https://fontawesome.com License - https://fontawesome.com/license (Commercial License) Copyright 2022 Fonticons, Inc. --><path d="M336 512H144V337.7L90.44 428.3C79.21 447.4 54.68 453.7 35.66 442.4C16.64 431.2 10.33 406.7 21.57 387.7L97.7 258.8C122.2 217.4 166.7 192 214.8 192H265.2C290.6 192 315 199.1 336 211.9L336 512zM160 80C160 35.82 195.8 0 240 0C284.2 0 320 35.82 320 80C320 124.2 284.2 160 240 160C195.8 160 160 124.2 160 80z" class="fa-secondary"/></svg>