<svg xmlns="http://www.w3.org/2000/svg" viewBox="0 0 512 512"><!--! Font Awesome Pro 6.2.0 by @fontawesome - https://fontawesome.com License - https://fontawesome.com/license (Commercial License) Copyright 2022 Fonticons, Inc. --><path d="M496 481.1c0-18.62-17.14-23.96-24.06-23.96c-3.388 0-6.715 .7166-9.998 2.248c-.0004 0 0 .0001 0 0c0-.0002-.0003 0 0 0c.0001 0 0-.0001 0 0c0 .0001 .0004-.0004 0 0c-5.172 2.437-10.85 3.662-16.49 3.662c-4.463 0-8.887-.7627-13.13-2.324L67.6 328.9C41.34 319.4 48.8 295 23.97 295c-18.84 0-23.97 17.37-23.97 24.09c0 8.423 13.33 41.29 51.13 54.88l364.1 132.8C418.1 507.8 430.4 512 445.7 512C454.7 512 496 509.4 496 481.1z" class="fa-secondary"/></svg>