<svg xmlns="http://www.w3.org/2000/svg" viewBox="0 0 512 512"><!--! Font Awesome Pro 6.2.0 by @fontawesome - https://fontawesome.com License - https://fontawesome.com/license (Commercial License) Copyright 2022 Fonticons, Inc. --><path d="M501.5 66.65l-67.7-24.63L439.2 27c3-8.25-1.25-17.5-9.498-20.5l-15-5.5c-8.375-3-17.5 1.25-20.5 9.625L388.7 25.65l-67.63-24.62c-8.375-3-17.5 1.219-20.5 9.594l-43.87 120.3c-3 8.375 1.375 17.5 9.625 20.5l67.62 24.62l-46.08 126.9c-3 8.375 1.331 17.51 9.706 20.51l14.92 5.495c8.25 3 17.5-1.25 20.5-9.625l44.4-127.5l69.39 25.24c8.375 3 17.5-1.25 20.5-9.625l43.66-120.2C514.1 78.77 509.7 69.77 501.5 66.65zM143.1 .021c-26.38 0-47.1 21.51-47.1 48.01s21.5 48 47.1 48S191.1 74.53 191.1 48.03S170.4 .021 143.1 .021z" class="fa-secondary"/></svg>