<svg xmlns="http://www.w3.org/2000/svg" viewBox="0 0 512 512"><!--! Font Awesome Pro 6.2.0 by @fontawesome - https://fontawesome.com License - https://fontawesome.com/license (Commercial License) Copyright 2022 Fonticons, Inc. --><path d="M331.2 360.6c2.25 8.502 11.13 13.63 19.63 11.25l117-31.26c8.502-2.25 13.5-11.13 11.25-19.63l-31.38-116.9c-2.377-8.502-11.13-13.63-19.63-11.25L311.1 224.1c-8.502 2.25-13.63 11.13-11.25 19.63L331.2 360.6zM503.5 373.8c-1.125-4.252-5.5-6.752-9.752-5.627l-154.2 41.26c-9.752-12.88-24.26-21.88-40.88-24.51l-59.39-221.7C238.2 159 233.8 156.5 229.4 157.7L198.5 165.9C194.3 167 191.8 171.4 192.8 175.8l59.01 220c-19.83 13.82-31.36 38.47-25.9 65.5c4.867 24.11 24.57 44.13 48.65 49.18c38.95 8.166 72.72-18.62 77.28-54.66l154.2-41.26c4.375-1.125 6.876-5.5 5.751-9.752L503.5 373.8zM288.7 463.1c-8.877 0-16-7.127-16-16c0-8.752 7.127-16 16-16c8.752 0 16 7.252 16 16C304.7 456.9 297.6 463.1 288.7 463.1zM80.01 0C53.38 0 32 21.5 32 48.01s21.5 48.01 48.01 48.01c26.51 0 48.01-21.5 48.01-48.01S106.6 0 80.01 0z" class="fa-secondary"/></svg>