<svg xmlns="http://www.w3.org/2000/svg" viewBox="0 0 576 512"><!--! Font Awesome Pro 6.2.0 by @fontawesome - https://fontawesome.com License - https://fontawesome.com/license (Commercial License) Copyright 2022 Fonticons, Inc. --><path d="M544.3 429.1c-9.498 0-39.52-7.265-64.24-21.83C460.6 418.8 428.6 431.9 384 431.9c-44.53 0-76.47-13.06-96-24.59C268.5 418.9 236.6 431.1 192 431.1s-76.53-13.16-96.03-24.69c-24.6 14.5-54.49 21.84-64.26 21.84c-18.94 0-31.71-15.99-31.71-32.07c0-39.54 44.73-25.83 73.75-52.08c6.264-5.876 14.31-8.901 22.38-8.901c8.156 0 16.34 3.088 22.46 9.245C119.3 345.9 143.4 367.9 192 367.9c64.61 0 71.45-31.81 96.2-31.81c8.16 0 16.28 3.031 22.42 9.188C311.3 345.9 335.4 367.9 384 367.9c64.99 0 71.17-31.79 96.18-31.79c24.1 0 21.08 20.59 69.6 29.48c15.43 2.83 26.25 16.28 26.25 31.42C576 413.3 563.2 429.1 544.3 429.1z" class="fa-secondary"/></svg>