<svg xmlns="http://www.w3.org/2000/svg" viewBox="0 0 640 512"><!--! Font Awesome Pro 6.2.0 by @fontawesome - https://fontawesome.com License - https://fontawesome.com/license (Commercial License) Copyright 2022 Fonticons, Inc. --><path d="M256 384C256 454.7 198.7 512 128 512C57.31 512 0 454.7 0 384C0 313.3 57.31 256 128 256C198.7 256 256 313.3 256 384zM128 312C88.24 312 56 344.2 56 384C56 423.8 88.24 456 128 456C167.8 456 200 423.8 200 384C200 344.2 167.8 312 128 312zM640 384C640 454.7 582.7 512 512 512C441.3 512 384 454.7 384 384C384 313.3 441.3 256 512 256C582.7 256 640 313.3 640 384zM512 312C472.2 312 440 344.2 440 384C440 423.8 472.2 456 512 456C551.8 456 584 423.8 584 384C584 344.2 551.8 312 512 312z" class="fa-secondary"/></svg>