<svg xmlns="http://www.w3.org/2000/svg" viewBox="0 0 576 512"><!--! Font Awesome Pro 6.2.0 by @fontawesome - https://fontawesome.com License - https://fontawesome.com/license (Commercial License) Copyright 2022 Fonticons, Inc. --><path d="M575.8 443.7c0-15.56-7.674-27.62-23.78-27.67c-13.25 0-24 10.75-24 24c-.0391 13.24-10.76 23.96-24 24h-69.5L460 285.6c-3.798 1.539-7.869 2.284-11.97 2.284C448 287.9 427.3 288 427.3 288l-25.16 176H99.5l52.21-260.9C149.2 203.7 146.7 203.1 144.1 203.1c-8.653 0-17.17-3.477-23.29-9.903L66.88 464H24C10.75 464 0 474.7 0 488S10.75 512 24 512h480C550.3 511.9 575.8 472 575.8 443.7z" class="fa-secondary"/></svg>