<svg xmlns="http://www.w3.org/2000/svg" viewBox="0 0 640 512"><!--! Font Awesome Pro 6.2.0 by @fontawesome - https://fontawesome.com License - https://fontawesome.com/license (Commercial License) Copyright 2022 Fonticons, Inc. --><path d="M624 0h-96C519.2 0 512 7.162 512 16v42.81c0 3.439 .5547 6.855 1.643 10.12l40.79 122.4L253.8 244.1c-.002-.0039 .002 .0039 0 0C255.1 248.4 256 252.1 256 256c0 17.67-14.33 32-32 32L192 287.1v208C192 504.8 199.2 512 208 512h32C248.8 512 256 504.8 256 496V384h320v112c0 8.836 7.164 16 16 16h32c8.836 0 16-7.164 16-15.1V16C640 7.162 632.8 0 624 0zM80 95.1c26.5 0 48-21.5 48-47.1c0-26.5-21.5-47.1-48-47.1S32 21.5 32 47.1C32 74.5 53.5 95.1 80 95.1zM280 328C266.7 328 256 317.3 256 304c0-13.26 10.75-24 24-24S304 290.7 304 304C304 317.3 293.3 328 280 328z" class="fa-secondary"/></svg>