<svg xmlns="http://www.w3.org/2000/svg" viewBox="0 0 576 512"><!--! Font Awesome Pro 6.2.0 by @fontawesome - https://fontawesome.com License - https://fontawesome.com/license (Commercial License) Copyright 2022 Fonticons, Inc. --><path d="M384 240C384 213.5 405.5 192 432 192C458.5 192 480 213.5 480 240C480 266.5 458.5 288 432 288C405.5 288 384 266.5 384 240zM576 344V446.1C576 482.5 546.5 512 510.1 512C492.6 512 475.8 505.1 463.4 492.7L408.8 438L380.6 494.3C372.7 510.1 353.5 516.5 337.7 508.6C321.9 500.7 315.5 481.5 323.4 465.7L371.4 369.7C375.1 360.5 384.7 354.1 394.9 352.4C405 350.8 415.4 354.1 422.6 361.4L464 402.7V344C464 313.1 489.1 288 520 288C550.9 288 576 313.1 576 344z" class="fa-secondary"/></svg>