<svg xmlns="http://www.w3.org/2000/svg" viewBox="0 0 640 512"><!--! Font Awesome Pro 6.2.0 by @fontawesome - https://fontawesome.com License - https://fontawesome.com/license (Commercial License) Copyright 2022 Fonticons, Inc. --><path d="M419.2 313.6L382.1 265.3L384.2 247.6L365.8 244.8C351.2 231.5 332.1 223.1 312 223.1H292.6C292.6 223.7 292.5 223.4 292.4 223.2C290.1 216.8 293.5 210.1 298.9 206.4L364.5 161.3L325 92.18C321.8 86.49 322.3 79.39 326.4 74.27C330.5 69.14 337.3 67.03 343.6 68.93L419.7 92.05L449.1 18.09C451.6 11.1 457.4 8 464 8C470.6 8 476.5 11.1 478.9 18.09L508.3 92.05L584.5 68.93C590.7 67.03 597.5 69.14 601.6 74.27C605.7 79.39 606.2 86.49 602.1 92.18L563.5 161.3L629.1 206.4C634.5 210.1 637 216.8 635.6 223.2C634.1 229.6 628.9 234.4 622.4 235.4L543.8 247.6L549.4 327C549.8 333.6 546.3 339.7 540.4 342.6C534.5 345.4 527.4 344.4 522.6 339.9L464 286.1L424.7 322.2C423.1 319.3 421.3 316.4 419.2 313.6L419.2 313.6z" class="fa-secondary"/></svg>