<svg xmlns="http://www.w3.org/2000/svg" viewBox="0 0 512 512"><!--! Font Awesome Pro 6.2.0 by @fontawesome - https://fontawesome.com License - https://fontawesome.com/license (Commercial License) Copyright 2022 Fonticons, Inc. --><path d="M320 96C320 60.65 348.7 32 384 32C419.3 32 448 60.65 448 96C448 131.3 419.3 160 384 160C348.7 160 320 131.3 320 96V96zM416 192C451.3 192 480 220.7 480 256V288C480 305.7 465.7 320 448 320H320C302.3 320 288 305.7 288 288V256C288 220.7 316.7 192 352 192H416zM296.2 413.9L360.2 357.9C370.2 349.2 385.3 350.2 394.1 360.2C402.8 370.2 401.8 385.3 391.8 394.1L375.9 407.1L488 407.1C501.3 407.1 512 418.7 512 431.1C512 445.2 501.3 455.1 488 455.1L375.9 455.1L391.8 469.9C401.8 478.7 402.8 493.8 394.1 503.8C385.3 513.8 370.2 514.8 360.2 506.1L296.2 450.1C290.1 445.5 288 438.9 288 431.1C288 425.1 290.1 418.5 296.2 413.9L296.2 413.9z" class="fa-secondary"/></svg>