<svg xmlns="http://www.w3.org/2000/svg" viewBox="0 0 448 512"><!--! Font Awesome Pro 6.2.0 by @fontawesome - https://fontawesome.com License - https://fontawesome.com/license (Commercial License) Copyright 2022 Fonticons, Inc. --><path d="M144 96c26.51 0 47.1-21.49 47.1-48S170.5 0 144 0S96.01 21.49 96.01 48S117.5 96 144 96zM248 384H159.7c-30.78 0-57.23-21.97-62.91-52.22L63.46 154.1C60.19 136.7 43.52 125.3 26.11 128.6C8.739 131.8-2.698 148.5 .5523 165.9l33.31 177.7C45.21 404.1 98.11 448 159.7 448h88.34c17.67 0 31.1-14.31 31.1-32S265.7 384 248 384z" class="fa-secondary"/></svg>