<svg xmlns="http://www.w3.org/2000/svg" viewBox="0 0 448 512"><!--! Font Awesome Pro 6.2.0 by @fontawesome - https://fontawesome.com License - https://fontawesome.com/license (Commercial License) Copyright 2022 Fonticons, Inc. --><path d="M399.1 448c-8.752 0-16 7.25-16 16S376.7 480 367.1 480h-96.01c-8.75 0-16 7.25-16 16s7.252 16 16 16h96.01c26.5 0 48.01-21.5 48.01-48C415.1 455.3 408.7 448 399.1 448zM129.1 451.9c-11.34 0-11.2 9.36-22.65 9.36c-4.074 0-8.163-1.516-11.21-4.625l-67.98-67.89c-3.063-3.125-7.165-4.688-11.27-4.688c-4.102 0-8.203 1.562-11.27 4.688C1.563 391.8-.0001 395.9-.0001 400s1.563 8.203 4.688 11.27l67.88 67.98c9.377 9.375 21.59 14 33.96 14c13.23 0 38.57-8.994 38.57-25.36C145.1 456.7 135.2 451.9 129.1 451.9z" class="fa-secondary"/></svg>