<svg xmlns="http://www.w3.org/2000/svg" viewBox="0 0 448 512"><!--! Font Awesome Pro 6.2.0 by @fontawesome - https://fontawesome.com License - https://fontawesome.com/license (Commercial License) Copyright 2022 Fonticons, Inc. --><path d="M160 288C177.7 288 192 302.3 192 320V356.8C217.4 386.5 252.8 406.1 291.7 411.6L292.5 411.7C283.3 431.3 288.4 455.4 306 469.5C312.4 474.6 319.7 477.8 327.2 479.2C323.4 480.1 319.5 480.3 315.5 479.7L282.7 474.1C273.5 473.7 264.5 471.8 255.7 469.4C257.9 449.1 248 430.3 229.5 421.1L128.1 370.4C128 369.6 128 368.8 128 368V320C128 302.3 142.3 288 160 288H160zM320 332C320 356.3 300.3 376 276 376C251.7 376 232 356.3 232 332C232 307.7 251.7 288 276 288C300.3 288 320 307.7 320 332z" class="fa-secondary"/></svg>