<svg xmlns="http://www.w3.org/2000/svg" viewBox="0 0 640 512"><!--! Font Awesome Pro 6.2.0 by @fontawesome - https://fontawesome.com License - https://fontawesome.com/license (Commercial License) Copyright 2022 Fonticons, Inc. --><path d="M144 48C144 21.49 165.5 0 192 0C218.5 0 240 21.49 240 48C240 74.51 218.5 96 192 96C165.5 96 144 74.51 144 48zM120 448V256.9L91.43 304.5C82.33 319.6 62.67 324.5 47.52 315.4C32.37 306.3 27.47 286.7 36.57 271.5L94.85 174.6C112.2 145.7 143.4 128 177.1 128H206.9C240.6 128 271.8 145.7 289.2 174.6L347.4 271.5C356.5 286.7 351.6 306.3 336.5 315.4C321.3 324.5 301.7 319.6 292.6 304.5L264 256.9V448H200V352H184V448L120 448z" class="fa-secondary"/></svg>