<svg xmlns="http://www.w3.org/2000/svg" viewBox="0 0 448 512"><!--! Font Awesome Pro 6.2.0 by @fontawesome - https://fontawesome.com License - https://fontawesome.com/license (Commercial License) Copyright 2022 Fonticons, Inc. --><path d="M433.6 56C441.2 60.42 443.8 70.21 439.4 77.86L383.1 173.9L385.6 174.9C400.9 183.7 406.1 203.3 397.3 218.6L366.9 271.3C364.1 274.5 362.6 277.3 359.9 279.6C343.8 257 321.3 240.1 295.7 230.8L389.9 67.71C382.2 63.3 379.6 53.51 384 45.86C388.4 38.21 398.2 35.58 405.9 40L433.6 56zM302.4 94.61C303.5 99.78 304 105.1 304 110.6C304 154.8 268.2 190.6 224 190.6C179.8 190.6 144 154.8 144 110.6C144 105.1 144.6 99.78 145.6 94.61H302.4zM299.1 508.6L117.7 249.5C126.3 243 135.6 237.7 145.5 233.5L319.8 482.4C318.4 494.5 310.2 504.6 299.1 508.6V508.6z" class="fa-secondary"/></svg>