<svg xmlns="http://www.w3.org/2000/svg" viewBox="0 0 576 512"><!--! Font Awesome Pro 6.2.0 by @fontawesome - https://fontawesome.com License - https://fontawesome.com/license (Commercial License) Copyright 2022 Fonticons, Inc. --><path d="M192 496C192 504.8 199.3 512 208 512h32C248.8 512 256 504.8 256 496V320H192V496zM544 0h-32v496c0 8.75 7.25 16 16 16h32c8.75 0 16-7.25 16-16V32C576 14.25 561.8 0 544 0zM192 32v160h64V0H224C206.3 0 192 14.25 192 32zM288 32l31.5 223.1l-30.88 154.6C284.3 431.3 301.6 448 320 448c15.25 0 27.99-9.125 32.24-30.38C353.3 434.5 366.9 448 384 448c17.75 0 32-14.25 32-32c0 17.75 14.25 32 32 32s32-14.25 32-32V0h-192V32zM64 128c26.5 0 48-21.5 48-48S90.5 32 64 32S16 53.5 16 80S37.5 128 64 128z" class="fa-secondary"/></svg>