<svg xmlns="http://www.w3.org/2000/svg" viewBox="0 0 384 512"><!--! Font Awesome Pro 6.2.0 by @fontawesome - https://fontawesome.com License - https://fontawesome.com/license (Commercial License) Copyright 2022 Fonticons, Inc. --><path d="M137.5 113.1c0-7.011-4.986-13.44-12.39-15.13C118.4 96.38 111.7 95.6 105.1 95.6c-36.65 0-70 23.84-79.32 59.53L.5119 253.3C.1636 254.6-.0025 255.9-.0025 257.2c0 7.003 4.96 13.42 12.36 15.11L76.01 287.5c1.339 .3251 2.681 .4806 4.001 .4806c7.31 0 13.97-4.762 15.87-11.86L137 117C137.4 115.7 137.5 114.4 137.5 113.1zM352 256h-15.1v240c0 8.875 7.125 16 15.1 16h15.1C376.9 512 384 504.9 384 496V224C384 241.7 369.7 256 352 256zM368 160h-15.1c-8.875 0-15.1 7.125-15.1 16V192H352c17.67 0 32 14.33 32 32V176C384 167.1 376.9 160 368 160z" class="fa-secondary"/></svg>