<svg xmlns="http://www.w3.org/2000/svg" viewBox="0 0 512 512"><!--! Font Awesome Pro 6.2.0 by @fontawesome - https://fontawesome.com License - https://fontawesome.com/license (Commercial License) Copyright 2022 Fonticons, Inc. --><path d="M431.1 0c-40.79 0-74.35 97.75-79.28 223.1l31.28-.0023c17.68 0 32 14.33 32 32s-14.33 31.1-32 31.1l-31.28 .0016c4.93 126.2 38.49 224 79.29 224C476.2 511.1 512 397.4 512 255.1C512 114.6 476.2 0 431.1 0zM272 0C245.5 0 224 21.49 224 48c0 0 0-.002 0 0C224 74.51 245.5 96 272 96c26.51 0 48-21.49 48-47.1S298.6 0 272 0z" class="fa-secondary"/></svg>