<svg xmlns="http://www.w3.org/2000/svg" viewBox="0 0 576 512"><!--! Font Awesome Pro 6.2.0 by @fontawesome - https://fontawesome.com License - https://fontawesome.com/license (Commercial License) Copyright 2022 Fonticons, Inc. --><path d="M112 48C112 21.49 133.5 0 160 0C186.5 0 208 21.49 208 48C208 74.51 186.5 96 160 96C133.5 96 112 74.51 112 48zM120 512C102.3 512 88 497.7 88 480V256.9L59.43 304.5C50.33 319.6 30.67 324.5 15.52 315.4C.3696 306.3-4.531 286.7 4.573 271.5L62.85 174.6C80.2 145.7 111.4 128 145.1 128H174.9C208.6 128 239.8 145.7 257.2 174.6L302.1 249.3C285.1 266.9 273.4 287.7 265.5 310.8C263.6 308.9 261.1 306.8 260.6 304.5L232 256.9V480C232 497.7 217.7 512 200 512C182.3 512 168 497.7 168 480V352H152V480C152 497.7 137.7 512 120 512L120 512z" class="fa-secondary"/></svg>