<svg xmlns="http://www.w3.org/2000/svg" viewBox="0 0 640 512"><!--! Font Awesome Pro 6.2.0 by @fontawesome - https://fontawesome.com License - https://fontawesome.com/license (Commercial License) Copyright 2022 Fonticons, Inc. --><path d="M175.1 8C182.6 8 188.4 11.1 190.9 18.09L220.3 92.05L296.4 68.93C302.7 67.03 309.5 69.14 313.6 74.27C317.7 79.39 318.2 86.49 314.1 92.18L275.5 161.3L330.7 199.3L306.3 239.8L255.8 247.6L261.4 327C261.8 333.6 258.3 339.7 252.4 342.6C246.5 345.4 239.4 344.4 234.6 339.9L175.1 286.1L117.4 339.9C112.6 344.4 105.5 345.4 99.63 342.6C93.73 339.7 90.15 333.6 90.62 327L96.21 247.6L17.55 235.4C11.08 234.4 5.868 229.6 4.41 223.2C2.951 216.8 5.538 210.1 10.94 206.4L76.5 161.3L37.01 92.18C33.76 86.49 34.31 79.39 38.39 74.27C42.48 69.14 49.28 67.03 55.55 68.93L131.7 92.05L161.1 18.09C163.6 11.1 169.4 8 175.1 8V8z" class="fa-secondary"/></svg>