<svg xmlns="http://www.w3.org/2000/svg" viewBox="0 0 512 512"><!--! Font Awesome Pro 6.2.0 by @fontawesome - https://fontawesome.com License - https://fontawesome.com/license (Commercial License) Copyright 2022 Fonticons, Inc. --><path d="M511.1 205.7c0-.1252 .0637-1.063 .0637-2.631c0-8.303-1.841-32.1-25.06-32.1c-14.45 0-24.08 12.03-24.08 24.11c0 4.072 1.002 5.566 1.002 11.84c0 16.57-8.796 32.25-22.71 40.21L12.95 466.7c-8.232 4.275-12.95 12.61-12.95 21.26C-.0002 506.7 17.18 512 24.06 512c2.305 0 6.381-.3578 10.97-2.733l429.2-220.9C494.1 271.1 511.1 239.4 511.1 205.7z" class="fa-secondary"/></svg>