<svg xmlns="http://www.w3.org/2000/svg" viewBox="0 0 384 512"><!--! Font Awesome Pro 6.2.0 by @fontawesome - https://fontawesome.com License - https://fontawesome.com/license (Commercial License) Copyright 2022 Fonticons, Inc. --><path d="M32 224C14.33 224 0 209.7 0 192C0 174.3 14.33 160 32 160V224zM282.5 224H96V160H282.5C286.1 170 288 180.8 288 192C288 203.2 286.1 213.1 282.5 224zM352 192C352 181 350.9 170.3 348.8 160H352C369.7 160 384 174.3 384 192C384 209.7 369.7 224 352 224H348.8C350.9 213.7 352 202.1 352 192z" class="fa-secondary"/></svg>