<svg xmlns="http://www.w3.org/2000/svg" viewBox="0 0 640 512"><!--! Font Awesome Pro 6.2.0 by @fontawesome - https://fontawesome.com License - https://fontawesome.com/license (Commercial License) Copyright 2022 Fonticons, Inc. --><path d="M631.1 376.4c-171.6-171.6-450.7-171.6-622.3 .0085c-9.967 9.969-11.71 25.26-4.23 37.16l52.71 84.3c7.674 12.3 23.11 17.37 36.72 12.06l105.5-42.17c12.39-4.994 20.01-17.6 18.67-30.88l-6.621-66.57c70.19-23.96 146.8-23.95 216.1 .0202l-6.641 66.53c-1.424 13.24 6.26 25.97 18.71 30.9l105.4 42.14c13.54 5.377 28.1 .2285 36.63-11.99l52.73-84.32C642.9 401.6 641.1 386.4 631.1 376.4z" class="fa-secondary"/></svg>