<svg xmlns="http://www.w3.org/2000/svg" viewBox="0 0 576 512"><!--! Font Awesome Pro 6.2.0 by @fontawesome - https://fontawesome.com License - https://fontawesome.com/license (Commercial License) Copyright 2022 Fonticons, Inc. --><path d="M192 0H96C78.38 0 64 14.38 64 32v352c0 17.62 14.38 32 32 32h96c17.62 0 32-14.38 32-32V32C224 14.38 209.6 0 192 0zM368 384h-32c-8.875 0-16 7.125-16 16v32c0 8.875 7.125 16 16 16h32c8.875 0 16-7.125 16-16v-32C384 391.1 376.9 384 368 384zM368 256h-32C327.1 256 320 263.1 320 272v32c0 8.875 7.125 16 16 16h32c8.875 0 16-7.125 16-16v-32C384 263.1 376.9 256 368 256zM496 384h-32c-8.875 0-16 7.125-16 16v32c0 8.875 7.125 16 16 16h32c8.875 0 16-7.125 16-16v-32C512 391.1 504.9 384 496 384zM496 256h-32C455.1 256 448 263.1 448 272v32c0 8.875 7.125 16 16 16h32c8.875 0 16-7.125 16-16v-32C512 263.1 504.9 256 496 256z" class="fa-secondary"/></svg>