<svg xmlns="http://www.w3.org/2000/svg" viewBox="0 0 512 512"><!--! Font Awesome Pro 6.2.0 by @fontawesome - https://fontawesome.com License - https://fontawesome.com/license (Commercial License) Copyright 2022 Fonticons, Inc. --><path d="M506.1 123C436.8 65 347.4 32 256 32S75.25 65 5.875 123C2.125 126.1 0 130.7 0 135.6V192c0 8.875 7.125 16 16 16h70.13c6 0 11.62-3.375 14.25-8.875L128 128c39.88-17.25 83.25-24 128-24S344.1 110.8 384 128l27.62 71.12C414.3 204.6 419.9 208 425.9 208H496C504.9 208 512 200.9 512 192V135.6C512 130.7 509.9 126.1 506.1 123zM256 240c-39.75 0-72 32.25-72 72S216.3 384 256 384s72-32.25 72-72S295.8 240 256 240z" class="fa-secondary"/></svg>