<svg xmlns="http://www.w3.org/2000/svg" viewBox="0 0 640 512"><!--! Font Awesome Pro 6.2.0 by @fontawesome - https://fontawesome.com License - https://fontawesome.com/license (Commercial License) Copyright 2022 Fonticons, Inc. --><path d="M286.3 312.9c24.5 22.2 52.2 40.8 82.4 55.1L409 318.7c11.2-13.7 30-18.4 46.3-11.6l96 40c18.6 7.7 28.5 28 23.2 47.4l-24 88C545.8 499.9 530 512 512 512c-122.7 0-233.9-49.3-314.8-129.3l89.1-69.8zM164.8 347.2C101.8 270 64 171.4 64 64c0-18 12.1-33.8 29.5-38.6l88-24c19.4-5.3 39.7 4.6 47.4 23.2l40 96c6.8 16.3 2.1 35.2-11.6 46.3L208 207.3c12 25.5 27.2 49.2 45 70.7l-88.2 69.1z" class="fa-secondary"/></svg>