<svg xmlns="http://www.w3.org/2000/svg" viewBox="0 0 512 512"><!--! Font Awesome Pro 6.2.0 by @fontawesome - https://fontawesome.com License - https://fontawesome.com/license (Commercial License) Copyright 2022 Fonticons, Inc. --><path d="M448 32H224C188.6 32 160 60.64 160 96v320c0 35.36 28.64 64 64 64h224c35.36 0 64-28.64 64-64V96C512 60.64 483.4 32 448 32zM272 416C245.5 416 224 394.5 224 368S245.5 320 272 320s48 21.5 48 48S298.5 416 272 416zM432 416h-64c-8.832 0-16-7.168-16-16s7.168-16 16-16h64c8.832 0 16 7.168 16 16S440.8 416 432 416zM432 352h-64c-8.832 0-16-7.168-16-16s7.168-16 16-16h64c8.832 0 16 7.168 16 16S440.8 352 432 352zM448 256H224V96h224V256z" class="fa-secondary"/></svg>