<svg xmlns="http://www.w3.org/2000/svg" viewBox="0 0 512 512"><!--! Font Awesome Pro 6.2.0 by @fontawesome - https://fontawesome.com License - https://fontawesome.com/license (Commercial License) Copyright 2022 Fonticons, Inc. --><path d="M360.2 208.8L54.2 503.1c-12.6 12.1-32.5 11.9-44.8-.4S-3.1 470.4 8.9 457.8l294.2-306c9.9 8.6 19.8 17.7 29.5 27.5s18.9 19.7 27.5 29.5zm100.2-96.3c-16.9-23.4-37.5-43.9-60.9-60.9l9.4-9.8c6-6.2 14.2-9.7 22.8-9.8s16.9 3.3 22.9 9.4l16 16c6.1 6.1 9.5 14.3 9.4 22.9s-3.6 16.8-9.8 22.8l-9.8 9.4z" class="fa-secondary"/></svg>