<svg xmlns="http://www.w3.org/2000/svg" viewBox="0 0 576 512"><!--! Font Awesome Pro 6.2.0 by @fontawesome - https://fontawesome.com License - https://fontawesome.com/license (Commercial License) Copyright 2022 Fonticons, Inc. --><path d="M304 384C304 313.3 361.3 256 432 256C502.7 256 560 313.3 560 384C560 454.7 502.7 512 432 512C361.3 512 304 454.7 304 384zM352 352C343.2 352 336 359.2 336 368C336 376.8 343.2 384 352 384C360.8 384 368 376.8 368 368C368 359.2 360.8 352 352 352zM416 480C424.8 480 432 472.8 432 464C432 455.2 424.8 448 416 448C407.2 448 400 455.2 400 464C400 472.8 407.2 480 416 480zM432 368C423.2 368 416 375.2 416 384C416 392.8 423.2 400 432 400C440.8 400 448 392.8 448 384C448 375.2 440.8 368 432 368zM512 416C520.8 416 528 408.8 528 400C528 391.2 520.8 384 512 384C503.2 384 496 391.2 496 400C496 408.8 503.2 416 512 416zM448 288C439.2 288 432 295.2 432 304C432 312.8 439.2 320 448 320C456.8 320 464 312.8 464 304C464 295.2 456.8 288 448 288z" class="fa-secondary"/></svg>