<svg xmlns="http://www.w3.org/2000/svg" viewBox="0 0 576 512"><!--! Font Awesome Pro 6.2.0 by @fontawesome - https://fontawesome.com License - https://fontawesome.com/license (Commercial License) Copyright 2022 Fonticons, Inc. --><path d="M528.5 302.4l-41.28 123.7C483 439.1 470.8 448 457 448H119.1c-13.88 0-25.1-8.875-30.37-21.88L47.47 302.4c22.32-3.504 36.66-13.48 46.4-20.76C103 274.8 106.8 272 117.5 272c10.62 0 14.38 2.75 23.5 9.625C152.9 290.5 170.9 304 202.9 304s50-13.5 61.88-22.38C273.8 274.8 277.6 272 288.3 272s14.38 2.75 23.38 9.625C323.6 290.5 341.5 304 373.5 304s50-13.5 61.88-22.38C444.4 274.8 448.1 272 458.9 272c10.62 0 14.25 2.75 23.38 9.625C491.9 288.9 506.2 298.9 528.5 302.4z" class="fa-secondary"/></svg>