<svg xmlns="http://www.w3.org/2000/svg" viewBox="0 0 512 512"><!--! Font Awesome Pro 6.2.0 by @fontawesome - https://fontawesome.com License - https://fontawesome.com/license (Commercial License) Copyright 2022 Fonticons, Inc. --><path d="M146.5 270.6L176 257.5l29.5 13.12C207.6 271.5 209.8 272 212 272s4.438-.4687 6.5-1.375L251.4 256H240V226L212 238.5L182.5 225.4c-4.125-1.812-8.875-1.812-13 0L140 238.5L112 226v35.03l21.5 9.555C137.6 272.4 142.4 272.4 146.5 270.6zM175.2 401.7c-4.5-2.25-9.812-2.25-14.31 0L136 414.1L112 402.1v35.78l16.84 8.422c4.5 2.25 9.812 2.25 14.31 0L168 433.9l24.84 12.44C195.1 447.4 197.6 448 200 448s4.906-.5625 7.156-1.688L224 437.9V402.1l-24 12.02L175.2 401.7zM510.7 314.7l-25.31 11.69l-28-12.91c-4.25-1.938-9.156-1.938-13.41 0L416 326.4l-27.94-12.91c-4.25-1.938-9.156-1.938-13.41 0l-28 12.91l-27.94-12.91c-4.25-1.938-9.188-1.938-13.44 0l-27.94 12.91l-28-12.91c-4.25-1.938-9.156-1.938-13.41 0L208 326.4L180.1 313.5c-4.25-1.938-9.156-1.938-13.41 0l-28 12.91L112 314.1v35.27l19.94 9.205c4.25 1.938 9.156 1.938 13.41 0l28-12.91l27.94 12.91c4.25 1.938 9.188 1.938 13.44 0l27.94-12.91l28 12.91c4.25 1.938 9.156 1.938 13.41 0L312 345.6l27.94 12.91c4.25 1.938 9.156 1.938 13.41 0l28-12.91l27.94 12.91C411.4 359.5 413.7 360 416 360s4.594-.5 6.719-1.469l27.94-12.91l28 12.91c4.25 1.938 9.156 1.938 13.41 0L512 349.3V328C512 323.4 511.5 319 510.7 314.7zM463.2 401.7c-4.5-2.25-9.812-2.25-14.31 0L424 414.1L400 402.1v35.78l16.84 8.422c4.5 2.25 9.812 2.25 14.31 0L456 433.9l24.84 12.44C483.1 447.4 485.6 448 488 448s4.906-.5625 7.156-1.688L512 437.9V402.1l-24 12.02L463.2 401.7z" class="fa-secondary"/></svg>