<svg xmlns="http://www.w3.org/2000/svg" viewBox="0 0 512 512"><!--! Font Awesome Pro 6.2.0 by @fontawesome - https://fontawesome.com License - https://fontawesome.com/license (Commercial License) Copyright 2022 Fonticons, Inc. --><path d="M404.3 152.3L359.7 107.7c-58.22-58.22-152.6-58.22-210.8 .001L43.67 212.8c-58.22 58.22-58.22 152.6-.002 210.8l44.66 44.66c58.22 58.22 152.6 58.23 210.8 .002l105.2-105.2C462.6 304.9 462.6 210.5 404.3 152.3zM164.7 212.7c6.25-6.25 16.38-6.25 22.62 0L208 233.4l20.69-20.69c6.25-6.25 16.38-6.25 22.62 0s6.25 16.38 0 22.62l-32 32C216.2 270.4 212.1 272 208 272S199.8 270.4 196.7 267.3l-32-32C158.4 229.1 158.4 218.9 164.7 212.7zM128 352c-4.094 0-8.188-1.562-11.31-4.688l-32-32c-6.25-6.25-6.25-16.38 0-22.62s16.38-6.25 22.62 0L128 313.4l20.69-20.69c6.25-6.25 16.38-6.25 22.62 0s6.25 16.38 0 22.62l-32 32C136.2 350.4 132.1 352 128 352zM251.3 395.3l-32 32C216.2 430.4 212.1 432 208 432s-8.188-1.562-11.31-4.688l-32-32c-6.25-6.25-6.25-16.38 0-22.62s16.38-6.25 22.62 0L208 393.4l20.69-20.69c6.25-6.25 16.38-6.25 22.62 0S257.6 389.1 251.3 395.3zM331.3 315.3l-32 32C296.2 350.4 292.1 352 288 352s-8.188-1.562-11.31-4.688l-32-32c-6.25-6.25-6.25-16.38 0-22.62s16.38-6.25 22.62 0L288 313.4l20.69-20.69c6.25-6.25 16.38-6.25 22.62 0S337.6 309.1 331.3 315.3z" class="fa-secondary"/></svg>