<svg xmlns="http://www.w3.org/2000/svg" viewBox="0 0 640 512"><!--! Font Awesome Pro 6.2.0 by @fontawesome - https://fontawesome.com License - https://fontawesome.com/license (Commercial License) Copyright 2022 Fonticons, Inc. --><path d="M96 384h224.7C320.3 378.7 320 373.4 320 368c0-68.38 39.01-127.7 96-156.8V128H96V384zM32 96C14.34 96 0 110.3 0 128v256c0 17.66 14.34 32 32 32s32-14.34 32-32V128C64 110.3 49.66 96 32 96zM480 96c-17.66 0-32 14.34-32 32v70.62C463.3 194.3 479.4 192 496 192c5.408 0 10.72 .2559 16 .7031V128C512 110.3 497.7 96 480 96z" class="fa-secondary"/></svg>