<svg xmlns="http://www.w3.org/2000/svg" viewBox="0 0 576 512"><!--! Font Awesome Pro 6.2.0 by @fontawesome - https://fontawesome.com License - https://fontawesome.com/license (Commercial License) Copyright 2022 Fonticons, Inc. --><path d="M477.9 120.4L342.3 256l135.6 135.6c33.37-38.94 50.06-87.29 50.06-135.6C527.9 207.7 511.2 159.3 477.9 120.4zM448.1 304c-17.74 0-31.99-14.25-31.99-31.1C416.1 254.3 430.4 240 448.1 240c17.5 0 31.99 14.25 31.99 32C480.1 289.8 465.6 304 448.1 304zM403.2 108.9c-40.6-40.6-93.67-60.88-146.9-60.87c-54.08 .0188-108.3 21.02-149.1 62.99C68.77 150.6 49.53 203.3 49.53 255.1c0 52.69 19.25 105.4 57.74 145c40.5 41.63 94.02 62.63 147.7 62.99c53.63 .3594 107.4-19.92 148.3-60.86L256.3 256L403.2 108.9zM160.3 288c-17.75 0-32-14.26-32-32.01c0-8.502 3.5-16.75 9.502-22.75c5.969-5.969 14.16-9.199 22.62-9.23c17.69 .0703 31.88 14.28 31.88 31.98C192.3 273.7 178 288 160.3 288zM192 143.1c0-8.502 3.496-16.75 9.498-22.75C207.5 115.2 215.5 111.1 224 111.1c17.75 0 32 14.26 32 32.01S241.7 176 224 176C206.2 176 192 161.7 192 143.1zM288.3 368c0 17.75-14.33 32-32.08 32c-17.75 0-31.92-14.25-31.92-32c0-17.76 14.25-32.01 32-32.01C274 336 288.3 350.3 288.3 368z" class="fa-secondary"/></svg>