<svg xmlns="http://www.w3.org/2000/svg" viewBox="0 0 512 512"><!--! Font Awesome Pro 6.2.0 by @fontawesome - https://fontawesome.com License - https://fontawesome.com/license (Commercial License) Copyright 2022 Fonticons, Inc. --><path d="M108.7 80.52L.5101 491.7c-1.375 5.625 .1622 11.6 4.287 15.6c4.127 4.125 10.13 5.744 15.63 4.119l410.8-113.9C423.3 211.1 296.4 86.02 108.7 80.52zM127.1 416c-17.62 0-32-14.37-32-31.1c0-17.62 14.39-32 32.01-32c17.63 0 32 14.38 32 31.1C160 401.6 145.6 416 127.1 416zM175.1 271.1c-17.63 0-32-14.38-32-32c0-17.62 14.38-31.1 32-31.1c17.62 0 32 14.37 32 31.1C208 257.6 193.6 271.1 175.1 271.1zM272 367.1c-17.62 0-32-14.38-32-31.1c0-17.62 14.38-32 32-32c17.63 0 32 14.38 32 32C304 353.6 289.6 367.1 272 367.1z" class="fa-secondary"/></svg>