<svg xmlns="http://www.w3.org/2000/svg" viewBox="0 0 640 512"><!--! Font Awesome Pro 6.2.0 by @fontawesome - https://fontawesome.com License - https://fontawesome.com/license (Commercial License) Copyright 2022 Fonticons, Inc. --><path d="M320 93.68V178.3L421.8 236.4C418 247.6 416 259.6 416 272V296.6C398.1 306.9 385.7 325.7 384.2 347.5L320 329.1V400L377.6 443.2C381.6 446.2 384 450.1 384 456V497.1C384 505.7 377.7 512 369.1 512C368.7 512 367.4 511.8 366.1 511.5L256 480L145.9 511.5C144.6 511.8 143.3 512 142 512C134.3 512 128 505.7 128 497.1V456C128 450.1 130.4 446.2 134.4 443.2L192 400V329.1L20.4 378.2C10.17 381.1 0 373.4 0 362.8V297.3C0 291.5 3.076 286.2 8.062 283.4L192 178.3V93.68C192 59.53 221 0 256 0C292 0 320 59.53 320 93.68H320z" class="fa-secondary"/></svg>