<svg xmlns="http://www.w3.org/2000/svg" viewBox="0 0 640 512"><!--! Font Awesome Pro 6.2.0 by @fontawesome - https://fontawesome.com License - https://fontawesome.com/license (Commercial License) Copyright 2022 Fonticons, Inc. --><path d="M192 368C192 385.7 177.7 400 160 400C142.3 400 128 385.7 128 368C128 350.3 142.3 336 160 336C177.7 336 192 350.3 192 368zM0 480C0 462.3 14.33 448 32 448H608C625.7 448 640 462.3 640 480C640 497.7 625.7 512 608 512H32C14.33 512 0 497.7 0 480zM224 384C224 366.3 238.3 352 256 352C273.7 352 288 366.3 288 384C288 401.7 273.7 416 256 416C238.3 416 224 401.7 224 384z" class="fa-secondary"/></svg>