<svg xmlns="http://www.w3.org/2000/svg" viewBox="0 0 512 512"><!--! Font Awesome Pro 6.2.0 by @fontawesome - https://fontawesome.com License - https://fontawesome.com/license (Commercial License) Copyright 2022 Fonticons, Inc. --><path d="M288 512H224V248C224 217.1 198.9 192 168 192C137.1 192 112 217.1 112 248V260.1C102.4 257.7 91.62 256 80 256C68.38 256 57.62 257.7 48 260.1V248C48 181.7 101.7 128 168 128C188.2 128 207.3 133 224 141.8V120C224 53.73 277.7 0 344 0C410.3 0 464 53.73 464 120V132.1C454.4 129.7 443.6 128 432 128C420.4 128 409.6 129.7 400 132.1V120C400 89.07 374.9 64 344 64C313.1 64 288 89.07 288 120V512z" class="fa-secondary"/></svg>