<svg xmlns="http://www.w3.org/2000/svg" viewBox="0 0 640 512"><!--! Font Awesome Pro 6.2.0 by @fontawesome - https://fontawesome.com License - https://fontawesome.com/license (Commercial License) Copyright 2022 Fonticons, Inc. --><path d="M221 136.5L206.9 72.86C249.5 42.74 301.3 28.49 353.4 32.58C405.4 36.67 454.3 58.85 491.7 95.26C484.4 115.4 480.6 136.7 480.5 158.1V188.3C469.6 164.9 453.3 144.5 432.8 128.8C412.3 113.2 388.3 102.7 362.9 98.31C337.5 93.93 311.4 95.79 286.9 103.7C262.4 111.6 240.1 125.4 222.1 143.8C221.7 141.4 221.8 139 221 136.5zM426.5 165.5C450.5 189.5 464 222.1 464 255.1C464 281.3 456.5 306.1 442.4 327.1C428.4 348.2 408.4 364.6 384.1 374.3C361.6 383.9 335.9 386.5 311 381.5C286.2 376.6 263.4 364.4 245.5 346.5C227.6 328.6 215.4 305.8 210.5 280.1C205.5 256.1 208.1 230.4 217.7 207C227.4 183.6 243.8 163.6 264.9 149.6C285.9 135.5 310.7 127.1 336 127.1C369.9 127.1 402.5 141.5 426.5 165.5zM538.4 351.6C521.7 387.2 495.9 417.7 463.6 440.1C431.3 462.5 393.6 476.1 354.5 479.3C315.3 482.5 275.9 475.4 240.4 458.6C204.9 441.8 174.4 415.9 152 383.6V260.9C160.7 257.8 169 253.6 176.8 248.4C176.6 250.1 176 253.4 176 255.1C175.1 293.4 189 329.6 212.9 358.4C236.9 387.1 270.1 406.5 306.9 413.3C343.7 420.1 381.6 413.7 414.2 395.3C446.8 376.1 471.9 347.8 485.1 312.8C488.3 320.4 492.1 327.3 498.8 333.2C509.4 343.8 523.5 350.3 538.4 351.6H538.4z" class="fa-secondary"/></svg>