<svg xmlns="http://www.w3.org/2000/svg" viewBox="0 0 576 512"><!--! Font Awesome Pro 6.2.0 by @fontawesome - https://fontawesome.com License - https://fontawesome.com/license (Commercial License) Copyright 2022 Fonticons, Inc. --><path d="M128 128H64V32C64 14.33 78.33 0 96 0C113.7 0 128 14.33 128 32V128zM320 128H256V32C256 14.33 270.3 0 288 0C305.7 0 320 14.33 320 32V128zM0 192C0 174.3 14.33 160 32 160H352C369.7 160 384 174.3 384 192C384 194.3 383.7 196.6 383.3 198.8C309.8 219.1 256 287.7 256 368C256 379.4 257.1 390.5 259.1 401.3C248.1 406.4 236.3 410.3 224 412.8V512H160V412.8C86.97 397.1 32 333.4 32 256V224C14.33 224 0 209.7 0 192V192z" class="fa-secondary"/></svg>