<svg xmlns="http://www.w3.org/2000/svg" viewBox="0 0 448 512"><!--! Font Awesome Pro 6.2.0 by @fontawesome - https://fontawesome.com License - https://fontawesome.com/license (Commercial License) Copyright 2022 Fonticons, Inc. --><path d="M48 191.1l29.12 291.2c1.636 16.36 15.24 28.82 31.68 28.82h230.4c16.44 0 30.05-12.46 31.68-28.82L400 191.1H48zM304.5 326.7l-32.1 32.1l7.773 45.55c1.5 8.25-7.139 14.37-14.51 10.49L223.1 393.3l-40.77 21.53c-7.25 3.875-16.01-2.242-14.51-10.49l7.772-45.55l-32.94-32.1C137.7 320.8 140.8 310.7 149 309.6L194.7 302.9l20.36-41.4c3.75-7.5 14.29-7.375 17.91 0l20.36 41.4l45.64 6.688C307.2 310.7 310.4 320.8 304.5 326.7z" class="fa-secondary"/></svg>