<svg xmlns="http://www.w3.org/2000/svg" viewBox="0 0 384 512"><!--! Font Awesome Pro 6.2.0 by @fontawesome - https://fontawesome.com License - https://fontawesome.com/license (Commercial License) Copyright 2022 Fonticons, Inc. --><path d="M208 32H176V16C176 7.164 183.2 0 192 0C200.8 0 208 7.164 208 16V32zM128 128V160H96V136C96 131.6 99.58 128 104 128H128zM128 208H104C99.58 208 96 204.4 96 200V176H128V208zM144 128H168C172.4 128 176 131.6 176 136V160H144V128zM176 200C176 204.4 172.4 208 168 208H144V176H176V200zM360 464C373.3 464 384 474.7 384 488C384 501.3 373.3 512 360 512H24C10.75 512 0 501.3 0 488C0 474.7 10.75 464 24 464H360zM208 136C208 131.6 211.6 128 216 128H240V160H208V136zM208 176H240V208H216C211.6 208 208 204.4 208 200V176zM288 136V160H256V128H280C284.4 128 288 131.6 288 136zM256 176H288V200C288 204.4 284.4 208 280 208H256V176z" class="fa-secondary"/></svg>