<svg xmlns="http://www.w3.org/2000/svg" viewBox="0 0 448 512"><!--! Font Awesome Pro 6.2.0 by @fontawesome - https://fontawesome.com License - https://fontawesome.com/license (Commercial License) Copyright 2022 Fonticons, Inc. --><path d="M304 368H248.3l38.45-89.7c2.938-6.859 .7187-14.84-5.312-19.23c-6.096-4.422-14.35-4.031-19.94 .8906l-128 111.1c-5.033 4.391-6.783 11.44-4.439 17.67c2.346 6.25 8.314 10.38 14.97 10.38H199.7l-38.45 89.7c-2.938 6.859-.7187 14.84 5.312 19.23C169.4 510.1 172.7 512 175.1 512c3.781 0 7.531-1.328 10.53-3.953l128-111.1c5.033-4.391 6.783-11.44 4.439-17.67C316.6 372.1 310.7 368 304 368z" class="fa-secondary"/></svg>