<svg xmlns="http://www.w3.org/2000/svg" viewBox="0 0 448 512"><!--! Font Awesome Pro 6.2.0 by @fontawesome - https://fontawesome.com License - https://fontawesome.com/license (Commercial License) Copyright 2022 Fonticons, Inc. --><path d="M411.6 138.9c-7-11.88-19.38-19.63-33.13-20.75c6.5-11.75 6.375-25.88-.25-37.5c-9.125-16-28-23.63-45.63-20.13c-.25-16.63-11.5-32-29-37.5c-13.25-4.25-27.88-1.875-39.13 6.5c0-.75-.25-1.375-.625-2C256.7 6.343 232.7-4.782 210.5 1.969C197.5 5.969 187.2 16.22 183.1 29.22C171.1 21.09 157.5 18.84 144.4 23.09c-17.5 5.375-28.62 20.75-29 37.38c-17.62-3.5-36.5 4.125-45.63 20.13C62.1 92.1 62.87 106.5 69.5 118.1C55.1 119.4 43.12 126.7 36.37 138.9C32.5 145.6 31.62 152.9 32.12 159.1h383.8C416.4 152.9 415.5 145.6 411.6 138.9z" class="fa-secondary"/></svg>