<svg xmlns="http://www.w3.org/2000/svg" viewBox="0 0 640 512"><!--! Font Awesome Pro 6.2.0 by @fontawesome - https://fontawesome.com License - https://fontawesome.com/license (Commercial License) Copyright 2022 Fonticons, Inc. --><path d="M244.1 75.37C231.7 68.14 224 54.73 224 40.39V24C224 10.74 213.3 0 200 0S176 10.74 176 24v16.39c0 31.34 16.81 60.64 43.91 76.45C232.3 124.1 240 137.5 240 152.1V168C240 181.3 250.7 192 264 192S288 181.3 288 168V151.8C288 120.5 271.2 91.18 244.1 75.37zM432 112c-50.66 0-92.96 33.85-106.8 80h213.6C524.1 145.8 482.7 112 432 112zM132.1 75.37C119.7 68.14 112 54.73 112 40.39V24C112 10.74 101.3 0 88 0S64 10.74 64 24v16.39c0 31.34 16.81 60.64 43.91 76.45C120.3 124.1 128 137.5 128 152.1V168C128 181.3 138.7 192 152 192S176 181.3 176 168V151.8C176 120.5 159.2 91.18 132.1 75.37z" class="fa-secondary"/></svg>