<svg xmlns="http://www.w3.org/2000/svg" viewBox="0 0 576 512"><!--! Font Awesome Pro 6.2.0 by @fontawesome - https://fontawesome.com License - https://fontawesome.com/license (Commercial License) Copyright 2022 Fonticons, Inc. --><path d="M32 0C14.3 0 0 14.3 0 32V64C0 81.7 14.3 96 32 96H352c17.7 0 32-14.3 32-32V32c0-17.7-14.3-32-32-32H32zM352 128H32v64H144c8.8 0 16 7.2 16 16s-7.2 16-16 16H32v64H144c8.8 0 16 7.2 16 16s-7.2 16-16 16H32v64H144c8.8 0 16 7.2 16 16s-7.2 16-16 16H32v32c0 35.3 28.7 64 64 64H288c11.6 0 22.4-3.1 31.8-8.4c-39-32.3-63.8-81-63.8-135.6c0-68.4 39-127.7 96-156.8V128z" class="fa-secondary"/></svg>