<svg xmlns="http://www.w3.org/2000/svg" viewBox="0 0 384 512"><!--! Font Awesome Pro 6.2.0 by @fontawesome - https://fontawesome.com License - https://fontawesome.com/license (Commercial License) Copyright 2022 Fonticons, Inc. --><path d="M352 96H32V448c0 35.3 28.7 64 64 64H288c35.3 0 64-28.7 64-64V96zM160 208c0-8.8 7.2-16 16-16h32c8.8 0 16 7.2 16 16v48h48c8.8 0 16 7.2 16 16v32c0 8.8-7.2 16-16 16H224v48c0 8.8-7.2 16-16 16H176c-8.8 0-16-7.2-16-16V320H112c-8.8 0-16-7.2-16-16V272c0-8.8 7.2-16 16-16h48V208z" class="fa-secondary"/></svg>