<svg xmlns="http://www.w3.org/2000/svg" viewBox="0 0 640 512"><!--! Font Awesome Pro 6.2.0 by @fontawesome - https://fontawesome.com License - https://fontawesome.com/license (Commercial License) Copyright 2022 Fonticons, Inc. --><path d="M384 173.5l.0186-82.1L357.5 64h-229.5L128 192h224.9c-39.17 29.17-64.92 75.41-64.92 128c0 10.98 1.149 21.66 3.294 32H128v96h225c26.65 19.84 59.23 32 95.01 32c0 17.67-14.32 32-31.99 32H96c-17.67 0-32-14.33-32-32l.001-96H32C14.33 384 0 369.7 0 352V256c0-35.35 28.66-64 64-64l.0015-160c0-17.67 14.35-32 32-32h274.8c8.469 0 16.63 3.375 22.63 9.375l45.25 45.25c6 6 9.375 14.14 9.375 22.62L448 160C425.2 160 403.6 164.9 384 173.5z" class="fa-secondary"/></svg>