<svg xmlns="http://www.w3.org/2000/svg" viewBox="0 0 384 512"><!--! Font Awesome Pro 6.2.0 by @fontawesome - https://fontawesome.com License - https://fontawesome.com/license (Commercial License) Copyright 2022 Fonticons, Inc. --><path d="M299.4 218.2C296.4 185.2 268.7 160 235.6 160H84.37C51.27 160 23.63 185.2 20.63 218.2l-20.36 224C-3.139 479.7 26.37 512 64.01 512h191.1c37.63 0 67.14-32.31 63.74-69.79L299.4 218.2zM159.1 416c-33.13 0-60-26.33-60-58.75c0-25 35.7-75.47 52.03-97.27c3.984-5.312 11.95-5.312 15.94 0c16.33 21.8 52.03 72.27 52.03 97.27C219.1 389.7 193.1 416 159.1 416z" class="fa-secondary"/></svg>