<svg xmlns="http://www.w3.org/2000/svg" viewBox="0 0 384 512"><!--! Font Awesome Pro 6.2.0 by @fontawesome - https://fontawesome.com License - https://fontawesome.com/license (Commercial License) Copyright 2022 Fonticons, Inc. --><path d="M299.4 218.2C296.4 185.2 268.7 160 235.6 160H84.37C51.27 160 23.63 185.2 20.63 218.2l-20.36 224C-3.139 479.7 26.37 512 64.01 512h191.1c37.63 0 67.14-32.31 63.74-69.79L299.4 218.2zM239.1 333.3c0 7.363-5.971 13.33-13.33 13.33h-40v40c0 7.363-5.969 13.33-13.33 13.33h-26.67c-7.363 0-13.33-5.971-13.33-13.33v-40H93.33c-7.363 0-13.33-5.971-13.33-13.33V306.7c0-7.365 5.971-13.33 13.33-13.33h40v-40C133.3 245.1 139.3 240 146.7 240h26.67c7.363 0 13.33 5.969 13.33 13.33v40h40c7.363 0 13.33 5.969 13.33 13.33V333.3z" class="fa-secondary"/></svg>