<svg xmlns="http://www.w3.org/2000/svg" viewBox="0 0 576 512"><!--! Font Awesome Pro 6.2.0 by @fontawesome - https://fontawesome.com License - https://fontawesome.com/license (Commercial License) Copyright 2022 Fonticons, Inc. --><path d="M576 319.1c0 64.45-51.24 191.9-151.4 191.9c-24.95 0-49.91-7.939-69.3-23.8c-17.88 15.38-39.99 23.86-67.25 23.86c-27.25 0-49.39-8.485-67.14-23.86c-19.44 15.86-44.44 23.8-69.41 23.8c-100.1 0-151.5-125.1-151.5-191.9c0-64.18 50.9-191.5 150.5-191.5c10.01 0 20.05 1.27 29.77 3.789C161.4 149.1 161.6 151.9 154.9 164.1c31.75-23.62 75.63-36.11 133.1-36.11s101.4 12.49 133.1 36.11c-6.801-12.31-6.585-15.01-25.38-31.88c9.718-2.518 19.76-3.789 29.77-3.789C524.1 128.4 576 254.5 576 319.1z" class="fa-secondary"/></svg>