<svg xmlns="http://www.w3.org/2000/svg" viewBox="0 0 512 512"><!--! Font Awesome Pro 6.2.0 by @fontawesome - https://fontawesome.com License - https://fontawesome.com/license (Commercial License) Copyright 2022 Fonticons, Inc. --><path d="M144 256c0-17.67-14.33-32-32-32s-32 14.33-32 32v32H0v160c0 35.35 28.65 64 64 64h160v-80H192c-17.67 0-32-14.33-32-32s14.33-32 32-32h32V288H144V256zM448 0h-96c-17.67 0-32 14.33-32 32v32h32c17.67 0 32 14.33 32 32s-14.33 32-32 32h-32v64h64v16c0 17.67 14.33 32 32 32s32-14.33 32-32V192h32c17.67 0 32-14.33 32-32V64C512 28.65 483.3 0 448 0z" class="fa-secondary"/></svg>