<svg xmlns="http://www.w3.org/2000/svg" viewBox="0 0 576 512"><!--! Font Awesome Pro 6.2.0 by @fontawesome - https://fontawesome.com License - https://fontawesome.com/license (Commercial License) Copyright 2022 Fonticons, Inc. --><path d="M328 272C288.2 272 256 304.2 256 344C256 383.8 288.2 416 328 416c2.68-.1172 5.352-.3867 8-.8066V416c-.0234 17.66-14.34 31.98-32 32c-17.67 0-32 14.33-32 32c0 17.67 14.33 32 32 32c52.1-.0586 95.94-43.01 96-96v-72C400 304.2 367.8 272 328 272zM504 272c-39.76 0-72 32.23-72 72c0 39.76 32.24 72 72 72c2.68-.1172 5.352-.3867 8-.8066V416c-.0234 17.66-14.34 31.98-32 32c-17.67 0-32 14.33-32 32c0 17.67 14.33 32 32 32c52.1-.0586 95.94-43.01 96-96v-72C576 304.2 543.8 272 504 272z" class="fa-secondary"/></svg>