<svg xmlns="http://www.w3.org/2000/svg" viewBox="0 0 640 512"><!--! Font Awesome Pro 6.2.0 by @fontawesome - https://fontawesome.com License - https://fontawesome.com/license (Commercial License) Copyright 2022 Fonticons, Inc. --><path d="M11.85 420.5c-7.756 5.56-11.86 14.28-11.86 23.09c0 5.701 1.713 11.45 5.272 16.38l28.51 40.01C39.36 507.9 48.17 512 57.01 512c5.596 0 11.22-1.647 16-5.03l98.21-66.56c4.566-3.097 7.015-8.126 7.015-13.24c0-3.205-.9627-6.443-2.97-9.258l-44.04-61.76c-3.121-4.377-8.048-6.713-13.05-6.713c-3.183 0-6.398 .9459-9.198 2.914L11.85 420.5zM575.7 139.6c0-45.95-33.45-75.99-90-75.99c-106.1 0-201.1 100.6-201.1 178c0 45.1 33.33 75.95 89.79 75.95C444.5 317.5 575.7 246.1 575.7 139.6z" class="fa-secondary"/></svg>