<svg xmlns="http://www.w3.org/2000/svg" viewBox="0 0 512 512"><!--! Font Awesome Pro 6.2.0 by @fontawesome - https://fontawesome.com License - https://fontawesome.com/license (Commercial License) Copyright 2022 Fonticons, Inc. --><path d="M447.1 128H64c-35.35 0-63.1 28.65-63.1 63.1v255.1c0 35.35 28.65 63.1 63.1 63.1h383.1c35.35 0 63.1-28.65 63.1-63.1V192C511.1 156.7 483.3 128 447.1 128zM80 248c0-4.406 3.594-7.1 7.1-7.1h111.1c4.406 0 7.1 3.594 7.1 7.1V263.1c0 4.406-3.594 7.1-7.1 7.1h-111.1c-4.406 0-7.1-3.594-7.1-7.1V248zM208 391.1c0 4.406-3.594 7.1-7.1 7.1h-111.1c-4.406 0-7.1-3.594-7.1-7.1v-15.1c0-4.406 3.594-7.1 7.1-7.1h111.1c4.406 0 7.1 3.594 7.1 7.1V391.1zM224 327.1c0 4.406-3.594 7.1-7.1 7.1H72c-4.406 0-7.1-3.594-7.1-7.1V311.1c0-4.406 3.594-7.1 7.1-7.1h143.1c4.406 0 7.1 3.594 7.1 7.1V327.1zM367.1 399.1c-44.16 0-80-35.84-80-79.1s35.84-80 80-80s79.1 35.85 79.1 80S412.2 399.1 367.1 399.1z" class="fa-secondary"/></svg>