<svg xmlns="http://www.w3.org/2000/svg" viewBox="0 0 640 512"><!--! Font Awesome Pro 6.2.0 by @fontawesome - https://fontawesome.com License - https://fontawesome.com/license (Commercial License) Copyright 2022 Fonticons, Inc. --><path d="M416 392C412.7 392 409.4 391.7 406.2 391.3C399.3 419.2 374.1 440 344 440C328.1 440 315.1 434.8 304.2 426.1C292.5 439.5 275.2 448 256 448C236.8 448 219.5 439.5 207.8 426.1C196.9 434.8 183 440 168 440C137.9 440 112.7 419.2 105.8 391.3C102.6 391.7 99.34 392 96 392C60.65 392 32 363.3 32 328C32 322.7 32.66 317.5 33.89 312.5C13.72 301.7 0 280.5 0 256C0 231.5 13.72 210.3 33.89 199.5C32.66 194.5 32 189.3 32 184C32 148.7 60.65 120 96 120C99.34 120 102.6 120.3 105.8 120.8C112.7 92.77 137.9 72 168 72C183 72 196.9 77.19 207.8 85.88C219.5 72.47 236.8 64 256 64C286.7 64 312.3 85.56 318.5 114.3C304.3 130.1 299.6 153.3 308.5 174.1C316.5 192.7 333.3 204.7 352 207.4V239.1C352 301.9 402.1 352 464 352H475.3C465.9 375.5 442.9 392 416 392V392z" class="fa-secondary"/></svg>