<svg xmlns="http://www.w3.org/2000/svg" viewBox="0 0 576 512"><!--! Font Awesome Pro 6.2.0 by @fontawesome - https://fontawesome.com License - https://fontawesome.com/license (Commercial License) Copyright 2022 Fonticons, Inc. --><path d="M320 31.97h-16c-8.75 0-16 7.128-16 16v256c0 8.752 7.25 16 16 16H320c8.75 0 15.88-6.999 16-15.75V47.72C335.9 38.97 328.8 31.97 320 31.97zM400 63.99L384 63.97c-8.75 0-16 7.126-16 16v192c0 8.752 7.25 16 16 16L400 288c8.875 0 16-7.25 16-16V79.99C416 71.12 408.9 63.99 400 63.99zM64 16.01v59.22c14.6-6.969 30.75-11.22 48-11.22l79.06-.0078L88.23 2.309C77.57-4.09 64 3.573 64 16.01z" class="fa-secondary"/></svg>