<svg xmlns="http://www.w3.org/2000/svg" viewBox="0 0 640 512"><!--! Font Awesome Pro 6.2.0 by @fontawesome - https://fontawesome.com License - https://fontawesome.com/license (Commercial License) Copyright 2022 Fonticons, Inc. --><path d="M64 512C28.65 512 0 483.3 0 448V224C0 188.7 28.65 160 64 160H448C471.8 160 492.5 172.9 503.5 192.2C501 192.1 498.5 192 496 192C398.8 192 320 270.8 320 368C320 427.5 349.5 480.1 394.8 512H64zM440 128H72C58.75 128 48 117.3 48 104C48 90.75 58.75 80 72 80H440C453.3 80 464 90.75 464 104C464 117.3 453.3 128 440 128zM392 48H120C106.7 48 96 37.25 96 24C96 10.75 106.7 0 120 0H392C405.3 0 416 10.75 416 24C416 37.25 405.3 48 392 48z" class="fa-secondary"/></svg>