<svg xmlns="http://www.w3.org/2000/svg" viewBox="0 0 576 512"><!--! Font Awesome Pro 6.2.0 by @fontawesome - https://fontawesome.com License - https://fontawesome.com/license (Commercial License) Copyright 2022 Fonticons, Inc. --><path d="M528 32C554.5 32 576 53.49 576 80V336C576 362.5 554.5 384 528 384H432C405.5 384 384 362.5 384 336V80C384 53.49 405.5 32 432 32H528zM288 304C314.5 304 336 325.5 336 352V432C336 458.5 314.5 480 288 480H112C85.49 480 64 458.5 64 432V352C64 325.5 85.49 304 112 304H288z" class="fa-secondary"/></svg>