<svg xmlns="http://www.w3.org/2000/svg" viewBox="0 0 512 512"><!--! Font Awesome Pro 6.2.0 by @fontawesome - https://fontawesome.com License - https://fontawesome.com/license (Commercial License) Copyright 2022 Fonticons, Inc. --><path d="M512 288c0 88.22-71.78 160-160 160H192l.0073 40c0 9.469-5.585 18.06-14.24 21.94C174.6 511.3 171.3 512 168 512c-5.812 0-11.57-2.125-16.07-6.156l-80-72C66.89 429.3 64 422.8 64 416s2.891-13.28 7.938-17.84l80-72C159 319.8 169.1 318.3 177.8 322.1C186.4 325.9 192 334.5 192 344L192 384H352c52.94 0 96-43.06 96-96c0-17.69 14.33-32 32-32S512 270.3 512 288z" class="fa-secondary"/></svg>