<svg xmlns="http://www.w3.org/2000/svg" viewBox="0 0 640 512"><!--! Font Awesome Pro 6.2.0 by @fontawesome - https://fontawesome.com License - https://fontawesome.com/license (Commercial License) Copyright 2022 Fonticons, Inc. --><path d="M511.2 319.4c-5 .4-10.1 .6-15.2 .6c-91.8 0-167.2-70.3-175.3-160H224V96c0-12.6-7.4-24.1-19-29.2s-25-3-34.4 5.4l-160 144C3.9 222.3 0 230.9 0 240s3.9 17.7 10.6 23.8l160 144c9.4 8.5 22.9 10.6 34.4 5.4s19-16.6 19-29.2V320h96c53 0 96 43 96 96c0 30.4-12.8 47.9-22.2 56.7c-5.5 5.1-9.8 12-9.8 19.5c0 10.9 8.8 19.7 19.7 19.7c2.8 0 5.6-.6 8.1-1.9C430.5 499.9 512 449.3 512 336c0-5.6-.3-11.2-.8-16.6z" class="fa-secondary"/></svg>