<svg xmlns="http://www.w3.org/2000/svg" viewBox="0 0 640 512"><!--! Font Awesome Pro 6.2.0 by @fontawesome - https://fontawesome.com License - https://fontawesome.com/license (Commercial License) Copyright 2022 Fonticons, Inc. --><path d="M624 319.1L592 319.1c-8.799 0-15.1 7.199-15.1 15.1v63.99c0 8.748-7.25 15.1-15.1 15.1c-8.75 0-15.1-7.25-15.1-15.1l-.0313-111.1L.025 287.1v159.1c0 17.6 14.4 31.1 31.1 31.1L95.98 479.1c17.6 0 32.04-14.4 32.04-32v-63.98l191.1-.0169v63.99c0 17.6 14.36 32 31.96 32l64.04 .013c17.6 0 31.1-14.4 31.1-31.1l-.0417-96.01l32.04 .0006v43.25c0 41.79 29.91 80.03 71.48 84.35C599.3 484.5 640 446.9 640 399.1v-63.98C640 327.2 632.8 319.1 624 319.1z" class="fa-secondary"/></svg>