<svg xmlns="http://www.w3.org/2000/svg" viewBox="0 0 576 512"><!--! Font Awesome Pro 6.2.0 by @fontawesome - https://fontawesome.com License - https://fontawesome.com/license (Commercial License) Copyright 2022 Fonticons, Inc. --><path d="M256 0C242.8 0 232 10.8 232 24v464C232 501.2 242.8 512 256 512s24-10.8 24-24V24C280 10.8 269.2 0 256 0zM448 0c-35.38 0-64 28.62-64 64s28.62 64 64 64s64-28.62 64-64S483.4 0 448 0zM96 0C60.63 0 32 28.62 32 64s28.62 64 64 64s64-28.62 64-64S131.4 0 96 0z" class="fa-secondary"/></svg>