<svg xmlns="http://www.w3.org/2000/svg" viewBox="0 0 640 512"><!--! Font Awesome Pro 6.2.0 by @fontawesome - https://fontawesome.com License - https://fontawesome.com/license (Commercial License) Copyright 2022 Fonticons, Inc. --><path d="M319.1 0C306.8 0 296 10.8 296 24v464c0 13.2 10.8 24 23.1 24s24-10.8 24-24V24C344 10.8 333.2 0 319.1 0zM128 0C101.5 0 80 21.5 80 48S101.5 96 128 96s47.1-21.5 47.1-48S154.5 0 128 0zM511.1 0c-26.5 0-47.1 21.5-47.1 48S485.5 96 511.1 96s48-21.5 48-48S538.5 0 511.1 0z" class="fa-secondary"/></svg>