<svg xmlns="http://www.w3.org/2000/svg" viewBox="0 0 512 512"><!--! Font Awesome Pro 6.2.0 by @fontawesome - https://fontawesome.com License - https://fontawesome.com/license (Commercial License) Copyright 2022 Fonticons, Inc. --><path d="M221 101.9l34.96-69.92L223.1 0h-95.1l-32 31.1l34.96 69.92C160.5 94.13 191.5 94.13 221 101.9zM473.1 225.6c-30.34-37.69-74.86-61.23-123.1-65.07c14.14 21.95 23.1 46.38 29.06 71.1c57.04 23.78 83.99 89.29 60.21 146.3c-23.78 57.03-89.29 83.99-146.3 60.21s-83.99-89.29-60.21-146.3c9.828-23.57 27.43-43.07 49.87-55.26c-1-3.1-2.133-6.147-3.398-9.139c-.3906-.9004-.8613-2-1.271-2.891c-.0469-.1172-.0996-.2305-.1582-.3399c-.4102-.9004-.8418-1.791-1.271-2.68c-.959-1.941-2.068-4.031-3.148-5.91c-.5-.8692-1-1.791-1.521-2.641c-.1094-.1797-.2187-.3594-.3398-.5391c-.4297-.7109-.8691-1.41-1.33-2.109c-.1289-.2109-.2695-.4219-.4102-.6309c-.459-.6992-.9199-1.391-1.398-2.07l-.3516-.5605c-1.199-1.719-2.445-3.385-3.738-4.998l-2.621-3.201c-.4492-.5293-2.09-2.41-2.09-2.41c-.4902-.5293-1-1.059-1.469-1.59l-.6602-.7187c-.7109-.75-1.441-1.5-2.17-2.24c-2.887-2.871-5.924-5.584-9.1-8.131c-68.42 40.7-101 122.2-79.62 198.9C170.6 397.1 176.4 411.8 184 424.7c.7402 1.273 1.492 2.529 2.26 3.77c.7598 1.24 1.539 2.491 2.34 3.71c-.002 .0195-.002-.0195 0 0c.7871 1.213 1.594 2.444 2.42 3.63c.8184 1.193 1.707 2.443 2.561 3.609c.8496 1.182 1.729 2.352 2.609 3.5c.8867 1.168 1.838 2.385 2.765 3.526c60.95 75.71 171.7 87.61 247.4 26.66C522.1 412.1 534 301.3 473.1 225.6z" class="fa-secondary"/></svg>