<svg xmlns="http://www.w3.org/2000/svg" viewBox="0 0 640 512"><!--! Font Awesome Pro 6.2.0 by @fontawesome - https://fontawesome.com License - https://fontawesome.com/license (Commercial License) Copyright 2022 Fonticons, Inc. --><path d="M213.2 32H288V96C288 113.7 302.3 128 320 128C337.7 128 352 113.7 352 96V32H426.8C453.9 32 478 49.08 487.1 74.63L517.5 160.5C460.6 165.8 416 213.7 416 272V296.6C396.9 307.6 384 328.3 384 352V480H352V416C352 398.3 337.7 384 320 384C302.3 384 288 398.3 288 416V480H86.61C56.45 480 32 455.5 32 425.4C32 419.2 33.06 413 35.13 407.2L152.9 74.63C161.1 49.08 186.1 32 213.2 32H213.2zM288 224V288C288 305.7 302.3 320 320 320C337.7 320 352 305.7 352 288V224C352 206.3 337.7 192 320 192C302.3 192 288 206.3 288 224z" class="fa-secondary"/></svg>