<svg xmlns="http://www.w3.org/2000/svg" viewBox="0 0 576 512"><!--! Font Awesome Pro 6.2.0 by @fontawesome - https://fontawesome.com License - https://fontawesome.com/license (Commercial License) Copyright 2022 Fonticons, Inc. --><path d="M320 32V96C320 113.7 305.7 128 288 128C270.3 128 256 113.7 256 96V32H320zM288 192C305.7 192 320 206.3 320 224V288C320 305.7 305.7 320 288 320C270.3 320 256 305.7 256 288V224C256 206.3 270.3 192 288 192zM288 384C305.7 384 320 398.3 320 416V480H256V416C256 398.3 270.3 384 288 384z" class="fa-secondary"/></svg>