<svg xmlns="http://www.w3.org/2000/svg" viewBox="0 0 640 512"><!--! Font Awesome Pro 6.2.0 by @fontawesome - https://fontawesome.com License - https://fontawesome.com/license (Commercial License) Copyright 2022 Fonticons, Inc. --><path d="M41.38 233.4C35.38 239.4 32 247.5 32 256v128c0 8.5 3.375 16.62 9.375 22.62S55.5 416 64 416h32V224H64C55.5 224 47.38 227.4 41.38 233.4zM598.6 233.4C592.6 227.4 584.5 224 576 224h-32v192h32c8.5 0 16.62-3.375 22.62-9.375S608 392.5 608 384V256C608 247.5 604.6 239.4 598.6 233.4zM320 0C302.4 0 288 14.38 288 32v64h64V32C352 14.38 337.6 0 320 0zM192 416h64v-32H192V416zM288 416h64v-32H288V416zM384 416h64v-32h-64V416z" class="fa-secondary"/></svg>