<svg xmlns="http://www.w3.org/2000/svg" viewBox="0 0 512 512"><!--! Font Awesome Pro 6.2.0 by @fontawesome - https://fontawesome.com License - https://fontawesome.com/license (Commercial License) Copyright 2022 Fonticons, Inc. --><path d="M496 496c0-2.226-.4633-4.46-1.402-6.548l-30.59-68.14V240c0-26.47-21.53-48-48-48H95.1c-26.47 0-48 21.53-48 48v181.3l-30.59 68.14C16.46 491.5 16 493.8 16 496c0 12.89 11.99 15.1 15.1 15.1l80 .0001c8.844 0 15.1-7.156 15.1-16l-.0026-111.1l54.63 54.63c6.002 6 14.14 9.373 22.63 9.373h101.5c8.487 0 16.63-3.373 22.63-9.373l54.63-54.63l.0018 111.1c0 8.844 7.156 16 16 16l79.1-.0001C484 512 496 508.8 496 496zM304 320H207.1c-8.836 0-16-7.164-16-15.1c0-8.838 7.164-16 16-16h96c8.836 0 16 7.162 16 16C320 312.8 312.8 320 304 320zM304 256H207.1c-8.836 0-16-7.164-16-15.1c0-8.838 7.164-16 16-16h96c8.836 0 16 7.162 16 16C320 248.8 312.8 256 304 256z" class="fa-secondary"/></svg>