<svg xmlns="http://www.w3.org/2000/svg" viewBox="0 0 512 512"><!--! Font Awesome Pro 6.2.0 by @fontawesome - https://fontawesome.com License - https://fontawesome.com/license (Commercial License) Copyright 2022 Fonticons, Inc. --><path d="M198.6 130C170.1 175.9 137.9 244.5 118.5 288H23.1C15.33 288 7.334 283.3 3.083 275.8C-1.168 268.2-1.014 258.1 3.487 251.5L56.26 164.7C69.31 143.2 92.64 130 117.8 130H198.6zM223.1 391.8C267.9 372.8 336.4 341.5 381.1 313.4V394.2C381.1 419.4 368.8 442.7 347.3 455.8L260.5 508.5C253 513 243.8 513.2 236.2 508.9C228.7 504.7 223.1 496.7 223.1 488L223.1 391.8z" class="fa-secondary"/></svg>