<svg xmlns="http://www.w3.org/2000/svg" viewBox="0 0 640 512"><!--! Font Awesome Pro 6.2.0 by @fontawesome - https://fontawesome.com License - https://fontawesome.com/license (Commercial License) Copyright 2022 Fonticons, Inc. --><path d="M235.3 136.4L248 154.7V456C248 469.3 237.3 480 224 480C210.7 480 200 469.3 200 456V105.9C213.1 112.8 226.2 123.2 235.3 136.4V136.4zM344 292.9V456C344 469.3 333.3 480 320 480C306.7 480 296 469.3 296 456V223.8L344 292.9zM440 377.6V456C440 469.3 429.3 480 416 480C402.7 480 392 469.3 392 456V351.9C406.2 363.5 422.5 372.2 440 377.6V377.6zM496 384C509.9 384 523.3 382 536 378.4V456C536 469.3 525.3 480 512 480C498.7 480 488 469.3 488 456V384H496zM104 113.1C117.7 103.4 134.2 97.32 152 96.19V456C152 469.3 141.3 480 128 480C114.7 480 104 469.3 104 456V113.1z" class="fa-secondary"/></svg>