<svg xmlns="http://www.w3.org/2000/svg" viewBox="0 0 512 512"><!--! Font Awesome Pro 6.2.0 by @fontawesome - https://fontawesome.com License - https://fontawesome.com/license (Commercial License) Copyright 2022 Fonticons, Inc. --><path d="M462.4 329.8C433.4 419.7 350.4 480 255.1 480c-55.41 0-106.5-21.19-145.4-56.49l-48.5 48.53C45.07 489 16 477 16 452.1V307.1C16 296.7 24.32 288.3 34.66 288h146.9c23.57 .5781 35.26 29.15 18.43 46l-44.18 44.2C183 401.8 218 416 256 416c66.58 0 125.1-42.53 145.5-105.8c5.422-16.78 23.36-26.03 40.3-20.59C458.6 294.1 467.9 313 462.4 329.8z" class="fa-secondary"/></svg>