<svg xmlns="http://www.w3.org/2000/svg" viewBox="0 0 448 512"><!--! Font Awesome Pro 6.2.0 by @fontawesome - https://fontawesome.com License - https://fontawesome.com/license (Commercial License) Copyright 2022 Fonticons, Inc. --><path d="M31.96 192H416C416 193.1 416 194.2 416 195.2C416 210.2 418.8 224.1 424.4 238.8L438.7 274.5C444.8 289.9 448 306.4 448 323C448 372.5 420 417.8 375.8 439.9L238.3 508.6C229.3 513.1 218.7 513.1 209.7 508.6L72.24 439.9C27.97 417.8 0 372.5 0 323C0 306.4 3.172 289.9 9.348 274.5L23.61 238.8C29.15 224.1 32 210.2 32 195.2C32 194.2 31.98 193.1 31.96 192V192zM384 322.9V323.1V323V322.9z" class="fa-secondary"/></svg>