<svg xmlns="http://www.w3.org/2000/svg" viewBox="0 0 512 512"><!--! Font Awesome Pro 6.2.0 by @fontawesome - https://fontawesome.com License - https://fontawesome.com/license (Commercial License) Copyright 2022 Fonticons, Inc. --><path d="M416.2 96c2.625 0 5.127 .625 7.752 .75C406.3 76.88 380.9 64 352.2 64c-8.504 .125-17.1 1.411-25.23 3.786C309.3 26.66 268.9 0 224.1 0C179.4 0 138.9 26.62 121.2 67.75C113.1 65.38 104.6 64.13 96.09 64C43.07 64 .0508 107 .0508 160s43.02 96 96.04 96h73.29L84.69 171.3c-6.25-6.25-6.25-16.38 0-22.62s16.38-6.25 22.62 0L208 249.4V112C208 103.2 215.2 96 224 96s16 7.156 16 16V256h52.66c-2.875-10.38-4.375-21.12-4.5-32C288.3 153.4 345.6 96.13 416.2 96zM416 128c-53.02 0-96 42.98-96 96c0 11.28 2.305 21.95 5.879 32h180.2C509.7 245.9 512 235.3 512 224C512 170.1 469 128 416 128z" class="fa-secondary"/></svg>