<svg xmlns="http://www.w3.org/2000/svg" viewBox="0 0 512 512"><!--! Font Awesome Pro 6.2.0 by @fontawesome - https://fontawesome.com License - https://fontawesome.com/license (Commercial License) Copyright 2022 Fonticons, Inc. --><path d="M247.1 9.25C241 3.375 232.9 0 224.5 0c-8.5 0-16.62 3.375-22.5 9.25l-96.75 96.75c-12.38 12.5-12.38 32.62 0 45.12L185.5 231.5l141.9-141.9L247.1 9.25zM502.8 264.1l-80.37-80.37l-141.8 141.8l80.25 80.36c12.5 12.38 32.62 12.38 44.1 0l96.75-96.75C508.6 304.1 512 295.1 512 287.5C512 279.1 508.6 270.1 502.8 264.1zM112 377.5l-17.88 17.75c-2.625-.75-5-1.625-7.75-1.625c-17.75 0-32 14.38-32 32c0 17.75 14.25 32 32 32c17.62 0 32-14.25 32-32c0-2.75-.875-5.125-1.625-7.75l17.75-17.88L112 377.5z" class="fa-secondary"/></svg>