<svg xmlns="http://www.w3.org/2000/svg" viewBox="0 0 512 512"><!--! Font Awesome Pro 6.2.0 by @fontawesome - https://fontawesome.com License - https://fontawesome.com/license (Commercial License) Copyright 2022 Fonticons, Inc. --><path d="M416 63.1C362.1 63.1 320 106.1 320 160c0 88.22-71.78 160-160 160c-53.02 0-96 42.98-96 95.1S106.1 512 159.1 512c194.3 .116 351.9-157.3 352-351.6L512 160C512 106.1 469 63.1 416 63.1zM160 400c-8.837 0-16-7.163-16-16C144 375.2 151.2 368 160 368c114.7 0 208-93.31 208-208c0-8.837 7.163-16 15.1-16C392.8 144 400 151.2 400 160C400 292.3 292.3 400 160 400z" class="fa-secondary"/></svg>