<svg xmlns="http://www.w3.org/2000/svg" viewBox="0 0 640 512"><!--! Font Awesome Pro 6.2.0 by @fontawesome - https://fontawesome.com License - https://fontawesome.com/license (Commercial License) Copyright 2022 Fonticons, Inc. --><path d="M635.2 100.8l-27.25-27.37c-5.1-5.1-14.12-9.375-22.62-9.375h-46.87c-16.1 0-33.25 6.75-45.25 18.75l-283.2 283.2c-9.125 8.1-23.5 9.875-33.5 1.1c-10.12-7.875-12.75-21.1-6.25-32.1l47.37-78.1h22.37c8.875 0 15.1-7.125 15.1-15.1V223.1c0-8.875-7.125-15.1-15.1-15.1H15.1c-8.875 0-15.1 7.125-15.1 15.1l.0001 16c0 8.5 6.75 15.5 15.25 15.87c-7.75 32.62-15.25 70.88-15.25 96.12c0 61.37 34.1 114.1 85.75 140.9c22.62 12.75 48.25 19.25 74.25 19.13c77.12 0 116.5-51.38 127.1-64l246.4-307.1C540.5 132.4 549.6 128 559.4 128h64.62C638.2 128 645.4 110.8 635.2 100.8zM87.1 391.1c-13.25 0-24-10.75-24-24c0-13.25 10.75-23.1 23.1-23.1s23.1 10.75 23.1 23.1C111.1 381.2 101.2 391.1 87.1 391.1zM119.1 303.1c-13.25 0-23.1-10.75-23.1-24c0-13.25 10.75-23.1 23.1-23.1S143.1 266.7 143.1 279.1C143.1 293.2 133.2 303.1 119.1 303.1z" class="fa-secondary"/></svg>