<svg xmlns="http://www.w3.org/2000/svg" viewBox="0 0 640 512"><!--! Font Awesome Pro 6.2.0 by @fontawesome - https://fontawesome.com License - https://fontawesome.com/license (Commercial License) Copyright 2022 Fonticons, Inc. --><path d="M495.1 448h-143.1V153.3c20.83-9.117 36.72-26.93 43.78-48.77l126.3-42.11c16.77-5.594 25.83-23.72 20.23-40.48c-5.578-16.73-23.62-25.86-40.48-20.23l-113.3 37.76c-13.94-23.49-39.29-39.41-68.58-39.41c-44.18 0-79.1 35.82-79.1 80c0 2.961 .5587 5.771 .8712 8.648L117.9 129.7C101.1 135.3 92.05 153.4 97.64 170.1c4.469 13.41 16.95 21.88 30.36 21.88c3.344 0 6.768-.5186 10.13-1.644L273.8 145.1c4.436 3.15 9.148 5.908 14.19 8.115V496C288 504.8 295.2 512 304 512h223.1c8.838 0 16-7.164 16-15.1C543.1 469.5 522.5 448 495.1 448z" class="fa-secondary"/></svg>