<svg xmlns="http://www.w3.org/2000/svg" viewBox="0 0 576 512"><!--! Font Awesome Pro 6.2.0 by @fontawesome - https://fontawesome.com License - https://fontawesome.com/license (Commercial License) Copyright 2022 Fonticons, Inc. --><path d="M551.7 288L47.98 287.1C21.49 288 0 309.5 0 335.1v96C0 458.5 21.49 480 48 480H528c26.51 0 48-21.49 48-48v-102.4C576 312.3 566.6 296.5 551.7 288zM127.1 399.1c0 8.801-7.199 16-16 16H80.01c-8.801 0-16-7.199-16-16v-31.99c0-8.803 7.199-16 16-16h31.99c8.801 0 16 7.199 16 16V399.1zM223.1 399.1c0 8.801-7.199 16-16 16H176c-8.801 0-16-7.199-16-16v-31.99c0-8.803 7.199-16 16-16h31.99c8.801 0 16 7.198 16 16V399.1z" class="fa-secondary"/></svg>