<svg xmlns="http://www.w3.org/2000/svg" viewBox="0 0 512 512"><!--! Font Awesome Pro 6.2.0 by @fontawesome - https://fontawesome.com License - https://fontawesome.com/license (Commercial License) Copyright 2022 Fonticons, Inc. --><path d="M288 96C323.3 96 352 124.7 352 160V448C352 483.3 323.3 512 288 512H64C28.65 512 0 483.3 0 448V160C0 124.7 28.65 96 64 96H288zM88 160C74.75 160 64 170.7 64 184V200C64 213.3 74.75 224 88 224H264C277.3 224 288 213.3 288 200V184C288 170.7 277.3 160 264 160H88zM80 288C71.16 288 64 295.2 64 304V336C64 344.8 71.16 352 80 352H144C152.8 352 160 344.8 160 336V304C160 295.2 152.8 288 144 288H80zM64 432C64 440.8 71.16 448 80 448H144C152.8 448 160 440.8 160 432V400C160 391.2 152.8 384 144 384H80C71.16 384 64 391.2 64 400V432zM208 288C199.2 288 192 295.2 192 304V336C192 344.8 199.2 352 208 352H272C280.8 352 288 344.8 288 336V304C288 295.2 280.8 288 272 288H208zM192 432C192 440.8 199.2 448 208 448H272C280.8 448 288 440.8 288 432V400C288 391.2 280.8 384 272 384H208C199.2 384 192 391.2 192 400V432z" class="fa-secondary"/></svg>