<svg xmlns="http://www.w3.org/2000/svg" viewBox="0 0 512 512"><!--! Font Awesome Pro 6.2.0 by @fontawesome - https://fontawesome.com License - https://fontawesome.com/license (Commercial License) Copyright 2022 Fonticons, Inc. --><path d="M288 96C323.3 96 352 124.7 352 160V448C352 483.3 323.3 512 288 512H64C28.65 512 0 483.3 0 448V160C0 124.7 28.65 96 64 96H288zM88 160C74.75 160 64 170.7 64 184V424C64 437.3 74.75 448 88 448H264C277.3 448 288 437.3 288 424V184C288 170.7 277.3 160 264 160H88z" class="fa-secondary"/></svg>