<svg xmlns="http://www.w3.org/2000/svg" viewBox="0 0 512 512"><!--! Font Awesome Pro 6.2.0 by @fontawesome - https://fontawesome.com License - https://fontawesome.com/license (Commercial License) Copyright 2022 Fonticons, Inc. --><path d="M248.8 414.2L223.1 401L223.1 496c0 8.836 7.164 16 16 16h32c8.836 0 16-7.164 16-16l-.001-95l-24.88 13.22C258.7 416.6 253.3 416.6 248.8 414.2zM256 0C202.1 0 160 42.98 160 96s42.98 96 95.1 96s96.01-42.98 96.01-96S309 0 256 0zM224 96c-8.836 0-16-7.164-16-16S215.2 64 224 64s16 7.164 16 16S232.8 96 224 96zM288 112c-8.836 0-16-7.164-16-16s7.165-16 16-16s16 7.164 16 16S296.8 112 288 112z" class="fa-secondary"/></svg>