<svg xmlns="http://www.w3.org/2000/svg" viewBox="0 0 512 512"><!--! Font Awesome Pro 6.2.0 by @fontawesome - https://fontawesome.com License - https://fontawesome.com/license (Commercial License) Copyright 2022 Fonticons, Inc. --><path d="M166 323.8l-118.4 118.1c-3.125 3.125-3.125 8.249 0 11.37l11.25 11.25c3.125 3.125 8.25 3.125 11.38 0l118.4-118.2L166 323.8zM120.8 278.6l-118.5 118.1c-2.1 3-2.1 8.125 0 11.25l11.38 11.25c3.127 3.125 8.126 3.125 11.25 0l118.4-118.1L120.8 278.6zM92.88 487.1c-3.125 3.125-3.125 8.125 0 11.25l11.38 11.37c3 3 8.125 3 11.25 0l118.4-118.2l-22.63-22.62L92.88 487.1zM301.8 368.9l-22.54 22.71l117.4 117.2c3.125 3 8.124 3 11.25 0l11.38-11.37c3-3.125 3-8.125 0-11.25L301.8 368.9zM509.8 395.8l-117.5-117.1l-22.5 22.62l117.3 116.1c3.125 3.123 8.25 3.123 11.25 0l11.38-11.25C512.8 403.9 512.8 398.9 509.8 395.8zM347 323.8l-22.63 22.5l117.4 117.2c3.125 3.125 8.25 3.125 11.38 0l11.25-11.25c3.125-3.125 3.125-8.249 0-11.37L347 323.8z" class="fa-secondary"/></svg>