<svg xmlns="http://www.w3.org/2000/svg" viewBox="0 0 576 512"><!--! Font Awesome Pro 6.2.0 by @fontawesome - https://fontawesome.com License - https://fontawesome.com/license (Commercial License) Copyright 2022 Fonticons, Inc. --><path d="M496.1 32H80.54C36.46 32 .625 67.82 .625 111.9v65.95c10.5-1.234 21.13-2.043 31.96-2.043S54.05 176.6 64.55 177.8V111.9c0-8.805 7.18-15.98 15.98-15.98h415.5c8.805 0 15.98 7.176 15.98 15.98v287.6c0 8.805-7.18 15.98-15.98 15.98h-193.8c1.232 10.5 2.041 21.13 2.041 31.96s-.8086 21.45-2.041 31.95h193.8C540.2 479.4 576 443.6 576 399.5V111.9C576 67.82 540.2 32 496.1 32z" class="fa-secondary"/></svg>