<svg xmlns="http://www.w3.org/2000/svg" viewBox="0 0 512 512"><!--! Font Awesome Pro 6.2.0 by @fontawesome - https://fontawesome.com License - https://fontawesome.com/license (Commercial License) Copyright 2022 Fonticons, Inc. --><path d="M222.1 18.41C240.8-.3309 271.2-.3309 289.9 18.41L335.5 64H400C426.5 64 448 85.49 448 112V176.5L493.6 222.1C512.3 240.8 512.3 271.2 493.6 289.9L448 335.5V400C448 426.5 426.5 448 400 448H335.5L289.9 493.6C271.2 512.3 240.8 512.3 222.1 493.6L176.5 448H112C85.49 448 64 426.5 64 400V335.5L18.41 289.9C-.3328 271.2-.3328 240.8 18.41 222.1L64 176.5V112C64 85.49 85.49 64 112 64H176.5L222.1 18.41zM169.4 166.5C164.9 179 171.5 192.7 183.1 197.2C196.5 201.6 210.2 195.1 214.6 182.6L215.1 181.3C216.2 178.1 219.2 176 222.6 176H280.9C289.2 176 296 182.8 296 191.1C296 196.6 293.1 201.6 288.4 204.3L244.1 229.7C236.6 234 232 241.9 232 250.5V264C232 277.3 242.7 288 256 288C269.1 288 279.8 277.5 279.1 264.4L312.3 245.9C331.9 234.7 344 213.8 344 191.1C344 156.3 315.7 128 280.9 128H222.6C198.9 128 177.8 142.9 169.8 165.3L169.4 166.5zM256 320C238.3 320 224 334.3 224 352C224 369.7 238.3 384 256 384C273.7 384 288 369.7 288 352C288 334.3 273.7 320 256 320z" class="fa-secondary"/></svg>