<svg xmlns="http://www.w3.org/2000/svg" viewBox="0 0 640 512"><!--! Font Awesome Pro 6.2.0 by @fontawesome - https://fontawesome.com License - https://fontawesome.com/license (Commercial License) Copyright 2022 Fonticons, Inc. --><path d="M0 64C0 28.65 28.65 0 64 0H192C227.3 0 256 28.65 256 64V192C256 227.3 227.3 256 192 256H64C28.65 256 0 227.3 0 192V64zM64 192H192V64H64V192zM384 320C384 284.7 412.7 256 448 256H576C611.3 256 640 284.7 640 320V448C640 483.3 611.3 512 576 512H448C412.7 512 384 483.3 384 448V320zM448 448H576V320H448V448z" class="fa-secondary"/></svg>