<svg xmlns="http://www.w3.org/2000/svg" viewBox="0 0 640 512"><!--! Font Awesome Pro 6.2.0 by @fontawesome - https://fontawesome.com License - https://fontawesome.com/license (Commercial License) Copyright 2022 Fonticons, Inc. --><path d="M0 96C0 60.65 28.65 32 64 32H384C419.3 32 448 60.65 448 96V128C421.6 128 397.3 142.2 384.3 165.1L233.9 430C227.4 441.5 224 454.5 224 467.7C224 471.9 224.3 475.1 224.1 480H64C28.65 480 0 451.3 0 416L0 96zM64 120V264C64 277.3 74.75 288 88 288C101.3 288 112 277.3 112 264V120C112 106.7 101.3 96 88 96C74.75 96 64 106.7 64 120zM160 120V264C160 277.3 170.7 288 184 288C197.3 288 208 277.3 208 264V120C208 106.7 197.3 96 184 96C170.7 96 160 106.7 160 120z" class="fa-secondary"/></svg>