<svg xmlns="http://www.w3.org/2000/svg" viewBox="0 0 640 512"><!--! Font Awesome Pro 6.2.0 by @fontawesome - https://fontawesome.com License - https://fontawesome.com/license (Commercial License) Copyright 2022 Fonticons, Inc. --><path d="M384 32C419.3 32 448 60.65 448 96V416C448 451.3 419.3 480 384 480H64C28.65 480 0 451.3 0 416V96C0 60.65 28.65 32 64 32H384zM112 120C112 106.7 101.3 96 88 96C74.75 96 64 106.7 64 120V264C64 277.3 74.75 288 88 288C101.3 288 112 277.3 112 264V120zM208 120C208 106.7 197.3 96 184 96C170.7 96 160 106.7 160 120V264C160 277.3 170.7 288 184 288C197.3 288 208 277.3 208 264V120z" class="fa-secondary"/></svg>