<svg xmlns="http://www.w3.org/2000/svg" viewBox="0 0 640 512"><!--! Font Awesome Pro 6.2.0 by @fontawesome - https://fontawesome.com License - https://fontawesome.com/license (Commercial License) Copyright 2022 Fonticons, Inc. --><path d="M0 96C0 60.65 28.65 32 64 32H384C419.3 32 448 60.65 448 96V128.2C435.4 127 422.5 130.9 412.5 139.9C377.1 171.5 346.9 207.6 325.2 242.7C304.3 276.5 288 314.9 288 350.1C288 399.4 306.6 445.3 337.6 480H64C28.65 480 0 451.3 0 416V96zM64 120V264C64 277.3 74.75 288 88 288C101.3 288 112 277.3 112 264V120C112 106.7 101.3 96 88 96C74.75 96 64 106.7 64 120zM160 120V264C160 277.3 170.7 288 184 288C197.3 288 208 277.3 208 264V120C208 106.7 197.3 96 184 96C170.7 96 160 106.7 160 120z" class="fa-secondary"/></svg>