<svg xmlns="http://www.w3.org/2000/svg" viewBox="0 0 512 512"><!--! Font Awesome Pro 6.2.0 by @fontawesome - https://fontawesome.com License - https://fontawesome.com/license (Commercial License) Copyright 2022 Fonticons, Inc. --><path d="M256.3-.0068C261.9-.0507 267.3 1.386 272.1 4.066L476.5 90.53C487.7 95.27 495.2 105.1 495.9 118.1C501.6 213.6 466.7 421.9 272.5 507.7C267.6 510.5 261.1 512.1 256.3 512C250.5 512.1 244.9 510.5 239.1 507.7C45.8 421.9 10.95 213.6 16.57 118.1C17.28 105.1 24.83 95.27 36.04 90.53L240.4 4.066C245.2 1.386 250.7-.0507 256.3-.0068H256.3zM159.1 160C151.2 160 143.1 167.2 143.1 176V232C143.1 248.9 154.5 263.4 169.4 269.2L143.1 320L272 384V320H320C364.2 320 400 284.2 400 240V208C400 199.2 392.8 192 384 192H320L312.8 177.7C307.4 166.8 296.3 160 284.2 160H159.1z" class="fa-secondary"/></svg>