<svg xmlns="http://www.w3.org/2000/svg" viewBox="0 0 512 512"><!--! Font Awesome Pro 6.2.0 by @fontawesome - https://fontawesome.com License - https://fontawesome.com/license (Commercial License) Copyright 2022 Fonticons, Inc. --><path d="M174.6 303.7l33.95 33.92L231.2 315.1L197.2 281.1L174.6 303.7zM7.054 470.1c-9.396 9.375-9.403 24.61-.0166 33.99c9.381 9.383 24.6 9.388 33.98 .0049l81.91-81.9l-33.94-33.94L7.054 470.1zM511.2 84.12c-3.875-29.75-21.13-55.75-47.5-71.25c-30.37-17.62-67.1-17.13-97.87 1.375c-42.62 26.75-58.12 79.75-35.87 124.6c1.5 2.875 2.25 7.125 0 9.5l-47.12 47.12l33.94 33.94l47.14-47.19c16.62-16.75 20.29-42.13 9.042-64.63c-9.625-19.5-5.999-48.25 19.62-63.37c14.12-8.5 31.62-8.583 45.87-.5833c14.25 8 23.21 20.96 25.21 36.46c1.25 10.38-.855 20.96-5.978 30.09c-3.75 6.375-3.354 14.29 1.896 19.54l12.25 12.29c6.75 6.75 18.12 6.126 23.5-1.749C508.6 130.9 514.2 107.4 511.2 84.12z" class="fa-secondary"/></svg>