<svg xmlns="http://www.w3.org/2000/svg" viewBox="0 0 640 512"><!--! Font Awesome Pro 6.2.0 by @fontawesome - https://fontawesome.com License - https://fontawesome.com/license (Commercial License) Copyright 2022 Fonticons, Inc. --><path d="M512 375.1V224H576V426.2L512 375.1zM320 225.5V224H384V275.7L320 225.5zM74.13 32.8L81.75 21.37C90.65 8.021 105.6 0 121.7 0H518.3C534.4 0 549.3 8.021 558.2 21.37L633.8 134.7C637.8 140.8 640 147.9 640 155.2C640 175.5 623.5 192 603.2 192H277.3L74.13 32.8zM0 155.2C0 147.9 2.153 140.8 6.188 134.7L20.98 112.5L121.8 192H36.84C16.5 192 .0003 175.5 .0003 155.2H0zM320 384V348.1L384 398.5V464C384 490.5 362.5 512 336 512H112C85.49 512 64 490.5 64 464V224H128V384H320z" class="fa-secondary"/></svg>