<svg xmlns="http://www.w3.org/2000/svg" viewBox="0 0 640 512"><!--! Font Awesome Pro 6.2.0 by @fontawesome - https://fontawesome.com License - https://fontawesome.com/license (Commercial License) Copyright 2022 Fonticons, Inc. --><path d="M449.6 192H36.84C16.5 192 0 175.5 0 155.2C0 147.9 2.153 140.8 6.188 134.7L81.75 21.37C90.65 8.021 105.6 0 121.7 0H518.3C534.4 0 549.3 8.021 558.2 21.37L633.8 134.7C637.8 140.8 640 147.9 640 155.2C640 174.5 625.2 190.3 606.3 191.9C586.1 172.2 558.5 160 528 160C497.5 160 469.8 172.2 449.6 192H449.6zM384 464C384 490.5 362.5 512 336 512H112C85.49 512 64 490.5 64 464V224H128V384H320V224H384V464z" class="fa-secondary"/></svg>