<svg xmlns="http://www.w3.org/2000/svg" viewBox="0 0 512 512"><!--! Font Awesome Pro 6.2.0 by @fontawesome - https://fontawesome.com License - https://fontawesome.com/license (Commercial License) Copyright 2022 Fonticons, Inc. --><path d="M504.1 81.77l-74.98-75.01c-9.016-9.037-24.95-9.006-33.94 0l-29.02 29.05c-14.55 14.54-22.56 33.89-22.56 54.47c0 12.28 3.17 23.97 8.561 34.62l-93.53 93.69l33.88 33.9l93.6-93.64c10.62 5.359 22.27 8.508 34.51 8.508c20.59 0 39.94-8.004 54.47-22.57l29.02-29.05C514.3 106.3 514.3 91.15 504.1 81.77zM441.1 110.8c-10.94 11.01-30.08 11.01-41.02 0c-5.484-5.473-8.516-12.79-8.516-20.54s3.016-15.04 8.5-20.51l12.05-12.07l41.05 41.05L441.1 110.8zM203.3 244.6c-6.125-6.379-16.38-6.379-22.5 0l-80.01 80.04c-6.25 6.129-6.25 16.38 0 22.51c3 3.129 7.124 4.753 11.25 4.753c4.125 0 8.25-1.624 11.25-4.753l80.01-80.04C209.5 261 209.5 250.8 203.3 244.6zM244.8 308.7l-80 80.04c-6.252 6.129-6.252 16.38 0 22.51c3 3.127 7.125 4.753 11.25 4.753c4.127 0 8.251-1.626 11.25-4.753l80.01-80.04c6.375-6.129 6.25-16.38 0-22.51C261.1 302.4 250.9 302.4 244.8 308.7z" class="fa-secondary"/></svg>