<svg xmlns="http://www.w3.org/2000/svg" viewBox="0 0 512 512"><!--! Font Awesome Pro 6.2.0 by @fontawesome - https://fontawesome.com License - https://fontawesome.com/license (Commercial License) Copyright 2022 Fonticons, Inc. --><path d="M288 320c0-17.67-14.33-32-32-32s-32 14.33-32 32c0 17.67 14.33 32 32 32S288 337.7 288 320zM320 288c17.67 0 32-14.33 32-32c0-17.67-14.33-32-32-32s-32 14.33-32 32C288 273.7 302.3 288 320 288zM384 224c17.67 0 32-14.33 32-32c0-17.67-14.33-32-32-32s-32 14.33-32 32C352 209.7 366.3 224 384 224zM288 384c-17.67 0-32 14.33-32 32c0 17.67 14.33 32 32 32s32-14.33 32-32C320 398.3 305.7 384 288 384zM416 256c-17.67 0-32 14.33-32 32c0 17.67 14.33 32 32 32s32-14.33 32-32C448 270.3 433.7 256 416 256zM352 320c-17.67 0-32 14.33-32 32c0 17.67 14.33 32 32 32s32-14.33 32-32C384 334.3 369.7 320 352 320zM480 192c-17.67 0-32 14.33-32 32c0 17.67 14.33 32 32 32s32-14.33 32-32C512 206.3 497.7 192 480 192z" class="fa-secondary"/></svg>