<svg xmlns="http://www.w3.org/2000/svg" viewBox="0 0 512 512"><!--! Font Awesome Pro 6.2.0 by @fontawesome - https://fontawesome.com License - https://fontawesome.com/license (Commercial License) Copyright 2022 Fonticons, Inc. --><path d="M424 416v72C424 501.3 434.7 512 448 512s24-10.75 24-23.1V416H424zM40 488C40 501.3 50.75 512 63.1 512S88 501.3 88 488V416h-48V488zM232 488C232 501.3 242.7 512 256 512s24-10.75 24-23.1V416h-48V488zM136 488C136 501.3 146.7 512 159.1 512S184 501.3 184 488V416h-48V488zM328 488C328 501.3 338.7 512 352 512s24-10.75 24-23.1V416h-48V488zM448 192V77.25c0-8.484-3.375-16.62-9.375-22.62l-45.25-45.25C387.4 3.375 379.2 0 370.8 0H96C78.34 0 64 14.33 64 32v160h64V64h229.5L384 90.51V192H448z" class="fa-secondary"/></svg>