<svg xmlns="http://www.w3.org/2000/svg" viewBox="0 0 512 512"><!--! Font Awesome Pro 6.2.0 by @fontawesome - https://fontawesome.com License - https://fontawesome.com/license (Commercial License) Copyright 2022 Fonticons, Inc. --><path d="M32.01 96c0-17.64 14.34-32 32-32h368c8.844 0 16-7.156 16-16S440.8 32 432 32h-368C28.72 32 .0055 60.7 .0055 96s28.72 64 64 64h2.879C65.13 149.6 64.01 138.9 64.01 128C46.35 128 32.01 113.6 32.01 96zM320 128h-32v192h32V128zM320.2 409.1l-.2324-.0898V480h16c5.406 0 10.72-.375 16-.8516v-68.39C342 413.1 330.9 414 320.2 409.1zM507.9 270c-2.242-11.28-5.492-22.08-9.824-32.41l-130.6 94.97c8.258 7.17 13.93 16.96 15.71 28.13L507.9 270zM368.2 401.6l81.75 36.34c8.668-7.383 16.57-15.6 23.66-24.51l-90.15-40.06C382.1 384.9 376.4 394.6 368.2 401.6z" class="fa-secondary"/></svg>