<svg xmlns="http://www.w3.org/2000/svg" viewBox="0 0 512 512"><!--! Font Awesome Pro 6.2.0 by @fontawesome - https://fontawesome.com License - https://fontawesome.com/license (Commercial License) Copyright 2022 Fonticons, Inc. --><path d="M112 352H32c-17.69 0-32 14.31-32 32s14.31 32 32 32h96c10.06 0 19.56-4.75 25.59-12.81L224 309.3L184 256L112 352zM504.1 111l-79.1-79.98c-15.13-15.12-40.99-4.391-40.99 17V96H320c-10.06 0-19.56 4.75-25.59 12.81L224 202.7L263.1 256L336 160h47.97v48.03c0 21.39 25.87 32.09 40.1 16.97l79.1-79.98C514.4 135.6 514.3 120.4 504.1 111z" class="fa-secondary"/></svg>