<svg xmlns="http://www.w3.org/2000/svg" viewBox="0 0 640 512"><!--! Font Awesome Pro 6.2.0 by @fontawesome - https://fontawesome.com License - https://fontawesome.com/license (Commercial License) Copyright 2022 Fonticons, Inc. --><path d="M96 128H32V80C32 53.49 53.49 32 80 32H96V128zM96 480H80C53.49 480 32 458.5 32 432V384H96V480zM128 480V380.3C144.1 375.3 158.1 365.2 168 352H405.3L245.2 448.1C210.4 468.1 170.6 480 129.1 480H128zM128 131.7V32H129.1C170.6 32 210.4 43.03 245.2 63.92L405.3 160H168C158.1 146.8 144.1 136.7 127.1 131.7H128z" class="fa-secondary"/></svg>