<svg xmlns="http://www.w3.org/2000/svg" viewBox="0 0 640 512"><!--! Font Awesome Pro 6.2.0 by @fontawesome - https://fontawesome.com License - https://fontawesome.com/license (Commercial License) Copyright 2022 Fonticons, Inc. --><path d="M351.1 463.1c0 26.4 21.6 48 48 48s48-21.6 48-48v-16.19l-96-75.24V463.1zM80 383.1c-26.4 0-48 21.6-48 48v31.1c0 26.4 21.6 48 48 48s48-21.6 48-48v-31.1C128 405.6 106.4 383.1 80 383.1zM399.1 127.1c-26.4 0-48 21.6-48 48v74.58l96 75.24V175.1C447.1 149.6 426.4 127.1 399.1 127.1zM559.1 0c-26.4 0-48 21.6-48 48v327.1l96 75.24V48C607.1 21.6 586.4 0 559.1 0zM192 304v160C192 490.4 213.6 512 240 512S288 490.4 288 464v-141.4L213.4 264.1C200.5 272.8 192 287.4 192 304z" class="fa-secondary"/></svg>