<svg xmlns="http://www.w3.org/2000/svg" viewBox="0 0 640 512"><!--! Font Awesome Pro 6.2.0 by @fontawesome - https://fontawesome.com License - https://fontawesome.com/license (Commercial License) Copyright 2022 Fonticons, Inc. --><path d="M576.8 21.06C574.4 13.71 577.5 5.651 584.4 1.946C591.2-1.759 599.7-.0479 604.5 6.006L611.1 15.33C630.1 38.04 640 66.44 640 95.47C640 166.1 582.8 224 512 224H480V175.1C480 157.1 474.1 141.4 464 128H534.1C563.7 128 587.7 106.3 590.6 77.7C591.3 69.86 590.5 61.95 587.1 54.48L576.8 21.06zM160 175.1V224H128C57.21 224 0 166.1 0 95.47C0 66.44 9.875 38.04 28.05 15.33L35.51 6.006C40.35-.0482 48.84-1.759 55.65 1.946C62.46 5.651 65.63 13.71 63.18 21.06L52.04 54.48C49.55 61.95 48.67 69.86 49.45 77.7C52.31 106.3 76.33 128 105 128H175.1C165.1 141.4 160 157.1 160 175.1z" class="fa-secondary"/></svg>