<svg xmlns="http://www.w3.org/2000/svg" viewBox="0 0 448 512"><!--! Font Awesome Pro 6.2.0 by @fontawesome - https://fontawesome.com License - https://fontawesome.com/license (Commercial License) Copyright 2022 Fonticons, Inc. --><path d="M223.1 348.2L401.7 259.4C417.5 251.5 436.7 257.9 444.6 273.7C452.5 289.5 446.1 308.7 430.3 316.6L295.6 384L430.3 451.4C446.1 459.3 452.5 478.5 444.6 494.3C436.7 510.1 417.5 516.5 401.7 508.6L223.1 419.8L46.31 508.6C30.5 516.5 11.28 510.1 3.378 494.3C-4.526 478.5 1.881 459.3 17.69 451.4L152.4 384L17.69 316.6C1.881 308.7-4.526 289.5 3.378 273.7C11.28 257.9 30.5 251.5 46.31 259.4L223.1 348.2z" class="fa-secondary"/></svg>