<svg xmlns="http://www.w3.org/2000/svg" viewBox="0 0 512 512"><!--! Font Awesome Pro 6.2.0 by @fontawesome - https://fontawesome.com License - https://fontawesome.com/license (Commercial License) Copyright 2022 Fonticons, Inc. --><path d="M96 0C113.7 0 128 14.33 128 32V86.66C118.2 82.38 107.4 80 96 80C84.62 80 73.8 82.38 64 86.66V32C64 14.33 78.33 0 96 0V0zM96 240C107.4 240 118.2 237.6 128 233.3V480C128 497.7 113.7 512 96 512C78.33 512 64 497.7 64 480V233.3C73.8 237.6 84.62 240 96 240zM256 0C273.7 0 288 14.33 288 32V278.7C278.2 274.4 267.4 272 256 272C244.6 272 233.8 274.4 224 278.7V32C224 14.33 238.3 0 256 0V0zM256 432C267.4 432 278.2 429.6 288 425.3V480C288 497.7 273.7 512 256 512C238.3 512 224 497.7 224 480V425.3C233.8 429.6 244.6 432 256 432zM448 118.7C438.2 114.4 427.4 112 416 112C404.6 112 393.8 114.4 384 118.7V32C384 14.33 398.3 0 416 0C433.7 0 448 14.33 448 32V118.7zM384 265.3C393.8 269.6 404.6 272 416 272C427.4 272 438.2 269.6 448 265.3V480C448 497.7 433.7 512 416 512C398.3 512 384 497.7 384 480V265.3z" class="fa-secondary"/></svg>