<svg xmlns="http://www.w3.org/2000/svg" viewBox="0 0 512 512"><!--! Font Awesome Pro 6.2.0 by @fontawesome - https://fontawesome.com License - https://fontawesome.com/license (Commercial License) Copyright 2022 Fonticons, Inc. --><path d="M0 416C0 398.3 14.33 384 32 384H86.66C82.38 393.8 80 404.6 80 416C80 427.4 82.38 438.2 86.66 448H32C14.33 448 0 433.7 0 416zM240 416C240 404.6 237.6 393.8 233.3 384H480C497.7 384 512 398.3 512 416C512 433.7 497.7 448 480 448H233.3C237.6 438.2 240 427.4 240 416V416zM0 256C0 238.3 14.33 224 32 224H278.7C274.4 233.8 272 244.6 272 256C272 267.4 274.4 278.2 278.7 288H32C14.33 288 0 273.7 0 256V256zM432 256C432 244.6 429.6 233.8 425.3 224H480C497.7 224 512 238.3 512 256C512 273.7 497.7 288 480 288H425.3C429.6 278.2 432 267.4 432 256zM118.7 64C114.4 73.8 112 84.62 112 96C112 107.4 114.4 118.2 118.7 128H32C14.33 128 0 113.7 0 96C0 78.33 14.33 64 32 64H118.7zM265.3 128C269.6 118.2 272 107.4 272 96C272 84.62 269.6 73.8 265.3 64H480C497.7 64 512 78.33 512 96C512 113.7 497.7 128 480 128H265.3z" class="fa-secondary"/></svg>