<svg xmlns="http://www.w3.org/2000/svg" viewBox="0 0 640 512"><!--! Font Awesome Pro 6.2.0 by @fontawesome - https://fontawesome.com License - https://fontawesome.com/license (Commercial License) Copyright 2022 Fonticons, Inc. --><path d="M448 96H64C28.65 96 0 124.7 0 160v192c0 35.35 28.65 64 64 64h384c35.35 0 64-28.65 64-64V160C512 124.7 483.3 96 448 96zM166.6 208.1l-40 112C123.1 329.9 113.8 336 104 336c-2.688 0-5.406-.4375-8.062-1.406c-12.5-4.438-19-18.19-14.53-30.66L109.9 224H80C66.75 224 56 213.3 56 200S66.75 176 80 176h64c7.812 0 15.12 3.781 19.62 10.19C168.1 192.6 169.2 200.7 166.6 208.1zM310.6 208.1l-40 112C267.1 329.9 257.8 336 248 336c-2.688 0-5.406-.4375-8.062-1.406c-12.5-4.438-19-18.19-14.53-30.66L253.9 224H224C210.8 224 200 213.3 200 200S210.8 176 224 176h64c7.812 0 15.12 3.781 19.62 10.19C312.1 192.6 313.2 200.7 310.6 208.1zM454.6 208.1l-40 112C411.1 329.9 401.8 336 392 336c-2.688 0-5.406-.4375-8.062-1.406c-12.5-4.438-19-18.19-14.53-30.66L397.9 224H368c-13.25 0-24-10.75-24-24S354.8 176 368 176h64c7.812 0 15.12 3.781 19.62 10.19C456.1 192.6 457.2 200.7 454.6 208.1z" class="fa-secondary"/></svg>