<svg xmlns="http://www.w3.org/2000/svg" viewBox="0 0 640 512"><!--! Font Awesome Pro 6.2.0 by @fontawesome - https://fontawesome.com License - https://fontawesome.com/license (Commercial License) Copyright 2022 Fonticons, Inc. --><path d="M136 464H23.1C10.8 464 0 474.8 0 487.1S10.8 512 23.1 512H136C149.2 512 160 501.2 160 488S149.2 464 136 464zM616 368h-528C74.8 368 64 378.8 64 391.1S74.8 416 87.1 416h528c13.2 0 24-10.8 24-23.1S629.2 368 616 368zM552 464H231.1C218.8 464 208 474.8 208 487.1S218.8 512 231.1 512H552c13.2 0 24-10.8 24-23.1S565.2 464 552 464z" class="fa-secondary"/></svg>