<svg xmlns="http://www.w3.org/2000/svg" viewBox="0 0 640 512"><!--! Font Awesome Pro 6.2.0 by @fontawesome - https://fontawesome.com License - https://fontawesome.com/license (Commercial License) Copyright 2022 Fonticons, Inc. --><path d="M416 240h136C600.5 240 640 200.5 640 152S600.5 64 552 64H544c-17.67 0-32 14.31-32 32s14.33 32 32 32h8C565.2 128 576 138.8 576 152S565.2 176 552 176H416c-17.67 0-32 14.31-32 32S398.3 240 416 240zM552 272H416c-17.67 0-32 14.31-32 32s14.33 32 32 32h136c13.23 0 24 10.78 24 24S565.2 384 552 384H544c-17.67 0-32 14.31-32 32s14.33 32 32 32h8c48.53 0 88-39.47 88-88S600.5 272 552 272z" class="fa-secondary"/></svg>