<svg xmlns="http://www.w3.org/2000/svg" viewBox="0 0 512 512"><!--! Font Awesome Pro 6.2.0 by @fontawesome - https://fontawesome.com License - https://fontawesome.com/license (Commercial License) Copyright 2022 Fonticons, Inc. --><path d="M152.8 180.7L103.8 160c0-.5 .25-1 .25-1.5V111.6C104 103 96.76 96 88.01 96h-16c-8.75 0-16 7-16 15.62v29l-28.25-11.5c-8.125-3.25-17.5 .625-20.75 8.625l-5.875 14.5C-2.119 160.4 1.881 169.5 10.01 172.6L144.4 228.4c-.0664-1.5-.4428-2.915-.4428-4.432C144 208.6 147.2 193.1 152.8 180.7zM510.9 152.3l-5.875-14.5c-3.25-8-12.62-11.88-20.75-8.625l-28.25 11.5v-29C455.1 103 448.7 96 439.1 96h-16c-8.75 0-16 7-16 15.62V158.5c0 .5 .25 1 .25 1.5l-48.98 20.6c5.684 13.33 8.74 27.98 8.74 43.4c0 1.518-.3764 2.932-.4428 4.432l134.4-55.8C510.1 169.5 514.1 160.4 510.9 152.3zM256 335.1c-8.75 0-15.1 7.25-15.1 15.1S247.3 367.1 256 367.1s15.1-7.25 15.1-15.1S264.8 335.1 256 335.1zM256 207.1c-8.75 0-15.1 7.25-15.1 15.1S247.3 239.1 256 239.1s15.1-7.25 15.1-15.1S264.8 207.1 256 207.1zM256 271.1c-8.75 0-15.1 7.25-15.1 15.1S247.3 303.1 256 303.1s15.1-7.25 15.1-15.1S264.8 271.1 256 271.1z" class="fa-secondary"/></svg>