<svg xmlns="http://www.w3.org/2000/svg" viewBox="0 0 448 512"><!--! Font Awesome Pro 6.2.0 by @fontawesome - https://fontawesome.com License - https://fontawesome.com/license (Commercial License) Copyright 2022 Fonticons, Inc. --><path d="M390.1 256H58.38C41.86 284.3 32 316.9 32 352c0 57.28 25.11 108.7 64.89 143.8C108.7 506.3 123.1 512 139.8 512h168.5c15.54 0 30.68-5.508 42.35-15.76c49.72-43.66 76.71-112.6 60.8-186.7C407.3 290.4 399.8 272.5 390.1 256zM152 336c-13.37 0-24.07-10.84-24.07-24.07C127.1 298.7 138.8 288 152 288s23.93 10.84 23.93 23.93C175.1 325.2 165.1 336 152 336zM224 448c0 0-32-46.25-32-64s14.25-32 31.1-32s32 14.25 32 32S224 448 224 448zM295.9 336c-13.23 0-23.93-10.84-23.93-24.07C272 298.7 282.8 288 295.9 288c13.37 0 24.07 10.84 24.07 23.93C320.1 325.2 309.3 336 295.9 336z" class="fa-secondary"/></svg>