<svg xmlns="http://www.w3.org/2000/svg" viewBox="0 0 512 512"><!--! Font Awesome Pro 6.2.0 by @fontawesome - https://fontawesome.com License - https://fontawesome.com/license (Commercial License) Copyright 2022 Fonticons, Inc. --><path d="M320 128c-35.35 0-64 28.65-64 64c0 35.35 28.65 64 64 64s64-28.65 64-64C384 156.7 355.3 128 320 128zM208 0C181.5 0 160 21.49 160 48S181.5 96 208 96S256 74.51 256 48S234.5 0 208 0zM384 0c-17.67 0-32 14.33-32 32c0 17.67 14.33 32 32 32s32-14.33 32-32C416 14.33 401.7 0 384 0z" class="fa-secondary"/></svg>