<svg xmlns="http://www.w3.org/2000/svg" viewBox="0 0 576 512"><!--! Font Awesome Pro 6.2.0 by @fontawesome - https://fontawesome.com License - https://fontawesome.com/license (Commercial License) Copyright 2022 Fonticons, Inc. --><path d="M160 127.1h160l-.0023-31.1h-160L160 127.1zM159.1 271.1l-86.64 64.61c-39.35 29.55-53.89 84.37-29.24 127c17.32 29.97 49.36 48.42 83.97 48.36c20.75 .0098 40.93-6.754 57.51-19.22l21.87-16.38c-29.85-55.41-13.58-125.8 39.16-165.4l73.36-55l.0049-96h-160L159.1 271.1zM192 0C174.3 0 159.1 14.33 159.1 32l.0042 32h160l-.0029-32c.0645-10.64 2.816-21.09 8-30.38C325.4 .9229 322.8 0 319.1 0H192zM351.1 64v31.1H544V64H351.1zM352 159.1h192v-32h-192V159.1z" class="fa-secondary"/></svg>