<svg xmlns="http://www.w3.org/2000/svg" viewBox="0 0 512 512"><!--! Font Awesome Pro 6.2.0 by @fontawesome - https://fontawesome.com License - https://fontawesome.com/license (Commercial License) Copyright 2022 Fonticons, Inc. --><path d="M391.8 188.1c-10.58 10.58-24.82 14.51-38.64 13.14c23.99 42.67 18.37 97.7-17.9 133.1c-43.5 44.32-114.7 44.95-159 1.455S131.2 221.1 174.7 177.7c35.79-36.46 91.67-44.25 136-18.9c-1.357-13.8 2.577-27.97 13.15-38.54c2.102-2.104 4.746-3.095 7.113-4.726c-23.46-12.52-49.05-19.51-74.97-19.51C167.7 96.01 96 167.6 96.01 256c.0059 88.36 71.64 159.1 160 159.1c42.43-.0039 83.11-16.87 113.1-46.87c51.02-51.02 59.67-127.6 27.37-188.1C394.9 183.4 393.9 186 391.8 188.1zM336.9 447.6c-78 32.85-168.1 15.28-228-44.53c-69.58-69.57-79.29-176.5-29.5-256.7C62.7 142.8 48.73 131.5 41.62 116c-64.97 99.28-53.88 233.8 33.34 320.1c76.11 76.31 191.9 96.57 289.4 50.62c-2.191-1.803-4.477-3.326-6.529-5.375C348.3 472.5 341 460.6 336.9 447.6zM437.1 75c-76.11-76.31-191.1-96.57-289.5-50.62c2.188 1.803 4.48 3.327 6.527 5.374c9.602 9.725 16.82 21.59 20.98 34.61c78-32.85 168.1-15.28 228 44.53c69.58 69.57 79.29 176.5 29.5 256.7c16.69 3.578 30.67 14.85 37.77 30.36C535.3 296.7 524.3 162.2 437.1 75z" class="fa-secondary"/></svg>