<svg xmlns="http://www.w3.org/2000/svg" viewBox="0 0 512 512"><!--! Font Awesome Pro 6.2.0 by @fontawesome - https://fontawesome.com License - https://fontawesome.com/license (Commercial License) Copyright 2022 Fonticons, Inc. --><path d="M256 320C160.8 320 73.15 304.7 1.027 279.1C.3472 271.5 0 263.8 0 256C0 114.6 114.6 0 256 0C316.5 0 372.2 21.02 416 56.15V96H368V160H448V224H510C511.3 234.5 512 245.2 512 256C512 263.8 511.7 271.5 510.1 279.1C438.8 304.7 351.2 320 256 320zM192 80C147.8 80 112 115.8 112 160C112 204.2 147.8 240 192 240C236.2 240 272 204.2 272 160C272 115.8 236.2 80 192 80zM256 352C300.3 352 343.3 348.8 384 342.8V384H448V425.3C401.1 478.5 332.5 512 256 512C134.9 512 33.38 427.9 6.794 314.8C79.44 338.4 164.7 352 256 352z" class="fa-secondary"/></svg>