<svg xmlns="http://www.w3.org/2000/svg" viewBox="0 0 576 512"><!--! Font Awesome Pro 6.2.0 by @fontawesome - https://fontawesome.com License - https://fontawesome.com/license (Commercial License) Copyright 2022 Fonticons, Inc. --><path d="M178.1 23.76C181.1 15.18 175.9 6.494 167.3 4.354L151.7 .4805C143.1-1.66 134.4 3.553 132.2 12.12L104 122.2c-1.892 7.543 0 15.53 5.08 21.44l53.47 62.15L191.6 224H207.7V184.4l-53.91-62.66L178.1 23.76zM471.1 122.2L443.8 12.12c-2.151-8.57-10.87-13.78-19.47-11.64l-15.58 3.873c-8.607 2.141-13.84 10.83-11.69 19.4l25.2 98.02L368.3 184.4V224h16.06l29.06-18.23l53.47-62.15C471.1 137.7 473.9 129.7 471.1 122.2zM320.1 288H255.9c-6.65 0-10.41 7.5-6.394 12.75L275.1 336l-26.46 35.25C245.5 376.5 249.2 384 255.9 384h64.2c6.65 0 10.41-7.5 6.395-12.75L300 336l26.46-35.25C330.5 295.5 326.8 288 320.1 288z" class="fa-secondary"/></svg>