<svg xmlns="http://www.w3.org/2000/svg" viewBox="0 0 576 512"><!--! Font Awesome Pro 6.2.0 by @fontawesome - https://fontawesome.com License - https://fontawesome.com/license (Commercial License) Copyright 2022 Fonticons, Inc. --><path d="M165.3 97.67L177.1 63.86L214.4 70.68L235.1 107L235.1 107.2C270.4 113.3 305.6 113.3 340 107.2L340.9 107L361.6 70.68L398 63.86L410.7 97.67L388.5 136.6L389.2 138.6C400.6 171.1 417.7 201.4 439.6 227.1H484.2L507.6 256L484.2 283.1H439.6C417.7 310.6 400.7 340.9 389.2 373.4L388.5 375.4L410.7 414.3L398 448.1L361.6 441.3L340.9 404.1L340 404.8C305.6 398.7 270.4 398.7 235.1 404.8L235.1 404.1L214.4 441.3L177.1 448.1L165.3 414.3L187.5 375.4L186.8 373.4C175.3 340.9 158.3 310.6 136.4 283.1H91.78L68.45 256L91.78 227.1H136.4C158.3 201.4 175.3 171.1 186.8 138.6L187.5 136.6L165.3 97.67zM239.8 228L217.6 189.3C211.2 202.7 203.9 215.6 195.8 228H239.8zM311.2 159C295.7 160.1 280.3 160.1 264.8 159L287.1 199.6L311.2 159zM380.2 228C372.1 215.6 364.8 202.7 358.4 189.3L336.2 228H380.2zM358.4 322.7C364.8 309.3 372.1 296.4 380.2 284H336.2L358.4 322.7zM264.8 352.1C280.3 351.9 295.7 351.9 311.2 352.1L287.1 312.4L264.8 352.1zM195.8 284C203.9 296.4 211.2 309.3 217.6 322.7L239.8 284H195.8z" class="fa-secondary"/></svg>