<svg xmlns="http://www.w3.org/2000/svg" viewBox="0 0 576 512"><!--! Font Awesome Pro 6.2.0 by @fontawesome - https://fontawesome.com License - https://fontawesome.com/license (Commercial License) Copyright 2022 Fonticons, Inc. --><path d="M287.1 64C181.1 64 95.1 149.1 95.1 256C95.1 362 181.1 448 287.1 448C358.1 448 419.3 410.5 452.9 354.4L453 354.5C446.1 369.4 451.5 387.3 465.1 395.7C481.3 404.6 500.9 399.3 509.7 384C509.9 383.7 510.1 383.4 510.2 383.1C466.1 460.1 383.1 512 288 512C146.6 512 32 397.4 32 256C32 114.6 146.6 0 288 0C270.3 0 256 14.33 256 32C256 49.67 270.3 64 288 64H287.1z" class="fa-secondary"/></svg>