<svg xmlns="http://www.w3.org/2000/svg" viewBox="0 0 512 512"><!--! Font Awesome Pro 6.2.0 by @fontawesome - https://fontawesome.com License - https://fontawesome.com/license (Commercial License) Copyright 2022 Fonticons, Inc. --><path d="M320 64C320 81.67 305.7 96 288 96C270.3 96 256 81.67 256 64C256 46.33 270.3 32 288 32C305.7 32 320 46.33 320 64zM240 336C240 380.2 204.2 416 160 416C115.8 416 80 380.2 80 336C80 291.8 115.8 256 160 256C204.2 256 240 291.8 240 336zM352 64C352 46.33 366.3 32 384 32C401.7 32 416 46.33 416 64C416 81.67 401.7 96 384 96C366.3 96 352 81.67 352 64zM512 64C512 81.67 497.7 96 480 96C462.3 96 448 81.67 448 64C448 46.33 462.3 32 480 32C497.7 32 512 46.33 512 64zM448 160C448 142.3 462.3 128 480 128C497.7 128 512 142.3 512 160C512 177.7 497.7 192 480 192C462.3 192 448 177.7 448 160zM512 256C512 273.7 497.7 288 480 288C462.3 288 448 273.7 448 256C448 238.3 462.3 224 480 224C497.7 224 512 238.3 512 256zM352 160C352 142.3 366.3 128 384 128C401.7 128 416 142.3 416 160C416 177.7 401.7 192 384 192C366.3 192 352 177.7 352 160z" class="fa-secondary"/></svg>