<svg xmlns="http://www.w3.org/2000/svg" viewBox="0 0 576 512"><!--! Font Awesome Pro 6.2.0 by @fontawesome - https://fontawesome.com License - https://fontawesome.com/license (Commercial License) Copyright 2022 Fonticons, Inc. --><path d="M128 32V96H96c-17.7 0-32 14.3-32 32v32H0V128C0 75 43 32 96 32h32zM0 320V192H64V320H0zm0 32H64v32c0 17.7 14.3 32 32 32h32v64H96c-53 0-96-43-96-96V352zM448 192.7c-5.3-.5-10.6-.7-16-.7c-16.6 0-32.7 2.3-48 6.6V128c0-17.7-14.3-32-32-32H320V32h32c53 0 96 43 96 96v64.7zM262.6 416c5.5 19.3 14.1 37.2 25.4 53.2V480H160V416H262.6zM288 96H160V32H288V96z" class="fa-secondary"/></svg>