<svg xmlns="http://www.w3.org/2000/svg" viewBox="0 0 576 512"><!--! Font Awesome Pro 6.2.0 by @fontawesome - https://fontawesome.com License - https://fontawesome.com/license (Commercial License) Copyright 2022 Fonticons, Inc. --><path d="M0 96C0 60.65 28.65 32 64 32H384C419.3 32 448 60.65 448 96V161.1C393.7 168.9 351.1 215.6 351.1 272V296.6C342.1 302.3 333.9 310.6 328.2 320.6L245.8 141.9C241.9 133.4 233.4 127.1 224 127.1C214.6 127.1 206.1 133.4 202.2 141.9L106.2 349.9C100.7 361.1 105.9 376.2 117.9 381.8C129.1 387.3 144.2 382.1 149.8 370.1L161.8 343.1H286.2L298.2 370.1C302.3 378.8 310.9 384 319.1 384V480H64C28.65 480 0 451.3 0 416V96zM183.1 295.1L224 209.3L264 295.1H183.1z" class="fa-secondary"/></svg>