<svg xmlns="http://www.w3.org/2000/svg" viewBox="0 0 448 512"><!--! Font Awesome Pro 6.2.0 by @fontawesome - https://fontawesome.com License - https://fontawesome.com/license (Commercial License) Copyright 2022 Fonticons, Inc. --><path d="M384 32H64C28.65 32 0 60.65 0 96v320c0 35.35 28.65 64 64 64h320c35.35 0 64-28.65 64-64V96C448 60.65 419.3 32 384 32zM387.1 278.2l-27.41 43.85c-3.967 6.354-12.02 9.043-19.06 6.248l-54.81-21.92c-6.475-2.562-10.46-9.184-9.721-16.07l3.447-34.61C243.9 243.3 204.1 243.3 167.6 255.7L171.1 290.3c.6953 6.906-3.271 13.47-9.713 16.06l-54.82 21.93c-7.07 2.764-15.08 .1387-19.07-6.258L60.04 278.2c-3.889-6.188-2.979-14.15 2.203-19.33c89.2-89.2 234.3-89.19 323.5-.002C390.9 264.1 391.8 272 387.1 278.2z" class="fa-secondary"/></svg>