<svg xmlns="http://www.w3.org/2000/svg" viewBox="0 0 576 512"><!--! Font Awesome Pro 6.2.0 by @fontawesome - https://fontawesome.com License - https://fontawesome.com/license (Commercial License) Copyright 2022 Fonticons, Inc. --><path d="M576 32.01c0-17.69-14.33-31.1-32-31.1l-224-.0049c-14.69 0-27.48 10-31.05 24.25L197.9 388.3L124.6 241.7C119.2 230.9 108.1 224 96 224L32 224c-17.67 0-32 14.31-32 31.1s14.33 32 32 32h44.22l103.2 206.3c5.469 10.91 16.6 17.68 28.61 17.68c1.172 0 2.323-.0576 3.495-.1826c13.31-1.469 24.31-11.06 27.56-24.06l105.9-423.8H544C561.7 64.01 576 49.7 576 32.01z" class="fa-secondary"/></svg>