<svg xmlns="http://www.w3.org/2000/svg" viewBox="0 0 512 512"><!--! Font Awesome Pro 6.2.0 by @fontawesome - https://fontawesome.com License - https://fontawesome.com/license (Commercial License) Copyright 2022 Fonticons, Inc. --><path d="M155.3 62.08C156.8 63.55 157.1 65.31 158.8 67.25C159.6 69.19 160 71.27 159.1 73.37C159.1 75.49 159.6 77.58 158.8 79.53C157.9 81.48 156.7 83.25 155.2 84.73L109.6 130.7C95.17 112.5 87.91 89.6 89.2 66.37C90.5 43.15 100.3 21.2 116.7 4.702C116.9 4.446 117.2 4.382 117.5 4.158C115.8 5.642 114.5 7.461 113.6 9.498C112.6 11.53 112.1 13.74 112.1 15.98C112.1 18.22 112.5 20.43 113.4 22.49C114.3 24.54 115.6 26.39 117.3 27.9L155.3 62.08zM491.8 255.5L433.4 239.5C461.1 198.1 483.5 153.9 497.1 106.2C500.9 117.2 503.3 128.6 504.4 140.2L512 238.8C512.2 240.1 511.9 243.2 511.1 245.3C510.4 247.4 509.3 249.3 507.8 250.9C506.3 252.5 504.4 253.8 502.4 254.7C500.4 255.6 498.2 256 496 255.1C494.6 256 493.2 255.9 491.8 255.5H491.8zM405.8 14.88C358.2 28.5 313.1 50.02 272.6 78.56L256.6 20.13C255.9 17.66 255.8 15.06 256.4 12.56C256.9 10.06 258.1 7.73 259.7 5.758C261.3 3.787 263.4 2.235 265.8 1.233C268.1 .2304 270.7-.1933 273.2-.0022L371.8 7.614C383.4 8.667 394.8 11.11 405.8 14.88zM511.2 388.9C510.7 390.7 509.7 392.5 508.5 393.1C509.7 392.4 510.6 390.7 511.2 388.9zM489.7 398.7C491.8 399.6 494.1 400 496.5 399.1C498.8 399.9 501 399.3 503.1 398.3C505.2 397.3 507 395.8 508.5 393.1C508.1 394.7 507.8 395.4 507.3 396.1C490.8 412.7 468.7 422.6 445.3 423.9C421.1 425.1 398.1 417.6 380.8 402.8L427.3 356.7C430.3 353.7 434.4 351.1 438.6 351.1C442.9 351.1 446.9 353.7 449.9 356.7L484.1 394.7C485.6 396.4 487.6 397.8 489.7 398.7H489.7z" class="fa-secondary"/></svg>