<svg xmlns="http://www.w3.org/2000/svg" viewBox="0 0 576 512"><!--! Font Awesome Pro 6.2.0 by @fontawesome - https://fontawesome.com License - https://fontawesome.com/license (Commercial License) Copyright 2022 Fonticons, Inc. --><path d="M192 296.2C192 291.4 187.8 287.6 182.9 287.8C180.6 287.9 178.3 288 176 288C96.47 288 32 223.5 32 144C32 64.47 96.47 0 176 0C255.5 0 320 64.47 320 144V232.9C305.2 262.9 285.5 290.5 261.5 314.5L254.5 321.5C234.1 341 224 367.5 224 395.1V398.9C224 461.3 274.7 512 337.1 512H288C217.3 512 160 454.7 160 384C160 352.6 171.3 323.9 189.1 301.7C191.3 300.2 192 298.2 192 296.2V296.2z" class="fa-secondary"/></svg>