<svg xmlns="http://www.w3.org/2000/svg" viewBox="0 0 512 512"><!--! Font Awesome Pro 6.2.0 by @fontawesome - https://fontawesome.com License - https://fontawesome.com/license (Commercial License) Copyright 2022 Fonticons, Inc. --><path d="M312.1 7.031c-9.375-9.375-24.56-9.375-33.94 0l-48 48c-9.375 9.375-9.375 24.56 0 33.94C235.7 93.66 241.9 96 248 96s12.28-2.344 16.97-7.031l48-48C322.3 31.59 322.3 16.41 312.1 7.031zM504.1 7.031c-9.375-9.375-24.56-9.375-33.94 0l-160 160c-9.375 9.375-9.375 24.56 0 33.94C315.7 205.7 321.9 208 328 208s12.28-2.344 16.97-7.031l160-160C514.3 31.59 514.3 16.41 504.1 7.031zM471 199l-48 48c-9.375 9.375-9.375 24.56 0 33.94C427.7 285.7 433.9 288 440 288s12.28-2.344 16.97-7.031l48-48c9.375-9.375 9.375-24.56 0-33.94S480.4 189.7 471 199z" class="fa-secondary"/></svg>