<svg xmlns="http://www.w3.org/2000/svg" viewBox="0 0 512 512"><!--! Font Awesome Pro 6.2.0 by @fontawesome - https://fontawesome.com License - https://fontawesome.com/license (Commercial License) Copyright 2022 Fonticons, Inc. --><path d="M509 219.3l-39.62-16.63l-16.62-39.63c-.875-1.875-2.751-3.003-4.751-3.003s-3.874 1.128-4.749 3.003l-16.62 39.63L387 219.3c-1.875 .875-3.002 2.746-3.002 4.746s1.127 3.879 3.002 4.754l39.62 16.63l16.62 39.63c.875 1.875 2.749 2.995 4.749 2.995s3.876-1.12 4.751-2.995l16.62-39.63l39.62-16.63C510.9 227.9 512 226 512 224S510.9 220.1 509 219.3zM416 80c0-2.5-1.373-4.874-3.748-5.999L362.6 53.38l-20.62-49.63C340.9 1.375 338.5 0 336 0s-4.872 1.375-5.997 3.75l-20.62 49.63l-49.66 20.63c-2.375 1.125-3.712 3.499-3.712 5.999s1.337 4.877 3.712 6.002l49.66 20.63l20.62 49.67c1.125 2.375 3.498 3.707 5.998 3.707s4.876-1.332 6.001-3.707l20.62-49.67l49.62-20.63C414.6 84.88 416 82.5 416 80z" class="fa-secondary"/></svg>