<svg xmlns="http://www.w3.org/2000/svg" viewBox="0 0 512 512"><!--! Font Awesome Pro 6.2.0 by @fontawesome - https://fontawesome.com License - https://fontawesome.com/license (Commercial License) Copyright 2022 Fonticons, Inc. --><path d="M509 230.9l-55.25 53.88l13 76c1.125 6.5-4 11.75-9.75 11.75c-1.625 0-3.125-.375-4.75-1.25l-68.25-35.88l-68.38 35.88c-1.5 .875-3.125 1.25-4.625 1.25c-5.75 0-10.88-5.25-9.75-11.75l13-76l-55.25-53.88c-5.875-5.75-2.625-15.88 5.5-17l76.38-11.12l34.13-69.25C376.9 129.9 380.5 128 384 128c3.5 0 7.125 1.875 8.875 5.5l34.25 69.25l76.38 11.12C511.6 215 514.9 225.1 509 230.9z" class="fa-secondary"/></svg>