<svg xmlns="http://www.w3.org/2000/svg" viewBox="0 0 512 512"><!--! Font Awesome Pro 6.2.0 by @fontawesome - https://fontawesome.com License - https://fontawesome.com/license (Commercial License) Copyright 2022 Fonticons, Inc. --><path d="M136 352c-6.156 0-12.28 2.344-16.97 7.031l-48 48c-9.375 9.375-9.375 24.56 0 33.94s24.56 9.375 33.94 0l48-48c9.375-9.375 9.375-24.56 0-33.94C148.3 354.3 142.2 352 136 352zM376 160c6.156 0 12.28-2.344 16.97-7.031l48-48c9.375-9.375 9.375-24.56 0-33.94s-24.56-9.375-33.94 0l-48 48c-9.375 9.375-9.375 24.56 0 33.94C363.7 157.7 369.8 160 376 160zM104.1 71.03c-9.375-9.375-24.56-9.375-33.94 0s-9.375 24.56 0 33.94l48 48C123.7 157.7 129.8 160 136 160s12.28-2.344 16.97-7.031c9.375-9.375 9.375-24.56 0-33.94L104.1 71.03zM392.1 359C388.3 354.3 382.2 352 376 352s-12.28 2.344-16.97 7.031c-9.375 9.375-9.375 24.56 0 33.94l48 48c9.375 9.375 24.56 9.375 33.94 0s9.375-24.56 0-33.94L392.1 359z" class="fa-secondary"/></svg>