<svg xmlns="http://www.w3.org/2000/svg" viewBox="0 0 512 512"><!--! Font Awesome Pro 6.2.0 by @fontawesome - https://fontawesome.com License - https://fontawesome.com/license (Commercial License) Copyright 2022 Fonticons, Inc. --><path d="M198 343.1L89.48 168h41.04l34.49-56H54.39c-29.59 0-48.04 30.41-33.12 54.62l109.3 177.4H198zM256 438.2l-23.59-38.25l-67.4 .0013l57.87 93.1c11.1 17.67 34.94 23.29 53.22 12.56c5.313-3.119 9.785-7.421 13.01-12.56l112.9-183.3L368.3 256L256 438.2zM457.6 112L232.5 112L197.1 168h224.5l-20.53 33.29L435.6 256l55.1-89.38C505.6 142.4 487.2 112 457.6 112z" class="fa-secondary"/></svg>