<svg xmlns="http://www.w3.org/2000/svg" viewBox="0 0 512 512"><!--! Font Awesome Pro 6.2.0 by @fontawesome - https://fontawesome.com License - https://fontawesome.com/license (Commercial License) Copyright 2022 Fonticons, Inc. --><path d="M207.1 172.9L78.87 98.33c-11.49-6.645-26.19-2.711-32.82 8.781L22.02 148.7C15.4 160.2 19.34 174.8 30.8 181.5L159.5 256l48.43-28.07L207.1 172.9zM207.1 339.1V488c0 13.25 10.76 24 24.02 24h48.04c13.26 0 24.02-10.75 24.02-24v-148.9l-48.03-27.8L207.1 339.1zM489.1 148.7l-24.02-41.59c-6.634-11.49-21.34-15.43-32.82-8.78l-129.1 74.56l-.0154 55.05L352.5 256l128.8-74.53C492.7 174.8 496.6 160.2 489.1 148.7z" class="fa-secondary"/></svg>