<svg xmlns="http://www.w3.org/2000/svg" viewBox="0 0 640 512"><!--! Font Awesome Pro 6.2.0 by @fontawesome - https://fontawesome.com License - https://fontawesome.com/license (Commercial License) Copyright 2022 Fonticons, Inc. --><path d="M256 256C256 149.1 341.1 64 448 64C554 64 640 149.1 640 256C640 362 554 448 448 448C341.1 448 256 362 256 256zM448 320C483.3 320 512 291.3 512 256C512 220.7 483.3 192 448 192C412.7 192 384 220.7 384 256C384 291.3 412.7 320 448 320zM0 128C0 110.3 14.33 96 32 96H208C225.7 96 240 110.3 240 128C240 145.7 225.7 160 208 160H32C14.33 160 0 145.7 0 128zM208 352C225.7 352 240 366.3 240 384C240 401.7 225.7 416 208 416H32C14.33 416 0 401.7 0 384C0 366.3 14.33 352 32 352H208z" class="fa-secondary"/></svg>