<svg xmlns="http://www.w3.org/2000/svg" viewBox="0 0 512 512"><!--! Font Awesome Pro 6.2.0 by @fontawesome - https://fontawesome.com License - https://fontawesome.com/license (Commercial License) Copyright 2022 Fonticons, Inc. --><path d="M256 335.5L338.2 399.4L306.7 300.4L394.7 232H288.6L256 129.5L256 0C256 0 256 0 256 0C266.5 0 275.7 6.764 278.9 16.72L329.5 176H488C498.3 176 507.4 182.5 510.7 192.2C514 201.9 510.8 212.6 502.7 218.9L371.9 320.7L422.9 480.7C426.1 490.7 422.4 501.7 413.7 507.7C405.1 513.7 393.6 513.4 385.3 506.9L256 406.4L256 335.5z" class="fa-secondary"/></svg>