<svg xmlns="http://www.w3.org/2000/svg" viewBox="0 0 576 512"><!--! Font Awesome Pro 6.2.0 by @fontawesome - https://fontawesome.com License - https://fontawesome.com/license (Commercial License) Copyright 2022 Fonticons, Inc. --><path d="M399.7 435.9L378.4 309.6L469.2 219.8L343.8 201.4L288.1 86.85L287.1 87.14V0H286.6C287.1-.0259 287.6-.0391 288.1-.0391C300.4-.0391 311.6 6.954 316.9 17.97L381.2 150.3L524.9 171.5C536.8 173.2 546.8 181.6 550.6 193.1C554.4 204.7 551.3 217.3 542.7 225.9L438.5 328.1L463.1 474.7C465.1 486.7 460.1 498.9 450.2 506C440.3 513.1 427.2 514 416.5 508.3L288.1 439.8L287.1 439.8V376.4L288.1 376.3L399.7 435.9zM146.3 512C145.3 512.1 144.2 512.1 143.1 512H146.3z" class="fa-secondary"/></svg>