<svg xmlns="http://www.w3.org/2000/svg" viewBox="0 0 576 512"><!--! Font Awesome Pro 6.2.0 by @fontawesome - https://fontawesome.com License - https://fontawesome.com/license (Commercial License) Copyright 2022 Fonticons, Inc. --><path d="M514.9 76.63C467.9 23.12 416.3 0 368.9 0c-70.63 0-131.9 51.12-154.8 129.4c-49.13 139.9-212.8 82.1-214.1 222.3c-1.25 121.6 139.3 164.6 256 160c87.75-3.375 187.4-37.07 270.5-131.8C596.8 299.8 591.6 164 514.9 76.63zM478.4 337.6c-76.13 86.76-164.2 107.8-224.7 110.1c-37.75 1.375-131.6-6.5-171.3-46.63c-2.5-2.5-59.53-61.76 37.97-104.1c71.63-31.25 132.3-71.25 155.2-149.6c14.88-50.63 51.5-83.38 93.38-83.38c32.5 0 66.35 18.1 97.98 54.88C521.1 181.8 527.3 281.9 478.4 337.6z" class="fa-secondary"/></svg>