<svg xmlns="http://www.w3.org/2000/svg" viewBox="0 0 512 512"><!--! Font Awesome Pro 6.2.0 by @fontawesome - https://fontawesome.com License - https://fontawesome.com/license (Commercial License) Copyright 2022 Fonticons, Inc. --><path d="M288 445.3C277.6 447.1 266.9 448 256 448C245.1 448 234.4 447.1 224 445.3V358.9L168.9 288H66.65C64.91 277.6 64 266.9 64 256C64 245.1 64.91 234.4 66.65 224H160L167.2 209.7C172.6 198.8 183.7 192 195.8 192H316.2C328.3 192 339.4 198.8 344.8 209.7L352 224H445.3C447.1 234.4 448 245.1 448 256C448 266.9 447.1 277.6 445.3 288H343.1L288 358.9L288 445.3z" class="fa-secondary"/></svg>