<svg xmlns="http://www.w3.org/2000/svg" viewBox="0 0 384 512"><!--! Font Awesome Pro 6.2.0 by @fontawesome - https://fontawesome.com License - https://fontawesome.com/license (Commercial License) Copyright 2022 Fonticons, Inc. --><path d="M351.1 0H96.01C78.41 0 64.01 14.4 64.01 32L64.01 64c0 17.6 14.41 32 32 32h255.1C369.6 96 384 81.6 384 64V32C384 14.4 369.6 0 351.1 0zM224 368c0 32.42 13.99 61.38 36 81.83L280.8 436c44.5-29.75 71.14-79.5 71.14-133.1l-.0597-45.28C346.6 256.9 341.4 256 336 256C274.1 256 224 306.1 224 368z" class="fa-secondary"/></svg>