<svg xmlns="http://www.w3.org/2000/svg" viewBox="0 0 512 512"><!--! Font Awesome Pro 6.2.0 by @fontawesome - https://fontawesome.com License - https://fontawesome.com/license (Commercial License) Copyright 2022 Fonticons, Inc. --><path d="M273.1 160L256 159.1c-35.35 0-64-28.65-64-63.1V15.1C192 7.164 184.8 0 176 0h-32C135.2 0 128 7.164 128 15.1V95.1c0 70.69 57.31 128 128 128C255.1 201.5 261.9 179.4 273.1 160zM384 319.1c-17.27-17.27-42.62-22.06-65.21-14.06c-7.129 52.25-44.66 86.39-77.19 100.1c-6.682 2.744-9.877 10.39-7.133 17.08c1.109 2.703 3.087 4.972 5.628 6.417c9.092 5.232 18.72 9.462 28.73 12.61c43.37 13.59 98.26 4.59 137.7-34.41c19.83-19.71 33.33-44.98 38.71-72.41C423.7 341.3 400.3 336.2 384 319.1z" class="fa-secondary"/></svg>