<svg xmlns="http://www.w3.org/2000/svg" viewBox="0 0 512 512"><!--! Font Awesome Pro 6.2.0 by @fontawesome - https://fontawesome.com License - https://fontawesome.com/license (Commercial License) Copyright 2022 Fonticons, Inc. --><path d="M447.1 322.3c0-45.81-26.67-83.47-53.4-109.7l-95.16-95.16c-26.28-26.73-63.94-53.4-109.8-53.4c-81.09 0-189.7 91.01-189.7 264.7c0 140.8 33.9 183.3 183.3 183.3C357.5 512 447.1 402.7 447.1 322.3zM199.1 234.5c0-16.02 18.64-34.54 34.54-34.54c5.431 0 13.46 2.823 13.46 13.46c0 16.03-18.65 34.54-34.54 34.54C202.8 247.1 199.1 239.1 199.1 234.5zM135.1 170.5c0-16.02 18.64-34.54 34.54-34.54c5.431 0 13.46 2.823 13.46 13.46c0 16.03-18.65 34.54-34.54 34.54C138.8 183.1 135.1 175.1 135.1 170.5zM103.1 266.5c0-16.02 18.64-34.54 34.54-34.54c5.431 0 13.46 2.823 13.46 13.46c0 16.03-18.65 34.54-34.54 34.54C106.8 279.1 103.1 271.1 103.1 266.5zM119.1 341.5c0 16.03-18.65 34.54-34.54 34.54c-10.66 0-13.46-8.049-13.46-13.46c0-16.02 18.64-34.54 34.54-34.54C111.1 327.1 119.1 330.8 119.1 341.5zM183.1 405.5c0 16.03-18.65 34.54-34.54 34.54c-10.66 0-13.46-8.049-13.46-13.46c0-16.02 18.64-34.54 34.54-34.54C175.1 391.1 183.1 394.8 183.1 405.5zM215.1 309.5c0 16.03-18.65 34.54-34.54 34.54c-10.66 0-13.46-8.049-13.46-13.46c0-16.02 18.64-34.54 34.54-34.54C207.1 295.1 215.1 298.8 215.1 309.5zM279.1 373.5c0 16.03-18.65 34.54-34.54 34.54c-10.66 0-13.46-8.049-13.46-13.46c0-16.02 18.64-34.54 34.54-34.54C271.1 359.1 279.1 362.8 279.1 373.5zM311.1 277.5c0 16.03-18.65 34.54-34.54 34.54c-10.66 0-13.46-8.049-13.46-13.46c0-16.02 18.64-34.54 34.54-34.54C303.1 263.1 311.1 266.8 311.1 277.5zM375.1 341.5c0 16.03-18.65 34.54-34.54 34.54c-10.66 0-13.46-8.049-13.46-13.46c0-16.02 18.64-34.54 34.54-34.54C367.1 327.1 375.1 330.8 375.1 341.5z" class="fa-secondary"/></svg>