<svg xmlns="http://www.w3.org/2000/svg" viewBox="0 0 512 512"><!--! Font Awesome Pro 6.2.0 by @fontawesome - https://fontawesome.com License - https://fontawesome.com/license (Commercial License) Copyright 2022 Fonticons, Inc. --><path d="M151.6 366.3C153.1 379.3 145.4 391.8 132.3 394.2C102.1 399.8 78.57 407 63.27 414.7C60.09 416.3 57.47 417.8 55.33 419.2C51.7 421.6 51.72 426.4 55.34 428.8C64.15 434.6 78.48 440.6 98.33 446.1C137.7 456.1 193.5 464 256 464C318.5 464 374.3 456.1 413.7 446.1C433.5 440.6 447.9 434.6 456.7 428.8C460.3 426.4 460.3 421.6 456.7 419.2C454.5 417.8 451.9 416.3 448.7 414.7C433.4 407 409.9 399.8 379.7 394.2C366.6 391.8 358 379.3 360.4 366.3C362.8 353.3 375.3 344.6 388.3 347C420.8 352.9 449.2 361.2 470.3 371.8C480.8 377.1 490.6 383.5 498 391.4C505.6 399.5 512 410.5 512 424C512 445.4 496.5 460.1 482.9 469C468.2 478.6 448.6 486.3 426.4 492.4C381.8 504.7 321.6 512 256 512C190.4 512 130.2 504.7 85.57 492.4C63.44 486.3 43.79 478.6 29.12 469C15.46 460.1 0 445.4 0 424C0 410.5 6.376 399.5 13.96 391.4C21.44 383.5 31.24 377.1 41.72 371.8C62.75 361.2 91.24 352.9 123.7 347C136.7 344.6 149.2 353.3 151.6 366.3H151.6z" class="fa-secondary"/></svg>