<svg xmlns="http://www.w3.org/2000/svg" viewBox="0 0 448 512"><!--! Font Awesome Pro 6.2.0 by @fontawesome - https://fontawesome.com License - https://fontawesome.com/license (Commercial License) Copyright 2022 Fonticons, Inc. --><path d="M176.1 48h96V128h47.97l.0123-80c0-26.5-21.5-48-48-48h-96c-26.5 0-48 21.5-48 48L128 128h48.03V48zM96 496C96 504.9 103.1 512 112 512h32C152.9 512 160 504.9 160 496L160.1 480H96.05L96 496zM288 496c0 8.875 7.125 16 16 16h32c8.875 0 16-7.125 16-16l.0492-16h-63.99L288 496zM336 352h-224C103.2 352 96 359.2 96 368C96 376.8 103.2 384 112 384h224c8.801 0 16-7.201 16-16C352 359.2 344.8 352 336 352zM112 256h224C344.8 256 352 248.8 352 240C352 231.2 344.8 224 336 224h-224C103.2 224 96 231.2 96 240C96 248.8 103.2 256 112 256z" class="fa-secondary"/></svg>