<svg xmlns="http://www.w3.org/2000/svg" viewBox="0 0 640 512"><!--! Font Awesome Pro 6.2.0 by @fontawesome - https://fontawesome.com License - https://fontawesome.com/license (Commercial License) Copyright 2022 Fonticons, Inc. --><path d="M325.3 363.4C305.3 376.3 281.6 384 256 384c-70.69 0-128-57.31-128-128c0-70.69 57.31-128 128-128c46.04 0 86.06 24.52 108.6 60.1c15.28-29.75 43.27-51.29 76.25-58.31l-50.44-9.115l-19.7-109c-1.975-10.93-14.59-16.16-23.72-9.824L256 65.89L164.1 2.736c-9.125-6.332-21.74-1.107-23.72 9.824L121.6 121.6L12.56 141.3C1.633 143.2-3.596 155.9 2.736 164.1L65.89 256l-63.15 91.01c-6.332 9.125-1.105 21.74 9.824 23.72l109 19.7l19.7 109c1.975 10.93 14.59 16.16 23.72 9.824L256 446.1l91.01 63.15c9.127 6.334 21.75 1.107 23.72-9.822l21.47-115.5L384 383.1C361.8 383.1 341.6 376.1 325.3 363.4zM336.9 204.7C319.8 177.9 290.1 160 256 160c-53.02 0-96 42.98-96 96s42.98 96 96 96c17.21 0 33.13-4.896 47.1-12.83C293.7 324.3 288 306.8 288 287.1C288 252.2 307.8 221.2 336.9 204.7z" class="fa-secondary"/></svg>