<svg xmlns="http://www.w3.org/2000/svg" viewBox="0 0 640 512"><!--! Font Awesome Pro 6.2.0 by @fontawesome - https://fontawesome.com License - https://fontawesome.com/license (Commercial License) Copyright 2022 Fonticons, Inc. --><path d="M563.4 141.3l-109-19.7l-19.7-109c-1.975-10.93-14.59-16.16-23.72-9.824L320 65.89L228.1 2.738c-9.125-6.332-21.74-1.107-23.72 9.824L185.6 121.6L76.56 141.3C65.63 143.2 60.4 155.9 66.74 164.1L129.9 256H192c0-70.69 57.31-127.1 128-127.1S448 185.3 448 256h62.11l63.15-91.01C579.6 155.9 574.4 143.2 563.4 141.3zM320 160C266.1 160 224 202.1 224 256h192C416 202.1 373 160 320 160z" class="fa-secondary"/></svg>