<svg xmlns="http://www.w3.org/2000/svg" viewBox="0 0 512 512"><!--! Font Awesome Pro 6.2.0 by @fontawesome - https://fontawesome.com License - https://fontawesome.com/license (Commercial License) Copyright 2022 Fonticons, Inc. --><path d="M160 256c0 26.51 10.74 50.51 28.11 67.88l135.8-135.8C306.5 170.7 282.5 160 256 160C202.1 160 160 202.1 160 256zM370.7 12.56c-1.975-10.93-14.59-16.16-23.72-9.824L256 65.89L164.1 2.738c-9.125-6.332-21.74-1.107-23.72 9.824L121.6 121.6L12.56 141.3C1.633 143.2-3.596 155.9 2.736 164.1L65.89 256l-63.15 91.01c-6.332 9.125-1.105 21.74 9.824 23.72l109 19.7l43.92-43.92C142.3 323.3 128 291.3 128 256c0-70.69 57.31-128 128-128c35.35 0 67.35 14.33 90.51 37.49l43.92-43.92L370.7 12.56z" class="fa-secondary"/></svg>