<svg xmlns="http://www.w3.org/2000/svg" viewBox="0 0 576 512"><!--! Font Awesome Pro 6.2.0 by @fontawesome - https://fontawesome.com License - https://fontawesome.com/license (Commercial License) Copyright 2022 Fonticons, Inc. --><path d="M529.3 365.3l-109-19.7L400.6 236.5c-1.975-10.93-14.59-16.16-23.72-9.826l-91.01 63.16l-91.01-63.16C185.7 220.4 173.1 225.6 171.1 236.5l-19.7 109L42.39 365.3c-10.93 1.977-16.16 14.6-9.826 23.72l29.85 43.02h105.5c18.99-46.79 64.29-80.01 117.9-80.01s98.9 33.23 117.9 80.01h105.5l29.85-43.02C545.4 379.9 540.2 367.3 529.3 365.3zM285.8 384c-35.43 0-65.97 19.41-82.52 48.01h165C351.8 403.4 321.3 384 285.8 384z" class="fa-secondary"/></svg>