<svg xmlns="http://www.w3.org/2000/svg" viewBox="0 0 448 512"><!--! Font Awesome Pro 6.2.0 by @fontawesome - https://fontawesome.com License - https://fontawesome.com/license (Commercial License) Copyright 2022 Fonticons, Inc. --><path d="M308.2 198.4C272.9 184.9 244.4 162.4 226.2 135C210.2 138.9 189.9 145.6 169.4 155.9C150.8 165.2 132.8 177.1 117.1 191.9C102.8 186.6 90.28 180.1 81.09 172.8C101.5 149.6 126.1 132.4 151.4 120.1C171.5 110 191.6 102.9 208.9 98.19C207.2 92.37 205.1 86.44 205.1 80.44C211.3 80.15 217.6 80 223.1 80C231.4 80 238.7 80.2 245.8 80.59C255.1 123 299.1 165.9 368.6 171.4C355.4 182.6 334.3 191.1 308.2 198.4V198.4z" class="fa-secondary"/></svg>