<svg xmlns="http://www.w3.org/2000/svg" viewBox="0 0 640 512"><!--! Font Awesome Pro 6.2.0 by @fontawesome - https://fontawesome.com License - https://fontawesome.com/license (Commercial License) Copyright 2022 Fonticons, Inc. --><path d="M223.2 233.2C223.3 234.1 224 234.8 224 235.9v113.1l74.34-81.44L247.1 211.3L223.2 233.2zM135 7.019C125.9 16.14 125.6 30.89 134.4 40.39l249.6 273.5l.0002-110.8L168.4 6.394C158.9-2.356 144.1-2.106 135 7.019zM505 7.019c-9.125-9.125-23.88-9.375-33.25-.625l-128.1 117.6l37.88 34.75c5.875-2.5 12.25-3.875 18.62-3.875c.25 0 .375 .125 .625 .125l104.9-114.7C514.4 30.89 514.1 16.14 505 7.019z" class="fa-secondary"/></svg>