<svg xmlns="http://www.w3.org/2000/svg" viewBox="0 0 512 512"><!--! Font Awesome Pro 6.2.0 by @fontawesome - https://fontawesome.com License - https://fontawesome.com/license (Commercial License) Copyright 2022 Fonticons, Inc. --><path d="M192 0C209.7 0 224 14.33 224 32C224 49.67 209.7 64 192 64H32C14.33 64 0 49.67 0 32C0 14.33 14.33 0 32 0H192zM342.6 502.6C330.1 515.1 309.9 515.1 297.4 502.6C284.9 490.1 284.9 469.9 297.4 457.4L457.4 297.4C469.9 284.9 490.1 284.9 502.6 297.4C515.1 309.9 515.1 330.1 502.6 342.6L342.6 502.6zM0 128C0 110.3 14.33 96 32 96H192C209.7 96 224 110.3 224 128C224 145.7 209.7 160 192 160H144V192C144 209.7 129.7 224 112 224C94.33 224 80 209.7 80 192V160H32C14.33 160 0 145.7 0 128zM368 328C368 350.1 350.1 368 328 368C305.9 368 288 350.1 288 328C288 305.9 305.9 288 328 288C350.1 288 368 305.9 368 328zM432 472C432 449.9 449.9 432 472 432C494.1 432 512 449.9 512 472C512 494.1 494.1 512 472 512C449.9 512 432 494.1 432 472z" class="fa-secondary"/></svg>