<svg xmlns="http://www.w3.org/2000/svg" viewBox="0 0 512 512"><!--! Font Awesome Pro 6.2.0 by @fontawesome - https://fontawesome.com License - https://fontawesome.com/license (Commercial License) Copyright 2022 Fonticons, Inc. --><path d="M208.8 154.1l58.56 58.56c6.25 6.25 6.25 16.38 0 22.62C264.2 238.4 260.1 240 256 240S247.8 238.4 244.7 235.3L186.1 176.8L144.8 218.1l58.56 58.56c6.25 6.25 6.25 16.38 0 22.62C200.2 302.4 196.1 304 192 304S183.8 302.4 180.7 299.3L122.1 240.8L82.75 280.1C70.74 292.1 64 308.4 64 325.4v88.68l-56.97 56.97C2.344 475.7 0 481.9 0 487.1c0 6.141 2.344 12.28 7.031 16.97C11.72 509.7 17.86 512 24 512s12.28-2.344 16.97-7.031L97.94 448h88.69c16.97 0 33.25-6.744 45.26-18.75l210.2-210.2L292.1 69.89L208.8 154.1z" class="fa-secondary"/></svg>