<svg xmlns="http://www.w3.org/2000/svg" viewBox="0 0 512 512"><!--! Font Awesome Pro 6.2.0 by @fontawesome - https://fontawesome.com License - https://fontawesome.com/license (Commercial License) Copyright 2022 Fonticons, Inc. --><path d="M415.1 320c-52.99 0-95.99 42.1-95.99 95.1c0 52.1 42.99 95.99 95.99 95.99c52.1 0 95.99-42.1 95.99-95.99C511.1 363 468.1 320 415.1 320zM416 287.1c27.99 0 53.68 9.254 74.76 24.51c14.03-29.82 21.06-62.13 21.06-94.43c0-103.1-79.37-218.1-216.5-218.1c-59.94 0-120.4 23.71-165.5 68.95l-54.66 54.8c-8.354 8.375-15.06 17.3-20.95 26.44l237.3 237.3C304.5 330.6 355.2 287.1 416 287.1z" class="fa-secondary"/></svg>