<svg xmlns="http://www.w3.org/2000/svg" viewBox="0 0 512 512"><!--! Font Awesome Pro 6.2.0 by @fontawesome - https://fontawesome.com License - https://fontawesome.com/license (Commercial License) Copyright 2022 Fonticons, Inc. --><path d="M106.3 224h68.94L213.7 128H144.7L106.3 224zM34.28 404.1c-6.562 16.41 1.438 35.03 17.84 41.59C56 447.3 60.03 448 64 448c12.69 0 24.72-7.594 29.72-20.12L149.7 288H80.73L34.28 404.1zM367.3 128H298.3l38.4 96h68.94L367.3 128zM477.7 404.1L431.3 288H362.3l55.95 139.9C423.3 440.4 435.3 448 448 448c3.969 0 8-.7187 11.88-2.281C476.3 439.2 484.3 420.5 477.7 404.1z" class="fa-secondary"/></svg>