<svg xmlns="http://www.w3.org/2000/svg" viewBox="0 0 512 512"><!--! Font Awesome Pro 6.2.0 by @fontawesome - https://fontawesome.com License - https://fontawesome.com/license (Commercial License) Copyright 2022 Fonticons, Inc. --><path d="M255.1 191.1c-130.1 0-237.9 107.4-255.7 247.1C-2.432 460.6 12.94 480 32.45 480h447c19.5 0 35-19.38 32.13-40.88C493.9 299.4 386.1 191.1 255.1 191.1zM111.1 415.1c-8.875 0-15.1-7.127-15.1-16s7.122-15.1 15.1-15.1s16 7.124 16 15.1S120.9 415.1 111.1 415.1zM175.1 351.1c-8.875 0-15.1-7.127-15.1-16S167.1 319.1 175.1 319.1s16 7.122 16 15.1S184.9 351.1 175.1 351.1z" class="fa-secondary"/></svg>