<svg xmlns="http://www.w3.org/2000/svg" viewBox="0 0 320 512"><!--! Font Awesome Pro 6.2.0 by @fontawesome - https://fontawesome.com License - https://fontawesome.com/license (Commercial License) Copyright 2022 Fonticons, Inc. --><path d="M221.4 311.1c.6074 .9102 .4863 1.996 .877 2.982L218.1 272h-29.07L221.4 311.1zM87.49 240l.541-6.953l-16-159.3C71.59 69.33 74.81 65.42 79.22 64.98C83.5 64.36 87.53 67.75 87.97 72.14l16 160.7L103.4 240H152V64c0-4.422 3.594-8 8-8S168 59.58 168 64v176h48.47l-.4434-5.703l16-162.2c.4375-4.391 4.344-7.734 8.75-7.156c4.406 .4375 7.625 4.344 7.188 8.75l-16 160.7L232.4 240h63.15L320 64c0-35.35-71.63-64-160-64S0 28.65 0 64l24.44 176H87.49zM234.9 272l13.06 166.4c.3438 4.406-2.938 8.25-7.344 8.594C240.4 447.1 240.2 447.1 240 447.1c-4.156 0-7.656-3.188-7.969-7.375l-8.959-115C221.1 331.2 215.2 336 208.1 336c-5.156 0-10.22-2.5-13.31-7.125L168 294.1V448c0 4.422-3.594 8-8 8S152 452.4 152 448V294.1l-26.69 33.88C122.2 333.5 117.2 336 112 336c-7.307 0-13.23-4.979-15.1-11.75l-8.932 115.4C87.66 443.9 84.16 447.1 80 447.1c-.1875 0-.4062 0-.625-.0313c-4.406-.3438-7.688-4.188-7.344-8.594L84.1 272H24.44L0 448c0 35.35 71.63 64 160 64s160-28.65 160-64l-24.44-176H234.9zM97.64 314.7C98.06 313.5 97.96 312.2 98.69 311.1L130.1 272H100.9L97.64 314.7z" class="fa-secondary"/></svg>