<svg xmlns="http://www.w3.org/2000/svg" viewBox="0 0 448 512"><!--! Font Awesome Pro 6.2.0 by @fontawesome - https://fontawesome.com License - https://fontawesome.com/license (Commercial License) Copyright 2022 Fonticons, Inc. --><path d="M224 224c30.94 0 56-24.03 56-53.66S223.1 64 223.1 64S168 140.7 168 170.3S193.1 224 224 224zM312 307.2L297.1 296c-5.824-4.672-14.14-4.672-19.97 0l-14.05 11.23c-23.36 18.69-56.58 18.69-79.94 0L169.1 296c-5.824-4.672-14.14-4.672-19.97 0L135.1 307.2C115.2 323.9 86.53 325.7 64 312.7V416h320V312.7C361.5 325.7 332.8 323.9 312 307.2z" class="fa-secondary"/></svg>