<svg xmlns="http://www.w3.org/2000/svg" viewBox="0 0 576 512"><!--! Font Awesome Pro 6.2.0 by @fontawesome - https://fontawesome.com License - https://fontawesome.com/license (Commercial License) Copyright 2022 Fonticons, Inc. --><path d="M64 128H197.5C210.6 165.3 246.2 192 288 192C329.8 192 365.4 165.3 378.5 128H512C547.3 128 576 156.7 576 192V352H448C430.3 352 416 366.3 416 384V512H64C28.65 512 0 483.3 0 448V192C0 156.7 28.65 128 64 128zM96 256C113.7 256 128 241.7 128 224C128 206.3 113.7 192 96 192C78.33 192 64 206.3 64 224C64 241.7 78.33 256 96 256z" class="fa-secondary"/></svg>