<svg xmlns="http://www.w3.org/2000/svg" viewBox="0 0 576 512"><!--! Font Awesome Pro 6.2.0 by @fontawesome - https://fontawesome.com License - https://fontawesome.com/license (Commercial License) Copyright 2022 Fonticons, Inc. --><path d="M352 0C369.7 0 384 14.33 384 32V64H192V32C192 14.33 206.3 0 224 0H352zM167.2 149.4C171.7 136.6 183.8 128 197.4 128H378.6C392.2 128 404.3 136.6 408.8 149.4L434.9 224H141.1L167.2 149.4zM128 480C128 497.7 113.7 512 96 512H64C46.33 512 32 497.7 32 480V432H128V480zM448 432H544V480C544 497.7 529.7 512 512 512H480C462.3 512 448 497.7 448 480V432z" class="fa-secondary"/></svg>