<svg xmlns="http://www.w3.org/2000/svg" viewBox="0 0 640 512"><!--! Font Awesome Pro 6.2.0 by @fontawesome - https://fontawesome.com License - https://fontawesome.com/license (Commercial License) Copyright 2022 Fonticons, Inc. --><path d="M.0006 384V74.46C.0006 58.25 9.164 43.42 23.67 36.16C71.24 12.38 123.7 0 176.9 0H207.1C260.3 0 312.8 12.38 360.3 36.16C374.8 43.42 384 58.25 384 74.46V96C362.1 96 343.6 110.7 337.8 130.8C331.7 132.1 325.7 134 320 136.4V120C320 106.7 309.3 96 296 96H208V224H249.9L233.6 272.9C208.5 290.2 192 319.2 192 352V416H128V448C128 465.7 113.7 480 96 480H80C62.33 480 48 465.7 48 448V416H32C14.33 416 0 401.7 0 384H.0006zM88 96C74.75 96 64 106.7 64 120V200C64 213.3 74.75 224 88 224H176V96H88zM96 344C109.3 344 120 333.3 120 320C120 306.7 109.3 296 96 296C82.75 296 72 306.7 72 320C72 333.3 82.75 344 96 344z" class="fa-secondary"/></svg>