<svg xmlns="http://www.w3.org/2000/svg" viewBox="0 0 576 512"><!--! Font Awesome Pro 6.2.0 by @fontawesome - https://fontawesome.com License - https://fontawesome.com/license (Commercial License) Copyright 2022 Fonticons, Inc. --><path d="M217.1 40.43c6.113-1.494 12.34-2.266 18.52-3.363C228.7 15.5 208.2 0 184 0C153.1 0 128 25.07 128 56c0 20.11 10.69 37.6 26.61 47.48c7.373-30.43 31.27-55.21 63.36-63.05H217.1zM224 176C224 202.5 252.7 224 288 224s63.1-21.49 63.1-48S323.3 128 288 128S224 149.5 224 176zM288 144c17.67 0 31.1 10.74 31.1 24C319.1 181.3 305.7 192 288 192S256 181.3 256 168C256 154.7 270.3 144 288 144zM392 0c-24.25 0-44.7 15.5-52.49 37.06c6.178 1.098 12.4 1.869 18.52 3.363h.002c32.09 7.844 55.98 32.62 63.36 63.05C437.3 93.6 448 76.11 448 56C448 25.07 422.9 0 392 0zM319.1 352H256c-35.34 0-63.1 28.65-63.1 64h191.1C383.1 380.7 355.3 352 319.1 352z" class="fa-secondary"/></svg>