<svg xmlns="http://www.w3.org/2000/svg" viewBox="0 0 576 512"><!--! Font Awesome Pro 6.2.0 by @fontawesome - https://fontawesome.com License - https://fontawesome.com/license (Commercial License) Copyright 2022 Fonticons, Inc. --><path d="M256 320H192c-8.875 0-16 7.125-16 16v32C176 394.5 197.5 416 224 416s48-21.5 48-48v-32C272 327.1 264.9 320 256 320zM96 128C69.5 128 48 149.5 48 176v32C48 216.9 55.13 224 64 224h64c8.875 0 16-7.125 16-16v-32C144 149.5 122.5 128 96 128zM224 96C197.5 96 176 117.5 176 144v66.29C176 217.9 182.1 224 189.7 224h68.57C265.9 224 272 217.9 272 210.3V144C272 117.5 250.5 96 224 96zM128 320H64c-8.875 0-16 7.125-16 16v32C48 394.5 69.5 416 96 416s48-21.5 48-48v-32C144 327.1 136.9 320 128 320zM512 320h-64c-8.875 0-16 7.125-16 16v32c0 26.5 21.5 48 48 48s48-21.5 48-48v-32C528 327.1 520.9 320 512 320zM480 128c-26.5 0-48 21.5-48 48v32C432 216.9 439.1 224 448 224h64c8.875 0 16-7.125 16-16v-32C528 149.5 506.5 128 480 128zM352 96c-26.46 0-48 21.54-48 48v66.29C304 217.9 310.1 224 317.7 224h68.57C393.9 224 400 217.9 400 210.3V144C400 117.5 378.5 96 352 96zM384 320h-64c-8.875 0-16 7.125-16 16v32c0 26.5 21.5 48 48 48s48-21.5 48-48v-32C400 327.1 392.9 320 384 320z" class="fa-secondary"/></svg>