<svg xmlns="http://www.w3.org/2000/svg" viewBox="0 0 576 512"><!--! Font Awesome Pro 6.2.0 by @fontawesome - https://fontawesome.com License - https://fontawesome.com/license (Commercial License) Copyright 2022 Fonticons, Inc. --><path d="M128 288H64C55.13 288 48 295.1 48 304v32C48 362.5 69.5 384 96 384s48-21.5 48-48v-32C144 295.1 136.9 288 128 288zM96 160C69.5 160 48 181.5 48 208v32C48 248.9 55.13 256 64 256h64c8.875 0 16-7.125 16-16v-32C144 181.5 122.5 160 96 160zM256 288H192C183.1 288 176 295.1 176 304v32C176 362.5 197.5 384 224 384s48-21.5 48-48v-32C272 295.1 264.9 288 256 288zM224 128C197.5 128 176 149.5 176 176v66.29C176 249.9 182.1 256 189.7 256h68.57C265.9 256 272 249.9 272 242.3V176C272 149.5 250.5 128 224 128zM384 288h-64c-8.875 0-16 7.125-16 16v32c0 26.5 21.5 48 48 48s48-21.5 48-48v-32C400 295.1 392.9 288 384 288zM352 128c-26.46 0-48 21.54-48 48v66.29C304 249.9 310.1 256 317.7 256h68.57C393.9 256 400 249.9 400 242.3V176C400 149.5 378.5 128 352 128zM512 288h-64c-8.875 0-16 7.125-16 16v32c0 26.5 21.5 48 48 48s48-21.5 48-48v-32C528 295.1 520.9 288 512 288zM480 160c-26.5 0-48 21.5-48 48v32C432 248.9 439.1 256 448 256h64c8.875 0 16-7.125 16-16v-32C528 181.5 506.5 160 480 160z" class="fa-secondary"/></svg>