<svg xmlns="http://www.w3.org/2000/svg" viewBox="0 0 640 512"><!--! Font Awesome Pro 6.2.0 by @fontawesome - https://fontawesome.com License - https://fontawesome.com/license (Commercial License) Copyright 2022 Fonticons, Inc. --><path d="M488.6 269.9l-96.7 33.73c-.1914-39.75-32.58-71.82-72.33-71.63C279.1 232.2 247.1 264.4 247.1 304c.0801 15.91 5.387 31.29 15.27 43.76l-127 43.69c-8.754 3.008-18.05-.7051-21.27-8.479L106.2 361.9L42.18 388.4c-8.162 3.381-17.52-.4935-20.9-8.658l-20.06-48.42c-3.377-8.166 .4967-17.52 8.659-20.91l64.08-26.55L65.21 262.8C61.99 254.1 65.93 245.8 74.25 241.7l335.1-163.2L488.6 269.9z" class="fa-secondary"/></svg>