<svg xmlns="http://www.w3.org/2000/svg" viewBox="0 0 512 512"><!--! Font Awesome Pro 6.2.0 by @fontawesome - https://fontawesome.com License - https://fontawesome.com/license (Commercial License) Copyright 2022 Fonticons, Inc. --><path d="M255.1 278.5V112C255.1 50.13 205.9 0 144 0C82.13 0 32 50.13 32 112v166.5C12.25 303.3 0 334 0 368C0 447.5 64.5 512 144 512c79.5 0 143.1-64.5 143.1-144C287.1 334 275.7 303.1 255.1 278.5zM219.9 393.4C208.1 426.1 178.4 447.1 144 447.1c-34.38 0-65-21.84-75.88-54.59C57.25 360.8 68.5 324.9 96 304.3V112c0-26.5 21.5-48.01 48-48.01c26.5 0 47.1 21.51 47.1 48.01v192.3C219.5 324.9 230.7 360.8 219.9 393.4z" class="fa-secondary"/></svg>