<svg xmlns="http://www.w3.org/2000/svg" viewBox="0 0 576 512"><!--! Font Awesome Pro 6.2.0 by @fontawesome - https://fontawesome.com License - https://fontawesome.com/license (Commercial License) Copyright 2022 Fonticons, Inc. --><path d="M544 278.5V112c0-61.88-50.13-112-111.1-112s-111.1 50.13-111.1 112v166.5c-19.75 24.62-31.1 55.5-31.1 89.5c0 79.5 64.5 143.1 143.1 143.1S576 447.5 576 368C576 334 563.8 303.1 544 278.5zM432 448c-44.12 0-79.99-35.87-79.99-79.1c0-25.5 12.25-48.88 31.1-63.75v-192.2c0-26.5 21.5-48 47.1-48s47.1 21.5 47.1 48v192.2c19.75 14.75 31.1 38.25 31.1 63.75C512 412.1 476.1 448 432 448z" class="fa-secondary"/></svg>