<svg xmlns="http://www.w3.org/2000/svg" viewBox="0 0 640 512"><!--! Font Awesome Pro 6.2.0 by @fontawesome - https://fontawesome.com License - https://fontawesome.com/license (Commercial License) Copyright 2022 Fonticons, Inc. --><path d="M607.1 278.5V112c0-61.88-50.12-112-112-112c-61.88 0-112 50.13-112 112v166.5C364.2 303.1 351.1 334 351.1 368c0 79.5 64.5 144 144 144S640 447.5 640 368C640 334 627.8 303.1 607.1 278.5zM495.1 448c-44.13 0-80.01-35.88-80.01-80c0-25.5 12.25-48.88 32-63.75V112c0-26.5 21.51-48 48.01-48c26.5 0 48 21.5 48 48v192.3c19.75 14.75 32 38.25 32 63.75C575.1 412.1 540.1 448 495.1 448z" class="fa-secondary"/></svg>