<svg xmlns="http://www.w3.org/2000/svg" viewBox="0 0 512 512"><!--! Font Awesome Pro 6.2.0 by @fontawesome - https://fontawesome.com License - https://fontawesome.com/license (Commercial License) Copyright 2022 Fonticons, Inc. --><path d="M256 112c0-61.88-50.13-112-112-112s-112 50.13-112 112v166.5c-19.75 24.75-32 55.5-32 89.5c0 79.5 64.5 144 144 144s144-64.5 144-144c0-34-12.25-64.88-32-89.5V112zM144 448c-44.13 0-80-35.88-80-80c0-25.5 12.25-48.88 32-63.75v-192.3c0-26.5 21.5-48 48-48S192 85.5 192 112V304.3c19.75 14.75 32 38.25 32 63.75C224 412.1 188.1 448 144 448z" class="fa-secondary"/></svg>