<svg xmlns="http://www.w3.org/2000/svg" viewBox="0 0 576 512"><!--! Font Awesome Pro 6.2.0 by @fontawesome - https://fontawesome.com License - https://fontawesome.com/license (Commercial License) Copyright 2022 Fonticons, Inc. --><path d="M288 32.01H32c-17.67 0-32 14.31-32 32v64c0 17.69 14.33 32 32 32s32-14.31 32-32v-32h64v320H96c-17.67 0-32 14.31-32 32s14.33 32 32 32h128c17.67 0 32-14.31 32-32s-14.33-32-32-32H192v-320h64v32c0 17.69 14.33 32 32 32s32-14.31 32-32v-64C320 46.33 305.7 32.01 288 32.01z" class="fa-secondary"/></svg>