<svg xmlns="http://www.w3.org/2000/svg" viewBox="0 0 448 512"><!--! Font Awesome Pro 6.2.0 by @fontawesome - https://fontawesome.com License - https://fontawesome.com/license (Commercial License) Copyright 2022 Fonticons, Inc. --><path d="M416 32.01H32c-17.67 0-32 14.31-32 32v63.1c0 17.69 14.33 32 32 32s32-14.31 32-32v-32h128v128H176c-17.67 0-32 14.31-32 31.1s14.33 32 32 32h96c17.67 0 32-14.31 32-32s-14.33-31.1-32-31.1H256v-128h128v32c0 17.69 14.33 32 32 32s32-14.32 32-32V64.01C448 46.33 433.7 32.01 416 32.01z" class="fa-secondary"/></svg>