<svg xmlns="http://www.w3.org/2000/svg" viewBox="0 0 640 512"><!--! Font Awesome Pro 6.2.0 by @fontawesome - https://fontawesome.com License - https://fontawesome.com/license (Commercial License) Copyright 2022 Fonticons, Inc. --><path d="M351.1 416H306.7l18.96-64.1L271.4 308.5l-31.36 107.5h-48c-17.67 0-32 14.31-32 32s14.33 31.99 32 31.99h160c17.67 0 32-14.31 32-31.99S369.7 416 351.1 416zM544 32.01H191.1c-17.67 0-32 14.31-32 32V100.1l58.03 45.48C221.5 140.5 223.1 134.7 223.1 128v-32h109.3l-33.22 113.9l54.26 42.53L400 96.01H512v32c0 17.69 14.33 32 32 32s32-14.31 32-32v-64C576 46.33 561.7 32.01 544 32.01z" class="fa-secondary"/></svg>