<svg xmlns="http://www.w3.org/2000/svg" viewBox="0 0 512 512"><!--! Font Awesome Pro 6.2.0 by @fontawesome - https://fontawesome.com License - https://fontawesome.com/license (Commercial License) Copyright 2022 Fonticons, Inc. --><path d="M224 32C224 14.33 238.3 0 256 0C397.4 0 512 114.6 512 256C512 397.4 397.4 512 256 512C114.6 512 0 397.4 0 256C0 184.4 29.46 119.6 76.84 73.14C89.46 60.78 109.7 60.98 122.1 73.6C134.5 86.23 134.3 106.5 121.6 118.9C86.03 153.7 64 202.3 64 256C64 362 149.1 448 256 448C362 448 448 362 448 256C448 160.9 378.8 81.89 288 66.65V96C288 113.7 273.7 128 256 128C238.3 128 224 113.7 224 96V32z" class="fa-secondary"/></svg>