<svg xmlns="http://www.w3.org/2000/svg" viewBox="0 0 640 512"><!--! Font Awesome Pro 6.2.0 by @fontawesome - https://fontawesome.com License - https://fontawesome.com/license (Commercial License) Copyright 2022 Fonticons, Inc. --><path d="M352 175.1C363.4 175.1 374.2 173.6 384 169.3V223.1H530.7L489.4 182.6C476.9 170.1 476.9 149.9 489.4 137.4C501.9 124.9 522.1 124.9 534.6 137.4L630.6 233.4C643.1 245.9 643.1 266.1 630.6 278.6L534.6 374.6C522.1 387.1 501.9 387.1 489.4 374.6C476.9 362.1 476.9 341.9 489.4 329.4L530.7 288H256V342.7C246.2 338.4 235.4 336 224 336C212.6 336 201.8 338.4 192 342.7V288H32C14.33 288 0 273.7 0 256C0 238.3 14.33 224 32 224H96V169.3C105.8 173.6 116.6 176 128 176C139.4 176 150.2 173.6 160 169.3V224H320V169.3C329.8 173.6 340.6 176 352 176V175.1z" class="fa-secondary"/></svg>