<svg xmlns="http://www.w3.org/2000/svg" viewBox="0 0 640 512"><!--! Font Awesome Pro 6.2.0 by @fontawesome - https://fontawesome.com License - https://fontawesome.com/license (Commercial License) Copyright 2022 Fonticons, Inc. --><path d="M512 176C523.4 176 534.2 173.6 544 169.3V224H608C625.7 224 640 238.3 640 256C640 273.7 625.7 288 608 288H352V342.7C342.2 338.4 331.4 336 320 336C308.6 336 297.8 338.4 288 342.7V288H32C14.33 288 0 273.7 0 256C0 238.3 14.33 224 32 224H96V169.3C105.8 173.6 116.6 176 128 176C139.4 176 150.2 173.6 160 169.3V224H480V169.3C489.8 173.6 500.6 176 512 176z" class="fa-secondary"/></svg>