<svg xmlns="http://www.w3.org/2000/svg" viewBox="0 0 512 512"><!--! Font Awesome Pro 6.2.0 by @fontawesome - https://fontawesome.com License - https://fontawesome.com/license (Commercial License) Copyright 2022 Fonticons, Inc. --><path d="M128 256C128 185.3 185.3 128 256 128C326.7 128 384 185.3 384 256C384 326.7 326.7 384 256 384C185.3 384 128 326.7 128 256zM256 208C269.3 208 280 197.3 280 184C280 170.7 269.3 160 256 160C242.7 160 232 170.7 232 184C232 197.3 242.7 208 256 208zM164.7 226.3C160.6 238.9 167.5 252.5 180.1 256.6C192.7 260.7 206.3 253.8 210.3 241.2C214.4 228.6 207.5 215 194.9 210.9C182.3 206.8 168.8 213.7 164.7 226.3V226.3zM301.7 241.2C305.7 253.8 319.3 260.7 331.9 256.6C344.5 252.5 351.4 238.9 347.3 226.3C343.2 213.7 329.7 206.8 317.1 210.9C304.5 215 297.6 228.6 301.7 241.2V241.2zM312.4 333.7C323.2 325.9 325.5 310.9 317.7 300.1C309.9 289.4 294.9 287 284.2 294.8C273.5 302.6 271.1 317.6 278.9 328.4C286.7 339.1 301.7 341.5 312.4 333.7V333.7zM227.8 294.8C217.1 287 202.1 289.4 194.3 300.1C186.5 310.9 188.8 325.9 199.6 333.7C210.3 341.5 225.3 339.1 233.1 328.4C240.9 317.6 238.5 302.6 227.8 294.8V294.8z" class="fa-secondary"/></svg>