<svg xmlns="http://www.w3.org/2000/svg" viewBox="0 0 640 512"><!--! Font Awesome Pro 6.2.0 by @fontawesome - https://fontawesome.com License - https://fontawesome.com/license (Commercial License) Copyright 2022 Fonticons, Inc. --><path d="M480 0H160C135.2 0 112.8 18.98 95.8 49.77L576 426.1L576 192C576 86 533 0 480 0zM480 256c-17.62 0-32-28.62-32-64S462.4 128 480 128s31.1 28.62 31.1 64S497.6 256 480 256zM64 192c0 106 42.1 192 95.1 192h32v96c0 17.67 14.33 32 32 32h305.9L66.53 148.8C64.93 162.7 64 177.1 64 192z" class="fa-secondary"/></svg>