<svg xmlns="http://www.w3.org/2000/svg" viewBox="0 0 512 512"><!--! Font Awesome Pro 6.2.0 by @fontawesome - https://fontawesome.com License - https://fontawesome.com/license (Commercial License) Copyright 2022 Fonticons, Inc. --><path d="M96 384C42.98 384 0 298 0 192C0 85.96 42.98 0 96 0H416C362.1 0 320 85.96 320 192C320 298 362.1 384 416 384H96zM232.1 223L201.9 192L232.1 160.1C242.3 151.6 242.3 136.4 232.1 127C223.6 117.7 208.4 117.7 199 127L168 158.1L136.1 127C127.6 117.7 112.4 117.7 103 127C93.66 136.4 93.66 151.6 103 160.1L134.1 192L103 223C93.66 232.4 93.66 247.6 103 256.1C112.4 266.3 127.6 266.3 136.1 256.1L168 225.9L199 256.1C208.4 266.3 223.6 266.3 232.1 256.1C242.3 247.6 242.3 232.4 232.1 223V223z" class="fa-secondary"/></svg>