<svg xmlns="http://www.w3.org/2000/svg" viewBox="0 0 640 512"><!--! Font Awesome Pro 6.2.0 by @fontawesome - https://fontawesome.com License - https://fontawesome.com/license (Commercial License) Copyright 2022 Fonticons, Inc. --><path d="M511.1 0H159.1c-24.75 0-47.23 18.93-64.26 49.72l425.3 333.4c48.75-9.143 86.94-91.2 86.94-191.1C607.1 85.1 564.1 0 511.1 0zM511.1 255.1c-17.63 0-32-28.62-32-63.1s14.37-64 32-64c17.62 0 32 28.62 32 64S529.6 255.1 511.1 255.1zM63.98 191.1v172.1c0 41.13-9.75 62.75-31.13 126.9c-3.5 10.25 4.25 20.1 15.13 20.1L360.9 512c13.88 0 26-8.75 30.38-21.88c7.875-23.54 15.21-45.57 19.85-71.24L66.51 148.8C64.91 162.7 63.98 177.1 63.98 191.1z" class="fa-secondary"/></svg>