<svg xmlns="http://www.w3.org/2000/svg" viewBox="0 0 512 512"><!--! Font Awesome Pro 6.2.0 by @fontawesome - https://fontawesome.com License - https://fontawesome.com/license (Commercial License) Copyright 2022 Fonticons, Inc. --><path d="M320 192c0-105.1 43-192 96-192H96C43 0 0 86 0 192c0 106 43 192 96 192h320C363 384 320 298 320 192zM63.98 224c-8.875 0-16-7.125-16-16s7.125-16 16-16s15.1 7.125 15.1 16S72.86 224 63.98 224zM127.1 224C119.1 224 111.1 216.9 111.1 208S119.1 192 127.1 192s16 7.125 16 16S136.8 224 127.1 224zM191.1 224C183.1 224 175.1 216.9 175.1 208S183.1 192 191.1 192s16.01 7.125 16.01 16S200.8 224 191.1 224zM255.1 224C247.1 224 239.1 216.9 239.1 208S247.1 192 255.1 192s16 7.125 16 16S264.8 224 255.1 224z" class="fa-secondary"/></svg>