<svg xmlns="http://www.w3.org/2000/svg" viewBox="0 0 448 512"><!--! Font Awesome Pro 6.2.0 by @fontawesome - https://fontawesome.com License - https://fontawesome.com/license (Commercial License) Copyright 2022 Fonticons, Inc. --><path d="M432 0h-416C7.25 0 0 7.25 0 16V32c0 8.75 7.25 16 16 16h416C440.8 48 448 40.75 448 32V16C448 7.25 440.8 0 432 0zM152 80h-48C99.63 80 96 83.63 96 88v16C96 108.4 99.63 112 104 112h48C156.4 112 160 108.4 160 104v-16C160 83.63 156.4 80 152 80z" class="fa-secondary"/></svg>