<svg xmlns="http://www.w3.org/2000/svg" viewBox="0 0 512 512"><!--! Font Awesome Pro 6.2.0 by @fontawesome - https://fontawesome.com License - https://fontawesome.com/license (Commercial License) Copyright 2022 Fonticons, Inc. --><path d="M512 303.6C512 454.1 365.7 512 275.7 512H236.3C145.1 512 0 455.3 0 303.6c0-85.19 43.27-138.4 98.5-161.7c2.121 2.889 5.34 5.164 9.83 5.164c1.924 0-.4141 .3047 41.58-7.441L128.9 176.6C124.9 185.8 135.1 195.1 145.3 190.1l110.7-48.79l110.6 48.79c10.28 4.148 20.46-5.221 16.45-14.37l-20.96-36.98c42.08 7.836 39.77 7.535 41.71 7.535c4.486 0 7.693-2.268 9.814-5.146C468.8 165.4 512 218.7 512 303.6z" class="fa-secondary"/></svg>