<svg xmlns="http://www.w3.org/2000/svg" viewBox="0 0 448 512"><!--! Font Awesome Pro 6.2.0 by @fontawesome - https://fontawesome.com License - https://fontawesome.com/license (Commercial License) Copyright 2022 Fonticons, Inc. --><path d="M223.1 0C117.1 0 31.1 86 31.1 192L32 448h384l-.0012-256C415.1 85.99 329.1 0 223.1 0zM320 192c0 8.875-7.125 16-16 16l-56.01-.0005L248 336c0 8.875-7.125 16-16 16h-16c-8.875 0-16-7.125-16-16L199.1 208L144 208C135.1 208 128 200.9 128 192V176C128 167.1 135.1 160 144 160l55.99 .0005L200 112c0-8.875 7.125-16 16-16h16c8.875 0 16 7.125 16 16l-.0073 47.1L304 160C312.9 160 320 167.1 320 176V192z" class="fa-secondary"/></svg>