<svg xmlns="http://www.w3.org/2000/svg" viewBox="0 0 512 512"><!--! Font Awesome Pro 6.2.0 by @fontawesome - https://fontawesome.com License - https://fontawesome.com/license (Commercial License) Copyright 2022 Fonticons, Inc. --><path d="M384 320v48c0 8.875-7.125 16-16 16h-32c-8.875 0-16-7.125-16-16V320H192v48C192 376.9 184.9 384 176 384h-32C135.1 384 128 376.9 128 368V320H0v128c0 17.62 14.38 32 32 32h448c17.62 0 32-14.38 32-32v-128H384zM176 80h160V128H384V80C384 53.5 362.5 32 336 32h-160C149.5 32 128 53.5 128 80V128h48V80z" class="fa-secondary"/></svg>