<svg xmlns="http://www.w3.org/2000/svg" viewBox="0 0 576 512"><!--! Font Awesome Pro 6.2.0 by @fontawesome - https://fontawesome.com License - https://fontawesome.com/license (Commercial License) Copyright 2022 Fonticons, Inc. --><path d="M184 256h-16C163.6 256 160 259.6 160 264V416h32V264C192 259.6 188.4 256 184 256zM120 256h-16C99.63 256 96 259.6 96 264V416h32V264C128 259.6 124.4 256 120 256zM56 256h-16C35.63 256 32 259.6 32 264V416h32V264C64 259.6 60.38 256 56 256zM376 256h-16C355.6 256 352 259.6 352 264V416h32V264C384 259.6 380.4 256 376 256zM440 256h-16C419.6 256 416 259.6 416 264V416h32V264C448 259.6 444.4 256 440 256zM248 256h-16C227.6 256 224 259.6 224 264V416h32V264C256 259.6 252.4 256 248 256zM312 256h-16C291.6 256 288 259.6 288 264V416h32V264C320 259.6 316.4 256 312 256z" class="fa-secondary"/></svg>