<svg xmlns="http://www.w3.org/2000/svg" viewBox="0 0 448 512"><!--! Font Awesome Pro 6.2.0 by @fontawesome - https://fontawesome.com License - https://fontawesome.com/license (Commercial License) Copyright 2022 Fonticons, Inc. --><path d="M387.7 195.9c-22-25.31-38.93-44.9-39-67.93H12.05c11.48 40.4 30.36 71.34 53.15 96h345.8C403.4 214.1 395.4 204.8 387.7 195.9zM407.8 42.09c7.531-6.562 10.22-17.12 6.688-26.5C410.1 6.219 401.1 0 391.1 0L24.16 .0313c-13 0-23.66 10.38-24 23.38c-.7051 26.94 1.188 50.8 4.789 72.57h353.9C367.9 80.74 383.4 63.37 407.8 42.09zM431.7 255.1H100.5C127 276.2 155.8 291.6 182.4 305.8c28.17 15.03 54.03 28.87 74.73 46.14h186.8C446.4 341.1 447.1 330.4 448 320C448 295.4 441.4 274.6 431.7 255.1zM303.6 485.3c-1.125 10.12 4.251 19.84 13.44 24.28C320.3 511.2 323.9 512 327.4 512c6.219 0 12.34-2.406 16.94-7c43.71-43.59 73.32-83.65 89.35-121h-148.6C300.8 408.6 308.6 440 303.6 485.3z" class="fa-secondary"/></svg>