<svg xmlns="http://www.w3.org/2000/svg" viewBox="0 0 448 512"><!--! Font Awesome Pro 6.2.0 by @fontawesome - https://fontawesome.com License - https://fontawesome.com/license (Commercial License) Copyright 2022 Fonticons, Inc. --><path d="M42.61 128H405.4C431.1 128 451.2 153.4 443.9 178.1L403.5 320.2C419.5 321.9 432 335.5 432 352C432 369.7 417.7 384 400 384H48C30.33 384 16 369.7 16 352C16 335.5 28.47 321.9 44.49 320.2L4.145 178.1C-3.156 153.4 16.03 128 42.61 128H42.61zM74.42 192L110.8 319.2C110.8 319.5 110.9 319.7 110.1 320H128V192H74.42zM176 192V320H272V192H176zM320 192V320H337C337.1 319.7 337.2 319.5 337.2 319.2L373.6 192H320z" class="fa-secondary"/></svg>