<svg xmlns="http://www.w3.org/2000/svg" viewBox="0 0 640 512"><!--! Font Awesome Pro 6.2.0 by @fontawesome - https://fontawesome.com License - https://fontawesome.com/license (Commercial License) Copyright 2022 Fonticons, Inc. --><path d="M640 128v256c0 17.69-14.33 32-32 32s-32-14.31-32-32v-160l-86.41 115.2c-12.06 16.12-39.13 16.12-51.19 0L352 224v160c0 17.69-14.33 32-32 32s-32-14.31-32-32v-256c0-13.78 8.812-26 21.88-30.34c13.08-4.406 27.45 .125 35.72 11.16L464 266.7l118.4-157.8c8.266-11 22.7-15.53 35.72-11.16C631.2 102 640 114.2 640 128z" class="fa-secondary"/></svg>