<svg xmlns="http://www.w3.org/2000/svg" viewBox="0 0 320 512"><!--! Font Awesome Pro 6.2.0 by @fontawesome - https://fontawesome.com License - https://fontawesome.com/license (Commercial License) Copyright 2022 Fonticons, Inc. --><path d="M112 112C112 85.5 133.5 64 160 64C186.5 64 208 85.5 208 112C208 138.5 186.5 160 160 160C133.5 160 112 138.5 112 112zM208 240C208 266.5 186.5 288 160 288C133.5 288 112 266.5 112 240C112 213.5 133.5 192 160 192C186.5 192 208 213.5 208 240zM208 368C208 394.5 186.5 416 160 416C133.5 416 112 394.5 112 368C112 341.5 133.5 320 160 320C186.5 320 208 341.5 208 368z" class="fa-secondary"/></svg>