<svg xmlns="http://www.w3.org/2000/svg" viewBox="0 0 640 512"><!--! Font Awesome Pro 6.2.0 by @fontawesome - https://fontawesome.com License - https://fontawesome.com/license (Commercial License) Copyright 2022 Fonticons, Inc. --><path d="M80 96C88.84 96 96 103.2 96 112V243.2C84.55 249 73.83 256.1 64 264.2V112C64 103.2 71.16 96 80 96V96zM160 224.7V112C160 103.2 167.2 96 176 96C184.8 96 192 103.2 192 112V224.7C186.7 224.2 181.4 224 176 224C170.6 224 165.3 224.2 160 224.7zM256 112C256 103.2 263.2 96 272 96C280.8 96 288 103.2 288 112V264.2C278.2 256.1 267.4 249 256 243.2V112zM368 96C376.8 96 384 103.2 384 112V304C384 312.8 376.8 320 368 320C359.2 320 352 312.8 352 304V112C352 103.2 359.2 96 368 96zM480 304C480 312.8 472.8 320 464 320C455.2 320 448 312.8 448 304V112C448 103.2 455.2 96 464 96C472.8 96 480 103.2 480 112V304zM96 400C96 355.8 131.8 320 176 320C220.2 320 256 355.8 256 400C256 444.2 220.2 480 176 480C131.8 480 96 444.2 96 400z" class="fa-secondary"/></svg>