<svg xmlns="http://www.w3.org/2000/svg" viewBox="0 0 448 512"><!--! Font Awesome Pro 6.2.0 by @fontawesome - https://fontawesome.com License - https://fontawesome.com/license (Commercial License) Copyright 2022 Fonticons, Inc. --><path d="M86.76 48C74.61 48 63.12 53.52 55.53 63.01L42.74 78.99C34.46 89.34 19.36 91.02 9.007 82.74C-1.343 74.46-3.021 59.36 5.259 49.01L18.04 33.03C34.74 12.15 60.03 0 86.76 0H361.2C387.1 0 413.3 12.15 429.1 33.03L442.7 49.01C451 59.36 449.3 74.46 438.1 82.74C428.6 91.02 413.5 89.34 405.3 78.99L392.5 63.01C384.9 53.52 373.4 48 361.2 48H248V96H200V48H86.76zM35.12 492.9L100.6 427.4C116.9 440.3 137.6 447.1 160 447.1L105.4 502.6C99.37 508.6 91.23 511.1 82.74 511.1H43.04C33.06 511.1 28.06 499.9 35.12 492.9V492.9zM342.6 502.6L288 447.1C310.4 447.1 331.1 440.3 347.4 427.4L412.9 492.9C419.9 499.9 414.9 512 404.1 512H365.3C356.8 512 348.6 508.6 342.6 502.6V502.6zM288 160C305.7 160 320 174.3 320 192V224C320 241.7 305.7 256 288 256H160C142.3 256 128 241.7 128 224V192C128 174.3 142.3 160 160 160H288z" class="fa-secondary"/></svg>