<svg xmlns="http://www.w3.org/2000/svg" viewBox="0 0 448 512"><!--! Font Awesome Pro 6.2.0 by @fontawesome - https://fontawesome.com License - https://fontawesome.com/license (Commercial License) Copyright 2022 Fonticons, Inc. --><path d="M352 64C369.7 64 384 78.33 384 96V192C384 209.7 369.7 224 352 224H96C78.33 224 64 209.7 64 192V96C64 78.33 78.33 64 96 64H352zM35.12 492.9L81.14 446.9C85.99 447.6 90.95 448 96 448H160L105.4 502.6C99.37 508.6 91.23 512 82.75 512H43.04C33.06 512 28.06 499.9 35.12 492.9H35.12zM342.6 502.6L288 447.1H352C357.1 447.1 362 447.6 366.9 446.9L412.9 492.9C419.9 499.9 414.9 511.1 404.1 511.1H365.3C356.8 511.1 348.6 508.6 342.6 502.6H342.6z" class="fa-secondary"/></svg>