<svg xmlns="http://www.w3.org/2000/svg" viewBox="0 0 448 512"><!--! Font Awesome Pro 6.2.0 by @fontawesome - https://fontawesome.com License - https://fontawesome.com/license (Commercial License) Copyright 2022 Fonticons, Inc. --><path d="M64 128C64 110.3 78.33 96 96 96H176C193.7 96 208 110.3 208 128V224C208 241.7 193.7 256 176 256H96C78.33 256 64 241.7 64 224V128zM96 447.1H160L105.4 502.6C99.37 508.6 91.23 511.1 82.75 511.1H43.04C33.06 511.1 28.06 499.9 35.12 492.9L81.14 446.9C85.98 447.6 90.95 447.1 96 447.1H96zM352 447.1C357.1 447.1 362 447.6 366.9 446.9L412.9 492.9C419.9 499.9 414.9 511.1 404.1 511.1H365.3C356.8 511.1 348.6 508.6 342.6 502.6L288 447.1H352zM352 96C369.7 96 384 110.3 384 128V224C384 241.7 369.7 256 352 256H272C254.3 256 240 241.7 240 224V128C240 110.3 254.3 96 272 96H352z" class="fa-secondary"/></svg>