<svg xmlns="http://www.w3.org/2000/svg" viewBox="0 0 384 512"><!--! Font Awesome Pro 6.2.0 by @fontawesome - https://fontawesome.com License - https://fontawesome.com/license (Commercial License) Copyright 2022 Fonticons, Inc. --><path d="M224 64h96c8.836 0 16-7.164 16-16C336 39.16 328.8 32 320 32h-24V24C296 10.74 285.3 0 272 0s-24 10.74-24 24V32H224c-8.836 0-16 7.162-16 16C208 56.84 215.2 64 224 64zM320 96h-96c-8.836 0-16 7.162-16 16C208 120.8 215.2 128 224 128h96c8.836 0 16-7.164 16-16C336 103.2 328.8 96 320 96zM262 320h-48.76l33.64-76.48c2.57-6.002 .6289-12.99-4.648-16.83c-5.334-3.869-12.55-3.527-17.45 .7793l-112 99.99c-4.404 3.842-5.936 10.01-3.885 15.46C110.1 348.4 116.2 352 121.1 352h48.76l-33.64 76.49c-2.57 6.002-.6289 12.99 4.648 16.83C144.2 447.1 147.1 448 149.1 448c3.309 0 6.59-1.162 9.215-3.459l112-100c4.404-3.842 5.936-10.01 3.885-15.46C273 323.6 267.8 320 262 320zM64 64h96c8.836 0 16-7.164 16-16C176 39.16 168.8 32 160 32H136V24C136 10.74 125.3 0 112 0S88 10.74 88 24V32H64C55.16 32 48 39.16 48 48C48 56.84 55.16 64 64 64zM176 112C176 103.2 168.8 96 160 96H64C55.16 96 48 103.2 48 112C48 120.8 55.16 128 64 128h96C168.8 128 176 120.8 176 112z" class="fa-secondary"/></svg>