<svg xmlns="http://www.w3.org/2000/svg" viewBox="0 0 512 512"><!--! Font Awesome Pro 6.2.0 by @fontawesome - https://fontawesome.com License - https://fontawesome.com/license (Commercial License) Copyright 2022 Fonticons, Inc. --><path d="M509.8 44.38L480 32l-12.38-29.75C466.9 .875 465.5 0 464 0s-2.875 .875-3.625 2.25L448 32l-29.75 12.38C416.9 45.13 416 46.5 416 48s.875 2.875 2.25 3.625L448 64l12.38 29.75C461.1 95.13 462.5 96 464 96s2.875-.875 3.625-2.25L480 64l29.75-12.38C511.1 50.88 512 49.5 512 48S511.1 45.13 509.8 44.38zM64 96L51.63 66.25C50.88 64.88 49.5 64 48 64S45.13 64.88 44.38 66.25L32 96L2.25 108.4C.875 109.1 0 110.5 0 112s.875 2.875 2.25 3.625L32 128l12.38 29.75C45.13 159.1 46.5 160 48 160s2.875-.875 3.625-2.25L64 128l29.75-12.38C95.13 114.9 96 113.5 96 112S95.13 109.1 93.75 108.4L64 96z" class="fa-secondary"/></svg>