<svg xmlns="http://www.w3.org/2000/svg" viewBox="0 0 448 512"><!--! Font Awesome Pro 6.2.0 by @fontawesome - https://fontawesome.com License - https://fontawesome.com/license (Commercial License) Copyright 2022 Fonticons, Inc. --><path d="M32 96H416L394.6 466.8C393.1 492.2 372.1 512 346.7 512H101.3C75.87 512 54.86 492.2 53.39 466.8L32 96zM248 241.9L287 280.1C296.4 290.3 311.6 290.3 320.1 280.1C330.3 271.6 330.3 256.4 320.1 247L240.1 167C236.5 162.5 230.4 159.1 224 159.1C217.6 159.1 211.5 162.5 207 167L127 247C117.7 256.4 117.7 271.6 127 280.1C136.4 290.3 151.6 290.3 160.1 280.1L200 241.9V376C200 389.3 210.7 400 224 400C237.3 400 248 389.3 248 376V241.9z" class="fa-secondary"/></svg>