<svg xmlns="http://www.w3.org/2000/svg" viewBox="0 0 448 512"><!--! Font Awesome Pro 6.2.0 by @fontawesome - https://fontawesome.com License - https://fontawesome.com/license (Commercial License) Copyright 2022 Fonticons, Inc. --><path d="M416 448C416 483.3 387.3 512 352 512H96C60.65 512 32 483.3 32 448V96H416V448zM224 400C237.3 400 248 389.3 248 376V312H312C325.3 312 336 301.3 336 288C336 274.7 325.3 264 312 264H248V200C248 186.7 237.3 176 224 176C210.7 176 200 186.7 200 200V264H136C122.7 264 112 274.7 112 288C112 301.3 122.7 312 136 312H200V376C200 389.3 210.7 400 224 400z" class="fa-secondary"/></svg>