<svg xmlns="http://www.w3.org/2000/svg" viewBox="0 0 640 512"><!--! Font Awesome Pro 6.2.0 by @fontawesome - https://fontawesome.com License - https://fontawesome.com/license (Commercial License) Copyright 2022 Fonticons, Inc. --><path d="M195.6 128H512L497.2 364.4L195.6 128zM98.4 51.82C103.2 40.19 114.6 32 127.1 32H223.1L231.2 17.69C236.6 6.848 247.7 0 259.8 0H380.2C392.3 0 403.4 6.848 408.8 17.69L416 32H512C529.7 32 544 46.33 544 64C544 81.67 529.7 96 512 96H154.8L98.4 51.82zM149.2 466.1L132.5 200.4L487.1 480.5C481.2 498.1 463.5 512 442.9 512H197.1C171.7 512 150.8 492.3 149.2 466.1H149.2z" class="fa-secondary"/></svg>