<svg xmlns="http://www.w3.org/2000/svg" viewBox="0 0 448 512"><!--! Font Awesome Pro 6.2.0 by @fontawesome - https://fontawesome.com License - https://fontawesome.com/license (Commercial License) Copyright 2022 Fonticons, Inc. --><path d="M394.6 466.8C393.1 492.2 372.1 512 346.7 512H101.3C75.87 512 54.86 492.2 53.39 466.8L32 96H416L394.6 466.8zM143 240.1L190.1 287.1L143 335C133.7 344.4 133.7 359.6 143 368.1C152.4 378.3 167.6 378.3 176.1 368.1L223.1 321.9L271 368.1C280.4 378.3 295.6 378.3 304.1 368.1C314.3 359.6 314.3 344.4 304.1 335L257.9 287.1L304.1 240.1C314.3 231.6 314.3 216.4 304.1 207C295.6 197.7 280.4 197.7 271 207L223.1 254.1L176.1 207C167.6 197.7 152.4 197.7 143 207C133.7 216.4 133.7 231.6 143 240.1V240.1z" class="fa-secondary"/></svg>