<svg xmlns="http://www.w3.org/2000/svg" viewBox="0 0 576 512"><!--! Font Awesome Pro 6.2.0 by @fontawesome - https://fontawesome.com License - https://fontawesome.com/license (Commercial License) Copyright 2022 Fonticons, Inc. --><path d="M32 96H416V192.7C386.7 195.4 359.4 205.2 336 220.5V175.1C336 167.2 328.8 159.1 320 159.1C311.2 159.1 304 167.2 304 175.1V247.2C274.2 278.7 256 321.2 256 368C256 427.5 285.6 480.1 330.8 512H96C60.65 512 32 483.3 32 448V96zM112 176V400C112 408.8 119.2 416 128 416C136.8 416 144 408.8 144 400V176C144 167.2 136.8 160 128 160C119.2 160 112 167.2 112 176zM208 176V400C208 408.8 215.2 416 224 416C232.8 416 240 408.8 240 400V176C240 167.2 232.8 160 224 160C215.2 160 208 167.2 208 176z" class="fa-secondary"/></svg>