<svg xmlns="http://www.w3.org/2000/svg" viewBox="0 0 448 512"><!--! Font Awesome Pro 6.2.0 by @fontawesome - https://fontawesome.com License - https://fontawesome.com/license (Commercial License) Copyright 2022 Fonticons, Inc. --><path d="M32 96H416L394.6 466.8C393.1 492.2 372.1 512 346.7 512H101.3C75.87 512 54.86 492.2 53.39 466.8L32 96zM183.9 166.2L103.9 238.2C98.89 242.7 96 249.2 96 256C96 262.8 98.89 269.3 103.9 273.8L183.9 345.8C193.8 354.7 208.1 353.9 217.8 344.1C226.7 334.2 225.9 319 216.1 310.2L182.5 280H240C262.1 280 280 297.9 280 320V360C280 373.3 290.7 384 304 384C317.3 384 328 373.3 328 360V320C328 271.4 288.6 232 240 232H182.5L216.1 201.8C225.9 192.1 226.7 177.8 217.8 167.9C208.1 158.1 193.8 157.3 183.9 166.2V166.2z" class="fa-secondary"/></svg>