<svg xmlns="http://www.w3.org/2000/svg" viewBox="0 0 448 512"><!--! Font Awesome Pro 6.2.0 by @fontawesome - https://fontawesome.com License - https://fontawesome.com/license (Commercial License) Copyright 2022 Fonticons, Inc. --><path d="M394.6 466.8C393.1 492.2 372.1 512 346.7 512H101.3C75.87 512 54.86 492.2 53.39 466.8L32 96H416L394.6 466.8zM224 400C237.3 400 248 389.3 248 376V312H312C325.3 312 336 301.3 336 288C336 274.7 325.3 264 312 264H248V200C248 186.7 237.3 176 224 176C210.7 176 200 186.7 200 200V264H136C122.7 264 112 274.7 112 288C112 301.3 122.7 312 136 312H200V376C200 389.3 210.7 400 224 400z" class="fa-secondary"/></svg>