<svg xmlns="http://www.w3.org/2000/svg" viewBox="0 0 448 512"><!--! Font Awesome Pro 6.2.0 by @fontawesome - https://fontawesome.com License - https://fontawesome.com/license (Commercial License) Copyright 2022 Fonticons, Inc. --><path d="M416 448C416 483.3 387.3 512 352 512H96C60.65 512 32 483.3 32 448V96H416V448zM144 176C144 167.2 136.8 160 128 160C119.2 160 112 167.2 112 176V400C112 408.8 119.2 416 128 416C136.8 416 144 408.8 144 400V176zM240 176C240 167.2 232.8 160 224 160C215.2 160 208 167.2 208 176V400C208 408.8 215.2 416 224 416C232.8 416 240 408.8 240 400V176zM336 176C336 167.2 328.8 160 320 160C311.2 160 304 167.2 304 176V400C304 408.8 311.2 416 320 416C328.8 416 336 408.8 336 400V176z" class="fa-secondary"/></svg>