<svg xmlns="http://www.w3.org/2000/svg" viewBox="0 0 448 512"><!--! Font Awesome Pro 6.2.0 by @fontawesome - https://fontawesome.com License - https://fontawesome.com/license (Commercial License) Copyright 2022 Fonticons, Inc. --><path d="M394.6 466.8C393.1 492.2 372.1 512 346.7 512H101.3C75.87 512 54.86 492.2 53.39 466.8L32 96H416L394.6 466.8zM339.8 243.8C350.7 232.9 350.7 215.1 339.8 204.2C328.9 193.3 311.1 193.3 300.2 204.2L192 312.4L147.8 268.2C136.9 257.3 119.1 257.3 108.2 268.2C97.27 279.1 97.27 296.9 108.2 307.8L172.2 371.8C183.1 382.7 200.9 382.7 211.8 371.8L339.8 243.8z" class="fa-secondary"/></svg>