<svg xmlns="http://www.w3.org/2000/svg" viewBox="0 0 640 512"><!--! Font Awesome Pro 6.2.0 by @fontawesome - https://fontawesome.com License - https://fontawesome.com/license (Commercial License) Copyright 2022 Fonticons, Inc. --><path d="M384 464C384 490.5 362.5 512 336 512H80C53.49 512 32 490.5 32 464V96H384V464zM160 192C160 183.2 152.8 176 144 176C135.2 176 128 183.2 128 192V416C128 424.8 135.2 432 144 432C152.8 432 160 424.8 160 416V192zM288 192C288 183.2 280.8 176 272 176C263.2 176 256 183.2 256 192V416C256 424.8 263.2 432 272 432C280.8 432 288 424.8 288 416V192z" class="fa-secondary"/></svg>