<svg xmlns="http://www.w3.org/2000/svg" viewBox="0 0 576 512"><!--! Font Awesome Pro 6.2.0 by @fontawesome - https://fontawesome.com License - https://fontawesome.com/license (Commercial License) Copyright 2022 Fonticons, Inc. --><path d="M352 336c0 8.836-7.164 16-16 16h-96C231.2 352 224 344.8 224 336V288H160v192h256V288h-64V336zM0 128v128h96V32C42.98 32 0 74.98 0 128zM0 448c0 17.67 14.33 32 32 32h64V288H0V448zM160 256h64V208C224 199.2 231.2 192 240 192h96C344.8 192 352 199.2 352 208V256h64V32H160V256zM480 32v224h96V128C576 74.98 533 32 480 32zM480 480h64c17.67 0 32-14.33 32-32V288h-96V480z" class="fa-secondary"/></svg>