<svg xmlns="http://www.w3.org/2000/svg" viewBox="0 0 512 512"><!--! Font Awesome Pro 6.2.0 by @fontawesome - https://fontawesome.com License - https://fontawesome.com/license (Commercial License) Copyright 2022 Fonticons, Inc. --><path d="M471.6 455.6l-89.87-103.6h35.1c25.62 0 39.5-29.25 23.25-48.5l-155.1-190.1l-20.89 41.58C262.5 158.3 259.2 160 255.1 160S249.5 158.3 247.9 154.1L226.1 113.4L71.04 303.5c-16.25 19.25-2.375 48.5 23.25 48.5h35.1l-89.87 103.6C21.42 477.5 36.67 512 65.17 512h381.6C475.4 512 490.5 477.4 471.6 455.6zM192 312C178.8 312 168 301.3 168 288s10.75-24 23.1-24c13.25 0 23.1 10.75 23.1 24S205.2 312 192 312zM319.1 440c-13.25 0-23.1-10.75-23.1-24s10.75-24 23.1-24s23.1 10.75 23.1 24S333.2 440 319.1 440z" class="fa-secondary"/></svg>