<svg xmlns="http://www.w3.org/2000/svg" viewBox="0 0 512 512"><!--! Font Awesome Pro 6.2.0 by @fontawesome - https://fontawesome.com License - https://fontawesome.com/license (Commercial License) Copyright 2022 Fonticons, Inc. --><path d="M499.1 462.9c-17.13 30.5-49.25 49.25-84.13 49.12H96.12c-34.88 .125-66.97-18.56-84.09-49.06c-16.75-29.5-15.94-66.06 2.187-94.81L173.1 109.3c11.75-19 29.63-32.19 50.01-39.31v-37.1C223.1 14.33 238.3 0 255.1 0c17.67 0 32.05 14.33 32.05 32v37.1C308.4 77.12 326.2 90.34 337.1 109.3l36.15 58.55l-46.53 46.51L283.5 143.1C275.1 129.4 261.5 128 256 128S236.9 129.5 228.5 143.1l-159.9 258.6c-5.75 9.125-6.125 20.62-.75 29.1c5.75 10.25 16.63 16.5 28.25 16.25h319.8c11.62 .25 22.5-5.1 28.25-16.25c5.375-9.375 5-20.87-.75-29.1l-89.88-145.4l46.53-46.52l97.73 158.3C515.9 396.9 516.7 433.4 499.1 462.9z" class="fa-secondary"/></svg>