<svg xmlns="http://www.w3.org/2000/svg" viewBox="0 0 640 512"><!--! Font Awesome Pro 6.2.0 by @fontawesome - https://fontawesome.com License - https://fontawesome.com/license (Commercial License) Copyright 2022 Fonticons, Inc. --><path d="M94.1 117.2c-6-16.6-24.3-25.3-40.9-19.3s-25.3 24.3-19.3 40.9l14.9 41.7c9.4 26.2 31.7 45.6 58.9 51.3l77.7 16.3c17.3 3.6 34.3-7.4 37.9-24.7s-7.4-34.3-24.7-37.9l-77.7-16.3c-5.4-1.1-9.9-5-11.8-10.3L94.1 117.2zM96 304a48 48 0 1 1 0 96 48 48 0 1 1 0-96zm0 144c17.5 0 33.9-4.7 48-12.8c14.1 8.2 30.5 12.8 48 12.8c53 0 96-43 96-96c0-4.1-.3-8.2-.8-12.2l-52.8-10.3c3.6 6.7 5.6 14.4 5.6 22.5c0 26.5-21.5 48-48 48c-4.1 0-8.2-.5-12-1.5c7.6-13.8 12-29.6 12-46.5c0-53-43-96-96-96s-96 43-96 96s43 96 96 96zm400-96a48 48 0 1 1 96 0 48 48 0 1 1 -96 0zm144 0a96 96 0 1 0 -192 0 96 96 0 1 0 192 0z" class="fa-secondary"/></svg>