<svg xmlns="http://www.w3.org/2000/svg" viewBox="0 0 512 512"><!--! Font Awesome Pro 6.2.0 by @fontawesome - https://fontawesome.com License - https://fontawesome.com/license (Commercial License) Copyright 2022 Fonticons, Inc. --><path d="M256 352c0-51.5 30.4-95.9 74.2-116.2l14 56.1c-19.4 12.9-32.2 35-32.2 60c0 39.8 32.2 72 72 72s72-32.2 72-72c0-37.5-28.6-68.2-65.2-71.7l-14-56.1c2.4-.1 4.8-.2 7.2-.2c70.7 0 128 57.3 128 128s-57.3 128-128 128s-128-57.3-128-128zm-88 16A56 56 0 1 0 56 368a56 56 0 1 0 112 0zM0 368a112 112 0 1 1 224 0A112 112 0 1 1 0 368z" class="fa-secondary"/></svg>