<svg xmlns="http://www.w3.org/2000/svg" viewBox="0 0 512 512"><!--! Font Awesome Pro 6.2.0 by @fontawesome - https://fontawesome.com License - https://fontawesome.com/license (Commercial License) Copyright 2022 Fonticons, Inc. --><path d="M379.2 123.4C417.8 110.6 447.4 111.5 462.1 113.4C477 115.3 485.8 130.5 480 144.3C474.4 157.6 461 182.7 432.3 208.1C424.2 201.3 415.2 194.4 405.3 188.7C397.1 184.4 390.4 181 382.7 178.4C383.6 172.4 384 166.2 384 160C384 147.5 382.2 135.2 379.2 123.4V123.4zM129.3 178.3C121.5 180.1 113.9 184.4 106.6 188.7C96.67 194.4 87.72 201.3 79.62 208.9C50.95 182.7 37.57 157.6 31.98 144.3C26.17 130.5 34.96 115.3 49.85 113.4C64.56 111.5 94.21 110.6 132.8 123.4C129.8 135.2 127.1 147.5 127.1 160C127.1 166.2 128.4 172.3 129.3 178.3H129.3zM237.1 497.1C228.7 484.5 214.2 458.9 206.1 422.8C215.9 419.7 225.4 415.6 234.6 410.4C242.3 405.9 249.5 400.7 255.9 394.9C262.4 400.7 269.5 405.9 277.3 410.4C286.4 415.7 296.1 419.8 305.9 422.9C297.7 458.1 283.3 484.5 274.9 497.1C265.8 510.8 246.2 510.8 237.1 497.1V497.1z" class="fa-secondary"/></svg>