<svg xmlns="http://www.w3.org/2000/svg" viewBox="0 0 512 512"><!--! Font Awesome Pro 6.2.0 by @fontawesome - https://fontawesome.com License - https://fontawesome.com/license (Commercial License) Copyright 2022 Fonticons, Inc. --><path d="M298.6 168.1C298.7 168.2 298.8 168.3 298.9 168.4L343.6 213.1C343.7 213.2 343.8 213.3 343.9 213.4L245.3 311.1L310.6 377.4C318.5 385.3 321.8 396.8 319.1 407.6C316.4 418.5 308.2 427.2 297.5 430.5L41.55 510.5C30.18 514.1 17.79 511 9.373 502.6C.9565 494.2-2.093 481.8 1.458 470.5L81.46 214.5C84.8 203.8 93.48 195.6 104.4 192.9C115.2 190.2 126.7 193.5 134.6 201.4L200 266.7L298.6 168.1z" class="fa-secondary"/></svg>