<svg xmlns="http://www.w3.org/2000/svg" viewBox="0 0 512 512"><!--! Font Awesome Pro 6.2.0 by @fontawesome - https://fontawesome.com License - https://fontawesome.com/license (Commercial License) Copyright 2022 Fonticons, Inc. --><path d="M480 224C497.7 224 512 238.3 512 256V320C512 337.7 497.7 352 480 352H320C302.3 352 288 337.7 288 320V256C288 238.3 302.3 224 320 224H480zM0 416C0 398.3 14.33 384 32 384H128C145.7 384 160 398.3 160 416V480C160 497.7 145.7 512 128 512H32C14.33 512 0 497.7 0 480V416zM192 416C192 398.3 206.3 384 224 384H480C497.7 384 512 398.3 512 416V480C512 497.7 497.7 512 480 512H224C206.3 512 192 497.7 192 480V416z" class="fa-secondary"/></svg>