<svg xmlns="http://www.w3.org/2000/svg" viewBox="0 0 640 512"><!--! Font Awesome Pro 6.2.0 by @fontawesome - https://fontawesome.com License - https://fontawesome.com/license (Commercial License) Copyright 2022 Fonticons, Inc. --><path d="M130.3 275.1C135.1 264.3 146.6 256 160 256C173.4 256 184.9 264.3 189.7 275.1C198.8 278.5 207.4 282.1 215.4 286.6C227 281.7 241 284 250.5 293.5C260 302.1 262.3 316.1 257.4 328.6C261.9 336.6 265.5 345.2 268 354.3C279.7 359.1 288 370.6 288 384C288 397.4 279.7 408.9 268 413.7C265.5 422.8 261.9 431.4 257.4 439.4C262.3 451 260 465 250.5 474.5C241 484 227.1 486.3 215.4 481.4C207.4 485.9 198.8 489.5 189.7 492C184.9 503.7 173.4 512 160 512C146.6 512 135.1 503.7 130.3 492C121.2 489.5 112.6 485.9 104.6 481.4C92.95 486.3 78.98 484 69.49 474.5C59.1 465 57.72 451 62.64 439.4C58.07 431.4 54.46 422.8 51.97 413.7C40.26 408.9 32 397.4 32 384C32 370.6 40.26 359.1 51.97 354.3C54.46 345.2 58.07 336.6 62.64 328.6C57.72 316.1 59.1 302.1 69.49 293.5C78.98 283.1 92.95 281.7 104.6 286.6C112.6 282.1 121.2 278.5 130.3 275.1V275.1zM160 336C133.5 336 112 357.5 112 384C112 410.5 133.5 432 160 432C186.5 432 208 410.5 208 384C208 357.5 186.5 336 160 336zM450.3 275.1C455.1 264.3 466.6 256 480 256C493.4 256 504.9 264.3 509.7 275.1C518.8 278.5 527.4 282.1 535.4 286.6C547 281.7 561 284 570.5 293.5C580 302.1 582.3 316.1 577.4 328.6C581.9 336.6 585.5 345.2 588 354.3C599.7 359.1 608 370.6 608 384C608 397.4 599.7 408.9 588 413.7C585.5 422.8 581.9 431.4 577.4 439.4C582.3 451 580 465 570.5 474.5C561 484 547 486.3 535.4 481.4C527.4 485.9 518.8 489.5 509.7 492C504.9 503.7 493.4 512 480 512C466.6 512 455.1 503.7 450.3 492C441.2 489.5 432.6 485.9 424.6 481.4C412.1 486.3 398.1 484 389.5 474.5C380 465 377.7 451 382.6 439.4C378.1 431.4 374.5 422.8 371.1 413.7C360.3 408.9 352 397.4 352 384C352 370.6 360.3 359.1 371.1 354.3C374.5 345.2 378.1 336.6 382.6 328.6C377.7 316.1 380 302.1 389.5 293.5C398.1 283.1 412.1 281.7 424.6 286.6C432.6 282.1 441.2 278.5 450.3 275.1zM480 336C453.5 336 432 357.5 432 384C432 410.5 453.5 432 480 432C506.5 432 528 410.5 528 384C528 357.5 506.5 336 480 336z" class="fa-secondary"/></svg>