<svg xmlns="http://www.w3.org/2000/svg" viewBox="0 0 640 512"><!--! Font Awesome Pro 6.2.0 by @fontawesome - https://fontawesome.com License - https://fontawesome.com/license (Commercial License) Copyright 2022 Fonticons, Inc. --><path d="M223 79.03C232.4 69.66 247.6 69.66 256.1 79.03L336.1 159C346.3 168.4 346.3 183.6 336.1 192.1L256.1 272.1C247.6 282.3 232.4 282.3 223 272.1C213.7 263.6 213.7 248.4 223 239L262.1 200H96C82.75 200 72 189.3 72 176C72 162.7 82.75 152 96 152H262.1L223 112.1C213.7 103.6 213.7 88.4 223 79.03V79.03zM256 432C256 476.2 220.2 512 176 512C131.8 512 96 476.2 96 432C96 387.8 131.8 352 176 352C220.2 352 256 387.8 256 432zM384 432C384 387.8 419.8 352 464 352C508.2 352 544 387.8 544 432C544 476.2 508.2 512 464 512C419.8 512 384 476.2 384 432z" class="fa-secondary"/></svg>