<svg xmlns="http://www.w3.org/2000/svg" viewBox="0 0 640 512"><!--! Font Awesome Pro 6.2.0 by @fontawesome - https://fontawesome.com License - https://fontawesome.com/license (Commercial License) Copyright 2022 Fonticons, Inc. --><path d="M266.3 51.72C271.9 56.47 273.6 64.52 270.3 71.16L233.9 143.1H288C294.9 143.1 301 148.4 303.2 154.9C305.4 161.5 303.1 168.7 297.6 172.8L169.6 268.8C163.7 273.3 155.4 273 149.7 268.3C144.1 263.5 142.4 255.5 145.7 248.8L182.1 176H128C121.1 176 114.1 171.6 112.8 165.1C110.6 158.5 112.9 151.3 118.4 147.2L246.4 51.2C252.3 46.75 260.6 46.96 266.3 51.72V51.72zM256 432C256 476.2 220.2 512 176 512C131.8 512 96 476.2 96 432C96 387.8 131.8 352 176 352C220.2 352 256 387.8 256 432zM544 432C544 476.2 508.2 512 464 512C419.8 512 384 476.2 384 432C384 387.8 419.8 352 464 352C508.2 352 544 387.8 544 432z" class="fa-secondary"/></svg>