<svg xmlns="http://www.w3.org/2000/svg" viewBox="0 0 640 512"><!--! Font Awesome Pro 6.2.0 by @fontawesome - https://fontawesome.com License - https://fontawesome.com/license (Commercial License) Copyright 2022 Fonticons, Inc. --><path d="M160 416C160 451.3 131.3 480 96 480C60.65 480 32 451.3 32 416C32 380.7 60.65 352 96 352C131.3 352 160 380.7 160 416zM320 416C320 451.3 291.3 480 256 480C220.7 480 192 451.3 192 416C192 380.7 220.7 352 256 352C291.3 352 320 380.7 320 416zM608 416C608 451.3 579.3 480 544 480C508.7 480 480 451.3 480 416C480 380.7 508.7 352 544 352C579.3 352 608 380.7 608 416z" class="fa-secondary"/></svg>