<svg xmlns="http://www.w3.org/2000/svg" viewBox="0 0 640 512"><!--! Font Awesome Pro 6.2.0 by @fontawesome - https://fontawesome.com License - https://fontawesome.com/license (Commercial License) Copyright 2022 Fonticons, Inc. --><path d="M144 86.06C144 54.68 169.4 0 200 0C231.5 0 256 54.68 256 86.06V182.9C255.1 183.3 256 183.6 256 184V411.5L256.1 411.6C257.3 433.8 269.8 452.9 288 463.4V496C288 501.2 288.8 506.3 290.4 510.1L200 480.9L109.1 511.2C104.2 512.8 98.82 511.1 94.64 508.1C90.47 505.1 88 501.1 88 496V464C88 459.1 90.21 454.5 94 451.5L144 411.5V330.3L20.6 367.3C15.75 368.8 10.51 367.9 6.449 364.8C2.391 361.8 0 357.1 0 352V288C0 282.4 2.949 277.2 7.768 274.3L144 192.5V86.06z" class="fa-secondary"/></svg>