<svg xmlns="http://www.w3.org/2000/svg" viewBox="0 0 640 512"><!--! Font Awesome Pro 6.2.0 by @fontawesome - https://fontawesome.com License - https://fontawesome.com/license (Commercial License) Copyright 2022 Fonticons, Inc. --><path d="M23.11 207.7C18.54 190.6 28.67 173.1 45.74 168.5L200.3 127.1C217.4 122.5 234.9 132.7 239.5 149.7L280.9 304.3C285.5 321.4 275.3 338.9 258.3 343.5L103.7 384.9C86.64 389.5 69.1 379.3 64.52 362.3L23.11 207.7zM112.8 233.4C115.1 241.9 123.9 246.1 132.4 244.7L163.3 236.4C171.8 234.1 176.9 225.3 174.6 216.8L153.9 139.5L92.1 156.1L112.8 233.4zM448 416C448 362.1 490.1 320 544 320C597 320 640 362.1 640 416C640 469 597 512 544 512C490.1 512 448 469 448 416z" class="fa-secondary"/></svg>