<svg xmlns="http://www.w3.org/2000/svg" viewBox="0 0 640 512"><!--! Font Awesome Pro 6.2.0 by @fontawesome - https://fontawesome.com License - https://fontawesome.com/license (Commercial License) Copyright 2022 Fonticons, Inc. --><path d="M224 64C232.8 64 240 71.16 240 80V128H288C296.8 128 304 135.2 304 144V176C304 184.8 296.8 192 288 192H240V240C240 248.8 232.8 256 224 256H192C183.2 256 176 248.8 176 240V192H128C119.2 192 112 184.8 112 176V144C112 135.2 119.2 128 128 128H176V80C176 71.16 183.2 64 192 64H224zM256 432C256 476.2 220.2 512 176 512C131.8 512 96 476.2 96 432C96 387.8 131.8 352 176 352C220.2 352 256 387.8 256 432zM544 432C544 476.2 508.2 512 464 512C419.8 512 384 476.2 384 432C384 387.8 419.8 352 464 352C508.2 352 544 387.8 544 432z" class="fa-secondary"/></svg>