<svg xmlns="http://www.w3.org/2000/svg" viewBox="0 0 512 512"><!--! Font Awesome Pro 6.2.0 by @fontawesome - https://fontawesome.com License - https://fontawesome.com/license (Commercial License) Copyright 2022 Fonticons, Inc. --><path d="M112 224L129.9 152.2C133.5 137.1 146.3 128 160.1 128H351C365.7 128 378.5 137.1 382.1 152.2L400 224H112zM32 480V432C45.37 442 61.99 448 80 448H128V480C128 497.7 113.7 512 96 512H64C46.33 512 32 497.7 32 480zM384 480V448H432C450 448 466.6 442 480 432V480C480 497.7 465.7 512 448 512H416C398.3 512 384 497.7 384 480z" class="fa-secondary"/></svg>