<svg xmlns="http://www.w3.org/2000/svg" viewBox="0 0 640 512"><!--! Font Awesome Pro 6.2.0 by @fontawesome - https://fontawesome.com License - https://fontawesome.com/license (Commercial License) Copyright 2022 Fonticons, Inc. --><path d="M96 0H145.5C154.7 0 163.5 3.983 169.6 10.93L384 256H192L96 64V176C96 202.5 74.51 224 48 224C21.49 224 0 202.5 0 176V160C0 151.2 7.164 144 16 144C24.84 144 32 151.2 32 160V176C32 184.8 39.16 192 48 192C56.84 192 64 184.8 64 176V32C64 14.33 78.33 0 96 0zM256 432C256 476.2 220.2 512 176 512C131.8 512 96 476.2 96 432C96 387.8 131.8 352 176 352C220.2 352 256 387.8 256 432zM416 432C416 387.8 451.8 352 496 352C540.2 352 576 387.8 576 432C576 476.2 540.2 512 496 512C451.8 512 416 476.2 416 432z" class="fa-secondary"/></svg>