<svg xmlns="http://www.w3.org/2000/svg" viewBox="0 0 640 512"><!--! Font Awesome Pro 6.2.0 by @fontawesome - https://fontawesome.com License - https://fontawesome.com/license (Commercial License) Copyright 2022 Fonticons, Inc. --><path d="M280 189.1C280 226.4 247.8 256 208 256C168.2 256 136 226.4 136 189.1C136 163 175.4 107 195.9 79.71C202 71.54 213.1 71.54 220.1 79.71C240.6 107 280 163 280 189.1zM256 432C256 476.2 220.2 512 176 512C131.8 512 96 476.2 96 432C96 387.8 131.8 352 176 352C220.2 352 256 387.8 256 432zM384 432C384 387.8 419.8 352 464 352C508.2 352 544 387.8 544 432C544 476.2 508.2 512 464 512C419.8 512 384 476.2 384 432z" class="fa-secondary"/></svg>