<svg xmlns="http://www.w3.org/2000/svg" viewBox="0 0 512 512"><!--! Font Awesome Pro 6.2.0 by @fontawesome - https://fontawesome.com License - https://fontawesome.com/license (Commercial License) Copyright 2022 Fonticons, Inc. --><path d="M187.1 352c-6.625 0-12 5.375-12 12v40c0 6.625 5.375 12 12 12h40c6.625 0 12-5.375 12-12v-40c0-6.625-5.375-12-12-12H187.1zM235.1 320h39.1c6.625 0 12-5.375 12-12v-40c0-6.625-5.375-12-12-12h-40c-6.625 0-12 5.375-12 12v40C223.1 314.6 229.3 320 235.1 320zM331.1 320h39.1c6.625 0 12-5.375 12-12v-40c0-6.625-5.375-12-12-12h-40c-6.625 0-12 5.375-12 12v40C319.1 314.6 325.3 320 331.1 320zM139.1 320h39.1c6.625 0 11.1-5.375 11.1-12v-40c0-6.625-5.375-12-12-12h-40c-6.625 0-12 5.375-12 12v40C127.1 314.6 133.3 320 139.1 320zM367.1 364v40c0 6.625 5.375 12 12 12h40c6.625 0 12-5.375 12-12v-40c0-6.625-5.375-12-12-12h-40C373.3 352 367.1 357.4 367.1 364zM283.1 352c-6.625 0-12 5.375-12 12v40c0 6.625 5.375 12 12 12h40c6.625 0 12-5.375 12-12v-40c0-6.625-5.375-12-12-12H283.1zM467.1 448h-40c-6.625 0-12 5.375-12 12v40c0 6.625 5.375 12 12 12h40c6.625 0 12-5.375 12-12v-40C479.1 453.4 474.6 448 467.1 448zM467.1 256h-40c-6.625 0-12 5.375-12 12v40c0 6.625 5.369 12 11.99 12h39.1c6.625 0 12.01-5.375 12.01-12v-40C479.1 261.4 474.6 256 467.1 256zM371.1 448h-232c-6.625 0-12 5.375-12 12v40c0 6.625 5.375 12 12 12h232c6.625 0 12-5.375 12-12v-40C383.1 453.4 378.6 448 371.1 448zM43.97 320H83.97c6.625 0 11.99-5.375 11.99-12v-40c0-6.625-5.375-12-12-12h-40c-6.625 0-12 5.375-12 12v40C31.96 314.6 37.35 320 43.97 320zM91.96 352c-6.625 0-12 5.375-12 12v40c0 6.625 5.375 12 12 12h40c6.625 0 12-5.375 12-12v-40c0-6.625-5.375-12-12-12H91.96zM83.96 448h-40c-6.625 0-12 5.375-12 12v40c0 6.625 5.375 12 12 12h40c6.625 0 12-5.375 12-12v-40C95.96 453.4 90.59 448 83.96 448z" class="fa-secondary"/></svg>