<svg xmlns="http://www.w3.org/2000/svg" viewBox="0 0 384 512"><!--! Font Awesome Pro 6.2.0 by @fontawesome - https://fontawesome.com License - https://fontawesome.com/license (Commercial License) Copyright 2022 Fonticons, Inc. --><path d="M159.1 264.1L71.76 287C54.62 291.3 37.24 280.9 32.96 263.8C28.67 246.6 39.09 229.2 56.24 224.1L160 199L159.1 264.1zM159.1 360.1L71.76 383C54.62 387.3 37.24 376.9 32.96 359.8C28.67 342.6 39.09 325.2 56.24 320.1L160 295L159.1 360.1zM224 344.1V279L312.2 256.1C329.4 252.7 346.8 263.1 351 280.2C355.3 297.4 344.9 314.8 327.8 319L224 344.1zM224 248.1V183L312.2 160.1C329.4 156.7 346.8 167.1 351 184.2C355.3 201.4 344.9 218.8 327.8 223L224 248.1z" class="fa-secondary"/></svg>