<svg xmlns="http://www.w3.org/2000/svg" viewBox="0 0 640 512"><!--! Font Awesome Pro 6.2.0 by @fontawesome - https://fontawesome.com License - https://fontawesome.com/license (Commercial License) Copyright 2022 Fonticons, Inc. --><path d="M488.7 193.9c53.78 58.14 87.32 131.6 87.32 190.1C576 498.9 447.1 512 288 512S0 498.9 0 383.1c0-114.9 128.9-288 287.1-288c45.93 .002 89.2 14.74 127.7 38.05c-6.441 2.711-13.21 5.283-20.45 7.598C327.4 163.3 310.9 146.8 266.2 163.4c-81.84 29.89-93.58 125.4-47.2 179.6c56.68 66.91 173.3 51.92 202.8-44.45c3.586-11.72 18.57-46.05 42.01-77.35C472.1 210.2 480.4 201.5 488.7 193.9z" class="fa-secondary"/></svg>