<svg xmlns="http://www.w3.org/2000/svg" viewBox="0 0 384 512"><!--! Font Awesome Pro 6.2.0 by @fontawesome - https://fontawesome.com License - https://fontawesome.com/license (Commercial License) Copyright 2022 Fonticons, Inc. --><path d="M64 184.1L40.79 190.8C23.8 195.6 6.087 185.8 1.232 168.8C-3.623 151.8 6.216 134.1 23.21 129.2L64 117.6L64 184.1zM64 280.1L40.79 286.8C23.8 291.6 6.087 281.8 1.232 264.8C-3.623 247.8 6.216 230.1 23.21 225.2L64 213.6L64 280.1zM128 261.9V195.3L247.2 161.2C264.2 156.4 281.9 166.2 286.8 183.2C291.6 200.2 281.8 217.9 264.8 222.8L128 261.9zM128 165.9V99.29L247.2 65.23C264.2 60.38 281.9 70.22 286.8 87.21C291.6 104.2 281.8 121.9 264.8 126.8L128 165.9z" class="fa-secondary"/></svg>