<svg xmlns="http://www.w3.org/2000/svg" viewBox="0 0 576 512"><!--! Font Awesome Pro 6.2.0 by @fontawesome - https://fontawesome.com License - https://fontawesome.com/license (Commercial License) Copyright 2022 Fonticons, Inc. --><path d="M144 138.7C144 74.67 190.1 0 288 0C385.9 0 432 74.67 432 138.7C432 138.7 398.8 192 288 192C177.2 192 144 138.7 144 138.7zM78.51 316.9C92.8 322.4 108.2 327.4 124.5 331.8L45.69 498.3C40.02 510.3 25.71 515.4 13.73 509.7C1.748 504-3.363 489.7 2.311 477.7L78.51 316.9zM451.5 331.8C467.8 327.4 483.2 322.4 497.5 316.9L573.7 477.7C579.4 489.7 574.3 504 562.3 509.7C550.3 515.4 535.1 510.3 530.3 498.3L451.5 331.8z" class="fa-secondary"/></svg>