<svg xmlns="http://www.w3.org/2000/svg" viewBox="0 0 640 512"><!--! Font Awesome Pro 6.2.0 by @fontawesome - https://fontawesome.com License - https://fontawesome.com/license (Commercial License) Copyright 2022 Fonticons, Inc. --><path d="M0 248V304C0 312.8 7.164 320 16 320h16c8.836 0 16-7.164 16-16L48 248C47.98 234.8 54.48 222.5 65.36 215C67.26 194.6 75.69 175.3 89.39 160H88C39.4 160 0 199.4 0 248zM638.7 35.55C638.7 35.55 638.7 35.55 638.7 35.55C637.2 33.34 634.7 32.01 632 32h-100.2c-3.064 3.188-6.455 5.977-10.22 8.299c5.109 5.381 9.925 10.5 13.7 14.5c5.539 5.906 8.619 13.71 8.6 21.8l.0394 6.705l92.46-36.67C640.1 44.18 641.1 39.23 638.7 35.55z" class="fa-secondary"/></svg>