<svg xmlns="http://www.w3.org/2000/svg" viewBox="0 0 640 512"><!--! Font Awesome Pro 6.2.0 by @fontawesome - https://fontawesome.com License - https://fontawesome.com/license (Commercial License) Copyright 2022 Fonticons, Inc. --><path d="M409.7 384H496v64c0 35.35-28.65 64-64 64h-224c-35.35 0-64-28.65-64-64v-64h86.31l-14.25 21.38c-5.439 8.158-8.042 17.4-8.042 26.54C208 458.7 229.6 480 256 480c16.05 0 30.97-7.975 39.91-21.33L320 422.5l24.06 36.09C353 472 367.9 480 384 480c26.47 0 47.98-21.44 47.98-48.09c0-9.143-2.603-18.38-8.041-26.54L409.7 384zM144 288h113.5l51.91-133.4L240.8 16H158.3c-30.28 0-58.2 16.36-73 42.78L14.28 185.6C4.918 202.3 0 221.2 0 240.3V384c0 17.67 14.33 32 32 32h32c17.67 0 32-14.33 32-32V240.3L98.03 232.5L144 150.4V288zM625.7 185.6l-70.95-126.6C539.9 32.41 511.9 16 481.5 16h-82.31L291.8 288H496V150.4l45.94 81.99L544 240.3V384c0 17.67 14.33 32 32 32h32c17.67 0 32-14.33 32-32V240.3C640 221.1 635.1 202.3 625.7 185.6z" class="fa-secondary"/></svg>