<svg xmlns="http://www.w3.org/2000/svg" viewBox="0 0 512 512"><!--! Font Awesome Pro 6.2.0 by @fontawesome - https://fontawesome.com License - https://fontawesome.com/license (Commercial License) Copyright 2022 Fonticons, Inc. --><path d="M183.1 128l39.1 .0013V224h64V128l40-.0013c9.484 0 18.06-5.578 21.92-14.23c1.391-3.141 2.072-6.448 2.072-9.76c0-5.812-2.103-11.57-6.15-16.07l-72-80c-4.562-5.047-11.05-7.936-17.85-7.936S242.7 2.893 238.2 7.94l-71.1 80c-6.344 7.062-7.891 17.17-4.078 25.83C165.9 122.4 174.5 128 183.1 128zM327.1 384l-40 .0013V288h-64v96l-39.1-.0013c-9.484 0-18.06 5.578-21.92 14.23c-3.812 8.641-2.266 18.77 4.078 25.83l71.1 80c4.562 5.047 11.05 7.937 17.84 7.937s13.28-2.89 17.84-7.937l72-80c4.047-4.5 6.15-10.24 6.15-16.06c0-3.312-.681-6.63-2.072-9.771C346.1 389.6 337.5 384 327.1 384z" class="fa-secondary"/></svg>