<svg xmlns="http://www.w3.org/2000/svg" viewBox="0 0 512 512"><!--! Font Awesome Pro 6.2.0 by @fontawesome - https://fontawesome.com License - https://fontawesome.com/license (Commercial License) Copyright 2022 Fonticons, Inc. --><path d="M208 281.4c-12.5-12.5-32.76-12.5-45.26-.002l-78.06 78.07l-30.06-30.06c-6.125-6.125-14.31-9.367-22.63-9.367c-4.125 0-8.279 .7891-12.25 2.43c-11.97 4.953-19.75 16.62-19.75 29.56v135.1C.0013 501.3 10.75 512 24 512h136c12.94 0 24.63-7.797 29.56-19.75c4.969-11.97 2.219-25.72-6.938-34.87l-30.06-30.06l78.06-78.07c12.5-12.49 12.5-32.75 .002-45.25L208 281.4z" class="fa-secondary"/></svg>