<svg xmlns="http://www.w3.org/2000/svg" viewBox="0 0 640 512"><!--! Font Awesome Pro 6.2.0 by @fontawesome - https://fontawesome.com License - https://fontawesome.com/license (Commercial License) Copyright 2022 Fonticons, Inc. --><path d="M608 128h-128v256h128c17.67 0 32-14.33 32-32V160C640 142.3 625.7 128 608 128zM584 312c0 8.875-7.125 16-16 16h-16c-8.875 0-16-7.125-16-16v-16c0-8.875 7.125-16 16-16h16c8.875 0 16 7.125 16 16V312zM584 216c0 8.875-7.125 16-16 16h-16c-8.875 0-16-7.125-16-16v-16c0-8.875 7.125-16 16-16h16c8.875 0 16 7.125 16 16V216z" class="fa-secondary"/></svg>