<svg xmlns="http://www.w3.org/2000/svg" viewBox="0 0 448 512"><!--! Font Awesome Pro 6.2.0 by @fontawesome - https://fontawesome.com License - https://fontawesome.com/license (Commercial License) Copyright 2022 Fonticons, Inc. --><path d="M224 0C183.8 0 148.3 18.95 124.8 48h198.3C299.7 18.95 264.3 0 224 0zM342.1 174.6C340.7 175.1 338.5 176 336 176h-224c-2.463 0-4.66-.8659-6.962-1.393C123.7 222.2 169.8 256 224 256S324.3 222.2 342.1 174.6zM325.9 369.6c-.625-1-1.75-1.5-3-1.625c-1.25 0-2.375 .625-3.125 1.5c-19.88 23-31.88 53-35.75 89.5c-.125 1.5 .6252 3.125 1.1 3.875c1.501 .75 3.125 .625 4.5-.375c24.75-19.25 33.75-23.75 37-24.75c.5-.25 .875-.375 1.375-.375c2.25 2 7.625 7.75 19.88 25C349.5 463.4 350.8 464 352 464c.375 0 .875 0 1.25-.125c1.75-.625 2.75-2.125 2.75-4C354.9 424.6 344.8 394.3 325.9 369.6z" class="fa-secondary"/></svg>