<svg xmlns="http://www.w3.org/2000/svg" viewBox="0 0 448 512"><!--! Font Awesome Pro 6.2.0 by @fontawesome - https://fontawesome.com License - https://fontawesome.com/license (Commercial License) Copyright 2022 Fonticons, Inc. --><path d="M352 128c0-5.48-.9453-10.7-1.613-16H97.61C96.95 117.3 96 122.5 96 128c0 70.69 57.31 128 128 128C294.7 256 352 198.7 352 128zM0 477.3C0 496.5 15.52 512 34.66 512H64v-169.1C24.97 374.7 0 423.1 0 477.3zM274.7 304H173.3c-5.393 0-10.71 .3242-15.98 .8047L206.9 384H272c44.13 0 80 35.88 80 80c0 18.08-6.252 34.59-16.4 48h77.73C432.5 512 448 496.5 448 477.3C448 381.6 370.4 304 274.7 304zM272 416h-45.14l58.64 93.83C305.4 503.1 320 485.8 320 464C320 437.5 298.5 416 272 416z" class="fa-secondary"/></svg>