<svg xmlns="http://www.w3.org/2000/svg" viewBox="0 0 448 512"><!--! Font Awesome Pro 6.2.0 by @fontawesome - https://fontawesome.com License - https://fontawesome.com/license (Commercial License) Copyright 2022 Fonticons, Inc. --><path d="M240 64H208V16C208 7.164 215.2 0 224 0C232.8 0 240 7.164 240 16V64zM48 144V240C48 248.8 40.84 256 32 256C23.16 256 16 248.8 16 240V144C16 135.2 23.16 128 32 128C40.84 128 48 135.2 48 144zM176 512H144V464C144 455.2 151.2 448 160 448C168.8 448 176 455.2 176 464V512zM240 512H208V464C208 455.2 215.2 448 224 448C232.8 448 240 455.2 240 464V512zM288 448C296.8 448 304 455.2 304 464V512H272V464C272 455.2 279.2 448 288 448zM432 240C432 248.8 424.8 256 416 256C407.2 256 400 248.8 400 240V144C400 135.2 407.2 128 416 128C424.8 128 432 135.2 432 144V240z" class="fa-secondary"/></svg>