<svg xmlns="http://www.w3.org/2000/svg" viewBox="0 0 640 512"><!--! Font Awesome Pro 6.2.0 by @fontawesome - https://fontawesome.com License - https://fontawesome.com/license (Commercial License) Copyright 2022 Fonticons, Inc. --><path d="M223.1 256c70.7 0 128-57.31 128-128s-57.3-128-128-128C153.3 0 96 57.31 96 128S153.3 256 223.1 256zM274.7 304H173.3C77.61 304 0 381.7 0 477.4C0 496.5 15.52 512 34.66 512h286.4c-1.246-5.531-1.43-11.31-.2832-17.04l14.28-71.41c1.943-9.723 6.676-18.56 13.68-25.56l45.72-45.72C363.3 322.4 321.2 304 274.7 304z" class="fa-secondary"/></svg>