<svg xmlns="http://www.w3.org/2000/svg" viewBox="0 0 640 512"><!--! Font Awesome Pro 6.2.0 by @fontawesome - https://fontawesome.com License - https://fontawesome.com/license (Commercial License) Copyright 2022 Fonticons, Inc. --><path d="M224 256c70.7 0 128-57.31 128-128S294.7 0 224 0C153.3 0 96 57.31 96 128S153.3 256 224 256zM425.1 491.8v-9.172c-2.303-1.25-4.572-2.559-6.809-3.93l-7.818 4.493c-6.002 3.504-12.83 5.352-19.75 5.352c-10.71 0-21.13-4.492-28.97-12.75c-18.41-20.09-32.29-44.15-40.22-69.9c-5.352-18.06 2.343-36.87 17.83-45.24l8.018-4.669c-.0664-2.621-.0664-5.242 0-7.859l-7.655-4.461c-12.3-6.953-19.4-19.66-19.64-33.38C305.6 306.3 290.4 304 274.7 304H173.3C77.61 304 0 381.7 0 477.4C0 496.5 15.52 512 34.66 512H413.3c5.727 0 10.9-1.727 15.66-4.188C426.7 502.8 425.1 497.5 425.1 491.8z" class="fa-secondary"/></svg>