<svg xmlns="http://www.w3.org/2000/svg" viewBox="0 0 448 512"><!--! Font Awesome Pro 6.2.0 by @fontawesome - https://fontawesome.com License - https://fontawesome.com/license (Commercial License) Copyright 2022 Fonticons, Inc. --><path d="M176 320l32 56l-31.99 103.1L184 512h80l7.988-32.05L240 376l32-56H176zM350.8 163.9C341.2 166 331.1 167.9 320 169.5v16.52C320 207 302.8 224 281.6 224h-12.33c-16.46 0-30.29-10.39-35.63-24.99C232.1 194.9 228.4 192 224 192S215.9 194.9 214.4 199C209 213.6 195.2 224 178.8 224h-12.33C145.2 224 128 207 128 186V169.5C116.9 167.9 106.8 166 97.22 163.9C96.83 167.1 96 171.8 96 176c0 70.69 57.31 128 127.1 128S352 246.7 352 176C352 171.8 351.2 167.1 350.8 163.9z" class="fa-secondary"/></svg>