<svg xmlns="http://www.w3.org/2000/svg" viewBox="0 0 448 512"><!--! Font Awesome Pro 6.2.0 by @fontawesome - https://fontawesome.com License - https://fontawesome.com/license (Commercial License) Copyright 2022 Fonticons, Inc. --><path d="M330.5 169.9c-25.14 13.92-64.23 43.82-72.69 97.02l77.41-17.04L330.5 169.9zM96 0H80C71.16 0 64 7.164 64 16v248l.3984-.3848C64.37 262.7 64 261.8 64.06 260.8l6.906-117C72.43 116.2 81.71 90.9 96 69.22V32c8.836 0 16-7.164 16-16S104.8 0 96 0zM117.5 169.9l-4.721 79.98l77.41 17.04C181.7 213.8 142.6 183.9 117.5 169.9zM160 464V512h128v-48L224 416L160 464z" class="fa-secondary"/></svg>