<svg xmlns="http://www.w3.org/2000/svg" viewBox="0 0 640 512"><!--! Font Awesome Pro 6.2.0 by @fontawesome - https://fontawesome.com License - https://fontawesome.com/license (Commercial License) Copyright 2022 Fonticons, Inc. --><path d="M208 80C208 35.82 172.2 0 128 0C103.8 0 82.52 10.97 67.96 27.95l125.2 98.1C202.4 113.1 208 97.24 208 80zM423.8 216c0-57.44-46.54-104-103.1-104c-35.93 0-67.07 18.53-85.59 46.3l162.3 127.2C413.4 267.2 423.8 242.9 423.8 216zM512 160c44.18 0 80-35.82 80-80S556.2 0 512 0c-44.18 0-80 35.82-80 80S467.8 160 512 160zM270.1 352C191.6 352 128 411.7 128 485.3C128 500.1 140.7 512 156.4 512h327.2c11.62 0 21.54-6.583 25.95-15.96L325.7 352H270.1zM186.1 243.2L121.6 192H88.08C39.44 192 0 233.8 0 285.3C0 295.6 7.887 304 17.62 304h199.5C202.4 286.8 191.8 266.1 186.1 243.2zM551.9 192h-61.84c-12.8 0-24.88 3.037-35.86 8.24C454.8 205.5 455.8 210.6 455.8 216c0 33.71-12.78 64.21-33.16 88h199.7C632.1 304 640 295.6 640 285.3C640 233.8 600.6 192 551.9 192z" class="fa-secondary"/></svg>