<svg xmlns="http://www.w3.org/2000/svg" viewBox="0 0 448 512"><!--! Font Awesome Pro 6.2.0 by @fontawesome - https://fontawesome.com License - https://fontawesome.com/license (Commercial License) Copyright 2022 Fonticons, Inc. --><path d="M282.8 305.1C269.6 311.9 255.3 316.5 240 318.4v66.56c50 4.518 86.76 28.13 87.16 28.38c2.656 1.766 5.75 2.656 8.844 2.656c2.594 0 5.188-.625 7.562-1.906C348.8 411.3 352 405.9 352 400V384C352 343.6 321.8 310.4 282.8 305.1zM96 384v16c0 5.891 3.25 11.3 8.438 14.08c5.188 2.797 11.53 2.516 16.41-.75C121.2 413.1 157.1 389.5 208 384.9V318.4C192.7 316.5 178.4 311.9 165.2 305.1C126.2 310.4 96 343.6 96 384zM320 168V96c0-53.02-42.98-96-96-96S128 42.98 128 96v72c0 48.91 36.71 88.82 84 94.79V240c0-6.625 5.375-12 12-12s12 5.375 12 12v22.79C283.3 256.8 320 216.9 320 168zM264 112c8.836 0 16 7.162 16 16c0 8.836-7.164 16-16 16s-16-7.164-16-16C248 119.2 255.2 112 264 112zM168 128c0-8.838 7.164-16 16-16s16 7.162 16 16c0 8.836-7.164 16-16 16S168 136.8 168 128zM224 191.1C215.8 196.7 202.3 204 188 204C181.4 204 176 198.6 176 191.1c0-6.627 5.375-12 12-12c10.91 0 23.94-9.379 28.06-12.99c4.5-4 11.38-4 15.88 0C236.1 170.6 249.1 179.1 260 179.1c6.625 0 12 5.377 12 12C272 198.6 266.6 204 260 204C245.7 204 232.2 196.7 224 191.1z" class="fa-secondary"/></svg>