<svg xmlns="http://www.w3.org/2000/svg" viewBox="0 0 448 512"><!--! Font Awesome Pro 6.2.0 by @fontawesome - https://fontawesome.com License - https://fontawesome.com/license (Commercial License) Copyright 2022 Fonticons, Inc. --><path d="M296 96h-144c-26.5 0-48 17.88-48 40V160c0 53 43 96 96 96h48c53 0 96-43 96-96V136C344 113.9 322.5 96 296 96zM212.6 163.8L188 172L179.8 196.6c-1.215 3.645-6.375 3.645-7.59 0L164 172L139.4 163.8c-3.646-1.219-3.646-6.375 0-7.594L164 148l8.205-24.62c1.215-3.648 6.375-3.648 7.59 0L188 148l24.62 8.203C216.3 157.4 216.3 162.6 212.6 163.8zM288 416H160c-17.67 0-32 14.33-32 32v64h32v-48C160 455.3 167.3 448 176 448S192 455.3 192 464V512h128v-64C320 430.3 305.7 416 288 416zM272 480c-8.75 0-16-7.25-16-16s7.25-16 16-16s16 7.25 16 16S280.8 480 272 480z" class="fa-secondary"/></svg>