<svg xmlns="http://www.w3.org/2000/svg" viewBox="0 0 512 512"><!--! Font Awesome Pro 6.2.0 by @fontawesome - https://fontawesome.com License - https://fontawesome.com/license (Commercial License) Copyright 2022 Fonticons, Inc. --><path d="M24 32C10.75 32 0 42.74 0 55.1V64h48V55.1C48 42.74 37.25 32 24 32zM128 55.1C128 42.74 117.3 32 104 32S80 42.74 80 55.1V64H128V55.1zM83.16 128L224 221.9V183.4L140.8 128H83.16zM488 32c-13.25 0-24 10.74-24 23.1V64H512V55.1C512 42.74 501.3 32 488 32zM408 32C394.7 32 384 42.74 384 55.1V64h48V55.1C432 42.74 421.3 32 408 32zM371.2 128L288 183.4v38.46L428.8 128H371.2zM24 224C10.75 224 0 234.7 0 247.1V256h48V247.1C48 234.7 37.25 224 24 224zM83.16 320L224 413.9v-38.46L140.8 320H83.16zM488 224c-13.25 0-24 10.74-24 23.1V256H512V247.1C512 234.7 501.3 224 488 224zM408 224C394.7 224 384 234.7 384 247.1V256h48V247.1C432 234.7 421.3 224 408 224zM288 375.4v38.46L428.8 320h-57.69L288 375.4zM128 247.1C128 234.7 117.3 224 104 224S80 234.7 80 247.1V256H128V247.1z" class="fa-secondary"/></svg>