<svg xmlns="http://www.w3.org/2000/svg" viewBox="0 0 512 512"><!--! Font Awesome Pro 6.2.0 by @fontawesome - https://fontawesome.com License - https://fontawesome.com/license (Commercial License) Copyright 2022 Fonticons, Inc. --><path d="M139.3 308.7c-6.25-6.25-16.38-6.25-22.63 0C113.6 311.8 112 315.9 112 319.1c0 4.094 1.562 8.187 4.687 11.31l64 64c3.125 3.125 7.219 4.688 11.31 4.688s8.188-1.563 11.31-4.688c6.25-6.25 6.25-16.38 0-22.63L139.3 308.7zM155.3 228.7c-6.25-6.25-16.38-6.25-22.62 0s-6.25 16.38 0 22.63l128 128c3.125 3.125 7.219 4.688 11.31 4.688s8.188-1.563 11.31-4.688c6.25-6.25 6.25-16.38 0-22.63L155.3 228.7zM299.3 276.7l-64-64C232.2 209.6 228.1 208 224 208C219.9 207.1 215.8 209.6 212.7 212.7C206.4 218.9 206.4 229.1 212.7 235.3l64 64C279.8 302.4 283.9 303.1 288 303.1s8.188-1.563 11.31-4.688C302.4 296.2 303.1 292.1 304 288C304 283.9 302.4 279.8 299.3 276.7z" class="fa-secondary"/></svg>