<svg xmlns="http://www.w3.org/2000/svg" viewBox="0 0 512 512"><!--! Font Awesome Pro 6.2.0 by @fontawesome - https://fontawesome.com License - https://fontawesome.com/license (Commercial License) Copyright 2022 Fonticons, Inc. --><path d="M41.28 191.1C62.78 119.8 119.8 62.78 192 41.28V95.1C192 100.3 192.9 104.5 194.4 108.3C155.6 124.5 124.5 155.6 108.3 194.4C104.5 192.9 100.3 191.1 96 191.1H41.28zM96 319.1C100.3 319.1 104.5 319.1 108.3 317.6C124.5 356.4 155.6 387.5 194.4 403.7C192.9 407.5 192 411.7 192 416V470.7C119.8 449.2 62.78 392.2 41.28 319.1H96zM470.7 319.1C449.2 392.2 392.2 449.2 320 470.7V416C320 411.7 319.1 407.5 317.6 403.7C356.4 387.5 387.5 356.4 403.7 317.6C407.5 319.1 411.7 319.1 416 319.1H470.7zM470.7 191.1H416C411.7 191.1 407.5 192.9 403.7 194.4C387.5 155.6 356.4 124.5 317.6 108.3C319.1 104.5 320 100.3 320 95.1V41.28C392.2 62.78 449.2 119.8 470.7 191.1z" class="fa-secondary"/></svg>