<svg xmlns="http://www.w3.org/2000/svg" viewBox="0 0 448 512"><!--! Font Awesome Pro 6.2.0 by @fontawesome - https://fontawesome.com License - https://fontawesome.com/license (Commercial License) Copyright 2022 Fonticons, Inc. --><path d="M306.7 4.031l-25 16.66c-35.03 23.38-80.28 23.38-115.4 0l-25-16.66C137.4 1.406 132.8 0 128 0l22.19 66.56C173.2 79.43 198.5 86.25 224 86.25s50.79-6.824 73.81-19.69L320 0C315.3 0 310.6 1.406 306.7 4.031zM358.5 286.5l-5.069 .0566l.0557-5.076c.0723-12.8-9.268-24.26-22.06-25.42c-14.68-1.311-27.07 10.26-27.21 24.67L304 329.3C303.1 333 306.1 336 310.7 336l48.53-.2148c14.43-.1094 25.98-12.47 24.67-27.17C382.7 295.8 371.3 286.5 358.5 286.5zM96 376c-22.09 0-40 17.91-40 40S73.91 456 96 456S136 438.1 136 416S118.1 376 96 376z" class="fa-secondary"/></svg>