<svg xmlns="http://www.w3.org/2000/svg" viewBox="0 0 448 512"><!--! Font Awesome Pro 6.2.0 by @fontawesome - https://fontawesome.com License - https://fontawesome.com/license (Commercial License) Copyright 2022 Fonticons, Inc. --><path d="M306.7 4.031l-25 16.66c-35.03 23.38-80.28 23.38-115.4 0l-25-16.66C137.4 1.406 132.8 0 128 0l22.19 66.56C173.2 79.43 198.5 86.25 224 86.25s50.79-6.824 73.81-19.69L320 0C315.3 0 310.6 1.406 306.7 4.031zM108.7 348.7l-48 48c-6.25 6.25-6.25 16.38 0 22.62C63.81 422.4 67.91 424 72 424s8.188-1.562 11.31-4.688l48-48c6.25-6.25 6.25-16.38 0-22.62S114.9 342.4 108.7 348.7zM387.3 396.7l-48-48c-6.25-6.25-16.38-6.25-22.62 0s-6.25 16.38 0 22.62l48 48C367.8 422.4 371.9 424 376 424s8.188-1.562 11.31-4.688C393.6 413.1 393.6 402.9 387.3 396.7z" class="fa-secondary"/></svg>