<svg xmlns="http://www.w3.org/2000/svg" viewBox="0 0 576 512"><!--! Font Awesome Pro 6.2.0 by @fontawesome - https://fontawesome.com License - https://fontawesome.com/license (Commercial License) Copyright 2022 Fonticons, Inc. --><path d="M32 64C32 46.33 46.33 32 64 32H256C273.7 32 288 46.33 288 64C288 81.67 273.7 96 256 96V207.1C252.9 209.1 249.9 211.5 247.2 214.2C225.3 236.1 225.3 271.6 247.2 293.4C247.4 293.6 247.4 293.7 247.5 293.8L247.5 293.8C247.5 293.9 247.5 294.1 247.4 294.4C247.3 294.6 247.1 294.8 247.1 294.8L247 294.9C246.1 294.9 246.8 294.9 246.6 294.9C215.7 294.9 190.6 319.1 190.6 350.9C190.6 381.8 215.7 406.9 246.6 406.9C246.8 406.9 246.1 406.9 247 406.9L247.1 406.9C247.1 406.1 247.3 407.1 247.4 407.4C247.5 407.7 247.5 407.9 247.5 407.1L247.5 408C247.4 408.1 247.4 408.2 247.2 408.3C236 419.5 230.6 434.2 230.8 448.8C213.3 467.1 188 480 160 480C106.1 480 64 437 64 384V96C46.33 96 32 81.67 32 64V64zM128 96V192H192V96H128z" class="fa-secondary"/></svg>