<svg xmlns="http://www.w3.org/2000/svg" viewBox="0 0 640 512"><!--! Font Awesome Pro 6.2.0 by @fontawesome - https://fontawesome.com License - https://fontawesome.com/license (Commercial License) Copyright 2022 Fonticons, Inc. --><path d="M160 192V128H224V192H160zM96 352V288H160V352H96zM64 480V448H128V480C128 497.7 113.7 512 96 512C78.33 512 64 497.7 64 480zM512 480V448H576V480C576 497.7 561.7 512 544 512C526.3 512 512 497.7 512 480zM352 448V480C352 497.7 337.7 512 320 512C302.3 512 288 497.7 288 480V448H352zM544 288V352H480V288H544zM480 128V192H416V128H480z" class="fa-secondary"/></svg>