<svg xmlns="http://www.w3.org/2000/svg" viewBox="0 0 640 512"><!--! Font Awesome Pro 6.2.0 by @fontawesome - https://fontawesome.com License - https://fontawesome.com/license (Commercial License) Copyright 2022 Fonticons, Inc. --><path d="M457.8 227.5l-39.84 39.84c-6.256 6.256-16.38 6.267-22.64 .0127c-.002 0 0 0 0 0l-22.64-22.66c-6.258-6.256-6.256-16.37-.0026-22.63l39.83-39.84c-12.18-8.779-25.53-15.75-40.16-19.15c-32.91-7.658-65.75-.9678-88.65 21.04c2.66 7.834 4.102 16.01 4.223 24.28c.1113 44.11-35.6 79.97-79.71 80.08C192.7 288.5 177.6 284 164.6 275.5C162.1 277.4 159.7 279.4 157.4 281.5c-38.11 38.04-38.29 101.3-5.184 153.5l51.73-34.59c6.354-4.236 14.8-3.4 20.2 2l13.45 13.47c5.4 5.398 6.237 13.81 2.001 20.16l-34.48 51.79c52.22 33.04 115.4 32.77 153.4-5.238c2.215-2.383 4.303-4.887 6.244-7.494c-24.18-36.56-14.12-85.67 22.44-109.8c20.31-13.43 45.62-16.87 68.73-9.203c21.95-22.87 28.62-55.6 21.01-88.44C473.6 253 466.6 239.7 457.8 227.5zM471.1 48.01c-13.25 0-24 10.75-24 24c0 13.25 10.75 24 24 24c13.26 0 24-10.75 24-24C495.1 58.75 485.2 48.01 471.1 48.01zM567.1 144c-13.25 0-24 10.75-24 24c0 13.25 10.75 24 24 24c13.26 0 24-10.75 24-24C591.1 154.8 581.3 144 567.1 144zM519.1 .0088c-13.26 0-24 10.74-24 24s10.75 24 24 24c13.25 0 24-10.74 24-24S533.2 .0088 519.1 .0088zM615.1 96.01c-13.26 0-24 10.74-24 24s10.75 24 24 24C629.3 144 640 133.3 640 120S629.3 96.01 615.1 96.01z" class="fa-secondary"/></svg>