<svg xmlns="http://www.w3.org/2000/svg" viewBox="0 0 640 512"><!--! Font Awesome Pro 6.2.0 by @fontawesome - https://fontawesome.com License - https://fontawesome.com/license (Commercial License) Copyright 2022 Fonticons, Inc. --><path d="M362.7 170.7h-16.16c-38.01 0-57.05-45.96-30.17-72.84l11.44-11.44c8.332-8.332 8.331-21.83-.0012-30.17c-8.334-8.334-21.83-8.332-30.17 .002L286.2 67.66C259.3 94.54 213.3 75.51 213.3 37.49V21.33C213.3 9.542 203.8 0 192 0S170.7 9.542 170.7 21.33v16.16c0 38.01-45.96 57.05-72.84 30.17L86.4 56.23c-8.334-8.334-21.83-8.336-30.17-.002c-8.332 8.334-8.333 21.84-.0012 30.17L67.66 97.83c26.88 26.88 7.842 72.84-30.17 72.84H21.33C9.541 170.7 0 180.2 0 192c0 11.79 9.541 21.33 21.33 21.33h16.16c38.01 0 57.05 45.96 30.17 72.84L56.23 297.6c-8.332 8.334-8.328 21.84 .0043 30.17c4.168 4.168 9.621 6.248 15.08 6.248s10.92-2.082 15.08-6.25L97.83 316.3c26.88-26.88 72.84-7.842 72.84 30.17v16.16C170.7 374.5 180.2 384 192 384s21.33-9.543 21.33-21.33v-16.16c0-38.01 45.96-57.05 72.84-30.17l11.43 11.43c4.168 4.168 9.625 6.25 15.08 6.25s10.91-2.08 15.08-6.248c8.332-8.332 8.333-21.83 .0012-30.17L316.3 286.2c-26.88-26.88-7.842-72.84 30.17-72.84h16.16C374.5 213.3 384 203.8 384 192C384 180.2 374.5 170.7 362.7 170.7zM160 192C142.3 192 128 177.7 128 160c0-17.67 14.33-32 32-32s32 14.33 32 32C192 177.7 177.7 192 160 192zM240 224C231.2 224 224 216.8 224 208C224 199.2 231.2 192 240 192S256 199.2 256 208C256 216.8 248.8 224 240 224zM480 320c-17.67 0-32 14.33-32 32c0 17.67 14.33 32 32 32s32-14.33 32-32C512 334.3 497.7 320 480 320z" class="fa-secondary"/></svg>