<svg xmlns="http://www.w3.org/2000/svg" viewBox="0 0 576 512"><!--! Font Awesome Pro 6.2.0 by @fontawesome - https://fontawesome.com License - https://fontawesome.com/license (Commercial License) Copyright 2022 Fonticons, Inc. --><path d="M560.1 303c9.375 9.375 9.375 24.56 0 33.94c-9.381 9.381-24.56 9.373-33.94 0L480 289.9l-47.03 47.03c-9.381 9.381-24.56 9.373-33.94 0c-9.375-9.375-9.375-24.56 0-33.94l47.03-47.03l-47.03-47.03c-9.375-9.375-9.375-24.56 0-33.94s24.56-9.375 33.94 0L480 222.1l47.03-47.03c9.375-9.375 24.56-9.375 33.94 0s9.375 24.56 0 33.94l-47.03 47.03L560.1 303z" class="fa-secondary"/></svg>