<svg xmlns="http://www.w3.org/2000/svg" viewBox="0 0 576 512"><!--! Font Awesome Pro 6.2.0 by @fontawesome - https://fontawesome.com License - https://fontawesome.com/license (Commercial License) Copyright 2022 Fonticons, Inc. --><path d="M444.6 181.9c-10.28-8.344-25.41-6.875-33.75 3.406c-8.406 10.25-6.906 25.37 3.375 33.78C425.5 228.4 432 241.8 432 256c0 14.19-6.5 27.62-17.81 36.87c-10.28 8.406-11.78 23.53-3.375 33.78c4.719 5.812 11.62 8.812 18.56 8.812c5.344 0 10.75-1.781 15.19-5.406C467.1 311.6 480 284.7 480 256S467.1 200.4 444.6 181.9zM505.1 108c-10.22-8.344-25.34-6.906-33.78 3.344c-8.406 10.25-6.906 25.37 3.344 33.78C508.6 172.9 528 213.3 528 256s-19.44 83.09-53.31 110.9c-10.25 8.406-11.75 23.53-3.344 33.78c4.75 5.781 11.62 8.781 18.56 8.781c5.375 0 10.75-1.781 15.22-5.437C550.2 367.1 576 313.1 576 256S550.2 144.9 505.1 108z" class="fa-secondary"/></svg>