<svg xmlns="http://www.w3.org/2000/svg" viewBox="0 0 640 512"><!--! Font Awesome Pro 6.2.0 by @fontawesome - https://fontawesome.com License - https://fontawesome.com/license (Commercial License) Copyright 2022 Fonticons, Inc. --><path d="M473.1 108.2c-10.22-8.334-25.34-6.898-33.78 3.34c-8.406 10.24-6.906 25.35 3.344 33.74C476.6 172.1 496 213.3 496 255.1s-19.44 82.1-53.31 110.7c-10.25 8.396-11.75 23.5-3.344 33.74c4.75 5.775 11.62 8.771 18.56 8.771c5.375 0 10.75-1.779 15.22-5.431C518.2 366.9 544 313 544 255.1S518.2 145 473.1 108.2zM412.6 182c-10.28-8.334-25.41-6.867-33.75 3.402c-8.406 10.24-6.906 25.35 3.375 33.74C393.5 228.4 400 241.8 400 255.1c0 14.17-6.5 27.59-17.81 36.83c-10.28 8.396-11.78 23.5-3.375 33.74c4.719 5.806 11.62 8.802 18.56 8.802c5.344 0 10.75-1.779 15.19-5.399C435.1 311.5 448 284.6 448 255.1S435.1 200.4 412.6 182zM534.4 33.4c-10.22-8.334-25.34-6.867-33.78 3.34c-8.406 10.24-6.906 25.35 3.344 33.74C559.9 116.3 592 183.9 592 255.1s-32.09 139.7-88.06 185.5c-10.25 8.396-11.75 23.5-3.344 33.74C505.3 481 512.2 484 519.2 484c5.375 0 10.75-1.779 15.22-5.431C601.5 423.6 640 342.5 640 255.1S601.5 88.34 534.4 33.4z" class="fa-secondary"/></svg>