<svg xmlns="http://www.w3.org/2000/svg" viewBox="0 0 512 512"><!--! Font Awesome Pro 6.2.0 by @fontawesome - https://fontawesome.com License - https://fontawesome.com/license (Commercial License) Copyright 2022 Fonticons, Inc. --><path d="M156.3 138L106.9 117.4L106.5 117L85.94 67.7C84.93 65.66 82.27 64.02 80 64c-.0078 0 .0078 0 0 0c-2.279 0-4.966 1.649-5.981 3.692L53.32 117.3L3.682 138C1.652 139.1 0 141.7 0 144c0 2.266 1.652 4.945 3.682 5.961L53.32 170.7L74.02 220.3c1.016 2.043 3.698 3.696 5.977 3.696c.0078 0-.0078 0 0 0c2.271-.0156 4.934-1.661 5.946-3.696l20.72-49.63l49.62-20.71c2.023-1.008 3.68-3.681 3.691-5.947C159.1 141.7 158.3 139 156.3 138zM511.1 368c-.0039-2.273-1.658-4.95-3.687-5.966l-49.57-20.67l-20.77-49.67C436.9 289.7 434.3 288 432 288c-2.281 0-4.948 1.652-5.964 3.695l-20.7 49.63l-49.64 20.71c-2.027 1.016-3.684 3.683-3.687 5.956c.0039 2.262 1.662 4.954 3.687 5.966l49.57 20.67l20.77 49.67C427.1 446.3 429.7 448 432 448c2.277 0 4.944-1.656 5.96-3.699l20.69-49.63l49.65-20.71C510.3 372.9 511.1 370.3 511.1 368zM239.1 32L227.6 2.219C226.1 .9922 225.4 0 223.1 0S221 .9922 220.4 2.219L207.1 32L178.2 44.42C176.1 45.03 176 46.63 176 48c0 1.359 .9928 2.969 2.21 3.578L207.1 64l12.42 29.78C221 95.01 222.6 96 223.1 96s2.965-.9922 3.575-2.219L239.1 64l29.78-12.42c1.219-.6094 2.215-2.219 2.215-3.578c0-1.367-.996-2.969-2.215-3.578L239.1 32z" class="fa-secondary"/></svg>