<svg xmlns="http://www.w3.org/2000/svg" viewBox="0 0 640 512"><!--! Font Awesome Pro 6.2.0 by @fontawesome - https://fontawesome.com License - https://fontawesome.com/license (Commercial License) Copyright 2022 Fonticons, Inc. --><path d="M128 248C128 234.7 138.7 224 152 224H296C309.3 224 320 234.7 320 248V328C320 341.3 309.3 352 296 352H152C138.7 352 128 341.3 128 328V248zM352 408C352 394.7 362.7 384 376 384H488C501.3 384 512 394.7 512 408V488C512 501.3 501.3 512 488 512H376C362.7 512 352 501.3 352 488V408zM296 384C309.3 384 320 394.7 320 408V488C320 501.3 309.3 512 296 512H152C138.7 512 128 501.3 128 488V408C128 394.7 138.7 384 152 384H296z" class="fa-secondary"/></svg>