<svg xmlns="http://www.w3.org/2000/svg" viewBox="0 0 448 512"><!--! Font Awesome Pro 6.2.0 by @fontawesome - https://fontawesome.com License - https://fontawesome.com/license (Commercial License) Copyright 2022 Fonticons, Inc. --><path d="M334.1 285.3c-20.53 20-53.26 19.62-73.3-1C251.3 294.3 237.9 300 224 300S196.7 294.4 187.2 284.4c-20.04 20.5-52.76 20.88-73.3 1C112.7 291.5 112.1 297.8 112 304c0 61.88 50.15 112 112 112s112-50.13 112-112C335.9 297.8 335.3 291.5 334.1 285.3zM184 112C197.3 112 208 101.3 208 88c0-13.26-10.7-24-23.96-24S160 74.74 160 88C160 101.3 170.8 112 184 112z" class="fa-secondary"/></svg>