<svg xmlns="http://www.w3.org/2000/svg" viewBox="0 0 384 512"><!--! Font Awesome Pro 6.2.0 by @fontawesome - https://fontawesome.com License - https://fontawesome.com/license (Commercial License) Copyright 2022 Fonticons, Inc. --><path d="M304 64C348.2 64 384 99.82 384 144V368C384 412.2 348.2 448 304 448H80C35.82 448 0 412.2 0 368V144C0 99.82 35.82 64 80 64H304zM203.1 333.3L283.2 256.1C303.3 236.7 303.3 204.5 283.2 185C264 166.6 233.7 166.6 214.6 185L192 206.9L169.4 185C150.3 166.6 119.1 166.6 100.8 185C80.72 204.5 80.72 236.7 100.8 256.1L180.9 333.3C187.1 339.3 196.9 339.3 203.1 333.3V333.3z" class="fa-secondary"/></svg>