<svg xmlns="http://www.w3.org/2000/svg" viewBox="0 0 384 512"><!--! Font Awesome Pro 6.2.0 by @fontawesome - https://fontawesome.com License - https://fontawesome.com/license (Commercial License) Copyright 2022 Fonticons, Inc. --><path d="M304 64C348.2 64 384 99.82 384 144V368C384 412.2 348.2 448 304 448H80C35.82 448 0 412.2 0 368V144C0 99.82 35.82 64 80 64H304zM216 160C216 146.7 205.3 136 192 136C178.7 136 168 146.7 168 160V256C168 262.4 170.5 268.5 175 272.1L223 320.1C232.4 330.3 247.6 330.3 256.1 320.1C266.3 311.6 266.3 296.4 256.1 287L216 246.1V160z" class="fa-secondary"/></svg>