<svg xmlns="http://www.w3.org/2000/svg" viewBox="0 0 384 512"><!--! Font Awesome Pro 6.2.0 by @fontawesome - https://fontawesome.com License - https://fontawesome.com/license (Commercial License) Copyright 2022 Fonticons, Inc. --><path d="M0 256C0 149.1 85.96 64 192 64C298 64 384 149.1 384 256C384 362 298 448 192 448C85.96 448 0 362 0 256zM216 176C216 162.7 205.3 152 192 152C178.7 152 168 162.7 168 176V256C168 264 172 271.5 178.7 275.1L226.7 307.1C237.7 315.3 252.6 312.3 259.1 301.3C267.3 290.3 264.3 275.4 253.3 268L216 243.2L216 176z" class="fa-secondary"/></svg>