<svg xmlns="http://www.w3.org/2000/svg" viewBox="0 0 384 512"><!--! Font Awesome Pro 6.2.0 by @fontawesome - https://fontawesome.com License - https://fontawesome.com/license (Commercial License) Copyright 2022 Fonticons, Inc. --><path d="M304 64C348.2 64 384 99.82 384 144V368C384 412.2 348.2 448 304 448H80C35.82 448 0 412.2 0 368V144C0 99.82 35.82 64 80 64H304zM80 128C71.16 128 64 135.2 64 144V176C64 184.8 71.16 192 80 192H304C312.8 192 320 184.8 320 176V144C320 135.2 312.8 128 304 128H80zM88 296C101.3 296 112 285.3 112 272C112 258.7 101.3 248 88 248C74.75 248 64 258.7 64 272C64 285.3 74.75 296 88 296zM192 248C178.7 248 168 258.7 168 272C168 285.3 178.7 296 192 296C205.3 296 216 285.3 216 272C216 258.7 205.3 248 192 248zM296 296C309.3 296 320 285.3 320 272C320 258.7 309.3 248 296 248C282.7 248 272 258.7 272 272C272 285.3 282.7 296 296 296zM88 336C74.75 336 64 346.7 64 360C64 373.3 74.75 384 88 384C101.3 384 112 373.3 112 360C112 346.7 101.3 336 88 336zM192 384C205.3 384 216 373.3 216 360C216 346.7 205.3 336 192 336C178.7 336 168 346.7 168 360C168 373.3 178.7 384 192 384zM296 336C282.7 336 272 346.7 272 360C272 373.3 282.7 384 296 384C309.3 384 320 373.3 320 360C320 346.7 309.3 336 296 336z" class="fa-secondary"/></svg>