<svg xmlns="http://www.w3.org/2000/svg" viewBox="0 0 512 512"><!--! Font Awesome Pro 6.2.0 by @fontawesome - https://fontawesome.com License - https://fontawesome.com/license (Commercial License) Copyright 2022 Fonticons, Inc. --><path d="M380.5 54.63L357.9 32L32 357.9l22.62 22.62C98.16 424 156 448 217.6 448c61.56 0 119.4-23.97 162.9-67.48C424 336.1 448 279.1 448 217.6C448 156 424 98.16 380.5 54.63zM187.3 347.3c-6.246 6.246-16.36 6.277-22.61 .0234l-16.01-16.03c-6.25-6.25-6.25-16.38 0-22.63s16.38-6.25 22.62 0L187.3 324.7C193.6 330.1 193.6 341.1 187.3 347.3zM228.7 228.7c6.25-6.252 16.38-6.252 22.62 0l16.02 16.02c6.25 6.25 6.231 16.36-.0194 22.61C261.1 273.6 250.1 273.6 244.7 267.4L228.7 251.3C222.4 245.1 222.4 234.1 228.7 228.7zM275.3 355.3c-6.246 6.246-16.35 6.278-22.61 .0239l-16.02-16.03c-6.25-6.25-6.25-16.38 0-22.63c6.25-6.252 16.38-6.252 22.62 0l16.02 16.02C281.6 338.1 281.6 349.1 275.3 355.3zM308.7 148.7c6.25-6.25 16.38-6.25 22.62 0l16.03 16.01c6.25 6.252 6.225 16.37-.0252 22.62c-6.244 6.248-16.35 6.269-22.6 .0129l-16.02-16.01C302.4 165.1 302.4 154.1 308.7 148.7zM355.3 275.3c-6.246 6.246-16.35 6.272-22.6 .0184l-16.02-16.02c-6.25-6.252-6.25-16.38 0-22.63c6.25-6.252 16.38-6.252 22.62 0l16.03 16.02C361.6 258.1 361.6 269.1 355.3 275.3z" class="fa-secondary"/></svg>