<svg xmlns="http://www.w3.org/2000/svg" viewBox="0 0 576 512"><!--! Font Awesome Pro 6.2.0 by @fontawesome - https://fontawesome.com License - https://fontawesome.com/license (Commercial License) Copyright 2022 Fonticons, Inc. --><path d="M576 445c0 16.07-12.7 32.1-31.73 32.1c-9.224 0-39.09-7.008-64.24-21.83c-19.5 11.53-51.41 24.66-96.01 24.66c-44.53 0-76.52-13.09-96.06-24.62c-19.5 11.53-51.39 24.66-95.96 24.66s-76.58-13.16-96.08-24.69c-24.71 14.56-54.82 21.84-64.26 21.84c-18.86 0-31.71-15.82-31.71-32.07c0-15.14 10.82-28.59 26.25-31.42c48.03-8.797 45.88-29.51 69.95-29.51c8.156 0 16.27 3.039 22.4 9.196c.7187 .5625 24.81 22.59 73.41 22.59c64.76 0 71.23-31.81 96.2-31.81c8.16 0 16.28 3.031 22.42 9.188c.6562 .5625 24.78 22.62 73.38 22.62c64.76 0 71.14-31.79 96.18-31.79c8.179 0 16.32 3.031 22.47 9.164C531.6 419.1 576 405.7 576 445z" class="fa-secondary"/></svg>