<svg xmlns="http://www.w3.org/2000/svg" viewBox="0 0 576 512"><!--! Font Awesome Pro 6.2.0 by @fontawesome - https://fontawesome.com License - https://fontawesome.com/license (Commercial License) Copyright 2022 Fonticons, Inc. --><path d="M384 303.8c-44.55 0-76.48-13.06-96-24.59c-19.52 11.53-51.46 24.65-96 24.65c-44.58 0-76.54-13.15-96.04-24.68C82.49 287.1 63.1 295.8 37.78 300.4C20.31 303.8 3.713 292.1 .5254 274.7C-2.646 257.4 8.869 240.7 26.24 237.5c31.23-5.719 46.84-20.06 47.5-20.66c12.61-11.81 32.67-11.91 44.89 .3438C119.3 217.8 143.4 239.8 192 239.8s72.73-22.06 73.73-23c12.59-11.75 32.67-11.88 44.89 .375c.6406 .5625 24.78 22.62 73.38 22.62s72.73-22.06 73.73-23c12.59-11.75 32.69-11.81 44.91 .375c.2813 .25 15.89 14.59 47.13 20.31c17.38 3.188 28.89 19.84 25.72 37.22c-3.188 17.38-19.69 29.09-37.25 25.72c-25.33-4.625-44.72-13.31-58.19-21.25C460.6 290.7 428.6 303.8 384 303.8z" class="fa-secondary"/></svg>