<svg xmlns="http://www.w3.org/2000/svg" viewBox="0 0 640 512"><!--! Font Awesome Pro 6.2.0 by @fontawesome - https://fontawesome.com License - https://fontawesome.com/license (Commercial License) Copyright 2022 Fonticons, Inc. --><path d="M224 96C206.3 96 192 110.3 192 127.1v256C192 401.7 206.3 416 223.1 416S256 401.7 256 384V127.1C256 110.3 241.7 96 224 96zM32 224C14.33 224 0 238.3 0 255.1S14.33 288 31.1 288S64 273.7 64 256S49.67 224 32 224zM608 224c-17.67 0-32 14.33-32 31.1S590.3 288 608 288s32-14.33 32-31.1S625.7 224 608 224zM416 128C398.3 128 384 142.3 384 159.1v192C384 369.7 398.3 384 415.1 384S448 369.7 448 352V159.1C448 142.3 433.7 128 416 128z" class="fa-secondary"/></svg>