<svg xmlns="http://www.w3.org/2000/svg" viewBox="0 0 640 512"><!--! Font Awesome Pro 6.2.0 by @fontawesome - https://fontawesome.com License - https://fontawesome.com/license (Commercial License) Copyright 2022 Fonticons, Inc. --><path d="M67.51 178.7C66.96 179.8 66.05 180.7 65.64 181.9L40.94 256H31.1C14.33 256 0 270.3 0 287.1c0 17.67 14.33 32.02 31.1 32.02H64c9.547 0 18.34-4.218 24.31-11.19L64.72 198.7C63.19 191.6 64.64 184.8 67.51 178.7zM160.8 89.74c-.0879 .4492-.3652 .7984-.4336 1.255L138.4 237.4l36.84 171.9c.8828 4.105 .8184 8.177 .1543 12.08c.0371-.2168 .1719-.3956 .2051-.6143l18.02-120.1L160.4 101.3C159.8 97.32 160.1 93.46 160.8 89.74zM608 256h-8.94l-24.18-72.54c-3.727-11.18-12.7-20.42-24.26-22.77c-17.89-3.632-34.32 7.829-37.93 24.59L501.6 237.3l26.09 173.9c.625 4.152 .3027 8.21-.6094 12.07c.0508-.2168 .2031-.3818 .25-.6006l24.39-113.9C557.7 315.8 566.5 320 576 320h32C625.7 320 640 305.7 640 287.1C640 270.3 625.7 256 608 256zM416.9 89.42c-.1016 .4746-.3966 .8423-.4767 1.325l-30 180l29.25 204.7c.5547 3.877 .1387 7.628-.6445 11.24c.1113-.5136 .4297-.9266 .5176-1.448l30.78-184.6l-29.1-199.9C415.8 96.87 416.1 93.08 416.9 89.42zM288.9 25.82C288.8 26.42 288.4 26.87 288.3 27.48L253.6 270.8l34 203.1c.6445 3.865 .3203 7.63-.3848 11.27c.1016-.5253 .418-.9539 .4941-1.489L319.1 258.3L288.3 36.56C287.8 32.86 288.2 29.29 288.9 25.82z" class="fa-secondary"/></svg>