<svg xmlns="http://www.w3.org/2000/svg" viewBox="0 0 512 512"><!--! Font Awesome Pro 6.2.0 by @fontawesome - https://fontawesome.com License - https://fontawesome.com/license (Commercial License) Copyright 2022 Fonticons, Inc. --><path d="M504.1 7.029C514.3 16.4 514.3 31.6 504.1 40.97L416.1 128.1C407.6 138.3 392.4 138.3 383 128.1C373.7 119.6 373.7 104.4 383 95.03L471 7.029C480.4-2.343 495.6-2.343 504.1 7.029V7.029zM295.3 261.1C279.3 260.4 263.1 261.8 247.5 266.3C252.3 249.7 253.6 232.3 251.5 215.3L281.9 184.8L327.2 230.1L295.3 261.1zM411.7 162.4L471 103C480.4 93.66 495.6 93.66 504.1 103C514.3 112.4 514.3 127.6 504.1 136.1L458.8 183.2C444.4 172.9 428.3 165.1 411.7 162.4zM329.1 52.93L375 7.029C384.4-2.343 399.6-2.343 408.1 7.029C418.3 16.4 418.3 31.6 408.1 40.97L350.7 99.2C346.8 82.8 339.6 67.03 329.1 52.93V52.93zM193.5 363.8C177.5 362.2 161.2 363.7 145.7 368.1C150.4 351.5 151.8 334.1 149.7 317.1L180.1 286.6L225.4 331.9L193.5 363.8zM54.63 502.6C42.13 515.1 21.87 515.1 9.372 502.6C-3.124 490.1-3.124 469.9 9.372 457.4L78.29 388.5L123.5 433.7L54.63 502.6z" class="fa-secondary"/></svg>