<svg xmlns="http://www.w3.org/2000/svg" viewBox="0 0 512 512"><!--! Font Awesome Pro 6.2.0 by @fontawesome - https://fontawesome.com License - https://fontawesome.com/license (Commercial License) Copyright 2022 Fonticons, Inc. --><path d="M320 352c0 88.37-71.63 160-159.1 160S0 440.4 0 352s71.63-160 160-160c.7129 0 1.369 .1992 2.08 .209l8.232 48.83C166.9 240.7 163.5 240 160 240c-61.76 0-111.1 50.24-111.1 112s50.24 112 112 112S272 413.8 272 352H320zM240 48c0-26.51-21.49-48-48-48S144 21.49 144 48S165.5 96 192 96S240 74.51 240 48z" class="fa-secondary"/></svg>