<svg xmlns="http://www.w3.org/2000/svg" viewBox="0 0 640 512"><!--! Font Awesome Pro 6.2.0 by @fontawesome - https://fontawesome.com License - https://fontawesome.com/license (Commercial License) Copyright 2022 Fonticons, Inc. --><path d="M627.7 326.8L491.5 220.8L448 248L416 224l22.27-44.55l-98.62-76.7C307.5 78.43 267.4 64 224 64C117.1 64 31.1 149.1 31.1 256s85.96 192 192 192c63.65 0 119.9-31.1 154.8-78.8l150.9 75.43C534.3 446.9 539.1 448 544 448c8.281 0 16.47-3.219 22.63-9.375l64-64c6.5-6.5 9.875-15.44 9.312-24.62C639.4 340.8 634.9 332.4 627.7 326.8zM224 320c-35.35 0-64-28.66-64-64c0-35.35 28.65-64 64-64s64 28.65 64 64C288 291.3 259.3 320 224 320z" class="fa-secondary"/></svg>