<svg xmlns="http://www.w3.org/2000/svg" viewBox="0 0 512 512"><!--! Font Awesome Pro 6.2.0 by @fontawesome - https://fontawesome.com License - https://fontawesome.com/license (Commercial License) Copyright 2022 Fonticons, Inc. --><path d="M176 336h66.2l-8.492-8.516c-12.94-12.94-12.94-33.9 0-46.84l46.84-46.97c1.605-1.605 3.623-2.406 5.449-3.609C281.8 217.3 270.1 208 256 208H176c-17.67 0-32 14.33-32 32v64C144 321.7 158.3 336 176 336zM479.1 32H32.04C12.55 32-2.324 49.25 .3008 68.51L56.29 425.1C60.79 456.6 87.78 480 119.8 480h272.9c31.74 0 58.86-23.38 63.36-54.89l55.61-356.6C514.3 49.25 499.5 32 479.1 32zM392.7 416l-273.2-.8164L69.39 96h373.2L392.7 416z" class="fa-secondary"/></svg>