<svg xmlns="http://www.w3.org/2000/svg" viewBox="0 0 512 512"><!--! Font Awesome Pro 6.2.0 by @fontawesome - https://fontawesome.com License - https://fontawesome.com/license (Commercial License) Copyright 2022 Fonticons, Inc. --><path d="M416 96C433.7 96 448 110.3 448 128C448 145.7 433.7 160 416 160C398.3 160 384 145.7 384 128C384 110.3 398.3 96 416 96zM0 224H512V416C512 451.3 483.3 480 448 480H64C28.65 480 0 451.3 0 416V224zM320 160C302.3 160 288 145.7 288 128C288 110.3 302.3 96 320 96C337.7 96 352 110.3 352 128C352 145.7 337.7 160 320 160z" class="fa-secondary"/></svg>