<svg xmlns="http://www.w3.org/2000/svg" viewBox="0 0 640 512"><!--! Font Awesome Pro 6.2.0 by @fontawesome - https://fontawesome.com License - https://fontawesome.com/license (Commercial License) Copyright 2022 Fonticons, Inc. --><path d="M384 271.1l31.12-.0169c.2852-3.719 .7344-7.389 .8223-11.16c2.658-114.8-88.29-210.1-203.1-212.8C97.97 45.4 2.713 136.3 .0566 251.2c-2.658 114.8 88.29 210.1 203.1 212.8c88.18 2.041 164.6-51.19 196.7-127.1l-15.84 .0117C366.3 335.1 352 321.7 352 303.1C352 286.3 366.3 271.1 384 271.1zM184 152C184 138.8 194.8 128 208 128S232 138.8 232 152v112C232 277.3 221.3 288 208 288S184 277.3 184 264V152zM208 384C190.3 384 176 369.7 176 352c0-17.67 14.33-32 32-32s32 14.33 32 32C240 369.7 225.7 384 208 384z" class="fa-secondary"/></svg>