<svg xmlns="http://www.w3.org/2000/svg" viewBox="0 0 512 512"><!--! Font Awesome Pro 6.2.0 by @fontawesome - https://fontawesome.com License - https://fontawesome.com/license (Commercial License) Copyright 2022 Fonticons, Inc. --><path d="M224 128C224 145.7 209.7 160 192 160C174.3 160 160 145.7 160 128C160 110.3 174.3 96 192 96C209.7 96 224 110.3 224 128zM512 416C512 451.3 483.3 480 448 480H64C28.65 480 0 451.3 0 416V224H512V416zM256 128C256 110.3 270.3 96 288 96C305.7 96 320 110.3 320 128C320 145.7 305.7 160 288 160C270.3 160 256 145.7 256 128z" class="fa-secondary"/></svg>