<svg xmlns="http://www.w3.org/2000/svg" viewBox="0 0 512 512"><!--! Font Awesome Pro 6.2.0 by @fontawesome - https://fontawesome.com License - https://fontawesome.com/license (Commercial License) Copyright 2022 Fonticons, Inc. --><path d="M72.94 288H32C14.33 288 0 273.7 0 256C0 238.3 14.33 224 32 224H51.6L72.94 288zM167 288H140.4L119.1 224H183L167 288zM248.1 224H263L279 288H232.1L248.1 224zM392.9 224L371.6 288H344.1L328.1 224H392.9zM480 224C497.7 224 512 238.3 512 256C512 273.7 497.7 288 480 288H439.1L460.4 224H480z" class="fa-secondary"/></svg>