<svg xmlns="http://www.w3.org/2000/svg" viewBox="0 0 576 512"><!--! Font Awesome Pro 6.2.0 by @fontawesome - https://fontawesome.com License - https://fontawesome.com/license (Commercial License) Copyright 2022 Fonticons, Inc. --><path d="M432 32h-288C117.5 32 96 53.49 96 80v320h384v-320C480 53.49 458.5 32 432 32zM368.1 263c9.375 9.375 9.375 24.56 0 33.94c-9.381 9.379-24.56 9.371-33.94 0L288 249.9L240.1 296.1c-9.381 9.379-24.56 9.371-33.94 0c-9.375-9.375-9.375-24.56 0-33.94L254.1 216L207 168.1c-9.375-9.375-9.375-24.56 0-33.94s24.56-9.375 33.94 0L288 182.1l47.03-47.03c9.375-9.375 24.56-9.375 33.94 0s9.375 24.56 0 33.94L321.9 216L368.1 263z" class="fa-secondary"/></svg>