<svg xmlns="http://www.w3.org/2000/svg" viewBox="0 0 512 512"><!--! Font Awesome Pro 6.2.0 by @fontawesome - https://fontawesome.com License - https://fontawesome.com/license (Commercial License) Copyright 2022 Fonticons, Inc. --><path d="M256 0c70.69 0 128 57.31 128 128c0 70.7-57.31 128-128 128s-128 57.31-128 128c0 70.7 57.31 128 128 128c141.4 0 256-114.6 256-256S397.4 0 256 0zM256 416c-17.67 0-32-14.33-32-32s14.33-32 32-32s32 14.33 32 32S273.7 416 256 416zM256 160c17.67 0 32-14.33 32-32s-14.33-32-32-32S224 110.3 224 128S238.3 160 256 160z" class="fa-secondary"/></svg>